<?xml version="1.0" encoding="UTF-8" standalone="no"?>
<svg
   xmlns:dc="http://purl.org/dc/elements/1.1/"
   xmlns:cc="http://creativecommons.org/ns#"
   xmlns:rdf="http://www.w3.org/1999/02/22-rdf-syntax-ns#"
   xmlns:svg="http://www.w3.org/2000/svg"
   xmlns="http://www.w3.org/2000/svg"
   xmlns:sodipodi="http://sodipodi.sourceforge.net/DTD/sodipodi-0.dtd"
   xmlns:inkscape="http://www.inkscape.org/namespaces/inkscape"
   viewBox="0 0 369.6088 281.88647"
   version="1.1"
   id="svg482"
   sodipodi:docname="coinflip_bayes.svg"
   width="369.6088"
   height="281.88647"
   inkscape:version="1.0.1 (3bc2e813f5, 2020-09-07, custom)">
  <metadata
     id="metadata486">
    <rdf:RDF>
      <cc:Work
         rdf:about="">
        <dc:format>image/svg+xml</dc:format>
        <dc:type
           rdf:resource="http://purl.org/dc/dcmitype/StillImage" />
        <dc:title></dc:title>
      </cc:Work>
    </rdf:RDF>
  </metadata>
  <sodipodi:namedview
     pagecolor="#ffffff"
     bordercolor="#666666"
     borderopacity="1"
     objecttolerance="10"
     gridtolerance="10"
     guidetolerance="10"
     inkscape:pageopacity="0"
     inkscape:pageshadow="2"
     inkscape:window-width="1366"
     inkscape:window-height="768"
     id="namedview484"
     showgrid="false"
     inkscape:zoom="1.1686508"
     inkscape:cx="169.07334"
     inkscape:cy="128.82719"
     inkscape:window-x="0"
     inkscape:window-y="0"
     inkscape:window-maximized="1"
     inkscape:current-layer="svg482" />
  <defs
     id="defs277">
    <style
       type="text/css"
       id="style275"><![CDATA[
    line, polyline, polygon, path, rect, circle {
      fill: none;
      stroke: #000000;
      stroke-linecap: round;
      stroke-linejoin: round;
      stroke-miterlimit: 10.00;
    }
  ]]></style>
  </defs>
  <defs
     id="defs286">
    <clipPath
       id="cpMTguNDF8MTQ3LjY3fDQ3Mi41MXwyMi40MA==">
      <rect
         x="18.41"
         y="22.4"
         width="129.25999"
         height="450.10999"
         id="rect283" />
    </clipPath>
  </defs>
  <path
     id="polyline290"
     clip-path="url(#cpMTguNDF8MTQ3LjY3fDQ3Mi41MXwyMi40MA==)"
     style="fill:none;stroke:#e53935;stroke-width:2;stroke-linecap:butt;stroke-linejoin:round;stroke-miterlimit:10;stroke-dasharray:none"
     d="m 24.28,452.05 h 1.18 1.17 1.18 1.17 1.18 1.17 1.18 1.17 1.18 1.17 l 1.18,-0.01 h 1.17 l 1.18,-0.01 1.18,-0.01 1.17,-0.01 1.18,-0.02 1.17,-0.03 1.18,-0.04 1.17,-0.05 1.18,-0.07 1.17,-0.09 1.18,-0.11 1.17,-0.14 1.18,-0.17 1.17,-0.22 1.18,-0.25 1.17,-0.31 1.18,-0.37 1.17,-0.43 1.18,-0.51 1.17,-0.58 1.18,-0.67 1.17,-0.76 1.18,-0.87 1.17,-0.97 1.18,-1.09 1.17,-1.21 1.18,-1.34 1.17,-1.47 1.18,-1.61 1.17,-1.75 1.18,-1.89 1.17,-2.03 1.18,-2.17 1.17,-2.32 1.18,-2.45 1.17,-2.57 1.18,-2.71 1.17,-2.81 1.18,-2.92 1.17,-3 1.18,-3.08 1.17,-3.13 1.18,-3.17 1.17,-3.19 1.18,-3.18 1.17,-3.15 1.18,-3.1 1.17,-3.01 1.18,-2.89 1.18,-2.76 1.17,-2.58 1.18,-2.39 1.17,-2.15 1.18,-1.89 1.17,-1.6 1.18,-1.29 1.17,-0.95 1.18,-0.58 1.17,-0.2 1.18,0.21 1.17,0.61 1.18,1.05 1.17,1.47 1.18,1.89 1.17,2.32 1.18,2.73 1.17,3.12 1.18,3.48 1.17,3.82 1.18,4.12 1.17,4.37 1.18,4.58 1.17,4.72 1.18,4.81 1.17,4.82 1.18,4.78 1.17,4.65 1.18,4.45 1.17,4.19 1.18,3.85 1.17,3.46 1.18,3 1.17,2.52 1.18,2 1.17,1.49 1.18,0.99 1.17,0.57 1.18,0.22 1.17,0.04"
     transform="translate(-7.4583118,-214.36219)" />
  <path
     id="polyline292"
     clip-path="url(#cpMTguNDF8MTQ3LjY3fDQ3Mi41MXwyMi40MA==)"
     style="fill:none;stroke:#5e35b1;stroke-width:2;stroke-linecap:butt;stroke-linejoin:round;stroke-miterlimit:10;stroke-dasharray:none"
     d="m 24.28,452.05 h 1.18 1.17 1.18 1.17 1.18 1.17 1.18 1.17 1.18 1.17 1.18 1.17 1.18 1.18 1.17 l 1.18,-0.01 h 1.17 l 1.18,-0.01 1.17,-0.01 1.18,-0.02 1.17,-0.04 1.18,-0.04 1.17,-0.08 1.18,-0.1 1.17,-0.14 1.18,-0.2 1.17,-0.27 1.18,-0.36 1.17,-0.46 1.18,-0.59 1.17,-0.75 1.18,-0.93 1.17,-1.14 1.18,-1.38 1.17,-1.65 1.18,-1.96 1.17,-2.28 1.18,-2.62 1.17,-3 1.18,-3.38 1.17,-3.76 1.18,-4.15 1.17,-4.51 1.18,-4.86 1.17,-5.18 1.18,-5.45 1.17,-5.65 1.18,-5.8 1.17,-5.86 1.18,-5.84 1.17,-5.73 1.18,-5.5 1.17,-5.19 1.18,-4.77 1.17,-4.25 1.18,-3.64 1.17,-2.93 1.18,-2.16 1.17,-1.32 1.18,-0.45 1.18,0.45 1.17,1.36 1.18,2.25 1.17,3.11 1.18,3.9 1.17,4.63 1.18,5.26 1.17,5.78 1.18,6.19 1.17,6.47 1.18,6.63 1.17,6.66 1.18,6.57 1.17,6.36 1.18,6.06 1.17,5.67 1.18,5.22 1.17,4.7 1.18,4.16 1.17,3.62 1.18,3.07 1.17,2.56 1.18,2.07 1.17,1.64 1.18,1.26 1.17,0.93 1.18,0.67 1.17,0.46 1.18,0.31 1.17,0.18 1.18,0.11 1.17,0.06 1.18,0.03 1.17,0.01 1.18,0.01 h 1.17 1.18 1.17 1.18 1.17"
     transform="translate(-7.4583118,-214.36219)" />
  <path
     id="polyline294"
     clip-path="url(#cpMTguNDF8MTQ3LjY3fDQ3Mi41MXwyMi40MA==)"
     style="fill:none;stroke:#000000;stroke-width:2;stroke-linecap:butt;stroke-linejoin:round;stroke-miterlimit:10;stroke-dasharray:none;stroke-dashoffset:0"
     d="m 24.28,452.05 h 1.18 1.17 1.18 l 1.17,-0.01 1.18,-0.01 1.17,-0.03 1.18,-0.04 1.17,-0.08 1.18,-0.12 1.17,-0.18 1.18,-0.25 1.17,-0.33 1.18,-0.42 1.18,-0.55 1.17,-0.66 1.18,-0.81 1.17,-0.96 1.18,-1.13 1.17,-1.3 1.18,-1.47 1.17,-1.66 1.18,-1.84 1.17,-2.03 1.18,-2.2 1.17,-2.38 1.18,-2.54 1.17,-2.69 1.18,-2.83 1.17,-2.95 1.18,-3.06 1.17,-3.13 1.18,-3.19 1.17,-3.23 1.18,-3.24 1.17,-3.21 1.18,-3.18 1.17,-3.1 1.18,-3 1.17,-2.88 1.18,-2.72 1.17,-2.55 1.18,-2.36 1.17,-2.12 1.18,-1.89 1.17,-1.63 1.18,-1.36 1.17,-1.06 1.18,-0.77 1.17,-0.47 1.18,-0.15 1.17,0.15 1.18,0.47 1.17,0.77 1.18,1.06 1.17,1.36 1.18,1.63 1.17,1.89 1.18,2.12 1.17,2.36 1.18,2.55 1.18,2.72 1.17,2.88 1.18,3 1.17,3.1 1.18,3.18 1.17,3.21 1.18,3.24 1.17,3.23 1.18,3.19 1.17,3.13 1.18,3.06 1.17,2.95 1.18,2.83 1.17,2.69 1.18,2.54 1.17,2.38 1.18,2.2 1.17,2.03 1.18,1.84 1.17,1.66 1.18,1.47 1.17,1.3 1.18,1.13 1.17,0.96 1.18,0.81 1.17,0.66 1.18,0.55 1.17,0.42 1.18,0.33 1.17,0.25 1.18,0.18 1.17,0.12 1.18,0.08 1.17,0.04 1.18,0.03 1.17,0.01 1.18,0.01 h 1.17 1.18 1.17"
     transform="translate(-7.4583118,-214.36219)" />
  <defs
     id="defs299">
    <clipPath
       id="cpMC4wMHw1MDQuMDB8NTA0LjAwfDAuMDA=">
      <rect
         x="0"
         y="0"
         width="504"
         height="504"
         id="rect296" />
    </clipPath>
  </defs>
  <defs
     id="defs304">
    <clipPath
       id="cpMTUzLjE1fDI4Mi40MXw0NzIuNTF8MjIuNDA=">
      <rect
         x="153.14999"
         y="22.4"
         width="129.25999"
         height="450.10999"
         id="rect301" />
    </clipPath>
  </defs>
  <path
     id="polyline308"
     clip-path="url(#cpMTUzLjE1fDI4Mi40MXw0NzIuNTF8MjIuNDA=)"
     style="fill:none;stroke:#e53935;stroke-width:2;stroke-linecap:butt;stroke-linejoin:round;stroke-miterlimit:10;stroke-dasharray:none"
     d="m 159.02,452.05 h 1.18 1.18 1.17 1.18 1.17 1.18 1.17 1.18 1.17 1.18 1.17 1.18 1.17 1.18 1.17 1.18 1.17 1.18 1.17 1.18 1.17 1.18 1.17 1.18 1.17 1.18 1.17 1.18 1.17 1.18 1.17 1.18 1.17 1.18 1.17 1.18 1.17 1.18 1.17 1.18 1.17 1.18 1.17 1.18 1.17 1.18 1.17 1.18 1.18 1.17 1.18 1.17 1.18 1.17 1.18 l 1.17,-0.01 h 1.18 l 1.17,-0.01 1.18,-0.02 1.17,-0.03 1.18,-0.05 1.17,-0.08 1.18,-0.13 1.17,-0.2 1.18,-0.32 1.17,-0.49 1.18,-0.73 1.17,-1.09 1.18,-1.58 1.17,-2.25 1.18,-3.16 1.17,-4.33 1.18,-5.84 1.17,-7.68 1.18,-9.9 1.17,-12.44 1.18,-15.21 1.17,-18.09 1.18,-20.81 1.17,-23.04 1.18,-24.4 1.17,-24.43 1.18,-22.7 1.17,-18.88 1.18,-12.81 1.17,-4.65 1.18,5.04 1.17,15.32 1.18,24.93 1.17,32.37 1.18,36.39 1.17,36.21 1.18,31.91 1.17,24.55 1.18,16.04 1.18,8.45 1.17,3.29 1.18,0.78 1.17,0.08 h 1.18"
     transform="translate(-7.4583118,-214.36219)" />
  <path
     id="polyline310"
     clip-path="url(#cpMTUzLjE1fDI4Mi40MXw0NzIuNTF8MjIuNDA=)"
     style="fill:none;stroke:#5e35b1;stroke-width:2;stroke-linecap:butt;stroke-linejoin:round;stroke-miterlimit:10;stroke-dasharray:none"
     d="m 159.02,452.05 h 1.18 1.18 1.17 1.18 1.17 1.18 1.17 1.18 1.17 1.18 1.17 1.18 1.17 1.18 1.17 1.18 1.17 1.18 1.17 1.18 1.17 1.18 1.17 1.18 1.17 1.18 1.17 1.18 1.17 1.18 1.17 1.18 1.17 1.18 1.17 1.18 1.17 1.18 1.17 1.18 1.17 1.18 1.17 1.18 1.17 1.18 1.17 1.18 1.18 1.17 1.18 l 1.17,-0.01 1.18,-0.01 1.17,-0.01 1.18,-0.03 1.17,-0.05 1.18,-0.08 1.17,-0.14 1.18,-0.22 1.17,-0.37 1.18,-0.59 1.17,-0.9 1.18,-1.36 1.17,-2.01 1.18,-2.9 1.17,-4.07 1.18,-5.59 1.17,-7.47 1.18,-9.73 1.17,-12.3 1.18,-15.08 1.17,-17.89 1.18,-20.46 1.17,-22.44 1.18,-23.46 1.17,-23.12 1.18,-21.08 1.17,-17.18 1.18,-11.4 1.17,-4.06 1.18,4.26 1.17,12.77 1.18,20.46 1.17,26.4 1.18,29.86 1.17,30.48 1.18,28.36 1.17,24.11 1.18,18.67 1.17,13.04 1.18,8.11 1.17,4.41 1.18,2.04 1.17,0.77 1.18,0.22 1.18,0.04 1.17,0.01 h 1.18 1.17 1.18"
     transform="translate(-7.4583118,-214.36219)" />
  <path
     id="polyline312"
     clip-path="url(#cpMTUzLjE1fDI4Mi40MXw0NzIuNTF8MjIuNDA=)"
     style="fill:none;stroke:#000000;stroke-width:2;stroke-linecap:butt;stroke-linejoin:round;stroke-miterlimit:10;stroke-dasharray:none;stroke-dashoffset:0"
     d="m 159.02,452.05 h 1.18 1.18 1.17 l 1.18,-0.01 1.17,-0.01 1.18,-0.03 1.17,-0.04 1.18,-0.08 1.17,-0.12 1.18,-0.18 1.17,-0.25 1.18,-0.33 1.17,-0.42 1.18,-0.55 1.17,-0.66 1.18,-0.81 1.17,-0.96 1.18,-1.13 1.17,-1.3 1.18,-1.47 1.17,-1.66 1.18,-1.84 1.17,-2.03 1.18,-2.2 1.17,-2.38 1.18,-2.54 1.17,-2.69 1.18,-2.83 1.17,-2.95 1.18,-3.06 1.17,-3.13 1.18,-3.19 1.17,-3.23 1.18,-3.24 1.17,-3.21 1.18,-3.18 1.17,-3.1 1.18,-3 1.17,-2.88 1.18,-2.72 1.17,-2.55 1.18,-2.36 1.17,-2.12 1.18,-1.89 1.17,-1.63 1.18,-1.36 1.17,-1.06 1.18,-0.77 1.18,-0.47 1.17,-0.15 1.18,0.15 1.17,0.47 1.18,0.77 1.17,1.06 1.18,1.36 1.17,1.63 1.18,1.89 1.17,2.12 1.18,2.36 1.17,2.55 1.18,2.72 1.17,2.88 1.18,3 1.17,3.1 1.18,3.18 1.17,3.21 1.18,3.24 1.17,3.23 1.18,3.19 1.17,3.13 1.18,3.06 1.17,2.95 1.18,2.83 1.17,2.69 1.18,2.54 1.17,2.38 1.18,2.2 1.17,2.03 1.18,1.84 1.17,1.66 1.18,1.47 1.17,1.3 1.18,1.13 1.17,0.96 1.18,0.81 1.17,0.66 1.18,0.55 1.17,0.42 1.18,0.33 1.17,0.25 1.18,0.18 1.17,0.12 1.18,0.08 1.17,0.04 1.18,0.03 1.18,0.01 1.17,0.01 h 1.18 1.17 1.18"
     transform="translate(-7.4583118,-214.36219)" />
  <defs
     id="defs318">
    <clipPath
       id="clipPath316">
      <rect
         x="0"
         y="0"
         width="504"
         height="504"
         id="rect314" />
    </clipPath>
  </defs>
  <defs
     id="defs323">
    <clipPath
       id="cpMjg3Ljg5fDQxNy4xNXw0NzIuNTF8MjIuNDA=">
      <rect
         x="287.89001"
         y="22.4"
         width="129.25999"
         height="450.10999"
         id="rect320" />
    </clipPath>
  </defs>
  <defs
     id="defs337">
    <clipPath
       id="clipPath335">
      <rect
         x="0"
         y="0"
         width="504"
         height="504"
         id="rect333" />
    </clipPath>
  </defs>
  <defs
     id="defs342">
    <clipPath
       id="cpMTguNDF8MTQ3LjY3fDIyLjQwfDUuNDg=">
      <rect
         x="18.41"
         y="5.48"
         width="129.25999"
         height="16.92"
         id="rect339" />
    </clipPath>
  </defs>
  <defs
     id="defs354">
    <clipPath
       id="clipPath352">
      <rect
         x="0"
         y="0"
         width="504"
         height="504"
         id="rect350" />
    </clipPath>
  </defs>
  <defs
     id="defs359">
    <clipPath
       id="cpMTUzLjE1fDI4Mi40MXwyMi40MHw1LjQ4">
      <rect
         x="153.14999"
         y="5.48"
         width="129.25999"
         height="16.92"
         id="rect356" />
    </clipPath>
  </defs>
  <defs
     id="defs371">
    <clipPath
       id="clipPath369">
      <rect
         x="0"
         y="0"
         width="504"
         height="504"
         id="rect367" />
    </clipPath>
  </defs>
  <defs
     id="defs376">
    <clipPath
       id="cpMjg3Ljg5fDQxNy4xNXwyMi40MHw1LjQ4">
      <rect
         x="287.89001"
         y="5.48"
         width="129.25999"
         height="16.92"
         id="rect373" />
    </clipPath>
  </defs>
  <defs
     id="defs388">
    <clipPath
       id="clipPath386">
      <rect
         x="0"
         y="0"
         width="504"
         height="504"
         id="rect384" />
    </clipPath>
  </defs>
  <path
     style="fill:none;stroke:#000000;stroke-width:1px;stroke-linecap:square;stroke-linejoin:miter;stroke-opacity:1"
     d="m 16.821688,244.0819 v -6.39409"
     id="path490" />
  <path
     style="fill:none;stroke:#000000;stroke-width:1px;stroke-linecap:square;stroke-linejoin:miter;stroke-miterlimit:10;stroke-opacity:1"
     d="m 134.33169,244.0819 v -6.39409"
     id="path490-2" />
  <path
     style="fill:none;stroke:#000000;stroke-width:1px;stroke-linecap:square;stroke-linejoin:miter;stroke-miterlimit:10;stroke-opacity:1"
     d="m 75.581688,244.0819 v -6.39409"
     id="path490-20" />
  <text
     xml:space="preserve"
     style="font-stretch:condensed;font-size:10.6667px;line-height:1.25;font-family:'Noto Sans';-inkscape-font-specification:'Noto Sans, Condensed';letter-spacing:0px;word-spacing:0px;writing-mode:lr-tb"
     x="10.517686"
     y="253.86292"
     id="text1338"><tspan
       sodipodi:role="line"
       id="tspan1336"
       x="10.517686"
       y="253.86292">0.0</tspan></text>
  <text
     xml:space="preserve"
     style="font-stretch:condensed;font-size:10.6667px;line-height:1.25;font-family:'Noto Sans';-inkscape-font-specification:'Noto Sans, Condensed';letter-spacing:0px;word-spacing:0px;writing-mode:lr-tb"
     x="69.299019"
     y="253.86292"
     id="text1342"><tspan
       sodipodi:role="line"
       id="tspan1340"
       x="69.299019"
       y="253.86292">0.5</tspan></text>
  <text
     xml:space="preserve"
     style="font-stretch:condensed;font-size:10.6667px;line-height:1.25;font-family:'Noto Sans';-inkscape-font-specification:'Noto Sans, Condensed';letter-spacing:0px;word-spacing:0px;writing-mode:lr-tb"
     x="127.88368"
     y="253.86292"
     id="text1346"><tspan
       sodipodi:role="line"
       id="tspan1344"
       x="127.88368"
       y="253.86292">1.0</tspan></text>
  <path
     style="fill:none;stroke:#000000;stroke-width:1px;stroke-linecap:square;stroke-linejoin:miter;stroke-miterlimit:10;stroke-opacity:1"
     d="m 151.56169,244.0819 v -6.39409"
     id="path490-5" />
  <path
     style="fill:none;stroke:#000000;stroke-width:1px;stroke-linecap:square;stroke-linejoin:miter;stroke-opacity:1"
     d="M 16.821688,237.68781 H 134.33169"
     id="path488" />
  <path
     style="fill:none;stroke:#000000;stroke-width:1px;stroke-linecap:square;stroke-linejoin:miter;stroke-miterlimit:10;stroke-opacity:1"
     d="m 269.07169,244.0819 v -6.39409"
     id="path490-2-8" />
  <path
     style="fill:none;stroke:#000000;stroke-width:1px;stroke-linecap:square;stroke-linejoin:miter;stroke-miterlimit:10;stroke-opacity:1"
     d="m 210.32169,244.0819 v -6.39409"
     id="path490-20-4" />
  <path
     style="fill:none;stroke:#000000;stroke-width:1px;stroke-linecap:square;stroke-linejoin:miter;stroke-miterlimit:10;stroke-opacity:1"
     d="m 151.56169,237.68781 h 117.51"
     id="path488-4" />
  <text
     xml:space="preserve"
     style="font-stretch:condensed;font-size:10.6667px;line-height:1.25;font-family:'Noto Sans';-inkscape-font-specification:'Noto Sans, Condensed';letter-spacing:0px;word-spacing:0px;writing-mode:lr-tb"
     x="145.25769"
     y="253.86292"
     id="text1338-0"><tspan
       sodipodi:role="line"
       id="tspan1336-8"
       x="145.25769"
       y="253.86292">0.0</tspan></text>
  <text
     xml:space="preserve"
     style="font-stretch:condensed;font-size:10.6667px;line-height:1.25;font-family:'Noto Sans';-inkscape-font-specification:'Noto Sans, Condensed';letter-spacing:0px;word-spacing:0px;writing-mode:lr-tb"
     x="204.03902"
     y="253.86292"
     id="text1342-4"><tspan
       sodipodi:role="line"
       id="tspan1340-2"
       x="204.03902"
       y="253.86292">0.5</tspan></text>
  <text
     xml:space="preserve"
     style="font-stretch:condensed;font-size:10.6667px;line-height:1.25;font-family:'Noto Sans';-inkscape-font-specification:'Noto Sans, Condensed';letter-spacing:0px;word-spacing:0px;writing-mode:lr-tb"
     x="262.62369"
     y="253.86292"
     id="text1346-5"><tspan
       sodipodi:role="line"
       id="tspan1344-4"
       x="262.62369"
       y="253.86292">1.0</tspan></text>
  <path
     style="fill:none;stroke:#000000;stroke-width:2;stroke-linecap:butt;stroke-linejoin:miter;stroke-miterlimit:10;stroke-dasharray:none;stroke-opacity:1"
     d="m 294.25971,109.59976 h 15.00001"
     id="path1423" />
  <text
     xml:space="preserve"
     style="font-style:normal;font-variant:normal;font-weight:normal;font-stretch:condensed;font-size:13.3333px;line-height:1.25;font-family:'Noto Sans';-inkscape-font-specification:'Noto Sans, Condensed';font-variant-ligatures:normal;font-variant-caps:normal;font-variant-numeric:normal;font-variant-east-asian:normal;letter-spacing:0px;word-spacing:0px;writing-mode:lr-tb"
     x="317.31573"
     y="114.45309"
     id="text1427"><tspan
       sodipodi:role="line"
       id="tspan1425"
       x="317.31573"
       y="114.45309">Prior</tspan></text>
  <text
     xml:space="preserve"
     style="font-style:normal;font-variant:normal;font-weight:normal;font-stretch:condensed;font-size:13.3333px;line-height:1.25;font-family:'Noto Sans';-inkscape-font-specification:'Noto Sans, Condensed';font-variant-ligatures:normal;font-variant-caps:normal;font-variant-numeric:normal;font-variant-east-asian:normal;letter-spacing:0px;word-spacing:0px;writing-mode:lr-tb"
     x="317.31573"
     y="133.67273"
     id="text1431"><tspan
       sodipodi:role="line"
       id="tspan1429"
       x="317.31573"
       y="133.67273">Likelihood</tspan></text>
  <text
     xml:space="preserve"
     style="font-style:normal;font-variant:normal;font-weight:normal;font-stretch:condensed;font-size:13.3333px;line-height:1.25;font-family:'Noto Sans';-inkscape-font-specification:'Noto Sans, Condensed';font-variant-ligatures:normal;font-variant-caps:normal;font-variant-numeric:normal;font-variant-east-asian:normal;letter-spacing:0px;word-spacing:0px;writing-mode:lr-tb"
     x="317.31573"
     y="152.59906"
     id="text1435"><tspan
       sodipodi:role="line"
       id="tspan1433"
       x="317.31573"
       y="152.59906">Posterior</tspan></text>
  <path
     style="fill:none;stroke:#e53935;stroke-width:2;stroke-linecap:butt;stroke-linejoin:miter;stroke-miterlimit:10;stroke-dasharray:none;stroke-opacity:1"
     d="m 294.25971,128.67276 h 15.00001"
     id="path1423-0" />
  <path
     style="fill:none;stroke:#5e35b1;stroke-width:2;stroke-linecap:butt;stroke-linejoin:miter;stroke-miterlimit:10;stroke-dasharray:none;stroke-opacity:1"
     d="m 294.25971,147.74576 h 15.00001"
     id="path1423-09" />
  <text
     xml:space="preserve"
     style="font-style:normal;font-variant:normal;font-weight:normal;font-stretch:condensed;font-size:13.3333px;line-height:1.25;font-family:'Noto Sans';-inkscape-font-specification:'Noto Sans, Condensed';font-variant-ligatures:normal;font-variant-caps:normal;font-variant-numeric:normal;font-variant-east-asian:normal;letter-spacing:0px;word-spacing:0px;writing-mode:lr-tb"
     x="62.723286"
     y="278.68649"
     id="text1460"><tspan
       sodipodi:role="line"
       id="tspan1458"
       x="62.723286"
       y="278.68649">Probability of landing heads up</tspan></text>
  <text
     xml:space="preserve"
     style="font-style:normal;font-variant:normal;font-weight:normal;font-stretch:condensed;font-size:13.3333px;line-height:1.25;font-family:'Noto Sans';-inkscape-font-specification:'Noto Sans, Condensed';font-variant-ligatures:normal;font-variant-caps:normal;font-variant-numeric:normal;font-variant-east-asian:normal;letter-spacing:0px;word-spacing:0px;writing-mode:lr-tb"
     x="53.690453"
     y="10.199974"
     id="text1464"><tspan
       sodipodi:role="line"
       id="tspan1462"
       x="53.690453"
       y="10.199974">10 coin flips</tspan></text>
  <path
     style="fill:none;stroke:#000000;stroke-width:1;stroke-linecap:butt;stroke-linejoin:miter;stroke-miterlimit:10;stroke-dasharray:1, 3;stroke-dashoffset:0;stroke-opacity:1"
     d="M 143.14952,237.68781 V 0.34225992"
     id="path1466" />
  <text
     xml:space="preserve"
     style="font-style:normal;font-variant:normal;font-weight:normal;font-stretch:condensed;font-size:13.3333px;line-height:1.25;font-family:'Noto Sans';-inkscape-font-specification:'Noto Sans, Condensed';font-variant-ligatures:normal;font-variant-caps:normal;font-variant-numeric:normal;font-variant-east-asian:normal;letter-spacing:0px;word-spacing:0px;writing-mode:lr-tb"
     x="171.20897"
     y="10.199974"
     id="text1464-6"><tspan
       sodipodi:role="line"
       id="tspan1462-0"
       x="171.20897"
       y="10.199974">50 coin flips</tspan></text>
  <text
     xml:space="preserve"
     style="font-style:normal;font-variant:normal;font-weight:normal;font-stretch:condensed;font-size:13.3333px;line-height:1.25;font-family:'Noto Sans';-inkscape-font-specification:'Noto Sans, Condensed';font-variant-ligatures:normal;font-variant-caps:normal;font-variant-numeric:normal;font-variant-east-asian:normal;letter-spacing:0px;word-spacing:0px;writing-mode:lr-tb"
     x="-167.20145"
     y="10.133307"
     id="text1488"
     transform="rotate(-90)"><tspan
       sodipodi:role="line"
       id="tspan1486"
       x="-167.20145"
       y="10.133307">Probability density</tspan></text>
</svg>
