<?xml version="1.0" encoding="UTF-8" standalone="no"?>
<svg
   xmlns:dc="http://purl.org/dc/elements/1.1/"
   xmlns:cc="http://creativecommons.org/ns#"
   xmlns:rdf="http://www.w3.org/1999/02/22-rdf-syntax-ns#"
   xmlns:svg="http://www.w3.org/2000/svg"
   xmlns="http://www.w3.org/2000/svg"
   xmlns:sodipodi="http://sodipodi.sourceforge.net/DTD/sodipodi-0.dtd"
   xmlns:inkscape="http://www.inkscape.org/namespaces/inkscape"
   width="103.02301mm"
   height="63.684921mm"
   viewBox="0 0 103.02301 63.684921"
   version="1.1"
   id="svg8"
   inkscape:version="1.0.1 (3bc2e813f5, 2020-09-07, custom)"
   sodipodi:docname="intervals.svg">
  <defs
     id="defs2">
    <style
       type="text/css"
       id="style1011"><![CDATA[
    line, polyline, polygon, path, rect, circle {
      fill: none;
      stroke: #000000;
      stroke-linecap: round;
      stroke-linejoin: round;
      stroke-miterlimit: 10.00;
    }
  ]]></style>
  </defs>
  <sodipodi:namedview
     id="base"
     pagecolor="#ffffff"
     bordercolor="#666666"
     borderopacity="1.0"
     inkscape:pageopacity="0.0"
     inkscape:pageshadow="2"
     inkscape:zoom="0.98994949"
     inkscape:cx="230.88443"
     inkscape:cy="151.55987"
     inkscape:document-units="mm"
     inkscape:current-layer="layer1"
     inkscape:document-rotation="0"
     showgrid="false"
     inkscape:window-width="1366"
     inkscape:window-height="768"
     inkscape:window-x="0"
     inkscape:window-y="0"
     inkscape:window-maximized="1" />
  <metadata
     id="metadata5">
    <rdf:RDF>
      <cc:Work
         rdf:about="">
        <dc:format>image/svg+xml</dc:format>
        <dc:type
           rdf:resource="http://purl.org/dc/dcmitype/StillImage" />
        <dc:title></dc:title>
      </cc:Work>
    </rdf:RDF>
  </metadata>
  <g
     inkscape:label="Layer 1"
     inkscape:groupmode="layer"
     id="layer1"
     transform="translate(-44.286599,-126.31676)">
    <rect
       x="50.305477"
       y="126.31676"
       width="97.004135"
       height="60.090576"
       style="fill:#efebe9;stroke:none;stroke-width:0.244227"
       clip-path="none"
       id="rect1024" />
    <path
       id="polyline1028"
       clip-path="none"
       style="fill:none;stroke:#ffffff;stroke-width:0.13229167;stroke-linecap:butt;stroke-linejoin:round;stroke-miterlimit:10;stroke-dasharray:none"
       d="m 83.308165,186.40734 c 0,-20.03019 0,-40.06039 0,-60.09058" />
    <path
       id="polyline1030"
       clip-path="none"
       style="fill:none;stroke:#ffffff;stroke-width:0.13229167;stroke-linecap:butt;stroke-linejoin:round;stroke-miterlimit:10;stroke-dasharray:none"
       d="m 113.88477,186.40734 c 0,-20.03019 0,-40.06039 0,-60.09058" />
    <path
       id="polyline1036"
       clip-path="none"
       style="fill:none;stroke:#ffffff;stroke-width:0.26458333;stroke-linecap:butt;stroke-linejoin:round;stroke-miterlimit:10;stroke-dasharray:none"
       d="m 68.019864,186.40734 c 0,-20.03019 0,-40.06039 0,-60.09058" />
    <path
       id="polyline1038"
       clip-path="none"
       style="fill:none;stroke:#ffffff;stroke-width:0.26458333;stroke-linecap:butt;stroke-linejoin:round;stroke-miterlimit:10;stroke-dasharray:none"
       d="m 98.596467,186.40734 c 0,-20.03019 0,-40.06039 0,-60.09058" />
    <path
       id="polyline1040"
       clip-path="none"
       style="fill:none;stroke:#ffffff;stroke-width:0.26458333;stroke-linecap:butt;stroke-linejoin:round;stroke-miterlimit:10;stroke-dasharray:none"
       d="m 129.16873,186.40734 c 0,-20.03019 0,-40.06039 0,-60.09058" />
    <polygon
       points="43.48,294.15 43.91,294.03 44.35,293.9 44.79,293.78 45.22,293.64 45.66,293.51 46.09,293.37 46.53,293.22 46.96,293.07 47.4,292.92 47.83,292.76 48.27,292.59 48.71,292.42 49.14,292.25 49.58,292.07 50.01,291.88 50.45,291.69 50.88,291.49 51.32,291.29 51.75,291.08 52.19,290.86 52.63,290.64 53.06,290.41 53.5,290.18 53.93,289.93 54.37,289.69 54.8,289.43 55.24,289.17 55.68,288.9 56.11,288.62 56.55,288.33 56.98,288.04 57.42,287.73 57.85,287.42 58.29,287.1 58.72,286.78 59.16,286.44 59.6,286.1 60.03,285.74 60.47,285.38 60.9,285 61.34,284.62 61.77,284.23 62.21,283.83 62.64,283.41 63.08,282.99 63.52,282.56 63.95,282.11 64.39,281.66 64.82,281.19 65.26,280.71 65.69,280.22 66.13,279.72 66.56,279.21 67,278.68 67.44,278.15 67.87,277.6 68.31,277.03 68.74,276.46 69.18,275.87 69.61,275.27 70.05,274.65 70.48,274.03 70.92,273.38 71.36,272.73 71.79,272.06 72.23,271.37 72.66,270.68 73.1,269.96 73.53,269.23 73.97,268.49 74.41,267.73 74.84,266.96 75.28,266.17 75.71,265.37 76.15,264.55 76.58,263.71 77.02,262.86 77.45,262 77.89,261.11 78.33,260.21 78.76,259.29 78.98,258.83 78.98,297.37 78.76,297.37 78.33,297.37 77.89,297.37 77.45,297.37 77.02,297.37 76.58,297.37 76.15,297.37 75.71,297.37 75.28,297.37 74.84,297.37 74.41,297.37 73.97,297.37 73.53,297.37 73.1,297.37 72.66,297.37 72.23,297.37 71.79,297.37 71.36,297.37 70.92,297.37 70.48,297.37 70.05,297.37 69.61,297.37 69.18,297.37 68.74,297.37 68.31,297.37 67.87,297.37 67.44,297.37 67,297.37 66.56,297.37 66.13,297.37 65.69,297.37 65.26,297.37 64.82,297.37 64.39,297.37 63.95,297.37 63.52,297.37 63.08,297.37 62.64,297.37 62.21,297.37 61.77,297.37 61.34,297.37 60.9,297.37 60.47,297.37 60.03,297.37 59.6,297.37 59.16,297.37 58.72,297.37 58.29,297.37 57.85,297.37 57.42,297.37 56.98,297.37 56.55,297.37 56.11,297.37 55.68,297.37 55.24,297.37 54.8,297.37 54.37,297.37 53.93,297.37 53.5,297.37 53.06,297.37 52.63,297.37 52.19,297.37 51.75,297.37 51.32,297.37 50.88,297.37 50.45,297.37 50.01,297.37 49.58,297.37 49.14,297.37 48.71,297.37 48.27,297.37 47.83,297.37 47.4,297.37 46.96,297.37 46.53,297.37 46.09,297.37 45.66,297.37 45.22,297.37 44.79,297.37 44.35,297.37 43.91,297.37 43.48,297.37 43.04,297.37 42.61,297.37 42.17,297.37 41.74,297.37 41.3,297.37 40.87,297.37 40.43,297.37 39.99,297.37 39.56,297.37 39.12,297.37 39.12,295.16 39.56,295.07 39.99,294.98 40.43,294.89 40.87,294.79 41.3,294.69 41.74,294.59 42.17,294.49 42.61,294.38 43.04,294.27 "
       style="fill:#ffffff;stroke:none;stroke-width:2.13"
       clip-path="none"
       id="polygon1042"
       transform="matrix(0.43383376,0,0,0.13439479,34.380394,126.72787)" />
    <polygon
       points="83.12,249.19 83.55,248.09 83.99,246.96 84.42,245.82 84.86,244.66 85.29,243.49 85.73,242.29 86.17,241.08 86.6,239.85 87.04,238.6 87.47,237.34 87.91,236.05 88.34,234.75 88.78,233.43 89.21,232.09 89.65,230.74 90.09,229.36 90.52,227.97 90.96,226.56 91.39,225.14 91.83,223.69 92.26,222.23 92.7,220.75 93.13,219.26 93.57,217.75 94.01,216.22 94.44,214.67 94.88,213.11 95.31,211.53 95.75,209.94 96.18,208.32 96.62,206.7 97.06,205.05 97.49,203.4 97.93,201.72 98.36,200.04 98.8,198.33 99.23,196.62 99.67,194.88 100.1,193.14 100.54,191.38 100.98,189.61 101.41,187.82 101.85,186.03 102.28,184.22 102.72,182.4 102.94,181.48 102.94,297.37 102.72,297.37 102.28,297.37 101.85,297.37 101.41,297.37 100.98,297.37 100.54,297.37 100.1,297.37 99.67,297.37 99.23,297.37 98.8,297.37 98.36,297.37 97.93,297.37 97.49,297.37 97.06,297.37 96.62,297.37 96.18,297.37 95.75,297.37 95.31,297.37 94.88,297.37 94.44,297.37 94.01,297.37 93.57,297.37 93.13,297.37 92.7,297.37 92.26,297.37 91.83,297.37 91.39,297.37 90.96,297.37 90.52,297.37 90.09,297.37 89.65,297.37 89.21,297.37 88.78,297.37 88.34,297.37 87.91,297.37 87.47,297.37 87.04,297.37 86.6,297.37 86.17,297.37 85.73,297.37 85.29,297.37 84.86,297.37 84.42,297.37 83.99,297.37 83.55,297.37 83.12,297.37 82.68,297.37 82.25,297.37 81.81,297.37 81.37,297.37 80.94,297.37 80.5,297.37 80.07,297.37 79.63,297.37 79.2,297.37 78.98,297.37 78.98,258.83 79.2,258.36 79.63,257.41 80.07,256.44 80.5,255.46 80.94,254.46 81.37,253.44 81.81,252.4 82.25,251.35 82.68,250.28 "
       style="fill:#bbdefb;stroke:none;stroke-width:2.13"
       clip-path="none"
       id="polygon1044"
       transform="matrix(0.43383376,0,0,0.13439479,34.380394,126.72787)" />
    <polygon
       points="107.07,163.62 107.51,161.7 107.94,159.76 108.38,157.83 108.82,155.88 109.25,153.94 109.69,151.98 110.12,150.03 110.56,148.07 110.99,146.1 111.43,144.14 111.86,142.17 112.3,140.2 112.74,138.23 113.17,136.26 113.61,134.29 114.04,132.33 114.48,130.36 114.91,128.4 115.35,126.44 115.78,124.48 116.22,122.53 116.66,120.58 117.09,118.64 117.53,116.7 117.96,114.77 118.4,112.85 118.83,110.94 119.27,109.03 119.71,107.14 120.14,105.26 120.58,103.38 121.01,101.52 121.45,99.67 121.88,97.84 122.32,96.01 122.75,94.21 123.19,92.41 123.63,90.64 124.06,88.87 124.28,88 124.28,297.37 124.06,297.37 123.63,297.37 123.19,297.37 122.75,297.37 122.32,297.37 121.88,297.37 121.45,297.37 121.01,297.37 120.58,297.37 120.14,297.37 119.71,297.37 119.27,297.37 118.83,297.37 118.4,297.37 117.96,297.37 117.53,297.37 117.09,297.37 116.66,297.37 116.22,297.37 115.78,297.37 115.35,297.37 114.91,297.37 114.48,297.37 114.04,297.37 113.61,297.37 113.17,297.37 112.74,297.37 112.3,297.37 111.86,297.37 111.43,297.37 110.99,297.37 110.56,297.37 110.12,297.37 109.69,297.37 109.25,297.37 108.82,297.37 108.38,297.37 107.94,297.37 107.51,297.37 107.07,297.37 106.64,297.37 106.2,297.37 105.77,297.37 105.33,297.37 104.9,297.37 104.46,297.37 104.02,297.37 103.59,297.37 103.15,297.37 102.94,297.37 102.94,181.48 103.15,180.56 103.59,178.72 104.02,176.87 104.46,175 104.9,173.13 105.33,171.24 105.77,169.35 106.2,167.45 106.64,165.54 "
       style="fill:#2196f3;stroke:none;stroke-width:2.13"
       clip-path="none"
       id="polygon1046"
       transform="matrix(0.43383376,0,0,0.13439479,34.380394,126.72787)" />
    <polygon
       points="128.42,72.32 128.85,70.79 129.29,69.28 129.72,67.79 130.16,66.33 130.59,64.9 131.03,63.49 131.47,62.11 131.9,60.76 132.34,59.43 132.77,58.14 133.21,56.87 133.64,55.64 134.08,54.44 134.51,53.26 134.95,52.12 135.39,51.02 135.82,49.94 136.26,48.9 136.69,47.89 137.13,46.92 137.56,45.98 138,45.07 138.43,44.21 138.87,43.37 139.31,42.58 139.74,41.81 140.18,41.09 140.61,40.41 141.05,39.76 141.48,39.15 141.92,38.57 142.36,38.04 142.79,37.54 143.23,37.09 143.66,36.67 144.1,36.29 144.53,35.95 144.97,35.65 145.4,35.39 145.84,35.17 146.28,34.99 146.71,34.85 147.15,34.75 147.58,34.69 148.02,34.67 148.45,34.69 148.89,34.75 149.32,34.85 149.76,34.99 150.2,35.17 150.63,35.39 151.07,35.65 151.5,35.95 151.94,36.29 152.37,36.67 152.81,37.09 153.24,37.54 153.68,38.04 154.12,38.57 154.55,39.15 154.99,39.76 155.42,40.41 155.86,41.09 156.29,41.81 156.73,42.58 157.16,43.37 157.6,44.21 158.04,45.07 158.47,45.98 158.91,46.92 159.34,47.89 159.78,48.9 160.21,49.94 160.65,51.02 161.08,52.12 161.52,53.26 161.96,54.44 162.39,55.64 162.83,56.87 163.26,58.14 163.7,59.43 164.13,60.76 164.57,62.11 165.01,63.49 165.44,64.9 165.88,66.33 166.31,67.79 166.75,69.28 167.18,70.79 167.62,72.32 168.05,73.88 168.49,75.46 168.93,77.07 169.36,78.69 169.8,80.34 170.23,82.01 170.67,83.7 171.1,85.41 171.54,87.13 171.76,88 171.76,297.37 171.54,297.37 171.1,297.37 170.67,297.37 170.23,297.37 169.8,297.37 169.36,297.37 168.93,297.37 168.49,297.37 168.05,297.37 167.62,297.37 167.18,297.37 166.75,297.37 166.31,297.37 165.88,297.37 165.44,297.37 165.01,297.37 164.57,297.37 164.13,297.37 163.7,297.37 163.26,297.37 162.83,297.37 162.39,297.37 161.96,297.37 161.52,297.37 161.08,297.37 160.65,297.37 160.21,297.37 159.78,297.37 159.34,297.37 158.91,297.37 158.47,297.37 158.04,297.37 157.6,297.37 157.16,297.37 156.73,297.37 156.29,297.37 155.86,297.37 155.42,297.37 154.99,297.37 154.55,297.37 154.12,297.37 153.68,297.37 153.24,297.37 152.81,297.37 152.37,297.37 151.94,297.37 151.5,297.37 151.07,297.37 150.63,297.37 150.2,297.37 149.76,297.37 149.32,297.37 148.89,297.37 148.45,297.37 148.02,297.37 147.58,297.37 147.15,297.37 146.71,297.37 146.28,297.37 145.84,297.37 145.4,297.37 144.97,297.37 144.53,297.37 144.1,297.37 143.66,297.37 143.23,297.37 142.79,297.37 142.36,297.37 141.92,297.37 141.48,297.37 141.05,297.37 140.61,297.37 140.18,297.37 139.74,297.37 139.31,297.37 138.87,297.37 138.43,297.37 138,297.37 137.56,297.37 137.13,297.37 136.69,297.37 136.26,297.37 135.82,297.37 135.39,297.37 134.95,297.37 134.51,297.37 134.08,297.37 133.64,297.37 133.21,297.37 132.77,297.37 132.34,297.37 131.9,297.37 131.47,297.37 131.03,297.37 130.59,297.37 130.16,297.37 129.72,297.37 129.29,297.37 128.85,297.37 128.42,297.37 127.98,297.37 127.55,297.37 127.11,297.37 126.67,297.37 126.24,297.37 125.8,297.37 125.37,297.37 124.93,297.37 124.5,297.37 124.28,297.37 124.28,88 124.5,87.13 124.93,85.41 125.37,83.7 125.8,82.01 126.24,80.34 126.67,78.69 127.11,77.07 127.55,75.46 127.98,73.88 "
       style="fill:#0d47a1;stroke:none;stroke-width:2.13"
       clip-path="none"
       id="polygon1048"
       transform="matrix(0.43383376,0,0,0.13439479,34.380394,126.72787)" />
    <polygon
       points="175.89,105.26 176.33,107.14 176.77,109.03 177.2,110.94 177.64,112.85 178.07,114.77 178.51,116.7 178.94,118.64 179.38,120.58 179.81,122.53 180.25,124.48 180.69,126.44 181.12,128.4 181.56,130.36 181.99,132.33 182.43,134.29 182.86,136.26 183.3,138.23 183.73,140.2 184.17,142.17 184.61,144.14 185.04,146.1 185.48,148.07 185.91,150.03 186.35,151.98 186.78,153.94 187.22,155.88 187.66,157.83 188.09,159.76 188.53,161.7 188.96,163.62 189.4,165.54 189.83,167.45 190.27,169.35 190.7,171.24 191.14,173.13 191.58,175 192.01,176.87 192.45,178.72 192.88,180.56 193.1,181.48 193.1,297.37 192.88,297.37 192.45,297.37 192.01,297.37 191.58,297.37 191.14,297.37 190.7,297.37 190.27,297.37 189.83,297.37 189.4,297.37 188.96,297.37 188.53,297.37 188.09,297.37 187.66,297.37 187.22,297.37 186.78,297.37 186.35,297.37 185.91,297.37 185.48,297.37 185.04,297.37 184.61,297.37 184.17,297.37 183.73,297.37 183.3,297.37 182.86,297.37 182.43,297.37 181.99,297.37 181.56,297.37 181.12,297.37 180.69,297.37 180.25,297.37 179.81,297.37 179.38,297.37 178.94,297.37 178.51,297.37 178.07,297.37 177.64,297.37 177.2,297.37 176.77,297.37 176.33,297.37 175.89,297.37 175.46,297.37 175.02,297.37 174.59,297.37 174.15,297.37 173.72,297.37 173.28,297.37 172.85,297.37 172.41,297.37 171.97,297.37 171.76,297.37 171.76,88 171.97,88.87 172.41,90.64 172.85,92.41 173.28,94.21 173.72,96.01 174.15,97.84 174.59,99.67 175.02,101.52 175.46,103.38 "
       style="fill:#2196f3;stroke:none;stroke-width:2.13"
       clip-path="none"
       id="polygon1050"
       transform="matrix(0.43383376,0,0,0.13439479,34.380394,126.72787)" />
    <polygon
       points="197.24,198.33 197.67,200.04 198.11,201.72 198.54,203.4 198.98,205.05 199.42,206.7 199.85,208.32 200.29,209.94 200.72,211.53 201.16,213.11 201.59,214.67 202.03,216.22 202.46,217.75 202.9,219.26 203.34,220.75 203.77,222.23 204.21,223.69 204.64,225.14 205.08,226.56 205.51,227.97 205.95,229.36 206.39,230.74 206.82,232.09 207.26,233.43 207.69,234.75 208.13,236.05 208.56,237.34 209,238.6 209.43,239.85 209.87,241.08 210.31,242.29 210.74,243.49 211.18,244.66 211.61,245.82 212.05,246.96 212.48,248.09 212.92,249.19 213.35,250.28 213.79,251.35 214.23,252.4 214.66,253.44 215.1,254.46 215.53,255.46 215.97,256.44 216.4,257.41 216.84,258.36 217.06,258.83 217.06,297.37 216.84,297.37 216.4,297.37 215.97,297.37 215.53,297.37 215.1,297.37 214.66,297.37 214.23,297.37 213.79,297.37 213.35,297.37 212.92,297.37 212.48,297.37 212.05,297.37 211.61,297.37 211.18,297.37 210.74,297.37 210.31,297.37 209.87,297.37 209.43,297.37 209,297.37 208.56,297.37 208.13,297.37 207.69,297.37 207.26,297.37 206.82,297.37 206.39,297.37 205.95,297.37 205.51,297.37 205.08,297.37 204.64,297.37 204.21,297.37 203.77,297.37 203.34,297.37 202.9,297.37 202.46,297.37 202.03,297.37 201.59,297.37 201.16,297.37 200.72,297.37 200.29,297.37 199.85,297.37 199.42,297.37 198.98,297.37 198.54,297.37 198.11,297.37 197.67,297.37 197.24,297.37 196.8,297.37 196.37,297.37 195.93,297.37 195.5,297.37 195.06,297.37 194.62,297.37 194.19,297.37 193.75,297.37 193.32,297.37 193.1,297.37 193.1,181.48 193.32,182.4 193.75,184.22 194.19,186.03 194.62,187.82 195.06,189.61 195.5,191.38 195.93,193.14 196.37,194.88 196.8,196.62 "
       style="fill:#bbdefb;stroke:none;stroke-width:2.13"
       clip-path="none"
       id="polygon1052"
       transform="matrix(0.43383376,0,0,0.13439479,34.380394,126.72787)" />
    <polygon
       points="221.19,266.96 221.63,267.73 222.07,268.49 222.5,269.23 222.94,269.96 223.37,270.68 223.81,271.37 224.24,272.06 224.68,272.73 225.11,273.38 225.55,274.03 225.99,274.65 226.42,275.27 226.86,275.87 227.29,276.46 227.73,277.03 228.16,277.6 228.6,278.15 229.04,278.68 229.47,279.21 229.91,279.72 230.34,280.22 230.78,280.71 231.21,281.19 231.65,281.66 232.08,282.11 232.52,282.56 232.96,282.99 233.39,283.41 233.83,283.83 234.26,284.23 234.7,284.62 235.13,285 235.57,285.38 236,285.74 236.44,286.1 236.88,286.44 237.31,286.78 237.75,287.1 238.18,287.42 238.62,287.73 239.05,288.04 239.49,288.33 239.92,288.62 240.36,288.9 240.8,289.17 241.23,289.43 241.67,289.69 242.1,289.93 242.54,290.18 242.97,290.41 243.41,290.64 243.84,290.86 244.28,291.08 244.72,291.29 245.15,291.49 245.59,291.69 246.02,291.88 246.46,292.07 246.89,292.25 247.33,292.42 247.76,292.59 248.2,292.76 248.64,292.92 249.07,293.07 249.51,293.22 249.94,293.37 250.38,293.51 250.81,293.64 251.25,293.78 251.69,293.9 252.12,294.03 252.56,294.15 252.99,294.27 253.43,294.38 253.86,294.49 254.3,294.59 254.73,294.69 255.17,294.79 255.61,294.89 256.04,294.98 256.48,295.07 256.91,295.16 256.91,297.37 256.48,297.37 256.04,297.37 255.61,297.37 255.17,297.37 254.73,297.37 254.3,297.37 253.86,297.37 253.43,297.37 252.99,297.37 252.56,297.37 252.12,297.37 251.69,297.37 251.25,297.37 250.81,297.37 250.38,297.37 249.94,297.37 249.51,297.37 249.07,297.37 248.64,297.37 248.2,297.37 247.76,297.37 247.33,297.37 246.89,297.37 246.46,297.37 246.02,297.37 245.59,297.37 245.15,297.37 244.72,297.37 244.28,297.37 243.84,297.37 243.41,297.37 242.97,297.37 242.54,297.37 242.1,297.37 241.67,297.37 241.23,297.37 240.8,297.37 240.36,297.37 239.92,297.37 239.49,297.37 239.05,297.37 238.62,297.37 238.18,297.37 237.75,297.37 237.31,297.37 236.88,297.37 236.44,297.37 236,297.37 235.57,297.37 235.13,297.37 234.7,297.37 234.26,297.37 233.83,297.37 233.39,297.37 232.96,297.37 232.52,297.37 232.08,297.37 231.65,297.37 231.21,297.37 230.78,297.37 230.34,297.37 229.91,297.37 229.47,297.37 229.04,297.37 228.6,297.37 228.16,297.37 227.73,297.37 227.29,297.37 226.86,297.37 226.42,297.37 225.99,297.37 225.55,297.37 225.11,297.37 224.68,297.37 224.24,297.37 223.81,297.37 223.37,297.37 222.94,297.37 222.5,297.37 222.07,297.37 221.63,297.37 221.19,297.37 220.76,297.37 220.32,297.37 219.89,297.37 219.45,297.37 219.02,297.37 218.58,297.37 218.15,297.37 217.71,297.37 217.27,297.37 217.06,297.37 217.06,258.83 217.27,259.29 217.71,260.21 218.15,261.11 218.58,262 219.02,262.86 219.45,263.71 219.89,264.55 220.32,265.37 220.76,266.17 "
       style="fill:#ffffff;stroke:none;stroke-width:2.13"
       clip-path="none"
       id="polygon1054"
       transform="matrix(0.43383376,0,0,0.13439479,34.380394,126.72787)" />
    <text
       xml:space="preserve"
       style="font-style:normal;font-variant:normal;font-weight:normal;font-stretch:condensed;font-size:3.52778px;line-height:1.25;font-family:'Noto Sans';-inkscape-font-specification:'Noto Sans, Condensed';font-variant-ligatures:normal;font-variant-caps:normal;font-variant-numeric:normal;font-variant-east-asian:normal;letter-spacing:0px;word-spacing:0px;writing-mode:lr-tb;stroke-width:0.264583"
       x="97.931831"
       y="189.9664"
       id="text1277"><tspan
         sodipodi:role="line"
         id="tspan1275"
         x="97.931831"
         y="189.9664"
         style="font-style:normal;font-variant:normal;font-weight:normal;font-stretch:condensed;font-size:3.52778px;font-family:'Noto Sans';-inkscape-font-specification:'Noto Sans, Condensed';font-variant-ligatures:normal;font-variant-caps:normal;font-variant-numeric:normal;font-variant-east-asian:normal;stroke-width:0.264583">0</tspan></text>
    <text
       xml:space="preserve"
       style="font-style:normal;font-variant:normal;font-weight:normal;font-stretch:condensed;font-size:3.52778px;line-height:1.25;font-family:'Noto Sans';-inkscape-font-specification:'Noto Sans, Condensed';font-variant-ligatures:normal;font-variant-caps:normal;font-variant-numeric:normal;font-variant-east-asian:normal;letter-spacing:0px;word-spacing:0px;writing-mode:lr-tb;stroke-width:0.264583"
       x="128.35558"
       y="189.9664"
       id="text1281"><tspan
         sodipodi:role="line"
         id="tspan1279"
         x="128.35558"
         y="189.9664"
         style="font-style:normal;font-variant:normal;font-weight:normal;font-stretch:condensed;font-size:3.52778px;font-family:'Noto Sans';-inkscape-font-specification:'Noto Sans, Condensed';font-variant-ligatures:normal;font-variant-caps:normal;font-variant-numeric:normal;font-variant-east-asian:normal;stroke-width:0.264583">2</tspan></text>
    <text
       xml:space="preserve"
       style="font-style:normal;font-variant:normal;font-weight:normal;font-stretch:condensed;font-size:3.52778px;line-height:1.25;font-family:'Noto Sans';-inkscape-font-specification:'Noto Sans, Condensed';font-variant-ligatures:normal;font-variant-caps:normal;font-variant-numeric:normal;font-variant-east-asian:normal;letter-spacing:0px;word-spacing:0px;writing-mode:lr-tb;stroke-width:0.264583"
       x="66.71106"
       y="189.9664"
       id="text1285"><tspan
         sodipodi:role="line"
         id="tspan1283"
         x="66.71106"
         y="189.9664"
         style="font-style:normal;font-variant:normal;font-weight:normal;font-stretch:condensed;font-size:3.52778px;font-family:'Noto Sans';-inkscape-font-specification:'Noto Sans, Condensed';font-variant-ligatures:normal;font-variant-caps:normal;font-variant-numeric:normal;font-variant-east-asian:normal;stroke-width:0.264583">-2</tspan></text>
    <g
       id="g1351"
       transform="translate(0,-7.3428862)">
      <path
         style="fill:none;stroke:#000000;stroke-width:0.265;stroke-linecap:butt;stroke-linejoin:miter;stroke-miterlimit:10;stroke-dasharray:none;stroke-opacity:1"
         d="M 88.297252,178.17502 H 108.89568"
         id="path1287" />
      <path
         style="fill:none;stroke:#000000;stroke-width:0.264583px;stroke-linecap:butt;stroke-linejoin:miter;stroke-opacity:1"
         d="m 88.297252,176.58135 v 3.18734"
         id="path1289" />
      <path
         style="fill:none;stroke:#000000;stroke-width:0.264583px;stroke-linecap:butt;stroke-linejoin:miter;stroke-miterlimit:10;stroke-opacity:1"
         d="m 108.89568,176.58135 v 3.18734"
         id="path1289-4" />
    </g>
    <g
       id="g1356"
       transform="translate(0,-5.5800851)">
      <path
         style="fill:none;stroke:#000000;stroke-width:0.264999;stroke-linecap:butt;stroke-linejoin:miter;stroke-miterlimit:10;stroke-dasharray:none;stroke-opacity:1"
         d="M 79.039241,181.8544 H 118.15369"
         id="path1287-0"
         sodipodi:nodetypes="cc" />
      <path
         style="fill:none;stroke:#000000;stroke-width:0.264583px;stroke-linecap:butt;stroke-linejoin:miter;stroke-miterlimit:10;stroke-opacity:1"
         d="m 79.039241,180.26073 v 3.18734"
         id="path1289-1" />
      <path
         style="fill:none;stroke:#000000;stroke-width:0.264583px;stroke-linecap:butt;stroke-linejoin:miter;stroke-miterlimit:10;stroke-opacity:1"
         d="m 118.15369,180.26073 v 3.18734"
         id="path1289-4-7" />
    </g>
    <g
       id="g1361"
       transform="translate(0,-4.1132778)">
      <path
         style="fill:none;stroke:#000000;stroke-width:0.264999;stroke-linecap:butt;stroke-linejoin:miter;stroke-miterlimit:10;stroke-dasharray:none;stroke-opacity:1"
         d="M 68.644584,186.23463 H 128.54835"
         id="path1287-0-7"
         sodipodi:nodetypes="cc" />
      <path
         style="fill:none;stroke:#000000;stroke-width:0.264583px;stroke-linecap:butt;stroke-linejoin:miter;stroke-miterlimit:10;stroke-opacity:1"
         d="m 68.644584,184.64096 v 3.18734"
         id="path1289-1-8" />
      <path
         style="fill:none;stroke:#000000;stroke-width:0.264583px;stroke-linecap:butt;stroke-linejoin:miter;stroke-miterlimit:10;stroke-opacity:1"
         d="m 128.54835,184.64096 v 3.18734"
         id="path1289-4-7-0" />
    </g>
    <text
       xml:space="preserve"
       style="font-stretch:condensed;font-size:2.82223px;line-height:1.25;font-family:'Noto Sans';-inkscape-font-specification:'Noto Sans, Condensed';letter-spacing:0px;word-spacing:0px;writing-mode:lr-tb;stroke-width:0.264583"
       x="91.875343"
       y="169.92799"
       id="text1365"><tspan
         sodipodi:role="line"
         id="tspan1363"
         x="91.875343"
         y="169.92799"
         style="stroke-width:0.264583">50% interval</tspan></text>
    <text
       xml:space="preserve"
       style="font-stretch:condensed;font-size:2.82223px;line-height:1.25;font-family:'Noto Sans';-inkscape-font-specification:'Noto Sans, Condensed';letter-spacing:0px;word-spacing:0px;writing-mode:lr-tb;stroke-width:0.264583"
       x="91.896507"
       y="175.5808"
       id="text1365-8"><tspan
         sodipodi:role="line"
         id="tspan1363-9"
         x="91.896507"
         y="175.5808"
         style="stroke-width:0.264583">80% interval</tspan></text>
    <text
       xml:space="preserve"
       style="font-stretch:condensed;font-size:2.82223px;line-height:1.25;font-family:'Noto Sans';-inkscape-font-specification:'Noto Sans, Condensed';letter-spacing:0px;word-spacing:0px;writing-mode:lr-tb;stroke-width:0.264583"
       x="91.892273"
       y="181.23358"
       id="text1365-8-7"><tspan
         sodipodi:role="line"
         id="tspan1363-9-8"
         x="91.892273"
         y="181.23358"
         style="stroke-width:0.264583">95% interval</tspan></text>
    <text
       xml:space="preserve"
       style="font-style:normal;font-variant:normal;font-weight:normal;font-stretch:condensed;font-size:4.23333px;line-height:1.25;font-family:'Noto Sans';-inkscape-font-specification:'Noto Sans, Condensed';font-variant-ligatures:normal;font-variant-caps:normal;font-variant-numeric:normal;font-variant-east-asian:normal;letter-spacing:0px;word-spacing:0px;writing-mode:lr-tb;stroke-width:0.264583"
       x="-171.66125"
       y="47.503929"
       id="text1405"
       transform="rotate(-90)"><tspan
         sodipodi:role="line"
         id="tspan1403"
         x="-171.66125"
         y="47.503929"
         style="font-style:normal;font-variant:normal;font-weight:normal;font-stretch:condensed;font-size:4.23333px;font-family:'Noto Sans';-inkscape-font-specification:'Noto Sans, Condensed';font-variant-ligatures:normal;font-variant-caps:normal;font-variant-numeric:normal;font-variant-east-asian:normal;stroke-width:0.264583">Probability density</tspan></text>
  </g>
</svg>
