<?xml version="1.0" encoding="UTF-8" standalone="no"?>
<svg
   xmlns:dc="http://purl.org/dc/elements/1.1/"
   xmlns:cc="http://creativecommons.org/ns#"
   xmlns:rdf="http://www.w3.org/1999/02/22-rdf-syntax-ns#"
   xmlns:svg="http://www.w3.org/2000/svg"
   xmlns="http://www.w3.org/2000/svg"
   xmlns:sodipodi="http://sodipodi.sourceforge.net/DTD/sodipodi-0.dtd"
   xmlns:inkscape="http://www.inkscape.org/namespaces/inkscape"
   viewBox="0 0 379.2912 119.27985"
   version="1.1"
   id="svg112213"
   sodipodi:docname="c166s_4.svg"
   inkscape:version="1.0.1 (3bc2e813f5, 2020-09-07, custom)"
   width="379.2912"
   height="119.27985">
  <metadata
     id="metadata112217">
    <rdf:RDF>
      <cc:Work
         rdf:about="">
        <dc:format>image/svg+xml</dc:format>
        <dc:type
           rdf:resource="http://purl.org/dc/dcmitype/StillImage" />
        <dc:title></dc:title>
      </cc:Work>
    </rdf:RDF>
  </metadata>
  <sodipodi:namedview
     pagecolor="#ffffff"
     bordercolor="#666666"
     borderopacity="1"
     objecttolerance="10"
     gridtolerance="10"
     guidetolerance="10"
     inkscape:pageopacity="0"
     inkscape:pageshadow="2"
     inkscape:window-width="1366"
     inkscape:window-height="768"
     id="namedview112215"
     showgrid="false"
     inkscape:zoom="0.70710678"
     inkscape:cx="335.53657"
     inkscape:cy="-0.46386866"
     inkscape:window-x="0"
     inkscape:window-y="0"
     inkscape:window-maximized="1"
     inkscape:current-layer="svg112213"
     inkscape:document-rotation="0" />
  <defs
     id="defs110720">
    <style
       type="text/css"
       id="style110718"><![CDATA[
    line, polyline, polygon, path, rect, circle {
      fill: none;
      stroke: #000000;
      stroke-linecap: round;
      stroke-linejoin: round;
      stroke-miterlimit: 10.00;
    }
  ]]></style>
    <clipPath
       id="cpMTgwLjgyfDI1NS43Mnw0NzIuNTF8MjIuNDA=-0">
      <rect
         x="180.82001"
         y="22.4"
         width="74.900002"
         height="450.10999"
         id="rect110726-7" />
    </clipPath>
    <clipPath
       id="clipPath113084">
      <rect
         x="180.82001"
         y="22.4"
         width="74.900002"
         height="450.10999"
         id="rect113082" />
    </clipPath>
    <clipPath
       id="clipPath113088">
      <rect
         x="180.82001"
         y="22.4"
         width="74.900002"
         height="450.10999"
         id="rect113086" />
    </clipPath>
    <clipPath
       id="clipPath113092">
      <rect
         x="180.82001"
         y="22.4"
         width="74.900002"
         height="450.10999"
         id="rect113090" />
    </clipPath>
    <clipPath
       id="clipPath113096">
      <rect
         x="180.82001"
         y="22.4"
         width="74.900002"
         height="450.10999"
         id="rect113094" />
    </clipPath>
    <clipPath
       id="clipPath113100">
      <rect
         x="180.82001"
         y="22.4"
         width="74.900002"
         height="450.10999"
         id="rect113098" />
    </clipPath>
    <clipPath
       id="clipPath113104">
      <rect
         x="180.82001"
         y="22.4"
         width="74.900002"
         height="450.10999"
         id="rect113102" />
    </clipPath>
    <clipPath
       id="clipPath113108">
      <rect
         x="180.82001"
         y="22.4"
         width="74.900002"
         height="450.10999"
         id="rect113106" />
    </clipPath>
    <clipPath
       id="clipPath113112">
      <rect
         x="180.82001"
         y="22.4"
         width="74.900002"
         height="450.10999"
         id="rect113110" />
    </clipPath>
    <clipPath
       id="clipPath113116">
      <rect
         x="180.82001"
         y="22.4"
         width="74.900002"
         height="450.10999"
         id="rect113114" />
    </clipPath>
    <clipPath
       id="clipPath113120">
      <rect
         x="180.82001"
         y="22.4"
         width="74.900002"
         height="450.10999"
         id="rect113118" />
    </clipPath>
    <clipPath
       id="clipPath113124">
      <rect
         x="180.82001"
         y="22.4"
         width="74.900002"
         height="450.10999"
         id="rect113122" />
    </clipPath>
    <clipPath
       id="clipPath113128">
      <rect
         x="180.82001"
         y="22.4"
         width="74.900002"
         height="450.10999"
         id="rect113126" />
    </clipPath>
    <clipPath
       id="clipPath113132">
      <rect
         x="180.82001"
         y="22.4"
         width="74.900002"
         height="450.10999"
         id="rect113130" />
    </clipPath>
    <clipPath
       id="clipPath113136">
      <rect
         x="180.82001"
         y="22.4"
         width="74.900002"
         height="450.10999"
         id="rect113134" />
    </clipPath>
    <clipPath
       id="clipPath113140">
      <rect
         x="180.82001"
         y="22.4"
         width="74.900002"
         height="450.10999"
         id="rect113138" />
    </clipPath>
    <clipPath
       id="clipPath113144">
      <rect
         x="180.82001"
         y="22.4"
         width="74.900002"
         height="450.10999"
         id="rect113142" />
    </clipPath>
    <clipPath
       id="clipPath113148">
      <rect
         x="180.82001"
         y="22.4"
         width="74.900002"
         height="450.10999"
         id="rect113146" />
    </clipPath>
    <clipPath
       id="clipPath113152">
      <rect
         x="180.82001"
         y="22.4"
         width="74.900002"
         height="450.10999"
         id="rect113150" />
    </clipPath>
    <clipPath
       id="clipPath113156">
      <rect
         x="180.82001"
         y="22.4"
         width="74.900002"
         height="450.10999"
         id="rect113154" />
    </clipPath>
    <clipPath
       id="clipPath113160">
      <rect
         x="180.82001"
         y="22.4"
         width="74.900002"
         height="450.10999"
         id="rect113158" />
    </clipPath>
    <clipPath
       id="clipPath113164">
      <rect
         x="180.82001"
         y="22.4"
         width="74.900002"
         height="450.10999"
         id="rect113162" />
    </clipPath>
    <clipPath
       id="clipPath113168">
      <rect
         x="180.82001"
         y="22.4"
         width="74.900002"
         height="450.10999"
         id="rect113166" />
    </clipPath>
    <clipPath
       id="clipPath113172">
      <rect
         x="180.82001"
         y="22.4"
         width="74.900002"
         height="450.10999"
         id="rect113170" />
    </clipPath>
    <clipPath
       id="clipPath113176">
      <rect
         x="180.82001"
         y="22.4"
         width="74.900002"
         height="450.10999"
         id="rect113174" />
    </clipPath>
    <clipPath
       id="clipPath113180">
      <rect
         x="180.82001"
         y="22.4"
         width="74.900002"
         height="450.10999"
         id="rect113178" />
    </clipPath>
    <clipPath
       id="clipPath113184">
      <rect
         x="180.82001"
         y="22.4"
         width="74.900002"
         height="450.10999"
         id="rect113182" />
    </clipPath>
    <clipPath
       id="clipPath113188">
      <rect
         x="180.82001"
         y="22.4"
         width="74.900002"
         height="450.10999"
         id="rect113186" />
    </clipPath>
    <clipPath
       id="clipPath113192">
      <rect
         x="180.82001"
         y="22.4"
         width="74.900002"
         height="450.10999"
         id="rect113190" />
    </clipPath>
    <clipPath
       id="clipPath113196">
      <rect
         x="180.82001"
         y="22.4"
         width="74.900002"
         height="450.10999"
         id="rect113194" />
    </clipPath>
    <clipPath
       id="clipPath113200">
      <rect
         x="180.82001"
         y="22.4"
         width="74.900002"
         height="450.10999"
         id="rect113198" />
    </clipPath>
    <clipPath
       id="clipPath113204">
      <rect
         x="180.82001"
         y="22.4"
         width="74.900002"
         height="450.10999"
         id="rect113202" />
    </clipPath>
    <clipPath
       id="clipPath113208">
      <rect
         x="180.82001"
         y="22.4"
         width="74.900002"
         height="450.10999"
         id="rect113206" />
    </clipPath>
    <clipPath
       id="clipPath113212">
      <rect
         x="180.82001"
         y="22.4"
         width="74.900002"
         height="450.10999"
         id="rect113210" />
    </clipPath>
    <clipPath
       id="clipPath113216">
      <rect
         x="180.82001"
         y="22.4"
         width="74.900002"
         height="450.10999"
         id="rect113214" />
    </clipPath>
    <clipPath
       id="clipPath113220">
      <rect
         x="180.82001"
         y="22.4"
         width="74.900002"
         height="450.10999"
         id="rect113218" />
    </clipPath>
    <clipPath
       id="clipPath113224">
      <rect
         x="180.82001"
         y="22.4"
         width="74.900002"
         height="450.10999"
         id="rect113222" />
    </clipPath>
    <clipPath
       id="clipPath113228">
      <rect
         x="180.82001"
         y="22.4"
         width="74.900002"
         height="450.10999"
         id="rect113226" />
    </clipPath>
    <clipPath
       id="clipPath113232">
      <rect
         x="180.82001"
         y="22.4"
         width="74.900002"
         height="450.10999"
         id="rect113230" />
    </clipPath>
    <clipPath
       id="clipPath113236">
      <rect
         x="180.82001"
         y="22.4"
         width="74.900002"
         height="450.10999"
         id="rect113234" />
    </clipPath>
    <clipPath
       id="clipPath113240">
      <rect
         x="180.82001"
         y="22.4"
         width="74.900002"
         height="450.10999"
         id="rect113238" />
    </clipPath>
    <clipPath
       id="clipPath113244">
      <rect
         x="180.82001"
         y="22.4"
         width="74.900002"
         height="450.10999"
         id="rect113242" />
    </clipPath>
    <clipPath
       id="clipPath113248">
      <rect
         x="180.82001"
         y="22.4"
         width="74.900002"
         height="450.10999"
         id="rect113246" />
    </clipPath>
    <clipPath
       id="clipPath113252">
      <rect
         x="180.82001"
         y="22.4"
         width="74.900002"
         height="450.10999"
         id="rect113250" />
    </clipPath>
    <clipPath
       id="clipPath113256">
      <rect
         x="180.82001"
         y="22.4"
         width="74.900002"
         height="450.10999"
         id="rect113254" />
    </clipPath>
    <clipPath
       id="clipPath113260">
      <rect
         x="180.82001"
         y="22.4"
         width="74.900002"
         height="450.10999"
         id="rect113258" />
    </clipPath>
    <clipPath
       id="clipPath113264">
      <rect
         x="180.82001"
         y="22.4"
         width="74.900002"
         height="450.10999"
         id="rect113262" />
    </clipPath>
    <clipPath
       id="clipPath113268">
      <rect
         x="180.82001"
         y="22.4"
         width="74.900002"
         height="450.10999"
         id="rect113266" />
    </clipPath>
    <clipPath
       id="clipPath113272">
      <rect
         x="180.82001"
         y="22.4"
         width="74.900002"
         height="450.10999"
         id="rect113270" />
    </clipPath>
    <clipPath
       id="clipPath113276">
      <rect
         x="180.82001"
         y="22.4"
         width="74.900002"
         height="450.10999"
         id="rect113274" />
    </clipPath>
    <clipPath
       id="clipPath113280">
      <rect
         x="180.82001"
         y="22.4"
         width="74.900002"
         height="450.10999"
         id="rect113278" />
    </clipPath>
    <clipPath
       id="clipPath113284">
      <rect
         x="180.82001"
         y="22.4"
         width="74.900002"
         height="450.10999"
         id="rect113282" />
    </clipPath>
    <clipPath
       id="clipPath113288">
      <rect
         x="180.82001"
         y="22.4"
         width="74.900002"
         height="450.10999"
         id="rect113286" />
    </clipPath>
    <clipPath
       id="clipPath113292">
      <rect
         x="180.82001"
         y="22.4"
         width="74.900002"
         height="450.10999"
         id="rect113290" />
    </clipPath>
    <clipPath
       id="clipPath113296">
      <rect
         x="180.82001"
         y="22.4"
         width="74.900002"
         height="450.10999"
         id="rect113294" />
    </clipPath>
    <clipPath
       id="clipPath113300">
      <rect
         x="180.82001"
         y="22.4"
         width="74.900002"
         height="450.10999"
         id="rect113298" />
    </clipPath>
    <clipPath
       id="clipPath113304">
      <rect
         x="180.82001"
         y="22.4"
         width="74.900002"
         height="450.10999"
         id="rect113302" />
    </clipPath>
    <clipPath
       id="clipPath113308">
      <rect
         x="180.82001"
         y="22.4"
         width="74.900002"
         height="450.10999"
         id="rect113306" />
    </clipPath>
    <clipPath
       id="clipPath113312">
      <rect
         x="180.82001"
         y="22.4"
         width="74.900002"
         height="450.10999"
         id="rect113310" />
    </clipPath>
    <clipPath
       id="clipPath113316">
      <rect
         x="180.82001"
         y="22.4"
         width="74.900002"
         height="450.10999"
         id="rect113314" />
    </clipPath>
    <clipPath
       id="clipPath113320">
      <rect
         x="180.82001"
         y="22.4"
         width="74.900002"
         height="450.10999"
         id="rect113318" />
    </clipPath>
    <clipPath
       id="clipPath113324">
      <rect
         x="180.82001"
         y="22.4"
         width="74.900002"
         height="450.10999"
         id="rect113322" />
    </clipPath>
    <clipPath
       id="clipPath113328">
      <rect
         x="180.82001"
         y="22.4"
         width="74.900002"
         height="450.10999"
         id="rect113326" />
    </clipPath>
    <clipPath
       id="clipPath113332">
      <rect
         x="180.82001"
         y="22.4"
         width="74.900002"
         height="450.10999"
         id="rect113330" />
    </clipPath>
    <clipPath
       id="clipPath113336">
      <rect
         x="180.82001"
         y="22.4"
         width="74.900002"
         height="450.10999"
         id="rect113334" />
    </clipPath>
    <clipPath
       id="clipPath113340">
      <rect
         x="180.82001"
         y="22.4"
         width="74.900002"
         height="450.10999"
         id="rect113338" />
    </clipPath>
    <clipPath
       id="clipPath113344">
      <rect
         x="180.82001"
         y="22.4"
         width="74.900002"
         height="450.10999"
         id="rect113342" />
    </clipPath>
    <clipPath
       id="clipPath113348">
      <rect
         x="180.82001"
         y="22.4"
         width="74.900002"
         height="450.10999"
         id="rect113346" />
    </clipPath>
    <clipPath
       id="clipPath113352">
      <rect
         x="180.82001"
         y="22.4"
         width="74.900002"
         height="450.10999"
         id="rect113350" />
    </clipPath>
    <clipPath
       id="clipPath113356">
      <rect
         x="180.82001"
         y="22.4"
         width="74.900002"
         height="450.10999"
         id="rect113354" />
    </clipPath>
    <clipPath
       id="clipPath113360">
      <rect
         x="180.82001"
         y="22.4"
         width="74.900002"
         height="450.10999"
         id="rect113358" />
    </clipPath>
    <clipPath
       id="clipPath113364">
      <rect
         x="180.82001"
         y="22.4"
         width="74.900002"
         height="450.10999"
         id="rect113362" />
    </clipPath>
    <clipPath
       id="clipPath113368">
      <rect
         x="180.82001"
         y="22.4"
         width="74.900002"
         height="450.10999"
         id="rect113366" />
    </clipPath>
    <clipPath
       id="clipPath113372">
      <rect
         x="180.82001"
         y="22.4"
         width="74.900002"
         height="450.10999"
         id="rect113370" />
    </clipPath>
    <clipPath
       id="clipPath113376">
      <rect
         x="180.82001"
         y="22.4"
         width="74.900002"
         height="450.10999"
         id="rect113374" />
    </clipPath>
    <clipPath
       id="clipPath113380">
      <rect
         x="180.82001"
         y="22.4"
         width="74.900002"
         height="450.10999"
         id="rect113378" />
    </clipPath>
    <clipPath
       id="clipPath113384">
      <rect
         x="180.82001"
         y="22.4"
         width="74.900002"
         height="450.10999"
         id="rect113382" />
    </clipPath>
    <clipPath
       id="clipPath113388">
      <rect
         x="180.82001"
         y="22.4"
         width="74.900002"
         height="450.10999"
         id="rect113386" />
    </clipPath>
    <clipPath
       id="clipPath113392">
      <rect
         x="180.82001"
         y="22.4"
         width="74.900002"
         height="450.10999"
         id="rect113390" />
    </clipPath>
    <clipPath
       id="clipPath113396">
      <rect
         x="180.82001"
         y="22.4"
         width="74.900002"
         height="450.10999"
         id="rect113394" />
    </clipPath>
    <clipPath
       id="clipPath113400">
      <rect
         x="180.82001"
         y="22.4"
         width="74.900002"
         height="450.10999"
         id="rect113398" />
    </clipPath>
    <clipPath
       id="clipPath113404">
      <rect
         x="180.82001"
         y="22.4"
         width="74.900002"
         height="450.10999"
         id="rect113402" />
    </clipPath>
    <clipPath
       id="clipPath113408">
      <rect
         x="180.82001"
         y="22.4"
         width="74.900002"
         height="450.10999"
         id="rect113406" />
    </clipPath>
    <clipPath
       id="clipPath113412">
      <rect
         x="180.82001"
         y="22.4"
         width="74.900002"
         height="450.10999"
         id="rect113410" />
    </clipPath>
    <clipPath
       id="clipPath113416">
      <rect
         x="180.82001"
         y="22.4"
         width="74.900002"
         height="450.10999"
         id="rect113414" />
    </clipPath>
    <clipPath
       id="clipPath113420">
      <rect
         x="180.82001"
         y="22.4"
         width="74.900002"
         height="450.10999"
         id="rect113418" />
    </clipPath>
    <clipPath
       id="clipPath113424">
      <rect
         x="180.82001"
         y="22.4"
         width="74.900002"
         height="450.10999"
         id="rect113422" />
    </clipPath>
    <clipPath
       id="clipPath113428">
      <rect
         x="180.82001"
         y="22.4"
         width="74.900002"
         height="450.10999"
         id="rect113426" />
    </clipPath>
    <clipPath
       id="clipPath113432">
      <rect
         x="180.82001"
         y="22.4"
         width="74.900002"
         height="450.10999"
         id="rect113430" />
    </clipPath>
    <clipPath
       id="clipPath113436">
      <rect
         x="180.82001"
         y="22.4"
         width="74.900002"
         height="450.10999"
         id="rect113434" />
    </clipPath>
    <clipPath
       id="clipPath113440">
      <rect
         x="180.82001"
         y="22.4"
         width="74.900002"
         height="450.10999"
         id="rect113438" />
    </clipPath>
    <clipPath
       id="clipPath113444">
      <rect
         x="180.82001"
         y="22.4"
         width="74.900002"
         height="450.10999"
         id="rect113442" />
    </clipPath>
    <clipPath
       id="clipPath113448">
      <rect
         x="180.82001"
         y="22.4"
         width="74.900002"
         height="450.10999"
         id="rect113446" />
    </clipPath>
    <clipPath
       id="clipPath113452">
      <rect
         x="180.82001"
         y="22.4"
         width="74.900002"
         height="450.10999"
         id="rect113450" />
    </clipPath>
    <clipPath
       id="clipPath113456">
      <rect
         x="180.82001"
         y="22.4"
         width="74.900002"
         height="450.10999"
         id="rect113454" />
    </clipPath>
    <clipPath
       id="clipPath113460">
      <rect
         x="180.82001"
         y="22.4"
         width="74.900002"
         height="450.10999"
         id="rect113458" />
    </clipPath>
    <clipPath
       id="clipPath113464">
      <rect
         x="180.82001"
         y="22.4"
         width="74.900002"
         height="450.10999"
         id="rect113462" />
    </clipPath>
    <clipPath
       id="clipPath113468">
      <rect
         x="180.82001"
         y="22.4"
         width="74.900002"
         height="450.10999"
         id="rect113466" />
    </clipPath>
    <clipPath
       id="clipPath113472">
      <rect
         x="180.82001"
         y="22.4"
         width="74.900002"
         height="450.10999"
         id="rect113470" />
    </clipPath>
    <clipPath
       id="clipPath113476">
      <rect
         x="180.82001"
         y="22.4"
         width="74.900002"
         height="450.10999"
         id="rect113474" />
    </clipPath>
    <clipPath
       id="clipPath113480">
      <rect
         x="180.82001"
         y="22.4"
         width="74.900002"
         height="450.10999"
         id="rect113478" />
    </clipPath>
    <clipPath
       id="clipPath113484">
      <rect
         x="180.82001"
         y="22.4"
         width="74.900002"
         height="450.10999"
         id="rect113482" />
    </clipPath>
    <clipPath
       id="clipPath113488">
      <rect
         x="180.82001"
         y="22.4"
         width="74.900002"
         height="450.10999"
         id="rect113486" />
    </clipPath>
    <clipPath
       id="clipPath113492">
      <rect
         x="180.82001"
         y="22.4"
         width="74.900002"
         height="450.10999"
         id="rect113490" />
    </clipPath>
    <clipPath
       id="clipPath113496">
      <rect
         x="180.82001"
         y="22.4"
         width="74.900002"
         height="450.10999"
         id="rect113494" />
    </clipPath>
    <clipPath
       id="clipPath113500">
      <rect
         x="180.82001"
         y="22.4"
         width="74.900002"
         height="450.10999"
         id="rect113498" />
    </clipPath>
    <clipPath
       id="clipPath113504">
      <rect
         x="180.82001"
         y="22.4"
         width="74.900002"
         height="450.10999"
         id="rect113502" />
    </clipPath>
    <clipPath
       id="clipPath113508">
      <rect
         x="180.82001"
         y="22.4"
         width="74.900002"
         height="450.10999"
         id="rect113506" />
    </clipPath>
    <clipPath
       id="clipPath113512">
      <rect
         x="180.82001"
         y="22.4"
         width="74.900002"
         height="450.10999"
         id="rect113510" />
    </clipPath>
    <clipPath
       id="clipPath113516">
      <rect
         x="180.82001"
         y="22.4"
         width="74.900002"
         height="450.10999"
         id="rect113514" />
    </clipPath>
    <clipPath
       id="clipPath113520">
      <rect
         x="180.82001"
         y="22.4"
         width="74.900002"
         height="450.10999"
         id="rect113518" />
    </clipPath>
    <clipPath
       id="clipPath113524">
      <rect
         x="180.82001"
         y="22.4"
         width="74.900002"
         height="450.10999"
         id="rect113522" />
    </clipPath>
    <clipPath
       id="clipPath113528">
      <rect
         x="180.82001"
         y="22.4"
         width="74.900002"
         height="450.10999"
         id="rect113526" />
    </clipPath>
    <clipPath
       id="clipPath113532">
      <rect
         x="180.82001"
         y="22.4"
         width="74.900002"
         height="450.10999"
         id="rect113530" />
    </clipPath>
    <clipPath
       id="clipPath113536">
      <rect
         x="180.82001"
         y="22.4"
         width="74.900002"
         height="450.10999"
         id="rect113534" />
    </clipPath>
    <clipPath
       id="clipPath113540">
      <rect
         x="180.82001"
         y="22.4"
         width="74.900002"
         height="450.10999"
         id="rect113538" />
    </clipPath>
    <clipPath
       id="clipPath113544">
      <rect
         x="180.82001"
         y="22.4"
         width="74.900002"
         height="450.10999"
         id="rect113542" />
    </clipPath>
    <clipPath
       id="clipPath113548">
      <rect
         x="180.82001"
         y="22.4"
         width="74.900002"
         height="450.10999"
         id="rect113546" />
    </clipPath>
    <clipPath
       id="clipPath113552">
      <rect
         x="180.82001"
         y="22.4"
         width="74.900002"
         height="450.10999"
         id="rect113550" />
    </clipPath>
    <clipPath
       id="clipPath113556">
      <rect
         x="180.82001"
         y="22.4"
         width="74.900002"
         height="450.10999"
         id="rect113554" />
    </clipPath>
    <clipPath
       id="clipPath113560">
      <rect
         x="180.82001"
         y="22.4"
         width="74.900002"
         height="450.10999"
         id="rect113558" />
    </clipPath>
    <clipPath
       id="clipPath113564">
      <rect
         x="180.82001"
         y="22.4"
         width="74.900002"
         height="450.10999"
         id="rect113562" />
    </clipPath>
    <clipPath
       id="clipPath113568">
      <rect
         x="180.82001"
         y="22.4"
         width="74.900002"
         height="450.10999"
         id="rect113566" />
    </clipPath>
    <clipPath
       id="clipPath113572">
      <rect
         x="180.82001"
         y="22.4"
         width="74.900002"
         height="450.10999"
         id="rect113570" />
    </clipPath>
    <clipPath
       id="clipPath113576">
      <rect
         x="180.82001"
         y="22.4"
         width="74.900002"
         height="450.10999"
         id="rect113574" />
    </clipPath>
    <clipPath
       id="clipPath113580">
      <rect
         x="180.82001"
         y="22.4"
         width="74.900002"
         height="450.10999"
         id="rect113578" />
    </clipPath>
    <clipPath
       id="clipPath113584">
      <rect
         x="180.82001"
         y="22.4"
         width="74.900002"
         height="450.10999"
         id="rect113582" />
    </clipPath>
    <clipPath
       id="cpMC4wMHw1MDQuMDB8NTA0LjAwfDAuMDA=-7">
      <rect
         x="0"
         y="0"
         width="504"
         height="504"
         id="rect111231-7" />
    </clipPath>
    <clipPath
       id="clipPath113590">
      <rect
         x="0"
         y="0"
         width="504"
         height="504"
         id="rect113588" />
    </clipPath>
    <clipPath
       id="clipPath113594">
      <rect
         x="0"
         y="0"
         width="504"
         height="504"
         id="rect113592" />
    </clipPath>
    <clipPath
       id="clipPath113598">
      <rect
         x="0"
         y="0"
         width="504"
         height="504"
         id="rect113596" />
    </clipPath>
    <clipPath
       id="clipPath113602">
      <rect
         x="0"
         y="0"
         width="504"
         height="504"
         id="rect113600" />
    </clipPath>
    <clipPath
       id="clipPath113606">
      <rect
         x="0"
         y="0"
         width="504"
         height="504"
         id="rect113604" />
    </clipPath>
    <clipPath
       id="clipPath113610">
      <rect
         x="0"
         y="0"
         width="504"
         height="504"
         id="rect113608" />
    </clipPath>
    <clipPath
       id="clipPath113614">
      <rect
         x="0"
         y="0"
         width="504"
         height="504"
         id="rect113612" />
    </clipPath>
    <clipPath
       id="clipPath113618">
      <rect
         x="0"
         y="0"
         width="504"
         height="504"
         id="rect113616" />
    </clipPath>
    <clipPath
       id="clipPath113622">
      <rect
         x="0"
         y="0"
         width="504"
         height="504"
         id="rect113620" />
    </clipPath>
    <clipPath
       id="clipPath113626">
      <rect
         x="0"
         y="0"
         width="504"
         height="504"
         id="rect113624" />
    </clipPath>
    <clipPath
       id="clipPath113630">
      <rect
         x="0"
         y="0"
         width="504"
         height="504"
         id="rect113628" />
    </clipPath>
    <clipPath
       id="clipPath113634">
      <rect
         x="0"
         y="0"
         width="504"
         height="504"
         id="rect113632" />
    </clipPath>
    <clipPath
       id="clipPath113638">
      <rect
         x="0"
         y="0"
         width="504"
         height="504"
         id="rect113636" />
    </clipPath>
    <clipPath
       id="clipPath113642">
      <rect
         x="0"
         y="0"
         width="504"
         height="504"
         id="rect113640" />
    </clipPath>
    <clipPath
       id="clipPath113646">
      <rect
         x="0"
         y="0"
         width="504"
         height="504"
         id="rect113644" />
    </clipPath>
    <clipPath
       id="clipPath113650">
      <rect
         x="0"
         y="0"
         width="504"
         height="504"
         id="rect113648" />
    </clipPath>
    <clipPath
       id="cpMC4wMHw1MDQuMDB8NTA0LjAwfDAuMDA=-7-5">
      <rect
         x="0"
         y="0"
         width="504"
         height="504"
         id="rect31662-3" />
    </clipPath>
    <clipPath
       id="clipPath130293">
      <rect
         x="0"
         y="0"
         width="504"
         height="504"
         id="rect130291" />
    </clipPath>
    <clipPath
       id="clipPath130297">
      <rect
         x="0"
         y="0"
         width="504"
         height="504"
         id="rect130295" />
    </clipPath>
    <style
       type="text/css"
       id="style41682"><![CDATA[
    line, polyline, polygon, path, rect, circle {
      fill: none;
      stroke: #000000;
      stroke-linecap: round;
      stroke-linejoin: round;
      stroke-miterlimit: 10.00;
    }
  ]]></style>
    <clipPath
       id="cpMC4wMHw1MDQuMDB8NTA0LjAwfDAuMDA=-7-5-9">
      <rect
         x="0"
         y="0"
         width="504"
         height="504"
         id="rect31662-3-7" />
    </clipPath>
    <clipPath
       id="clipPath43820">
      <rect
         x="0"
         y="0"
         width="504"
         height="504"
         id="rect43818" />
    </clipPath>
    <clipPath
       id="clipPath43824">
      <rect
         x="0"
         y="0"
         width="504"
         height="504"
         id="rect43822" />
    </clipPath>
  </defs>
  <defs
     id="defs110729">
    <clipPath
       id="cpMTgwLjgyfDI1NS43Mnw0NzIuNTF8MjIuNDA=">
      <rect
         x="180.82001"
         y="22.4"
         width="74.900002"
         height="450.10999"
         id="rect110726" />
    </clipPath>
  </defs>
  <defs
     id="defs111234">
    <clipPath
       id="cpMC4wMHw1MDQuMDB8NTA0LjAwfDAuMDA=">
      <rect
         x="0"
         y="0"
         width="504"
         height="504"
         id="rect111231" />
    </clipPath>
  </defs>
  <defs
     id="defs111239">
    <clipPath
       id="cpNDIzLjYyfDQ5OC41Mnw0NzIuNTF8MjIuNDA=">
      <rect
         x="423.62"
         y="22.4"
         width="74.900002"
         height="450.10999"
         id="rect111236" />
    </clipPath>
  </defs>
  <defs
     id="defs111749">
    <clipPath
       id="clipPath111747">
      <rect
         x="0"
         y="0"
         width="504"
         height="504"
         id="rect111745" />
    </clipPath>
  </defs>
  <defs
     id="defs111754">
    <clipPath
       id="cpMTgwLjgyfDI1NS43MnwyMi40MHw1LjQ4">
      <rect
         x="180.82001"
         y="5.48"
         width="74.900002"
         height="16.92"
         id="rect111751" />
    </clipPath>
  </defs>
  <defs
     id="defs111766">
    <clipPath
       id="clipPath111764">
      <rect
         x="0"
         y="0"
         width="504"
         height="504"
         id="rect111762" />
    </clipPath>
  </defs>
  <defs
     id="defs111771">
    <clipPath
       id="cpNDIzLjYyfDQ5OC41MnwyMi40MHw1LjQ4">
      <rect
         x="423.62"
         y="5.48"
         width="74.900002"
         height="16.92"
         id="rect111768" />
    </clipPath>
  </defs>
  <defs
     id="defs111783">
    <clipPath
       id="clipPath111781">
      <rect
         x="0"
         y="0"
         width="504"
         height="504"
         id="rect111779" />
    </clipPath>
  </defs>
  <text
     xml:space="preserve"
     style="font-stretch:condensed;font-size:10.6667px;line-height:1.25;font-family:'Noto Sans';-inkscape-font-specification:'Noto Sans, Condensed';letter-spacing:0px;word-spacing:0px;writing-mode:lr-tb"
     x="211.71378"
     y="99.484398"
     id="text115073"><tspan
       sodipodi:role="line"
       id="tspan115071"
       x="211.71378"
       y="99.484398">10<tspan
   style="font-size:65%;baseline-shift:super"
   id="tspan115085">-4</tspan></tspan></text>
  <text
     xml:space="preserve"
     style="font-stretch:condensed;font-size:10.6667px;line-height:1.25;font-family:'Noto Sans';-inkscape-font-specification:'Noto Sans, Condensed';letter-spacing:0px;word-spacing:0px;writing-mode:lr-tb"
     x="315.79514"
     y="99.519066"
     id="text115077"><tspan
       sodipodi:role="line"
       id="tspan115075"
       x="315.79514"
       y="99.519066">10<tspan
   style="font-size:65%;baseline-shift:super"
   id="tspan115087">-3</tspan></tspan></text>
  <text
     xml:space="preserve"
     style="font-stretch:condensed;font-size:10.6667px;line-height:1.25;font-family:'Noto Sans';-inkscape-font-specification:'Noto Sans, Condensed';letter-spacing:0px;word-spacing:0px;writing-mode:lr-tb"
     x="107.86472"
     y="99.44973"
     id="text115081"><tspan
       sodipodi:role="line"
       id="tspan115079"
       x="107.86472"
       y="99.44973">10<tspan
   style="font-size:65%;baseline-shift:super"
   id="tspan115083">-5</tspan></tspan></text>
  <text
     xml:space="preserve"
     style="font-stretch:condensed;font-size:10.6667px;line-height:1.25;font-family:'Noto Sans';-inkscape-font-specification:'Noto Sans, Condensed';letter-spacing:0px;word-spacing:0px;writing-mode:lr-tb"
     x="177.52118"
     y="117.07717"
     id="text115091"><tspan
       sodipodi:role="line"
       id="tspan115089"
       x="177.52118"
       y="117.07717">Corrected F/F<tspan
   style="font-size:65%;baseline-shift:sub"
   id="tspan43426">max</tspan> EC<tspan
   style="font-size:65%;baseline-shift:sub"
   id="tspan115093">50</tspan></tspan></text>
  <rect
     x="106.00099"
     y="2.8044433e-06"
     width="228.88258"
     height="84.68602"
     style="fill:#efebe9;stroke:none;stroke-width:0.243034"
     clip-path="none"
     id="rect41695" />
  <path
     id="polyline41743"
     clip-path="none"
     style="fill:none;stroke:#ffffff;stroke-width:0.376765;stroke-linecap:butt;stroke-linejoin:round;stroke-miterlimit:10"
     d="m 115.74098,84.686022 c 0,-28.228682 0,-56.457352 0,-84.686022" />
  <path
     id="polyline41745"
     clip-path="none"
     style="fill:none;stroke:#ffffff;stroke-width:0.376765;stroke-linecap:butt;stroke-linejoin:round;stroke-miterlimit:10"
     d="m 219.70098,84.686022 c 0,-28.228682 0,-56.457352 0,-84.686022" />
  <path
     id="polyline41747"
     clip-path="none"
     style="fill:none;stroke:#ffffff;stroke-width:0.376765;stroke-linecap:butt;stroke-linejoin:round;stroke-miterlimit:10"
     d="m 323.66098,84.686022 c 0,-28.228682 0,-56.457352 0,-84.686022" />
  <path
     id="polyline41725"
     clip-path="none"
     style="fill:none;stroke:#ffffff;stroke-width:0.69021;stroke-linecap:butt;stroke-linejoin:round;stroke-miterlimit:10"
     d="m 106.00098,74.207502 c 76.2942,0 152.5884,0 228.88259,0" />
  <polyline
     points="263.93,299.20 264.03,299.20 264.13,299.20 264.23,299.19 264.32,299.19 264.42,299.19 264.52,299.19 264.62,299.19 264.72,299.19 264.81,299.18 264.91,299.18 265.01,299.18 265.11,299.18 265.21,299.18 265.31,299.18 265.40,299.17 265.50,299.17 265.60,299.17 265.70,299.17 265.80,299.16 265.90,299.16 265.99,299.15 266.09,299.15 266.19,299.14 266.29,299.14 266.39,299.14 266.49,299.13 266.58,299.13 266.68,299.12 266.78,299.12 266.88,299.12 266.98,299.12 267.08,299.11 267.17,299.11 267.27,299.11 267.37,299.11 267.47,299.11 267.57,299.11 267.67,299.11 267.76,299.12 267.86,299.12 267.96,299.12 268.06,299.12 268.16,299.12 268.26,299.12 268.35,299.12 268.45,299.12 268.55,299.12 268.65,299.12 268.75,299.12 268.85,299.12 268.94,299.11 269.04,299.11 269.14,299.10 269.24,299.10 269.34,299.09 269.44,299.08 269.53,299.07 269.63,299.06 269.73,299.05 269.83,299.04 269.93,299.02 270.03,299.01 270.12,298.99 270.22,298.97 270.32,298.96 270.42,298.94 270.52,298.92 270.62,298.90 270.71,298.88 270.81,298.85 270.91,298.83 271.01,298.81 271.11,298.78 271.21,298.76 271.30,298.73 271.40,298.71 271.50,298.68 271.60,298.66 271.70,298.63 271.80,298.61 271.89,298.59 271.99,298.56 272.09,298.54 272.19,298.52 272.29,298.50 272.38,298.47 272.48,298.45 272.58,298.43 272.68,298.41 272.78,298.39 272.88,298.36 272.97,298.34 273.07,298.32 273.17,298.29 273.27,298.26 273.37,298.23 273.47,298.20 273.56,298.16 273.66,298.12 273.76,298.08 273.86,298.03 273.96,297.99 274.06,297.94 274.15,297.88 274.25,297.83 274.35,297.77 274.45,297.70 274.55,297.64 274.65,297.57 274.74,297.51 274.84,297.44 274.94,297.37 275.04,297.29 275.14,297.22 275.24,297.15 275.33,297.07 275.43,297.00 275.53,296.93 275.63,296.85 275.73,296.78 275.83,296.70 275.92,296.63 276.02,296.55 276.12,296.48 276.22,296.41 276.32,296.33 276.42,296.26 276.46,296.22 276.46,299.26 276.42,299.26 276.32,299.26 276.22,299.26 276.12,299.26 276.02,299.26 275.92,299.26 275.83,299.26 275.73,299.26 275.63,299.26 275.53,299.26 275.43,299.26 275.33,299.26 275.24,299.26 275.14,299.26 275.04,299.26 274.94,299.26 274.84,299.26 274.74,299.26 274.65,299.26 274.55,299.26 274.45,299.26 274.35,299.26 274.25,299.26 274.15,299.26 274.06,299.26 273.96,299.26 273.86,299.26 273.76,299.26 273.66,299.26 273.56,299.26 273.47,299.26 273.37,299.26 273.27,299.26 273.17,299.26 273.07,299.26 272.97,299.26 272.88,299.26 272.78,299.26 272.68,299.26 272.58,299.26 272.48,299.26 272.38,299.26 272.29,299.26 272.19,299.26 272.09,299.26 271.99,299.26 271.89,299.26 271.80,299.26 271.70,299.26 271.60,299.26 271.50,299.26 271.40,299.26 271.30,299.26 271.21,299.26 271.11,299.26 271.01,299.26 270.91,299.26 270.81,299.26 270.71,299.26 270.62,299.26 270.52,299.26 270.42,299.26 270.32,299.26 270.22,299.26 270.12,299.26 270.03,299.26 269.93,299.26 269.83,299.26 269.73,299.26 269.63,299.26 269.53,299.26 269.44,299.26 269.34,299.26 269.24,299.26 269.14,299.26 269.04,299.26 268.94,299.26 268.85,299.26 268.75,299.26 268.65,299.26 268.55,299.26 268.45,299.26 268.35,299.26 268.26,299.26 268.16,299.26 268.06,299.26 267.96,299.26 267.86,299.26 267.76,299.26 267.67,299.26 267.57,299.26 267.47,299.26 267.37,299.26 267.27,299.26 267.17,299.26 267.08,299.26 266.98,299.26 266.88,299.26 266.78,299.26 266.68,299.26 266.58,299.26 266.49,299.26 266.39,299.26 266.29,299.26 266.19,299.26 266.09,299.26 265.99,299.26 265.90,299.26 265.80,299.26 265.70,299.26 265.60,299.26 265.50,299.26 265.40,299.26 265.31,299.26 265.21,299.26 265.11,299.26 265.01,299.26 264.91,299.26 264.81,299.26 264.72,299.26 264.62,299.26 264.52,299.26 264.42,299.26 264.32,299.26 264.23,299.26 264.13,299.26 264.03,299.26 263.93,299.26 263.93,299.20 "
     style="fill:#ffffff;stroke:none;stroke-width:2.13"
     clip-path="none"
     id="polyline41851"
     transform="translate(-94.079017,-225.0525)" />
  <polygon
     points="278.19,294.26 278.28,294.1 278.38,293.95 278.48,293.8 278.58,293.65 278.68,293.5 278.78,293.35 278.87,293.2 278.97,293.05 279.07,292.91 279.17,292.76 279.27,292.62 279.37,292.47 279.46,292.32 279.56,292.17 279.66,292.02 279.76,291.86 279.86,291.69 279.95,291.52 280.05,291.33 280.15,291.14 280.25,290.94 280.35,290.73 280.45,290.51 280.54,290.28 280.64,290.03 280.74,289.78 280.84,289.51 280.94,289.24 280.99,289.09 280.99,299.26 280.94,299.26 280.84,299.26 280.74,299.26 280.64,299.26 280.54,299.26 280.45,299.26 280.35,299.26 280.25,299.26 280.15,299.26 280.05,299.26 279.95,299.26 279.86,299.26 279.76,299.26 279.66,299.26 279.56,299.26 279.46,299.26 279.37,299.26 279.27,299.26 279.17,299.26 279.07,299.26 278.97,299.26 278.87,299.26 278.78,299.26 278.68,299.26 278.58,299.26 278.48,299.26 278.38,299.26 278.28,299.26 278.19,299.26 278.09,299.26 277.99,299.26 277.89,299.26 277.79,299.26 277.69,299.26 277.6,299.26 277.5,299.26 277.4,299.26 277.3,299.26 277.2,299.26 277.1,299.26 277.01,299.26 276.91,299.26 276.81,299.26 276.71,299.26 276.61,299.26 276.51,299.26 276.46,299.26 276.46,296.22 276.51,296.18 276.61,296.1 276.71,296.02 276.81,295.93 276.91,295.85 277.01,295.76 277.1,295.66 277.2,295.56 277.3,295.45 277.4,295.34 277.5,295.22 277.6,295.1 277.69,294.97 277.79,294.84 277.89,294.7 277.99,294.55 278.09,294.41 "
     style="fill:#bbdefb;stroke:none;stroke-width:2.13"
     clip-path="none"
     id="polygon41853"
     transform="translate(-94.079017,-225.0525)" />
  <polygon
     points="282.71,283.37 282.81,283.08 282.9,282.81 283,282.56 283.1,282.32 283.2,282.1 283.3,281.9 283.4,281.72 283.49,281.56 283.59,281.41 283.69,281.27 283.79,281.15 283.89,281.03 283.99,280.92 284.08,280.82 284.18,280.71 284.28,280.6 284.33,280.54 284.33,299.26 284.28,299.26 284.18,299.26 284.08,299.26 283.99,299.26 283.89,299.26 283.79,299.26 283.69,299.26 283.59,299.26 283.49,299.26 283.4,299.26 283.3,299.26 283.2,299.26 283.1,299.26 283,299.26 282.9,299.26 282.81,299.26 282.71,299.26 282.61,299.26 282.51,299.26 282.41,299.26 282.31,299.26 282.22,299.26 282.12,299.26 282.02,299.26 281.92,299.26 281.82,299.26 281.72,299.26 281.63,299.26 281.53,299.26 281.43,299.26 281.33,299.26 281.23,299.26 281.13,299.26 281.04,299.26 280.99,299.26 280.99,289.09 281.04,288.95 281.13,288.65 281.23,288.35 281.33,288.03 281.43,287.71 281.53,287.38 281.63,287.04 281.72,286.7 281.82,286.36 281.92,286.01 282.02,285.66 282.12,285.32 282.22,284.97 282.31,284.64 282.41,284.3 282.51,283.98 282.61,283.67 "
     style="fill:#2196f3;stroke:none;stroke-width:2.13"
     clip-path="none"
     id="polygon41855"
     transform="translate(-94.079017,-225.0525)" />
  <polygon
     points="286.05,276.69 286.15,276.45 286.25,276.22 286.35,276 286.44,275.8 286.54,275.63 286.64,275.47 286.74,275.33 286.84,275.22 286.94,275.12 287.03,275.05 287.13,274.99 287.23,274.95 287.33,274.94 287.43,274.94 287.52,274.95 287.62,274.98 287.72,275.02 287.82,275.07 287.92,275.13 288.02,275.19 288.11,275.26 288.21,275.33 288.31,275.4 288.41,275.47 288.51,275.54 288.61,275.61 288.7,275.67 288.8,275.73 288.9,275.78 289,275.82 289.1,275.86 289.2,275.9 289.29,275.93 289.39,275.96 289.49,276 289.59,276.03 289.69,276.07 289.79,276.12 289.88,276.18 289.98,276.24 290.08,276.32 290.18,276.41 290.28,276.52 290.38,276.64 290.47,276.77 290.57,276.93 290.67,277.09 290.77,277.28 290.87,277.48 290.97,277.69 291.06,277.91 291.16,278.14 291.26,278.39 291.36,278.64 291.46,278.9 291.56,279.17 291.65,279.44 291.75,279.71 291.85,279.99 291.95,280.27 292.05,280.55 292.1,280.69 292.1,299.26 292.05,299.26 291.95,299.26 291.85,299.26 291.75,299.26 291.65,299.26 291.56,299.26 291.46,299.26 291.36,299.26 291.26,299.26 291.16,299.26 291.06,299.26 290.97,299.26 290.87,299.26 290.77,299.26 290.67,299.26 290.57,299.26 290.47,299.26 290.38,299.26 290.28,299.26 290.18,299.26 290.08,299.26 289.98,299.26 289.88,299.26 289.79,299.26 289.69,299.26 289.59,299.26 289.49,299.26 289.39,299.26 289.29,299.26 289.2,299.26 289.1,299.26 289,299.26 288.9,299.26 288.8,299.26 288.7,299.26 288.61,299.26 288.51,299.26 288.41,299.26 288.31,299.26 288.21,299.26 288.11,299.26 288.02,299.26 287.92,299.26 287.82,299.26 287.72,299.26 287.62,299.26 287.52,299.26 287.43,299.26 287.33,299.26 287.23,299.26 287.13,299.26 287.03,299.26 286.94,299.26 286.84,299.26 286.74,299.26 286.64,299.26 286.54,299.26 286.44,299.26 286.35,299.26 286.25,299.26 286.15,299.26 286.05,299.26 285.95,299.26 285.85,299.26 285.76,299.26 285.66,299.26 285.56,299.26 285.46,299.26 285.36,299.26 285.26,299.26 285.17,299.26 285.07,299.26 284.97,299.26 284.87,299.26 284.77,299.26 284.67,299.26 284.58,299.26 284.48,299.26 284.38,299.26 284.33,299.26 284.33,280.54 284.38,280.48 284.48,280.35 284.58,280.21 284.67,280.06 284.77,279.9 284.87,279.71 284.97,279.51 285.07,279.3 285.17,279.07 285.26,278.82 285.36,278.57 285.46,278.3 285.56,278.03 285.66,277.76 285.76,277.48 285.85,277.21 285.95,276.95 "
     style="fill:#0d47a1;stroke:none;stroke-width:2.13"
     clip-path="none"
     id="polygon41857"
     transform="translate(-94.079017,-225.0525)" />
  <polygon
     points="293.82,284.99 293.92,285.18 294.01,285.37 294.11,285.55 294.21,285.73 294.31,285.91 294.41,286.08 294.51,286.26 294.6,286.43 294.7,286.61 294.8,286.79 294.9,286.98 295,287.17 295.09,287.37 295.19,287.57 295.29,287.78 295.39,287.99 295.49,288.2 295.59,288.42 295.68,288.64 295.73,288.75 295.73,299.26 295.68,299.26 295.59,299.26 295.49,299.26 295.39,299.26 295.29,299.26 295.19,299.26 295.09,299.26 295,299.26 294.9,299.26 294.8,299.26 294.7,299.26 294.6,299.26 294.51,299.26 294.41,299.26 294.31,299.26 294.21,299.26 294.11,299.26 294.01,299.26 293.92,299.26 293.82,299.26 293.72,299.26 293.62,299.26 293.52,299.26 293.42,299.26 293.33,299.26 293.23,299.26 293.13,299.26 293.03,299.26 292.93,299.26 292.83,299.26 292.74,299.26 292.64,299.26 292.54,299.26 292.44,299.26 292.34,299.26 292.24,299.26 292.15,299.26 292.1,299.26 292.1,280.69 292.15,280.83 292.24,281.11 292.34,281.38 292.44,281.65 292.54,281.92 292.64,282.19 292.74,282.45 292.83,282.71 292.93,282.97 293.03,283.22 293.13,283.46 293.23,283.7 293.33,283.93 293.42,284.15 293.52,284.37 293.62,284.58 293.72,284.79 "
     style="fill:#2196f3;stroke:none;stroke-width:2.13"
     clip-path="none"
     id="polygon41859"
     transform="translate(-94.079017,-225.0525)" />
  <polygon
     points="297.45,291.93 297.55,292.1 297.65,292.27 297.75,292.44 297.85,292.62 297.95,292.81 298.04,293 298.14,293.2 298.24,293.39 298.34,293.59 298.44,293.8 298.54,294 298.63,294.2 298.73,294.4 298.83,294.6 298.93,294.79 299.03,294.98 299.13,295.16 299.22,295.33 299.32,295.5 299.42,295.67 299.52,295.82 299.62,295.97 299.72,296.1 299.81,296.23 299.91,296.36 299.96,296.41 299.96,299.26 299.91,299.26 299.81,299.26 299.72,299.26 299.62,299.26 299.52,299.26 299.42,299.26 299.32,299.26 299.22,299.26 299.13,299.26 299.03,299.26 298.93,299.26 298.83,299.26 298.73,299.26 298.63,299.26 298.54,299.26 298.44,299.26 298.34,299.26 298.24,299.26 298.14,299.26 298.04,299.26 297.95,299.26 297.85,299.26 297.75,299.26 297.65,299.26 297.55,299.26 297.45,299.26 297.36,299.26 297.26,299.26 297.16,299.26 297.06,299.26 296.96,299.26 296.86,299.26 296.77,299.26 296.67,299.26 296.57,299.26 296.47,299.26 296.37,299.26 296.27,299.26 296.18,299.26 296.08,299.26 295.98,299.26 295.88,299.26 295.78,299.26 295.73,299.26 295.73,288.75 295.78,288.85 295.88,289.07 295.98,289.28 296.08,289.49 296.18,289.7 296.27,289.9 296.37,290.09 296.47,290.27 296.57,290.45 296.67,290.63 296.77,290.8 296.86,290.96 296.96,291.12 297.06,291.28 297.16,291.44 297.26,291.6 297.36,291.76 "
     style="fill:#bbdefb;stroke:none;stroke-width:2.13"
     clip-path="none"
     id="polygon41861"
     transform="translate(-94.079017,-225.0525)" />
  <polyline
     points="299.96,296.41 300.01,296.47 300.11,296.58 300.21,296.68 300.31,296.77 300.40,296.86 300.50,296.94 300.60,297.01 300.70,297.08 300.80,297.15 300.90,297.21 300.99,297.26 301.09,297.32 301.19,297.36 301.29,297.41 301.39,297.45 301.49,297.50 301.58,297.54 301.68,297.58 301.78,297.61 301.88,297.65 301.98,297.69 302.08,297.73 302.17,297.77 302.27,297.81 302.37,297.86 302.47,297.90 302.57,297.94 302.66,297.99 302.76,298.03 302.86,298.08 302.96,298.12 303.06,298.17 303.16,298.21 303.25,298.25 303.35,298.29 303.45,298.33 303.55,298.36 303.65,298.39 303.75,298.42 303.84,298.45 303.94,298.47 304.04,298.49 304.14,298.51 304.24,298.53 304.34,298.54 304.43,298.55 304.53,298.56 304.63,298.57 304.73,298.58 304.83,298.59 304.93,298.60 305.02,298.61 305.12,298.61 305.22,298.62 305.32,298.63 305.42,298.64 305.52,298.65 305.61,298.66 305.71,298.67 305.81,298.68 305.91,298.68 306.01,298.69 306.11,298.70 306.20,298.71 306.30,298.72 306.40,298.73 306.50,298.74 306.60,298.74 306.70,298.75 306.79,298.76 306.89,298.77 306.99,298.78 307.09,298.78 307.19,298.79 307.29,298.80 307.38,298.82 307.48,298.83 307.58,298.84 307.68,298.86 307.78,298.87 307.88,298.89 307.97,298.91 308.07,298.93 308.17,298.94 308.27,298.96 308.37,298.98 308.47,299.00 308.56,299.02 308.66,299.04 308.76,299.06 308.86,299.08 308.96,299.10 309.06,299.11 309.15,299.13 309.25,299.14 309.35,299.16 309.45,299.17 309.55,299.18 309.64,299.19 309.74,299.20 309.84,299.21 309.94,299.21 310.04,299.22 310.14,299.22 310.23,299.23 310.33,299.23 310.43,299.23 310.53,299.23 310.63,299.23 310.73,299.23 310.82,299.23 310.92,299.23 311.02,299.23 311.12,299.22 311.22,299.22 311.32,299.22 311.41,299.21 311.51,299.21 311.61,299.20 311.71,299.20 311.81,299.19 311.91,299.18 312.00,299.18 312.10,299.17 312.20,299.17 312.30,299.17 312.40,299.16 312.50,299.16 312.59,299.16 312.69,299.16 312.79,299.16 312.89,299.16 312.99,299.16 313.09,299.16 313.09,299.26 312.99,299.26 312.89,299.26 312.79,299.26 312.69,299.26 312.59,299.26 312.50,299.26 312.40,299.26 312.30,299.26 312.20,299.26 312.10,299.26 312.00,299.26 311.91,299.26 311.81,299.26 311.71,299.26 311.61,299.26 311.51,299.26 311.41,299.26 311.32,299.26 311.22,299.26 311.12,299.26 311.02,299.26 310.92,299.26 310.82,299.26 310.73,299.26 310.63,299.26 310.53,299.26 310.43,299.26 310.33,299.26 310.23,299.26 310.14,299.26 310.04,299.26 309.94,299.26 309.84,299.26 309.74,299.26 309.64,299.26 309.55,299.26 309.45,299.26 309.35,299.26 309.25,299.26 309.15,299.26 309.06,299.26 308.96,299.26 308.86,299.26 308.76,299.26 308.66,299.26 308.56,299.26 308.47,299.26 308.37,299.26 308.27,299.26 308.17,299.26 308.07,299.26 307.97,299.26 307.88,299.26 307.78,299.26 307.68,299.26 307.58,299.26 307.48,299.26 307.38,299.26 307.29,299.26 307.19,299.26 307.09,299.26 306.99,299.26 306.89,299.26 306.79,299.26 306.70,299.26 306.60,299.26 306.50,299.26 306.40,299.26 306.30,299.26 306.20,299.26 306.11,299.26 306.01,299.26 305.91,299.26 305.81,299.26 305.71,299.26 305.61,299.26 305.52,299.26 305.42,299.26 305.32,299.26 305.22,299.26 305.12,299.26 305.02,299.26 304.93,299.26 304.83,299.26 304.73,299.26 304.63,299.26 304.53,299.26 304.43,299.26 304.34,299.26 304.24,299.26 304.14,299.26 304.04,299.26 303.94,299.26 303.84,299.26 303.75,299.26 303.65,299.26 303.55,299.26 303.45,299.26 303.35,299.26 303.25,299.26 303.16,299.26 303.06,299.26 302.96,299.26 302.86,299.26 302.76,299.26 302.66,299.26 302.57,299.26 302.47,299.26 302.37,299.26 302.27,299.26 302.17,299.26 302.08,299.26 301.98,299.26 301.88,299.26 301.78,299.26 301.68,299.26 301.58,299.26 301.49,299.26 301.39,299.26 301.29,299.26 301.19,299.26 301.09,299.26 300.99,299.26 300.90,299.26 300.80,299.26 300.70,299.26 300.60,299.26 300.50,299.26 300.40,299.26 300.31,299.26 300.21,299.26 300.11,299.26 300.01,299.26 299.96,299.26 299.96,296.41 "
     style="fill:#ffffff;stroke:none;stroke-width:2.13"
     clip-path="none"
     id="polyline41863"
     transform="translate(-94.079017,-225.0525)" />
  <text
     xml:space="preserve"
     style="font-stretch:condensed;font-size:10.6667px;line-height:1.25;font-family:'Noto Sans';-inkscape-font-specification:'Noto Sans, Condensed';letter-spacing:0px;word-spacing:0px;writing-mode:lr-tb"
     x="-0.064000204"
     y="73.285904"
     id="text43596-6-8-9"><tspan
       sodipodi:role="line"
       id="tspan43594-1-7-2"
       x="-0.064000204"
       y="73.285904">W311*,C166S-GFP+SUR1</tspan></text>
  <path
     id="polyline41709"
     clip-path="none"
     style="fill:none;stroke:#ffffff;stroke-width:0.69021;stroke-linecap:butt;stroke-linejoin:round;stroke-miterlimit:10"
     d="m 106.00098,35.51277 c 76.2942,0 152.5884,0 228.8826,0" />
  <polyline
     points="246.46,592.99 246.55,592.99 246.64,592.99 246.72,592.99 246.81,592.99 246.90,592.99 246.99,593.00 247.07,593.00 247.16,593.00 247.25,593.00 247.34,593.01 247.42,593.01 247.51,593.01 247.60,593.01 247.69,593.02 247.77,593.02 247.86,593.02 247.95,593.02 248.04,593.02 248.13,593.02 248.21,593.02 248.30,593.02 248.39,593.02 248.48,593.01 248.56,593.01 248.65,593.01 248.74,593.01 248.83,593.00 248.91,593.00 249.00,593.00 249.09,592.99 249.18,592.99 249.26,592.99 249.35,592.99 249.44,592.99 249.53,592.99 249.61,592.99 249.70,592.99 249.79,592.99 249.88,592.99 249.96,592.99 250.05,592.99 250.14,592.99 250.23,592.99 250.32,592.99 250.40,592.99 250.49,592.99 250.58,592.99 250.67,592.99 250.75,592.99 250.84,592.99 250.93,592.98 251.02,592.98 251.10,592.97 251.19,592.97 251.28,592.96 251.37,592.96 251.45,592.95 251.54,592.94 251.63,592.93 251.72,592.93 251.80,592.92 251.89,592.91 251.98,592.90 252.07,592.89 252.15,592.89 252.24,592.88 252.33,592.87 252.42,592.86 252.50,592.85 252.59,592.84 252.68,592.83 252.77,592.82 252.86,592.81 252.94,592.79 253.03,592.78 253.12,592.76 253.21,592.75 253.29,592.73 253.38,592.72 253.47,592.70 253.56,592.68 253.64,592.66 253.73,592.65 253.82,592.63 253.91,592.62 253.99,592.60 254.08,592.59 254.17,592.58 254.26,592.57 254.34,592.56 254.43,592.55 254.52,592.54 254.61,592.53 254.69,592.52 254.78,592.51 254.87,592.49 254.96,592.48 255.05,592.46 255.13,592.44 255.22,592.42 255.31,592.39 255.40,592.37 255.48,592.34 255.57,592.31 255.66,592.28 255.75,592.24 255.83,592.21 255.92,592.17 256.01,592.14 256.10,592.10 256.18,592.07 256.27,592.03 256.36,592.00 256.45,591.96 256.53,591.93 256.62,591.89 256.71,591.85 256.80,591.81 256.88,591.77 256.97,591.72 257.06,591.67 257.15,591.61 257.24,591.55 257.32,591.49 257.41,591.42 257.50,591.34 257.59,591.26 257.67,591.18 257.76,591.08 257.85,590.99 257.94,590.89 258.02,590.79 258.11,590.68 258.20,590.57 258.29,590.46 258.37,590.35 258.46,590.23 258.55,590.11 258.64,590.00 258.72,589.88 258.81,589.76 258.90,589.64 258.99,589.51 259.07,589.39 259.16,589.27 259.25,589.14 259.34,589.01 259.43,588.89 259.47,588.82 259.47,593.03 259.43,593.03 259.34,593.03 259.25,593.03 259.16,593.03 259.07,593.03 258.99,593.03 258.90,593.03 258.81,593.03 258.72,593.03 258.64,593.03 258.55,593.03 258.46,593.03 258.37,593.03 258.29,593.03 258.20,593.03 258.11,593.03 258.02,593.03 257.94,593.03 257.85,593.03 257.76,593.03 257.67,593.03 257.59,593.03 257.50,593.03 257.41,593.03 257.32,593.03 257.24,593.03 257.15,593.03 257.06,593.03 256.97,593.03 256.88,593.03 256.80,593.03 256.71,593.03 256.62,593.03 256.53,593.03 256.45,593.03 256.36,593.03 256.27,593.03 256.18,593.03 256.10,593.03 256.01,593.03 255.92,593.03 255.83,593.03 255.75,593.03 255.66,593.03 255.57,593.03 255.48,593.03 255.40,593.03 255.31,593.03 255.22,593.03 255.13,593.03 255.05,593.03 254.96,593.03 254.87,593.03 254.78,593.03 254.69,593.03 254.61,593.03 254.52,593.03 254.43,593.03 254.34,593.03 254.26,593.03 254.17,593.03 254.08,593.03 253.99,593.03 253.91,593.03 253.82,593.03 253.73,593.03 253.64,593.03 253.56,593.03 253.47,593.03 253.38,593.03 253.29,593.03 253.21,593.03 253.12,593.03 253.03,593.03 252.94,593.03 252.86,593.03 252.77,593.03 252.68,593.03 252.59,593.03 252.50,593.03 252.42,593.03 252.33,593.03 252.24,593.03 252.15,593.03 252.07,593.03 251.98,593.03 251.89,593.03 251.80,593.03 251.72,593.03 251.63,593.03 251.54,593.03 251.45,593.03 251.37,593.03 251.28,593.03 251.19,593.03 251.10,593.03 251.02,593.03 250.93,593.03 250.84,593.03 250.75,593.03 250.67,593.03 250.58,593.03 250.49,593.03 250.40,593.03 250.32,593.03 250.23,593.03 250.14,593.03 250.05,593.03 249.96,593.03 249.88,593.03 249.79,593.03 249.70,593.03 249.61,593.03 249.53,593.03 249.44,593.03 249.35,593.03 249.26,593.03 249.18,593.03 249.09,593.03 249.00,593.03 248.91,593.03 248.83,593.03 248.74,593.03 248.65,593.03 248.56,593.03 248.48,593.03 248.39,593.03 248.30,593.03 248.21,593.03 248.13,593.03 248.04,593.03 247.95,593.03 247.86,593.03 247.77,593.03 247.69,593.03 247.60,593.03 247.51,593.03 247.42,593.03 247.34,593.03 247.25,593.03 247.16,593.03 247.07,593.03 246.99,593.03 246.90,593.03 246.81,593.03 246.72,593.03 246.64,593.03 246.55,593.03 246.46,593.03 246.46,592.99 "
     style="fill:#ffffff;stroke:none;stroke-width:2.13"
     clip-path="none"
     id="polyline41963"
     transform="translate(-94.079017,-557.51723)" />
  <polygon
     points="261.09,585.5 261.18,585.21 261.26,584.92 261.35,584.6 261.44,584.28 261.53,583.93 261.62,583.58 261.7,583.21 261.79,582.83 261.88,582.44 261.97,582.04 262.05,581.64 262.14,581.24 262.23,580.83 262.32,580.42 262.4,580.02 262.49,579.61 262.58,579.22 262.67,578.82 262.71,578.63 262.71,593.03 262.67,593.03 262.58,593.03 262.49,593.03 262.4,593.03 262.32,593.03 262.23,593.03 262.14,593.03 262.05,593.03 261.97,593.03 261.88,593.03 261.79,593.03 261.7,593.03 261.62,593.03 261.53,593.03 261.44,593.03 261.35,593.03 261.26,593.03 261.18,593.03 261.09,593.03 261,593.03 260.91,593.03 260.83,593.03 260.74,593.03 260.65,593.03 260.56,593.03 260.48,593.03 260.39,593.03 260.3,593.03 260.21,593.03 260.13,593.03 260.04,593.03 259.95,593.03 259.86,593.03 259.78,593.03 259.69,593.03 259.6,593.03 259.51,593.03 259.47,593.03 259.47,588.82 259.51,588.76 259.6,588.63 259.69,588.49 259.78,588.36 259.86,588.22 259.95,588.08 260.04,587.93 260.13,587.78 260.21,587.62 260.3,587.45 260.39,587.28 260.48,587.1 260.56,586.91 260.65,586.7 260.74,586.49 260.83,586.26 260.91,586.02 261,585.77 "
     style="fill:#bbdefb;stroke:none;stroke-width:2.13"
     clip-path="none"
     id="polygon41965"
     transform="translate(-94.079017,-557.51723)" />
  <polygon
     points="264.33,571.96 264.42,571.64 264.51,571.33 264.59,571.02 264.68,570.72 264.77,570.43 264.86,570.15 264.94,569.87 265.03,569.6 265.12,569.33 265.21,569.06 265.29,568.79 265.34,568.65 265.34,593.03 265.29,593.03 265.21,593.03 265.12,593.03 265.03,593.03 264.94,593.03 264.86,593.03 264.77,593.03 264.68,593.03 264.59,593.03 264.51,593.03 264.42,593.03 264.33,593.03 264.24,593.03 264.16,593.03 264.07,593.03 263.98,593.03 263.89,593.03 263.8,593.03 263.72,593.03 263.63,593.03 263.54,593.03 263.45,593.03 263.37,593.03 263.28,593.03 263.19,593.03 263.1,593.03 263.02,593.03 262.93,593.03 262.84,593.03 262.75,593.03 262.71,593.03 262.71,578.63 262.75,578.43 262.84,578.05 262.93,577.67 263.02,577.3 263.1,576.93 263.19,576.56 263.28,576.19 263.37,575.83 263.45,575.47 263.54,575.1 263.63,574.74 263.72,574.38 263.8,574.02 263.89,573.67 263.98,573.32 264.07,572.97 264.16,572.63 264.24,572.29 "
     style="fill:#2196f3;stroke:none;stroke-width:2.13"
     clip-path="none"
     id="polygon41967"
     transform="translate(-94.079017,-557.51723)" />
  <polygon
     points="266.96,563.87 267.05,563.73 267.13,563.62 267.22,563.53 267.31,563.46 267.4,563.41 267.48,563.37 267.57,563.35 267.66,563.34 267.75,563.34 267.83,563.34 267.92,563.35 268.01,563.36 268.1,563.37 268.18,563.38 268.27,563.38 268.36,563.39 268.45,563.4 268.54,563.4 268.62,563.41 268.71,563.41 268.8,563.43 268.89,563.44 268.97,563.47 269.06,563.51 269.15,563.56 269.24,563.62 269.32,563.7 269.41,563.79 269.5,563.9 269.59,564.03 269.67,564.18 269.76,564.34 269.85,564.52 269.94,564.71 270.02,564.91 270.11,565.13 270.2,565.35 270.29,565.57 270.37,565.8 270.46,566.03 270.55,566.26 270.64,566.49 270.73,566.71 270.81,566.93 270.9,567.15 270.99,567.37 271.08,567.59 271.16,567.81 271.25,568.03 271.34,568.25 271.43,568.49 271.47,568.61 271.47,593.03 271.43,593.03 271.34,593.03 271.25,593.03 271.16,593.03 271.08,593.03 270.99,593.03 270.9,593.03 270.81,593.03 270.73,593.03 270.64,593.03 270.55,593.03 270.46,593.03 270.37,593.03 270.29,593.03 270.2,593.03 270.11,593.03 270.02,593.03 269.94,593.03 269.85,593.03 269.76,593.03 269.67,593.03 269.59,593.03 269.5,593.03 269.41,593.03 269.32,593.03 269.24,593.03 269.15,593.03 269.06,593.03 268.97,593.03 268.89,593.03 268.8,593.03 268.71,593.03 268.62,593.03 268.54,593.03 268.45,593.03 268.36,593.03 268.27,593.03 268.18,593.03 268.1,593.03 268.01,593.03 267.92,593.03 267.83,593.03 267.75,593.03 267.66,593.03 267.57,593.03 267.48,593.03 267.4,593.03 267.31,593.03 267.22,593.03 267.13,593.03 267.05,593.03 266.96,593.03 266.87,593.03 266.78,593.03 266.7,593.03 266.61,593.03 266.52,593.03 266.43,593.03 266.35,593.03 266.26,593.03 266.17,593.03 266.08,593.03 265.99,593.03 265.91,593.03 265.82,593.03 265.73,593.03 265.64,593.03 265.56,593.03 265.47,593.03 265.38,593.03 265.34,593.03 265.34,568.65 265.38,568.51 265.47,568.24 265.56,567.96 265.64,567.68 265.73,567.4 265.82,567.11 265.91,566.82 265.99,566.53 266.08,566.23 266.17,565.95 266.26,565.66 266.35,565.38 266.43,565.12 266.52,564.86 266.61,564.63 266.7,564.41 266.78,564.21 266.87,564.03 "
     style="fill:#0d47a1;stroke:none;stroke-width:2.13"
     clip-path="none"
     id="polygon41969"
     transform="translate(-94.079017,-557.51723)" />
  <polygon
     points="273.09,575.11 273.18,575.53 273.27,575.94 273.35,576.35 273.44,576.76 273.53,577.16 273.62,577.55 273.7,577.94 273.79,578.31 273.88,578.68 273.97,579.04 274.05,579.4 274.14,579.74 274.23,580.07 274.27,580.23 274.27,593.03 274.23,593.03 274.14,593.03 274.05,593.03 273.97,593.03 273.88,593.03 273.79,593.03 273.7,593.03 273.62,593.03 273.53,593.03 273.44,593.03 273.35,593.03 273.27,593.03 273.18,593.03 273.09,593.03 273,593.03 272.92,593.03 272.83,593.03 272.74,593.03 272.65,593.03 272.56,593.03 272.48,593.03 272.39,593.03 272.3,593.03 272.21,593.03 272.13,593.03 272.04,593.03 271.95,593.03 271.86,593.03 271.78,593.03 271.69,593.03 271.6,593.03 271.51,593.03 271.47,593.03 271.47,568.61 271.51,568.73 271.6,568.98 271.69,569.25 271.78,569.52 271.86,569.82 271.95,570.12 272.04,570.44 272.13,570.78 272.21,571.13 272.3,571.49 272.39,571.86 272.48,572.25 272.56,572.64 272.65,573.04 272.74,573.45 272.83,573.86 272.92,574.28 273,574.69 "
     style="fill:#2196f3;stroke:none;stroke-width:2.13"
     clip-path="none"
     id="polygon41971"
     transform="translate(-94.079017,-557.51723)" />
  <polygon
     points="275.89,585.05 275.98,585.25 276.07,585.45 276.16,585.64 276.24,585.82 276.33,586 276.42,586.18 276.51,586.35 276.59,586.52 276.68,586.68 276.77,586.85 276.86,587.01 276.94,587.18 277.03,587.34 277.12,587.5 277.21,587.67 277.29,587.84 277.38,588 277.47,588.17 277.51,588.26 277.51,593.03 277.47,593.03 277.38,593.03 277.29,593.03 277.21,593.03 277.12,593.03 277.03,593.03 276.94,593.03 276.86,593.03 276.77,593.03 276.68,593.03 276.59,593.03 276.51,593.03 276.42,593.03 276.33,593.03 276.24,593.03 276.16,593.03 276.07,593.03 275.98,593.03 275.89,593.03 275.81,593.03 275.72,593.03 275.63,593.03 275.54,593.03 275.46,593.03 275.37,593.03 275.28,593.03 275.19,593.03 275.1,593.03 275.02,593.03 274.93,593.03 274.84,593.03 274.75,593.03 274.67,593.03 274.58,593.03 274.49,593.03 274.4,593.03 274.32,593.03 274.27,593.03 274.27,580.23 274.32,580.39 274.4,580.71 274.49,581.01 274.58,581.31 274.67,581.6 274.75,581.88 274.84,582.16 274.93,582.43 275.02,582.69 275.1,582.95 275.19,583.2 275.28,583.45 275.37,583.7 275.46,583.94 275.54,584.17 275.63,584.4 275.72,584.62 275.81,584.84 "
     style="fill:#bbdefb;stroke:none;stroke-width:2.13"
     clip-path="none"
     id="polygon41973"
     transform="translate(-94.079017,-557.51723)" />
  <polyline
     points="277.51,588.26 277.56,588.34 277.65,588.51 277.73,588.68 277.82,588.86 277.91,589.03 278.00,589.20 278.08,589.36 278.17,589.53 278.26,589.69 278.35,589.85 278.43,590.00 278.52,590.15 278.61,590.29 278.70,590.42 278.78,590.55 278.87,590.67 278.96,590.78 279.05,590.89 279.13,590.98 279.22,591.08 279.31,591.16 279.40,591.24 279.48,591.32 279.57,591.39 279.66,591.45 279.75,591.52 279.84,591.58 279.92,591.63 280.01,591.69 280.10,591.74 280.19,591.79 280.27,591.84 280.36,591.89 280.45,591.93 280.54,591.98 280.62,592.03 280.71,592.07 280.80,592.12 280.89,592.16 280.97,592.20 281.06,592.25 281.15,592.29 281.24,592.33 281.32,592.37 281.41,592.41 281.50,592.45 281.59,592.48 281.67,592.52 281.76,592.55 281.85,592.58 281.94,592.61 282.03,592.64 282.11,592.66 282.20,592.69 282.29,592.71 282.38,592.73 282.46,592.75 282.55,592.76 282.64,592.78 282.73,592.80 282.81,592.81 282.90,592.82 282.99,592.83 283.08,592.85 283.16,592.86 283.25,592.86 283.34,592.87 283.43,592.88 283.51,592.88 283.60,592.89 283.69,592.89 283.78,592.90 283.86,592.90 283.95,592.90 284.04,592.90 284.13,592.90 284.22,592.90 284.30,592.90 284.39,592.90 284.48,592.90 284.57,592.90 284.65,592.90 284.74,592.90 284.83,592.90 284.92,592.90 285.00,592.90 285.09,592.90 285.18,592.90 285.27,592.91 285.35,592.91 285.44,592.91 285.53,592.92 285.62,592.92 285.70,592.93 285.79,592.93 285.88,592.94 285.97,592.94 286.05,592.95 286.14,592.95 286.23,592.96 286.32,592.96 286.40,592.97 286.49,592.97 286.58,592.97 286.67,592.97 286.76,592.98 286.84,592.98 286.93,592.98 287.02,592.98 287.11,592.98 287.19,592.98 287.28,592.98 287.37,592.99 287.46,592.99 287.54,592.99 287.63,592.99 287.72,593.00 287.81,593.00 287.89,593.00 287.98,593.00 288.07,593.01 288.16,593.01 288.24,593.01 288.33,593.01 288.42,593.02 288.51,593.02 288.59,593.02 288.68,593.02 288.77,593.02 288.86,593.02 288.95,593.02 289.03,593.02 289.12,593.01 289.21,593.01 289.30,593.01 289.38,593.01 289.47,593.00 289.56,593.00 289.65,593.00 289.73,593.00 289.82,592.99 289.91,592.99 290.00,592.99 290.08,592.99 290.17,592.99 290.26,592.99 290.26,593.03 290.17,593.03 290.08,593.03 290.00,593.03 289.91,593.03 289.82,593.03 289.73,593.03 289.65,593.03 289.56,593.03 289.47,593.03 289.38,593.03 289.30,593.03 289.21,593.03 289.12,593.03 289.03,593.03 288.95,593.03 288.86,593.03 288.77,593.03 288.68,593.03 288.59,593.03 288.51,593.03 288.42,593.03 288.33,593.03 288.24,593.03 288.16,593.03 288.07,593.03 287.98,593.03 287.89,593.03 287.81,593.03 287.72,593.03 287.63,593.03 287.54,593.03 287.46,593.03 287.37,593.03 287.28,593.03 287.19,593.03 287.11,593.03 287.02,593.03 286.93,593.03 286.84,593.03 286.76,593.03 286.67,593.03 286.58,593.03 286.49,593.03 286.40,593.03 286.32,593.03 286.23,593.03 286.14,593.03 286.05,593.03 285.97,593.03 285.88,593.03 285.79,593.03 285.70,593.03 285.62,593.03 285.53,593.03 285.44,593.03 285.35,593.03 285.27,593.03 285.18,593.03 285.09,593.03 285.00,593.03 284.92,593.03 284.83,593.03 284.74,593.03 284.65,593.03 284.57,593.03 284.48,593.03 284.39,593.03 284.30,593.03 284.22,593.03 284.13,593.03 284.04,593.03 283.95,593.03 283.86,593.03 283.78,593.03 283.69,593.03 283.60,593.03 283.51,593.03 283.43,593.03 283.34,593.03 283.25,593.03 283.16,593.03 283.08,593.03 282.99,593.03 282.90,593.03 282.81,593.03 282.73,593.03 282.64,593.03 282.55,593.03 282.46,593.03 282.38,593.03 282.29,593.03 282.20,593.03 282.11,593.03 282.03,593.03 281.94,593.03 281.85,593.03 281.76,593.03 281.67,593.03 281.59,593.03 281.50,593.03 281.41,593.03 281.32,593.03 281.24,593.03 281.15,593.03 281.06,593.03 280.97,593.03 280.89,593.03 280.80,593.03 280.71,593.03 280.62,593.03 280.54,593.03 280.45,593.03 280.36,593.03 280.27,593.03 280.19,593.03 280.10,593.03 280.01,593.03 279.92,593.03 279.84,593.03 279.75,593.03 279.66,593.03 279.57,593.03 279.48,593.03 279.40,593.03 279.31,593.03 279.22,593.03 279.13,593.03 279.05,593.03 278.96,593.03 278.87,593.03 278.78,593.03 278.70,593.03 278.61,593.03 278.52,593.03 278.43,593.03 278.35,593.03 278.26,593.03 278.17,593.03 278.08,593.03 278.00,593.03 277.91,593.03 277.82,593.03 277.73,593.03 277.65,593.03 277.56,593.03 277.51,593.03 277.51,588.26 "
     style="fill:#ffffff;stroke:none;stroke-width:2.13"
     clip-path="none"
     id="polyline41975"
     transform="translate(-94.079017,-557.51723)" />
  <text
     xml:space="preserve"
     style="font-stretch:condensed;font-size:10.6667px;line-height:1.25;font-family:'Noto Sans';-inkscape-font-specification:'Noto Sans, Condensed';letter-spacing:0px;word-spacing:0px;writing-mode:lr-tb"
     x="27.402613"
     y="35.881866"
     id="text43706-7-9"><tspan
       sodipodi:role="line"
       id="tspan43704-5-2"
       x="27.402613"
       y="35.881866">W311*-GFP+SUR1</tspan></text>
  <g
     id="g43908"
     transform="translate(416.59328,53.5054)">
    <rect
       x="454.09"
       y="222.33"
       width="14.45"
       height="14.45"
       style="fill:#0d47a1;stroke:none;stroke-width:2.13;stroke-linecap:square;stroke-linejoin:miter;stroke-miterlimit:10"
       clip-path="url(#cpMC4wMHw1MDQuMDB8NTA0LjAwfDAuMDA=-7-5)"
       id="rect31731-5"
       transform="translate(-526.58323,-250.93104)" />
    <rect
       x="454.09"
       y="239.61"
       width="14.45"
       height="14.45"
       style="fill:#2196f3;stroke:none;stroke-width:2.13;stroke-linecap:square;stroke-linejoin:miter;stroke-miterlimit:10"
       clip-path="url(#cpMC4wMHw1MDQuMDB8NTA0LjAwfDAuMDA=-7-5)"
       id="rect31735-0"
       transform="translate(-526.58323,-250.93104)" />
    <rect
       x="454.09"
       y="256.89001"
       width="14.45"
       height="14.45"
       style="fill:#bbdefb;stroke:none;stroke-width:2.13;stroke-linecap:square;stroke-linejoin:miter;stroke-miterlimit:10"
       clip-path="url(#cpMC4wMHw1MDQuMDB8NTA0LjAwfDAuMDA=-7-5)"
       id="rect31739-5"
       transform="translate(-526.58323,-250.93104)" />
    <text
       xml:space="preserve"
       style="font-stretch:condensed;font-size:10.6667px;line-height:1.25;font-family:'Noto Sans';-inkscape-font-specification:'Noto Sans, Condensed';letter-spacing:0px;word-spacing:0px;writing-mode:lr-tb"
       x="-72.877243"
       y="-34.627052"
       id="text32414-0"><tspan
         sodipodi:role="line"
         x="-72.877243"
         y="-34.627052"
         id="tspan43806">Interval</tspan></text>
    <text
       xml:space="preserve"
       style="font-stretch:condensed;font-size:10.6667px;line-height:1.25;font-family:'Noto Sans';-inkscape-font-specification:'Noto Sans, Condensed';letter-spacing:0px;word-spacing:0px;writing-mode:lr-tb"
       x="-54.699448"
       y="-17.568054"
       id="text32418-1"><tspan
         sodipodi:role="line"
         id="tspan32416-8"
         x="-54.699448"
         y="-17.568054">50%</tspan></text>
    <text
       xml:space="preserve"
       style="font-stretch:condensed;font-size:10.6667px;line-height:1.25;font-family:'Noto Sans';-inkscape-font-specification:'Noto Sans, Condensed';letter-spacing:0px;word-spacing:0px;writing-mode:lr-tb"
       x="-54.539444"
       y="-0.28802428"
       id="text32422-5"><tspan
         sodipodi:role="line"
         id="tspan32420-7"
         x="-54.539444"
         y="-0.28802428">80%</tspan></text>
    <text
       xml:space="preserve"
       style="font-stretch:condensed;font-size:10.6667px;line-height:1.25;font-family:'Noto Sans';-inkscape-font-specification:'Noto Sans, Condensed';letter-spacing:0px;word-spacing:0px;writing-mode:lr-tb"
       x="-54.571457"
       y="16.992012"
       id="text32426-8"><tspan
         sodipodi:role="line"
         id="tspan32424-5"
         x="-54.571457"
         y="16.992012">95%</tspan></text>
  </g>
</svg>
