<?xml version="1.0" encoding="UTF-8" standalone="no"?>
<svg
   xmlns:dc="http://purl.org/dc/elements/1.1/"
   xmlns:cc="http://creativecommons.org/ns#"
   xmlns:rdf="http://www.w3.org/1999/02/22-rdf-syntax-ns#"
   xmlns:svg="http://www.w3.org/2000/svg"
   xmlns="http://www.w3.org/2000/svg"
   xmlns:sodipodi="http://sodipodi.sourceforge.net/DTD/sodipodi-0.dtd"
   xmlns:inkscape="http://www.inkscape.org/namespaces/inkscape"
   viewBox="0 0 215.61731 164.69759"
   version="1.1"
   id="svg11942"
   sodipodi:docname="mwc_c166s_1.svg"
   width="215.61731"
   height="164.69759"
   inkscape:version="1.0.1 (3bc2e813f5, 2020-09-07, custom)">
  <metadata
     id="metadata11946">
    <rdf:RDF>
      <cc:Work
         rdf:about="">
        <dc:format>image/svg+xml</dc:format>
        <dc:type
           rdf:resource="http://purl.org/dc/dcmitype/StillImage" />
        <dc:title />
      </cc:Work>
    </rdf:RDF>
  </metadata>
  <sodipodi:namedview
     pagecolor="#ffffff"
     bordercolor="#666666"
     borderopacity="1"
     objecttolerance="10"
     gridtolerance="10"
     guidetolerance="10"
     inkscape:pageopacity="0"
     inkscape:pageshadow="2"
     inkscape:window-width="1366"
     inkscape:window-height="768"
     id="namedview11944"
     showgrid="false"
     inkscape:zoom="1"
     inkscape:cx="312.64371"
     inkscape:cy="45.453819"
     inkscape:window-x="0"
     inkscape:window-y="0"
     inkscape:window-maximized="1"
     inkscape:current-layer="svg11942"
     inkscape:document-rotation="0" />
  <defs
     id="defs9947">
    <style
       type="text/css"
       id="style9945"><![CDATA[
    line, polyline, polygon, path, rect, circle {
      fill: none;
      stroke: #000000;
      stroke-linecap: round;
      stroke-linejoin: round;
      stroke-miterlimit: 10.00;
    }
  ]]></style>
    <style
       type="text/css"
       id="style12854"><![CDATA[
    line, polyline, polygon, path, rect, circle {
      fill: none;
      stroke: #000000;
      stroke-linecap: round;
      stroke-linejoin: round;
      stroke-miterlimit: 10.00;
    }
  ]]></style>
    <clipPath
       id="cpMzUuNTd8NDY2LjcxfDQ2OS41MHwyMi40MA==">
      <rect
         x="35.57"
         y="22.4"
         width="431.14001"
         height="447.10999"
         id="rect12862" />
    </clipPath>
    <clipPath
       id="cpMC4wMHwxNDQwLjAwfDE0NDAuMDB8MC4wMA==">
      <rect
         x="0"
         y="0"
         width="1440"
         height="1440"
         id="rect13119" />
    </clipPath>
    <clipPath
       id="cpMzUuNTd8NDY2LjcxfDkzOS4wMXw0OTEuOTA=">
      <rect
         x="35.57"
         y="491.89999"
         width="431.14001"
         height="447.10999"
         id="rect13124" />
    </clipPath>
    <clipPath
       id="clipPath13255">
      <rect
         x="0"
         y="0"
         width="1440"
         height="1440"
         id="rect13253" />
    </clipPath>
    <clipPath
       id="cpMzUuNTd8NDY2LjcxfDE0MDguNTF8OTYxLjQw">
      <rect
         x="35.57"
         y="961.40002"
         width="431.14001"
         height="447.10999"
         id="rect13259" />
    </clipPath>
    <clipPath
       id="clipPath13508">
      <rect
         x="0"
         y="0"
         width="1440"
         height="1440"
         id="rect13506" />
    </clipPath>
    <clipPath
       id="cpNDcyLjE5fDkwMy4zM3w0NjkuNTB8MjIuNDA=">
      <rect
         x="472.19"
         y="22.4"
         width="431.14001"
         height="447.10999"
         id="rect13512" />
    </clipPath>
    <clipPath
       id="clipPath13701">
      <rect
         x="0"
         y="0"
         width="1440"
         height="1440"
         id="rect13699" />
    </clipPath>
    <clipPath
       id="cpNDcyLjE5fDkwMy4zM3w5MzkuMDF8NDkxLjkw">
      <rect
         x="472.19"
         y="491.89999"
         width="431.14001"
         height="447.10999"
         id="rect13705" />
    </clipPath>
    <clipPath
       id="clipPath13858">
      <rect
         x="0"
         y="0"
         width="1440"
         height="1440"
         id="rect13856" />
    </clipPath>
    <clipPath
       id="cpNDcyLjE5fDkwMy4zM3wxNDA4LjUxfDk2MS40MA==">
      <rect
         x="472.19"
         y="961.40002"
         width="431.14001"
         height="447.10999"
         id="rect13862" />
    </clipPath>
    <clipPath
       id="clipPath14041">
      <rect
         x="0"
         y="0"
         width="1440"
         height="1440"
         id="rect14039" />
    </clipPath>
    <clipPath
       id="cpOTA4LjgxfDEzMzkuOTV8NDY5LjUwfDIyLjQw">
      <rect
         x="908.81"
         y="22.4"
         width="431.14001"
         height="447.10999"
         id="rect14045" />
    </clipPath>
    <clipPath
       id="clipPath14208">
      <rect
         x="0"
         y="0"
         width="1440"
         height="1440"
         id="rect14206" />
    </clipPath>
    <clipPath
       id="cpOTA4LjgxfDEzMzkuOTV8OTM5LjAxfDQ5MS45MA==">
      <rect
         x="908.81"
         y="491.89999"
         width="431.14001"
         height="447.10999"
         id="rect14212" />
    </clipPath>
    <clipPath
       id="clipPath14373">
      <rect
         x="0"
         y="0"
         width="1440"
         height="1440"
         id="rect14371" />
    </clipPath>
    <clipPath
       id="cpOTA4LjgxfDEzMzkuOTV8MTQwOC41MXw5NjEuNDA=">
      <rect
         x="908.81"
         y="961.40002"
         width="431.14001"
         height="447.10999"
         id="rect14377" />
    </clipPath>
    <clipPath
       id="clipPath14534">
      <rect
         x="0"
         y="0"
         width="1440"
         height="1440"
         id="rect14532" />
    </clipPath>
    <clipPath
       id="cpMzUuNTd8NDY2LjcxfDk2MS40MHw5NDQuNDk=">
      <rect
         x="35.57"
         y="944.48999"
         width="431.14001"
         height="16.92"
         id="rect14538" />
    </clipPath>
    <clipPath
       id="clipPath14551">
      <rect
         x="0"
         y="0"
         width="1440"
         height="1440"
         id="rect14549" />
    </clipPath>
    <clipPath
       id="cpNDcyLjE5fDkwMy4zM3w5NjEuNDB8OTQ0LjQ5">
      <rect
         x="472.19"
         y="944.48999"
         width="431.14001"
         height="16.92"
         id="rect14555" />
    </clipPath>
    <clipPath
       id="clipPath14568">
      <rect
         x="0"
         y="0"
         width="1440"
         height="1440"
         id="rect14566" />
    </clipPath>
    <clipPath
       id="cpOTA4LjgxfDEzMzkuOTV8OTYxLjQwfDk0NC40OQ==">
      <rect
         x="908.81"
         y="944.48999"
         width="431.14001"
         height="16.92"
         id="rect14572" />
    </clipPath>
    <clipPath
       id="clipPath14585">
      <rect
         x="0"
         y="0"
         width="1440"
         height="1440"
         id="rect14583" />
    </clipPath>
    <clipPath
       id="cpMzUuNTd8NDY2LjcxfDQ5MS45MHw0NzQuOTg=">
      <rect
         x="35.57"
         y="474.98001"
         width="431.14001"
         height="16.92"
         id="rect14589" />
    </clipPath>
    <clipPath
       id="clipPath14602">
      <rect
         x="0"
         y="0"
         width="1440"
         height="1440"
         id="rect14600" />
    </clipPath>
    <clipPath
       id="cpNDcyLjE5fDkwMy4zM3w0OTEuOTB8NDc0Ljk4">
      <rect
         x="472.19"
         y="474.98001"
         width="431.14001"
         height="16.92"
         id="rect14606" />
    </clipPath>
    <clipPath
       id="clipPath14619">
      <rect
         x="0"
         y="0"
         width="1440"
         height="1440"
         id="rect14617" />
    </clipPath>
    <clipPath
       id="cpOTA4LjgxfDEzMzkuOTV8NDkxLjkwfDQ3NC45OA==">
      <rect
         x="908.81"
         y="474.98001"
         width="431.14001"
         height="16.92"
         id="rect14623" />
    </clipPath>
    <clipPath
       id="clipPath14636">
      <rect
         x="0"
         y="0"
         width="1440"
         height="1440"
         id="rect14634" />
    </clipPath>
    <clipPath
       id="cpMzUuNTd8NDY2LjcxfDIyLjQwfDUuNDg=">
      <rect
         x="35.57"
         y="5.48"
         width="431.14001"
         height="16.92"
         id="rect14640" />
    </clipPath>
    <clipPath
       id="clipPath14653">
      <rect
         x="0"
         y="0"
         width="1440"
         height="1440"
         id="rect14651" />
    </clipPath>
    <clipPath
       id="cpNDcyLjE5fDkwMy4zM3wyMi40MHw1LjQ4">
      <rect
         x="472.19"
         y="5.48"
         width="431.14001"
         height="16.92"
         id="rect14657" />
    </clipPath>
    <clipPath
       id="clipPath14670">
      <rect
         x="0"
         y="0"
         width="1440"
         height="1440"
         id="rect14668" />
    </clipPath>
    <clipPath
       id="cpOTA4LjgxfDEzMzkuOTV8MjIuNDB8NS40OA==">
      <rect
         x="908.81"
         y="5.48"
         width="431.14001"
         height="16.92"
         id="rect14674" />
    </clipPath>
    <clipPath
       id="clipPath14687">
      <rect
         x="0"
         y="0"
         width="1440"
         height="1440"
         id="rect14685" />
    </clipPath>
    <clipPath
       id="cpMzUuNTd8NDY2LjcxfDQ2OS41MHwyMi40MA==-3">
      <rect
         x="35.57"
         y="22.4"
         width="431.14001"
         height="447.10999"
         id="rect12862-6" />
    </clipPath>
    <clipPath
       id="clipPath1427">
      <rect
         x="35.57"
         y="22.4"
         width="431.14001"
         height="447.10999"
         id="rect1425" />
    </clipPath>
    <clipPath
       id="clipPath1431">
      <rect
         x="35.57"
         y="22.4"
         width="431.14001"
         height="447.10999"
         id="rect1429" />
    </clipPath>
    <clipPath
       id="clipPath1435">
      <rect
         x="35.57"
         y="22.4"
         width="431.14001"
         height="447.10999"
         id="rect1433" />
    </clipPath>
    <clipPath
       id="cpMzUuNTd8NDY2LjcxfDkzOS4wMXw0OTEuOTA=-7">
      <rect
         x="35.57"
         y="491.89999"
         width="431.14001"
         height="447.10999"
         id="rect13124-5" />
    </clipPath>
    <clipPath
       id="clipPath1441">
      <rect
         x="35.57"
         y="491.89999"
         width="431.14001"
         height="447.10999"
         id="rect1439" />
    </clipPath>
    <clipPath
       id="clipPath1445">
      <rect
         x="35.57"
         y="491.89999"
         width="431.14001"
         height="447.10999"
         id="rect1443" />
    </clipPath>
    <clipPath
       id="clipPath1449">
      <rect
         x="35.57"
         y="491.89999"
         width="431.14001"
         height="447.10999"
         id="rect1447" />
    </clipPath>
    <clipPath
       id="clipPath1453">
      <rect
         x="35.57"
         y="491.89999"
         width="431.14001"
         height="447.10999"
         id="rect1451" />
    </clipPath>
    <clipPath
       id="clipPath1457">
      <rect
         x="35.57"
         y="491.89999"
         width="431.14001"
         height="447.10999"
         id="rect1455" />
    </clipPath>
    <clipPath
       id="clipPath1461">
      <rect
         x="35.57"
         y="491.89999"
         width="431.14001"
         height="447.10999"
         id="rect1459" />
    </clipPath>
    <clipPath
       id="clipPath1465">
      <rect
         x="35.57"
         y="491.89999"
         width="431.14001"
         height="447.10999"
         id="rect1463" />
    </clipPath>
    <clipPath
       id="clipPath1469">
      <rect
         x="35.57"
         y="491.89999"
         width="431.14001"
         height="447.10999"
         id="rect1467" />
    </clipPath>
    <clipPath
       id="clipPath1473">
      <rect
         x="35.57"
         y="491.89999"
         width="431.14001"
         height="447.10999"
         id="rect1471" />
    </clipPath>
    <clipPath
       id="clipPath1477">
      <rect
         x="35.57"
         y="491.89999"
         width="431.14001"
         height="447.10999"
         id="rect1475" />
    </clipPath>
    <clipPath
       id="clipPath1481">
      <rect
         x="35.57"
         y="491.89999"
         width="431.14001"
         height="447.10999"
         id="rect1479" />
    </clipPath>
    <clipPath
       id="clipPath1485">
      <rect
         x="35.57"
         y="491.89999"
         width="431.14001"
         height="447.10999"
         id="rect1483" />
    </clipPath>
    <clipPath
       id="clipPath1489">
      <rect
         x="35.57"
         y="491.89999"
         width="431.14001"
         height="447.10999"
         id="rect1487" />
    </clipPath>
    <clipPath
       id="clipPath1493">
      <rect
         x="35.57"
         y="491.89999"
         width="431.14001"
         height="447.10999"
         id="rect1491" />
    </clipPath>
    <clipPath
       id="clipPath1497">
      <rect
         x="35.57"
         y="491.89999"
         width="431.14001"
         height="447.10999"
         id="rect1495" />
    </clipPath>
    <clipPath
       id="clipPath1501">
      <rect
         x="35.57"
         y="491.89999"
         width="431.14001"
         height="447.10999"
         id="rect1499" />
    </clipPath>
    <clipPath
       id="clipPath1505">
      <rect
         x="35.57"
         y="491.89999"
         width="431.14001"
         height="447.10999"
         id="rect1503" />
    </clipPath>
    <clipPath
       id="clipPath1509">
      <rect
         x="35.57"
         y="491.89999"
         width="431.14001"
         height="447.10999"
         id="rect1507" />
    </clipPath>
    <clipPath
       id="clipPath1513">
      <rect
         x="35.57"
         y="491.89999"
         width="431.14001"
         height="447.10999"
         id="rect1511" />
    </clipPath>
    <clipPath
       id="clipPath1517">
      <rect
         x="35.57"
         y="491.89999"
         width="431.14001"
         height="447.10999"
         id="rect1515" />
    </clipPath>
    <clipPath
       id="clipPath1521">
      <rect
         x="35.57"
         y="491.89999"
         width="431.14001"
         height="447.10999"
         id="rect1519" />
    </clipPath>
    <clipPath
       id="clipPath1525">
      <rect
         x="35.57"
         y="491.89999"
         width="431.14001"
         height="447.10999"
         id="rect1523" />
    </clipPath>
    <clipPath
       id="clipPath1529">
      <rect
         x="35.57"
         y="491.89999"
         width="431.14001"
         height="447.10999"
         id="rect1527" />
    </clipPath>
    <clipPath
       id="clipPath1533">
      <rect
         x="35.57"
         y="491.89999"
         width="431.14001"
         height="447.10999"
         id="rect1531" />
    </clipPath>
    <clipPath
       id="clipPath1537">
      <rect
         x="35.57"
         y="491.89999"
         width="431.14001"
         height="447.10999"
         id="rect1535" />
    </clipPath>
    <clipPath
       id="clipPath1541">
      <rect
         x="35.57"
         y="491.89999"
         width="431.14001"
         height="447.10999"
         id="rect1539" />
    </clipPath>
    <clipPath
       id="clipPath1545">
      <rect
         x="35.57"
         y="491.89999"
         width="431.14001"
         height="447.10999"
         id="rect1543" />
    </clipPath>
    <clipPath
       id="clipPath1549">
      <rect
         x="35.57"
         y="491.89999"
         width="431.14001"
         height="447.10999"
         id="rect1547" />
    </clipPath>
    <clipPath
       id="clipPath1553">
      <rect
         x="35.57"
         y="491.89999"
         width="431.14001"
         height="447.10999"
         id="rect1551" />
    </clipPath>
    <clipPath
       id="clipPath1557">
      <rect
         x="35.57"
         y="491.89999"
         width="431.14001"
         height="447.10999"
         id="rect1555" />
    </clipPath>
    <clipPath
       id="clipPath1561">
      <rect
         x="35.57"
         y="491.89999"
         width="431.14001"
         height="447.10999"
         id="rect1559" />
    </clipPath>
    <clipPath
       id="clipPath1565">
      <rect
         x="35.57"
         y="491.89999"
         width="431.14001"
         height="447.10999"
         id="rect1563" />
    </clipPath>
    <clipPath
       id="clipPath1569">
      <rect
         x="35.57"
         y="491.89999"
         width="431.14001"
         height="447.10999"
         id="rect1567" />
    </clipPath>
    <clipPath
       id="clipPath1573">
      <rect
         x="35.57"
         y="491.89999"
         width="431.14001"
         height="447.10999"
         id="rect1571" />
    </clipPath>
    <clipPath
       id="clipPath1577">
      <rect
         x="35.57"
         y="491.89999"
         width="431.14001"
         height="447.10999"
         id="rect1575" />
    </clipPath>
    <clipPath
       id="clipPath1581">
      <rect
         x="35.57"
         y="491.89999"
         width="431.14001"
         height="447.10999"
         id="rect1579" />
    </clipPath>
    <clipPath
       id="clipPath1585">
      <rect
         x="35.57"
         y="491.89999"
         width="431.14001"
         height="447.10999"
         id="rect1583" />
    </clipPath>
    <clipPath
       id="clipPath1589">
      <rect
         x="35.57"
         y="491.89999"
         width="431.14001"
         height="447.10999"
         id="rect1587" />
    </clipPath>
    <clipPath
       id="clipPath1593">
      <rect
         x="35.57"
         y="491.89999"
         width="431.14001"
         height="447.10999"
         id="rect1591" />
    </clipPath>
    <clipPath
       id="clipPath1597">
      <rect
         x="35.57"
         y="491.89999"
         width="431.14001"
         height="447.10999"
         id="rect1595" />
    </clipPath>
    <clipPath
       id="clipPath1601">
      <rect
         x="35.57"
         y="491.89999"
         width="431.14001"
         height="447.10999"
         id="rect1599" />
    </clipPath>
    <clipPath
       id="clipPath1605">
      <rect
         x="35.57"
         y="491.89999"
         width="431.14001"
         height="447.10999"
         id="rect1603" />
    </clipPath>
    <clipPath
       id="clipPath1609">
      <rect
         x="35.57"
         y="491.89999"
         width="431.14001"
         height="447.10999"
         id="rect1607" />
    </clipPath>
    <clipPath
       id="clipPath1613">
      <rect
         x="35.57"
         y="491.89999"
         width="431.14001"
         height="447.10999"
         id="rect1611" />
    </clipPath>
    <clipPath
       id="clipPath1617">
      <rect
         x="35.57"
         y="491.89999"
         width="431.14001"
         height="447.10999"
         id="rect1615" />
    </clipPath>
  </defs>
  <defs
     id="defs9956" />
  <defs
     id="defs10213">
    <clipPath
       id="cpMC4wMHw1MDQuMDB8NTA0LjAwfDAuMDA=">
      <rect
         x="0"
         y="0"
         width="504"
         height="504"
         id="rect10210" />
    </clipPath>
  </defs>
  <defs
     id="defs10218" />
  <rect
     x="36.90731"
     y="0"
     width="178.70999"
     height="135.11"
     style="fill:#efebe9;stroke:none;stroke-width:1.31048"
     clip-path="none"
     id="rect10220" />
  <path
     id="polyline10222"
     clip-path="none"
     style="fill:none;stroke:#ffffff;stroke-width:0.5;stroke-linecap:butt;stroke-linejoin:round;stroke-miterlimit:10;stroke-dasharray:none"
     d="m 36.90731,95.915801 c 59.57,0 119.14001,0 178.71,0" />
  <path
     id="polyline10224"
     clip-path="none"
     style="fill:none;stroke:#ffffff;stroke-width:0.5;stroke-linecap:butt;stroke-linejoin:round;stroke-miterlimit:10;stroke-dasharray:none"
     d="m 36.90731,48.608271 c 59.57,0 119.14001,0 178.71,0" />
  <path
     id="polyline10226"
     clip-path="none"
     style="fill:none;stroke:#ffffff;stroke-width:1;stroke-linecap:butt;stroke-linejoin:round;stroke-miterlimit:10;stroke-dasharray:none"
     d="m 36.90731,25.040021 c 59.57,0 119.14001,0 178.71,0" />
  <path
     id="polyline10230"
     clip-path="none"
     style="fill:none;stroke:#ffffff;stroke-width:0.5;stroke-linecap:butt;stroke-linejoin:round;stroke-miterlimit:10;stroke-dasharray:none"
     d="m 99.18731,135.11001 c 0,-45.036669 0,-90.073329 0,-135.10999925293" />
  <path
     id="polyline10232"
     clip-path="none"
     style="fill:none;stroke:#ffffff;stroke-width:0.5;stroke-linecap:butt;stroke-linejoin:round;stroke-miterlimit:10;stroke-dasharray:none"
     d="m 153.33731,135.11001 c 0,-45.036669 0,-90.073329 0,-135.10999925293" />
  <path
     id="polyline10234"
     clip-path="none"
     style="fill:none;stroke:#ffffff;stroke-width:0.5;stroke-linecap:butt;stroke-linejoin:round;stroke-miterlimit:10;stroke-dasharray:none"
     d="m 207.50231,135.11001 c 0,-45.036669 0,-90.073329 0,-135.10999925293" />
  <path
     id="polyline10236"
     clip-path="none"
     style="fill:none;stroke:#ffffff;stroke-width:1;stroke-linecap:butt;stroke-linejoin:round;stroke-miterlimit:10;stroke-dasharray:none"
     d="m 36.90731,119.52001 c 59.57,0 119.14001,0 178.71,0" />
  <path
     id="polyline10238"
     clip-path="none"
     style="fill:none;stroke:#ffffff;stroke-width:1;stroke-linecap:butt;stroke-linejoin:round;stroke-miterlimit:10;stroke-dasharray:none"
     d="m 36.90731,72.351961 c 59.57,0 119.14001,0 178.71,0" />
  <path
     id="polyline10244"
     clip-path="none"
     style="fill:none;stroke:#ffffff;stroke-width:1;stroke-linecap:butt;stroke-linejoin:round;stroke-miterlimit:10;stroke-dasharray:none"
     d="m 72.11231,135.11001 c 0,-45.036669 0,-90.073329 0,-135.10999925293" />
  <path
     id="polyline10246"
     clip-path="none"
     style="fill:none;stroke:#ffffff;stroke-width:1;stroke-linecap:butt;stroke-linejoin:round;stroke-miterlimit:10;stroke-dasharray:none"
     d="m 126.26231,135.11001 c 0,-45.036669 0,-90.073329 0,-135.10999925293" />
  <path
     id="polyline10248"
     clip-path="none"
     style="fill:none;stroke:#ffffff;stroke-width:1;stroke-linecap:butt;stroke-linejoin:round;stroke-miterlimit:10;stroke-dasharray:none"
     d="m 180.41231,135.11001 c 0,-45.036669 0,-90.073329 0,-135.10999925293" />
  <defs
     id="defs10348">
    <clipPath
       id="clipPath10346">
      <rect
         x="0"
         y="0"
         width="504"
         height="504"
         id="rect10344" />
    </clipPath>
  </defs>
  <defs
     id="defs10353" />
  <defs
     id="defs10601">
    <clipPath
       id="clipPath10599">
      <rect
         x="0"
         y="0"
         width="504"
         height="504"
         id="rect10597" />
    </clipPath>
  </defs>
  <defs
     id="defs10606" />
  <defs
     id="defs10794">
    <clipPath
       id="clipPath10792">
      <rect
         x="0"
         y="0"
         width="504"
         height="504"
         id="rect10790" />
    </clipPath>
  </defs>
  <defs
     id="defs10799" />
  <defs
     id="defs10951">
    <clipPath
       id="clipPath10949">
      <rect
         x="0"
         y="0"
         width="504"
         height="504"
         id="rect10947" />
    </clipPath>
  </defs>
  <defs
     id="defs10956" />
  <defs
     id="defs11134">
    <clipPath
       id="clipPath11132">
      <rect
         x="0"
         y="0"
         width="504"
         height="504"
         id="rect11130" />
    </clipPath>
  </defs>
  <defs
     id="defs11139" />
  <defs
     id="defs11301">
    <clipPath
       id="clipPath11299">
      <rect
         x="0"
         y="0"
         width="504"
         height="504"
         id="rect11297" />
    </clipPath>
  </defs>
  <defs
     id="defs11306" />
  <defs
     id="defs11466">
    <clipPath
       id="clipPath11464">
      <rect
         x="0"
         y="0"
         width="504"
         height="504"
         id="rect11462" />
    </clipPath>
  </defs>
  <defs
     id="defs11471" />
  <defs
     id="defs11627">
    <clipPath
       id="clipPath11625">
      <rect
         x="0"
         y="0"
         width="504"
         height="504"
         id="rect11623" />
    </clipPath>
  </defs>
  <defs
     id="defs11632">
    <clipPath
       id="cpMzUuNTd8MTU0LjcxfDMzNy40MHwzMjAuNDk=">
      <rect
         x="35.57"
         y="320.48999"
         width="119.14"
         height="16.92"
         id="rect11629" />
    </clipPath>
  </defs>
  <defs
     id="defs11644">
    <clipPath
       id="clipPath11642">
      <rect
         x="0"
         y="0"
         width="504"
         height="504"
         id="rect11640" />
    </clipPath>
  </defs>
  <defs
     id="defs11649">
    <clipPath
       id="cpMTYwLjE5fDI3OS4zM3wzMzcuNDB8MzIwLjQ5">
      <rect
         x="160.19"
         y="320.48999"
         width="119.14"
         height="16.92"
         id="rect11646" />
    </clipPath>
  </defs>
  <defs
     id="defs11661">
    <clipPath
       id="clipPath11659">
      <rect
         x="0"
         y="0"
         width="504"
         height="504"
         id="rect11657" />
    </clipPath>
  </defs>
  <defs
     id="defs11666">
    <clipPath
       id="cpMjg0LjgxfDQwMy45NXwzMzcuNDB8MzIwLjQ5">
      <rect
         x="284.81"
         y="320.48999"
         width="119.14"
         height="16.92"
         id="rect11663" />
    </clipPath>
  </defs>
  <defs
     id="defs11678">
    <clipPath
       id="clipPath11676">
      <rect
         x="0"
         y="0"
         width="504"
         height="504"
         id="rect11674" />
    </clipPath>
  </defs>
  <defs
     id="defs11683">
    <clipPath
       id="cpMzUuNTd8MTU0LjcxfDE3OS45MHwxNjIuOTg=">
      <rect
         x="35.57"
         y="162.98"
         width="119.14"
         height="16.92"
         id="rect11680" />
    </clipPath>
  </defs>
  <defs
     id="defs11695">
    <clipPath
       id="clipPath11693">
      <rect
         x="0"
         y="0"
         width="504"
         height="504"
         id="rect11691" />
    </clipPath>
  </defs>
  <defs
     id="defs11700">
    <clipPath
       id="cpMTYwLjE5fDI3OS4zM3wxNzkuOTB8MTYyLjk4">
      <rect
         x="160.19"
         y="162.98"
         width="119.14"
         height="16.92"
         id="rect11697" />
    </clipPath>
  </defs>
  <defs
     id="defs11712">
    <clipPath
       id="clipPath11710">
      <rect
         x="0"
         y="0"
         width="504"
         height="504"
         id="rect11708" />
    </clipPath>
  </defs>
  <defs
     id="defs11717">
    <clipPath
       id="cpMjg0LjgxfDQwMy45NXwxNzkuOTB8MTYyLjk4">
      <rect
         x="284.81"
         y="162.98"
         width="119.14"
         height="16.92"
         id="rect11714" />
    </clipPath>
  </defs>
  <defs
     id="defs11729">
    <clipPath
       id="clipPath11727">
      <rect
         x="0"
         y="0"
         width="504"
         height="504"
         id="rect11725" />
    </clipPath>
  </defs>
  <defs
     id="defs11734">
    <clipPath
       id="cpMzUuNTd8MTU0LjcxfDIyLjQwfDUuNDg=">
      <rect
         x="35.57"
         y="5.48"
         width="119.14"
         height="16.92"
         id="rect11731" />
    </clipPath>
  </defs>
  <defs
     id="defs11746">
    <clipPath
       id="clipPath11744">
      <rect
         x="0"
         y="0"
         width="504"
         height="504"
         id="rect11742" />
    </clipPath>
  </defs>
  <defs
     id="defs11751">
    <clipPath
       id="cpMTYwLjE5fDI3OS4zM3wyMi40MHw1LjQ4">
      <rect
         x="160.19"
         y="5.48"
         width="119.14"
         height="16.92"
         id="rect11748" />
    </clipPath>
  </defs>
  <defs
     id="defs11763">
    <clipPath
       id="clipPath11761">
      <rect
         x="0"
         y="0"
         width="504"
         height="504"
         id="rect11759" />
    </clipPath>
  </defs>
  <defs
     id="defs11768">
    <clipPath
       id="cpMjg0LjgxfDQwMy45NXwyMi40MHw1LjQ4">
      <rect
         x="284.81"
         y="5.48"
         width="119.14"
         height="16.92"
         id="rect11765" />
    </clipPath>
  </defs>
  <defs
     id="defs11780">
    <clipPath
       id="clipPath11778">
      <rect
         x="0"
         y="0"
         width="504"
         height="504"
         id="rect11776" />
    </clipPath>
  </defs>
  <text
     xml:space="preserve"
     style="font-stretch:condensed;font-size:10.6667px;line-height:1.25;font-family:'Noto Sans';-inkscape-font-specification:'Noto Sans, Condensed';letter-spacing:0px;word-spacing:0px;writing-mode:lr-tb"
     x="21.503902"
     y="123.32802"
     id="text14042"><tspan
       sodipodi:role="line"
       id="tspan14040"
       x="21.503902"
       y="123.32802">0.0</tspan></text>
  <text
     xml:space="preserve"
     style="font-stretch:condensed;font-size:10.6667px;line-height:1.25;font-family:'Noto Sans';-inkscape-font-specification:'Noto Sans, Condensed';letter-spacing:0px;word-spacing:0px;writing-mode:lr-tb"
     x="21.503902"
     y="28.848022"
     id="text14046"><tspan
       sodipodi:role="line"
       id="tspan14044"
       x="21.503902"
       y="28.848022">1.0</tspan></text>
  <text
     xml:space="preserve"
     style="font-stretch:condensed;font-size:10.6667px;line-height:1.25;font-family:'Noto Sans';-inkscape-font-specification:'Noto Sans, Condensed';letter-spacing:0px;word-spacing:0px;writing-mode:lr-tb"
     x="21.546566"
     y="76.159973"
     id="text14067"><tspan
       sodipodi:role="line"
       id="tspan14065"
       x="21.546566"
       y="76.159973">0.5</tspan></text>
  <text
     xml:space="preserve"
     style="font-stretch:condensed;font-size:10.6667px;line-height:1.25;font-family:'Noto Sans';-inkscape-font-specification:'Noto Sans, Condensed';letter-spacing:0px;word-spacing:0px;writing-mode:lr-tb"
     x="64.208313"
     y="148.13377"
     id="text14071"><tspan
       sodipodi:role="line"
       id="tspan14069"
       x="64.208313"
       y="148.13377">10<tspan
   style="font-size:65%;baseline-shift:super"
   id="tspan14073">-7</tspan></tspan></text>
  <text
     xml:space="preserve"
     style="font-stretch:condensed;font-size:10.6667px;line-height:1.25;font-family:'Noto Sans';-inkscape-font-specification:'Noto Sans, Condensed';letter-spacing:0px;word-spacing:0px;writing-mode:lr-tb"
     x="118.38605"
     y="148.13377"
     id="text14071-9"><tspan
       sodipodi:role="line"
       id="tspan14069-2"
       x="118.38605"
       y="148.13377">10<tspan
   style="font-size:65%;baseline-shift:super"
   id="tspan14073-2">-5</tspan></tspan></text>
  <text
     xml:space="preserve"
     style="font-stretch:condensed;font-size:10.6667px;line-height:1.25;font-family:'Noto Sans';-inkscape-font-specification:'Noto Sans, Condensed';letter-spacing:0px;word-spacing:0px;writing-mode:lr-tb"
     x="172.54645"
     y="148.20311"
     id="text14071-8"><tspan
       sodipodi:role="line"
       id="tspan14069-9"
       x="172.54645"
       y="148.20311">10<tspan
   style="font-size:65%;baseline-shift:super"
   id="tspan14073-7">-3</tspan></tspan></text>
  <text
     xml:space="preserve"
     style="font-style:normal;font-variant:normal;font-weight:normal;font-stretch:condensed;font-size:13.3333px;line-height:1.25;font-family:'Noto Sans';-inkscape-font-specification:'Noto Sans, Condensed';font-variant-ligatures:normal;font-variant-caps:normal;font-variant-numeric:normal;font-variant-east-asian:normal;letter-spacing:0px;word-spacing:0px;writing-mode:lr-tb"
     x="89.782501"
     y="162.56425"
     id="text14169"><tspan
       sodipodi:role="line"
       id="tspan14167"
       x="89.782501"
       y="162.56425">[TNP-ATP] (M)</tspan></text>
  <text
     xml:space="preserve"
     style="font-style:normal;font-variant:normal;font-weight:normal;font-stretch:condensed;font-size:13.3333px;line-height:1.25;font-family:'Noto Sans';-inkscape-font-specification:'Noto Sans, Condensed';font-variant-ligatures:normal;font-variant-caps:normal;font-variant-numeric:normal;font-variant-east-asian:normal;letter-spacing:0px;word-spacing:0px;writing-mode:lr-tb"
     x="-83.221275"
     y="9.5466423"
     id="text14219"
     transform="rotate(-90)"><tspan
       sodipodi:role="line"
       id="tspan14217"
       x="-83.221275"
       y="9.5466423">F/F<tspan
   style="font-size:65%;baseline-shift:sub"
   id="tspan14223">max</tspan></tspan></text>
  <polyline
     points="55.17,105.28 63.01,105.29 70.85,105.30 78.69,105.32 86.53,105.34 94.36,105.36 102.20,105.40 110.04,105.44 117.88,105.50 125.72,105.58 133.56,105.68 141.40,105.82 149.24,106.00 157.08,106.24 164.91,106.55 172.75,106.97 180.59,107.51 188.43,108.22 196.27,109.16 204.11,110.39 211.95,112.00 219.79,114.09 227.63,116.83 235.46,120.41 243.30,125.02 251.14,130.97 258.98,138.40 266.82,147.75 274.66,159.50 282.50,173.39 290.34,189.69 298.18,208.00 306.01,228.22 313.85,249.80 321.69,271.63 329.53,292.96 337.37,313.10 345.21,331.43 353.05,347.63 360.89,361.59 368.73,373.27 376.56,382.85 384.40,390.58 392.24,396.73 400.08,401.58 407.92,405.36 415.76,408.30 423.60,410.57 431.44,412.31 439.28,413.64 447.11,414.66 "
     style="stroke:#1e88e5;stroke-width:2.82562;stroke-linecap:butt;stroke-miterlimit:10;stroke-dasharray:2.82562, 2.82562;stroke-dashoffset:0"
     clip-path="url(#cpMzUuNTd8NDY2LjcxfDQ2OS41MHwyMi40MA==)"
     id="polyline12905"
     transform="matrix(0.41450571,0,0,0.30216279,22.163342,-6.8270293)" />
  <polyline
     points="447.11,416.11 439.28,415.54 431.44,414.80 423.60,413.82 415.76,412.54 407.92,410.86 400.08,408.68 392.24,405.86 384.40,402.22 376.56,397.54 368.73,391.61 360.89,384.13 353.05,374.86 345.21,363.53 337.37,349.97 329.53,334.11 321.69,316.06 313.85,295.98 306.01,274.77 298.18,253.01 290.34,231.51 282.50,211.15 274.66,192.41 266.82,175.94 258.98,161.79 251.14,149.93 243.30,140.26 235.46,132.49 227.63,126.32 219.79,121.48 211.95,117.70 204.11,114.79 196.27,112.52 188.43,110.79 180.59,109.47 172.75,108.46 164.91,107.69 157.08,107.11 149.24,106.66 141.40,106.32 133.56,106.06 125.72,105.87 117.88,105.72 110.04,105.61 102.20,105.52 94.36,105.46 86.53,105.41 78.69,105.37 70.85,105.34 63.01,105.32 55.17,105.30 "
     style="stroke:#1e88e5;stroke-width:2.82562;stroke-linecap:butt;stroke-miterlimit:10;stroke-dasharray:2.82562, 2.82562;stroke-dashoffset:0"
     clip-path="url(#cpMzUuNTd8NDY2LjcxfDQ2OS41MHwyMi40MA==)"
     id="polyline12907"
     transform="matrix(0.41450571,0,0,0.30216279,22.163342,-6.8270293)" />
  <circle
     cx="381.79001"
     cy="943.03003"
     r="3.5599999"
     style="fill:#b3cde3;stroke-width:0.5;stroke-miterlimit:10;stroke-dasharray:none"
     clip-path="url(#cpMzUuNTd8NDY2LjcxfDkzOS4wMXw0OTEuOTA=)"
     id="circle13231"
     transform="translate(-248.36464,364.40262)" />
  <polygon
     points="204.11,576.54 211.95,577.1 219.79,577.84 227.63,578.81 235.46,580.1 243.3,581.79 251.14,584 258.98,586.95 266.82,590.76 274.66,595.87 282.5,602.35 290.34,611.08 298.18,622.76 306.01,636.88 313.85,655.01 321.69,675.4 329.53,699.05 337.37,725.23 345.21,751.19 353.05,774.93 360.89,796.6 368.73,814.5 376.56,830.13 384.4,842.87 392.24,852.88 400.08,860.75 407.92,866.9 415.76,871.8 423.6,875.46 431.44,878.33 439.28,880.49 447.11,882.15 447.11,886.63 439.28,886.38 431.44,886.05 423.6,885.61 415.76,885.03 407.92,884.28 400.08,883.28 392.24,881.97 384.4,880.26 376.56,878 368.73,875.06 360.89,871.28 353.05,866.49 345.21,860.32 337.37,852.52 329.53,842.02 321.69,828.77 313.85,813.36 306.01,794.98 298.18,773.95 290.34,752 282.5,729.41 274.66,707.36 266.82,685.4 258.98,664.46 251.14,647.67 243.3,633.12 235.46,621.11 227.63,611.08 219.79,602.93 211.95,596.42 204.11,591.47 196.27,587.47 188.43,584.45 180.59,582.14 172.75,580.37 164.91,579.04 157.08,578.01 149.24,577.23 141.4,576.64 133.56,576.19 125.72,575.84 117.88,575.58 110.04,575.38 102.2,575.23 94.36,575.11 86.53,575.03 78.69,574.96 70.85,574.91 63.01,574.87 55.17,574.85 55.17,574.77 63.01,574.77 70.85,574.77 78.69,574.78 86.53,574.78 94.36,574.79 102.2,574.81 110.04,574.82 117.88,574.84 125.72,574.87 133.56,574.9 141.4,574.95 149.24,575.01 157.08,575.1 164.91,575.2 172.75,575.35 180.59,575.53 188.43,575.78 196.27,576.11 "
     style="fill:#1e88e5;fill-opacity:0.5;stroke:none;stroke-width:0"
     clip-path="url(#cpMzUuNTd8NDY2LjcxfDkzOS4wMXw0OTEuOTA=)"
     id="polygon13165"
     transform="matrix(0.4145057,0,0,0.30218513,22.163343,-148.64487)" />
  <polyline
     points="55.17,574.77 63.01,574.77 70.85,574.77 78.69,574.78 86.53,574.78 94.36,574.79 102.20,574.81 110.04,574.82 117.88,574.84 125.72,574.87 133.56,574.90 141.40,574.95 149.24,575.01 157.08,575.10 164.91,575.20 172.75,575.35 180.59,575.53 188.43,575.78 196.27,576.11 204.11,576.54 211.95,577.10 219.79,577.84 227.63,578.81 235.46,580.10 243.30,581.79 251.14,584.00 258.98,586.95 266.82,590.76 274.66,595.87 282.50,602.35 290.34,611.08 298.18,622.76 306.01,636.88 313.85,655.01 321.69,675.40 329.53,699.05 337.37,725.23 345.21,751.19 353.05,774.93 360.89,796.60 368.73,814.50 376.56,830.13 384.40,842.87 392.24,852.88 400.08,860.75 407.92,866.90 415.76,871.80 423.60,875.46 431.44,878.33 439.28,880.49 447.11,882.15 "
     style="stroke:#1e88e5;stroke-width:1.41276;stroke-miterlimit:10;stroke-dasharray:none"
     clip-path="url(#cpMzUuNTd8NDY2LjcxfDkzOS4wMXw0OTEuOTA=)"
     id="polyline13167"
     transform="matrix(0.4145057,0,0,0.30218513,22.163343,-148.64487)" />
  <polyline
     points="447.11,886.63 439.28,886.38 431.44,886.05 423.60,885.61 415.76,885.03 407.92,884.28 400.08,883.28 392.24,881.97 384.40,880.26 376.56,878.00 368.73,875.06 360.89,871.28 353.05,866.49 345.21,860.32 337.37,852.52 329.53,842.02 321.69,828.77 313.85,813.36 306.01,794.98 298.18,773.95 290.34,752.00 282.50,729.41 274.66,707.36 266.82,685.40 258.98,664.46 251.14,647.67 243.30,633.12 235.46,621.11 227.63,611.08 219.79,602.93 211.95,596.42 204.11,591.47 196.27,587.47 188.43,584.45 180.59,582.14 172.75,580.37 164.91,579.04 157.08,578.01 149.24,577.23 141.40,576.64 133.56,576.19 125.72,575.84 117.88,575.58 110.04,575.38 102.20,575.23 94.36,575.11 86.53,575.03 78.69,574.96 70.85,574.91 63.01,574.87 55.17,574.85 "
     style="stroke:#1e88e5;stroke-width:1.41276;stroke-miterlimit:10;stroke-dasharray:none"
     clip-path="url(#cpMzUuNTd8NDY2LjcxfDkzOS4wMXw0OTEuOTA=)"
     id="polyline13169"
     transform="matrix(0.4145057,0,0,0.30218513,22.163343,-148.64487)" />
  <circle
     cx="187.24001"
     cy="550.29999"
     r="3.5599999"
     style="fill:#1e88e5;stroke-width:0.647708;stroke-miterlimit:10;stroke-dasharray:none"
     clip-path="url(#cpMzUuNTd8NDY2LjcxfDkzOS4wMXw0OTEuOTA=)"
     id="circle13211"
     transform="matrix(0.77195251,0,0,0.77195231,-44.764997,-407.15774)" />
  <circle
     cx="255.39"
     cy="581.42999"
     r="3.5599999"
     style="fill:#1e88e5;stroke-width:0.647708;stroke-miterlimit:10;stroke-dasharray:none"
     clip-path="url(#cpMzUuNTd8NDY2LjcxfDkzOS4wMXw0OTEuOTA=)"
     id="circle13213"
     transform="matrix(0.77195251,0,0,0.77195231,-69.124998,-421.78159)" />
  <circle
     cx="313.45001"
     cy="704.27002"
     r="3.5599999"
     style="fill:#1e88e5;stroke-width:0.647708;stroke-miterlimit:10;stroke-dasharray:none"
     clip-path="url(#cpMzUuNTd8NDY2LjcxfDkzOS4wMXw0OTEuOTA=)"
     id="circle13215"
     transform="matrix(0.77195251,0,0,0.77195231,-89.878361,-479.4878)" />
  <circle
     cx="376.92001"
     cy="883.56"
     r="3.5599999"
     style="fill:#1e88e5;stroke-width:0.647708;stroke-miterlimit:10;stroke-dasharray:none"
     clip-path="url(#cpMzUuNTd8NDY2LjcxfDkzOS4wMXw0OTEuOTA=)"
     id="circle13217"
     transform="matrix(0.77195251,0,0,0.77195231,-112.56551,-563.71234)" />
  <circle
     cx="181.56"
     cy="554.76001"
     r="3.5599999"
     style="fill:#1e88e5;stroke-width:0.647708;stroke-miterlimit:10;stroke-dasharray:none"
     clip-path="url(#cpMzUuNTd8NDY2LjcxfDkzOS4wMXw0OTEuOTA=)"
     id="circle13219"
     transform="matrix(0.77195251,0,0,0.77195231,-42.734698,-409.2529)" />
  <circle
     cx="252.42999"
     cy="623.84003"
     r="3.5599999"
     style="fill:#1e88e5;stroke-width:0.647708;stroke-miterlimit:10;stroke-dasharray:none"
     clip-path="url(#cpMzUuNTd8NDY2LjcxfDkzOS4wMXw0OTEuOTA=)"
     id="circle13221"
     transform="matrix(0.77195251,0,0,0.77195231,-68.06695,-441.70442)" />
  <circle
     cx="317.48999"
     cy="762.03003"
     r="3.5599999"
     style="fill:#1e88e5;stroke-width:0.647708;stroke-miterlimit:10;stroke-dasharray:none"
     clip-path="url(#cpMzUuNTd8NDY2LjcxfDkzOS4wMXw0OTEuOTA=)"
     id="circle13223"
     transform="matrix(0.77195251,0,0,0.77195231,-91.322436,-506.62157)" />
  <circle
     cx="385"
     cy="888.71997"
     r="3.5599999"
     style="fill:#1e88e5;stroke-width:0.647708;stroke-miterlimit:10;stroke-dasharray:none"
     clip-path="url(#cpMzUuNTd8NDY2LjcxfDkzOS4wMXw0OTEuOTA=)"
     id="circle13225"
     transform="matrix(0.77195251,0,0,0.77195231,-115.45368,-566.13631)" />
  <circle
     cx="251.14"
     cy="702.83002"
     r="3.5599999"
     style="fill:#1e88e5;stroke-width:0.647708;stroke-miterlimit:10;stroke-dasharray:none"
     clip-path="url(#cpMzUuNTd8NDY2LjcxfDkzOS4wMXw0OTEuOTA=)"
     id="circle13227"
     transform="matrix(0.77195251,0,0,0.77195231,-67.605849,-478.81135)" />
  <circle
     cx="316.47"
     cy="860.27002"
     r="3.5599999"
     style="fill:#1e88e5;stroke-width:0.647708;stroke-miterlimit:10;stroke-dasharray:none"
     clip-path="url(#cpMzUuNTd8NDY2LjcxfDkzOS4wMXw0OTEuOTA=)"
     id="circle13229"
     transform="matrix(0.77195251,0,0,0.77195231,-90.957846,-552.77148)" />
  <circle
     cx="185.82001"
     cy="606.17999"
     r="3.5599999"
     style="fill:#1e88e5;stroke-width:0.647708;stroke-miterlimit:10;stroke-dasharray:none"
     clip-path="url(#cpMzUuNTd8NDY2LjcxfDkzOS4wMXw0OTEuOTA=)"
     id="circle13233"
     transform="matrix(0.77195251,0,0,0.77195231,-44.257428,-433.40832)" />
  <circle
     cx="249.86"
     cy="623.91998"
     r="3.5599999"
     style="fill:#1e88e5;stroke-width:0.647708;stroke-miterlimit:10;stroke-dasharray:none"
     clip-path="url(#cpMzUuNTd8NDY2LjcxfDkzOS4wMXw0OTEuOTA=)"
     id="circle13235"
     transform="matrix(0.77195251,0,0,0.77195231,-67.148315,-441.74199)" />
  <circle
     cx="315.39001"
     cy="811.76001"
     r="3.5599999"
     style="fill:#1e88e5;stroke-width:0.647708;stroke-miterlimit:10;stroke-dasharray:none"
     clip-path="url(#cpMzUuNTd8NDY2LjcxfDkzOS4wMXw0OTEuOTA=)"
     id="circle13237"
     transform="matrix(0.77195251,0,0,0.77195231,-90.571807,-529.98305)" />
  <circle
     cx="379.01999"
     cy="915.75"
     r="3.5599999"
     style="fill:#1e88e5;stroke-width:0.647708;stroke-miterlimit:10;stroke-dasharray:none"
     clip-path="url(#cpMzUuNTd8NDY2LjcxfDkzOS4wMXw0OTEuOTA=)"
     id="circle13239"
     transform="matrix(0.77195251,0,0,0.77195231,-113.31612,-578.83415)" />
  <circle
     cx="385.54999"
     cy="799.34998"
     r="3.5599999"
     style="fill:#1e88e5;stroke-width:0.647708;stroke-miterlimit:10;stroke-dasharray:none"
     clip-path="url(#cpMzUuNTd8NDY2LjcxfDkzOS4wMXw0OTEuOTA=)"
     id="circle13241"
     transform="matrix(0.77195251,0,0,0.77195231,-115.65027,-524.15324)" />
  <circle
     cx="317.64999"
     cy="687.81"
     r="3.5599999"
     style="fill:#1e88e5;stroke-width:0.647708;stroke-miterlimit:10;stroke-dasharray:none"
     clip-path="url(#cpMzUuNTd8NDY2LjcxfDkzOS4wMXw0OTEuOTA=)"
     id="circle13243"
     transform="matrix(0.77195251,0,0,0.77195231,-91.37963,-471.7554)" />
  <circle
     cx="251.74001"
     cy="599.41998"
     r="3.5599999"
     style="fill:#1e88e5;stroke-width:0.647708;stroke-miterlimit:10;stroke-dasharray:none"
     clip-path="url(#cpMzUuNTd8NDY2LjcxfDkzOS4wMXw0OTEuOTA=)"
     id="circle13245"
     transform="matrix(0.77195251,0,0,0.77195231,-67.820316,-430.23268)" />
  <circle
     cx="383.38"
     cy="849.92999"
     r="3.5599999"
     style="fill:#1e88e5;stroke-width:0.647708;stroke-miterlimit:10;stroke-dasharray:none"
     clip-path="url(#cpMzUuNTd8NDY2LjcxfDkzOS4wMXw0OTEuOTA=)"
     id="circle13247"
     transform="matrix(0.77195251,0,0,0.77195231,-114.8746,-547.91407)" />
  <circle
     cx="315.29001"
     cy="675.64001"
     r="3.5599999"
     style="fill:#1e88e5;stroke-width:0.647708;stroke-miterlimit:10;stroke-dasharray:none"
     clip-path="url(#cpMzUuNTd8NDY2LjcxfDkzOS4wMXw0OTEuOTA=)"
     id="circle13249"
     transform="matrix(0.77195251,0,0,0.77195231,-90.536062,-466.03836)" />
  <circle
     cx="249.53"
     cy="608.45001"
     r="3.5599999"
     style="fill:#1e88e5;stroke-width:0.647708;stroke-miterlimit:10;stroke-dasharray:none"
     clip-path="url(#cpMzUuNTd8NDY2LjcxfDkzOS4wMXw0OTEuOTA=)"
     id="circle13251"
     transform="matrix(0.77195251,0,0,0.77195231,-67.030358,-434.47469)" />
</svg>
