<?xml version="1.0" encoding="UTF-8" standalone="no"?>
<svg
   xmlns:dc="http://purl.org/dc/elements/1.1/"
   xmlns:cc="http://creativecommons.org/ns#"
   xmlns:rdf="http://www.w3.org/1999/02/22-rdf-syntax-ns#"
   xmlns:svg="http://www.w3.org/2000/svg"
   xmlns="http://www.w3.org/2000/svg"
   xmlns:sodipodi="http://sodipodi.sourceforge.net/DTD/sodipodi-0.dtd"
   xmlns:inkscape="http://www.inkscape.org/namespaces/inkscape"
   viewBox="0 0 215.61729 164.69759"
   version="1.1"
   id="svg11942"
   sodipodi:docname="mwc_c166s_3.svg"
   width="215.61729"
   height="164.69759"
   inkscape:version="1.0.1 (3bc2e813f5, 2020-09-07, custom)">
  <metadata
     id="metadata11946">
    <rdf:RDF>
      <cc:Work
         rdf:about="">
        <dc:format>image/svg+xml</dc:format>
        <dc:type
           rdf:resource="http://purl.org/dc/dcmitype/StillImage" />
        <dc:title></dc:title>
      </cc:Work>
    </rdf:RDF>
  </metadata>
  <sodipodi:namedview
     pagecolor="#ffffff"
     bordercolor="#666666"
     borderopacity="1"
     objecttolerance="10"
     gridtolerance="10"
     guidetolerance="10"
     inkscape:pageopacity="0"
     inkscape:pageshadow="2"
     inkscape:window-width="1366"
     inkscape:window-height="768"
     id="namedview11944"
     showgrid="false"
     inkscape:zoom="1"
     inkscape:cx="-7.9915326"
     inkscape:cy="45.512397"
     inkscape:window-x="0"
     inkscape:window-y="0"
     inkscape:window-maximized="1"
     inkscape:current-layer="svg11942"
     inkscape:document-rotation="0" />
  <defs
     id="defs9947">
    <style
       type="text/css"
       id="style9945"><![CDATA[
    line, polyline, polygon, path, rect, circle {
      fill: none;
      stroke: #000000;
      stroke-linecap: round;
      stroke-linejoin: round;
      stroke-miterlimit: 10.00;
    }
  ]]></style>
    <style
       type="text/css"
       id="style12854"><![CDATA[
    line, polyline, polygon, path, rect, circle {
      fill: none;
      stroke: #000000;
      stroke-linecap: round;
      stroke-linejoin: round;
      stroke-miterlimit: 10.00;
    }
  ]]></style>
    <clipPath
       id="cpMzUuNTd8NDY2LjcxfDQ2OS41MHwyMi40MA==">
      <rect
         x="35.57"
         y="22.4"
         width="431.14001"
         height="447.10999"
         id="rect12862" />
    </clipPath>
    <clipPath
       id="cpMC4wMHwxNDQwLjAwfDE0NDAuMDB8MC4wMA==">
      <rect
         x="0"
         y="0"
         width="1440"
         height="1440"
         id="rect13119" />
    </clipPath>
    <clipPath
       id="cpMzUuNTd8NDY2LjcxfDkzOS4wMXw0OTEuOTA=">
      <rect
         x="35.57"
         y="491.89999"
         width="431.14001"
         height="447.10999"
         id="rect13124" />
    </clipPath>
    <clipPath
       id="clipPath13255">
      <rect
         x="0"
         y="0"
         width="1440"
         height="1440"
         id="rect13253" />
    </clipPath>
    <clipPath
       id="cpMzUuNTd8NDY2LjcxfDE0MDguNTF8OTYxLjQw">
      <rect
         x="35.57"
         y="961.40002"
         width="431.14001"
         height="447.10999"
         id="rect13259" />
    </clipPath>
    <clipPath
       id="clipPath13508">
      <rect
         x="0"
         y="0"
         width="1440"
         height="1440"
         id="rect13506" />
    </clipPath>
    <clipPath
       id="cpNDcyLjE5fDkwMy4zM3w0NjkuNTB8MjIuNDA=">
      <rect
         x="472.19"
         y="22.4"
         width="431.14001"
         height="447.10999"
         id="rect13512" />
    </clipPath>
    <clipPath
       id="clipPath13701">
      <rect
         x="0"
         y="0"
         width="1440"
         height="1440"
         id="rect13699" />
    </clipPath>
    <clipPath
       id="cpNDcyLjE5fDkwMy4zM3w5MzkuMDF8NDkxLjkw">
      <rect
         x="472.19"
         y="491.89999"
         width="431.14001"
         height="447.10999"
         id="rect13705" />
    </clipPath>
    <clipPath
       id="clipPath13858">
      <rect
         x="0"
         y="0"
         width="1440"
         height="1440"
         id="rect13856" />
    </clipPath>
    <clipPath
       id="cpNDcyLjE5fDkwMy4zM3wxNDA4LjUxfDk2MS40MA==">
      <rect
         x="472.19"
         y="961.40002"
         width="431.14001"
         height="447.10999"
         id="rect13862" />
    </clipPath>
    <clipPath
       id="clipPath14041">
      <rect
         x="0"
         y="0"
         width="1440"
         height="1440"
         id="rect14039" />
    </clipPath>
    <clipPath
       id="cpOTA4LjgxfDEzMzkuOTV8NDY5LjUwfDIyLjQw">
      <rect
         x="908.81"
         y="22.4"
         width="431.14001"
         height="447.10999"
         id="rect14045" />
    </clipPath>
    <clipPath
       id="clipPath14208">
      <rect
         x="0"
         y="0"
         width="1440"
         height="1440"
         id="rect14206" />
    </clipPath>
    <clipPath
       id="cpOTA4LjgxfDEzMzkuOTV8OTM5LjAxfDQ5MS45MA==">
      <rect
         x="908.81"
         y="491.89999"
         width="431.14001"
         height="447.10999"
         id="rect14212" />
    </clipPath>
    <clipPath
       id="clipPath14373">
      <rect
         x="0"
         y="0"
         width="1440"
         height="1440"
         id="rect14371" />
    </clipPath>
    <clipPath
       id="cpOTA4LjgxfDEzMzkuOTV8MTQwOC41MXw5NjEuNDA=">
      <rect
         x="908.81"
         y="961.40002"
         width="431.14001"
         height="447.10999"
         id="rect14377" />
    </clipPath>
    <clipPath
       id="clipPath14534">
      <rect
         x="0"
         y="0"
         width="1440"
         height="1440"
         id="rect14532" />
    </clipPath>
    <clipPath
       id="cpMzUuNTd8NDY2LjcxfDk2MS40MHw5NDQuNDk=">
      <rect
         x="35.57"
         y="944.48999"
         width="431.14001"
         height="16.92"
         id="rect14538" />
    </clipPath>
    <clipPath
       id="clipPath14551">
      <rect
         x="0"
         y="0"
         width="1440"
         height="1440"
         id="rect14549" />
    </clipPath>
    <clipPath
       id="cpNDcyLjE5fDkwMy4zM3w5NjEuNDB8OTQ0LjQ5">
      <rect
         x="472.19"
         y="944.48999"
         width="431.14001"
         height="16.92"
         id="rect14555" />
    </clipPath>
    <clipPath
       id="clipPath14568">
      <rect
         x="0"
         y="0"
         width="1440"
         height="1440"
         id="rect14566" />
    </clipPath>
    <clipPath
       id="cpOTA4LjgxfDEzMzkuOTV8OTYxLjQwfDk0NC40OQ==">
      <rect
         x="908.81"
         y="944.48999"
         width="431.14001"
         height="16.92"
         id="rect14572" />
    </clipPath>
    <clipPath
       id="clipPath14585">
      <rect
         x="0"
         y="0"
         width="1440"
         height="1440"
         id="rect14583" />
    </clipPath>
    <clipPath
       id="cpMzUuNTd8NDY2LjcxfDQ5MS45MHw0NzQuOTg=">
      <rect
         x="35.57"
         y="474.98001"
         width="431.14001"
         height="16.92"
         id="rect14589" />
    </clipPath>
    <clipPath
       id="clipPath14602">
      <rect
         x="0"
         y="0"
         width="1440"
         height="1440"
         id="rect14600" />
    </clipPath>
    <clipPath
       id="cpNDcyLjE5fDkwMy4zM3w0OTEuOTB8NDc0Ljk4">
      <rect
         x="472.19"
         y="474.98001"
         width="431.14001"
         height="16.92"
         id="rect14606" />
    </clipPath>
    <clipPath
       id="clipPath14619">
      <rect
         x="0"
         y="0"
         width="1440"
         height="1440"
         id="rect14617" />
    </clipPath>
    <clipPath
       id="cpOTA4LjgxfDEzMzkuOTV8NDkxLjkwfDQ3NC45OA==">
      <rect
         x="908.81"
         y="474.98001"
         width="431.14001"
         height="16.92"
         id="rect14623" />
    </clipPath>
    <clipPath
       id="clipPath14636">
      <rect
         x="0"
         y="0"
         width="1440"
         height="1440"
         id="rect14634" />
    </clipPath>
    <clipPath
       id="cpMzUuNTd8NDY2LjcxfDIyLjQwfDUuNDg=">
      <rect
         x="35.57"
         y="5.48"
         width="431.14001"
         height="16.92"
         id="rect14640" />
    </clipPath>
    <clipPath
       id="clipPath14653">
      <rect
         x="0"
         y="0"
         width="1440"
         height="1440"
         id="rect14651" />
    </clipPath>
    <clipPath
       id="cpNDcyLjE5fDkwMy4zM3wyMi40MHw1LjQ4">
      <rect
         x="472.19"
         y="5.48"
         width="431.14001"
         height="16.92"
         id="rect14657" />
    </clipPath>
    <clipPath
       id="clipPath14670">
      <rect
         x="0"
         y="0"
         width="1440"
         height="1440"
         id="rect14668" />
    </clipPath>
    <clipPath
       id="cpOTA4LjgxfDEzMzkuOTV8MjIuNDB8NS40OA==">
      <rect
         x="908.81"
         y="5.48"
         width="431.14001"
         height="16.92"
         id="rect14674" />
    </clipPath>
    <clipPath
       id="clipPath14687">
      <rect
         x="0"
         y="0"
         width="1440"
         height="1440"
         id="rect14685" />
    </clipPath>
    <clipPath
       id="cpMzUuNTd8NDY2LjcxfDQ2OS41MHwyMi40MA==-3">
      <rect
         x="35.57"
         y="22.4"
         width="431.14001"
         height="447.10999"
         id="rect12862-6" />
    </clipPath>
    <clipPath
       id="clipPath1427">
      <rect
         x="35.57"
         y="22.4"
         width="431.14001"
         height="447.10999"
         id="rect1425" />
    </clipPath>
    <clipPath
       id="clipPath1431">
      <rect
         x="35.57"
         y="22.4"
         width="431.14001"
         height="447.10999"
         id="rect1429" />
    </clipPath>
    <clipPath
       id="clipPath1435">
      <rect
         x="35.57"
         y="22.4"
         width="431.14001"
         height="447.10999"
         id="rect1433" />
    </clipPath>
    <clipPath
       id="cpMzUuNTd8NDY2LjcxfDkzOS4wMXw0OTEuOTA=-7">
      <rect
         x="35.57"
         y="491.89999"
         width="431.14001"
         height="447.10999"
         id="rect13124-5" />
    </clipPath>
    <clipPath
       id="clipPath1441">
      <rect
         x="35.57"
         y="491.89999"
         width="431.14001"
         height="447.10999"
         id="rect1439" />
    </clipPath>
    <clipPath
       id="clipPath1445">
      <rect
         x="35.57"
         y="491.89999"
         width="431.14001"
         height="447.10999"
         id="rect1443" />
    </clipPath>
    <clipPath
       id="clipPath1449">
      <rect
         x="35.57"
         y="491.89999"
         width="431.14001"
         height="447.10999"
         id="rect1447" />
    </clipPath>
    <clipPath
       id="clipPath1453">
      <rect
         x="35.57"
         y="491.89999"
         width="431.14001"
         height="447.10999"
         id="rect1451" />
    </clipPath>
    <clipPath
       id="clipPath1457">
      <rect
         x="35.57"
         y="491.89999"
         width="431.14001"
         height="447.10999"
         id="rect1455" />
    </clipPath>
    <clipPath
       id="clipPath1461">
      <rect
         x="35.57"
         y="491.89999"
         width="431.14001"
         height="447.10999"
         id="rect1459" />
    </clipPath>
    <clipPath
       id="clipPath1465">
      <rect
         x="35.57"
         y="491.89999"
         width="431.14001"
         height="447.10999"
         id="rect1463" />
    </clipPath>
    <clipPath
       id="clipPath1469">
      <rect
         x="35.57"
         y="491.89999"
         width="431.14001"
         height="447.10999"
         id="rect1467" />
    </clipPath>
    <clipPath
       id="clipPath1473">
      <rect
         x="35.57"
         y="491.89999"
         width="431.14001"
         height="447.10999"
         id="rect1471" />
    </clipPath>
    <clipPath
       id="clipPath1477">
      <rect
         x="35.57"
         y="491.89999"
         width="431.14001"
         height="447.10999"
         id="rect1475" />
    </clipPath>
    <clipPath
       id="clipPath1481">
      <rect
         x="35.57"
         y="491.89999"
         width="431.14001"
         height="447.10999"
         id="rect1479" />
    </clipPath>
    <clipPath
       id="clipPath1485">
      <rect
         x="35.57"
         y="491.89999"
         width="431.14001"
         height="447.10999"
         id="rect1483" />
    </clipPath>
    <clipPath
       id="clipPath1489">
      <rect
         x="35.57"
         y="491.89999"
         width="431.14001"
         height="447.10999"
         id="rect1487" />
    </clipPath>
    <clipPath
       id="clipPath1493">
      <rect
         x="35.57"
         y="491.89999"
         width="431.14001"
         height="447.10999"
         id="rect1491" />
    </clipPath>
    <clipPath
       id="clipPath1497">
      <rect
         x="35.57"
         y="491.89999"
         width="431.14001"
         height="447.10999"
         id="rect1495" />
    </clipPath>
    <clipPath
       id="clipPath1501">
      <rect
         x="35.57"
         y="491.89999"
         width="431.14001"
         height="447.10999"
         id="rect1499" />
    </clipPath>
    <clipPath
       id="clipPath1505">
      <rect
         x="35.57"
         y="491.89999"
         width="431.14001"
         height="447.10999"
         id="rect1503" />
    </clipPath>
    <clipPath
       id="clipPath1509">
      <rect
         x="35.57"
         y="491.89999"
         width="431.14001"
         height="447.10999"
         id="rect1507" />
    </clipPath>
    <clipPath
       id="clipPath1513">
      <rect
         x="35.57"
         y="491.89999"
         width="431.14001"
         height="447.10999"
         id="rect1511" />
    </clipPath>
    <clipPath
       id="clipPath1517">
      <rect
         x="35.57"
         y="491.89999"
         width="431.14001"
         height="447.10999"
         id="rect1515" />
    </clipPath>
    <clipPath
       id="clipPath1521">
      <rect
         x="35.57"
         y="491.89999"
         width="431.14001"
         height="447.10999"
         id="rect1519" />
    </clipPath>
    <clipPath
       id="clipPath1525">
      <rect
         x="35.57"
         y="491.89999"
         width="431.14001"
         height="447.10999"
         id="rect1523" />
    </clipPath>
    <clipPath
       id="clipPath1529">
      <rect
         x="35.57"
         y="491.89999"
         width="431.14001"
         height="447.10999"
         id="rect1527" />
    </clipPath>
    <clipPath
       id="clipPath1533">
      <rect
         x="35.57"
         y="491.89999"
         width="431.14001"
         height="447.10999"
         id="rect1531" />
    </clipPath>
    <clipPath
       id="clipPath1537">
      <rect
         x="35.57"
         y="491.89999"
         width="431.14001"
         height="447.10999"
         id="rect1535" />
    </clipPath>
    <clipPath
       id="clipPath1541">
      <rect
         x="35.57"
         y="491.89999"
         width="431.14001"
         height="447.10999"
         id="rect1539" />
    </clipPath>
    <clipPath
       id="clipPath1545">
      <rect
         x="35.57"
         y="491.89999"
         width="431.14001"
         height="447.10999"
         id="rect1543" />
    </clipPath>
    <clipPath
       id="clipPath1549">
      <rect
         x="35.57"
         y="491.89999"
         width="431.14001"
         height="447.10999"
         id="rect1547" />
    </clipPath>
    <clipPath
       id="clipPath1553">
      <rect
         x="35.57"
         y="491.89999"
         width="431.14001"
         height="447.10999"
         id="rect1551" />
    </clipPath>
    <clipPath
       id="clipPath1557">
      <rect
         x="35.57"
         y="491.89999"
         width="431.14001"
         height="447.10999"
         id="rect1555" />
    </clipPath>
    <clipPath
       id="clipPath1561">
      <rect
         x="35.57"
         y="491.89999"
         width="431.14001"
         height="447.10999"
         id="rect1559" />
    </clipPath>
    <clipPath
       id="clipPath1565">
      <rect
         x="35.57"
         y="491.89999"
         width="431.14001"
         height="447.10999"
         id="rect1563" />
    </clipPath>
    <clipPath
       id="clipPath1569">
      <rect
         x="35.57"
         y="491.89999"
         width="431.14001"
         height="447.10999"
         id="rect1567" />
    </clipPath>
    <clipPath
       id="clipPath1573">
      <rect
         x="35.57"
         y="491.89999"
         width="431.14001"
         height="447.10999"
         id="rect1571" />
    </clipPath>
    <clipPath
       id="clipPath1577">
      <rect
         x="35.57"
         y="491.89999"
         width="431.14001"
         height="447.10999"
         id="rect1575" />
    </clipPath>
    <clipPath
       id="clipPath1581">
      <rect
         x="35.57"
         y="491.89999"
         width="431.14001"
         height="447.10999"
         id="rect1579" />
    </clipPath>
    <clipPath
       id="clipPath1585">
      <rect
         x="35.57"
         y="491.89999"
         width="431.14001"
         height="447.10999"
         id="rect1583" />
    </clipPath>
    <clipPath
       id="clipPath1589">
      <rect
         x="35.57"
         y="491.89999"
         width="431.14001"
         height="447.10999"
         id="rect1587" />
    </clipPath>
    <clipPath
       id="clipPath1593">
      <rect
         x="35.57"
         y="491.89999"
         width="431.14001"
         height="447.10999"
         id="rect1591" />
    </clipPath>
    <clipPath
       id="clipPath1597">
      <rect
         x="35.57"
         y="491.89999"
         width="431.14001"
         height="447.10999"
         id="rect1595" />
    </clipPath>
    <clipPath
       id="clipPath1601">
      <rect
         x="35.57"
         y="491.89999"
         width="431.14001"
         height="447.10999"
         id="rect1599" />
    </clipPath>
    <clipPath
       id="clipPath1605">
      <rect
         x="35.57"
         y="491.89999"
         width="431.14001"
         height="447.10999"
         id="rect1603" />
    </clipPath>
    <clipPath
       id="clipPath1609">
      <rect
         x="35.57"
         y="491.89999"
         width="431.14001"
         height="447.10999"
         id="rect1607" />
    </clipPath>
    <clipPath
       id="clipPath1613">
      <rect
         x="35.57"
         y="491.89999"
         width="431.14001"
         height="447.10999"
         id="rect1611" />
    </clipPath>
    <clipPath
       id="clipPath1617">
      <rect
         x="35.57"
         y="491.89999"
         width="431.14001"
         height="447.10999"
         id="rect1615" />
    </clipPath>
  </defs>
  <defs
     id="defs9956" />
  <defs
     id="defs10213">
    <clipPath
       id="cpMC4wMHw1MDQuMDB8NTA0LjAwfDAuMDA=">
      <rect
         x="0"
         y="0"
         width="504"
         height="504"
         id="rect10210" />
    </clipPath>
  </defs>
  <defs
     id="defs10218" />
  <defs
     id="defs10348">
    <clipPath
       id="clipPath10346">
      <rect
         x="0"
         y="0"
         width="504"
         height="504"
         id="rect10344" />
    </clipPath>
  </defs>
  <defs
     id="defs10353" />
  <defs
     id="defs10601">
    <clipPath
       id="clipPath10599">
      <rect
         x="0"
         y="0"
         width="504"
         height="504"
         id="rect10597" />
    </clipPath>
  </defs>
  <defs
     id="defs10606" />
  <defs
     id="defs10794">
    <clipPath
       id="clipPath10792">
      <rect
         x="0"
         y="0"
         width="504"
         height="504"
         id="rect10790" />
    </clipPath>
  </defs>
  <defs
     id="defs10799" />
  <defs
     id="defs10951">
    <clipPath
       id="clipPath10949">
      <rect
         x="0"
         y="0"
         width="504"
         height="504"
         id="rect10947" />
    </clipPath>
  </defs>
  <defs
     id="defs10956" />
  <defs
     id="defs11134">
    <clipPath
       id="clipPath11132">
      <rect
         x="0"
         y="0"
         width="504"
         height="504"
         id="rect11130" />
    </clipPath>
  </defs>
  <defs
     id="defs11139" />
  <defs
     id="defs11301">
    <clipPath
       id="clipPath11299">
      <rect
         x="0"
         y="0"
         width="504"
         height="504"
         id="rect11297" />
    </clipPath>
  </defs>
  <defs
     id="defs11306" />
  <defs
     id="defs11466">
    <clipPath
       id="clipPath11464">
      <rect
         x="0"
         y="0"
         width="504"
         height="504"
         id="rect11462" />
    </clipPath>
  </defs>
  <defs
     id="defs11471" />
  <defs
     id="defs11627">
    <clipPath
       id="clipPath11625">
      <rect
         x="0"
         y="0"
         width="504"
         height="504"
         id="rect11623" />
    </clipPath>
  </defs>
  <defs
     id="defs11632">
    <clipPath
       id="cpMzUuNTd8MTU0LjcxfDMzNy40MHwzMjAuNDk=">
      <rect
         x="35.57"
         y="320.48999"
         width="119.14"
         height="16.92"
         id="rect11629" />
    </clipPath>
  </defs>
  <defs
     id="defs11644">
    <clipPath
       id="clipPath11642">
      <rect
         x="0"
         y="0"
         width="504"
         height="504"
         id="rect11640" />
    </clipPath>
  </defs>
  <defs
     id="defs11649">
    <clipPath
       id="cpMTYwLjE5fDI3OS4zM3wzMzcuNDB8MzIwLjQ5">
      <rect
         x="160.19"
         y="320.48999"
         width="119.14"
         height="16.92"
         id="rect11646" />
    </clipPath>
  </defs>
  <defs
     id="defs11661">
    <clipPath
       id="clipPath11659">
      <rect
         x="0"
         y="0"
         width="504"
         height="504"
         id="rect11657" />
    </clipPath>
  </defs>
  <defs
     id="defs11666">
    <clipPath
       id="cpMjg0LjgxfDQwMy45NXwzMzcuNDB8MzIwLjQ5">
      <rect
         x="284.81"
         y="320.48999"
         width="119.14"
         height="16.92"
         id="rect11663" />
    </clipPath>
  </defs>
  <defs
     id="defs11678">
    <clipPath
       id="clipPath11676">
      <rect
         x="0"
         y="0"
         width="504"
         height="504"
         id="rect11674" />
    </clipPath>
  </defs>
  <defs
     id="defs11683">
    <clipPath
       id="cpMzUuNTd8MTU0LjcxfDE3OS45MHwxNjIuOTg=">
      <rect
         x="35.57"
         y="162.98"
         width="119.14"
         height="16.92"
         id="rect11680" />
    </clipPath>
  </defs>
  <defs
     id="defs11695">
    <clipPath
       id="clipPath11693">
      <rect
         x="0"
         y="0"
         width="504"
         height="504"
         id="rect11691" />
    </clipPath>
  </defs>
  <defs
     id="defs11700">
    <clipPath
       id="cpMTYwLjE5fDI3OS4zM3wxNzkuOTB8MTYyLjk4">
      <rect
         x="160.19"
         y="162.98"
         width="119.14"
         height="16.92"
         id="rect11697" />
    </clipPath>
  </defs>
  <defs
     id="defs11712">
    <clipPath
       id="clipPath11710">
      <rect
         x="0"
         y="0"
         width="504"
         height="504"
         id="rect11708" />
    </clipPath>
  </defs>
  <defs
     id="defs11717">
    <clipPath
       id="cpMjg0LjgxfDQwMy45NXwxNzkuOTB8MTYyLjk4">
      <rect
         x="284.81"
         y="162.98"
         width="119.14"
         height="16.92"
         id="rect11714" />
    </clipPath>
  </defs>
  <defs
     id="defs11729">
    <clipPath
       id="clipPath11727">
      <rect
         x="0"
         y="0"
         width="504"
         height="504"
         id="rect11725" />
    </clipPath>
  </defs>
  <defs
     id="defs11734">
    <clipPath
       id="cpMzUuNTd8MTU0LjcxfDIyLjQwfDUuNDg=">
      <rect
         x="35.57"
         y="5.48"
         width="119.14"
         height="16.92"
         id="rect11731" />
    </clipPath>
  </defs>
  <defs
     id="defs11746">
    <clipPath
       id="clipPath11744">
      <rect
         x="0"
         y="0"
         width="504"
         height="504"
         id="rect11742" />
    </clipPath>
  </defs>
  <defs
     id="defs11751">
    <clipPath
       id="cpMTYwLjE5fDI3OS4zM3wyMi40MHw1LjQ4">
      <rect
         x="160.19"
         y="5.48"
         width="119.14"
         height="16.92"
         id="rect11748" />
    </clipPath>
  </defs>
  <defs
     id="defs11763">
    <clipPath
       id="clipPath11761">
      <rect
         x="0"
         y="0"
         width="504"
         height="504"
         id="rect11759" />
    </clipPath>
  </defs>
  <defs
     id="defs11768">
    <clipPath
       id="cpMjg0LjgxfDQwMy45NXwyMi40MHw1LjQ4">
      <rect
         x="284.81"
         y="5.48"
         width="119.14"
         height="16.92"
         id="rect11765" />
    </clipPath>
  </defs>
  <defs
     id="defs11780">
    <clipPath
       id="clipPath11778">
      <rect
         x="0"
         y="0"
         width="504"
         height="504"
         id="rect11776" />
    </clipPath>
  </defs>
  <circle
     cx="381.79001"
     cy="943.03003"
     r="3.5599999"
     style="fill:#b3cde3;stroke-width:0.5;stroke-miterlimit:10;stroke-dasharray:none"
     clip-path="url(#cpMzUuNTd8NDY2LjcxfDkzOS4wMXw0OTEuOTA=)"
     id="circle13231"
     transform="translate(-568.99988,364.4612)" />
  <rect
     x="36.907299"
     y="0"
     width="178.70999"
     height="135.11"
     style="fill:#efebe9;stroke:none;stroke-width:1.31048;stroke-linecap:round;stroke-linejoin:round;stroke-miterlimit:10"
     clip-path="none"
     id="rect10220-3" />
  <path
     id="polyline10222-5"
     clip-path="none"
     style="fill:none;stroke:#ffffff;stroke-width:0.5;stroke-linecap:butt;stroke-linejoin:round;stroke-miterlimit:10;stroke-dasharray:none"
     d="m 36.907288,95.915803 c 59.57,0 119.140012,0 178.710002,0" />
  <path
     id="polyline10224-6"
     clip-path="none"
     style="fill:none;stroke:#ffffff;stroke-width:0.5;stroke-linecap:butt;stroke-linejoin:round;stroke-miterlimit:10;stroke-dasharray:none"
     d="m 36.907288,48.608273 c 59.57,0 119.140012,0 178.710002,0" />
  <path
     id="polyline10226-2"
     clip-path="none"
     style="fill:none;stroke:#ffffff;stroke-width:1;stroke-linecap:butt;stroke-linejoin:round;stroke-miterlimit:10;stroke-dasharray:none"
     d="m 36.907288,25.040023 c 59.57,0 119.140012,0 178.710002,0" />
  <path
     id="polyline10230-9"
     clip-path="none"
     style="fill:none;stroke:#ffffff;stroke-width:0.5;stroke-linecap:butt;stroke-linejoin:round;stroke-miterlimit:10;stroke-dasharray:none"
     d="m 99.187288,135.11001 c 0,-45.036667 0,-90.073327 0,-135.109997969184" />
  <path
     id="polyline10232-1"
     clip-path="none"
     style="fill:none;stroke:#ffffff;stroke-width:0.5;stroke-linecap:butt;stroke-linejoin:round;stroke-miterlimit:10;stroke-dasharray:none"
     d="m 153.33729,135.11001 c 0,-45.036667 0,-90.073327 0,-135.109997969184" />
  <path
     id="polyline10234-2"
     clip-path="none"
     style="fill:none;stroke:#ffffff;stroke-width:0.5;stroke-linecap:butt;stroke-linejoin:round;stroke-miterlimit:10;stroke-dasharray:none"
     d="m 207.50229,135.11001 c 0,-45.036667 0,-90.073327 0,-135.109997969184" />
  <path
     id="polyline10236-7"
     clip-path="none"
     style="fill:none;stroke:#ffffff;stroke-width:1;stroke-linecap:butt;stroke-linejoin:round;stroke-miterlimit:10;stroke-dasharray:none"
     d="m 36.907288,119.52001 c 59.57,0 119.140012,0 178.710002,0" />
  <path
     id="polyline10238-0"
     clip-path="none"
     style="fill:none;stroke:#ffffff;stroke-width:1;stroke-linecap:butt;stroke-linejoin:round;stroke-miterlimit:10;stroke-dasharray:none"
     d="m 36.907288,72.351963 c 59.57,0 119.140012,0 178.710002,0" />
  <path
     id="polyline10244-9"
     clip-path="none"
     style="fill:none;stroke:#ffffff;stroke-width:1;stroke-linecap:butt;stroke-linejoin:round;stroke-miterlimit:10;stroke-dasharray:none"
     d="m 72.112288,135.11001 c 0,-45.036667 0,-90.073327 0,-135.109997969184" />
  <path
     id="polyline10246-3"
     clip-path="none"
     style="fill:none;stroke:#ffffff;stroke-width:1;stroke-linecap:butt;stroke-linejoin:round;stroke-miterlimit:10;stroke-dasharray:none"
     d="m 126.26229,135.11001 c 0,-45.036667 0,-90.073327 0,-135.109997969184" />
  <path
     id="polyline10248-6"
     clip-path="none"
     style="fill:none;stroke:#ffffff;stroke-width:1;stroke-linecap:butt;stroke-linejoin:round;stroke-miterlimit:10;stroke-dasharray:none"
     d="m 180.41229,135.11001 c 0,-45.036667 0,-90.073327 0,-135.109997969184" />
  <text
     xml:space="preserve"
     style="font-stretch:condensed;font-size:10.6667px;line-height:1.25;font-family:'Noto Sans';-inkscape-font-specification:'Noto Sans, Condensed';letter-spacing:0px;word-spacing:0px;writing-mode:lr-tb"
     x="21.503887"
     y="123.32803"
     id="text14042-0"><tspan
       sodipodi:role="line"
       id="tspan14040-6"
       x="21.503887"
       y="123.32803">0.0</tspan></text>
  <text
     xml:space="preserve"
     style="font-stretch:condensed;font-size:10.6667px;line-height:1.25;font-family:'Noto Sans';-inkscape-font-specification:'Noto Sans, Condensed';letter-spacing:0px;word-spacing:0px;writing-mode:lr-tb"
     x="21.503887"
     y="28.848022"
     id="text14046-2"><tspan
       sodipodi:role="line"
       id="tspan14044-6"
       x="21.503887"
       y="28.848022">1.0</tspan></text>
  <text
     xml:space="preserve"
     style="font-stretch:condensed;font-size:10.6667px;line-height:1.25;font-family:'Noto Sans';-inkscape-font-specification:'Noto Sans, Condensed';letter-spacing:0px;word-spacing:0px;writing-mode:lr-tb"
     x="21.546551"
     y="76.159973"
     id="text14067-1"><tspan
       sodipodi:role="line"
       id="tspan14065-8"
       x="21.546551"
       y="76.159973">0.5</tspan></text>
  <text
     xml:space="preserve"
     style="font-stretch:condensed;font-size:10.6667px;line-height:1.25;font-family:'Noto Sans';-inkscape-font-specification:'Noto Sans, Condensed';letter-spacing:0px;word-spacing:0px;writing-mode:lr-tb"
     x="64.208298"
     y="148.13377"
     id="text14071-7"><tspan
       sodipodi:role="line"
       id="tspan14069-92"
       x="64.208298"
       y="148.13377">10<tspan
   style="font-size:65%;baseline-shift:super"
   id="tspan14073-0">-7</tspan></tspan></text>
  <text
     xml:space="preserve"
     style="font-stretch:condensed;font-size:10.6667px;line-height:1.25;font-family:'Noto Sans';-inkscape-font-specification:'Noto Sans, Condensed';letter-spacing:0px;word-spacing:0px;writing-mode:lr-tb"
     x="118.38603"
     y="148.13377"
     id="text14071-9-2"><tspan
       sodipodi:role="line"
       id="tspan14069-2-3"
       x="118.38603"
       y="148.13377">10<tspan
   style="font-size:65%;baseline-shift:super"
   id="tspan14073-2-7">-5</tspan></tspan></text>
  <text
     xml:space="preserve"
     style="font-stretch:condensed;font-size:10.6667px;line-height:1.25;font-family:'Noto Sans';-inkscape-font-specification:'Noto Sans, Condensed';letter-spacing:0px;word-spacing:0px;writing-mode:lr-tb"
     x="172.54643"
     y="148.20311"
     id="text14071-8-5"><tspan
       sodipodi:role="line"
       id="tspan14069-9-9"
       x="172.54643"
       y="148.20311">10<tspan
   style="font-size:65%;baseline-shift:super"
   id="tspan14073-7-2">-3</tspan></tspan></text>
  <text
     xml:space="preserve"
     style="font-style:normal;font-variant:normal;font-weight:normal;font-stretch:condensed;font-size:13.3333px;line-height:1.25;font-family:'Noto Sans';-inkscape-font-specification:'Noto Sans, Condensed';font-variant-ligatures:normal;font-variant-caps:normal;font-variant-numeric:normal;font-variant-east-asian:normal;letter-spacing:0px;word-spacing:0px;writing-mode:lr-tb"
     x="89.782486"
     y="162.56425"
     id="text14169-2"><tspan
       sodipodi:role="line"
       id="tspan14167-8"
       x="89.782486"
       y="162.56425">[TNP-ATP] (M)</tspan></text>
  <text
     xml:space="preserve"
     style="font-style:normal;font-variant:normal;font-weight:normal;font-stretch:condensed;font-size:13.3333px;line-height:1.25;font-family:'Noto Sans';-inkscape-font-specification:'Noto Sans, Condensed';font-variant-ligatures:normal;font-variant-caps:normal;font-variant-numeric:normal;font-variant-east-asian:normal;letter-spacing:0px;word-spacing:0px;writing-mode:lr-tb"
     x="-81.301285"
     y="9.5466423"
     id="text14219-9"
     transform="rotate(-90)"><tspan
       sodipodi:role="line"
       id="tspan14217-7"
       x="-81.301285"
       y="9.5466423">I/I<tspan
   style="font-size:65%;baseline-shift:sub"
   id="tspan14221-3">max</tspan></tspan></text>
  <polyline
     points="55.17,105.36 63.01,105.39 70.85,105.44 78.69,105.49 86.53,105.57 94.36,105.67 102.20,105.80 110.04,105.98 117.88,106.21 125.72,106.51 133.56,106.91 141.40,107.44 149.24,108.13 157.08,109.04 164.91,110.24 172.75,111.80 180.59,113.85 188.43,116.53 196.27,120.02 204.11,124.56 211.95,130.42 219.79,137.91 227.63,147.46 235.46,159.39 243.30,174.30 251.14,192.40 258.98,213.75 266.82,238.30 274.66,265.03 282.50,293.63 290.34,321.53 298.18,346.78 306.01,368.74 313.85,386.08 321.69,398.79 329.53,406.87 337.37,411.78 345.21,414.54 353.05,416.04 360.89,416.87 368.73,417.32 376.56,417.55 384.40,417.68 392.24,417.75 400.08,417.80 407.92,417.83 415.76,417.84 423.60,417.86 431.44,417.86 439.28,417.87 447.11,417.87 "
     style="fill:none;stroke:#fb8c00;stroke-width:2.82562;stroke-linecap:butt;stroke-linejoin:round;stroke-miterlimit:10;stroke-dasharray:2.82562, 2.82562;stroke-dashoffset:0"
     clip-path="url(#cpMzUuNTd8NDY2LjcxfDQ2OS41MHwyMi40MA==-3)"
     id="polyline12899-1"
     transform="matrix(0.41450571,0,0,0.30216279,22.163328,-6.8270279)" />
  <polyline
     points="447.11,417.91 439.28,417.91 431.44,417.91 423.60,417.91 415.76,417.91 407.92,417.91 400.08,417.91 392.24,417.91 384.40,417.91 376.56,417.90 368.73,417.89 360.89,417.84 353.05,417.74 345.21,417.51 337.37,417.00 329.53,415.87 321.69,413.67 313.85,409.48 306.01,402.34 298.18,391.10 290.34,375.02 282.50,354.13 274.66,329.26 266.82,301.64 258.98,273.34 251.14,245.86 243.30,220.73 235.46,198.55 227.63,179.62 219.79,163.88 211.95,151.08 204.11,140.82 196.27,132.72 188.43,126.37 180.59,121.44 172.75,117.63 164.91,114.70 157.08,112.45 149.24,110.73 141.40,109.42 133.56,108.42 125.72,107.66 117.88,107.08 110.04,106.64 102.20,106.31 94.36,106.05 86.53,105.86 78.69,105.71 70.85,105.60 63.01,105.52 55.17,105.45 "
     style="fill:none;stroke:#fb8c00;stroke-width:2.82562;stroke-linecap:butt;stroke-linejoin:round;stroke-miterlimit:10;stroke-dasharray:2.82562, 2.82562;stroke-dashoffset:0"
     clip-path="url(#cpMzUuNTd8NDY2LjcxfDQ2OS41MHwyMi40MA==-3)"
     id="polyline12901-5"
     transform="matrix(0.41450571,0,0,0.30216279,22.163328,-6.8270279)" />
  <polygon
     points="251.14,573.63 258.98,573.37 266.82,573.12 274.66,572.82 282.5,572.52 290.34,572.17 298.18,571.96 306.01,571.75 313.85,571.58 321.69,571.32 329.53,571.15 337.37,570.97 345.21,570.89 353.05,570.76 360.89,570.67 368.73,570.61 376.56,570.55 384.4,570.5 392.24,570.46 400.08,570.43 407.92,570.41 415.76,570.39 423.6,570.38 431.44,570.36 439.28,570.35 447.11,570.35 447.11,883.81 439.28,883.65 431.44,883.56 423.6,883.27 415.76,883.03 407.92,882.71 400.08,882.3 392.24,881.53 384.4,880.5 376.56,878.55 368.73,877.22 360.89,875.29 353.05,872.18 345.21,867.28 337.37,860.72 329.53,852.46 321.69,841.13 313.85,827.84 306.01,807.72 298.18,783.05 290.34,752.65 282.5,721.04 274.66,692.69 266.82,669.21 258.98,647.71 251.14,631.6 243.3,617.93 235.46,607.75 227.63,599.46 219.79,593.27 211.95,588.83 204.11,585.31 196.27,582.78 188.43,580.82 180.59,579.33 172.75,578.22 164.91,577.38 157.08,576.75 149.24,576.27 141.4,575.9 133.56,575.63 125.72,575.42 117.88,575.26 110.04,575.14 102.2,575.04 94.36,574.97 86.53,574.92 78.69,574.88 70.85,574.85 63.01,574.83 55.17,574.81 55.17,574.75 63.01,574.75 70.85,574.75 78.69,574.75 86.53,574.75 94.36,574.75 102.2,574.75 110.04,574.75 117.88,574.74 125.72,574.74 133.56,574.73 141.4,574.72 149.24,574.71 157.08,574.7 164.91,574.68 172.75,574.66 180.59,574.63 188.43,574.59 196.27,574.54 204.11,574.48 211.95,574.39 219.79,574.29 227.63,574.17 235.46,574.03 243.3,573.85 "
     style="fill:#fb8c00;fill-opacity:0.5;stroke:none;stroke-width:0;stroke-linecap:round;stroke-linejoin:round;stroke-miterlimit:10"
     clip-path="url(#cpMzUuNTd8NDY2LjcxfDkzOS4wMXw0OTEuOTA=-7)"
     id="polygon13159-7"
     transform="matrix(0.4145057,0,0,0.30218513,22.163328,-148.64487)" />
  <polyline
     points="55.17,574.75 63.01,574.75 70.85,574.75 78.69,574.75 86.53,574.75 94.36,574.75 102.20,574.75 110.04,574.75 117.88,574.74 125.72,574.74 133.56,574.73 141.40,574.72 149.24,574.71 157.08,574.70 164.91,574.68 172.75,574.66 180.59,574.63 188.43,574.59 196.27,574.54 204.11,574.48 211.95,574.39 219.79,574.29 227.63,574.17 235.46,574.03 243.30,573.85 251.14,573.63 258.98,573.37 266.82,573.12 274.66,572.82 282.50,572.52 290.34,572.17 298.18,571.96 306.01,571.75 313.85,571.58 321.69,571.32 329.53,571.15 337.37,570.97 345.21,570.89 353.05,570.76 360.89,570.67 368.73,570.61 376.56,570.55 384.40,570.50 392.24,570.46 400.08,570.43 407.92,570.41 415.76,570.39 423.60,570.38 431.44,570.36 439.28,570.35 447.11,570.35 "
     style="fill:none;stroke:#fb8c00;stroke-width:1.41276;stroke-linecap:round;stroke-linejoin:round;stroke-miterlimit:10;stroke-dasharray:none"
     clip-path="url(#cpMzUuNTd8NDY2LjcxfDkzOS4wMXw0OTEuOTA=-7)"
     id="polyline13161-6"
     transform="matrix(0.4145057,0,0,0.30218513,22.163328,-148.64487)" />
  <polyline
     points="447.11,883.81 439.28,883.65 431.44,883.56 423.60,883.27 415.76,883.03 407.92,882.71 400.08,882.30 392.24,881.53 384.40,880.50 376.56,878.55 368.73,877.22 360.89,875.29 353.05,872.18 345.21,867.28 337.37,860.72 329.53,852.46 321.69,841.13 313.85,827.84 306.01,807.72 298.18,783.05 290.34,752.65 282.50,721.04 274.66,692.69 266.82,669.21 258.98,647.71 251.14,631.60 243.30,617.93 235.46,607.75 227.63,599.46 219.79,593.27 211.95,588.83 204.11,585.31 196.27,582.78 188.43,580.82 180.59,579.33 172.75,578.22 164.91,577.38 157.08,576.75 149.24,576.27 141.40,575.90 133.56,575.63 125.72,575.42 117.88,575.26 110.04,575.14 102.20,575.04 94.36,574.97 86.53,574.92 78.69,574.88 70.85,574.85 63.01,574.83 55.17,574.81 "
     style="fill:none;stroke:#fb8c00;stroke-width:1.41276;stroke-linecap:round;stroke-linejoin:round;stroke-miterlimit:10;stroke-dasharray:none"
     clip-path="url(#cpMzUuNTd8NDY2LjcxfDkzOS4wMXw0OTEuOTA=-7)"
     id="polyline13163-5"
     transform="matrix(0.4145057,0,0,0.30218513,22.163328,-148.64487)" />
  <circle
     cx="251.96001"
     cy="575.56"
     r="3.5599999"
     style="fill:#fb8c00;stroke:#000000;stroke-width:0.647708;stroke-linecap:round;stroke-linejoin:round;stroke-miterlimit:10;stroke-dasharray:none"
     clip-path="url(#cpMzUuNTd8NDY2LjcxfDkzOS4wMXw0OTEuOTA=-7)"
     id="circle13171-7"
     transform="matrix(0.77195251,0,0,0.77195231,-67.898972,-419.02405)" />
  <circle
     cx="312.64001"
     cy="603.15997"
     r="3.5599999"
     style="fill:#fb8c00;stroke:#000000;stroke-width:0.647708;stroke-linecap:round;stroke-linejoin:round;stroke-miterlimit:10;stroke-dasharray:none"
     clip-path="url(#cpMzUuNTd8NDY2LjcxfDkzOS4wMXw0OTEuOTA=-7)"
     id="circle13173-4"
     transform="matrix(0.77195251,0,0,0.77195231,-89.588852,-431.98962)" />
  <circle
     cx="377.89999"
     cy="789.39001"
     r="3.5599999"
     style="fill:#fb8c00;stroke:#000000;stroke-width:0.647708;stroke-linecap:round;stroke-linejoin:round;stroke-miterlimit:10;stroke-dasharray:none"
     clip-path="url(#cpMzUuNTd8NDY2LjcxfDkzOS4wMXw0OTEuOTA=-7)"
     id="circle13175-5"
     transform="matrix(0.77195251,0,0,0.77195231,-112.91582,-519.47438)" />
  <circle
     cx="189.07001"
     cy="577.10999"
     r="3.5599999"
     style="fill:#fb8c00;stroke:#000000;stroke-width:0.647708;stroke-linecap:round;stroke-linejoin:round;stroke-miterlimit:10;stroke-dasharray:none"
     clip-path="url(#cpMzUuNTd8NDY2LjcxfDkzOS4wMXw0OTEuOTA=-7)"
     id="circle13177-2"
     transform="matrix(0.77195251,0,0,0.77195231,-45.419142,-419.75219)" />
  <circle
     cx="248.21001"
     cy="568.38"
     r="3.5599999"
     style="fill:#fb8c00;stroke:#000000;stroke-width:0.647708;stroke-linecap:round;stroke-linejoin:round;stroke-miterlimit:10;stroke-dasharray:none"
     clip-path="url(#cpMzUuNTd8NDY2LjcxfDkzOS4wMXw0OTEuOTA=-7)"
     id="circle13179-5"
     transform="matrix(0.77195251,0,0,0.77195231,-66.558542,-415.65113)" />
  <circle
     cx="320.5"
     cy="564.5"
     r="3.5599999"
     style="fill:#fb8c00;stroke:#000000;stroke-width:0.647708;stroke-linecap:round;stroke-linejoin:round;stroke-miterlimit:10;stroke-dasharray:none"
     clip-path="url(#cpMzUuNTd8NDY2LjcxfDkzOS4wMXw0OTEuOTA=-7)"
     id="circle13181-4"
     transform="matrix(0.77195251,0,0,0.77195231,-92.398372,-413.82842)" />
  <circle
     cx="378.69"
     cy="585.78003"
     r="3.5599999"
     style="fill:#fb8c00;stroke:#000000;stroke-width:0.647708;stroke-linecap:round;stroke-linejoin:round;stroke-miterlimit:10;stroke-dasharray:none"
     clip-path="url(#cpMzUuNTd8NDY2LjcxfDkzOS4wMXw0OTEuOTA=-7)"
     id="circle13183-7"
     transform="matrix(0.77195251,0,0,0.77195231,-113.19819,-423.82509)" />
  <circle
     cx="254.99001"
     cy="572.67999"
     r="3.5599999"
     style="fill:#fb8c00;stroke:#000000;stroke-width:0.647708;stroke-linecap:round;stroke-linejoin:round;stroke-miterlimit:10;stroke-dasharray:none"
     clip-path="url(#cpMzUuNTd8NDY2LjcxfDkzOS4wMXw0OTEuOTA=-7)"
     id="circle13185-4"
     transform="matrix(0.77195251,0,0,0.77195231,-68.982032,-417.67112)" />
  <circle
     cx="317.28"
     cy="569.51001"
     r="3.5599999"
     style="fill:#fb8c00;stroke:#000000;stroke-width:0.647708;stroke-linecap:round;stroke-linejoin:round;stroke-miterlimit:10;stroke-dasharray:none"
     clip-path="url(#cpMzUuNTd8NDY2LjcxfDkzOS4wMXw0OTEuOTA=-7)"
     id="circle13187-4"
     transform="matrix(0.77195251,0,0,0.77195231,-91.247392,-416.18198)" />
  <circle
     cx="384.92999"
     cy="588.84998"
     r="3.5599999"
     style="fill:#fb8c00;stroke:#000000;stroke-width:0.647708;stroke-linecap:round;stroke-linejoin:round;stroke-miterlimit:10;stroke-dasharray:none"
     clip-path="url(#cpMzUuNTd8NDY2LjcxfDkzOS4wMXw0OTEuOTA=-7)"
     id="circle13189-3"
     transform="matrix(0.77195251,0,0,0.77195231,-115.42866,-425.26724)" />
  <circle
     cx="182.56"
     cy="577.98999"
     r="3.5599999"
     style="fill:#fb8c00;stroke:#000000;stroke-width:0.647708;stroke-linecap:round;stroke-linejoin:round;stroke-miterlimit:10;stroke-dasharray:none"
     clip-path="url(#cpMzUuNTd8NDY2LjcxfDkzOS4wMXw0OTEuOTA=-7)"
     id="circle13191-0"
     transform="matrix(0.77195251,0,0,0.77195231,-43.092162,-420.16559)" />
  <circle
     cx="248.74001"
     cy="574.09003"
     r="3.5599999"
     style="fill:#fb8c00;stroke:#000000;stroke-width:0.647708;stroke-linecap:round;stroke-linejoin:round;stroke-miterlimit:10;stroke-dasharray:none"
     clip-path="url(#cpMzUuNTd8NDY2LjcxfDkzOS4wMXw0OTEuOTA=-7)"
     id="circle13193-7"
     transform="matrix(0.77195251,0,0,0.77195231,-66.747992,-418.33352)" />
  <circle
     cx="314.01999"
     cy="569.26001"
     r="3.5599999"
     style="fill:#fb8c00;stroke:#000000;stroke-width:0.647708;stroke-linecap:round;stroke-linejoin:round;stroke-miterlimit:10;stroke-dasharray:none"
     clip-path="url(#cpMzUuNTd8NDY2LjcxfDkzOS4wMXw0OTEuOTA=-7)"
     id="circle13195-8"
     transform="matrix(0.77195251,0,0,0.77195231,-90.082112,-416.06451)" />
  <circle
     cx="379.89001"
     cy="593.87"
     r="3.5599999"
     style="fill:#fb8c00;stroke:#000000;stroke-width:0.647708;stroke-linecap:round;stroke-linejoin:round;stroke-miterlimit:10;stroke-dasharray:none"
     clip-path="url(#cpMzUuNTd8NDY2LjcxfDkzOS4wMXw0OTEuOTA=-7)"
     id="circle13197-6"
     transform="matrix(0.77195251,0,0,0.77195231,-113.62714,-427.62549)" />
  <circle
     cx="250.28"
     cy="589.14001"
     r="3.5599999"
     style="fill:#fb8c00;stroke:#000000;stroke-width:0.647708;stroke-linecap:round;stroke-linejoin:round;stroke-miterlimit:10;stroke-dasharray:none"
     clip-path="url(#cpMzUuNTd8NDY2LjcxfDkzOS4wMXw0OTEuOTA=-7)"
     id="circle13199-8"
     transform="matrix(0.77195251,0,0,0.77195231,-67.298462,-425.40349)" />
  <circle
     cx="312.79999"
     cy="554.84998"
     r="3.5599999"
     style="fill:#fb8c00;stroke:#000000;stroke-width:0.647708;stroke-linecap:round;stroke-linejoin:round;stroke-miterlimit:10;stroke-dasharray:none"
     clip-path="url(#cpMzUuNTd8NDY2LjcxfDkzOS4wMXw0OTEuOTA=-7)"
     id="circle13201-8"
     transform="matrix(0.77195251,0,0,0.77195231,-89.646032,-409.29516)" />
  <circle
     cx="382.10001"
     cy="657.15997"
     r="3.5599999"
     style="fill:#fb8c00;stroke:#000000;stroke-width:0.647708;stroke-linecap:round;stroke-linejoin:round;stroke-miterlimit:10;stroke-dasharray:none"
     clip-path="url(#cpMzUuNTd8NDY2LjcxfDkzOS4wMXw0OTEuOTA=-7)"
     id="circle13203-4"
     transform="matrix(0.77195251,0,0,0.77195231,-114.41712,-457.35705)" />
  <circle
     cx="245.63"
     cy="578.67999"
     r="3.5599999"
     style="fill:#fb8c00;stroke:#000000;stroke-width:0.647708;stroke-linecap:round;stroke-linejoin:round;stroke-miterlimit:10;stroke-dasharray:none"
     clip-path="url(#cpMzUuNTd8NDY2LjcxfDkzOS4wMXw0OTEuOTA=-7)"
     id="circle13205-3"
     transform="matrix(0.77195251,0,0,0.77195231,-65.636332,-420.48971)" />
  <circle
     cx="319.20999"
     cy="647.52002"
     r="3.5599999"
     style="fill:#fb8c00;stroke:#000000;stroke-width:0.647708;stroke-linecap:round;stroke-linejoin:round;stroke-miterlimit:10;stroke-dasharray:none"
     clip-path="url(#cpMzUuNTd8NDY2LjcxfDkzOS4wMXw0OTEuOTA=-7)"
     id="circle13207-1"
     transform="matrix(0.77195251,0,0,0.77195231,-91.937262,-452.82851)" />
  <circle
     cx="380.26999"
     cy="831.94"
     r="3.5599999"
     style="fill:#fb8c00;stroke:#000000;stroke-width:0.647708;stroke-linecap:round;stroke-linejoin:round;stroke-miterlimit:10;stroke-dasharray:none"
     clip-path="url(#cpMzUuNTd8NDY2LjcxfDkzOS4wMXw0OTEuOTA=-7)"
     id="circle13209-4"
     transform="matrix(0.77195251,0,0,0.77195231,-113.76297,-539.46296)" />
</svg>
