<?xml version="1.0" encoding="UTF-8" standalone="no"?>
<svg
   xmlns:dc="http://purl.org/dc/elements/1.1/"
   xmlns:cc="http://creativecommons.org/ns#"
   xmlns:rdf="http://www.w3.org/1999/02/22-rdf-syntax-ns#"
   xmlns:svg="http://www.w3.org/2000/svg"
   xmlns="http://www.w3.org/2000/svg"
   xmlns:sodipodi="http://sodipodi.sourceforge.net/DTD/sodipodi-0.dtd"
   xmlns:inkscape="http://www.inkscape.org/namespaces/inkscape"
   width="128.45876mm"
   height="60.073383mm"
   viewBox="0 0 128.45875 60.073382"
   version="1.1"
   id="svg8"
   inkscape:version="1.0.1 (3bc2e813f5, 2020-09-07, custom)"
   sodipodi:docname="katp_cartoon.svg">
  <defs
     id="defs2">
    <marker
       style="overflow:visible"
       id="Arrow1Mstart"
       refX="0"
       refY="0"
       orient="auto"
       inkscape:stockid="Arrow1Mstart"
       inkscape:isstock="true">
      <path
         transform="matrix(0.4,0,0,0.4,4,0)"
         style="fill:#000000;fill-opacity:1;fill-rule:evenodd;stroke:#000000;stroke-width:1pt;stroke-opacity:1"
         d="M 0,0 5,-5 -12.5,0 5,5 Z"
         id="path960" />
    </marker>
    <marker
       style="overflow:visible"
       id="marker1408"
       refX="0"
       refY="0"
       orient="auto"
       inkscape:stockid="Arrow1Mend"
       inkscape:isstock="true">
      <path
         transform="matrix(-0.4,0,0,-0.4,-4,0)"
         style="fill:#000000;fill-opacity:1;fill-rule:evenodd;stroke:#000000;stroke-width:1pt;stroke-opacity:1"
         d="M 0,0 5,-5 -12.5,0 5,5 Z"
         id="path1406" />
    </marker>
    <marker
       style="overflow:visible"
       id="marker1252"
       refX="0"
       refY="0"
       orient="auto"
       inkscape:stockid="Arrow1Mend"
       inkscape:isstock="true">
      <path
         transform="matrix(-0.4,0,0,-0.4,-4,0)"
         style="fill:#000000;fill-opacity:1;fill-rule:evenodd;stroke:#000000;stroke-width:1pt;stroke-opacity:1"
         d="M 0,0 5,-5 -12.5,0 5,5 Z"
         id="path1250" />
    </marker>
    <marker
       style="overflow:visible"
       id="Arrow1Lend"
       refX="0"
       refY="0"
       orient="auto"
       inkscape:stockid="Arrow1Lend"
       inkscape:isstock="true">
      <path
         transform="matrix(-0.8,0,0,-0.8,-10,0)"
         style="fill:#000000;fill-opacity:1;fill-rule:evenodd;stroke:#000000;stroke-width:1pt;stroke-opacity:1"
         d="M 0,0 5,-5 -12.5,0 5,5 Z"
         id="path957" />
    </marker>
    <clipPath
       clipPathUnits="userSpaceOnUse"
       id="clipPath901">
      <rect
         style="fill:#66c2a5;stroke:#fb8c00;stroke-width:0.264583;stroke-miterlimit:10;stroke-dasharray:0.529167, 0.264583"
         id="rect903"
         width="123.32011"
         height="99.271881"
         x="17.113274"
         y="3.1748478" />
    </clipPath>
    <clipPath
       clipPathUnits="userSpaceOnUse"
       id="clipPath8097">
      <rect
         style="fill:#29b6f6;stroke-width:2.70042"
         id="rect8099"
         width="52.711082"
         height="61.15379"
         x="95.663208"
         y="30.094568" />
    </clipPath>
  </defs>
  <sodipodi:namedview
     id="base"
     pagecolor="#ffffff"
     bordercolor="#666666"
     borderopacity="1.0"
     inkscape:pageopacity="0.0"
     inkscape:pageshadow="2"
     inkscape:zoom="0.7071068"
     inkscape:cx="305.67078"
     inkscape:cy="152.93704"
     inkscape:document-units="mm"
     inkscape:current-layer="layer1"
     inkscape:document-rotation="0"
     showgrid="false"
     inkscape:window-width="1366"
     inkscape:window-height="768"
     inkscape:window-x="0"
     inkscape:window-y="0"
     inkscape:window-maximized="1"
     showguides="true"
     inkscape:snap-global="true" />
  <metadata
     id="metadata5">
    <rdf:RDF>
      <cc:Work
         rdf:about="">
        <dc:format>image/svg+xml</dc:format>
        <dc:type
           rdf:resource="http://purl.org/dc/dcmitype/StillImage" />
        <dc:title></dc:title>
      </cc:Work>
    </rdf:RDF>
  </metadata>
  <g
     inkscape:label="Layer 1"
     inkscape:groupmode="layer"
     id="layer1"
     transform="translate(-54.266704,-25.616335)">
    <rect
       style="fill:#f8bbd0;stroke:#000000;stroke-width:0;stroke-miterlimit:4;stroke-dasharray:none"
       id="rect29054"
       width="128.45876"
       height="15.832797"
       x="54.266705"
       y="44.524208"
       ry="1.1802586" />
    <rect
       style="fill:#1e88e5;stroke:#000000;stroke-width:0.236139;stroke-miterlimit:4;stroke-dasharray:none"
       id="rect28658-8-6"
       width="3.2310944"
       height="8.841466"
       x="-46.212067"
       y="65.956337"
       ry="0.57817698"
       transform="rotate(-90)" />
    <rect
       style="fill:#1e88e5;stroke:#000000;stroke-width:0.238833;stroke-miterlimit:4;stroke-dasharray:none"
       id="rect28658-8"
       width="3.4062741"
       height="17.232712"
       x="44.150208"
       y="75.3535"
       ry="1.1269125"
       transform="matrix(0.80968173,-0.58686923,0.41782136,0.9085292,0,0)" />
    <rect
       style="fill:#1e88e5;stroke:#000000;stroke-width:0.238833;stroke-miterlimit:4;stroke-dasharray:none"
       id="rect28658-9"
       width="3.4062741"
       height="17.232712"
       x="97.781136"
       y="-18.528099"
       ry="1.1269125"
       transform="matrix(0.80968173,0.58686923,-0.41782136,0.9085292,0,0)" />
    <path
       style="fill:none;stroke:#000000;stroke-width:0.264583;stroke-linecap:butt;stroke-linejoin:miter;stroke-miterlimit:4;stroke-dasharray:none;stroke-opacity:1"
       d="m 74.826541,44.692026 c 0,0 1.871672,0.151711 2.059933,-0.763742 0.188262,-0.915453 0,-2.239018 0,-2.239018 -0.454786,-1.082542 -1.480272,-3.079508 -3.650825,-3.241856 -2.09872,-0.156975 -5.828986,-0.234318 -4.7672,3.162181"
       id="path28834"
       sodipodi:nodetypes="csssc" />
    <path
       style="fill:none;stroke:#000000;stroke-width:0.264583;stroke-linecap:butt;stroke-linejoin:miter;stroke-miterlimit:4;stroke-dasharray:none;stroke-opacity:1"
       d="m 64.056861,43.236586 c 0,0 -0.783594,-1.784363 0.27658,-1.899022 1.060174,-0.114659 0.472778,1.835082 0.582276,2.845115 0.05558,0.512683 0.777245,0.331887 0.777245,0.331887"
       id="path28872-7"
       sodipodi:nodetypes="cssc" />
    <rect
       style="fill:#1e88e5;stroke:#000000;stroke-width:0.23716;stroke-miterlimit:4;stroke-dasharray:none"
       id="rect28658-18"
       width="3.2420001"
       height="17.853254"
       x="52.857002"
       y="61.809841"
       ry="1.167492"
       transform="matrix(0.94770456,-0.31914898,0.20851246,0.97801971,0,0)" />
    <rect
       style="fill:#1e88e5;stroke:#000000;stroke-width:0.23716;stroke-miterlimit:4;stroke-dasharray:none"
       id="rect28658-94"
       width="3.2420001"
       height="17.853254"
       x="98.371552"
       y="11.402761"
       ry="1.167492"
       transform="matrix(0.94770456,0.31914898,-0.20851246,0.97801971,0,0)" />
    <rect
       style="fill:#1e88e5;stroke:#000000;stroke-width:0.236139;stroke-miterlimit:4;stroke-dasharray:none"
       id="rect28658-8-6-9"
       width="3.2310944"
       height="8.841466"
       x="-46.21207"
       y="82.105156"
       ry="0.57817698"
       transform="rotate(-90)" />
    <path
       style="fill:none;stroke:#000000;stroke-width:0.264583;stroke-linecap:butt;stroke-linejoin:miter;stroke-miterlimit:4;stroke-dasharray:none;stroke-opacity:1"
       d="m 92.553926,43.032614 c 0,0 0.832427,-1.566775 -0.227747,-1.681434 -1.060174,-0.114659 -0.472778,1.835082 -0.582276,2.845115 -0.05558,0.512683 -0.777245,0.331887 -0.777245,0.331887"
       id="path28872"
       sodipodi:nodetypes="cssc" />
    <rect
       style="fill:#1e88e5;stroke:#000000;stroke-width:0.236139;stroke-miterlimit:4;stroke-dasharray:none"
       id="rect28658-8-6-8"
       width="3.2310944"
       height="8.841466"
       x="-64.678612"
       y="57.959167"
       ry="0.57817698"
       transform="rotate(-90)" />
    <rect
       style="fill:#1e88e5;stroke:#000000;stroke-width:0.236139;stroke-miterlimit:4;stroke-dasharray:none"
       id="rect28658-8-6-7"
       width="3.2310944"
       height="8.841466"
       x="-64.678612"
       y="90.102318"
       ry="0.57817698"
       transform="rotate(-90)" />
    <path
       style="fill:none;stroke:#000000;stroke-width:0.264583px;stroke-linecap:butt;stroke-linejoin:miter;stroke-opacity:1"
       d="m 68.397953,60.436968 c 0,0 0.580551,2.596999 -1.640529,2.587427"
       id="path28695-4"
       sodipodi:nodetypes="cc" />
    <path
       style="fill:none;stroke:#000000;stroke-width:0.264583px;stroke-linecap:butt;stroke-linejoin:miter;stroke-opacity:1"
       d="m 88.508477,60.538937 c 0,0 -0.640827,2.622008 1.580253,2.612437"
       id="path28695-4-9"
       sodipodi:nodetypes="cc" />
    <path
       style="fill:none;stroke:#000000;stroke-width:0.264583px;stroke-linecap:butt;stroke-linejoin:miter;stroke-opacity:1"
       d="m 57.902405,62.92754 c 0,0 -2.881208,-0.28896 -2.871636,1.93212"
       id="path28695-9" />
    <path
       style="fill:none;stroke:#000000;stroke-width:0.264583px;stroke-linecap:butt;stroke-linejoin:miter;stroke-opacity:1"
       d="m 98.913539,62.92754 c 0,0 2.881211,-0.28896 2.871631,1.93212"
       id="path28695-9-0" />
    <path
       id="rect28658-8-9"
       style="fill:#1e88e5;stroke:#000000;stroke-width:0.264583;stroke-miterlimit:4;stroke-dasharray:none"
       d="m 74.994791,58.192225 1.575351,0.422114 c 0.631583,0.169232 0.879916,0.793226 0.834568,1.445514 l -1.053495,15.153399 c -0.04535,0.652287 -0.728783,0.867198 -1.381832,0.834568 l -8.448192,-0.422114 c -0.653047,-0.03263 -1.135712,-0.865128 -0.834567,-1.445514 l 7.862653,-15.153399 c 0.301145,-0.580385 0.813932,-1.0038 1.445514,-0.834568 z"
       sodipodi:nodetypes="sssssssss" />
    <path
       id="rect28658-8-9-4"
       style="fill:#1e88e5;stroke:#000000;stroke-width:0.264583;stroke-miterlimit:4;stroke-dasharray:none"
       d="m 81.908162,58.192225 -1.57535,0.422114 c -0.63159,0.169232 -0.87992,0.793226 -0.83457,1.445514 l 1.05349,15.153399 c 0.0453,0.652287 0.72879,0.867198 1.38184,0.834568 l 8.448188,-0.422114 c 0.653047,-0.03263 1.135712,-0.865128 0.834567,-1.445514 L 83.353672,59.026793 c -0.30114,-0.580385 -0.81393,-1.0038 -1.44551,-0.834568 z"
       sodipodi:nodetypes="sssssssss" />
    <path
       style="fill:none;stroke:#000000;stroke-width:0.264583px;stroke-linecap:butt;stroke-linejoin:miter;stroke-opacity:1"
       d="m 76.071192,57.070185 c 0,0 0.734958,0.511559 0.535889,0.772499 -0.199066,0.260941 -0.432002,-0.271449 -0.832842,0.622785"
       id="path29037"
       sodipodi:nodetypes="csc" />
    <rect
       style="fill:#cfd8dc;stroke:#000000;stroke-width:0.236306;stroke-miterlimit:4;stroke-dasharray:none"
       id="rect28658-2"
       width="3.1688435"
       height="18.07716"
       x="126.41586"
       y="43.349056"
       ry="1.1821342" />
    <rect
       style="fill:#cfd8dc;stroke:#000000;stroke-width:0.236306;stroke-miterlimit:4;stroke-dasharray:none"
       id="rect28658-1-7"
       width="3.1688435"
       height="18.07716"
       x="130.2373"
       y="43.349056"
       ry="1.1821342" />
    <rect
       style="fill:#cfd8dc;stroke:#000000;stroke-width:0.236306;stroke-miterlimit:4;stroke-dasharray:none"
       id="rect28658-4-9"
       width="3.1688435"
       height="18.07716"
       x="134.05876"
       y="43.349056"
       ry="1.1821342" />
    <rect
       style="fill:#cfd8dc;stroke:#000000;stroke-width:0.236306;stroke-miterlimit:4;stroke-dasharray:none"
       id="rect28658-7-0"
       width="3.1688435"
       height="18.07716"
       x="137.8802"
       y="43.349056"
       ry="1.1821342" />
    <rect
       style="fill:#cfd8dc;stroke:#000000;stroke-width:0.236306;stroke-miterlimit:4;stroke-dasharray:none"
       id="rect28658-73-6"
       width="3.1688435"
       height="18.07716"
       x="141.70166"
       y="43.349056"
       ry="1.1821342" />
    <rect
       style="fill:#cfd8dc;stroke:#000000;stroke-width:0.236306;stroke-miterlimit:4;stroke-dasharray:none"
       id="rect28658-73-6-6"
       width="3.1688435"
       height="18.07716"
       x="145.5231"
       y="43.287388"
       ry="1.1821342" />
    <path
       style="fill:none;stroke:#000000;stroke-width:0.264583px;stroke-linecap:butt;stroke-linejoin:miter;stroke-opacity:1"
       d="m 116.97523,61.46957 c 0,0 -0.82713,2.200677 5.56941,2.200677 6.39654,0 5.56941,-2.200677 5.56941,-2.200677"
       id="path29237"
       sodipodi:nodetypes="czc" />
    <path
       style="fill:#eceff1;stroke:#000000;stroke-width:0;stroke-miterlimit:4;stroke-dasharray:none"
       id="path29352"
       sodipodi:type="arc"
       sodipodi:cx="160.05177"
       sodipodi:cy="74.544487"
       sodipodi:rx="8.5516214"
       sodipodi:ry="8.5516214"
       sodipodi:start="0"
       sodipodi:end="0.0019999774"
       sodipodi:arc-type="slice"
       d="m 168.60339,74.544487 a 8.5516214,8.5516214 0 0 1 -1e-5,0.0171 l -8.55161,-0.0171 z" />
    <path
       id="path29354"
       style="fill:#eceff1;stroke:#000000;stroke-width:0.264583;stroke-miterlimit:4;stroke-dasharray:none"
       d="m 171.1433,74.658209 c 1.04702,4.292241 -3.58158,7.999673 -7.99967,7.999675 -4.4181,2e-6 -8.38544,-1.464214 -7.85026,-5.84978 0.43391,-3.555677 5.1559,1.384521 7.85943,-2.109841 2.60367,-3.365291 6.03856,-8.041994 7.9905,-0.04005 z"
       sodipodi:nodetypes="sssss" />
    <path
       style="fill:none;stroke:#000000;stroke-width:0.264583px;stroke-linecap:butt;stroke-linejoin:miter;stroke-opacity:1"
       d="m 147.39703,61.395565 c 0,0 0.0829,3.755584 3.03237,4.684797"
       id="path28695-47-7"
       sodipodi:nodetypes="cc" />
    <path
       style="fill:none;stroke:#000000;stroke-width:0.264583;stroke-linecap:butt;stroke-linejoin:miter;stroke-miterlimit:4;stroke-dasharray:none;stroke-opacity:1"
       d="m 82.060978,44.692026 c 0,0 -1.871668,0.151711 -2.059938,-0.763742 -0.18826,-0.915453 0,-2.239018 0,-2.239018 0.45479,-1.082542 1.48028,-3.079508 3.65083,-3.241856 2.09872,-0.156975 5.828986,-0.234318 4.7672,3.162181"
       id="path28834-2"
       sodipodi:nodetypes="csssc" />
    <path
       style="fill:none;stroke:#000000;stroke-width:0.264583px;stroke-linecap:butt;stroke-linejoin:miter;stroke-opacity:1"
       d="m 80.782924,57.070185 c 0,0 -0.734958,0.511559 -0.535889,0.772499 0.199066,0.260941 0.432002,-0.271449 0.832842,0.622785"
       id="path29037-5"
       sodipodi:nodetypes="csc" />
    <path
       style="fill:none;stroke:#000000;stroke-width:0.264583px;stroke-linecap:butt;stroke-linejoin:miter;stroke-opacity:1"
       d="m 127.8097,43.362021 c 0,0 -0.20185,-1.200599 2.02355,-1.247371 2.22541,-0.04677 2.02356,1.247371 2.02356,1.247371"
       id="path29467"
       sodipodi:nodetypes="czc" />
    <path
       style="fill:none;stroke:#000000;stroke-width:0.264583px;stroke-linecap:butt;stroke-linejoin:miter;stroke-opacity:1"
       d="m 135.51946,43.362021 c 0,0 -0.20185,-1.200599 2.02355,-1.247371 2.22541,-0.04677 2.02356,1.247371 2.02356,1.247371"
       id="path29467-6"
       sodipodi:nodetypes="czc" />
    <path
       style="fill:none;stroke:#000000;stroke-width:0.264583px;stroke-linecap:butt;stroke-linejoin:miter;stroke-opacity:1"
       d="m 143.22922,43.362021 c 0,0 -0.20185,-1.200599 2.02355,-1.247371 2.22541,-0.04677 2.02356,1.247371 2.02356,1.247371"
       id="path29467-9"
       sodipodi:nodetypes="czc" />
    <path
       style="fill:none;stroke:#000000;stroke-width:0.264583px;stroke-linecap:butt;stroke-linejoin:miter;stroke-opacity:1"
       d="m 131.70677,61.377988 c 0,0 -0.20185,1.200599 2.02355,1.247371 2.22541,0.04677 2.02356,-1.247371 2.02356,-1.247371"
       id="path29467-67"
       sodipodi:nodetypes="czc" />
    <path
       style="fill:none;stroke:#000000;stroke-width:0.264583px;stroke-linecap:butt;stroke-linejoin:miter;stroke-opacity:1"
       d="m 139.41653,61.377988 c 0,0 -0.20185,1.200599 2.02355,1.247371 2.22541,0.04677 2.02356,-1.247371 2.02356,-1.247371"
       id="path29467-6-6"
       sodipodi:nodetypes="czc" />
    <rect
       style="fill:#eceff1;stroke:#000000;stroke-width:0.236306;stroke-miterlimit:4;stroke-dasharray:none"
       id="rect28658-2-7"
       width="3.1688435"
       height="18.077162"
       x="-178.63673"
       y="43.349056"
       ry="1.1821343"
       transform="scale(-1,1)" />
    <rect
       style="fill:#eceff1;stroke:#000000;stroke-width:0.236306;stroke-miterlimit:4;stroke-dasharray:none"
       id="rect28658-1-7-4"
       width="3.1688435"
       height="18.077162"
       x="-174.81529"
       y="43.349056"
       ry="1.1821343"
       transform="scale(-1,1)" />
    <rect
       style="fill:#eceff1;stroke:#000000;stroke-width:0.236306;stroke-miterlimit:4;stroke-dasharray:none"
       id="rect28658-4-9-4"
       width="3.1688435"
       height="18.077162"
       x="-170.99384"
       y="43.349056"
       ry="1.1821343"
       transform="scale(-1,1)" />
    <rect
       style="fill:#eceff1;stroke:#000000;stroke-width:0.236306;stroke-miterlimit:4;stroke-dasharray:none"
       id="rect28658-7-0-6"
       width="3.1688435"
       height="18.077162"
       x="-167.17239"
       y="43.349056"
       ry="1.1821343"
       transform="scale(-1,1)" />
    <rect
       style="fill:#eceff1;stroke:#000000;stroke-width:0.236306;stroke-miterlimit:4;stroke-dasharray:none"
       id="rect28658-73-6-3"
       width="3.1688435"
       height="18.077162"
       x="-163.35094"
       y="43.349056"
       ry="1.1821343"
       transform="scale(-1,1)" />
    <rect
       style="fill:#eceff1;stroke:#000000;stroke-width:0.236306;stroke-miterlimit:4;stroke-dasharray:none"
       id="rect28658-73-6-6-9"
       width="3.1688435"
       height="18.077162"
       x="-159.52951"
       y="43.287388"
       ry="1.1821343"
       transform="scale(-1,1)" />
    <path
       style="fill:none;stroke:#000000;stroke-width:0.264583px;stroke-linecap:butt;stroke-linejoin:miter;stroke-opacity:1"
       d="m 157.65556,61.395562 c 0,0 4.68932,0.697956 4.57648,2.805158"
       id="path28695-47-7-2"
       sodipodi:nodetypes="cc" />
    <path
       style="fill:none;stroke:#000000;stroke-width:0.264583px;stroke-linecap:butt;stroke-linejoin:miter;stroke-opacity:1"
       d="m 177.24289,43.362018 c 0,0 0.20185,-1.200599 -2.02355,-1.247371 -2.22541,-0.04677 -2.02356,1.247371 -2.02356,1.247371"
       id="path29467-3"
       sodipodi:nodetypes="czc" />
    <path
       style="fill:none;stroke:#000000;stroke-width:0.264583px;stroke-linecap:butt;stroke-linejoin:miter;stroke-opacity:1"
       d="m 169.53313,43.362018 c 0,0 0.20185,-1.200599 -2.02355,-1.247371 -2.22541,-0.04677 -2.02356,1.247371 -2.02356,1.247371"
       id="path29467-6-0"
       sodipodi:nodetypes="czc" />
    <path
       style="fill:none;stroke:#000000;stroke-width:0.264583px;stroke-linecap:butt;stroke-linejoin:miter;stroke-opacity:1"
       d="m 161.82337,43.362018 c 0,0 0.20185,-1.200599 -2.02355,-1.247371 -2.22541,-0.04677 -2.02357,1.247371 -2.02357,1.247371"
       id="path29467-9-1"
       sodipodi:nodetypes="czc" />
    <path
       style="fill:none;stroke:#000000;stroke-width:0.264583px;stroke-linecap:butt;stroke-linejoin:miter;stroke-opacity:1"
       d="m 173.34582,61.377985 c 0,0 0.20185,1.200599 -2.02355,1.247371 -2.22541,0.04677 -2.02356,-1.247371 -2.02356,-1.247371"
       id="path29467-67-6"
       sodipodi:nodetypes="czc" />
    <path
       style="fill:none;stroke:#000000;stroke-width:0.264583px;stroke-linecap:butt;stroke-linejoin:miter;stroke-opacity:1"
       d="m 165.63606,61.377985 c 0,0 0.20185,1.200599 -2.02355,1.247371 -2.22542,0.04677 -2.02357,-1.247371 -2.02357,-1.247371"
       id="path29467-6-6-6"
       sodipodi:nodetypes="czc" />
    <path
       id="path29354-5"
       style="fill:#cfd8dc;stroke:#000000;stroke-width:0.264583;stroke-miterlimit:4;stroke-dasharray:none"
       d="m 149.15641,71.108859 c -1.04702,-4.292241 3.58158,-7.999673 7.99967,-7.999675 4.4181,-2e-6 8.38544,1.464214 7.85026,5.84978 -0.43391,3.555677 -5.1559,-1.384521 -7.85943,2.109841 -2.60367,3.365291 -6.03856,8.041994 -7.9905,0.04005 z"
       sodipodi:nodetypes="sssss" />
    <path
       style="fill:none;stroke:#000000;stroke-width:0.264583px;stroke-linecap:butt;stroke-linejoin:miter;stroke-opacity:1"
       d="m 177.15914,61.514364 c 0,0 -0.0678,3.080552 -1.42867,5.548132 -1.36082,2.46758 -4.01462,4.322187 -5.48936,4.786793"
       id="path28695-47-7-4"
       sodipodi:nodetypes="csc" />
    <path
       style="fill:none;stroke:#000000;stroke-width:0.264583px;stroke-linecap:butt;stroke-linejoin:miter;stroke-opacity:1"
       d="m 156.00878,79.948804 c 0,0 -2.88122,-0.28896 -2.87164,1.93212"
       id="path28695-9-0-5" />
    <rect
       style="fill:#546e7a;stroke:#000000;stroke-width:0.236306;stroke-miterlimit:4;stroke-dasharray:none"
       id="rect28658-1-7-1"
       width="3.1688435"
       height="18.077162"
       x="99.922073"
       y="43.410725"
       ry="1.1821343" />
    <rect
       style="fill:#546e7a;stroke:#000000;stroke-width:0.236306;stroke-miterlimit:4;stroke-dasharray:none"
       id="rect28658-4-9-1"
       width="3.1688435"
       height="18.077162"
       x="103.74354"
       y="43.410725"
       ry="1.1821343" />
    <rect
       style="fill:#546e7a;stroke:#000000;stroke-width:0.236306;stroke-miterlimit:4;stroke-dasharray:none"
       id="rect28658-7-0-1"
       width="3.1688435"
       height="18.077162"
       x="107.56498"
       y="43.410725"
       ry="1.1821343" />
    <rect
       style="fill:#546e7a;stroke:#000000;stroke-width:0.236306;stroke-miterlimit:4;stroke-dasharray:none"
       id="rect28658-73-6-1"
       width="3.1688435"
       height="18.077162"
       x="111.38644"
       y="43.410725"
       ry="1.1821343" />
    <rect
       style="fill:#546e7a;stroke:#000000;stroke-width:0.236306;stroke-miterlimit:4;stroke-dasharray:none"
       id="rect28658-73-6-6-93"
       width="3.1688435"
       height="18.077162"
       x="115.20789"
       y="43.349056"
       ry="1.1821343" />
    <path
       style="fill:none;stroke:#000000;stroke-width:0.264583px;stroke-linecap:butt;stroke-linejoin:miter;stroke-opacity:1"
       d="m 105.20423,43.42369 c 0,0 -0.20185,-1.200599 2.02355,-1.247371 2.22541,-0.04677 2.02356,1.247371 2.02356,1.247371"
       id="path29467-6-67"
       sodipodi:nodetypes="czc" />
    <path
       style="fill:none;stroke:#000000;stroke-width:0.264583px;stroke-linecap:butt;stroke-linejoin:miter;stroke-opacity:1"
       d="m 112.91399,43.42369 c 0,0 -0.20185,-1.200599 2.02355,-1.247371 2.22541,-0.04677 2.02356,1.247371 2.02356,1.247371"
       id="path29467-9-2"
       sodipodi:nodetypes="czc" />
    <path
       style="fill:none;stroke:#000000;stroke-width:0.264583px;stroke-linecap:butt;stroke-linejoin:miter;stroke-opacity:1"
       d="m 101.39154,61.439657 c 0,0 -0.20185,1.200599 2.02355,1.247371 2.22541,0.04677 2.02356,-1.247371 2.02356,-1.247371"
       id="path29467-67-4"
       sodipodi:nodetypes="czc" />
    <path
       style="fill:none;stroke:#000000;stroke-width:0.264583px;stroke-linecap:butt;stroke-linejoin:miter;stroke-opacity:1"
       d="m 109.1013,61.439657 c 0,0 -0.20185,1.200599 2.02355,1.247371 2.22541,0.04677 2.02356,-1.247371 2.02356,-1.247371"
       id="path29467-6-6-4"
       sodipodi:nodetypes="czc" />
    <path
       style="fill:none;stroke:#000000;stroke-width:0.264583px;stroke-linecap:butt;stroke-linejoin:miter;stroke-opacity:1"
       d="m 98.674154,41.507247 c 0,0 2.881206,-0.28896 2.871626,1.93212"
       id="path28695-9-0-1" />
    <path
       style="fill:none;stroke:#000000;stroke-width:0.264583px;stroke-linecap:butt;stroke-linejoin:miter;stroke-opacity:1"
       d="M 61.854369,31.195164 H 95.889091"
       id="path29691" />
    <path
       style="fill:none;stroke:#000000;stroke-width:0.264583px;stroke-linecap:butt;stroke-linejoin:miter;stroke-opacity:1"
       d="m 61.854369,31.195164 v 2.48196"
       id="path29693" />
    <path
       style="fill:none;stroke:#000000;stroke-width:0.264583px;stroke-linecap:butt;stroke-linejoin:miter;stroke-opacity:1"
       d="m 95.889091,31.195164 v 2.48196"
       id="path29693-9" />
    <path
       style="fill:none;stroke:#000000;stroke-width:0.264583px;stroke-linecap:butt;stroke-linejoin:miter;stroke-opacity:1"
       d="m 78.87173,28.845495 v 2.48196"
       id="path29693-9-1" />
    <text
       xml:space="preserve"
       style="font-stretch:condensed;font-size:3.52777px;line-height:1.25;font-family:'Noto Sans';-inkscape-font-specification:'Noto Sans, Condensed';letter-spacing:0px;word-spacing:0px;writing-mode:lr-tb;stroke-width:0.264583"
       x="74.858902"
       y="28.21983"
       id="text29727"><tspan
         sodipodi:role="line"
         id="tspan29725"
         x="74.858902"
         y="28.21983"
         style="stroke-width:0.264583">Kir6.2</tspan></text>
    <path
       style="fill:none;stroke:#000000;stroke-width:0.264583px;stroke-linecap:butt;stroke-linejoin:miter;stroke-opacity:1"
       d="m 98.8653,31.195164 h 79.61094"
       id="path29691-5"
       sodipodi:nodetypes="cc" />
    <path
       style="fill:none;stroke:#000000;stroke-width:0.264583px;stroke-linecap:butt;stroke-linejoin:miter;stroke-opacity:1"
       d="m 98.8653,31.195164 v 2.48196"
       id="path29693-5" />
    <path
       style="fill:none;stroke:#000000;stroke-width:0.264583px;stroke-linecap:butt;stroke-linejoin:miter;stroke-opacity:1"
       d="m 178.47624,31.195164 v 2.48196"
       id="path29693-9-0" />
    <path
       style="fill:none;stroke:#000000;stroke-width:0.264583px;stroke-linecap:butt;stroke-linejoin:miter;stroke-opacity:1"
       d="m 138.67077,28.845495 v 2.48196"
       id="path29693-9-1-1" />
    <text
       xml:space="preserve"
       style="font-stretch:condensed;font-size:3.52777px;line-height:1.25;font-family:'Noto Sans';-inkscape-font-specification:'Noto Sans, Condensed';letter-spacing:0px;word-spacing:0px;writing-mode:lr-tb;stroke-width:0.264583"
       x="135.31587"
       y="28.21983"
       id="text29727-6"><tspan
         sodipodi:role="line"
         id="tspan29725-6"
         x="135.31587"
         y="28.21983"
         style="stroke-width:0.264583">SUR1</tspan></text>
    <path
       style="fill:none;stroke:#000000;stroke-width:0.264583px;stroke-linecap:butt;stroke-linejoin:miter;stroke-opacity:1"
       d="M 98.317865,39.025287 H 118.57772"
       id="path29691-59"
       sodipodi:nodetypes="cc" />
    <path
       style="fill:none;stroke:#000000;stroke-width:0.264583px;stroke-linecap:butt;stroke-linejoin:miter;stroke-opacity:1"
       d="m 98.317865,39.025287 v 2.48196"
       id="path29693-7" />
    <path
       style="fill:none;stroke:#000000;stroke-width:0.264583px;stroke-linecap:butt;stroke-linejoin:miter;stroke-opacity:1"
       d="m 118.57772,39.025287 v 2.48196"
       id="path29693-9-6" />
    <path
       style="fill:none;stroke:#000000;stroke-width:0.264583px;stroke-linecap:butt;stroke-linejoin:miter;stroke-opacity:1"
       d="m 108.44779,36.675618 v 2.48196"
       id="path29693-9-1-7" />
    <text
       xml:space="preserve"
       style="font-stretch:condensed;font-size:3.52777px;line-height:1.25;font-family:'Noto Sans';-inkscape-font-specification:'Noto Sans, Condensed';letter-spacing:0px;word-spacing:0px;writing-mode:lr-tb;stroke-width:0.264583"
       x="104.51962"
       y="36.03215"
       id="text29785"><tspan
         sodipodi:role="line"
         id="tspan29783"
         x="104.51962"
         y="36.03215"
         style="stroke-width:0.264583">TMD0</tspan></text>
    <path
       style="fill:none;stroke:#000000;stroke-width:0.264583px;stroke-linecap:butt;stroke-linejoin:miter;stroke-opacity:1"
       d="M 126.28576,39.025287 H 149.6952"
       id="path29691-59-3"
       sodipodi:nodetypes="cc" />
    <path
       style="fill:none;stroke:#000000;stroke-width:0.264583px;stroke-linecap:butt;stroke-linejoin:miter;stroke-opacity:1"
       d="m 126.28576,39.025287 v 2.48196"
       id="path29693-7-9" />
    <path
       style="fill:none;stroke:#000000;stroke-width:0.264583px;stroke-linecap:butt;stroke-linejoin:miter;stroke-opacity:1"
       d="m 149.6952,39.025287 v 2.48196"
       id="path29693-9-6-6" />
    <path
       style="fill:none;stroke:#000000;stroke-width:0.264583px;stroke-linecap:butt;stroke-linejoin:miter;stroke-opacity:1"
       d="m 137.99048,36.675618 v 2.48196"
       id="path29693-9-1-7-8" />
    <text
       xml:space="preserve"
       style="font-stretch:condensed;font-size:3.52777px;line-height:1.25;font-family:'Noto Sans';-inkscape-font-specification:'Noto Sans, Condensed';letter-spacing:0px;word-spacing:0px;writing-mode:lr-tb;stroke-width:0.264583"
       x="134.26692"
       y="36.032154"
       id="text29785-5"><tspan
         sodipodi:role="line"
         id="tspan29783-3"
         x="134.26692"
         y="36.032154"
         style="stroke-width:0.264583">TMD1</tspan></text>
    <path
       style="fill:none;stroke:#000000;stroke-width:0.264583px;stroke-linecap:butt;stroke-linejoin:miter;stroke-opacity:1"
       d="m 155.44664,39.025287 h 23.40944"
       id="path29691-59-3-2"
       sodipodi:nodetypes="cc" />
    <path
       style="fill:none;stroke:#000000;stroke-width:0.264583px;stroke-linecap:butt;stroke-linejoin:miter;stroke-opacity:1"
       d="m 155.44664,39.025287 v 2.48196"
       id="path29693-7-9-7" />
    <path
       style="fill:none;stroke:#000000;stroke-width:0.264583px;stroke-linecap:butt;stroke-linejoin:miter;stroke-opacity:1"
       d="m 178.85608,39.025287 v 2.48196"
       id="path29693-9-6-6-6" />
    <path
       style="fill:none;stroke:#000000;stroke-width:0.264583px;stroke-linecap:butt;stroke-linejoin:miter;stroke-opacity:1"
       d="m 167.15136,36.675618 v 2.48196"
       id="path29693-9-1-7-8-5" />
    <text
       xml:space="preserve"
       style="font-stretch:condensed;font-size:3.52777px;line-height:1.25;font-family:'Noto Sans';-inkscape-font-specification:'Noto Sans, Condensed';letter-spacing:0px;word-spacing:0px;writing-mode:lr-tb;stroke-width:0.264583"
       x="163.23201"
       y="36.032154"
       id="text29785-5-8"><tspan
         sodipodi:role="line"
         id="tspan29783-3-1"
         x="163.23201"
         y="36.032154"
         style="stroke-width:0.264583">TMD2</tspan></text>
    <text
       xml:space="preserve"
       style="font-stretch:condensed;font-size:3.52777px;line-height:1.25;font-family:'Noto Sans';-inkscape-font-specification:'Noto Sans, Condensed';letter-spacing:0px;word-spacing:0px;writing-mode:lr-tb;stroke-width:0.264583"
       x="140.41815"
       y="72.228188"
       id="text29849"><tspan
         sodipodi:role="line"
         id="tspan29847"
         x="140.41815"
         y="72.228188"
         style="stroke-width:0.264583">NBD1</tspan></text>
    <text
       xml:space="preserve"
       style="font-stretch:condensed;font-size:3.52777px;line-height:1.25;font-family:'Noto Sans';-inkscape-font-specification:'Noto Sans, Condensed';letter-spacing:0px;word-spacing:0px;writing-mode:lr-tb;stroke-width:0.264583"
       x="166.35364"
       y="85.68972"
       id="text29853"><tspan
         sodipodi:role="line"
         id="tspan29851"
         x="166.35364"
         y="85.68972"
         style="stroke-width:0.264583">NBD2</tspan></text>
  </g>
</svg>
