<?xml version="1.0" encoding="UTF-8" standalone="no"?>
<svg
   xmlns:dc="http://purl.org/dc/elements/1.1/"
   xmlns:cc="http://creativecommons.org/ns#"
   xmlns:rdf="http://www.w3.org/1999/02/22-rdf-syntax-ns#"
   xmlns:svg="http://www.w3.org/2000/svg"
   xmlns="http://www.w3.org/2000/svg"
   xmlns:sodipodi="http://sodipodi.sourceforge.net/DTD/sodipodi-0.dtd"
   xmlns:inkscape="http://www.inkscape.org/namespaces/inkscape"
   width="151.07288mm"
   height="65.232933mm"
   viewBox="0 0 151.07287 65.232932"
   version="1.1"
   id="svg8"
   inkscape:version="1.0.1 (3bc2e813f5, 2020-09-07, custom)"
   sodipodi:docname="shyng_atp_pip_trace.svg">
  <defs
     id="defs2">
    <marker
       style="overflow:visible"
       id="Arrow1Mstart"
       refX="0"
       refY="0"
       orient="auto"
       inkscape:stockid="Arrow1Mstart"
       inkscape:isstock="true">
      <path
         transform="matrix(0.4,0,0,0.4,4,0)"
         style="fill:#000000;fill-opacity:1;fill-rule:evenodd;stroke:#000000;stroke-width:1pt;stroke-opacity:1"
         d="M 0,0 5,-5 -12.5,0 5,5 Z"
         id="path960" />
    </marker>
    <marker
       style="overflow:visible"
       id="marker1408"
       refX="0"
       refY="0"
       orient="auto"
       inkscape:stockid="Arrow1Mend"
       inkscape:isstock="true">
      <path
         transform="matrix(-0.4,0,0,-0.4,-4,0)"
         style="fill:#000000;fill-opacity:1;fill-rule:evenodd;stroke:#000000;stroke-width:1pt;stroke-opacity:1"
         d="M 0,0 5,-5 -12.5,0 5,5 Z"
         id="path1406" />
    </marker>
    <marker
       style="overflow:visible"
       id="marker1252"
       refX="0"
       refY="0"
       orient="auto"
       inkscape:stockid="Arrow1Mend"
       inkscape:isstock="true">
      <path
         transform="matrix(-0.4,0,0,-0.4,-4,0)"
         style="fill:#000000;fill-opacity:1;fill-rule:evenodd;stroke:#000000;stroke-width:1pt;stroke-opacity:1"
         d="M 0,0 5,-5 -12.5,0 5,5 Z"
         id="path1250" />
    </marker>
    <marker
       style="overflow:visible"
       id="Arrow1Lend"
       refX="0"
       refY="0"
       orient="auto"
       inkscape:stockid="Arrow1Lend"
       inkscape:isstock="true">
      <path
         transform="matrix(-0.8,0,0,-0.8,-10,0)"
         style="fill:#000000;fill-opacity:1;fill-rule:evenodd;stroke:#000000;stroke-width:1pt;stroke-opacity:1"
         d="M 0,0 5,-5 -12.5,0 5,5 Z"
         id="path957" />
    </marker>
    <clipPath
       clipPathUnits="userSpaceOnUse"
       id="clipPath901">
      <rect
         style="fill:#66c2a5;stroke:#fb8c00;stroke-width:0.264583;stroke-miterlimit:10;stroke-dasharray:0.529167, 0.264583"
         id="rect903"
         width="123.32011"
         height="99.271881"
         x="17.113274"
         y="3.1748478" />
    </clipPath>
  </defs>
  <sodipodi:namedview
     id="base"
     pagecolor="#ffffff"
     bordercolor="#666666"
     borderopacity="1.0"
     inkscape:pageopacity="0.0"
     inkscape:pageshadow="2"
     inkscape:zoom="0.70710678"
     inkscape:cx="245.21265"
     inkscape:cy="-9.8199652"
     inkscape:document-units="mm"
     inkscape:current-layer="layer1"
     inkscape:document-rotation="0"
     showgrid="false"
     inkscape:window-width="1366"
     inkscape:window-height="768"
     inkscape:window-x="0"
     inkscape:window-y="0"
     inkscape:window-maximized="1"
     showguides="false"
     inkscape:snap-global="true" />
  <metadata
     id="metadata5">
    <rdf:RDF>
      <cc:Work
         rdf:about="">
        <dc:format>image/svg+xml</dc:format>
        <dc:type
           rdf:resource="http://purl.org/dc/dcmitype/StillImage" />
        <dc:title></dc:title>
      </cc:Work>
    </rdf:RDF>
  </metadata>
  <g
     inkscape:label="Layer 1"
     inkscape:groupmode="layer"
     id="layer1"
     transform="translate(-33.445456,-95.364159)">
    <g
       id="g4900">
      <path
         style="fill:#000000;stroke-width:0.264583"
         d="m 43.940961,151.42627 c -1.105756,-0.12723 -0.907654,-0.79548 0.264584,-0.8925 l 0.992187,-0.0821 0.142021,-18.65312 c 0.07811,-10.25922 0.167408,-18.69305 0.198437,-18.74185 0.108784,-0.17107 3.376916,0.15837 4.686626,0.47244 0.727604,0.17448 1.739635,0.50918 2.248958,0.74379 0.509323,0.23461 1.640416,0.47795 2.513541,0.54075 0.873125,0.0628 1.736329,0.23374 1.91823,0.37984 0.258582,0.20771 0.330729,4.08932 0.330729,17.79364 v 17.52799 l 1.256771,0.18094 c 0.691224,0.0995 1.73302,0.16585 2.315104,0.1474 1.954676,-0.0619 4.75364,-0.0649 5.820834,-0.006 1.863124,0.10264 1.905516,0.0814 2.08602,-1.04744 0.0931,-0.58223 0.225647,-4.83871 0.294547,-9.45886 0.232766,-15.60843 0.382405,-18.843 0.920368,-19.89444 0.660708,-1.29134 2.200609,-2.82131 3.055612,-3.0359 0.711381,-0.17855 2.298277,-1.17296 2.462895,-1.54335 0.04851,-0.10914 0.256868,-0.19844 0.463021,-0.19844 0.206156,0 0.374827,-0.1096 0.374827,-0.24356 0,-0.13396 0.352084,-0.32089 0.78241,-0.41541 0.430327,-0.0945 1.258011,-0.40163 1.839301,-0.68248 0.581293,-0.28085 1.231318,-0.51063 1.444501,-0.51063 0.213185,0 0.429204,-0.12479 0.480044,-0.27732 0.05084,-0.15252 0.778629,-0.34813 1.617306,-0.43469 0.838679,-0.0866 1.584721,-0.25422 1.657876,-0.37259 0.07315,-0.11836 0.297043,-0.15227 0.497531,-0.0753 0.200485,0.0769 0.702687,-0.03 1.116004,-0.23772 0.945351,-0.47502 4.060978,-1.09625 7.087915,-1.41329 0.72014,-0.0754 1.530091,-0.25528 1.799892,-0.39967 0.566038,-0.30293 2.392827,-0.37546 2.819235,-0.11192 0.205021,0.12671 0.290415,5.93268 0.293286,19.94075 0.0021,10.86909 0.09152,19.88802 0.198437,20.04205 0.165002,0.23773 5.909919,0.32858 9.746319,0.15413 l 0.82069,-0.0373 0.14573,-20.43907 c 0.0801,-11.24148 0.23154,-20.65249 0.33642,-20.91335 0.10488,-0.26086 0.62249,-0.69118 1.15025,-0.95627 1.05835,-0.5316 3.46887,-1.15971 4.03691,-1.05189 0.19922,0.0378 0.71942,-0.0108 1.15598,-0.10792 0.43656,-0.0972 2.0439,-0.25036 3.57187,-0.34044 1.52797,-0.0901 3.25438,-0.21615 3.83646,-0.28014 0.58208,-0.064 1.23693,-0.12529 1.45521,-0.13621 0.21828,-0.0109 1.82562,-0.19409 3.57187,-0.40705 4.72453,-0.57616 7.64038,-0.75975 9.54886,-0.60121 l 0.8176,0.0679 0.17421,10.08125 c 0.0958,5.54469 0.17438,15.6394 0.17458,22.43269 5.3e-4,13.89525 -0.2122,12.62072 2.09429,12.55345 l 1.16786,-0.0341 0.10853,-1.32291 c 0.0597,-0.72761 0.18899,-1.39779 0.28734,-1.4893 0.25904,-0.24102 3.6424,-0.46094 3.97062,-0.25809 0.15257,0.0943 0.31433,0.81419 0.35947,1.59978 0.0773,1.3461 0.12535,1.43406 0.83389,1.52787 1.57963,0.20913 1.49523,1.45336 1.51817,-22.38089 0.0193,-20.05666 0.13658,-25.94414 0.52453,-26.3321 0.0788,-0.0788 0.90555,0.0876 1.83726,0.36967 2.59651,0.78616 6.21626,0.98557 20.20565,1.11315 2.91296,0.36223 6.22267,-0.59591 8.61612,0.86559 l -0.53507,0.70286 c 0,0 -1.00561,-0.51655 -6.41614,-0.55123 -3.22565,-0.0207 -7.41263,-0.0508 -9.3044,-0.0669 -1.89177,-0.0161 -4.09444,-0.0123 -4.8948,0.008 -2.24123,0.0582 -6.35356,-0.43235 -7.62923,-0.91002 -0.87263,-0.32676 -1.22067,-0.35579 -1.45521,-0.12139 -0.22803,0.2279 -0.34271,6.46268 -0.44056,23.95339 -0.0728,13.00491 -0.22798,23.7409 -0.34494,23.85775 -0.11695,0.11685 -1.03968,0.25919 -2.05052,0.31631 -1.55736,0.088 -1.07093,-0.25651 -1.07093,-0.25651 0,0 0.054,-0.65616 0.0268,-1.40145 0,-0.84945 -0.0557,-0.90802 -0.85989,-0.90327 -0.47295,0.003 -1.24685,0.12313 -1.71979,0.26741 -0.69534,0.21212 -0.8599,0.40018 -0.8599,0.98264 0,1.0789 -0.46081,1.35532 -2.2594,1.35532 -1.50996,0 -1.64933,-0.0513 -1.97809,-0.72761 -0.28335,-0.58291 -0.37645,-5.01583 -0.4682,-22.29114 -0.0836,-15.74657 -0.19596,-21.61716 -0.4164,-21.7623 -0.43639,-0.28731 -9.32899,0.28123 -11.56531,0.73942 -0.72678,0.14891 -2.13822,0.32176 -4.08239,0.49994 -1.43629,0.13163 -5.52336,0.605 -7.01146,0.81208 -0.50932,0.0709 -1.40887,0.18387 -1.99899,0.2511 -0.59013,0.0672 -1.3045,0.20782 -1.5875,0.31243 -0.834,0.30827 -1.67133,1.3583 -1.81897,2.28101 -0.0756,0.47246 -0.1705,9.45687 -0.21089,19.96535 -0.0699,18.19418 0.0851,19.86435 0.0851,19.86435 0,0 -9.08713,0.0403 -11.534383,0.0554 l -0.39347,-0.49743 -0.06785,-19.8226 c -0.06612,-19.31769 -0.07279,-19.49935 -0.597014,-19.45488 -0.863949,0.0733 -2.883448,0.67292 -3.260058,0.96799 -0.192302,0.15066 -0.847146,0.30903 -1.455208,0.35191 -3.228487,0.22772 -3.966017,0.3315 -4.229685,0.59517 -0.158954,0.15895 -0.562851,0.289 -0.897549,0.289 -0.334698,0 -0.608541,0.10339 -0.608541,0.22975 0,0.2203 -1.037178,0.44699 -3.307292,0.72285 -1.28742,0.15645 -2.670527,0.76663 -2.860619,1.262 -0.07704,0.20076 -0.476944,0.43507 -0.888683,0.52071 -0.411739,0.0856 -1.135568,0.23311 -1.608509,0.32772 -0.472943,0.0946 -0.859896,0.31489 -0.859896,0.48949 0,0.17461 -0.416719,0.48097 -0.926042,0.68082 -0.509323,0.19984 -0.926042,0.44113 -0.926042,0.5362 0,0.0951 -0.47625,0.33002 -1.058333,0.52213 -0.582083,0.19211 -1.058333,0.51256 -1.058333,0.71211 0,0.19956 -0.191582,0.43635 -0.425739,0.5262 -0.65097,0.2498 -1.537954,1.192 -1.897184,2.01528 -0.230105,0.52737 -0.332237,3.22683 -0.355359,9.39271 -0.01786,4.75896 -0.03357,10.94818 -0.198437,13.74633 l -0.347705,5.90162 c 0,0 -3.59231,-0.0158 -5.506816,-0.0152 -6.879168,0 -7.190852,-0.48948 -7.190852,-0.48948 0,0 0.04587,-9.06622 0.0471,-17.2376 v -16.93333 l -0.992187,-0.002 c -0.545703,-8e-4 -1.332001,-0.17886 -1.747329,-0.39547 -0.415328,-0.21662 -0.853586,-0.333 -0.973906,-0.25864 -0.12032,0.0744 -0.293548,0.0142 -0.384952,-0.1337 -0.309286,-0.50043 -1.152999,-0.29261 -1.241036,0.30569 -0.134544,0.9144 -0.746006,0.91845 -0.746006,0.005 0,-0.87145 -0.26053,-1.04609 -2.116667,-1.41887 -1.486858,-0.29861 -2.134859,-0.30663 -2.411637,-0.0299 -0.343051,0.34305 -0.33394,35.62866 0.0092,35.74305 0.157157,0.0524 0.285741,0.25089 0.285741,0.44112 0,0.36695 -1.223775,0.59314 -2.447396,0.45235 z"
         id="path1940"
         sodipodi:nodetypes="cscssssssscsscsssssssssssssscssscssccssscssssscscscsssssssccccsscssssscccssssssssssssscccssssssssssssssssssssccccccssssssssscc" />
      <path
         style="fill:none;stroke:#000000;stroke-width:0.264583;stroke-linecap:butt;stroke-linejoin:miter;stroke-miterlimit:4;stroke-dasharray:0.529167, 0.264583;stroke-dashoffset:0;stroke-opacity:1"
         d="M 43.940947,151.42554 H 184.51833"
         id="path1942" />
      <rect
         style="fill:#ef9a9a;stroke:none;stroke-width:0.150712;stroke-miterlimit:4;stroke-dasharray:0.301425, 0.150712;stroke-dashoffset:0"
         id="rect1944"
         width="5.5150595"
         height="2.713707"
         x="57.049191"
         y="95.364159" />
      <rect
         style="fill:#b71c1c;stroke:none;stroke-width:0.17834;stroke-miterlimit:4;stroke-dasharray:0.356681, 0.17834;stroke-dashoffset:0"
         id="rect1944-3"
         width="7.7223778"
         height="2.7137072"
         x="62.564247"
         y="95.364159" />
      <rect
         style="fill:#fdd835;stroke:none;stroke-width:0.336449;stroke-miterlimit:4;stroke-dasharray:0.672901, 0.336449;stroke-dashoffset:0"
         id="rect1944-3-4"
         width="27.484692"
         height="2.7137074"
         x="70.286629"
         y="98.077873" />
      <rect
         style="fill:#b71c1c;stroke:none;stroke-width:0.126633;stroke-miterlimit:4;stroke-dasharray:0.253267, 0.126633;stroke-dashoffset:0"
         id="rect1944-3-6"
         width="3.8935633"
         height="2.7137074"
         x="97.771317"
         y="95.364159" />
      <rect
         style="fill:#ef9a9a;stroke:none;stroke-width:0.118772;stroke-miterlimit:4;stroke-dasharray:0.237545, 0.118772;stroke-dashoffset:0"
         id="rect1944-2"
         width="3.4251914"
         height="2.7137072"
         x="101.66488"
         y="95.364159" />
      <rect
         style="fill:#b71c1c;stroke:none;stroke-width:0.139051;stroke-miterlimit:4;stroke-dasharray:0.278104, 0.139051;stroke-dashoffset:0"
         id="rect1944-3-6-5"
         width="4.6946507"
         height="2.7137077"
         x="105.09007"
         y="95.364159" />
      <rect
         style="fill:#fdd835;stroke:none;stroke-width:0.34158;stroke-miterlimit:4;stroke-dasharray:0.683165, 0.34158;stroke-dashoffset:0"
         id="rect1944-3-4-3"
         width="28.329456"
         height="2.7137077"
         x="109.78473"
         y="98.077873" />
      <rect
         style="fill:#b71c1c;stroke:none;stroke-width:0.141107;stroke-miterlimit:4;stroke-dasharray:0.282215, 0.141107;stroke-dashoffset:0"
         id="rect1944-3-6-2"
         width="4.8344765"
         height="2.7137077"
         x="138.11418"
         y="95.364159" />
      <rect
         style="fill:#ef9a9a;stroke:none;stroke-width:0.125187;stroke-miterlimit:4;stroke-dasharray:0.250375, 0.125187;stroke-dashoffset:0"
         id="rect1944-2-0"
         width="3.8051925"
         height="2.7137074"
         x="142.94865"
         y="95.364159" />
      <rect
         style="fill:#b71c1c;stroke:none;stroke-width:0.115095;stroke-miterlimit:4;stroke-dasharray:0.23019, 0.115095;stroke-dashoffset:0"
         id="rect1944-3-6-2-0"
         width="3.2163491"
         height="2.7137077"
         x="146.75385"
         y="95.364159" />
      <rect
         style="fill:#fdd835;stroke:none;stroke-width:0.354571;stroke-miterlimit:4;stroke-dasharray:0.709148, 0.354571;stroke-dashoffset:0"
         id="rect1944-3-4-3-0"
         width="30.525345"
         height="2.7137077"
         x="149.97018"
         y="98.077873" />
      <path
         style="fill:none;stroke:#000000;stroke-width:0.529167;stroke-linecap:butt;stroke-linejoin:miter;stroke-miterlimit:4;stroke-dasharray:none;stroke-opacity:1;marker-end:url(#marker1408)"
         d="m 45.421419,101.82896 v 7.23922"
         id="path2096" />
      <text
         xml:space="preserve"
         style="font-stretch:condensed;font-size:3.52777px;line-height:1.25;font-family:'Noto Sans';-inkscape-font-specification:'Noto Sans, Condensed';letter-spacing:0px;word-spacing:0px;writing-mode:lr-tb;stroke-width:0.264583"
         x="35.843555"
         y="100.8446"
         id="text2124"><tspan
           sodipodi:role="line"
           id="tspan2122"
           x="35.843555"
           y="100.8446"
           style="stroke-width:0.264583">Patch excision</tspan></text>
      <text
         xml:space="preserve"
         style="font-style:normal;font-variant:normal;font-weight:normal;font-stretch:condensed;font-size:3.52777px;line-height:1.25;font-family:'Noto Sans';-inkscape-font-specification:'Noto Sans, Condensed';font-variant-ligatures:normal;font-variant-caps:normal;font-variant-numeric:normal;font-variant-east-asian:normal;letter-spacing:0px;word-spacing:0px;writing-mode:lr-tb;fill:#000000;fill-opacity:1;stroke-width:0.264583"
         x="168.56145"
         y="121.79287"
         id="text2176"><tspan
           sodipodi:role="line"
           id="tspan2174"
           x="168.56145"
           y="121.79287"
           style="font-style:normal;font-variant:normal;font-weight:normal;font-stretch:condensed;font-size:3.52777px;font-family:'Noto Sans';-inkscape-font-specification:'Noto Sans, Condensed';font-variant-ligatures:normal;font-variant-caps:normal;font-variant-numeric:normal;font-variant-east-asian:normal;fill:#000000;fill-opacity:1;stroke-width:0.264583">1 mM ATP</tspan></text>
      <text
         xml:space="preserve"
         style="font-style:normal;font-variant:normal;font-weight:normal;font-stretch:condensed;font-size:3.52777px;line-height:1.25;font-family:'Noto Sans';-inkscape-font-specification:'Noto Sans, Condensed';font-variant-ligatures:normal;font-variant-caps:normal;font-variant-numeric:normal;font-variant-east-asian:normal;letter-spacing:0px;word-spacing:0px;writing-mode:lr-tb;fill:#000000;fill-opacity:1;stroke-width:0.264583"
         x="168.56145"
         y="127.97237"
         id="text2180"><tspan
           sodipodi:role="line"
           id="tspan2178"
           x="168.56145"
           y="127.97237"
           style="font-style:normal;font-variant:normal;font-weight:normal;font-stretch:condensed;font-size:3.52777px;font-family:'Noto Sans';-inkscape-font-specification:'Noto Sans, Condensed';font-variant-ligatures:normal;font-variant-caps:normal;font-variant-numeric:normal;font-variant-east-asian:normal;fill:#000000;fill-opacity:1;stroke-width:0.264583">3 mM ATP</tspan></text>
      <text
         xml:space="preserve"
         style="font-style:normal;font-variant:normal;font-weight:normal;font-stretch:condensed;font-size:3.52777px;line-height:1.25;font-family:'Noto Sans';-inkscape-font-specification:'Noto Sans, Condensed';font-variant-ligatures:normal;font-variant-caps:normal;font-variant-numeric:normal;font-variant-east-asian:normal;letter-spacing:0px;word-spacing:0px;writing-mode:lr-tb;fill:#000000;fill-opacity:1;stroke-width:0.265;stroke-miterlimit:4;stroke-dasharray:none"
         x="168.56145"
         y="134.15184"
         id="text2184"><tspan
           sodipodi:role="line"
           id="tspan2182"
           x="168.56145"
           y="134.15184"
           style="font-style:normal;font-variant:normal;font-weight:normal;font-stretch:condensed;font-size:3.52777px;font-family:'Noto Sans';-inkscape-font-specification:'Noto Sans, Condensed';font-variant-ligatures:normal;font-variant-caps:normal;font-variant-numeric:normal;font-variant-east-asian:normal;fill:#000000;fill-opacity:1;stroke-width:0.265;stroke-miterlimit:4;stroke-dasharray:none">5 µM PIP<tspan
   style="font-style:normal;font-variant:normal;font-weight:normal;font-stretch:condensed;font-size:3.52777px;font-family:'Noto Sans';-inkscape-font-specification:'Noto Sans, Condensed';font-variant-ligatures:normal;font-variant-caps:normal;font-variant-numeric:normal;font-variant-east-asian:normal;baseline-shift:sub;fill:#000000;fill-opacity:1;stroke-width:0.265;stroke-miterlimit:4;stroke-dasharray:none"
   id="tspan2186">2</tspan></tspan></text>
      <rect
         style="fill:#fdd835;stroke:none;stroke-width:0.143502;stroke-miterlimit:4;stroke-dasharray:0.287006, 0.143502;stroke-dashoffset:0"
         id="rect1944-3-4-3-0-6"
         width="5"
         height="2.7137077"
         x="162.24908"
         y="131.95891" />
      <rect
         style="fill:#b71c1c;stroke:none;stroke-width:0.143502;stroke-miterlimit:4;stroke-dasharray:0.287006, 0.143502;stroke-dashoffset:0"
         id="rect1944-3-6-2-7"
         width="5"
         height="2.7137077"
         x="162.44104"
         y="125.3561" />
      <rect
         style="fill:#ef9a9a;stroke:none;stroke-width:0.143501;stroke-miterlimit:4;stroke-dasharray:0.287004, 0.143501;stroke-dashoffset:0"
         id="rect1944-2-0-2"
         width="5"
         height="2.7137077"
         x="162.37999"
         y="119.17484" />
      <path
         style="fill:none;stroke:#000000;stroke-width:0.529167;stroke-linecap:butt;stroke-linejoin:miter;stroke-miterlimit:4;stroke-dasharray:none;stroke-opacity:1"
         d="m 37.816558,143.35536 v 13.55231 h 27.520246"
         id="path2233" />
      <text
         xml:space="preserve"
         style="font-stretch:condensed;font-size:3.52777px;line-height:1.25;font-family:'Noto Sans';-inkscape-font-specification:'Noto Sans, Condensed';letter-spacing:0px;word-spacing:0px;writing-mode:lr-tb;stroke-width:0.264583"
         x="-155.87294"
         y="35.999561"
         id="text2237"
         transform="rotate(-90)"><tspan
           sodipodi:role="line"
           id="tspan2235"
           x="-155.87294"
           y="35.999561"
           style="stroke-width:0.264583">1000 pA</tspan></text>
      <text
         xml:space="preserve"
         style="font-stretch:condensed;font-size:3.52777px;line-height:1.25;font-family:'Noto Sans';-inkscape-font-specification:'Noto Sans, Condensed';letter-spacing:0px;word-spacing:0px;writing-mode:lr-tb;stroke-width:0.264583"
         x="45.357235"
         y="160.56181"
         id="text2237-8"><tspan
           sodipodi:role="line"
           id="tspan2235-4"
           x="45.357235"
           y="160.56181"
           style="stroke-width:0.264583">1 minute</tspan></text>
    </g>
  </g>
</svg>
