<?xml version="1.0" encoding="UTF-8" standalone="no"?>
<svg
   xmlns:dc="http://purl.org/dc/elements/1.1/"
   xmlns:cc="http://creativecommons.org/ns#"
   xmlns:rdf="http://www.w3.org/1999/02/22-rdf-syntax-ns#"
   xmlns:svg="http://www.w3.org/2000/svg"
   xmlns="http://www.w3.org/2000/svg"
   xmlns:sodipodi="http://sodipodi.sourceforge.net/DTD/sodipodi-0.dtd"
   xmlns:inkscape="http://www.inkscape.org/namespaces/inkscape"
   width="92.634018mm"
   height="39.297672mm"
   viewBox="0 0 92.634018 39.297672"
   version="1.1"
   id="svg8"
   inkscape:version="1.0.1 (3bc2e813f5, 2020-09-07, custom)"
   sodipodi:docname="single_traces_ploop.svg">
  <defs
     id="defs2" />
  <sodipodi:namedview
     id="base"
     pagecolor="#ffffff"
     bordercolor="#666666"
     borderopacity="1.0"
     inkscape:pageopacity="0.0"
     inkscape:pageshadow="2"
     inkscape:zoom="0.98994949"
     inkscape:cx="116.22312"
     inkscape:cy="97.237211"
     inkscape:document-units="mm"
     inkscape:current-layer="layer1"
     inkscape:document-rotation="0"
     showgrid="false"
     inkscape:window-width="1366"
     inkscape:window-height="768"
     inkscape:window-x="0"
     inkscape:window-y="0"
     inkscape:window-maximized="1"
     inkscape:snap-global="true" />
  <metadata
     id="metadata5">
    <rdf:RDF>
      <cc:Work
         rdf:about="">
        <dc:format>image/svg+xml</dc:format>
        <dc:type
           rdf:resource="http://purl.org/dc/dcmitype/StillImage" />
        <dc:title></dc:title>
      </cc:Work>
    </rdf:RDF>
  </metadata>
  <g
     inkscape:label="Layer 1"
     inkscape:groupmode="layer"
     id="layer1"
     transform="translate(-12.490446,-29.510534)">
    <path
       style="fill:#000000;stroke-width:0.074565"
       d="m 71.617501,43.274744 0.17633,-0.97622 c 0,0 0.10126,-0.8789 0.10212,-2.76942 8.4e-4,-1.6024 0.0275,-2.47929 0.0757,-2.47929 0.041,0 0.0746,0.0359 0.0746,0.0797 0,0.0439 0.0735,0.069 0.16336,0.0559 0.11345,-0.0165 0.18671,-0.10358 0.23976,-0.28481 0.0687,-0.23468 0.0814,-0.18584 0.12614,0.48467 0.0274,0.41011 0.0537,1.17229 0.0585,1.69373 0.008,0.87682 0.0203,0.95428 0.16265,1.03045 0.11423,0.0611 0.1815,0.0595 0.26098,-0.007 0.087,-0.0722 0.10708,-0.38848 0.10708,-1.68289 v -1.59401 h 0.21554 c 0.19305,0 0.21923,0.0292 0.25097,0.27961 0.0195,0.1538 0.0414,0.75011 0.0487,1.32514 0.007,0.57503 0.0447,1.2629 0.0831,1.52858 0.0384,0.26569 0.071,0.80184 0.0724,1.19144 0.001,0.3896 0.0311,0.75325 0.0659,0.8081 0.10389,0.1639 0.40292,0.0728 0.45943,-0.13994 0.0276,-0.10413 0.0546,-0.92621 0.0598,-1.82684 0.0102,-1.75291 0.0728,-2.92522 0.15906,-2.97854 0.0597,-0.0369 0.14801,1.91397 0.15666,3.4594 0.003,0.61444 0.0427,1.1161 0.0999,1.27434 0.0902,0.25004 0.10953,0.26098 0.46036,0.26098 h 0.36617 l 0.06,-0.78294 c 0.033,-0.43061 0.0761,-1.54781 0.0959,-2.48266 0.0296,-1.4001 0.0551,-1.70711 0.14506,-1.74161 0.06,-0.023 0.10916,-0.0926 0.10916,-0.15461 0,-0.0773 0.0696,-0.0446 0.22148,0.10383 l 0.22149,0.21654 0.0209,1.04127 0.0208,1.04127 h 0.22296 c 0.25962,0 0.31285,-0.1472 0.32746,-0.90544 0.006,-0.3324 0.0395,-0.46983 0.12067,-0.50098 0.079,-0.0303 0.11184,-0.15346 0.11184,-0.41871 0,-0.35879 0.007,-0.37155 0.15141,-0.28196 0.18342,0.11367 0.29304,-0.0109 0.29484,-0.33492 8.5e-4,-0.13205 0.041,-0.20505 0.11299,-0.20505 0.0778,0 0.11185,0.0783 0.11185,0.25727 0,0.14435 0.0464,0.28345 0.10574,0.3169 0.10834,0.0611 0.15771,0.72506 0.22623,3.04224 0.0158,0.53314 0.0511,1.17067 0.0784,1.41673 -0.0198,0.93987 0.52612,1.22665 0.52612,1.22665 0,0 0.10742,-0.30545 0.10742,-1.05734 0,-0.82556 0.0163,-0.96194 0.11071,-0.92571 0.19443,0.0746 0.28227,-0.23315 0.24589,-0.86159 -0.0187,-0.32334 -0.006,-0.60525 0.0284,-0.62647 0.0343,-0.0212 0.0624,0.65232 0.0624,1.49675 0,1.32949 0.0158,1.54138 0.11762,1.58047 0.0647,0.0248 0.17306,-0.0103 0.24081,-0.078 0.0996,-0.0996 0.12863,-0.32201 0.15169,-1.16157 l 0.0285,-1.03839 0.21536,-0.0751 0.21535,-0.0751 v -1.61946 c 0,-0.8907 0.0175,-1.60191 0.039,-1.58048 0.0215,0.0214 0.0427,0.35418 0.0473,0.73944 0.0101,0.84589 0.0727,1.05558 0.30532,1.02254 0.1456,-0.0207 0.17746,-0.0893 0.24221,-0.52164 0.0906,-0.6051 0.18642,-0.7363 0.18642,-0.25535 0,0.39784 0.10077,0.64133 0.26544,0.64133 0.16173,0 0.25839,-0.32153 0.2424,-0.80627 -0.0252,-0.76266 0.16687,-1.35362 0.3458,-1.0641 0.0232,0.0376 0.0428,1.03652 0.0436,2.21986 8.5e-4,1.18335 0.0281,2.2515 0.0607,2.37368 0.0488,0.18238 0.0985,0.22215 0.27774,0.22215 h 0.21833 l 0.0196,-2.55386 c 0.0165,-2.15387 0.0363,-2.55385 0.12609,-2.55385 0.17414,0 0.19196,0.0962 0.19535,1.0549 0.002,0.50399 0.0331,0.95237 0.0697,0.99641 0.0366,0.044 0.0765,0.92316 0.0888,1.95362 0.0123,1.03045 0.0482,1.89931 0.0798,1.9308 0.0316,0.0315 0.14899,0.0249 0.26098,-0.0147 0.17956,-0.0634 0.20187,-0.10687 0.189,-0.36807 -0.0225,-0.45581 -0.0226,-0.44743 0.04,-2.94322 0.0324,-1.29184 0.0651,-2.27741 0.0727,-2.19016 0.008,0.0873 0.0641,0.20042 0.12557,0.25147 0.0922,0.0765 0.11185,0.34045 0.11185,1.50277 0,1.2153 0.0162,1.41618 0.11763,1.45509 0.0647,0.0248 0.17207,-0.009 0.23861,-0.0758 0.10174,-0.10173 0.12603,-0.37078 0.15268,-1.69101 0.0174,-0.86351 0.0517,-1.54999 0.0762,-1.5255 0.0245,0.0245 0.0381,1.1373 0.0302,2.47291 -0.009,1.56131 0.0133,2.47995 0.063,2.57282 0.0531,0.0993 0.13984,0.13721 0.27735,0.12133 l 0.20003,-0.0231 0.0373,-2.53521 c 0.0342,-2.32237 0.0467,-2.51651 0.1497,-2.31243 0.12562,0.24894 0.35302,0.33527 0.40977,0.15555 0.0204,-0.0646 0.0531,-0.16845 0.0726,-0.23089 0.0297,-0.0949 0.0605,-0.098 0.18724,-0.0188 0.27395,0.17108 0.26309,0.0545 0.2854,3.06138 0.0119,1.60585 0.0291,1.85374 0.13135,1.89296 0.0647,0.0248 0.17375,-0.0109 0.24234,-0.0794 0.10976,-0.10961 0.12917,-0.41244 0.16199,-2.52677 0.0339,-2.18464 0.0499,-2.42082 0.17634,-2.6073 0.17519,-0.25831 0.27917,-0.25816 0.4182,5.7e-4 0.0805,0.1498 0.12423,0.61313 0.16359,1.73305 0.0295,0.84072 0.07,1.66281 0.0898,1.82685 0.0198,0.16404 0.0385,0.60864 0.0415,0.98799 0.005,0.68313 0.007,0.68972 0.19038,0.68972 0.26197,0 0.29021,-0.18751 0.23701,-1.57369 -0.0288,-0.75155 -0.0189,-1.18522 0.0273,-1.18522 0.0448,0 0.0727,0.55713 0.0727,1.449 0,1.39482 0.006,1.45081 0.15271,1.49746 0.35596,0.11298 0.36924,0.0272 0.36924,-2.38601 v -2.25476 l 0.17064,0.0326 c 0.15803,0.0302 0.17204,0.0749 0.18979,0.60483 0.0881,2.62928 0.11832,2.95829 0.27211,2.95829 0.11316,0 0.15857,-0.0658 0.19345,-0.28045 0.0251,-0.15424 0.0645,-0.29934 0.0876,-0.32245 0.0453,-0.0453 0.16526,1.72137 0.16526,1.72137 l 0.0365,0.72701 0.1776,0.0559 0.3534,-0.76819 c 0,0 0.0189,-0.57572 0.0821,-0.4022 0.0486,0.13325 0.12081,0.20058 0.19917,0.18566 0.10121,-0.0193 0.1312,-0.1616 0.16972,-0.80559 0.0257,-0.4302 0.0509,-0.94156 0.0559,-1.13637 0.005,-0.19729 0.0447,-0.35418 0.0893,-0.35418 0.0441,0 0.0741,0.0923 0.0667,0.20506 -0.008,0.11278 -0.01,0.73113 -0.006,1.37412 0.006,0.91001 0.0317,1.19287 0.11526,1.27644 0.0591,0.0591 0.11777,0.27116 0.13049,0.47136 l 0.0231,0.36398 0.59652,-0.0238 c 0.32809,-0.0131 0.65279,-0.0398 0.72154,-0.0592 0.20626,-0.0584 0.28506,-0.67955 0.28553,-2.25079 8.4e-4,-1.31006 0.0741,-2.27678 0.18192,-2.38457 0.0207,-0.0207 0.0903,0.006 0.15454,0.0592 0.19214,0.15945 0.29153,-0.0263 0.35154,-0.65717 0.1163,-1.22235 0.14042,-1.34922 0.24865,-1.30768 0.0567,0.0218 0.16168,0.14536 0.23321,0.27464 0.11547,0.20871 0.13295,0.53713 0.15591,2.92971 l 0.0259,2.69463 0.18246,0.1714 c 0.34612,0.32517 0.36688,0.1963 0.36688,-2.27732 0,-1.2452 0.0252,-2.28923 0.0559,-2.32007 0.0308,-0.0308 0.0559,0.43331 0.0559,1.03145 0,1.18754 0.0233,1.32341 0.22694,1.32341 0.0994,0 0.14277,0.0658 0.1598,0.24234 0.0195,0.20207 0.0575,0.24626 0.22885,0.26597 0.12214,0.0141 0.22115,-0.0172 0.24413,-0.0771 0.0212,-0.0554 0.0462,-0.77068 0.0555,-1.58951 l 0.0169,-1.48877 0.16777,0.0233 c 0.0923,0.0128 0.16777,-0.0123 0.16777,-0.0559 0,-0.0436 0.0336,-0.0793 0.0746,-0.0793 0.041,0 0.0746,0.17784 0.0746,0.39519 0,0.43141 0.0871,0.57416 0.35046,0.57416 0.16997,0 0.1715,0.008 0.17177,0.9507 0,0.52289 0.022,1.42613 0.0486,2.00721 l 0.0483,1.05651 -0.0903,0.56652 c 0,0 0.62691,0.12843 0.62691,-1.09817 0,-0.54166 0.008,-1.92856 0.0186,-3.08198 l 0.0186,-2.09715 0.23875,-0.0477 c 0.25745,-0.0515 0.58146,-0.3105 0.58146,-0.46482 0,-0.1544 -0.44889,-0.77367 -0.56082,-0.77367 -0.0566,0 -0.12969,0.0466 -0.16248,0.10353 -0.0328,0.0569 -0.1259,0.11596 -0.20689,0.13115 -0.081,0.0152 -0.19255,0.1112 -0.24791,0.21337 l -0.10065,0.18575 0.0325,-0.20497 c 0.049,-0.30886 -0.0898,-0.45582 -0.34046,-0.36052 -0.18931,0.072 -0.2035,0.10834 -0.21266,0.545 -0.008,0.36965 -0.0195,0.41327 -0.0559,0.20775 -0.032,-0.18029 -0.0919,-0.26867 -0.19523,-0.28793 -0.082,-0.0153 -0.17597,-0.0744 -0.20877,-0.13134 -0.0831,-0.14437 -0.32861,-0.12936 -0.41522,0.0254 -0.0684,0.12221 -0.0796,0.12221 -0.21463,0 -0.0784,-0.0709 -0.21533,-0.12894 -0.30437,-0.12894 -0.0974,0 -0.1619,-0.0466 -0.1619,-0.11703 0,-0.0787 -0.0549,-0.10922 -0.1675,-0.0932 -0.13289,0.0189 -0.18297,0.0958 -0.24234,0.37228 -0.0949,0.44205 -0.18669,0.53789 -0.18669,0.19501 0,-0.2354 -0.0428,-0.29341 -0.39146,-0.53015 -0.31922,-0.21676 -0.45007,-0.26235 -0.70903,-0.24703 -0.17465,0.0103 -0.3519,0.0531 -0.39389,0.0951 -0.042,0.042 -0.10433,0.342 -0.13855,0.66671 -0.0342,0.3247 -0.0668,0.4897 -0.0724,0.36667 -0.0138,-0.30136 -0.27106,-0.70837 -0.44786,-0.70837 -0.0894,0 -0.15949,-0.0691 -0.18892,-0.18641 -0.0691,-0.27513 -0.20633,-0.23498 -0.43714,0.12787 -0.0966,0.15187 -0.12877,0.36449 -0.12877,0.85128 0,0.80577 -0.0583,0.79793 -0.0791,-0.0106 -0.008,-0.32764 -0.0414,-0.62925 -0.0733,-0.67026 -0.0319,-0.041 -0.0694,-0.17524 -0.0833,-0.29827 -0.023,-0.20356 -0.0503,-0.22391 -0.30355,-0.22612 -0.15308,-0.001 -0.31917,-0.0433 -0.3691,-0.0932 -0.14402,-0.14401 -0.27794,-0.1062 -0.32783,0.0926 -0.0253,0.10084 -0.0931,0.22239 -0.15055,0.27011 -0.0848,0.0703 -0.10453,0.0526 -0.10453,-0.0939 0,-0.23792 -0.13119,-0.35959 -0.38774,-0.35959 -0.17694,0 -0.20878,0.0306 -0.20878,0.20067 0,0.18713 -0.007,0.19134 -0.10107,0.0625 -0.12699,-0.17367 -0.32637,-0.10665 -0.35918,0.12074 -0.0157,0.10906 -0.0907,0.18448 -0.21084,0.21205 -0.10252,0.0235 -0.21953,0.11717 -0.26001,0.20811 -0.0755,0.16964 -0.18738,0.22382 -0.18738,0.0908 0,-0.17022 -0.28914,-0.0654 -0.36,0.13048 -0.0597,0.16514 -0.0662,0.12915 -0.0333,-0.18483 0.0332,-0.31707 0.0181,-0.39864 -0.0812,-0.43673 -0.0671,-0.0258 -0.12205,-0.11256 -0.12205,-0.19289 0,-0.0803 -0.0342,-0.20994 -0.076,-0.28803 -0.0647,-0.12092 -0.1037,-0.12936 -0.26276,-0.0569 -0.10273,0.0468 -0.20906,0.17162 -0.2363,0.27737 l -0.0495,0.19227 -0.0452,-0.18602 c -0.0978,-0.40274 -0.52179,-0.2303 -0.52568,0.21379 -0.002,0.24564 -0.0118,0.25806 -0.10497,0.13515 -0.0564,-0.0744 -0.15416,-0.12477 -0.21717,-0.11184 -0.063,0.0129 -0.16106,-0.0395 -0.21789,-0.11652 -0.0961,-0.13018 -0.12123,-0.13204 -0.35834,-0.0266 -0.14026,0.0623 -0.31374,0.13269 -0.3855,0.1563 -0.0718,0.0236 -0.13049,0.10911 -0.13049,0.19 0,0.0809 -0.0336,0.1678 -0.0746,0.19315 -0.041,0.0253 -0.0746,-0.0189 -0.0746,-0.0983 0,-0.0794 -0.0503,-0.18618 -0.11185,-0.23723 -0.0615,-0.0511 -0.11185,-0.1726 -0.11185,-0.27011 0,-0.12578 -0.0421,-0.17728 -0.14473,-0.17728 -0.0796,0 -0.16546,0.0335 -0.19081,0.0746 -0.0639,0.10334 -0.38202,0.0934 -0.5596,-0.0175 -0.12633,-0.0789 -0.1642,-0.0682 -0.26438,0.0748 -0.0969,0.13839 -0.14295,0.15299 -0.26925,0.0854 -0.0838,-0.0448 -0.21263,-0.0658 -0.28632,-0.0465 -0.10018,0.0262 -0.14481,-0.0191 -0.17692,-0.17971 -0.0248,-0.12397 -0.091,-0.21475 -0.15666,-0.21475 -0.0625,0 -0.11483,0.0252 -0.1162,0.0559 -10e-4,0.0308 -0.0687,0.13537 -0.14955,0.23247 -0.11596,0.13921 -0.16913,0.15824 -0.25136,0.09 -0.19327,-0.1604 -0.46322,-0.0186 -0.56779,0.29824 -0.0531,0.16099 -0.11156,0.29271 -0.12985,0.29271 -0.0183,0 -0.0992,-0.0839 -0.1799,-0.18641 -0.11228,-0.14276 -0.21576,-0.18642 -0.44182,-0.18642 -0.19717,0 -0.30983,-0.0382 -0.33931,-0.11498 -0.0243,-0.0632 -0.10194,-0.10518 -0.17261,-0.0932 -0.0707,0.012 -0.18238,-0.0229 -0.24822,-0.0776 -0.17128,-0.14215 -0.37157,-0.0796 -0.48188,0.1506 -0.083,0.1731 -0.12237,0.19074 -0.30748,0.13765 -0.11679,-0.0335 -0.24705,-0.0394 -0.28947,-0.0131 -0.0424,0.0263 -0.0894,0.31593 -0.10438,0.64358 -0.0218,0.47621 -0.0515,0.60041 -0.14819,0.61903 -0.10096,0.0194 -0.12563,-0.0691 -0.14916,-0.53509 -0.0234,-0.46443 -0.0584,-0.59054 -0.20776,-0.74951 -0.19754,-0.21028 -0.45182,-0.2549 -0.45182,-0.0793 0,0.0615 -0.0336,0.11184 -0.0746,0.11184 -0.041,0 -0.0746,-0.0671 -0.0746,-0.14913 0,-0.18544 -0.26029,-0.20373 -0.36015,-0.0253 -0.0381,0.0681 -0.18239,0.16037 -0.3206,0.20505 -0.22555,0.0729 -0.25558,0.11563 -0.29294,0.41677 -0.0414,0.33389 -0.0418,0.33426 -0.0746,0.0746 -0.0298,-0.23604 -0.0554,-0.26098 -0.26773,-0.26098 -0.16824,0 -0.28164,-0.0593 -0.40007,-0.20911 -0.10705,-0.13543 -0.22136,-0.20112 -0.32445,-0.18642 -0.13256,0.0189 -0.16292,0.0808 -0.18162,0.37038 -0.0151,0.23284 -0.0614,0.3626 -0.14025,0.39287 -0.0998,0.0383 -0.11042,-8.5e-4 -0.0695,-0.25698 0.0756,-0.47282 -0.019,-0.5731 -0.54771,-0.5806 -0.24775,-0.004 -0.45044,0.026 -0.45044,0.0656 0,0.0396 -0.0839,0.11017 -0.18642,0.15689 -0.15405,0.0702 -0.18641,0.13721 -0.18641,0.38614 0,0.42608 -0.1345,0.25095 -0.1633,-0.21262 -0.0252,-0.40508 -0.1668,-0.51743 -0.38156,-0.30266 -0.0636,0.0636 -0.14986,0.11557 -0.19176,0.11557 -0.0419,0 -0.10488,0.0513 -0.13994,0.11393 -0.0533,0.0952 -0.0998,0.0772 -0.28333,-0.10977 -0.23816,-0.24266 -0.53318,-0.2972 -0.60435,-0.11172 -0.0245,0.0639 -0.0909,0.0984 -0.14744,0.0767 -0.0566,-0.0217 -0.18647,-0.008 -0.28864,0.0312 -0.14774,0.0562 -0.18576,0.12255 -0.18576,0.32436 0,0.17418 -0.0486,0.28597 -0.15494,0.3566 -0.12928,0.0858 -0.16198,0.20555 -0.19743,0.72269 -0.0549,0.80066 -0.14851,0.6455 -0.16401,-0.27182 -0.007,-0.39299 -0.0483,-0.75814 -0.0925,-0.81145 -0.1073,-0.12929 -0.51115,-0.1192 -0.6916,0.0173 -0.0796,0.0602 -0.26508,0.10948 -0.41215,0.10948 -0.30463,0 -0.59887,0.17384 -0.59887,0.35383 0,0.0997 -0.0269,0.0928 -0.14913,-0.0384 -0.0863,-0.0926 -0.14928,-0.26357 -0.1495,-0.40553 -2.2e-4,-0.1516 -0.0714,-0.33099 -0.18613,-0.46915 l -0.18576,-0.22369 -0.14941,0.17603 c -0.0937,0.11041 -0.14941,0.28412 -0.14941,0.46603 0,0.1595 -0.0336,0.29 -0.0746,0.29 -0.041,0 -0.0746,-0.12751 -0.0746,-0.28335 0,-0.37084 -0.10516,-0.47722 -0.36333,-0.36755 -0.10775,0.0458 -0.25048,0.1285 -0.31718,0.18386 -0.10278,0.0853 -0.12802,0.0831 -0.16543,-0.0144 -0.0571,-0.14887 -0.22763,-0.14717 -0.35269,0.004 -0.0895,0.10781 -0.10723,0.10652 -0.19554,-0.0143 -0.0534,-0.0731 -0.0971,-0.2062 -0.0971,-0.29587 0,-0.22326 -0.1482,-0.32773 -0.35419,-0.24967 -0.14717,0.0558 -0.16942,0.12108 -0.18121,0.53201 -0.0119,0.41532 -0.0166,0.4287 -0.0412,0.11803 -0.0212,-0.26722 -0.0622,-0.36135 -0.17297,-0.39649 -0.17077,-0.0542 -0.44346,0.0184 -0.44346,0.11812 0,0.0382 -0.0839,0.0695 -0.18641,0.0695 -0.20508,0 -0.20105,-0.007 -0.2218,0.39409 -0.008,0.15523 -0.0537,0.32132 -0.10145,0.36909 -0.0562,0.0562 -0.0911,0.44301 -0.099,1.09722 l -0.0121,1.01036 -0.0549,-1.00663 c -0.0302,-0.55365 -0.0391,-1.26629 -0.0197,-1.58364 0.0342,-0.56073 0.0298,-0.57945 -0.15447,-0.66341 -0.27269,-0.12424 -0.417737,0.0208 -0.417737,0.41777 0,0.22016 -0.04485,0.35545 -0.149128,0.44982 -0.08457,0.0765 -0.149131,0.0977 -0.149131,0.0488 0,-0.0474 -0.05033,-0.0861 -0.111849,-0.0861 -0.06152,0 -0.111846,0.0335 -0.111846,0.0746 0,0.041 -0.03355,0.0746 -0.07456,0.0746 -0.04101,0 -0.07457,-0.0682 -0.07457,-0.15147 0,-0.0833 -0.04774,-0.16979 -0.106088,-0.19218 -0.05835,-0.0224 -0.161545,-0.15758 -0.229329,-0.30042 -0.06778,-0.14285 -0.172288,-0.27854 -0.232232,-0.30154 -0.15205,-0.0584 -0.388771,0.17646 -0.416133,0.41276 -0.01784,0.15405 -0.05818,0.19244 -0.184013,0.1751 -0.08864,-0.0122 -0.189084,0.0213 -0.223213,0.0746 -0.04184,0.0653 -0.07434,0.0134 -0.09981,-0.1591 -0.02996,-0.20298 -0.08098,-0.26738 -0.246861,-0.31153 -0.180447,-0.048 -0.221241,-0.0283 -0.297724,0.14403 -0.175253,0.39485 -0.300199,0.47092 -0.732971,0.44623 -0.365668,-0.0208 -0.401437,-0.0387 -0.40977,-0.20461 -0.005,-0.1 -0.08486,-0.24307 -0.177421,-0.31802 -0.235709,-0.19087 -0.370698,-0.0566 -0.38032,0.37842 -0.0075,0.337 -0.009,0.33919 -0.06699,0.0937 -0.03265,-0.13823 -0.125836,-0.3178 -0.20709,-0.39906 -0.138927,-0.13893 -0.158829,-0.14047 -0.333766,-0.0258 -0.151065,0.099 -0.19548,0.2054 -0.236293,0.56615 -0.04956,0.43808 -0.158394,0.58962 -0.397198,0.55309 -0.05126,-0.008 -0.12676,-0.0185 -0.167771,-0.0236 -0.04101,-0.005 -0.07456,-0.10866 -0.07456,-0.23007 0,-0.12142 -0.05243,-0.26402 -0.116519,-0.31691 -0.06409,-0.0529 -0.203849,-0.18841 -0.310586,-0.3012 -0.106737,-0.11278 -0.238852,-0.20505 -0.29359,-0.20505 -0.05555,0 -0.09952,-0.0797 -0.09952,-0.18031 0,-0.0992 -0.02038,-0.23339 -0.04526,-0.29826 -0.06536,-0.17034 -0.333865,-0.14725 -0.380935,0.0327 -0.02932,0.11211 -0.06369,0.13055 -0.134251,0.072 -0.0686,-0.0569 -0.129291,-0.0443 -0.21938,0.0458 -0.09295,0.0929 -0.146023,0.10306 -0.209227,0.0399 -0.142415,-0.14242 -0.352919,-0.0949 -0.42551,0.096 -0.03979,0.10467 -0.140992,0.19095 -0.240492,0.20506 -0.15003,0.0213 -0.176513,0.0763 -0.209071,0.43446 l -0.03728,0.41011 -0.146566,-0.24234 c -0.08061,-0.13328 -0.171592,-0.24233 -0.202178,-0.24233 -0.03059,0 -0.0909,-0.13104 -0.134029,-0.29121 -0.09544,-0.35443 -0.318485,-0.64714 -0.437217,-0.57375 -0.04765,0.0294 -0.08664,0.16693 -0.08664,0.30551 0,0.22706 -0.01975,0.25059 -0.199802,0.23794 -0.155312,-0.0109 -0.209731,0.0262 -0.244392,0.16685 -0.06867,0.27854 -0.208979,0.2673 -0.331777,-0.0266 -0.08432,-0.2018 -0.155077,-0.26614 -0.292721,-0.26614 -0.11881,0 -0.194992,-0.0515 -0.22052,-0.14913 -0.03966,-0.15167 -0.351219,-0.21781 -0.351219,-0.0746 0,0.041 -0.03355,0.0746 -0.07456,0.0746 -0.04101,0 -0.07457,-0.0671 -0.07457,-0.14913 0,-0.20205 -0.267386,-0.19701 -0.376622,0.007 -0.06809,0.12724 -0.128922,0.14773 -0.32784,0.11041 -0.170541,-0.032 -0.272208,-0.0121 -0.336953,0.0659 -0.07065,0.0851 -0.127736,0.093 -0.239847,0.033 -0.08092,-0.0433 -0.191531,-0.0617 -0.245801,-0.0409 -0.05549,0.0213 -0.115149,-0.0251 -0.136322,-0.1061 -0.05644,-0.21581 -0.381721,-0.18353 -0.607831,0.0603 -0.147725,0.15931 -0.189432,0.28244 -0.189432,0.55924 0,0.34467 -0.0065,0.35494 -0.223695,0.35494 -0.221018,0 -0.223696,-0.005 -0.223696,-0.40389 0,-0.25668 -0.03397,-0.41533 -0.09321,-0.43526 -0.177246,-0.0596 -0.355991,0.0375 -0.401302,0.21799 -0.07477,0.29793 -0.276359,0.183 -0.340766,-0.19429 -0.06056,-0.35478 -0.159993,-0.46399 -0.395048,-0.43394 -0.122945,0.0157 -0.153254,0.0845 -0.17261,0.39164 -0.01423,0.22569 -0.06566,0.39617 -0.130488,0.43245 -0.06072,0.034 -0.107011,0.17117 -0.107011,0.31716 0,0.20495 -0.02943,0.25727 -0.144729,0.25727 -0.0796,0 -0.162131,0.0282 -0.183403,0.0626 -0.03001,0.0486 -0.123677,4.58342 -0.119988,5.80943 8.45e-4,0.25053 -0.275184,0.14913 -0.275184,0.14913 l -1.047149,0.0932 c 0,0 -0.181368,0.0562 -0.257336,0.125 -0.354817,0.3211 -0.420644,-0.23008 -0.493135,-4.1292 -0.03543,-1.90574 -0.07805,-2.80035 -0.136177,-2.85843 -0.04653,-0.0465 -0.163974,-0.0733 -0.260978,-0.0596 -0.143757,0.0203 -0.183266,0.0797 -0.213654,0.32099 l -0.03728,0.29604 -0.09161,-0.20283 c -0.05039,-0.11156 -0.144371,-0.20284 -0.208859,-0.20284 -0.06449,0 -0.167222,-0.11959 -0.228297,-0.26577 -0.08641,-0.2068 -0.147603,-0.26057 -0.275815,-0.24233 -0.141589,0.0201 -0.167612,0.0759 -0.184985,0.39626 -0.0251,0.46276 -0.133121,0.68389 -0.362166,0.74138 -0.109354,0.0274 -0.176855,0.0991 -0.176855,0.1877 0,0.0788 -0.03355,0.16405 -0.07456,0.18939 -0.04571,0.0282 -0.07501,-0.0927 -0.07571,-0.3125 -0.0014,-0.42172 -0.07374,-0.56557 -0.267776,-0.53208 -0.114452,0.0198 -0.148251,-0.0321 -0.178473,-0.27389 -0.02838,-0.22704 -0.07289,-0.30282 -0.186412,-0.31733 -0.287596,-0.0368 -0.33324,0.0734 -0.364785,0.88059 -0.01674,0.4284 -0.03603,0.79569 -0.04287,0.81619 -0.02772,0.0831 -0.223965,-0.64845 -0.225017,-0.83886 -8.45e-4,-0.15321 -0.0379,-0.20505 -0.146557,-0.20505 -0.07998,0 -0.179626,0.0587 -0.221428,0.13049 -0.06264,0.10754 -0.0764,0.0866 -0.07827,-0.11898 -0.003,-0.32491 -0.270151,-0.70794 -0.459334,-0.65846 -0.07901,0.0207 -0.167204,-0.0124 -0.202805,-0.076 -0.0827,-0.14778 -0.309207,-0.0989 -0.41333,0.0892 -0.04541,0.082 -0.09369,0.16586 -0.107295,0.1863 -0.01361,0.0204 -0.0696,-0.0242 -0.124439,-0.0992 -0.144321,-0.19738 -0.440348,-0.13671 -0.473311,0.097 -0.02511,0.17804 -0.02929,0.1762 -0.126889,-0.0559 -0.05551,-0.13201 -0.14896,-0.24002 -0.207673,-0.24002 -0.05871,0 -0.124994,-0.0698 -0.147292,-0.15503 -0.02914,-0.11144 -0.08924,-0.14813 -0.213743,-0.13049 -0.155273,0.022 -0.182422,0.0852 -0.262276,0.61071 -0.107955,0.71041 -0.171527,0.8078 -0.17306,0.26512 -5.92e-4,-0.22215 -0.02717,-0.44487 -0.05899,-0.49495 -0.07334,-0.11542 -0.574504,-0.0427 -0.693456,0.10061 -0.09798,0.11806 -0.364889,0.13834 -0.364889,0.0277 0,-0.041 -0.04805,-0.0746 -0.106771,-0.0746 -0.174708,0 -0.415185,0.40933 -0.415185,0.7067 0,0.22027 -0.02543,0.26876 -0.130489,0.24883 -0.08235,-0.0156 -0.139482,-0.10703 -0.154868,-0.2478 -0.01341,-0.12268 -0.05535,-0.25493 -0.09321,-0.2939 -0.03785,-0.0389 -0.06883,-0.24196 -0.06883,-0.45111 0,-0.49952 -0.203113,-0.72722 -0.370202,-0.41501 l 2e-6,1.5e-4 c -0.04245,0.0793 -0.07719,0.21996 -0.07719,0.31251 0,0.15712 -0.0065,0.15941 -0.0978,0.0345 -0.09095,-0.12438 -0.120105,-0.11232 -0.416192,0.17216 -0.351021,0.33726 -0.380788,0.35311 -0.380788,0.20275 0,-0.12868 -0.337478,-0.20062 -0.443551,-0.0946 -0.04312,0.0431 -0.07841,0.25519 -0.07841,0.47126 0,0.31857 -0.02115,0.38474 -0.111848,0.34994 -0.06152,-0.0236 -0.111848,-0.1075 -0.111848,-0.18642 0,-0.0789 -0.05033,-0.16281 -0.111847,-0.18641 -0.07593,-0.0291 -0.111848,-0.1481 -0.111848,-0.37049 0,-0.29969 -0.01586,-0.32756 -0.186413,-0.32756 -0.124994,0 -0.188861,0.043 -0.193845,0.13049 -0.0047,0.082 -0.02653,0.0612 -0.05885,-0.0559 -0.03836,-0.13904 -0.109303,-0.19213 -0.279224,-0.20891 -0.207115,-0.0205 -0.239013,0.007 -0.351254,0.30076 -0.0679,0.17778 -0.123451,0.39762 -0.123451,0.48853 0,0.233 -0.134314,0.2064 -0.162819,-0.0323 -0.01298,-0.10864 -0.09019,-0.23447 -0.171589,-0.27962 -0.182457,-0.1012 -0.360649,-0.32799 -0.414513,-0.52757 -0.08698,-0.32228 -0.518686,-0.13997 -0.518686,0.21903 0,0.12017 -0.05436,0.18665 -0.177984,0.21768 -0.200033,0.0502 -0.251305,0.2383 -0.265571,0.97429 -0.0088,0.45257 -0.0784,0.7027 -0.0784,0.28164 0,-0.12745 -0.03355,-0.25246 -0.07457,-0.27781 -0.04101,-0.0253 -0.07456,-0.1131 -0.07456,-0.19501 0,-0.19783 -0.444181,-0.59849 -0.633803,-0.5717 -0.102245,0.0144 -0.156802,0.0882 -0.173532,0.23448 -0.02388,0.20885 -0.02672,0.21012 -0.132529,0.059 -0.06166,-0.088 -0.155322,-0.13626 -0.217935,-0.11224 -0.08079,0.031 -0.110077,-0.0141 -0.110825,-0.17089 -5.92e-4,-0.11717 -0.0221,-0.29177 -0.04786,-0.38801 -0.04,-0.14942 -0.07998,-0.16835 -0.273708,-0.1296 -0.311797,0.0624 -0.497627,0.25003 -0.497627,0.50255 0,0.13885 -0.03864,0.21213 -0.111848,0.21213 -0.06152,0 -0.111847,-0.0439 -0.111847,-0.0976 0,-0.0537 -0.04807,-0.16273 -0.106828,-0.24234 -0.08562,-0.11601 -0.125586,-0.12624 -0.201326,-0.0515 -0.05197,0.0513 -0.169412,0.0932 -0.260973,0.0932 -0.104378,0 -0.185279,0.0593 -0.216887,0.15884 -0.04822,0.15194 -0.05945,0.14824 -0.258787,-0.0853 -0.13667,-0.16013 -0.249347,-0.22843 -0.327438,-0.19846 -0.06548,0.0251 -0.119063,0.0792 -0.119063,0.12025 0,0.041 -0.05059,0.0552 -0.112424,0.0314 -0.160112,-0.0614 -0.489183,0.1715 -0.436439,0.30895 0.03187,0.083 -0.01179,0.11195 -0.170169,0.11271 -0.117168,5.7e-4 -0.286435,0.0207 -0.37615,0.0448 -0.147271,0.0395 -0.165382,0.0122 -0.186413,-0.28063 -0.02125,-0.29584 -0.04226,-0.32655 -0.238898,-0.349 -0.258506,-0.0295 -0.3181,0.0525 -0.383501,0.52808 -0.05873,0.42699 -0.217919,0.44398 -0.227519,0.0243 -0.0061,-0.26496 -0.113038,-0.41219 -0.301364,-0.41475 -0.139256,-0.002 -0.271665,0.21183 -0.229984,0.37121 0.0215,0.0822 0.0087,0.16825 -0.02848,0.19121 -0.03716,0.023 -0.06756,-0.0273 -0.06756,-0.11177 0,-0.18766 -0.322237,-0.21477 -0.495326,-0.0417 -0.06152,0.0615 -0.189228,0.11184 -0.283804,0.11184 -0.09458,0 -0.213728,-0.0503 -0.264782,-0.11184 -0.118831,-0.14319 -0.216684,-0.14131 -0.380897,0.007 -0.17031,0.15412 -0.290189,0.0761 -0.290189,-0.18899 0,-0.43677 -0.457234,-0.51883 -0.521955,-0.0937 l -0.03728,0.24491 -0.133881,-0.15736 c -0.180287,-0.21191 -0.376653,-0.15996 -0.431515,0.11416 l -0.04459,0.22278 -0.08751,-0.21263 c -0.06097,-0.14814 -0.123395,-0.19887 -0.205812,-0.16724 -0.07462,0.0286 -0.172593,-0.0236 -0.265354,-0.14155 -0.08088,-0.10282 -0.234846,-0.18566 -0.234846,-0.18566 l -0.423338,0.54982 -0.163047,-0.0478 0.120846,6.5648 0.297443,-2.84065 0.07179,-2.26802 0.05902,2.0731 0.08275,2.85004 c 0,0 0.253909,0.12085 0.426268,0.0143 0.04686,-0.029 0.07429,-0.93568 0.07429,-2.45575 0,-2.06809 0.01612,-2.42321 0.11365,-2.50415 0.06251,-0.0519 0.121227,-0.0811 0.130489,-0.0651 0.0093,0.0161 0.05405,0.0964 0.09953,0.17839 0.04685,0.0845 0.159965,0.14913 0.260977,0.14913 0.152195,0 0.181673,-0.0409 0.201429,-0.27962 0.03338,-0.40333 0.20655,-0.35998 0.264983,0.0663 0.02608,0.19028 0.04742,1.22526 0.04742,2.29996 0,1.79832 0.01086,1.96385 0.13636,2.07742 0.190151,0.17208 0.360046,0.15384 0.413163,-0.0444 0.02473,-0.0923 0.04542,-0.91435 0.04598,-1.82684 5.92e-4,-0.91249 0.03018,-1.65907 0.06583,-1.65907 0.100997,0 0.15717,0.48543 0.158065,1.36599 8.17e-4,0.79379 0.0035,0.80638 0.168593,0.78294 0.167403,-0.0238 0.167815,-0.0274 0.187871,-1.6472 0.0158,-1.27639 0.03971,-1.60655 0.111847,-1.54468 0.05046,0.0433 0.147229,0.11948 0.215039,0.16935 0.10861,0.0799 0.128568,0.37829 0.167612,2.50619 0.02968,1.61743 0.128176,2.51657 0.128176,2.51657 l 0.43842,-0.0854 0.176589,-0.18641 c 0,0 0.194831,-0.1654 0.211351,-0.99409 l 0.01511,-0.75819 0.04081,0.93206 0.04081,0.93207 h 0.185491 c 0,0 0.193928,-0.0444 0.256406,-0.37283 0.039,-0.20505 0.06168,-1.17813 0.0504,-2.16239 -0.02008,-1.75138 -0.0176,-1.78558 0.116286,-1.60315 0.11104,0.15131 0.138981,0.3409 0.148353,1.00663 0.01825,1.29614 0.01707,1.28551 0.1473,1.33548 0.28934,0.11103 0.326092,-0.0615 0.326092,-1.53102 0,-1.34421 0.0065,-1.40761 0.144902,-1.40761 0.194499,0 0.377054,-0.27666 0.377054,-0.57143 0,-0.13199 0.03355,-0.26072 0.07456,-0.28606 0.04631,-0.0286 0.07456,0.11185 0.07456,0.37076 0,0.501 0.103165,0.57339 0.48278,0.33877 0.216378,-0.13373 0.262871,-0.20676 0.262871,-0.41295 0,-0.2727 0.01511,-0.29015 0.312862,-0.36125 l 0.201015,-0.048 0.03848,1.6222 c 0.02117,0.89221 0.05557,1.94097 0.07646,2.33057 0.02089,0.3896 0.03894,0.90235 0.04012,1.13945 0.0016,0.32123 0.03192,0.44252 0.119003,0.47594 0.253138,0.0971 0.276562,-0.0871 0.284959,-2.2409 0.0062,-1.59205 0.03169,-2.14933 0.101495,-2.21914 0.05126,-0.0513 0.09321,-0.19984 0.09321,-0.33015 0,-0.13031 0.05033,-0.27871 0.111848,-0.32976 0.06825,-0.0566 0.111847,-0.22006 0.111847,-0.41924 0,-0.17953 0.03355,-0.32641 0.07456,-0.32641 0.04101,0 0.07457,0.0296 0.07457,0.0659 0,0.0362 0.06711,0.0834 0.149131,0.10486 0.138272,0.0362 0.14913,0.10171 0.14913,0.90029 0,0.87771 0.06583,4.14308 0.0955,4.73677 0.01741,0.34848 0.163564,0.51529 0.379042,0.4326 0.108633,-0.0417 0.122535,-0.26942 0.127029,-2.08105 0.0038,-1.51896 0.02554,-1.99174 0.08596,-1.86647 0.0445,0.0923 0.110421,0.16778 0.146487,0.16778 0.03606,0 0.09592,-0.0755 0.133009,-0.16778 0.04381,-0.10898 0.06949,0.35482 0.0733,1.32353 0.0032,0.82022 0.03673,1.54008 0.07444,1.59971 0.05763,0.0911 0.09757,0.0929 0.250307,0.0111 0.236895,-0.12678 0.277666,-0.51313 0.272056,-2.57804 -0.0036,-1.33276 0.01247,-1.56722 0.111381,-1.62257 0.06359,-0.0356 0.115614,-0.12817 0.115614,-0.20573 0,-0.20335 0.15546,-0.26946 0.26888,-0.11435 0.06097,0.0834 0.153915,0.11798 0.249666,0.0929 0.0839,-0.0219 0.155222,-0.0179 0.158499,0.009 0.0033,0.0269 0.01993,0.56903 0.037,1.2047 0.01708,0.63567 0.064,1.4913 0.104271,1.90141 0.08942,0.91051 0.03618,2.52158 0.03618,2.52158 l 0.549013,-0.1094 0.05311,-2.92109 c 0.02921,-1.6066 0.07891,-2.95464 0.110438,-2.99565 0.03153,-0.041 0.07383,-0.14168 0.09399,-0.2237 0.02016,-0.082 0.04055,0.24315 0.04531,0.72261 0.0049,0.49084 0.04123,0.89188 0.08321,0.91782 0.04227,0.0261 0.07456,0.39535 0.07456,0.85258 0,1.0708 0.04285,1.27253 0.270299,1.27253 h 0.177092 v -1.60315 c 0,-0.88174 0.01459,-1.60315 0.03243,-1.60315 0.01784,0 0.118499,0.0327 0.223695,0.0727 l 0.191267,0.0727 v 2.43011 c 0,1.456 0.0295,2.48523 0.07359,2.56762 0.04806,0.0898 0.223695,0.0983 0.223695,0.0983 l 0.150107,0.15585 0.09455,0.71707 c 0,0 0.383433,0.2046 0.442188,0.13049 0.0081,-0.0103 0.03845,-1.47826 0.06738,-3.26223 0.06121,-3.77457 0.04708,-3.50456 0.183455,-3.50456 0.05897,0 0.132379,-0.002 0.163137,-0.004 0.03076,-0.003 0.07393,0.0718 0.09593,0.16505 0.0238,0.10084 0.114379,0.187 0.223696,0.2128 l 0.183693,0.0434 0.01332,2.84489 0.01332,2.8449 0.532601,-0.33198 c 0,0 0.0022,-0.54541 0.205053,-0.56875 l 0.205054,-0.0236 0.02005,-1.65134 0.02005,-1.65134 0.174712,-0.0439 c 0.141997,-0.0356 0.183621,-0.10885 0.22229,-0.39097 0.02617,-0.19091 0.04758,-0.46185 0.04758,-0.60208 0,-0.15813 0.02956,-0.2367 0.07783,-0.20687 0.159083,0.0983 0.294994,-0.13012 0.294994,-0.49582 0,-0.20003 0.02975,-0.36369 0.06611,-0.36369 0.03636,0 0.08838,0.89757 0.115599,1.99461 0.08211,3.30971 0.13824,4.23157 0.257632,4.23157 0.05709,0 0.166392,-0.0839 0.242893,-0.18641 0.128952,-0.17283 0.140288,-0.38211 0.155495,-2.87076 0.009,-1.47639 0.02655,-2.25618 0.03896,-1.73288 0.0197,0.83086 0.04007,0.96241 0.160686,1.03774 0.108354,0.0677 0.129887,0.14771 0.09989,0.37135 -0.02274,0.1695 -0.0014,0.32947 0.05263,0.39457 0.06072,0.0732 0.0912,0.14659 0.14021,1.60078 0.04901,1.45419 -0.485646,1.71871 0.296651,1.46451 0.782297,-0.2542 0.175152,-0.11221 0.199577,-0.18917 0.02443,-0.077 0.055,-1.39224 0.06795,-2.92286 0.01713,-2.02503 0.04669,-2.78092 0.108535,-2.77549 0.04675,0.004 0.1521,0.0125 0.234122,0.0186 0.122256,0.009 0.14913,0.0646 0.14913,0.30772 0,0.23419 0.03928,0.32228 0.186786,0.41893 0.155369,0.1018 0.206569,0.10597 0.3044,0.0248 0.09587,-0.0796 0.108792,-0.19489 0.06989,-0.62398 -0.03399,-0.37488 -0.02536,-0.49418 0.03,-0.41452 0.04275,0.0615 0.07824,0.19741 0.07887,0.30199 5.92e-4,0.10457 0.03548,0.22448 0.07745,0.26645 0.04197,0.042 0.09152,0.15526 0.1101,0.25177 0.01858,0.0965 0.06052,0.1947 0.09318,0.21822 0.03267,0.0235 0.11689,0.13317 0.187163,0.24367 0.113079,0.17781 0.130028,0.49074 0.147408,2.72163 l 0.01964,2.52071 0.39752,0.0227 0.152155,-0.91752 c 0,0 0.05288,-0.54912 0.125368,-0.60474 0.08378,-0.0643 0.107891,-0.28714 0.107891,-0.99712 0,-0.80429 0.01346,-0.90316 0.111847,-0.82151 0.07633,0.0634 0.111848,0.23275 0.111848,0.53343 0,0.32286 0.02989,0.45207 0.111847,0.48352 0.08825,0.0339 0.111848,0.18825 0.111848,0.73185 0,0.76023 0.129044,1.15924 0.374908,1.15924 0.192573,0 0.251302,-0.36292 0.197047,-1.21765 -0.04134,-0.65127 -0.03814,-0.67159 0.06734,-0.42764 0.104701,0.24214 0.117747,0.24913 0.239039,0.12805 0.110711,-0.11052 0.135854,-0.37043 0.183465,-1.89655 0.04895,-1.56892 0.08674,-2.34758 0.120487,-2.48258 0.02731,-0.10924 0.447736,0.0324 0.481704,0.16233 0.02151,0.0823 0.102498,0.14166 0.193155,0.14166 0.08586,0 0.156446,0.008 0.156855,0.0186 3.67e-4,0.0103 0.04899,2.80532 0.04899,2.80532 l 0.0994,3.2709 1.701384,-0.0551 c 0,0 0.508002,0.0178 0.57381,0.16777 0.04414,0.10061 0.151902,0.17685 0.269195,0.19045 0.267527,0.031 0.273817,-0.0235 0.271056,-2.34948 -0.0014,-1.08085 0.01423,-1.98174 0.03446,-2.00198 0.02023,-0.0202 0.06208,0.35826 0.09298,0.8411 0.08198,1.28087 0.09294,1.37107 0.176961,1.45509 0.04203,0.042 0.129009,0.0562 0.193284,0.0316 0.102255,-0.0392 0.116859,-0.30603 0.116859,-2.13501 v -2.09016 h 0.186411 c 0.119853,0 0.186413,-0.0419 0.186413,-0.11732 0,-0.0716 0.05088,-0.10754 0.130489,-0.0922 0.120642,0.0232 0.132157,0.21324 0.152594,2.51858 0.02263,2.55299 0.04425,2.73499 0.314724,2.64915 0.08561,-0.0272 0.141733,0.006 0.16595,0.0989 0.05905,0.2258 0.345394,0.25482 0.531618,0.0539 0.15826,-0.17077 0.161078,-0.21956 0.181713,-3.14551 0.01787,-2.53349 0.03759,-2.98856 0.133656,-3.0839 0.100216,-0.0995 0.121101,-0.097 0.188575,0.0219 0.04997,0.0881 0.124906,0.1182 0.219473,0.0882 0.129838,-0.0412 0.143597,-0.006 0.143597,0.36345 0,0.52341 0.04985,0.64493 0.264553,0.64493 0.168408,0 0.28865,-0.10721 0.292713,-0.26098 0.0011,-0.041 0.03553,-0.0913 0.07654,-0.11184 0.04101,-0.0205 0.09252,0.0969 0.114462,0.26097 0.0497,0.37159 0.117685,0.48468 0.291349,0.48468 0.170744,0 0.223281,-0.19121 0.235625,-0.8575 0.0053,-0.28708 0.02384,-0.45485 0.0412,-0.37283 0.01733,0.082 0.04765,0.22463 0.06733,0.3169 0.027,0.12651 0.08822,0.16778 0.248947,0.16778 0.117229,0 0.254915,-0.0503 0.30597,-0.11185 0.05105,-0.0615 0.120211,-0.11185 0.15368,-0.11185 0.03347,0 0.06386,0.86262 0.06753,1.91694 0.007,2.02287 0.0085,2.0315 0.356672,2.03387 l 0.167771,0.001 v -1.44603 c 0,-1.21659 0.01776,-1.45286 0.111846,-1.48897 0.07118,-0.0273 0.111849,-0.14197 0.111849,-0.31536 0,-0.23269 0.01618,-0.25902 0.1109,-0.18042 0.183967,0.15268 0.336491,0.0334 0.336491,-0.26317 0,-0.24102 0.01172,-0.25693 0.113968,-0.15468 0.09485,0.0949 0.121555,0.48039 0.159184,2.29821 0.0259,1.25125 0.07667,2.22404 0.118855,2.27743 0.0405,0.0513 0.188028,0.0932 0.327831,0.0932 0.139803,0 0.268891,-0.0419 0.286862,-0.0932 0.01798,-0.0513 0.04478,-0.99068 0.05957,-2.08759 0.0148,-1.09691 0.04937,-2.01686 0.07683,-2.04433 0.02748,-0.0275 0.04994,0.29002 0.04994,0.70552 0,0.68172 0.01471,0.76333 0.150673,0.83609 0.08287,0.0443 0.18353,0.0603 0.223695,0.0355 0.04147,-0.0256 0.07302,-0.45561 0.07302,-0.99517 0,-0.63949 0.02925,-0.97928 0.08948,-1.03951 0.118229,-0.11822 0.208784,-0.11349 0.208784,0.0109 0,0.0552 0.05435,0.20935 0.120791,0.34253 0.09573,0.19188 0.157056,0.2352 0.29554,0.20873 0.138884,-0.0266 0.217202,0.0294 0.381631,0.27263 0.19615,0.29017 0.208296,0.35805 0.234077,1.30835 0.01776,0.65486 0.06101,1.0555 0.124754,1.15576 0.05366,0.0844 0.116324,0.40511 0.139256,0.71269 0.05209,0.69864 0.10814,0.94067 0.243953,1.05339 0.209697,0.17403 0.279044,-0.0508 0.296176,-0.96033 0.02362,-1.25394 0.01587,-1.17886 0.111599,-1.08314 0.04601,0.046 0.129894,0.0659 0.186413,0.0442 0.08139,-0.0312 0.102763,-0.28798 0.102763,-1.23459 0,-1.17905 0.0025,-1.19748 0.18641,-1.36791 0.139685,-0.12946 0.186414,-0.24842 0.186414,-0.47459 0,-0.166 0.02517,-0.30174 0.05592,-0.30165 0.03076,7e-5 0.06198,0.65766 0.06939,1.46127 0.0074,0.8036 0.02849,1.47613 0.04686,1.4945 0.01837,0.0184 0.12975,0.0403 0.247514,0.0487 0.209207,0.0149 0.214646,0.006 0.237031,-0.39483 0.0266,-0.47613 0.103243,-0.59286 0.27588,-0.42022 0.278279,0.27827 0.409576,0.0352 0.409576,-0.7581 v -0.5916 l 0.314287,-0.0422 c 0.172857,-0.0232 0.349018,-0.0915 0.391466,-0.15177 0.04245,-0.0603 0.127512,-0.18143 0.189028,-0.26919 0.101394,-0.14466 0.115333,-0.0146 0.149131,1.39092 l 0.03728,1.55049 0.205052,-0.003 0.205056,-0.003 v 1.12191 c 0,1.12022 0.238009,1.68901 0.238009,1.68901 0,0 0.318396,0.26813 0.34197,-0.85102 0.01141,-0.54158 0.05335,-1.12537 0.09321,-1.29732 0.03986,-0.17195 0.0769,-1.12825 0.08229,-2.12511 0.0054,-0.99686 0.03056,-1.69503 0.05593,-1.55149 0.03805,0.2154 0.08192,0.2651 0.251161,0.28457 l 0.205056,0.0236 v 1.44536 c 0,1.18733 0.01936,1.4562 0.108484,1.50608 0.08744,0.0489 0.110389,0.29914 0.118297,1.28995 0.0079,0.98983 0.0321,1.25411 0.124252,1.35695 0.06294,0.0702 0.09622,0.17521 0.07394,0.23325 -0.0689,0.17955 0.109933,0.27284 0.523009,0.27284 0.393491,0 0.674441,-0.0999 0.790021,-0.28081 0.0332,-0.0519 0.0574,-1.05015 0.0538,-2.21831 -0.004,-1.16815 0.0196,-2.12392 0.0516,-2.12394 0.0319,-1e-5 0.0503,0.89266 0.0409,1.98372 -0.086,1.99015 0.53493,1.89582 0.53493,1.89582 0,0 0.0188,-1.41234 0.0268,-2.81696 0.0143,-2.49929 0.0177,-2.55386 0.16369,-2.55386 0.082,0 0.21701,-0.0679 0.29997,-0.15083 0.1198,-0.11981 0.18117,-0.13461 0.29826,-0.0719 0.13562,0.0726 0.14745,0.15906 0.14745,1.07787 0,0.90337 0.0131,1.00314 0.13676,1.04239 0.12423,0.0394 0.13881,0.15772 0.15923,1.29127 0.0323,1.79061 0.0347,1.81557 0.18812,1.92776 0.29682,0.21704 0.3312,-0.0125 0.33373,-2.22829 0.002,-1.43538 0.0308,-2.16148 0.0951,-2.36745 0.051,-0.16339 0.11444,-0.29708 0.14098,-0.29708 0.0925,0 0.15287,0.56847 0.20175,1.90055 0.0435,1.18418 0.0642,1.34417 0.17705,1.36576 0.0828,0.0158 0.14295,-0.0364 0.17074,-0.14826 0.0939,-0.37786 0.14625,-1.24075 0.10099,-1.66403 -0.0764,-0.71486 -0.0706,-1.66486 0.0105,-1.715 0.041,-0.0253 0.0746,-0.11121 0.0746,-0.19081 0,-0.16497 0.0783,-0.1857 0.20879,-0.0553 0.0634,0.0634 0.0918,0.54711 0.0975,1.65907 0.004,0.86328 0.0559,2.8251 0.0559,2.8251 l 0.008,1.87623 c 0,0 0.41961,-0.0235 0.49467,-0.17405 0.0477,-0.0957 0.12422,-0.21149 0.16998,-0.25725 0.058,-0.058 0.0832,-0.8713 0.0832,-2.69049 0,-1.43401 0.0191,-2.58825 0.0423,-2.56496 0.0863,0.0864 0.13112,0.72438 0.13482,1.92121 0.002,0.67668 -0.005,1.33099 -0.0147,1.45402 -0.0101,0.12303 0.003,0.64312 0.0296,1.15576"
       id="path859"
       sodipodi:nodetypes="cccssssssssscsssscssssssscssssscccssssscssssccsssssssscccssssssssscsscsscsssssssssssssssscsssssssssssssssssssscsssssccccsssssscsccsscsssssscssssssssscssssscsccsscsssssscssssssssssssssssssssssssscsssssssssssssssssscscsssssssssssssssssscsssssssssssssssssssssssssssssssssssssssssssssssssssscssssssssssssssssssscsssssssssssssssssssssssssssssssssssssssssscsssssssssssssssssssssssssssssssscccssssscssssssssssssssssssssssssssssscsssssssssccsssssssssssssssssssssssssssssssssssssssssssssssssscssssssssscsscsssccccccccssssssssssssssssssscccsccccssssssssssssscssssssssssssssssssssssssssssssccssssssscssscsscccssscssccccscccssssssssssssssssssssssssscssssscccssssssssssssssccccsscssssscssssssssssssscssssssssssscsssssssssssssssssssssssssssssssssssssscsssscccscssssscsssssssssccsssssssscssssssssssccsssscsc" />
    <path
       style="fill:#000000;stroke-width:0.074565"
       d="m 39.284853,55.877037 c -0.06436,0.0644 -0.118216,0.22368 -0.119669,0.35404 -0.0032,0.29158 -0.190672,0.66705 -0.248578,0.49799 -0.02107,-0.0615 -0.04912,-0.17896 -0.06234,-0.26098 -0.0178,-0.11047 -0.08175,-0.14913 -0.246702,-0.14913 H 38.38489 l -0.04914,0.82021 c -0.04474,0.74669 -0.176763,1.90325 -0.238332,2.08783 -0.01368,0.041 -0.04193,-0.50453 -0.06277,-1.21232 -0.03243,-1.10116 -0.05729,-1.30831 -0.172284,-1.43538 -0.173537,-0.19176 -0.249589,-0.18735 -0.332643,0.0193 -0.06199,0.15422 -0.06782,0.14894 -0.07216,-0.0654 -0.0058,-0.28485 -0.179287,-0.45963 -0.331162,-0.33359 -0.08089,0.0671 -0.111427,0.0521 -0.143585,-0.0709 -0.03139,-0.12001 -0.08917,-0.1506 -0.249468,-0.13206 -0.169222,0.0196 -0.223197,0.0764 -0.285794,0.30065 -0.04244,0.15208 -0.118831,0.31818 -0.169748,0.36909 -0.07373,0.0737 -0.09258,0.0458 -0.09258,-0.1369 0,-0.31826 -0.174475,-0.45506 -0.318373,-0.24962 -0.0688,0.0982 -0.152933,0.13716 -0.231363,0.10706 -0.06779,-0.026 -0.172974,-0.006 -0.23375,0.0444 -0.06078,0.0504 -0.186176,0.0714 -0.278669,0.0466 -0.09249,-0.0248 -0.360512,-0.008 -0.595597,0.0379 -0.373536,0.0725 -0.453449,0.0662 -0.633803,-0.05 -0.113507,-0.0732 -0.233208,-0.17807 -0.266004,-0.23313 -0.08368,-0.1405 -0.620869,-0.13117 -0.675705,0.0117 -0.02361,0.0615 -0.02361,0.16218 0,0.22369 0.06345,0.16536 -0.04161,0.13577 -0.196306,-0.0553 -0.129261,-0.15963 -0.141762,-0.1613 -0.278802,-0.0373 -0.158381,0.14333 -0.318143,0.17109 -0.318143,0.0553 0,-0.13073 -0.683503,-0.0864 -0.839099,0.0544 -0.135036,0.12221 -0.146241,0.12221 -0.214631,0 -0.08877,-0.15862 -0.257585,-0.16776 -0.315406,-0.0171 -0.08588,0.22379 -0.261576,0.12052 -0.285436,-0.16777 -0.02006,-0.24238 -0.04797,-0.27962 -0.209555,-0.27962 -0.136547,0 -0.192787,0.0449 -0.21024,0.16777 -0.01476,0.10393 -0.07556,0.16777 -0.159794,0.16777 -0.18464,0 -0.224983,0.13848 -0.235309,0.80767 -0.0065,0.42163 -0.02377,0.51304 -0.06574,0.34809 -0.03131,-0.12303 -0.06089,-0.34542 -0.06574,-0.49419 -0.01128,-0.34583 -0.181563,-0.50557 -0.396118,-0.37158 -0.131581,0.0822 -0.17787,0.0693 -0.352209,-0.0977 -0.256791,-0.24602 -0.593106,-0.25418 -0.813364,-0.0197 -0.153796,0.16371 -0.162128,0.2401 -0.162128,1.48635 v 1.31378 l -0.205054,0.0246 c -0.112779,0.0135 -0.265817,-0.009 -0.340084,-0.051 -0.104466,-0.0585 -0.159383,-0.0427 -0.242616,0.0696 -0.183154,0.24706 -0.242091,0.0477 -0.283114,-0.95742 -0.02158,-0.52879 -0.07205,-0.99425 -0.112161,-1.03436 -0.04011,-0.0401 -0.05536,-0.1187 -0.03389,-0.17465 0.0233,-0.0607 -0.03389,-0.12945 -0.141926,-0.17053 -0.09953,-0.0378 -0.236077,-0.15292 -0.303441,-0.25572 -0.119969,-0.1831 -0.142231,-0.18703 -1.086259,-0.19181 -0.764672,-0.004 -0.982716,0.0179 -1.05544,0.10556 -0.05041,0.0607 -0.154662,0.11044 -0.231661,0.11044 -0.077,0 -0.140001,0.0451 -0.140001,0.10029 0,0.0552 -0.06041,0.15496 -0.134239,0.22178 -0.124668,0.11282 -0.151106,0.10966 -0.370739,-0.0444 -0.130075,-0.0912 -0.233463,-0.1994 -0.229751,-0.24041 0.01945,-0.21489 -0.02857,-0.26098 -0.271899,-0.26098 -0.143538,0 -0.260978,-0.03 -0.260978,-0.0666 0,-0.17279 -0.260761,-0.1495 -0.459663,0.0411 -0.254285,0.24362 -0.460637,0.28762 -0.616756,0.1315 -0.06991,-0.0699 -0.21138,-0.10627 -0.3584,-0.0921 l -0.242896,0.0234 -0.03728,1.39203 c -0.0205,0.76561 -0.0993,1.4539 -0.0993,1.4539 l 0.243798,0.81991 0.142062,-0.22866 c 0,0 0.09633,-0.54784 0.125994,-1.163 0.04816,-0.99873 0.06802,-1.11847 0.18554,-1.11847 0.07238,0 0.154369,-0.0587 0.18219,-0.13048 0.04818,-0.12428 0.05516,-0.12428 0.146687,0 0.130959,0.17782 0.169295,0.16604 0.303356,-0.0932 0.132579,-0.25638 0.227569,-0.28494 0.280062,-0.0842 0.02006,0.0767 0.20849,0.2361 0.418729,0.35419 l 0.382252,0.21469 7.5e-5,0.76177 c 5.6e-5,0.56382 0.03312,0.83105 0.127241,1.02843 l 0.127165,0.26667 0.450714,-0.0218 c 0.393737,-0.019 0.450715,-0.0407 0.450715,-0.17093 0,-0.0979 -0.05765,-0.15732 -0.167772,-0.17296 -0.163153,-0.0232 -0.167771,-0.048 -0.167771,-0.90308 v -0.87926 l 0.177672,0.034 c 0.207599,0.0397 0.277343,-0.0466 0.286081,-0.3539 0.0074,-0.25957 0.0072,-0.25952 0.247238,-0.10228 0.110307,0.0723 0.18379,0.19153 0.18379,0.29826 0,0.24234 0.247625,0.23643 0.359258,-0.009 0.177173,-0.38885 0.237263,-0.19056 0.237263,0.78294 0,0.53314 0.0013,1.02527 0.0013,1.02527 l 0.150797,0.58148 0.251466,0.0932 c 0,0 0.156502,-0.0697 0.178236,-1.28984 0.02107,-1.18269 0.02981,-1.2508 0.130489,-1.01671 0.05935,0.13799 0.107909,0.36553 0.107909,0.50565 0,0.15767 0.04263,0.27112 0.111847,0.29768 0.140877,0.0541 0.162383,0.96704 0.02387,1.01321 -0.13622,0.0454 -0.0095,0.28136 0.151075,0.28136 0.07829,0 0.1814,0.0471 0.229139,0.10459 0.102682,0.12372 0.717434,0.19307 0.956731,0.10793 0.105823,-0.0377 0.167772,-0.12095 0.167772,-0.22559 0,-0.12902 0.01989,-0.146 0.08948,-0.0764 0.794189,0.0908 0.357913,-0.28334 0.357913,-0.28334 l 0.0059,-1.17441 c 0.0044,-0.87827 0.02477,-1.12269 0.08078,-0.96934 0.0817,0.22368 0.266726,0.26502 0.509006,0.11371 0.2432,-0.15188 0.302113,0.0117 0.330497,0.91764 0.02878,0.91864 0.164778,1.39792 0.415244,1.46342 0.07676,0.0201 0.157619,0.0835 0.179674,0.14099 0.04976,0.12968 0.240663,0.1364 0.320695,0.0113 0.0328,-0.0513 0.122872,-0.12798 0.200168,-0.17048 0.1845,-0.10145 0.178072,-0.20377 -0.01851,-0.2946 -0.151771,-0.0701 -0.159317,-0.12373 -0.159317,-1.13193 0,-1.04075 0.0028,-1.05872 0.167772,-1.08215 0.107818,-0.0153 0.176286,-0.0838 0.191598,-0.1916 0.06945,-0.489 0.328719,0.15903 0.313116,0.78261 -0.01412,0.56432 0.04152,0.76461 0.212407,0.76461 0.241935,0 0.308149,-0.16342 0.308149,-0.76056 0,-0.59844 0.02969,-0.67148 0.186051,-0.45764 0.164316,0.22471 0.335904,0.0674 0.335904,-0.30804 0,-0.38195 0.07486,-0.42506 0.256551,-0.14776 0.0828,0.12636 0.168423,0.1762 0.255327,0.14862 0.105532,-0.0335 0.146927,0.0269 0.214596,0.31319 0.04611,0.19509 0.08546,0.60407 0.08744,0.90886 0.0038,0.58633 0.05417,0.70654 0.277997,0.66359 0.125594,-0.0241 0.14033,-0.12141 0.159155,-1.05091 l 0.02074,-1.02434 h 0.333438 c 0.183392,0 0.333439,0.0328 0.333439,0.0728 0,0.0401 0.08824,0.13066 0.196079,0.20133 0.191625,0.12555 0.200013,0.1239 0.369249,-0.0728 0.212677,-0.24725 0.254888,-0.25114 0.254888,-0.0235 0,0.25438 0.318038,0.45417 0.521106,0.32735 0.08249,-0.0515 0.14998,-0.13229 0.14998,-0.17949 0,-0.0472 0.0902,-0.10847 0.200448,-0.13614 0.110247,-0.0277 0.239374,-0.10354 0.286949,-0.16861 0.111107,-0.15194 0.258254,-0.0617 0.258254,0.15831 0,0.0937 0.0602,0.22494 0.133774,0.29152 0.12437,0.11255 0.147961,0.10791 0.335543,-0.066 0.193611,-0.17953 0.201769,-0.18085 0.201769,-0.0326 0,0.20828 0.219218,0.28422 0.340735,0.11804 0.08652,-0.11833 0.09775,-0.11073 0.119706,0.0811 0.01926,0.16825 0.0664,0.21651 0.229837,0.23531 0.157277,0.0181 0.222178,-0.017 0.276113,-0.14913 0.04843,-0.11868 0.06577,0.14161 0.05537,0.83125 l -0.01514,1.00403 0.857875,0.34053 h 0.185912 l 0.537492,-1.0437 c 0,0 0.07224,-0.63567 0.05527,-0.82022 -0.01698,-0.18455 -0.01114,-0.47623 0.01298,-0.64819 0.03988,-0.28438 0.05662,-0.30466 0.185149,-0.2244 0.109492,0.0684 0.174647,0.0674 0.289421,-0.004 0.08146,-0.0509 0.246441,-0.0925 0.366612,-0.0925 0.120171,0 0.235417,-0.042 0.256102,-0.0932 0.02069,-0.0513 0.04026,0.50478 0.0435,1.23565 0.0047,1.07037 -0.01525,1.35 -0.102792,1.43754 -0.145872,0.14587 -0.06481,0.32806 0.145962,0.32806 0.09375,0 0.189771,0.0503 0.213378,0.11184 0.117881,0.3072 0.569555,-0.004 0.569555,-0.39293 0,-0.12764 0.03355,-0.2528 0.07457,-0.27815 0.04113,-0.0254 0.07563,-0.37011 0.07694,-0.76869 0.0016,-0.48238 0.0353,-0.76599 0.101427,-0.8531 0.131419,-0.17313 0.179253,-0.16455 0.207917,0.0373 0.01564,0.11012 0.07507,0.16777 0.172958,0.16777 0.12041,0 0.157743,-0.0646 0.193855,-0.33554 0.04434,-0.33268 0.04482,-0.33316 0.05592,-0.0559 0.0092,0.22876 0.03906,0.27961 0.16442,0.27961 0.202138,0 0.816125,-0.28188 0.816125,-0.37469 0,-0.11629 0.276381,-0.0839 0.40811,0.0478 0.07984,0.0798 0.191144,0.10637 0.329854,0.0786 0.17185,-0.0344 0.239406,-0.001 0.377135,0.18507 0.143514,0.19411 0.169904,0.33104 0.182447,0.94664 0.01525,0.74839 0.04062,0.82516 0.515204,1.55875 0.08552,0.1322 0.360825,-0.0251 0.333371,-0.19051 -0.03444,-0.20747 0.50913,-0.2172 0.726487,-0.013 0.09419,0.0885 0.23297,0.14905 0.308398,0.13458 0.125997,-0.0242 0.14017,-0.14439 0.174423,-1.47941 0.02271,-0.88501 0.06227,-1.40208 0.101184,-1.32261 0.08686,0.17737 0.35071,0.16666 0.398521,-0.0162 0.07209,-0.27567 0.494918,-0.27524 0.582465,5.6e-4 0.06315,0.19896 0.318118,0.25862 0.479828,0.11227 0.119966,-0.10856 0.139367,-0.10929 0.178729,-0.007 0.06538,0.17037 0.233043,0.13983 0.391632,-0.0713 0.16345,-0.21765 0.253724,-0.23839 0.253724,-0.0583 0,0.13901 0.340873,0.46841 0.484714,0.46841 0.04878,0 0.14871,-0.0663 0.222063,-0.14737 0.07335,-0.0811 0.158638,-0.13176 0.189521,-0.11267 0.03088,0.0191 0.09761,-0.0152 0.148295,-0.0763 0.05068,-0.0611 0.13557,-0.11102 0.188647,-0.11102 0.05308,0 0.110621,-0.042 0.127875,-0.0932 0.02443,-0.0726 0.05891,-0.0705 0.155848,0.01 0.103418,0.0854 0.18177,0.0867 0.463086,0.008 0.27721,-0.0776 0.372034,-0.0769 0.522957,0.004 0.141629,0.0758 0.204738,0.0783 0.272324,0.0107 0.124167,-0.12417 0.420381,-0.10921 0.557757,0.0282 0.06798,0.068 0.166252,0.0947 0.237011,0.0645 0.06648,-0.0284 0.199544,-0.0472 0.295692,-0.0418 0.118498,0.007 0.187716,-0.0395 0.214855,-0.14326 0.02858,-0.10928 0.07457,-0.13714 0.160722,-0.0974 0.200964,0.0928 0.694892,0.0368 0.840914,-0.0953 0.129889,-0.11755 0.137275,-0.11407 0.137275,0.0646 0,0.19422 0.08682,0.29751 0.320081,0.38081 0.100094,0.0358 0.174377,-0.0213 0.295779,-0.22702 0.158285,-0.26828 0.163124,-0.27045 0.204808,-0.0921 0.03268,0.13985 0.09882,0.18816 0.2821,0.20605 0.131672,0.0129 0.2436,-0.0123 0.248726,-0.0559 0.0051,-0.0436 0.01353,-0.12123 0.01863,-0.17249 0.0051,-0.0513 0.07643,-0.0932 0.158451,-0.0932 0.09067,0 0.140017,0.042 0.125878,0.10704 -0.0128,0.0589 -0.0037,0.1847 0.02006,0.27962 0.03623,0.14436 0.09201,0.17258 0.341167,0.17258 0.163817,0 0.36889,-0.0419 0.45571,-0.0932 0.12629,-0.0746 0.164612,-0.0746 0.191616,0 0.01857,0.0513 0.100463,0.0932 0.181997,0.0932 0.08153,0 0.198574,0.0503 0.260089,0.11185 0.135317,0.13531 0.54407,0.14892 0.559945,0.0186 0.0063,-0.0513 0.01916,-0.12676 0.02868,-0.16777 0.0095,-0.041 0.02221,-0.10811 0.02819,-0.14912 0.006,-0.041 0.04507,-0.0158 0.08687,0.0559 0.05437,0.0933 0.170468,0.13049 0.40784,0.13049 0.304251,0 0.331838,-0.0155 0.331838,-0.18641 0,-0.22763 0.116122,-0.24613 0.173267,-0.0276 0.031,0.11855 0.07575,0.14482 0.176467,0.10361 0.07422,-0.0304 0.285933,-0.0725 0.470483,-0.0937 0.184548,-0.0212 0.391472,-0.0873 0.459828,-0.14684 0.09465,-0.0825 0.160161,-0.0891 0.274716,-0.0278 0.08274,0.0443 0.234999,0.0805 0.338357,0.0805 0.10336,0 0.271813,0.0839 0.374339,0.18642 0.102527,0.10252 0.271825,0.18641 0.376214,0.18641 0.188369,0 0.189804,0.005 0.189804,0.6294 0,0.34617 0.03355,0.65014 0.07456,0.67549 0.04101,0.0253 0.07456,0.15914 0.07456,0.29733 0,0.13819 0.05033,0.30159 0.111849,0.3631 0.06152,0.0615 0.111846,0.18207 0.111846,0.2679 0,0.0956 0.07491,0.19019 0.193329,0.24415 0.169936,0.0774 0.208824,0.0675 0.321375,-0.0817 0.12224,-0.16206 1.593237,-0.1385 1.593237,-0.1385 0,0 0.0379,-0.79507 0.09988,-2.70032 0.05744,-0.0574 0.653308,5.7e-4 0.739297,0.0718 0.04517,0.0375 0.330103,0.0838 0.633187,0.1029 0.461515,0.0291 0.559865,0.0585 0.605255,0.18124 0.02981,0.0806 0.09157,0.1696 0.137255,0.19783 0.122688,0.0758 0.300219,-0.10315 0.300219,-0.30267 0,-0.13576 0.05813,-0.18983 0.265686,-0.24714 0.222134,-0.0613 0.288345,-0.0507 0.403894,0.0649 0.116694,0.11669 0.142075,0.28327 0.163062,1.07004 l 0.02486,0.93185 0.186413,0.72358 c 0,0 0.231304,0.22739 0.345016,0.0719 0.130142,-0.17798 0.573131,-0.22575 0.698011,-0.0753 0.117038,0.14102 0.351359,0.009 0.351359,0.009 l 0.0636,-0.71031 0.0321,-0.11747 c 0,0 0.0797,-0.27134 0.0845,-0.54575 0.01,-0.54946 0.11095,-1.56896 0.12905,-1.29815 0.0155,0.232 0.18701,0.2798 0.48927,0.13636 0.13916,-0.066 0.32448,-0.12006 0.41185,-0.12006 0.0874,0 0.17816,-0.0503 0.20176,-0.11184 0.0546,-0.1423 0.1761,-0.14576 0.1761,-0.005 0,0.0588 0.0624,0.12662 0.13862,0.15082 0.1596,0.0507 0.38333,-0.018 0.38333,-0.11767 0,-0.0373 0.0923,0.0323 0.20506,0.1545 0.19487,0.21122 0.22524,0.21961 0.61186,0.16895 0.34916,-0.0458 0.41415,-0.0797 0.4586,-0.23973 0.0329,-0.11855 0.0545,0.009 0.0592,0.34979 0.004,0.2949 0.041,0.55693 0.082,0.58228 0.0416,0.0257 0.0746,0.37302 0.0746,0.78561 0,0.70112 0.009,0.74571 0.18141,0.8584 0.13845,0.0907 0.33064,0.039 0.33064,0.039 l 0.29544,-0.67637 0.0423,-0.46603 c 0.10434,-1.14854 0.13537,-1.3981 0.17384,-1.3981 0.0226,0 0.0867,0.0587 0.14256,0.13049 0.0955,0.12277 0.10991,0.12056 0.24387,-0.0373 0.0921,-0.10846 0.22558,-0.16777 0.37768,-0.16777 0.26117,0 0.5295,-0.11754 0.62065,-0.27186 0.1076,-0.18218 0.18123,-0.10596 0.17257,0.17865 -0.007,0.23824 0.0169,0.28323 0.16337,0.30399 0.20314,0.0288 0.38737,-0.10401 0.38737,-0.27922 0,-0.10366 0.0845,-0.1257 0.5001,-0.13039 0.30051,-0.003 0.51131,-0.0392 0.52818,-0.0898 0.0154,-0.0463 0.096,-0.0842 0.17895,-0.0842 0.0988,0 0.13705,0.0361 0.11075,0.1046 -0.0673,0.17544 0.12729,0.37596 0.28126,0.2898 0.081,-0.0453 0.26168,-0.0496 0.46767,-0.0111 0.18463,0.0345 0.36385,0.0453 0.39826,0.0241 0.10922,-0.0675 0.20528,0.21446 0.25909,0.76052 0.0663,0.67323 0.11164,0.75039 0.38444,0.65475 0.20188,-0.0708 0.21022,-0.0939 0.23108,-0.64183 0.0236,-0.62078 0.0949,-0.70446 0.50657,-0.59437 0.18634,0.0498 0.19109,0.0676 0.20993,0.78491 0.0178,0.67737 0.19926,0.86969 0.19926,0.86969 l 0.29538,0.0317 c 0,0 0.0721,-0.45898 0.0721,-0.98295 v -0.93837 l 0.53623,0.0498 c 0.29492,0.0274 0.54543,0.059 0.55669,0.0703 0.0113,0.0112 0.0346,0.37113 0.0518,0.79972 0.0173,0.4286 0.0834,0.90542 0.0834,0.90542 l 0.58004,0.65972 c 0,0 0.0559,-0.51184 0.0559,-1.13384 0,-0.622 0.0211,-1.10979 0.0469,-1.08397 0.0258,0.0258 0.0407,0.38059 0.0331,0.78841 -0.009,0.46748 0.0162,0.75997 0.0672,0.79153 0.0483,0.0299 0.0343,0.29879 0.0343,0.29879 0,0 0.49096,-0.66808 0.49186,-1.13652 0.002,-0.67216 0.0314,-0.98893 0.10142,-1.08119 0.13659,-0.17993 0.18069,-0.16413 0.20816,0.0746 0.0214,0.18594 0.0583,0.20927 0.39642,0.25038 0.42067,0.0512 0.55924,-0.0186 0.55924,-0.28142 0,-0.10119 0.041,-0.17523 0.0932,-0.16845 0.21574,0.028 0.27961,-0.0158 0.27961,-0.19198 0,-0.21086 0.0866,-0.23973 0.2237,-0.0746 0.0511,0.0615 0.13693,0.11185 0.19082,0.11185 0.0559,0 0.10804,0.10342 0.12136,0.24064 0.0152,0.15649 0.0792,0.26832 0.18318,0.31981 0.0879,0.0435 0.21516,0.1251 0.28278,0.18123 0.15895,0.13191 0.24865,0.0373 0.2791,-0.29429 0.0213,-0.2324 0.0498,-0.26348 0.25999,-0.28387 0.12983,-0.0126 0.322,-0.10256 0.42706,-0.19992 l 0.191,-0.17702 0.0203,1.31839 c 0.0201,1.30343 0.0222,1.31867 0.18811,1.34222 0.1066,0.0151 0.16778,0.0754 0.16778,0.16515 0,0.17755 0.22251,0.30155 0.43935,0.24484 0.11237,-0.0294 0.21255,0.008 0.31322,0.11568 0.17839,0.19148 0.24017,0.19584 0.48667,0.0343 0.16355,-0.10717 0.22668,-0.11132 0.45218,-0.0298 0.1907,0.069 0.28444,0.0724 0.34415,0.0127 0.0451,-0.0451 0.19163,-0.0821 0.32551,-0.0821 0.16438,0 0.26852,-0.0468 0.32063,-0.14423 0.0435,-0.0812 0.0772,-0.6383 0.0772,-1.27558 0,-0.96513 0.0161,-1.12518 0.1097,-1.08927 0.0603,0.0231 0.16098,-0.009 0.22369,-0.0719 0.1023,-0.1023 0.114,-0.0908 0.114,0.112 0,0.14965 0.0679,0.28898 0.20105,0.41242 0.2685,0.24897 0.39548,0.14024 0.39548,-0.33864 0,-0.33324 0.0149,-0.3637 0.17728,-0.3637 0.0975,0 0.21905,0.0503 0.27011,0.11185 0.1268,0.15279 0.49356,0.14426 0.55386,-0.0129 0.0433,-0.1129 0.0573,-0.11113 0.14755,0.0186 0.0618,0.0889 0.12034,0.50456 0.15404,1.09407 l 0.0543,0.9507 0.16352,0.71022 c 0,0 0.16877,0.11381 0.30981,0.0978 l 0.22002,-0.025 0.0212,-0.84649 c 0.0192,-0.76943 0.0345,-0.84999 0.16777,-0.88484 0.0806,-0.0211 0.14662,-0.10154 0.14662,-0.17878 0,-0.15627 0.19212,-0.1933 0.24502,-0.0472 0.027,0.0745 0.0657,0.0743 0.19262,-5.7e-4 0.14506,-0.0857 0.15888,-0.0774 0.15888,0.0956 0,0.39207 0.39481,0.2956 0.48581,-0.11871 0.0638,-0.29055 0.17011,-0.27785 0.19919,0.0238 0.0205,0.21308 0.0526,0.24515 0.26571,0.2657 l 0.24233,0.0234 v -0.52058 c 0,-0.79819 0.12466,-0.96013 0.41011,-0.53278 0.0898,0.13439 0.21413,0.22335 0.3124,0.22348 0.1348,1.5e-4 0.16731,0.049 0.18641,0.27984 0.0186,0.2246 0.0562,0.2843 0.19092,0.30344 0.16218,0.023 0.16777,0.004 0.16777,-0.58228 0,-0.38508 0.0272,-0.5893 0.0746,-0.56002 0.041,0.0253 0.0746,0.1073 0.0746,0.18212 0,0.18434 0.29776,0.25717 0.4121,0.1008 0.0768,-0.10498 0.094,-0.0952 0.13752,0.0781 0.0567,0.22581 0.22373,0.26131 0.31854,0.0677 0.0398,-0.0812 0.078,0.30497 0.10118,1.02204 0.0365,1.12787 0.20908,1.19304 0.20908,1.19304 l 0.37282,0.41334 0.0855,-1.07774 c 0,0 -0.069,-0.20181 -0.0697,-0.7586 -8.4e-4,-0.64778 -0.0273,-0.88875 -0.1047,-0.95296 -0.0643,-0.0533 -0.11488,-0.2863 -0.13338,-0.61378 -0.0233,-0.41211 -0.0612,-0.5508 -0.17305,-0.63256 -0.17808,-0.13022 -0.27439,-0.10135 -0.3831,0.11483 -0.0519,0.10322 -0.10416,0.13704 -0.13489,0.0873 -0.0832,-0.13453 -0.79357,-0.1007 -0.8985,0.0428 -0.0789,0.10783 -0.10789,0.0788 -0.2234,-0.2237 -0.073,-0.19121 -0.17443,-0.34765 -0.22535,-0.34765 -0.10934,0 -0.27318,0.18044 -0.24678,0.27177 0.0376,0.13028 -0.20363,0.39932 -0.3581,0.39932 -0.088,0 -0.21359,0.0819 -0.2792,0.18207 -0.0896,0.13681 -0.19761,0.18778 -0.43435,0.20505 -0.26461,0.0193 -0.32194,0.0524 -0.35803,0.20668 -0.0422,0.18017 -0.0463,0.17838 -0.21411,-0.0932 -0.20689,-0.33475 -0.42425,-0.36324 -0.54803,-0.0718 l -0.0871,0.20505 -0.0247,-0.22369 c -0.0562,-0.50898 -0.0899,-0.56992 -0.30156,-0.5453 -0.18158,0.0211 -0.20882,0.0659 -0.2861,0.47073 l -0.0854,0.44739 -0.01,-0.36427 c -0.0128,-0.48882 -0.27317,-0.75458 -0.67423,-0.68823 -0.14706,0.0243 -0.46207,0.0446 -0.70002,0.0451 -0.41336,8.5e-4 -0.4361,0.0108 -0.5106,0.22452 -0.0916,0.26281 -0.17867,0.28667 -0.23667,0.0649 -0.0288,-0.10997 -0.0792,-0.14437 -0.16392,-0.11185 -0.0673,0.0258 -0.27065,0.0469 -0.45184,0.0469 h -0.32945 v 0.60023 c 0,0.40503 -0.0389,0.67545 -0.11962,0.83154 -0.0861,0.16659 -0.11162,0.37299 -0.091,0.73756 0.0258,0.45648 0.0139,0.51007 -0.12071,0.54528 -0.0895,0.0234 -0.21174,-0.0196 -0.30526,-0.10746 -0.20546,-0.19302 -0.54394,-0.19325 -0.61528,-5.6e-4 -0.035,0.0947 -0.0877,0.12528 -0.1497,0.087 -0.0698,-0.0431 -0.10202,-0.38558 -0.11916,-1.2669 -0.0219,-1.12702 -0.0345,-1.21953 -0.18861,-1.38353 -0.10493,-0.11169 -0.21832,-0.16183 -0.3111,-0.13756 -0.0982,0.0257 -0.20458,-0.03 -0.32478,-0.16989 -0.13026,-0.1516 -0.24609,-0.20746 -0.42672,-0.20581 -0.13636,0.001 -0.28944,-0.0305 -0.34016,-0.0705 -0.15826,-0.12478 -0.45758,0.008 -0.5882,0.26026 -0.11746,0.22713 -0.12699,0.23131 -0.18294,0.08 -0.0702,-0.1897 -0.36031,-0.30408 -0.44083,-0.17379 -0.0426,0.069 -0.0903,0.0675 -0.20833,-0.006 -0.12505,-0.0781 -0.17487,-0.0775 -0.27212,0.003 -0.10109,0.0839 -0.1399,0.0748 -0.25714,-0.0604 -0.15836,-0.18259 -0.38157,-0.21164 -0.38157,-0.0497 0,0.0602 -0.0702,0.24431 -0.15609,0.40901 -0.13384,0.25678 -0.17636,0.2886 -0.29838,0.2233 -0.0783,-0.0419 -0.19086,-0.19238 -0.25022,-0.33444 -0.0594,-0.14206 -0.14454,-0.25829 -0.18931,-0.25829 -0.15322,0 -0.52274,0.32616 -0.52274,0.46141 0,0.0913 -0.0556,0.13511 -0.1715,0.13511 -0.0943,0 -0.21316,0.0417 -0.26408,0.0926 -0.10794,0.10793 -0.20824,-0.005 -0.27967,-0.31628 -0.0788,-0.34262 -0.0995,-0.37282 -0.25564,-0.37282 -0.10557,0 -0.18033,0.0717 -0.23332,0.22369 -0.0903,0.25906 -0.17854,0.28716 -0.23413,0.0746 -0.0498,-0.1903 -0.31302,-0.19545 -0.47246,-0.009 -0.0717,0.0837 -0.17793,0.12468 -0.26465,0.102 -0.10614,-0.0278 -0.15789,0.01 -0.19353,0.13974 -0.0468,0.17077 -0.0502,0.169 -0.0892,-0.0461 -0.0326,-0.17989 -0.083,-0.22855 -0.25744,-0.24847 -0.13326,-0.0152 -0.24027,0.0169 -0.27739,0.0832 -0.0365,0.0651 -0.13101,0.0945 -0.23829,0.074 -0.1357,-0.026 -0.18796,0.005 -0.22055,0.12933 -0.0235,0.0898 -0.0758,0.14287 -0.11629,0.11786 -0.0405,-0.025 -0.1283,0.009 -0.1952,0.0762 -0.11246,0.11246 -0.12896,0.1116 -0.21892,-0.0114 -0.0601,-0.0822 -0.14524,-0.11466 -0.22275,-0.0849 -0.077,0.0296 -0.14184,0.005 -0.16789,-0.0625 -0.0233,-0.0608 -0.12379,-0.11059 -0.22321,-0.11059 -0.0994,0 -0.20009,-0.0503 -0.2237,-0.11185 -0.0464,-0.12083 -0.47435,-0.15901 -0.47435,-0.0423 0,0.13581 -0.30635,0.16995 -0.43997,0.049 -0.16729,-0.1514 -0.29651,-0.14998 -0.46789,0.005 -0.10324,0.0934 -0.17761,0.10601 -0.30413,0.0514 -0.21337,-0.0921 -0.42845,-0.0462 -0.42845,0.0913 0,0.15443 -0.0772,0.13179 -0.30949,-0.0908 -0.19834,-0.19002 -0.21268,-0.19267 -0.39554,-0.0728 -0.10436,0.0684 -0.19372,0.1655 -0.19857,0.21582 -0.005,0.0503 -0.0302,-0.009 -0.0563,-0.13221 -0.0606,-0.28578 -0.39549,-0.35723 -0.54585,-0.11646 -0.0785,0.12573 -0.17257,0.15377 -0.51577,0.15377 h -0.41976 l -0.0557,0.35419 c -0.0306,0.1948 -0.0794,0.67295 -0.10825,1.06255 l -0.0525,0.70837 -0.0133,-0.91527 c -0.0132,-0.91022 -0.0143,-0.91567 -0.20576,-0.98845 -0.10587,-0.0402 -0.17751,-0.11491 -0.15921,-0.16592 0.0485,-0.13511 -0.0829,-0.35373 -0.21252,-0.35373 -0.0614,0 -0.13239,0.0587 -0.15784,0.13049 -0.0254,0.0718 -0.0973,0.18991 -0.15975,0.26252 -0.10755,0.12515 -0.12405,0.12189 -0.31662,-0.0626 -0.19443,-0.18628 -0.21116,-0.1894 -0.38937,-0.0726 -0.10241,0.0671 -0.20335,0.18755 -0.2243,0.26766 -0.0447,0.17111 -0.20118,0.19683 -0.20118,0.0331 0,-0.0619 -0.0671,-0.17004 -0.14913,-0.24027 -0.082,-0.0702 -0.14913,-0.16858 -0.14913,-0.21856 0,-0.1336 -0.14203,-0.19839 -0.2459,-0.11219 -0.0496,0.0412 -0.20727,0.086 -0.35031,0.0996 -0.19064,0.0181 -0.26714,0.0645 -0.28656,0.17386 -0.0484,0.27273 -0.15124,0.29035 -0.28839,0.0494 -0.0735,-0.12919 -0.18725,-0.23511 -0.25266,-0.23537 -0.16092,-5.6e-4 -0.36574,0.23738 -0.36574,0.42502 0,0.084 -0.05033,0.19454 -0.111848,0.24559 -0.08993,0.0746 -0.111849,0.30291 -0.111849,1.16489 0,1.01149 -0.0082,1.07207 -0.144729,1.07207 -0.0796,0 -0.165469,0.0335 -0.190813,0.0746 -0.06811,0.11021 -0.186413,0.0905 -0.186413,-0.0311 0,-0.0581 -0.04194,-0.11954 -0.09321,-0.13654 -0.06422,-0.0213 -0.108422,-0.31885 -0.142142,-0.95691 -0.02691,-0.50931 -0.07724,-1.0767 -0.111846,-1.26087 -0.05528,-0.29422 -0.09006,-0.33975 -0.286609,-0.37524 -0.158935,-0.0287 -0.217346,-0.0775 -0.201761,-0.16856 0.0135,-0.0789 -0.05377,-0.16267 -0.174926,-0.21787 -0.1673,-0.0762 -0.207539,-0.0706 -0.267975,0.0374 -0.03911,0.0699 -0.11978,0.12708 -0.179258,0.12708 -0.05948,0 -0.109211,0.0252 -0.110513,0.0559 -0.0014,0.0308 -0.04856,0.11685 -0.105012,0.19132 -0.08828,0.11645 -0.124495,0.12174 -0.258864,0.0378 -0.115763,-0.0723 -0.189631,-0.0765 -0.285214,-0.0162 -0.103752,0.0654 -0.144185,0.0509 -0.20667,-0.0744 -0.125985,-0.2527 -0.326828,-0.23986 -0.419801,0.0268 -0.08703,0.24964 -0.234179,0.26749 -0.276533,0.0335 -0.03898,-0.21532 -0.146172,-0.29899 -0.250012,-0.19515 -0.133347,0.13335 -0.267282,0.10843 -0.320631,-0.0597 -0.06833,-0.21531 -0.322352,-0.19036 -0.379488,0.0373 -0.02573,0.10253 -0.09431,0.18641 -0.152395,0.18641 -0.198695,0 -0.289092,1.45402 -0.289092,1.45402 l -0.260216,0.0887 v 0 -1.00342 l -0.298803,-0.26994 c -0.230955,-0.20866 -0.328305,-0.25419 -0.428748,-0.20054 -0.07147,0.0382 -0.189474,0.0879 -0.262229,0.11049 -0.07276,0.0226 -0.159502,0.11466 -0.192774,0.20461 -0.07124,0.19258 -0.114611,0.13765 -0.229501,-0.29072 -0.06124,-0.22835 -0.123637,-0.3169 -0.223275,-0.3169 -0.14137,0 -0.260245,0.18706 -0.190542,0.29984 0.02131,0.0345 0.0044,0.0839 -0.03757,0.10984 -0.04197,0.0259 -0.09644,-0.005 -0.121042,-0.0694 -0.0246,-0.0641 -0.104662,-0.11658 -0.177908,-0.11658 -0.07325,0 -0.152487,-0.0503 -0.176095,-0.11184 -0.02404,-0.0627 -0.134978,-0.11185 -0.252365,-0.11185 -0.115195,0 -0.28159,-0.0505 -0.369769,-0.1123 -0.149872,-0.10497 -0.170727,-0.0977 -0.319929,0.11185 -0.131238,0.18431 -0.211892,0.22414 -0.453799,0.22414 -0.161807,0 -0.360846,0.0416 -0.442312,0.0925 -0.118683,0.0741 -0.179199,0.0731 -0.30451,-0.005 -0.08601,-0.0537 -0.173472,-0.0806 -0.194349,-0.0597 -0.02088,0.0209 -0.107825,-0.0271 -0.193214,-0.10668 -0.184683,-0.17206 -0.466743,-0.18962 -0.526923,-0.0328 -0.02483,0.0647 -0.136331,0.11185 -0.264554,0.11185 -0.121899,0 -0.242371,0.0335 -0.267718,0.0746 -0.07739,0.12523 -0.186414,0.0831 -0.186414,-0.0719 0,-0.16592 -0.255924,-0.33309 -0.415933,-0.27168 -0.05831,0.0224 -0.106021,0.11105 -0.106021,0.19705 0,0.086 -0.03646,0.22449 -0.08101,0.30775 l -0.08101,0.15136 -0.142683,-0.15315 c -0.07848,-0.0842 -0.142686,-0.17392 -0.142686,-0.19929 0,-0.0254 -0.09808,-0.14422 -0.21796,-0.26409 -0.1677,-0.16771 -0.28622,-0.21797 -0.513976,-0.21797 -0.194344,0 -0.310761,0.0384 -0.338941,0.11185 -0.02703,0.0704 -0.141167,0.11185 -0.308083,0.11185 -0.214229,0 -0.278778,-0.0358 -0.336038,-0.18641 -0.03898,-0.10253 -0.127036,-0.18642 -0.195677,-0.18642 -0.134989,0 -0.62454,0.4647 -0.62454,0.59283 0,0.12996 -0.133741,0.0882 -0.250282,-0.0782 -0.111801,-0.15962 -0.446537,-0.36547 -0.594298,-0.36547 -0.04503,0 -0.160683,0.0923 -0.256995,0.20506 -0.116779,0.13674 -0.188091,0.174 -0.214069,0.11185 -0.02272,-0.0544 -0.174461,-0.0932 -0.364056,-0.0932 -0.250372,0 -0.351498,-0.0377 -0.439942,-0.16396 -0.09712,-0.13866 -0.146561,-0.1528 -0.320405,-0.0917 -0.11306,0.0398 -0.217743,0.1387 -0.232628,0.21988 -0.01489,0.0812 -0.08203,0.20951 -0.149213,0.2852 -0.117799,0.1327 -0.123616,0.13138 -0.163344,-0.0373 -0.03673,-0.15594 -0.08671,-0.1762 -0.461191,-0.18703 -0.301618,-0.009 -0.431389,0.0176 -0.46042,0.0932 -0.02223,0.0579 -0.09181,0.10535 -0.154614,0.10535 -0.06514,0 -0.114188,0.0652 -0.114188,0.15175 0,0.12706 -0.02353,0.13916 -0.144604,0.0744 -0.09616,-0.0515 -0.160085,-0.0523 -0.190814,-0.003 -0.07393,0.11963 -0.172659,0.0868 -0.22382,-0.0744 -0.03483,-0.10975 -0.112819,-0.14913 -0.295307,-0.14913 -0.151638,0 -0.26465,-0.0435 -0.290896,-0.11185 -0.05964,-0.1554 -0.392875,-0.14175 -0.455056,0.0186 -0.04818,0.12428 -0.05516,0.12428 -0.146687,0 -0.111847,-0.15187 -0.309005,-0.17164 -0.371707,-0.0373 -0.0348,0.0746 -0.0522,0.0746 -0.08699,0 -0.0494,-0.10586 -0.254765,-0.1278 -0.254765,-0.0272 0,0.0915 -0.294162,0.27306 -0.540597,0.33375 -0.178108,0.0439 -0.205203,0.0283 -0.206195,-0.1187 -0.0016,-0.23762 -0.08143,-0.3361 -0.297119,-0.36656 -0.137103,-0.0194 -0.206126,0.0186 -0.260937,0.14358 -0.04577,0.10434 -0.179485,0.19817 -0.346517,0.24315 -0.284963,0.0767 -0.361892,0.18237 -0.361892,0.49696 0,0.29033 -0.184488,0.0929 -0.300558,-0.3217 -0.104362,-0.37274 -0.233404,-0.47208 -0.416188,-0.32038 -0.06508,0.054 -0.219719,0.0905 -0.343644,0.081 -0.143877,-0.011 -0.261617,0.0307 -0.325744,0.11519 -0.09461,0.1247 -0.100563,0.12352 -0.102797,-0.0205 -0.0031,-0.20192 -0.141258,-0.33182 -0.352827,-0.33182 -0.141633,0 -0.1715,0.0398 -0.1715,0.22842 0,0.21279 -0.01658,0.22682 -0.242336,0.20505 -0.221961,-0.0214 -0.244304,-0.0472 -0.265727,-0.30714 -0.03866,-0.46905 -0.395703,-0.44553 -0.500804,0.033 -0.06292,0.2865 -0.23567,0.35419 -0.37957,0.14874 -0.147363,-0.21039 -0.443693,-0.20576 -0.566273,0.009 -0.06068,0.10624 -0.111149,0.59165 -0.137599,1.32353 l -0.04177,1.15576 -0.01415,-1.3144 c -0.01586,-1.47306 -0.01626,-1.47418 -0.537965,-1.49462 -0.306962,-0.012 -0.594666,-0.18493 -0.594666,-0.35737 0,-0.0396 -0.06478,-0.10661 -0.143952,-0.14898 -0.108661,-0.0582 -0.172642,-0.0484 -0.260977,0.04 z"
       id="path847"
       sodipodi:nodetypes="ssssscsssssssssssssssssssssssssssssssssssssscsssssssssssssssssssscscccssssssscsscsssscsssssscccsssssssssccssssssssssssssssssssssscssssssssssssssssssccccsssssssssssssssssssssscssssssssssssssssssssssssssssssssssssssssssssssssssssssssssssssssscccsssssssccsscccsssssssssssssssccsssssssssssssssssssssccscsssccssssccsssssssssssssscsssssssssssssssssssssccscsssscsssscsssssssssssscccsssssssssssssssscssscsscsscscssssssssssscssssssssssssssssssssssssssssssssssssssssssssscsscsssssssssssssssscsssssssssssssscssssssssssccccsssssssssssssssssssssssssscsssssssssssssssssssssssscssssssssssssssssssssssssssscssssss" />
    <path
       style="fill:none;stroke:#000000;stroke-width:0.264583;stroke-linecap:butt;stroke-linejoin:miter;stroke-miterlimit:4;stroke-dasharray:none;stroke-opacity:1"
       d="m 18.512325,58.449662 v 6.87061 h 7.292955"
       id="path893" />
    <text
       xml:space="preserve"
       style="font-stretch:condensed;font-size:2.82223px;line-height:1.25;font-family:'Noto Sans';-inkscape-font-specification:'Noto Sans, Condensed';letter-spacing:0px;word-spacing:0px;writing-mode:lr-tb;stroke-width:0.264583"
       x="12.340868"
       y="62.25441"
       id="text897"><tspan
         sodipodi:role="line"
         id="tspan895"
         x="12.340868"
         y="62.25441"
         style="stroke-width:0.264583">5 pA</tspan></text>
    <text
       xml:space="preserve"
       style="font-stretch:condensed;font-size:2.82223px;line-height:1.25;font-family:'Noto Sans';-inkscape-font-specification:'Noto Sans, Condensed';letter-spacing:0px;word-spacing:0px;writing-mode:lr-tb;stroke-width:0.264583"
       x="19.252428"
       y="68.779984"
       id="text901"><tspan
         sodipodi:role="line"
         id="tspan899"
         x="19.252428"
         y="68.779984"
         style="stroke-width:0.264583">25 ms</tspan></text>
    <text
       xml:space="preserve"
       style="font-stretch:condensed;font-size:2.82223px;line-height:1.25;font-family:'Noto Sans';-inkscape-font-specification:'Noto Sans, Condensed';letter-spacing:0px;word-spacing:0px;writing-mode:lr-tb;stroke-width:0.264583"
       x="50.264885"
       y="31.59334"
       id="text905"><tspan
         sodipodi:role="line"
         id="tspan903"
         x="50.264885"
         y="31.59334"
         style="stroke-width:0.264583">Kir6.2 + SUR1</tspan></text>
    <text
       xml:space="preserve"
       style="font-stretch:condensed;font-size:2.82223px;line-height:1.25;font-family:'Noto Sans';-inkscape-font-specification:'Noto Sans, Condensed';letter-spacing:0px;word-spacing:0px;writing-mode:lr-tb;stroke-width:0.264583"
       x="46.557899"
       y="53.075241"
       id="text905-2"><tspan
         sodipodi:role="line"
         id="tspan903-7"
         x="46.557899"
         y="53.075241"
         style="stroke-width:0.264583">Kir6.2-V127T + SUR1</tspan></text>
    <path
       style="fill:none;stroke:#000000;stroke-width:0.264583px;stroke-linecap:butt;stroke-linejoin:miter;stroke-opacity:1"
       d="m 99.454128,60.323456 h 3.429122"
       id="path997"
       sodipodi:nodetypes="cc" />
    <path
       style="fill:none;stroke:#000000;stroke-width:0.264583px;stroke-linecap:butt;stroke-linejoin:miter;stroke-opacity:1"
       d="m 99.454128,56.251924 h 3.429122"
       id="path997-0"
       sodipodi:nodetypes="cc" />
    <path
       style="fill:none;stroke:#000000;stroke-width:0.264583px;stroke-linecap:butt;stroke-linejoin:miter;stroke-opacity:1"
       d="m 99.454138,43.493064 h 3.429112"
       id="path997-0-9"
       sodipodi:nodetypes="cc" />
    <path
       style="fill:none;stroke:#000000;stroke-width:0.264583px;stroke-linecap:butt;stroke-linejoin:miter;stroke-opacity:1"
       d="m 99.454138,36.366854 h 3.429112"
       id="path997-0-3"
       sodipodi:nodetypes="cc" />
    <text
       xml:space="preserve"
       style="font-stretch:condensed;font-size:2.82223px;line-height:1.25;font-family:'Noto Sans';-inkscape-font-specification:'Noto Sans, Condensed';letter-spacing:0px;word-spacing:0px;writing-mode:lr-tb;stroke-width:0.264583"
       x="103.52426"
       y="61.332405"
       id="text1037"><tspan
         sodipodi:role="line"
         id="tspan1035"
         x="103.52426"
         y="61.332405"
         style="stroke-width:0.264583">C</tspan></text>
    <text
       xml:space="preserve"
       style="font-stretch:condensed;font-size:2.82223px;line-height:1.25;font-family:'Noto Sans';-inkscape-font-specification:'Noto Sans, Condensed';letter-spacing:0px;word-spacing:0px;writing-mode:lr-tb;stroke-width:0.264583"
       x="103.52426"
       y="57.25946"
       id="text1041"><tspan
         sodipodi:role="line"
         id="tspan1039"
         x="103.52426"
         y="57.25946"
         style="stroke-width:0.264583">O</tspan></text>
    <text
       xml:space="preserve"
       style="font-stretch:condensed;font-size:2.82223px;line-height:1.25;font-family:'Noto Sans';-inkscape-font-specification:'Noto Sans, Condensed';letter-spacing:0px;word-spacing:0px;writing-mode:lr-tb;stroke-width:0.264583"
       x="103.52426"
       y="37.37439"
       id="text1041-6"><tspan
         sodipodi:role="line"
         id="tspan1039-0"
         x="103.52426"
         y="37.37439"
         style="stroke-width:0.264583">O</tspan></text>
    <text
       xml:space="preserve"
       style="font-stretch:condensed;font-size:2.82223px;line-height:1.25;font-family:'Noto Sans';-inkscape-font-specification:'Noto Sans, Condensed';letter-spacing:0px;word-spacing:0px;writing-mode:lr-tb;stroke-width:0.264583"
       x="103.52426"
       y="44.50201"
       id="text1037-6"><tspan
         sodipodi:role="line"
         id="tspan1035-2"
         x="103.52426"
         y="44.50201"
         style="stroke-width:0.264583">C</tspan></text>
  </g>
</svg>
