<?xml version="1.0" encoding="UTF-8" standalone="no"?>
<svg
   xmlns:dc="http://purl.org/dc/elements/1.1/"
   xmlns:cc="http://creativecommons.org/ns#"
   xmlns:rdf="http://www.w3.org/1999/02/22-rdf-syntax-ns#"
   xmlns:svg="http://www.w3.org/2000/svg"
   xmlns="http://www.w3.org/2000/svg"
   xmlns:sodipodi="http://sodipodi.sourceforge.net/DTD/sodipodi-0.dtd"
   xmlns:inkscape="http://www.inkscape.org/namespaces/inkscape"
   width="78.981941mm"
   height="34.060013mm"
   viewBox="0 0 78.981942 34.060014"
   version="1.1"
   id="svg29897"
   inkscape:version="1.0.1 (3bc2e813f5, 2020-09-07, custom)"
   sodipodi:docname="single_traces_sur.svg">
  <defs
     id="defs29891">
    <marker
       style="overflow:visible"
       id="Arrow1Mend"
       refX="0"
       refY="0"
       orient="auto"
       inkscape:stockid="Arrow1Mend"
       inkscape:isstock="true">
      <path
         transform="matrix(-0.4,0,0,-0.4,-4,0)"
         style="fill:#000000;fill-opacity:1;fill-rule:evenodd;stroke:#000000;stroke-width:1pt;stroke-opacity:1"
         d="M 0,0 5,-5 -12.5,0 5,5 Z"
         id="path963" />
    </marker>
    <marker
       style="overflow:visible"
       id="Arrow1Send"
       refX="0"
       refY="0"
       orient="auto"
       inkscape:stockid="Arrow1Send"
       inkscape:isstock="true">
      <path
         transform="matrix(-0.2,0,0,-0.2,-1.2,0)"
         style="fill:#000000;fill-opacity:1;fill-rule:evenodd;stroke:#000000;stroke-width:1pt;stroke-opacity:1"
         d="M 0,0 5,-5 -12.5,0 5,5 Z"
         id="path969" />
    </marker>
    <marker
       style="overflow:visible"
       id="Arrow1Mend-5"
       refX="0"
       refY="0"
       orient="auto"
       inkscape:stockid="Arrow1Mend"
       inkscape:isstock="true">
      <path
         transform="matrix(-0.4,0,0,-0.4,-4,0)"
         style="fill:#000000;fill-opacity:1;fill-rule:evenodd;stroke:#000000;stroke-width:1pt;stroke-opacity:1"
         d="M 0,0 5,-5 -12.5,0 5,5 Z"
         id="path963-3" />
    </marker>
  </defs>
  <sodipodi:namedview
     id="base"
     pagecolor="#ffffff"
     bordercolor="#666666"
     borderopacity="1.0"
     inkscape:pageopacity="0.0"
     inkscape:pageshadow="2"
     inkscape:zoom="0.7"
     inkscape:cx="270.71082"
     inkscape:cy="49.386498"
     inkscape:document-units="mm"
     inkscape:current-layer="g2004"
     inkscape:document-rotation="0"
     showgrid="false"
     inkscape:window-width="1366"
     inkscape:window-height="768"
     inkscape:window-x="0"
     inkscape:window-y="0"
     inkscape:window-maximized="1"
     showguides="false" />
  <metadata
     id="metadata29894">
    <rdf:RDF>
      <cc:Work
         rdf:about="">
        <dc:format>image/svg+xml</dc:format>
        <dc:type
           rdf:resource="http://purl.org/dc/dcmitype/StillImage" />
        <dc:title />
      </cc:Work>
    </rdf:RDF>
  </metadata>
  <g
     inkscape:label="Layer 1"
     inkscape:groupmode="layer"
     id="layer1"
     transform="translate(-17.064019,-8.6205958)">
    <g
       id="g2004"
       transform="translate(12.853307,-54.528153)">
      <path
         id="path1447"
         style="fill:#000000;stroke-width:0.153177"
         d="m 29.894297,70.264992 -0.09562,-2.22108 -0.130514,0.6127 -0.130509,0.61271 0.0093,1.68617 0.0093,1.68616 -0.144504,0.22856 -0.144499,0.22857 -0.03478,-1.22543 -0.03478,-1.22542 -0.02107,-0.61271 -0.02105,-0.61271 -0.02309,-0.21701 -0.0231,-0.21699 -0.100909,0.10095 -0.10091,0.10095 -0.01746,1.83005 -0.01746,1.83006 -0.107809,0.10779 -0.107809,0.10781 -0.09658,-0.25168 -0.09658,-0.2517 h -0.277207 -0.277204 l -0.06769,0.19148 -0.06768,0.19147 0.0097,-1.30202 0.0097,-1.30201 -0.127406,-0.86163 -0.127404,-0.86162 h -0.363574 -0.363491 v 2.1163 2.11631 l -0.153179,0.0947 -0.153175,0.0947 v -0.1786 -0.17861 l -0.229767,0.0882 -0.229769,0.0882 v -0.15932 -0.1593 l -0.255013,0.255 -0.255016,0.25502 -0.193443,-0.35896 -0.193439,-0.35896 -0.0967,0.24891 -0.09671,0.24892 H 24.58149 24.207589 l -0.01776,-0.3255 -0.01776,-0.32552 -0.07259,0.28122 -0.07257,0.28123 -0.385466,-0.0968 -0.385466,-0.0967 -0.208615,0.27507 -0.208609,0.27507 -0.0049,-0.279 -0.0049,-0.27899 -0.261221,0.26122 -0.261222,0.26122 -0.05749,-0.17247 -0.05748,-0.17247 -0.281644,0.15072 -0.281638,0.15073 -0.05066,-0.14708 -0.05064,-0.1471 -0.497829,-0.0374 -0.497829,-0.0374 -0.02926,-1.99702 -0.02927,-1.99703 -0.09013,1.91473 -0.09013,1.91472 -0.128861,0.27356 -0.128853,0.27356 -0.326154,-0.21298 -0.326153,-0.21298 -0.306352,0.11 -0.306358,0.10998 -0.09942,-0.1546 -0.09942,-0.15459 -0.283517,0.12638 -0.283523,0.12637 -0.268061,0.0282 -0.268061,0.0283 v -0.21981 -0.21979 l -0.235873,0.23587 -0.235876,0.23588 -0.6449,-0.0759 -0.644894,-0.0761 -0.191476,0.008 -0.19147,0.008 -0.306354,0.0291 -0.306358,0.0291 0.01776,0.61818 0.01776,0.61818 0.07005,-0.26805 0.07005,-0.26806 h 0.205769 0.205773 l 0.153848,0.42124 0.153852,0.42123 0.01211,-0.42123 0.01211,-0.42124 0.191471,0.0383 0.191473,0.0382 0.112536,0.15319 0.112537,0.15318 0.0047,-0.30637 0.0047,-0.30635 0.148485,0.22977 0.148486,0.22977 0.0047,-0.22977 0.0047,-0.22977 0.162491,0.22977 0.162498,0.22977 0.07692,-0.1892 0.07693,-0.1892 0.424745,0.21964 0.424739,0.21965 0.169474,-0.16948 0.16947,-0.16946 0.23626,0.19607 0.236259,0.19608 v -0.17733 -0.17732 l 0.282889,0.15139 0.282889,0.15141 0.163296,-0.1633 0.163299,-0.16329 0.204819,0.12785 0.204819,0.12787 0.190864,0.0289 0.190863,0.0289 0.07926,-0.12825 0.07926,-0.12824 0.45747,0.1312 0.45747,0.13119 0.0022,-0.25736 0.0022,-0.25737 0.112537,0.17366 0.112538,0.17365 0.669134,0.0765 0.669132,0.0765 0.132707,0.20946 0.132701,0.20947 0.0022,-0.26806 0.0022,-0.26806 h 0.122539 0.122541 l 0.183816,0.18381 0.183813,0.18382 v -0.16762 -0.1676 l 0.382839,0.022 0.382833,0.022 0.01086,0.22977 0.01085,0.22977 0.115988,-0.29618 0.115991,-0.2962 0.116647,0.18875 0.11665,0.18875 0.200008,-0.166 0.200004,-0.16598 0.207596,0.0436 0.207593,0.0436 0.112543,0.15317 0.112537,0.15318 0.0022,-0.18667 0.0022,-0.18665 0.205222,0.0787 0.205228,0.0788 0.171576,-0.20673 0.171572,-0.20673 0.05095,-1.44689 0.05094,-1.44691 0.06208,1.53178 0.06207,1.53178 0.09262,-1.68497 0.09262,-1.68495 0.03261,1.68495 0.03261,1.68497 0.14849,0.22977 0.148485,0.22976 0.0022,-0.16111 0.0022,-0.16112 0.569681,-0.0161 0.569681,-0.0161 0.05611,-0.16834 0.05611,-0.16833 0.140095,0.0866 0.140096,0.0866 v 0.39944 0.39943 l 0.114883,-0.11273 0.114882,-0.11274 0.172774,-0.94674 0.17277,-0.94674 0.01871,0.72758 0.01872,0.72761 0.268061,0.0193 0.26806,0.0193 0.444874,-0.0102 0.444874,-0.0103 0.1272,-0.20057 0.127195,-0.20058 0.01311,0.30637 0.01311,0.30634 0.131646,-0.30634 0.131647,-0.30637 0.03373,0.61271 0.03374,0.61272 0.063,-0.41284 0.063,-0.41284 0.235865,0.0904 0.235861,0.0905 0.13772,-0.21379 0.137716,-0.21379 0.114882,0.17511 0.114887,0.17509 0.459532,-0.0685 0.459532,-0.0685 0.229769,0.0102 0.229768,0.0102 0.285371,0.007 0.285377,0.007 0.0516,-0.0515 0.05161,-0.0516 0.09679,-1.06714 0.09679,-1.06716 0.08513,-0.22977 0.08513,-0.22976 0.116827,0.38295 0.116824,0.38294 0.01529,-1.29436 0.01528,-1.29436 0.141374,0.14553 0.141372,0.14552 0.143305,1.60838 0.143306,1.60836 0.03243,-1.22543 0.03244,-1.22542 0.131646,-0.30636 0.131648,-0.30635 0.01077,1.55092 0.01077,1.55094 0.09523,0.47618 0.09523,0.47621 0.134525,-0.0831 0.134529,-0.0831 0.0049,0.2005 0.0049,0.20053 0.224891,-0.29733 0.224897,-0.29735 v 0.20032 0.20032 l 0.2846,-0.0745 0.284599,-0.0745 0.251527,0.14076 0.251521,0.14076 0.01077,-0.1991 0.01077,-0.19908 0.131643,0.30635 0.131646,0.30637 0.02852,-0.45953 0.02852,-0.45955 0.07279,0.28229 0.07279,0.28227 0.285041,-0.0746 0.285043,-0.0745 0.07184,0.1752 0.07184,0.1752 0.02735,-0.30634 0.02736,-0.30637 0.124272,0.38294 0.12427,0.38295 0.108938,-0.34787 0.108938,-0.34788 0.226507,0.18799 0.226511,0.18799 0.214316,0.0314 0.214314,0.0314 v -0.15838 -0.15838 l 0.241441,0.20037 0.24144,0.20038 0.122358,-0.19797 0.122354,-0.19799 0.104778,0.16954 0.104775,0.16953 h 0.132905 0.132906 l 0.07005,-0.26806 0.07005,-0.26805 0.01776,0.25192 0.01776,0.25194 0.536121,-0.12092 0.536123,-0.1209 v 0.13222 0.13225 l 0.229767,-0.0882 0.229769,-0.0882 0.0022,0.20788 0.0022,0.20785 0.150831,-0.22977 0.150832,-0.22976 0.15083,0.22976 0.150834,0.22977 0.0022,-0.17056 0.0022,-0.17056 0.344649,0.0262 0.34465,0.0262 0.334443,-0.11608 0.334442,-0.11606 0.07515,0.18381 0.07514,0.1838 0.162494,-0.22978 0.162491,-0.22976 0.0047,0.22976 0.0047,0.22978 0.132289,-0.20881 0.132291,-0.2088 0.06416,0.19247 0.06416,0.19248 0.368305,-0.1971 0.368301,-0.19711 0.06052,0.18154 0.06052,0.18153 0.214871,-0.17833 0.214871,-0.17831 v 0.15528 0.1553 l 0.765889,-0.0672 0.765889,-0.0671 0.01528,0.35182 0.01527,0.35179 0.12264,-0.38294 0.122641,-0.38295 -0.0077,-1.07223 -0.0077,-1.07225 -0.05734,0.45953 -0.05734,0.45954 -0.07919,0.35817 -0.07919,0.35815 -0.244753,-0.2031 -0.244749,-0.20314 -0.36165,0.0475 -0.361649,0.0475 v -0.19343 -0.19341 l -0.224895,0.29733 -0.224895,0.29734 -0.0049,-0.18767 -0.0049,-0.18769 -0.372366,0.14158 -0.372366,0.14157 -0.634824,-0.0355 -0.634822,-0.0356 -0.07976,0.12906 -0.07976,0.12905 -0.198486,-0.27144 -0.198487,-0.27144 -0.246342,0.20444 -0.246343,0.20443 -0.191474,-0.1425 -0.19147,-0.14252 -0.306354,0.0246 -0.306358,0.0246 -0.34465,0.10953 -0.344649,0.10953 v -0.17382 -0.17382 l -0.293897,0.0932 -0.2939,0.0932 -0.07127,-0.27443 -0.07128,-0.27442 -0.01776,0.26805 -0.01776,0.26807 -0.34465,0.017 -0.34465,0.017 -0.344649,-0.0279 -0.344651,-0.0279 v 0.17508 0.17508 l -0.252025,-0.25203 -0.252026,-0.25201 -0.113793,0.18411 -0.113795,0.18412 -0.208597,-0.13019 -0.2086,-0.13022 -0.190864,-0.0289 -0.190864,-0.0289 -0.0865,0.13996 -0.0865,0.13995 -0.297055,-0.15898 -0.297062,-0.15897 -0.0049,0.19686 -0.0049,0.19685 -0.224892,-0.29734 -0.224897,-0.29734 -0.03223,0.29734 -0.03223,0.29734 -0.08875,-2.37426 -0.08876,-2.37426 -0.03222,2.19917 -0.03222,2.19919 -0.229764,-0.0882 -0.229768,-0.0882 v 0.15739 0.15742 l -0.15318,-0.0947 -0.153174,-0.0947 v 0.14786 0.14789 l -0.306357,-0.0802 -0.306358,-0.0801 -0.01077,-2.24151 -0.01077,-2.24151 -0.104117,0.23299 -0.104114,0.23299 -0.19706,-0.003 -0.19706,-0.003 -0.147589,-0.22976 -0.14759,-0.22977 -0.15318,0.22977 -0.153179,0.22976 -0.13186,-0.20431 -0.13186,-0.20432 -0.0979,0.25514 -0.09789,0.25514 -0.0022,1.94048 -0.0022,1.9405 -0.148484,-0.22976 -0.148485,-0.22978 -0.0022,0.37019 -0.0022,0.37018 -0.100788,-0.10075 -0.100789,-0.10074 -0.18768,0.15575 -0.187677,0.15575 -0.09603,-0.25025 -0.09604,-0.25029 -0.381385,0.24989 -0.381383,0.24989 v -0.24967 -0.24969 l -0.229768,0.0882 -0.229769,0.0882 -0.02405,-0.72279 -0.02405,-0.7228 -0.09081,0.73137 -0.09082,0.73135 -0.153173,0.0346 -0.15318,0.0346 -0.04895,-0.34465 -0.04895,-0.34465 H 32.020577 31.89082 l -0.07727,0.19148 -0.07726,0.19147 -0.01208,-2.05514 -0.01211,-2.05513 -0.08826,0.0883 -0.08826,0.0883 -0.07394,2.03973 -0.07395,2.03973 -0.07319,0.0731 -0.0732,0.0731 -0.607092,0.0271 -0.607094,0.0271 -0.01924,-0.17313 -0.01924,-0.17315 -0.09564,-2.22108 z m 21.640344,-1.75725 -0.185017,-0.45264 -0.134643,0.21786 -0.134641,0.21785 -0.06742,2.1125 -0.06741,2.11252 h -0.210144 -0.210131 l -0.02497,-1.95301 -0.02497,-1.95302 -0.103242,0.84247 -0.103243,0.84247 -0.02497,-0.79514 -0.02497,-0.79513 -0.172724,-0.10677 -0.172725,-0.10674 0.113888,2.43003 0.113886,2.43002 0.125717,0.31 0.125719,0.31 0.0097,-0.2005 0.0097,-0.20052 0.116571,0.0721 0.116573,0.0721 0.262656,-0.19207 0.262654,-0.19205 0.11132,-1.97715 0.111321,-1.97715 0.10404,0.45954 0.104039,0.45953 0.0373,1.53177 0.397283,1.51498 0.0023,-0.63463 -0.116972,-0.72716 -0.0095,-1.99131 -0.0095,-1.99132 -0.07124,0.38164 -0.07125,0.38165 -0.185017,-0.45263 z m 16.019743,0.41035 -0.215859,-0.2952 -0.01903,2.28011 -0.01903,2.28014 -0.08125,0.13146 -0.08126,0.13146 -0.220001,-0.21999 -0.22,-0.22001 v -1.60016 -1.60017 l -0.101963,-0.5098 -0.10196,-0.5098 -0.11704,0.29919 -0.117041,0.29917 -0.01079,1.95302 -0.01079,1.95303 h -0.213373 -0.213381 l -0.09297,-0.2423 -0.09297,-0.2423 v -0.65365 -0.65366 l -0.09971,-1.17947 -0.09969,-1.17946 -0.19676,0.0755 -0.196759,0.0754 -0.07436,-0.18287 -0.07436,-0.18287 -0.04237,2.22108 -0.04237,2.22109 -0.09262,-1.68496 -0.09263,-1.68496 -0.03031,1.61383 -0.03022,1.61386 H 64.24717 63.940813 v -1.98402 -1.98402 l -0.06492,0.065 -0.06492,0.065 -0.0562,1.94539 -0.0562,1.94541 -0.129602,0.12139 -0.129606,0.12139 -0.06869,-0.19242 -0.0687,-0.19242 -0.140096,0.0866 -0.140097,0.0866 v -0.3154 -0.31538 h -0.153196 -0.153178 v 0.36937 0.36939 l -0.268061,-0.0513 -0.268059,-0.0513 v -0.0234 -0.0234 l -0.268062,-0.0513 -0.268064,-0.0513 v 0.11421 0.1141 h -0.229765 -0.229768 v -0.13346 -0.13344 l -0.421239,0.0441 -0.42124,0.0441 -0.112538,0.15319 -0.112536,0.15317 -0.0022,-0.19147 -0.0022,-0.19147 H 59.881879 59.65211 v -0.9446 -0.9446 l -0.06839,0.0684 -0.0684,0.0684 -0.02593,0.68472 -0.02593,0.68474 -0.07562,0.2883 -0.07561,0.28831 -0.134088,-0.21172 -0.134082,-0.21172 -0.02409,-0.45953 -0.0241,-0.45952 -0.09314,0.57948 -0.09316,0.57949 -0.114887,-0.005 -0.11488,-0.005 h -0.306274 -0.306354 l -0.01133,-1.41689 -0.01133,-1.41689 -0.109658,-0.68932 -0.109659,-0.68929 -0.108755,1.21025 -0.108756,1.21023 v 0.91235 0.91234 l -0.224861,-0.0863 -0.224863,-0.0863 -0.07834,0.12677 -0.07834,0.12674 -0.46838,-0.0545 -0.46839,-0.0545 -0.08576,0.22351 -0.08576,0.2235 -0.234639,-0.23465 -0.234641,-0.23463 -0.210017,0.0805 -0.210016,0.0805 v -2.08862 -2.08863 l -0.06799,0.0679 -0.06799,0.0679 -0.03556,1.99283 -0.03556,1.99285 -0.585766,0.004 -0.585764,0.004 -0.02188,-0.0101 -0.02188,-0.0101 -0.103798,-1.99131 -0.103796,-1.9913 -0.02749,1.8639 -0.02748,1.8639 -0.09447,0.24619 -0.09447,0.24622 -0.211879,-0.17586 -0.211877,-0.17583 -0.0023,-2.16404 -0.0023,-2.16403 -0.148486,0.22976 -0.148486,0.22979 -0.0047,2.0679 -0.0047,2.0679 -0.148486,-0.22978 -0.148484,-0.22976 -0.0023,0.63463 -0.0023,0.63461 0.229766,0.0882 0.229768,0.0882 0.0023,-0.33985 0.0023,-0.33984 0.112539,0.16435 0.112538,0.16435 0.26806,0.0989 0.268061,0.0989 0.0022,-0.33983 0.0022,-0.33986 0.12779,0.20153 0.127795,0.20154 0.395157,0.205 0.395156,0.205 0.09558,-0.0956 0.09558,-0.0956 0.336487,-0.005 0.336487,-0.005 0.112537,0.15319 0.112537,0.15317 0.0022,-0.19147 0.0022,-0.19148 h 0.306358 0.306353 v 0.17193 0.17194 l 0.229767,-0.19069 0.229765,-0.19069 0.0046,0.21023 0.0046,0.21023 0.15733,-0.27021 0.157325,-0.27018 0.225391,0.22538 0.225397,0.2254 0.238152,-0.0915 0.238149,-0.0915 0.13065,-0.32333 0.130653,-0.32334 0.0097,0.27709 0.0097,0.2771 0.153179,-0.0947 0.153178,-0.0947 -1.1e-5,0.12392 -1.4e-5,0.12393 0.43299,-0.0129 0.432989,-0.0129 0.179733,-0.11106 0.179736,-0.11109 v 0.16221 0.16222 h 0.293591 0.293589 l 0.07727,-0.19147 0.07727,-0.19147 0.01208,0.19686 0.01211,0.19686 0.295233,-0.15801 0.295233,-0.15799 0.06995,0.26749 0.06995,0.2675 0.01776,-0.26805 0.01776,-0.26808 h 0.153177 0.153175 l 0.0022,0.26808 0.0022,0.26805 0.112536,-0.15318 0.112538,-0.15318 0.34465,-0.0183 0.344651,-0.0184 0.0052,0.17152 0.0052,0.17152 0.301257,-0.36161 0.30126,-0.36164 0.0049,0.36164 0.0049,0.36161 0.209422,-0.27617 0.209425,-0.27619 0.06015,0.18045 0.06015,0.18044 h 0.432281 0.432271 l 0.133412,-0.21061 0.133415,-0.21063 0.0024,0.20051 0.0024,0.20051 0.15318,-0.0947 0.153177,-0.0946 0.01775,0.35369 0.01775,0.35369 0.07004,-0.26807 0.07004,-0.26806 h 0.141945 0.141945 l 0.02087,-0.49781 0.02087,-0.49784 0.07044,0.38295 0.07044,0.38294 0.145199,0.17693 0.14519,0.17695 0.261368,-0.0379 0.261367,-0.038 0.08195,-1.51768 0.08196,-1.51767 0.07124,1.36242 0.07125,1.36242 0.272424,0.16936 0.272418,0.16936 0.146469,-0.22976 0.146478,-0.22977 0.0047,0.22977 0.0047,0.22976 0.148485,-0.22976 0.148485,-0.22977 0.03358,-1.91472 0.03358,-1.91474 0.0836,1.99132 0.08361,1.99133 0.536122,0.17531 0.536115,0.17532 0.191482,-0.15579 0.191463,-0.15578 v 0.32512 0.32512 h 0.135323 0.135304 l 0.08312,-0.31783 0.0831,-0.31781 0.28766,0.15394 0.28765,0.15396 0.20873,-0.12899 0.20873,-0.12901 0.35744,0.13589 0.35743,0.1359 v -0.15119 -0.1512 l 0.59465,0.0951 0.59468,0.095 -0.0769,-0.4019 -0.0769,-0.40191 -0.13488,-0.0833 -0.13489,-0.0833 v -2.13546 -2.13545 h -0.22976 -0.22978 v 2.13556 2.13557 l -0.53606,-0.0293 -0.53606,-0.0293 -0.0122,-0.30638 -0.0122,-0.30634 -0.0873,0.22976 -0.0875,0.22976 -0.14716,0.0961 -0.14717,0.0961 -0.2894,-0.0756 -0.289368,-0.0757 v -1.49477 -1.49477 l -0.114884,-0.51696 -0.114883,-0.51699 -0.07659,2.06614 -0.07659,2.06615 -0.249466,0.0478 -0.249457,0.0478 -0.248362,-0.24834 -0.248374,-0.24836 v 0.2407 0.2407 H 68.229377 68.0762 l -0.01528,-1.95302 -0.01527,-1.953 -0.122621,-0.38298 -0.122637,-0.38293 -0.01527,0.29731 -0.01528,0.29735 -0.21585,-0.29519 z"
         sodipodi:nodetypes="cccccccccccccccccccccccccccccccccccccccccccccccccccccccccccccccccccccccccccccccccccccccccccccccccccccccccccccccccccccccccccccccccccccccccccccccccccccccccccccccccccccccccccccccccccccccccccccccccccccccccccccccccccccccccccccccccccccccccccccccccccccccccccccccccccccccccccccccccccccccccccccccccccccccccccccccccccccccccccccccccccccccccccccccccccccccccccccccccccccccccccccccccccccccccccccccccccccccccccccccccccccccccccccccccccccccccccccccccccccccccccccccccccccccccccccccccccccccccccccccccccccccccccccccccccccccccccccccccccccccccccccccccccccccccccccccccccccccccccccccccccccccccccccccccccccccccccccccccccccccccccccccccccccccccccccccccccccccccccccccccccccccccccccccccccccccccccccccccccccccccccccccccccccccccccccccccccccccccccccccccccccccccccccccccccccccccccccccccccccccccccccccccccccccccccccccccccccccccccccccccccccccccccccccccccccccccccccccccccc" />
      <path
         style="fill:#000000;stroke-width:0.153177"
         d="m 18.141389,83.13228 h -0.0613 l -0.105681,0.70475 -0.105685,0.70474 -0.114926,-0.18596 -0.114925,-0.18594 -0.07688,0.20878 -0.07688,0.20882 -0.183335,-0.45953 -0.183334,-0.45955 -0.293536,0.36048 -0.293535,0.36049 -0.14439,-0.36049 -0.14439,-0.36048 -0.03305,1.68497 -0.03305,1.68496 -0.0356,0.15318 -0.0356,0.15316 -0.02276,0.15318 -0.02275,0.15319 -0.282246,-0.33815 -0.282241,-0.33813 -0.0956,0.0956 -0.09561,0.0956 v -1.07863 -1.07863 l -0.09573,-0.47868 -0.09574,-0.47868 h -0.201019 -0.20102 l 0.0085,0.61272 0.0085,0.6127 h 0.135124 0.135121 v 1.67243 1.67243 l 0.09447,0.24621 0.09447,0.24619 0.211944,-0.1759 0.211948,-0.17588 0.09631,0.48152 0.09631,0.48154 0.133393,0.0824 0.133392,0.0824 V 89.13155 88.373 l 0.220403,-0.0846 0.220403,-0.0846 0.063,0.41284 0.063,0.41285 0.02292,-0.73664 0.02297,-0.73665 0.153178,0.0947 0.153179,0.0947 0.02335,-1.11958 0.02335,-1.11959 0.09152,0.94478 0.09152,0.94477 0.114886,0.1147 0.114883,0.11472 0.02015,-0.21701 0.02015,-0.21699 0.106203,0.53611 0.106198,0.53614 0.123192,-1.11055 0.123197,-1.11054 h 0.133383 0.133388 l 0.02015,0.80419 0.02015,0.80418 0.09471,-0.50385 0.09472,-0.50387 0.153174,0.0111 0.15318,0.0112 0.09314,-0.57949 0.09315,-0.57949 0.02176,1.49348 0.02175,1.49346 h 0.229764 0.229769 l 0.02176,-0.5744 0.02175,-0.57442 0.109705,0.61271 0.109702,0.61272 0.04625,-0.99566 0.04624,-0.99566 0.06432,0.53611 0.06431,0.53614 0.195501,0.11016 0.195496,0.11016 -0.07567,0.78741 -0.07566,0.78744 0.480638,-0.1056 0.480635,-0.10555 v 0.31852 0.31853 h 0.306357 0.306358 v -0.26951 -0.2695 l 0.290705,-0.18156 0.290704,-0.18155 0.110918,0.33617 0.110913,0.33619 0.138586,-0.84247 0.138581,-0.84249 0.143507,-0.90071 0.14351,-0.90071 0.08474,-0.0848 0.08473,-0.0848 0.185324,0.18534 0.185323,0.18533 0.09421,1.33623 0.0942,1.33626 0.02427,-0.64198 0.02427,-0.64197 0.15318,-0.0947 0.153178,-0.0947 v 0.76589 0.76591 l 0.15318,0.0947 0.153174,0.0947 v 0.2973 0.29733 h 0.153178 0.15318 v -0.53613 -0.53612 h 0.153179 0.153173 v 0.49235 0.49235 l 0.230412,-0.23039 0.230406,-0.23042 0.131838,-1.37249 0.131833,-1.37247 0.02072,0.71853 0.02072,0.71857 0.153179,0.0947 0.153179,0.0947 v -0.80047 -0.80046 l 0.09442,0.0945 0.09443,0.0945 0.09703,1.19483 0.09705,1.19481 0.306359,0.004 0.306353,0.004 0.203818,-0.19666 0.203825,-0.19667 0.140826,0.0871 0.14083,0.087 v 0.22072 0.22072 h 0.153179 0.153179 v -0.2288 -0.2288 l 0.26806,0.0417 0.268062,0.0417 0.153178,0.0822 0.153175,0.0822 0.153179,-0.0138 0.153178,-0.0138 0.42124,-0.2817 0.421238,-0.28169 v -0.67167 -0.67169 h 0.15318 0.153178 v 0.22977 0.22976 h 0.153175 0.153179 v -0.67677 -0.67677 l 0.09298,-0.24229 0.09298,-0.2423 h 0.136788 0.136791 v 0.72904 0.72904 l 0.306354,0.19133 0.306357,0.19132 v -0.91132 -0.91133 l 0.153175,-0.0947 0.153179,-0.0947 0.01811,0.81322 0.0181,0.81322 0.116932,0.45953 0.116931,0.45953 0.03022,-0.91906 0.03022,-0.91908 0.07759,0.19243 0.07758,0.19243 0.140096,-0.0866 0.140097,-0.0866 v 0.62176 0.62175 h 0.153173 0.153179 V 87.60581 87.3301 l 0.142941,-0.14552 0.142943,-0.14552 0.06108,-0.61271 0.06108,-0.61271 0.02575,1.29436 0.02575,1.29435 0.183857,-0.18386 0.183855,-0.18386 0.09938,-1.18709 0.09938,-1.18708 0.02405,0.76589 0.02405,0.76589 0.09837,1.26372 0.09837,1.26373 h 0.130475 0.130474 V 89.313 88.90631 l 0.289923,0.26237 0.289913,0.26237 0.10996,-1.09488 0.109953,-1.09487 0.12308,-0.40746 0.123083,-0.40749 0.01316,0.72761 0.01316,0.72758 h 0.153178 0.153179 l 0.0022,-0.72758 0.0022,-0.72761 0.148485,-0.22977 0.148485,-0.22976 0.01576,0.91907 0.01577,0.91906 0.119293,0.76589 0.11929,0.76589 0.02045,-0.66006 0.02045,-0.66003 0.15318,0.0947 0.153178,0.0947 v -0.3106 -0.31057 l 0.220845,0.0847 0.220843,0.0848 0.0579,-0.74056 0.0579,-0.74056 0.02762,1.12148 0.02762,1.12148 0.229768,0.22978 0.229768,0.22976 0.213248,-0.21326 0.213246,-0.21324 0.07534,-0.29552 0.07533,-0.29553 0.01776,0.42125 0.01776,0.42124 h 0.153179 0.153179 l 0.02953,-1.64666 0.02953,-1.64668 0.05438,0.95738 0.05438,0.95735 h 0.145868 0.145871 l 0.01502,-0.19147 0.01503,-0.19148 0.19969,0.68931 0.199686,0.68929 0.03804,-1.302 0.03803,-1.30202 0.09917,0.68931 0.09917,0.68929 0.08673,-0.38293 0.08673,-0.38296 0.04387,1.22543 0.04387,1.22542 0.0937,-0.68929 0.09369,-0.6893 0.125046,0.45736 0.125046,0.45737 0.129955,-0.23222 0.129953,-0.2322 0.04954,-1.06577 0.04953,-1.06576 0.249532,-0.0479 0.249533,-0.0479 0.08754,0.35232 0.08754,0.3523 0.106131,1.41691 0.106138,1.41689 h 0.1312 0.131199 v -1.78706 -1.78709 l 0.0927,0.0927 0.09271,0.0927 0.02218,1.2343 0.02218,1.2343 0.153179,0.008 0.153174,0.008 0.190889,-1.0333 0.190886,-1.03331 0.153765,-0.15375 0.153761,-0.15377 v 0.94971 0.94969 h 0.153174 0.153179 l 0.02762,0.7276 0.0276,0.72761 0.09799,-1.14885 0.09799,-1.14883 0.0276,0.80419 0.0276,0.80418 h 0.140412 0.140414 l 0.07726,-0.19148 0.07727,-0.19147 0.01444,0.45955 0.01444,0.45953 0.148474,0.22976 0.148485,0.22976 0.0023,-0.22036 0.0023,-0.22034 0.315485,0.33863 0.315488,0.33863 0.144045,-0.089 0.144047,-0.089 v -0.20196 -0.20199 l 0.229767,-0.19069 0.229767,-0.19069 v 0.46925 0.46926 l 0.153179,0.0947 0.153177,0.0947 v -0.25755 -0.25757 l 0.229766,0.19069 0.229767,0.19069 v -0.14781 -0.14782 l 0.557834,-0.29218 0.557834,-0.29218 0.06797,0.19242 0.06796,0.19243 0.140094,-0.0866 0.140096,-0.0866 v 0.40005 0.40103 l 0.153178,-0.0947 0.153177,-0.0947 v -0.29192 -0.29192 l 0.306355,-0.16397 0.306356,-0.16394 0.0049,0.19686 0.0049,0.19685 0.212608,-0.28054 0.212608,-0.28053 0.06152,0.35713 0.06153,0.35712 0.180524,-0.43121 0.180524,-0.4312 0.02852,-1.5601 0.02854,-1.5601 0.08634,1.28987 0.08634,1.2899 0.171128,0.0564 0.171127,0.0563 0.09694,-0.48467 0.09693,-0.48467 v -0.3474 -0.34741 l 0.229766,-0.0882 0.229767,-0.0882 v 1.14402 1.14404 h 0.128591 0.128594 l 0.204136,-0.42124 0.204141,-0.42124 0.10331,0.45954 0.103311,0.45953 0.121496,-0.81688 0.121498,-0.81686 0.129418,0.20416 0.129416,0.20416 0.02054,-0.45954 0.02054,-0.45953 0.146662,0.80418 0.146665,0.80419 h 0.123632 0.123627 l 0.09236,-0.34465 0.09236,-0.34465 0.0022,-0.53023 0.0022,-0.53021 0.306358,0.6009 0.306358,0.6009 v 1.0586 1.05862 l 0.229763,-0.19069 0.229769,-0.19069 v 0.17194 0.17194 h 0.306353 0.306358 v -0.14838 -0.14836 l 0.26806,0.0956 0.26806,0.0956 0.206925,0.16098 0.20693,0.16099 0.214314,0.0314 0.214316,0.0314 v -0.23259 -0.23261 l 0.225712,0.0867 0.225716,0.0867 0.152572,-0.26169 0.152571,-0.2617 0.01993,0.30635 0.01993,0.30636 0.122642,-0.38295 0.122643,-0.38295 0.01529,0.3537 0.01529,0.35368 0.153178,-0.0947 0.153178,-0.0947 0.01211,0.27711 0.01208,0.27709 0.07758,-0.19242 0.07758,-0.19243 0.178389,0.11348 0.178393,0.1135 0.153175,0.008 0.153179,0.008 0.09244,-0.13104 0.09244,-0.13102 0.405388,-0.0446 0.405387,-0.0446 v 0.1485 0.1485 l 0.249182,-0.0956 0.249181,-0.0956 0.210351,0.17457 0.21035,0.17458 v -0.25756 -0.25756 l 0.153179,0.0947 0.153179,0.0947 v -0.17126 -0.17126 l 0.142227,0.0879 0.142224,0.0879 0.06668,-0.34692 0.06668,-0.34692 0.02084,0.43218 0.02084,0.43219 0.246755,-0.24677 0.246754,-0.24676 0.207906,0.27412 0.207911,0.27409 0.01177,-0.38294 0.01177,-0.38294 0.196408,0.45954 0.196412,0.45953 0.18196,-0.33895 0.18196,-0.33895 0.227437,0.0873 0.227428,0.0872 v 0.29901 0.29901 l 0.153179,-0.0947 0.153177,-0.0947 v -0.29731 -0.29731 h 0.153176 0.153179 l 0.01527,0.26805 0.01528,0.26807 0.122645,-0.38295 0.122636,-0.38294 0.01528,0.34466 0.01527,0.34462 h 0.144144 0.144135 l 0.09466,-0.15316 0.09467,-0.15319 h 0.297313 0.297321 v 0.15319 0.15316 h 0.153178 0.15317 v -0.31538 -0.31541 l 0.155681,0.0962 0.155679,0.0962 -0.07419,0.12003 -0.0742,0.12003 0.208576,0.28525 0.208576,0.28523 0.168608,-0.60733 0.168608,-0.60733 0.02846,-1.07223 0.02846,-1.07224 0.05756,0.73135 0.05756,0.73136 0.144624,-0.0895 0.14464,-0.0895 0.01523,0.9664 0.01523,0.96639 0.103596,-0.37053 0.103591,-0.37055 0.340672,-0.0252 0.340681,-0.0251 v 0.14632 0.14634 l 0.229767,-0.19069 0.229754,-0.1907 0.003,0.28683 0.003,0.28681 0.112525,-0.16434 0.11254,-0.16436 0.26806,-0.0989 0.26807,-0.0989 v 0.14837 0.14838 h 0.22976 0.22977 l 0.003,-0.42125 0.003,-0.42124 0.14847,-0.22977 0.14849,-0.22977 0.003,0.26808 0.003,0.26806 h 0.13883 0.13883 l -0.0787,0.30086 -0.0787,0.30086 0.2462,0.24619 0.2462,0.24621 v -1.46613 -1.46614 h 0.143 0.14299 l 0.0638,-0.42123 0.0638,-0.42125 0.0333,1.30202 0.0332,1.30201 0.13379,-0.30636 0.1338,-0.30635 0.0995,-1.05061 0.0995,-1.05062 0.14419,0.14418 0.14417,0.14418 0.12782,1.21279 0.12782,1.21279 0.0205,-0.41219 0.0204,-0.41221 0.1532,-0.0947 0.15316,-0.0947 V 86.03344 84.5107 l -0.30636,-0.30636 -0.30634,-0.30636 v 0.12766 0.12764 h -0.45954 -0.45953 V 83.88149 83.6097 l -0.15317,-0.0947 -0.15319,-0.0947 -0.0158,0.81323 -0.0158,0.81322 -0.15257,-0.57442 -0.15256,-0.57441 h -0.13796 -0.13795 v 0.217 0.217 l -0.17417,0.058 -0.17419,0.058 -0.0622,1.21844 -0.0622,1.21842 -0.077,0.49782 -0.077,0.49784 h -0.13407 -0.13405 l -0.10095,-0.45954 -0.10095,-0.45954 h -0.14099 -0.14101 l -0.0122,0.34465 -0.0121,0.34464 -0.0773,-0.19147 -0.0773,-0.19145 h -0.140416 -0.140407 l -0.0122,0.26805 -0.01211,0.26806 -0.07755,-0.19242 -0.07755,-0.19243 -0.157204,0.0972 -0.157234,0.0972 -0.133708,-0.21109 -0.133699,-0.21112 -0.0029,-1.01255 -0.0029,-1.01258 -0.09741,-0.71068 -0.09741,-0.71068 h -0.131822 -0.132358 l -0.01528,0.57442 -0.01527,0.57441 -0.113714,-0.38295 -0.113714,-0.38293 -0.119399,1.65122 -0.11939,1.65123 -0.277679,0.14861 -0.277677,0.14861 h -0.163238 -0.163251 v -1.83813 -1.83814 h -0.20977 -0.207945 l -0.09841,0.94154 -0.09841,0.94154 v 0.82001 0.82 h -0.199134 -0.199126 l -0.183814,-0.18381 -0.183817,-0.18381 v 0.24248 0.24249 l -0.486429,-0.0245 -0.486421,-0.0245 -0.06244,-0.18739 -0.06244,-0.18737 h -0.217003 -0.217002 v 0.21337 0.21338 l -0.224862,0.0863 -0.224858,0.0863 -0.09089,-0.14705 -0.09088,-0.14705 -0.411853,0.10075 -0.411847,0.10075 -0.112538,0.1679 -0.112537,0.16788 -0.0047,-0.22977 -0.0047,-0.22977 -0.148486,0.22977 -0.148489,0.22977 -0.0022,-1.49349 -0.0022,-1.49348 h -0.154098 -0.153179 v 1.36956 1.36956 l -0.116401,0.072 -0.116398,0.0721 -0.496313,-0.20867 -0.496308,-0.20868 V 87.352 87.11482 h -0.15318 -0.153178 v 0.22802 0.22802 l -0.247549,0.28912 -0.24755,0.28911 -0.288573,-0.0754 -0.288571,-0.0755 v -0.15405 -0.15408 l -0.196609,0.16317 -0.196612,0.16317 -0.217315,-0.1343 -0.217315,-0.1343 -0.122199,0.0754 -0.122194,0.0755 v -0.17127 -0.17125 l -0.154259,0.0954 -0.154265,0.0953 -0.0919,-0.23948 -0.0919,-0.23948 h -0.126195 -0.125557 l -0.04953,0.25544 -0.04953,0.25542 -0.344651,0.0253 -0.344651,0.0253 V 87.45564 87.0819 l -0.19147,0.0783 -0.191471,0.0783 -0.268061,0.10767 -0.268066,0.10767 V 85.7525 84.05116 h -0.136794 -0.136788 l -0.104058,0.26806 -0.104051,0.26806 -0.213265,-0.38294 -0.213259,-0.38295 -0.01512,0.61271 -0.01515,0.61271 -0.144457,-0.36066 -0.144455,-0.36066 -0.267076,0.10395 -0.267075,0.10394 -0.148276,0.0269 -0.148276,0.0269 -0.09963,-0.53611 -0.09962,-0.53613 -0.02015,0.4122 -0.02019,0.4122 -0.153179,0.0947 -0.153174,0.0947 -0.0022,-0.2005 -0.0022,-0.20053 -0.148489,0.22978 -0.148486,0.22975 -0.0023,-0.21022 -0.0023,-0.21023 -0.229767,0.1907 -0.229766,0.19068 V 84.06989 83.5916 h -0.115786 -0.115787 l -0.226999,0.49784 -0.227002,0.4978 -0.0508,-0.34464 -0.05081,-0.34465 h -0.14695 -0.147333 l -0.100586,0.26806 -0.100585,0.26807 -0.197054,0.15316 -0.197053,0.1532 -0.0422,1.45517 -0.0422,1.4552 -0.229767,-0.0641 -0.229766,-0.0641 -0.34465,0.0101 -0.344651,0.0101 -0.01244,-0.25188 -0.01243,-0.25185 -0.210415,0.45954 -0.210417,0.45953 -0.0069,-0.20933 -0.0069,-0.20933 -0.394893,0.0755 -0.394893,0.0754 -0.125887,-0.32568 -0.125887,-0.3257 -0.08297,0.22977 -0.08297,0.22976 -0.0678,0.30635 -0.0678,0.30637 -0.01777,-0.42125 -0.01778,-0.42123 h -0.140414 -0.140413 l -0.07727,0.19147 -0.07727,0.19147 -0.0121,-0.19147 -0.0121,-0.19146 h -0.306108 -0.306355 l -0.0023,0.26806 -0.0023,0.26805 -0.150831,-0.22977 -0.150831,-0.22975 -0.150833,0.22975 -0.150832,0.22977 -0.0023,-1.48443 -0.0023,-1.48445 -0.153179,-0.0947 -0.153177,-0.0947 v -0.39735 -0.39733 l -0.306357,0.35323 -0.306354,0.35323 v 0.13877 0.13879 l -0.140096,-0.0866 -0.140096,-0.0866 -0.06481,0.19242 -0.06482,0.19244 -0.111184,-0.58935 -0.111188,-0.58934 -0.296619,0.26844 -0.296614,0.26844 v -0.24178 -0.24176 l -0.476591,0.23775 -0.476597,0.23775 -0.11209,-0.18136 -0.112091,-0.18136 -0.441273,0.0591 -0.441273,0.0591 -0.09621,0.37058 -0.09621,0.37061 -0.124117,-0.61271 -0.124117,-0.61271 -0.06482,0.19243 -0.06482,0.19242 -0.140096,-0.0866 -0.140095,-0.0866 -0.01811,0.2005 -0.01811,0.20052 -0.116931,-0.45953 -0.116931,-0.45955 -0.01811,0.49784 -0.01814,0.49783 h -0.158356 -0.15799 l -0.08253,-0.21511 -0.08254,-0.21509 -0.372182,0.0408 -0.372188,0.0408 v -0.28529 -0.2853 h -0.171123 -0.171032 l 0.07321,0.38295 0.07321,0.38295 h -0.205605 -0.20561 l -0.09611,-0.38295 -0.09611,-0.38295 h -0.13642 -0.136571 v 0.3154 0.3154 l -0.153178,-0.0947 -0.153178,-0.0947 v 0.23856 0.2388 h -0.08752 -0.08752 l -0.257122,-0.25711 -0.25712,-0.25713 0.03829,-0.0493 0.03829,-0.0493 -0.01246,-0.19147 -0.01242,-0.19147 -0.210417,0.45953 -0.210415,0.45952 -0.02987,-0.53611 -0.02988,-0.53612 -0.06541,0.45953 -0.06542,0.45954 -0.141389,0.1455 -0.1414,0.14552 v -0.18381 -0.1838 H 35.37074 35.217561 v 1.60836 1.60837 h -0.153295 -0.153179 l -0.02644,-1.49348 -0.02644,-1.4935 -0.100303,0.99567 -0.100302,0.99565 -0.02644,-1.11053 -0.02644,-1.11054 H 34.451546 34.298368 V 83.8216 83.59183 h -0.293842 -0.293831 l -0.24229,-0.0929 -0.242299,-0.0929 -0.01776,0.36104 -0.01776,0.36104 -0.07005,-0.26807 -0.07005,-0.26806 h -0.131017 -0.131003 l -0.240707,0.24072 -0.240709,0.24069 v -0.1479 -0.14792 l -0.382834,0.022 -0.382838,0.0221 -1.1e-4,0.10537 -1.09e-4,0.10535 -0.306353,-0.0231 -0.306358,-0.0231 v -0.12773 -0.12773 l -0.372864,0.27521 -0.37286,0.27521 -0.110701,0.38295 -0.110696,0.38294 -0.106745,1.22543 -0.10674,1.22543 -0.116863,-0.34466 -0.116862,-0.34464 h -0.13531 -0.135317 l -0.01211,0.49782 -0.01208,0.49782 -0.08505,-0.22976 -0.08507,-0.22976 -0.148828,-0.18843 -0.148829,-0.18841 -0.285043,0.3416 -0.285043,0.34158 -0.0052,-0.23523 -0.0052,-0.23523 h -0.306279 -0.306357 v 0.1741 0.1741 l -0.421239,-0.0155 -0.42124,-0.0155 -0.04315,-1.61653 -0.04316,-1.61652 -0.46526,-0.27482 -0.465263,-0.27485 -0.08201,0.0821 -0.08201,0.0821 -0.08312,1.62875 -0.08313,1.62876 -0.245509,0.29461 -0.245508,0.29459 -0.196717,-0.12628 -0.196717,-0.12629 -0.07126,-1.28972 -0.07127,-1.28974 -0.0836,-0.49783 -0.08361,-0.49783 h -0.146235 -0.146235 l -0.01563,0.65102 -0.01563,0.651 -0.155568,-0.48343 -0.155568,-0.4834 -0.357241,-0.0682 -0.357247,-0.0683 -0.08427,0.21958 -0.08426,0.21959 v 1.51925 1.51925 h -0.153116 -0.153179 v -0.22977 -0.22977 h -0.122542 -0.12254 l -0.181425,0.18143 -0.181419,0.18142 -0.308751,0.0228 -0.308745,0.0228 v -0.1379 -0.1379 l -0.306357,0.0972 -0.306354,0.0972 V 86.38099 85.3198 l -0.09741,-0.71068 -0.09741,-0.71068 H 20.185139 20.05278 l -0.01528,0.26806 -0.01529,0.26806 -0.116823,-0.38295 -0.116822,-0.38295 -0.107571,0.25114 -0.107565,0.25113 -0.288256,-0.0754 -0.288259,-0.0754 -0.06703,-0.25235 -0.06703,-0.25234 -0.01776,0.42124 -0.01776,0.42124 H 18.680098 18.532824 L 18.367836,83.74522 18.20285,83.1325 Z"
         id="path1345" />
      <text
         xml:space="preserve"
         style="font-stretch:condensed;font-size:3.52777px;line-height:1.25;font-family:'Noto Sans';-inkscape-font-specification:'Noto Sans, Condensed';letter-spacing:0px;word-spacing:0px;writing-mode:lr-tb;stroke-width:0.264583"
         x="36.451885"
         y="65.752243"
         id="text30740-1"><tspan
           sodipodi:role="line"
           id="tspan30738-2"
           x="36.451885"
           y="65.752243"
           style="stroke-width:0.264583">Kir6.2ΔC36</tspan></text>
      <text
         xml:space="preserve"
         style="font-stretch:condensed;font-size:3.52777px;line-height:1.25;font-family:'Noto Sans';-inkscape-font-specification:'Noto Sans, Condensed';letter-spacing:0px;word-spacing:0px;writing-mode:lr-tb;stroke-width:0.264583"
         x="34.568066"
         y="82.217422"
         id="text30736-7"><tspan
           sodipodi:role="line"
           id="tspan30734-0"
           x="34.568066"
           y="82.217422"
           style="stroke-width:0.264583">Kir6.2  + SUR1</tspan></text>
      <path
         style="fill:none;stroke:#000000;stroke-width:0.396875;stroke-linecap:square;stroke-linejoin:miter;stroke-miterlimit:4;stroke-dasharray:none;stroke-opacity:1"
         d="m 12.042622,86.19548 v 7.067479"
         id="path30760-2" />
      <text
         xml:space="preserve"
         style="font-stretch:condensed;font-size:3.52777px;line-height:1.25;font-family:'Noto Sans';-inkscape-font-specification:'Noto Sans, Condensed';letter-spacing:0px;word-spacing:0px;writing-mode:lr-tb;stroke-width:0.264583"
         x="4.0237403"
         y="91.0215"
         id="text30764-6"><tspan
           sodipodi:role="line"
           id="tspan30762-1"
           x="4.0237403"
           y="91.0215"
           style="stroke-width:0.264583">5 pA</tspan></text>
      <g
         id="g1960"
         transform="translate(-2.2687835)">
        <text
           xml:space="preserve"
           style="font-stretch:condensed;font-size:3.52777px;line-height:1.25;font-family:'Noto Sans';-inkscape-font-specification:'Noto Sans, Condensed';letter-spacing:0px;word-spacing:0px;writing-mode:lr-tb;stroke-width:0.264583"
           x="83.461189"
           y="74.882988"
           id="text30977-6-2"><tspan
             sodipodi:role="line"
             id="tspan30975-0-93"
             x="83.461189"
             y="74.882988"
             style="stroke-width:0.264583">C</tspan></text>
        <text
           xml:space="preserve"
           style="font-stretch:condensed;font-size:3.52777px;line-height:1.25;font-family:'Noto Sans';-inkscape-font-specification:'Noto Sans, Condensed';letter-spacing:0px;word-spacing:0px;writing-mode:lr-tb;stroke-width:0.264583"
           x="83.461189"
           y="70.854919"
           id="text30981-7-1"><tspan
             sodipodi:role="line"
             id="tspan30979-9-9"
             x="83.461189"
             y="70.854919"
             style="stroke-width:0.264583">O</tspan></text>
        <path
           style="fill:none;stroke:#000000;stroke-width:0.264583;stroke-linecap:butt;stroke-linejoin:miter;stroke-miterlimit:4;stroke-dasharray:none;stroke-opacity:1"
           d="m 77.657989,73.621803 h 4"
           id="path1829-4" />
        <path
           style="fill:none;stroke:#000000;stroke-width:0.264583;stroke-linecap:butt;stroke-linejoin:miter;stroke-miterlimit:4;stroke-dasharray:none;stroke-opacity:1"
           d="m 77.657989,69.595496 h 4"
           id="path1829-2-7" />
      </g>
      <g
         id="g1968"
         transform="translate(-3.1413785,-9.2330213)">
        <text
           xml:space="preserve"
           style="font-stretch:condensed;font-size:3.52777px;line-height:1.25;font-family:'Noto Sans';-inkscape-font-specification:'Noto Sans, Condensed';letter-spacing:0px;word-spacing:0px;writing-mode:lr-tb;stroke-width:0.264583"
           x="84.333778"
           y="99.285904"
           id="text30977-6-2-6"><tspan
             sodipodi:role="line"
             id="tspan30975-0-93-3"
             x="84.333778"
             y="99.285904"
             style="stroke-width:0.264583">C</tspan></text>
        <text
           xml:space="preserve"
           style="font-stretch:condensed;font-size:3.52777px;line-height:1.25;font-family:'Noto Sans';-inkscape-font-specification:'Noto Sans, Condensed';letter-spacing:0px;word-spacing:0px;writing-mode:lr-tb;stroke-width:0.264583"
           x="84.333778"
           y="95.257835"
           id="text30981-7-1-2"><tspan
             sodipodi:role="line"
             id="tspan30979-9-9-0"
             x="84.333778"
             y="95.257835"
             style="stroke-width:0.264583">O</tspan></text>
        <path
           style="fill:none;stroke:#000000;stroke-width:0.264583;stroke-linecap:butt;stroke-linejoin:miter;stroke-miterlimit:4;stroke-dasharray:none;stroke-opacity:1"
           d="m 78.530584,98.024724 h 4"
           id="path1829-4-6" />
        <path
           style="fill:none;stroke:#000000;stroke-width:0.264583;stroke-linecap:butt;stroke-linejoin:miter;stroke-miterlimit:4;stroke-dasharray:none;stroke-opacity:1"
           d="m 78.530584,93.998417 h 4"
           id="path1829-2-7-1" />
      </g>
      <path
         style="fill:none;stroke:#000000;stroke-width:0.396875;stroke-linecap:square;stroke-linejoin:miter;stroke-miterlimit:4;stroke-dasharray:none;stroke-opacity:1"
         d="M 12.042622,93.262959 H 22.054295"
         id="path30760-2-7"
         sodipodi:nodetypes="cc" />
      <text
         xml:space="preserve"
         style="font-stretch:condensed;font-size:3.52777px;line-height:1.25;font-family:'Noto Sans';-inkscape-font-specification:'Noto Sans, Condensed';letter-spacing:0px;word-spacing:0px;writing-mode:lr-tb;stroke-width:0.264583"
         x="13.003881"
         y="97.173485"
         id="text30764-6-8"><tspan
           sodipodi:role="line"
           id="tspan30762-1-6"
           x="13.003881"
           y="97.173485"
           style="stroke-width:0.264583">20 ms</tspan></text>
    </g>
  </g>
</svg>
