<?xml version="1.0" encoding="UTF-8" standalone="no"?>
<svg
   xmlns:dc="http://purl.org/dc/elements/1.1/"
   xmlns:cc="http://creativecommons.org/ns#"
   xmlns:rdf="http://www.w3.org/1999/02/22-rdf-syntax-ns#"
   xmlns:svg="http://www.w3.org/2000/svg"
   xmlns="http://www.w3.org/2000/svg"
   xmlns:sodipodi="http://sodipodi.sourceforge.net/DTD/sodipodi-0.dtd"
   xmlns:inkscape="http://www.inkscape.org/namespaces/inkscape"
   viewBox="0 0 678.08081 158.88649"
   version="1.1"
   id="svg5488"
   sodipodi:docname="atp_tnpatp_trace.svg"
   width="678.08081"
   height="158.88649"
   inkscape:version="1.0.1 (3bc2e813f5, 2020-09-07, custom)">
  <metadata
     id="metadata5492">
    <rdf:RDF>
      <cc:Work
         rdf:about="">
        <dc:format>image/svg+xml</dc:format>
        <dc:type
           rdf:resource="http://purl.org/dc/dcmitype/StillImage" />
        <dc:title></dc:title>
      </cc:Work>
    </rdf:RDF>
  </metadata>
  <sodipodi:namedview
     pagecolor="#ffffff"
     bordercolor="#666666"
     borderopacity="1"
     objecttolerance="10"
     gridtolerance="10"
     guidetolerance="10"
     inkscape:pageopacity="0"
     inkscape:pageshadow="2"
     inkscape:window-width="1366"
     inkscape:window-height="768"
     id="namedview5490"
     showgrid="false"
     inkscape:zoom="0.56646825"
     inkscape:cx="271.39128"
     inkscape:cy="341.28463"
     inkscape:window-x="0"
     inkscape:window-y="0"
     inkscape:window-maximized="1"
     inkscape:current-layer="svg5488"
     inkscape:snap-global="true"
     showguides="false" />
  <defs
     id="defs4662">
    <style
       type="text/css"
       id="style4660"><![CDATA[
    line, polyline, polygon, path, rect, circle {
      fill: none;
      stroke: #000000;
      stroke-linecap: round;
      stroke-linejoin: round;
      stroke-miterlimit: 10.00;
    }
  ]]></style>
    <pattern
       id="EMFhbasepattern"
       patternUnits="userSpaceOnUse"
       width="6"
       height="6"
       x="0"
       y="0" />
  </defs>
  <defs
     id="defs4671">
    <clipPath
       id="cpNS40OHw0OTguNTJ8MjUyLjAwfDUuNDg=">
      <rect
         x="5.48"
         y="5.48"
         width="493.04001"
         height="246.52"
         id="rect4668" />
    </clipPath>
  </defs>
  <defs
     id="defs4678">
    <clipPath
       id="cpMC4wMHw1MDQuMDB8NTA0LjAwfDAuMDA=">
      <rect
         x="0"
         y="0"
         width="504"
         height="504"
         id="rect4675" />
    </clipPath>
  </defs>
  <defs
     id="defs4683" />
  <defs
     id="defs4709">
    <clipPath
       id="clipPath4707">
      <rect
         x="0"
         y="0"
         width="504"
         height="504"
         id="rect4705" />
    </clipPath>
  </defs>
  <defs
     id="defs4810">
    <clipPath
       id="cpNS40OHw0OTguNTJ8NDk4LjUyfDI1Mi4wMA==">
      <rect
         x="5.48"
         y="252"
         width="493.04001"
         height="246.52"
         id="rect4807" />
    </clipPath>
  </defs>
  <defs
     id="defs4818">
    <clipPath
       id="clipPath4816">
      <rect
         x="0"
         y="0"
         width="504"
         height="504"
         id="rect4814" />
    </clipPath>
  </defs>
  <defs
     id="defs4823">
    <clipPath
       id="cpNDguMDB8MzUzLjMzfDI3NC4xNXwyNTcuNDg=">
      <rect
         x="48"
         y="257.48001"
         width="305.32001"
         height="16.67"
         id="rect4820" />
    </clipPath>
  </defs>
  <defs
     id="defs4835">
    <clipPath
       id="clipPath4833">
      <rect
         x="0"
         y="0"
         width="504"
         height="504"
         id="rect4831" />
    </clipPath>
  </defs>
  <defs
     id="defs4840">
    <clipPath
       id="cpNDguMDB8MzUzLjMzfDI5Ni4zMHwyNzkuNjM=">
      <rect
         x="48"
         y="279.63"
         width="305.32001"
         height="16.67"
         id="rect4837" />
    </clipPath>
  </defs>
  <defs
     id="defs4852">
    <clipPath
       id="clipPath4850">
      <rect
         x="0"
         y="0"
         width="504"
         height="504"
         id="rect4848" />
    </clipPath>
  </defs>
  <defs
     id="defs4857">
    <clipPath
       id="cpNDguMDB8MzUzLjMzfDMxOC40NnwzMDEuNzg=">
      <rect
         x="48"
         y="301.78"
         width="305.32001"
         height="16.67"
         id="rect4854" />
    </clipPath>
  </defs>
  <defs
     id="defs4869">
    <clipPath
       id="clipPath4867">
      <rect
         x="0"
         y="0"
         width="504"
         height="504"
         id="rect4865" />
    </clipPath>
  </defs>
  <defs
     id="defs4874">
    <clipPath
       id="cpNDguMDB8MzUzLjMzfDM0MC42MXwzMjMuOTM=">
      <rect
         x="48"
         y="323.92999"
         width="305.32001"
         height="16.67"
         id="rect4871" />
    </clipPath>
  </defs>
  <defs
     id="defs4886">
    <clipPath
       id="clipPath4884">
      <rect
         x="0"
         y="0"
         width="504"
         height="504"
         id="rect4882" />
    </clipPath>
  </defs>
  <defs
     id="defs4891">
    <clipPath
       id="cpNDguMDB8MzUzLjMzfDM2Mi43NnwzNDYuMDk=">
      <rect
         x="48"
         y="346.09"
         width="305.32001"
         height="16.67"
         id="rect4888" />
    </clipPath>
  </defs>
  <defs
     id="defs4903">
    <clipPath
       id="clipPath4901">
      <rect
         x="0"
         y="0"
         width="504"
         height="504"
         id="rect4899" />
    </clipPath>
  </defs>
  <defs
     id="defs4908">
    <clipPath
       id="cpNDguMDB8MzUzLjMzfDM4NC45MXwzNjguMjQ=">
      <rect
         x="48"
         y="368.23999"
         width="305.32001"
         height="16.67"
         id="rect4905" />
    </clipPath>
  </defs>
  <defs
     id="defs4920">
    <clipPath
       id="clipPath4918">
      <rect
         x="0"
         y="0"
         width="504"
         height="504"
         id="rect4916" />
    </clipPath>
  </defs>
  <defs
     id="defs4925">
    <clipPath
       id="cpNDguMDB8MzUzLjMzfDQwNy4wNnwzOTAuMzk=">
      <rect
         x="48"
         y="390.39001"
         width="305.32001"
         height="16.67"
         id="rect4922" />
    </clipPath>
  </defs>
  <defs
     id="defs4937">
    <clipPath
       id="clipPath4935">
      <rect
         x="0"
         y="0"
         width="504"
         height="504"
         id="rect4933" />
    </clipPath>
  </defs>
  <defs
     id="defs4942">
    <clipPath
       id="cpNDguMDB8MzUzLjMzfDQyOS4yMXw0MTIuNTQ=">
      <rect
         x="48"
         y="412.54001"
         width="305.32001"
         height="16.67"
         id="rect4939" />
    </clipPath>
  </defs>
  <defs
     id="defs4954">
    <clipPath
       id="clipPath4952">
      <rect
         x="0"
         y="0"
         width="504"
         height="504"
         id="rect4950" />
    </clipPath>
  </defs>
  <defs
     id="defs4959">
    <clipPath
       id="cpNDguMDB8MzUzLjMzfDQ1MS4zN3w0MzQuNjk=">
      <rect
         x="48"
         y="434.69"
         width="305.32001"
         height="16.67"
         id="rect4956" />
    </clipPath>
  </defs>
  <defs
     id="defs4971">
    <clipPath
       id="clipPath4969">
      <rect
         x="0"
         y="0"
         width="504"
         height="504"
         id="rect4967" />
    </clipPath>
  </defs>
  <defs
     id="defs4976">
    <clipPath
       id="cpMzUzLjMzfDM3MC4yNHwyNzQuMTV8MjU3LjQ4">
      <rect
         x="353.32999"
         y="257.48001"
         width="16.92"
         height="16.67"
         id="rect4973" />
    </clipPath>
  </defs>
  <defs
     id="defs4988">
    <clipPath
       id="clipPath4986">
      <rect
         x="0"
         y="0"
         width="504"
         height="504"
         id="rect4984" />
    </clipPath>
  </defs>
  <defs
     id="defs4993">
    <clipPath
       id="cpMzUzLjMzfDM3MC4yNHwyOTYuMzB8Mjc5LjYz">
      <rect
         x="353.32999"
         y="279.63"
         width="16.92"
         height="16.67"
         id="rect4990" />
    </clipPath>
  </defs>
  <defs
     id="defs5005">
    <clipPath
       id="clipPath5003">
      <rect
         x="0"
         y="0"
         width="504"
         height="504"
         id="rect5001" />
    </clipPath>
  </defs>
  <defs
     id="defs5010">
    <clipPath
       id="cpMzUzLjMzfDM3MC4yNHwzMTguNDZ8MzAxLjc4">
      <rect
         x="353.32999"
         y="301.78"
         width="16.92"
         height="16.67"
         id="rect5007" />
    </clipPath>
  </defs>
  <defs
     id="defs5022">
    <clipPath
       id="clipPath5020">
      <rect
         x="0"
         y="0"
         width="504"
         height="504"
         id="rect5018" />
    </clipPath>
  </defs>
  <defs
     id="defs5027">
    <clipPath
       id="cpMzUzLjMzfDM3MC4yNHwzNDAuNjF8MzIzLjkz">
      <rect
         x="353.32999"
         y="323.92999"
         width="16.92"
         height="16.67"
         id="rect5024" />
    </clipPath>
  </defs>
  <defs
     id="defs5039">
    <clipPath
       id="clipPath5037">
      <rect
         x="0"
         y="0"
         width="504"
         height="504"
         id="rect5035" />
    </clipPath>
  </defs>
  <defs
     id="defs5044">
    <clipPath
       id="cpMzUzLjMzfDM3MC4yNHwzNjIuNzZ8MzQ2LjA5">
      <rect
         x="353.32999"
         y="346.09"
         width="16.92"
         height="16.67"
         id="rect5041" />
    </clipPath>
  </defs>
  <defs
     id="defs5056">
    <clipPath
       id="clipPath5054">
      <rect
         x="0"
         y="0"
         width="504"
         height="504"
         id="rect5052" />
    </clipPath>
  </defs>
  <defs
     id="defs5061">
    <clipPath
       id="cpMzUzLjMzfDM3MC4yNHwzODQuOTF8MzY4LjI0">
      <rect
         x="353.32999"
         y="368.23999"
         width="16.92"
         height="16.67"
         id="rect5058" />
    </clipPath>
  </defs>
  <defs
     id="defs5073">
    <clipPath
       id="clipPath5071">
      <rect
         x="0"
         y="0"
         width="504"
         height="504"
         id="rect5069" />
    </clipPath>
  </defs>
  <defs
     id="defs5078">
    <clipPath
       id="cpMzUzLjMzfDM3MC4yNHw0MDcuMDZ8MzkwLjM5">
      <rect
         x="353.32999"
         y="390.39001"
         width="16.92"
         height="16.67"
         id="rect5075" />
    </clipPath>
  </defs>
  <defs
     id="defs5090">
    <clipPath
       id="clipPath5088">
      <rect
         x="0"
         y="0"
         width="504"
         height="504"
         id="rect5086" />
    </clipPath>
  </defs>
  <defs
     id="defs5095">
    <clipPath
       id="cpMzUzLjMzfDM3MC4yNHw0MjkuMjF8NDEyLjU0">
      <rect
         x="353.32999"
         y="412.54001"
         width="16.92"
         height="16.67"
         id="rect5092" />
    </clipPath>
  </defs>
  <defs
     id="defs5107">
    <clipPath
       id="clipPath5105">
      <rect
         x="0"
         y="0"
         width="504"
         height="504"
         id="rect5103" />
    </clipPath>
  </defs>
  <defs
     id="defs5112">
    <clipPath
       id="cpMzUzLjMzfDM3MC4yNHw0NTEuMzd8NDM0LjY5">
      <rect
         x="353.32999"
         y="434.69"
         width="16.92"
         height="16.67"
         id="rect5109" />
    </clipPath>
  </defs>
  <defs
     id="defs5124">
    <clipPath
       id="clipPath5122">
      <rect
         x="0"
         y="0"
         width="504"
         height="504"
         id="rect5120" />
    </clipPath>
  </defs>
  <path
     style="fill:none;stroke:#000000;stroke-width:1;stroke-linecap:round;stroke-linejoin:round;stroke-miterlimit:4;stroke-dasharray:none;stroke-opacity:1"
     d="m 31.142848,23.224198 v -4.579827 l 0.492373,-1.221287 v 5.19047 l 0.492461,2.442574 v -5.495792 l 0.492373,1.831931 v 4.579827 l 0.492373,-0.305322 v -5.190463 l 0.492373,1.22128 v 4.274505 l 0.492374,0.610643 v -4.579826 l 0.492373,-1.526602 v 5.190463 l 0.49246,-1.526609 v -3.663854 l 0.492373,-0.305322 v 3.663854 l 0.492374,0.610644 v -6.106436 l 0.492373,1.526609 v 3.663862 l 0.492373,0.915965 v -4.274498 l 0.492373,-1.526616 v 4.579827 h 0.492461 v -4.579827 l 0.492373,1.526616 v 3.663854 l 0.492373,0.915966 v -3.663862 l 0.492373,-1.526609 v 3.969184 l 0.492374,-1.526609 v -3.663862 l 0.492373,-0.610643 v 4.274505 h 0.49246 v -4.885142 l 0.492373,2.442567 v 3.053218 l 0.492374,-0.305322 v -4.274505 l 0.492373,-0.305321 v 5.495792 l 0.492373,0.610643 v -4.274505"
     id="path5595" />
  <path
     style="fill:none;stroke:#000000;stroke-width:1;stroke-linecap:round;stroke-linejoin:round;stroke-miterlimit:4;stroke-dasharray:none;stroke-opacity:1"
     d="m 42.960154,19.560336 0.492373,0.610651 v 3.663854 l 0.492374,0.305322 v -3.663854 l 0.49246,1.526602 v -3.663862 l 0.492373,0.610644 v 4.274505 l 0.492373,-1.526609 v -3.969183 l 0.492374,0.305321 v 3.663862 l 0.492373,1.831931 v -4.579827 l 0.492373,0.610643 v 3.663862 l 0.49246,0.915965 v -3.663854 l 0.492374,-1.526616 v 4.579827 h 0.492373 v -4.579827 l 0.492373,-1.831924 v 5.495785 l 0.492373,0.915966 v -6.411751 l 0.492374,0.915958 v 3.969184 l 0.49246,-0.610644 v -4.57982 l 0.492373,0.915959 v 4.885148 l 0.492373,-0.610643 v -4.579827 l 0.492374,1.526609 v 3.358539 l 0.492373,1.221288 v -6.106436 l 0.492373,2.442574 v 4.579827 l 0.49246,-1.526609 v -3.35854 l 0.492374,-0.305321 v 3.663861 l 0.492373,1.526609 v -4.885149 l 0.492373,2.442575 v -5.190464 l 0.492373,1.22128 v 3.35854 l 0.492374,1.221287 v -3.663861 l 0.492373,4.274505 v -5.190471"
     id="path5597" />
  <path
     style="fill:none;stroke:#000000;stroke-width:1;stroke-linecap:round;stroke-linejoin:round;stroke-miterlimit:4;stroke-dasharray:none;stroke-opacity:1"
     d="m 56.25458,18.033727 0.49246,1.526609 v 5.190471 l 0.492373,-3.35854 v -3.35854 l 0.492374,-0.305321 v 4.579826 l 0.492373,-1.526609 v -3.969176 l 0.492373,-0.915965 v 4.274505 l 0.492373,0.610636 v -3.358539 l 0.492461,-0.610637 v 3.969176 l 0.492373,1.221288 v -5.190464 l 0.492373,1.22128 v 3.053218 l 0.492373,-2.442574 v 5.19047 l 0.492374,0.305322 v -5.495792 h 0.492373 v 3.663861 l 0.49246,-0.915965 v -3.663861 l 0.492373,-1.526603 v 3.358533 h 0.492374 v -3.358533 l 0.492373,0.915966 v 3.969176 l 0.492373,0.305322 v -4.57982 l 0.492373,3.053211 v 3.35854 l 0.492461,1.221287 v -4.274498 l 0.492373,-0.305329 v 4.274505 l 0.492373,-1.526609 v -5.495785 h 0.492373 v 3.663854 l 0.492374,0.915966 v -4.274505 h 0.492373 v 5.19047 l 0.49246,-0.610643 v -3.663862 l 0.492373,-0.915965 v 3.969183 l 0.492374,2.747896 v -4.274505"
     id="path5599" />
  <path
     style="fill:none;stroke:#000000;stroke-width:1;stroke-linecap:round;stroke-linejoin:round;stroke-miterlimit:4;stroke-dasharray:none;stroke-opacity:1"
     d="m 69.549093,19.865658 v -0.305322 5.190471 l 0.492373,-0.610644 v -5.19047 l 0.492373,0.305322 v 4.579826 l 0.492373,0.610644 v -3.969176 l 0.492461,-0.915973 v 3.35854 l 0.492373,2.442574 v -6.106435 l 0.492373,-2.442568 v 7.327716 l 0.492373,-1.831931 v -4.579826 l 0.492374,0.915965 v 4.579827 l 0.492373,-0.610644 v -3.358539 h 0.492373 v 4.885148 l 0.49246,1.526609 v -3.969183 l 0.492374,2.747896 v -6.106436 l 0.492373,-0.305322 v 4.885149 l 0.492373,-0.305322 v -3.358539 l 0.492373,-0.305322 v 4.579827 l 0.492374,-0.610644 v -3.969183 l 0.49246,-0.305322 v 3.35854 l 0.492373,-0.610644 v -3.35854 l 0.492373,-0.610643 v 4.274505 l 0.492374,-0.305322 v -3.053218 l 0.492373,-0.305322 v 3.35854 l 0.492373,-0.915958 v -3.35854 h 0.49246 v 4.885142 l 0.492374,1.221287 v -4.885149 l 0.492373,-1.22128 v 3.969176 h 0.492373 v -3.663861"
     id="path5601" />
  <path
     style="fill:none;stroke:#000000;stroke-width:1;stroke-linecap:round;stroke-linejoin:round;stroke-miterlimit:4;stroke-dasharray:none;stroke-opacity:1"
     d="m 82.351145,17.423084 0.492373,1.221287 v 5.495792 l 0.492374,-3.663854 v -3.969184 h 0.49246 v 3.053211 l 0.492373,-1.526609 v -3.663854 h 0.492373 v 5.495785 l 0.492374,1.526609 v -4.57982 l 0.492373,0.305322 v 3.969176 l 0.492373,1.221287 v -4.274505 l 0.492373,2.13726 V 15.59116 l 0.492461,0.610643 v 3.358533 l 0.492373,0.610651 v -3.053218 l 0.492373,0.610637 v 3.358539 l 0.492373,0.305322 v -5.190464 l 0.492374,2.137246 v 4.274505 l 0.492373,0.610644 v -4.885149 l 0.49246,0.305322 v 3.663861 l 0.492373,-1.221287 v -4.57982 h 0.492374 v 4.57982 l 0.492373,-0.610636 v -3.663862 l 0.492373,0.915959 v 5.495792 l 0.492373,-1.221287 v -4.579827 l 0.492461,-1.221281 v 5.190464 h 0.492373 v -3.35854 l 0.492373,1.221288 v 4.274505 l 0.492373,-0.915966 v -4.274505 l 0.492374,-0.915965 v 3.358539 h 0.492373 v -3.358539"
     id="path5603" />
  <path
     style="fill:none;stroke:#000000;stroke-width:1;stroke-linecap:round;stroke-linejoin:round;stroke-miterlimit:4;stroke-dasharray:none;stroke-opacity:1"
     d="m 95.645571,17.423084 0.492458,-0.610637 v 5.495785 l 0.49238,-0.305321 v -4.579827 l 0.49237,-0.305315 v 3.663854 l 0.49237,1.526609 v -3.969183 l 0.49238,-2.137246 v 6.106429 l 0.49237,-1.831923 v -3.663862 l 0.49246,0.610637 v 4.579827 l 0.49237,-0.610644 v -3.053218 h 0.492381 v 3.663862 l 0.49237,1.83193 v -4.885148 l 0.49237,-0.610644 v 4.274505 l 0.49238,-1.221287 v -4.885142 l 0.49237,0.915959 v 3.663861 l 0.49246,0.915966 v -3.969184 l 0.49237,-0.610643 v 3.663861 l 0.49238,-0.305322 v -3.663854 h 0.49237 v 4.885142 l 0.49237,0.915965 v -3.969183 l 0.49238,-0.915966 v 4.274505 h 0.49246 v -3.663861 l 0.49237,-1.526602 v 5.190463 l 0.49237,-0.610643 v -4.885142 l 0.49238,-0.610644 v 4.274506 l 0.49237,0.610636 v -3.358539 l 0.49237,-1.221281 v 3.663862 l 0.49246,0.915958 v -5.190463 l 0.49238,4.885141 v -4.274498"
     id="path5605" />
  <path
     style="fill:none;stroke:#000000;stroke-width:1;stroke-linecap:round;stroke-linejoin:round;stroke-miterlimit:4;stroke-dasharray:none;stroke-opacity:1"
     d="m 108.94009,16.507125 v 2.137246 4.274505 l 0.49237,0.915965 v -4.274505 l 0.49237,-1.526609 v 4.274505 l 0.49237,0.610644 v -3.969183 h 0.49238 v 3.663861 l 0.49246,1.526609 v -4.579827 l 0.49237,-1.83193 v 5.495792 l 0.49237,-0.305322 v -5.801107 l 0.49238,0.610637 v 3.663861 l 0.49237,-0.610644 v -3.663854 l 0.49237,1.831924 v 5.19047 l 0.49246,-0.305322 v -4.885148 l 0.49238,-1.831924 v 5.495785 h 0.49237 v -4.579827 h 0.49237 v 3.053218 l 0.49238,-2.137252 v 4.579827 l 0.49237,-1.221288 v -3.663861 l 0.49237,0.305322 v 4.274505 l 0.49246,-0.305322 v -4.274505 h 0.49238 v 3.969183 l 0.49237,1.221287 v -3.969183 h 0.49237 v 4.885149 h 0.49238 v -3.969184 l 0.49237,-0.305314 v 3.358532 l 0.49246,0.305322 v -3.35854 l 0.49237,-1.526608 v 5.495792 l 0.49238,-1.526609 v -3.35854"
     id="path5607" />
  <path
     style="fill:none;stroke:#000000;stroke-width:1;stroke-linecap:round;stroke-linejoin:round;stroke-miterlimit:4;stroke-dasharray:none;stroke-opacity:1"
     d="m 121.74214,19.865658 0.49237,-0.610643 v 3.663861 l 0.49237,0.305322 v -3.969183 l 0.49238,2.442574 v -4.885142 l 0.49246,0.305322 v 4.885142 l 0.49237,0.305321 v -5.190463 l 0.49237,0.610637 v 5.19047 l 0.49238,-0.305322 v -5.801107 l 0.49237,2.747889 v 3.969184 l 0.49237,-0.915966 v -4.274505 l 0.49246,-0.915965 v 5.495792 h 0.49238 v -3.969183 l 0.49237,-2.442568 v 5.495786 l 0.49237,0.610643 v -3.663861 l 0.49238,0.915965 v 3.663862 l 0.49237,-2.747897 v 8.243689 l 0.49246,-1.831931 v 5.495784 l 0.49237,-1.526602 v 9.159647 l 0.49238,-1.526609 v 9.464976 l 0.49237,-1.221294 v 13.128833 l 0.49237,-1.831924 v 10.075612 l 0.49238,-1.831931 v 10.380935 l 0.49237,-2.137253 v 10.380941 l 0.49246,-1.831931 v 7.93836 l 0.49237,-2.137245 v 9.464969 l 0.49238,-1.831931 v 6.411762 l 0.49237,1.5266 v -4.885144 l 0.49237,7.633034 v -4.57982"
     id="path5609" />
  <path
     style="fill:none;stroke:#000000;stroke-width:1;stroke-linecap:round;stroke-linejoin:round;stroke-miterlimit:4;stroke-dasharray:none;stroke-opacity:1"
     d="m 135.03656,102.91315 0.49238,2.74789 v 5.49579 l 0.49246,1.52661 v -3.66386 l 0.49237,2.13725 v 3.96918 l 0.49237,-1.5266 v 4.2745 l 0.49238,0.91596 v -3.35854 l 0.49237,0.91597 v 3.35854 l 0.49237,0.91596 v -3.05321 l 0.49246,1.83193 v 3.05321 l 0.49238,-1.5266 v 3.96918 h 0.49237 v -2.44258 l 0.49237,0.91597 v 2.7479 l 0.49238,0.30532 v -2.44258 h 0.49237 v 3.05322 l 0.49246,1.22129 v -2.7479 l 0.49237,0.61065 v 1.83193 l 0.49238,0.91596 v -3.05322 l 0.49237,0.91597 v 2.13725 l 0.49237,-0.30532 v -1.83193 l 0.49238,0.91597 v 1.83192 h 0.49237 v -2.44257 l 0.49246,1.22129 v 2.44257 h 0.49237 v -1.83193 l 0.49238,1.22128 v -2.44256 l 0.49237,-0.30533 v 1.83193 l 0.49237,0.61064 v -1.5266 l 0.49238,-0.91597 v 2.13725 h 0.49246 v -1.5266"
     id="path5611" />
  <path
     style="fill:none;stroke:#000000;stroke-width:1;stroke-linecap:round;stroke-linejoin:round;stroke-miterlimit:4;stroke-dasharray:none;stroke-opacity:1"
     d="m 148.33108,127.94953 h 0.49237 v 2.44256 l 0.49237,-0.30532 v -1.83192 l 0.49238,0.30532 v 1.83192 h 0.49237 v -1.83192 l 0.49237,0.61064 v 1.83193 l 0.49246,0.30533 v -1.83194 h 0.49238 v 2.7479 l 0.49237,-0.91596 v -1.83194 l 0.49237,0.91596 v 1.52662 h 0.49238 v -2.13726 l 0.49237,-0.30532 v 1.83194 l 0.49246,-0.91598 v -1.22128 l 0.49237,-0.30532 v 1.83193 l 0.49238,-0.30533 v -1.5266 l 0.49237,0.30532 v 1.83193 h 0.49237 v -1.83193 h 0.49238 v 1.52661 l 0.49237,0.61065 v -2.13726 l 0.49246,0.30532 v 1.83194 h 0.49237 v -2.44258 l 0.49238,-0.61064 v 1.83192 l 0.49237,0.91597 v -2.74789 l 0.49237,1.5266 v 1.52662 l 0.49246,-0.61065 v -1.52661 l 0.49238,0.30532 v 1.83194 l 0.49237,-0.61065 v -1.52661 l 0.49237,2.13726 v -1.83194"
     id="path5613" />
  <path
     style="fill:none;stroke:#000000;stroke-width:1;stroke-linecap:round;stroke-linejoin:round;stroke-miterlimit:4;stroke-dasharray:none;stroke-opacity:1"
     d="m 161.6255,129.47613 v 0 1.83194 h 0.49238 v -1.52662 l 0.49237,0.30532 v 1.52662 l 0.49237,0.61064 v -2.13726 l 0.49246,-0.30532 v 1.83194 h 0.49238 v -2.13726 l 0.49237,0.30532 v 1.52662 h 0.49237 v -2.13726 h 0.49238 v 2.13726 l 0.49237,0.30532 v -1.52662 l 0.49246,-0.30532 v 1.83194 h 0.49237 v -1.52662 l 0.49237,0.61065 v 1.52661 l 0.49238,-0.30532 v -1.22129 l 0.49237,-0.30533 v 1.2213 l 0.49237,0.61064 v -1.83194 l 0.49246,0.91598 v 1.22128 l 0.49238,-0.30532 v -1.22129 l 0.49237,-0.30532 v 2.13725 l 0.49237,-0.61064 v -2.13726 l 0.49238,-0.30532 v 2.7479 h 0.49237 v -1.52661 l 0.49246,-0.30532 v 1.52661 l 0.49237,-0.30532 v -1.52662 h 0.49238 v 1.52662 h 0.49237 v -1.22129 l 0.49237,0.91597 v -1.52662"
     id="path5615" />
  <path
     style="fill:none;stroke:#000000;stroke-width:1;stroke-linecap:round;stroke-linejoin:round;stroke-miterlimit:4;stroke-dasharray:none;stroke-opacity:1"
     d="m 174.42755,130.08677 0.49238,-0.30532 v 1.52662 h 0.49237 v -2.13726 l 0.49246,0.91596 v 1.83194 l 0.49237,-0.30532 v -1.52662 h 0.49238 v 1.52662 l 0.49237,0.61064 v -1.52661 l 0.49237,-0.61065 v 2.44258 l 0.49238,-0.30532 v -1.52661 l 0.49246,-0.61065 v 1.52662 h 0.49237 v -1.52662 l 0.49237,0.61065 v 1.83193 l 0.49238,-0.30532 v -1.52661 l 0.49237,-0.30533 v 1.52662 l 0.49237,-0.30532 v -1.52662 l 0.49246,0.30532 v 1.52662 l 0.49238,0.61064 v -1.52661 l 0.49237,-0.91597 v 2.13726 l 0.49237,-0.61064 v -2.13726 l 0.49238,0.61064 v 1.52662 h 0.49237 v -1.83194 l 0.49246,0.61064 v 1.52662 h 0.49237 v -1.83194 l 0.49238,-0.30532 v 1.22129 l 0.49237,0.91597 v -2.44258 l 0.49237,1.52661 v 1.22129 h 0.49238 v -1.52661 l 0.49237,1.52661 v -1.22129"
     id="path5617" />
  <path
     style="fill:none;stroke:#000000;stroke-width:1;stroke-linecap:round;stroke-linejoin:round;stroke-miterlimit:4;stroke-dasharray:none;stroke-opacity:1"
     d="m 187.72198,131.00274 0.49246,0.91597 v -1.83194 l 0.49237,0.61065 v 1.83193 l 0.49238,0.30532 v -1.83193 l 0.49237,-0.61065 v 1.52662 l 0.49237,-0.30532 v -1.83194 l 0.49238,0.30532 v 1.52662 h 0.49246 v -1.52662 l 0.49237,-0.30532 v 1.83194 h 0.49237 v -2.44258 l 0.49238,0.91596 v 2.44258 l 0.49237,-0.30532 v -1.52661 h 0.49237 v 1.83193 l 0.49246,-0.91596 v -1.83194 l 0.49238,0.30532 v 1.83194 h 0.49237 v -1.52662 l 0.49237,0.30533 v 1.22129 l 0.49237,0.91596 v -2.13725 l 0.49238,-0.30533 v 2.13726 h 0.49246 v -1.83193 h 0.49238 v 1.83193 l 0.49237,-0.91596 v -1.83194 h 0.49237 v 1.52662 l 0.49237,0.30532 v -1.83194 h 0.49238 v 1.52662 l 0.49246,-0.61065 v -2.13725 l 0.49237,0.91596 v 1.52661 l 0.49237,0.30533 v -1.52662"
     id="path5619" />
  <path
     style="fill:none;stroke:#000000;stroke-width:1;stroke-linecap:round;stroke-linejoin:round;stroke-miterlimit:4;stroke-dasharray:none;stroke-opacity:1"
     d="m 201.01649,129.78145 v 0.61064 2.13726 l 0.49238,-0.30532 v -2.13726 l 0.49237,-0.61064 v 1.83194 l 0.49237,0.61064 v -1.83194 l 0.49246,0.30532 v 1.52662 l 0.49238,-0.61064 v -1.83194 l 0.49237,0.30532 v 1.52662 l 0.49237,-0.30533 v -1.52661 l 0.49238,-0.30532 v 1.83193 l 0.49237,0.30533 v -1.52662 l 0.49237,0.30532 v 2.13726 h 0.49246 v -1.22129 l 0.49238,-0.30532 v 0.91597 l 0.49237,-0.30532 v -1.2213 l 0.49237,0.30532 v 1.83194 h 0.49238 v -1.22129 l 0.49237,-0.61065 v 1.52662 h 0.49246 v -1.22129 h 0.49237 v 0.91597 h 0.49238 v -1.2213 h 0.49237 v 1.83194 h 0.49237 v -1.22129 l 0.49238,-0.91597 v 2.44258 l 0.49246,-0.91596 v -1.83194 l 0.49237,0.30532 v 1.2213 l 0.49237,0.61064 v -1.52662 l 0.49238,0.91598 v -1.52662"
     id="path5621" />
  <path
     style="fill:none;stroke:#000000;stroke-width:1;stroke-linecap:round;stroke-linejoin:round;stroke-miterlimit:4;stroke-dasharray:none;stroke-opacity:1"
     d="m 213.81855,129.78145 h 0.49237 v 1.52662 h 0.49237 v -1.52662 h 0.49246 v 2.13726 l 0.49238,-0.30532 v -1.52662 l 0.49237,-0.30532 v 1.83194 h 0.49237 v -1.83194 l 0.49238,0.61064 v 1.52662 l 0.49237,-0.30532 v -1.83194 h 0.49237 v 1.52662 l 0.49246,0.30532 v -2.13726 l 0.49238,0.91596 v 1.52662 l 0.49237,-0.30532 v -2.44258 h 0.49237 v 1.83193 l 0.49238,0.61065 v -1.83194 l 0.49237,0.61064 v 1.83194 h 0.49246 v -1.83194 l 0.49237,-0.61064 v 1.83194 l 0.49238,0.30532 v -1.52662 h 0.49237 v 1.52662 h 0.49237 v -1.22129 l 0.49238,-0.30533 v 1.2213 l 0.49246,0.30532 v -1.52662 l 0.49237,0.30533 v 1.52661 l 0.49237,-0.61064 v -1.52662 h 0.49238 v 1.2213 l 0.49237,0.61064 v -1.52662 l 0.49237,2.13726 v -1.52661"
     id="path5623" />
  <path
     style="fill:none;stroke:#000000;stroke-width:1;stroke-linecap:round;stroke-linejoin:round;stroke-miterlimit:4;stroke-dasharray:none;stroke-opacity:1"
     d="m 227.11297,131.00274 0.49246,-0.30532 v 1.52661 l 0.49238,0.61064 v -2.13725 h 0.49237 v 2.13725 l 0.49237,-0.61064 v -1.52661 h 0.49238 v 1.22129 h 0.49237 v -2.13726 l 0.49246,-0.91596 v 2.7479 l 0.49237,0.30532 v -1.52662 h 0.49238 v 1.83194 h 0.49237 v -1.83194 h 0.49237 v 1.52662 h 0.49238 v -1.83194 l 0.49237,0.91597 v 1.22129 l 0.49246,0.30532 v -1.83193 l 0.49237,-0.30533 v 1.2213 l 0.49238,-0.61065 v 1.52661 l 0.49237,-0.61064 v -1.52662 h 0.49237 v 1.52662 l 0.49238,-0.30532 v -1.52662 h 0.49246 v 2.13726 l 0.49237,-0.30532 v -1.52662 l 0.49237,-0.30532 v 1.52662 h 0.49238 v -1.83194 l 0.49237,-0.91596 v 2.13725 l 0.49237,0.30533 v -2.13726 h 0.49246 v 1.83193 h 0.49238 v -1.52661"
     id="path5625" />
  <path
     style="fill:none;stroke:#000000;stroke-width:1;stroke-linecap:round;stroke-linejoin:round;stroke-miterlimit:4;stroke-dasharray:none;stroke-opacity:1"
     d="m 240.40749,129.47613 h 0.49237 v 1.83194 l 0.49237,-0.30533 v -1.52661 l 0.49238,0.91596 v 1.52662 l 0.49237,0.61064 v -1.52661 l 0.49246,-0.61065 v 1.83194 l 0.49237,-0.91596 v -1.83194 l 0.49238,0.61064 v 1.83194 l 0.49237,-0.30532 v -1.52662 l 0.49237,-0.30532 v 1.83194 l 0.49238,0.61064 v -1.83194 l 0.49237,0.61065 v 1.22129 l 0.49246,0.30532 v -1.52661 l 0.49237,0.91597 v -1.83194 l 0.49238,0.61065 v 1.22129 l 0.49237,-0.30532 v -1.83194 l 0.49237,-0.30532 v 1.83194 l 0.49238,0.61064 v -2.13726 l 0.49237,0.61064 v 1.52662 h 0.49246 v -2.44258 l 0.49237,0.30532 v 1.52662 l 0.49238,-0.30533 v -2.74789 l 0.49237,-0.61064 v 2.13724 l 0.49237,-1.22128 v -1.83193 l 0.49238,-0.30532 v 2.13725 l 0.49246,0.30532 v -2.74789 l 0.49237,0.61064 v 1.83193 l 0.49237,0.30532 v -2.44257"
     id="path5627" />
  <path
     style="fill:none;stroke:#000000;stroke-width:1;stroke-linecap:round;stroke-linejoin:round;stroke-miterlimit:4;stroke-dasharray:none;stroke-opacity:1"
     d="m 253.70191,126.42292 v 0.91596 -2.44257 l 0.49238,-0.91597 v 2.7479 l 0.49237,-1.52661 v -1.52661 l 0.49237,1.22129 v -3.35854 l 0.49238,-1.22129 v 2.7479 l 0.49246,-0.61065 v -3.66386 l 0.49237,1.83193 v -4.2745 l 0.49237,-1.22129 v 3.66386 l 0.49238,-1.22128 v -3.35854 l 0.49237,1.52661 v -3.66386 l 0.49237,-1.22129 v 3.96918 l 0.49246,-0.61064 v -3.66386 l 0.49238,-1.52661 v 4.88515 l 0.49237,-1.52661 v -3.66386 l 0.49237,1.83193 v -3.96918 l 0.49238,1.83193 v -3.66386 l 0.49237,-2.44258 v 5.19047 l 0.49246,-1.83193 v -6.411748 l 0.49237,2.137248 v -6.717075 l 0.49238,-2.137252 v 5.19047 l 0.49237,-1.831931 v -7.022401 l 0.49237,-0.610644 v 3.663862 l 0.49238,-0.610644 v -4.885142 l 0.49246,-1.526609 v 4.274506 l 0.49237,-1.221294 v -4.579821 l 0.49237,-2.442574 v 5.495792 l 0.49238,-4.274505 v -3.969183"
     id="path5629" />
  <path
     style="fill:none;stroke:#000000;stroke-width:1;stroke-linecap:round;stroke-linejoin:round;stroke-miterlimit:4;stroke-dasharray:none;stroke-opacity:1"
     d="m 266.50397,78.182095 0.49237,-1.221287 V 82.4566 l 0.49237,-3.053218 V 73.90759 l 0.49238,-0.610644 v 5.495793 l 0.49246,-3.358533 v -3.35854 l 0.49237,2.137246 v -6.411751 l 0.49237,1.83193 v -4.579827 l 0.49246,-1.526609 v 4.885149 l 0.49238,-2.747896 v -3.969183 l 0.49237,-0.610644 v 3.663862 l 0.49237,-0.305322 v -6.106429 l 0.49238,0.610643 v 4.274499 l 0.49237,-0.915966 v -3.663855 l 0.49246,1.831924 v -4.885141 l 0.49237,-2.137255 v 5.190472 l 0.49238,-3.053217 v -5.190473 l 0.49237,-0.305322 v 3.969183 l 0.49237,-0.305321 v -4.274506 l 0.49238,-2.747896 v 6.106436 l 0.49246,-3.35854 v -4.274498 l 0.49237,-0.610643 v 3.663861 l 0.49237,0.305322 v -5.190471 l 0.49238,-1.526609 v 5.190464 l 0.49237,-1.526609 v -3.969177 h 0.49237 v 5.801108 l 0.49246,-3.358533 v -4.579827 l 0.49238,0.915965 v 3.35854 l 0.49237,0.305322 v -4.579827"
     id="path5631" />
  <path
     style="fill:none;stroke:#000000;stroke-width:1;stroke-linecap:round;stroke-linejoin:round;stroke-miterlimit:4;stroke-dasharray:none;stroke-opacity:1"
     d="m 279.79848,39.406245 0.49237,0.610643 v 5.495786 l 0.49237,-1.526602 v -3.35854 l 0.49238,2.137253 v -5.190471 l 0.49237,0.305322 v 4.579827 l 0.49246,0.305322 v -5.495793 l 0.49237,2.747896 v -5.801107 l 0.49238,-1.221294 v 3.35854 l 0.49237,0.305322 v -4.579827 l 0.49237,1.831937 v 4.885142 l 0.49238,-1.221287 v -5.190471 l 0.49246,1.831938 v -3.969183 h 0.49237 v 5.190463 l 0.49237,0.305322 V 31.7732 l 0.49238,-0.610637 v 3.663855 l 0.49237,-2.747896 v -3.969176 l 0.49237,0.305322 V 31.7732 l 0.49246,1.221287 V 28.71999 l 0.49238,-2.137253 v 5.495785 l 0.49237,1.526609 v -5.801106 l 0.49237,1.83193 v 5.190463 l 0.49238,-3.053218 v -3.663854 l 0.49237,-1.221287 v 3.66386 l 0.49237,2.137246 v -6.717071 l 0.49246,3.053218 v 3.969175 l 0.49238,-0.610644 v -3.969175 l 0.49237,-1.831931 v 4.274504 h 0.49237 v -3.969182"
     id="path5633" />
  <path
     style="fill:none;stroke:#000000;stroke-width:1;stroke-linecap:round;stroke-linejoin:round;stroke-miterlimit:4;stroke-dasharray:none;stroke-opacity:1"
     d="m 293.0929,26.888059 v -0.610643 4.885147 l 0.49238,-0.610644 v -3.66386 h 0.49237 v 3.969182 l 0.49246,-0.305322 v -4.579825 l 0.49237,2.442574 v -5.19047 h 0.49238 v 4.579827 l 0.49237,1.221287 v -4.885149 l 0.49237,1.831931 v 5.495784 l 0.49238,-0.610637 v -3.358538 l 0.49246,-0.915966 v 3.969182 l 0.49237,-0.610642 v -4.885149 h 0.49237 v 4.885149 l 0.49238,-0.305322 v -5.19047 l 0.49237,-0.610644 v 3.053218 l 0.49237,-0.610643 v -3.053218 l 0.49238,-0.305322 v 4.274505 l 0.49246,-1.221287 v -4.579827 l 0.49237,0.610644 v 3.969183 l 0.49237,1.526609 v -5.495792 l 0.49238,1.526609 v 5.19047 l 0.49237,-1.221287 v -5.801114 h 0.49237 v 3.663861 l 0.49246,0.915966 v -3.969184 l 0.49238,1.831931 v 4.885149 h 0.49237 V 25.36145 l 0.49237,0.610644 v 3.053218 h 0.49238 v -3.35854"
     id="path5635" />
  <path
     style="fill:none;stroke:#000000;stroke-width:1;stroke-linecap:round;stroke-linejoin:round;stroke-miterlimit:4;stroke-dasharray:none;stroke-opacity:1"
     d="m 305.89496,25.666772 0.49237,1.831931 V 23.52952 h 0.49246 v 5.495792 l 0.49237,-2.442575 v -3.969183 l 0.49238,-0.305322 v 4.885149 l 0.49237,-0.610644 v -4.274505 l 0.49237,0.610644 v 3.663861 l 0.49238,-0.305321 v -3.35854 h 0.49246 v 3.053218 l 0.49237,1.526609 v -4.579827 l 0.49237,-0.305322 v 3.969183 l 0.49238,-0.915965 v -4.274505 l 0.49237,1.221287 v 4.274505 l 0.49237,-0.915965 v -4.885149 h 0.49238 v 3.35854 l 0.49246,0.305322 v -4.274498 l 0.49237,-0.305322 v 7.022394 l 0.49237,-1.526609 v -3.969183 h 0.49238 v 4.274505 l 0.49237,1.221287 V 23.52952 l 0.49237,-1.526609 v 4.579826 l 0.49246,-1.83193 v -3.35854 l 0.49238,0.305322 v 4.274505 l 0.49237,-1.526609 v -4.274498 l 0.49237,0.915958 v 3.35854 l 0.49238,-1.831931 v 4.274505 l 0.49237,-0.305322 v -3.969183 l 0.49246,2.137253 v -3.35854"
     id="path5637" />
  <path
     style="fill:none;stroke:#000000;stroke-width:1;stroke-linecap:round;stroke-linejoin:round;stroke-miterlimit:4;stroke-dasharray:none;stroke-opacity:1"
     d="m 319.18947,21.392267 0.49237,0.915965 v 3.663862 l 0.49238,-1.526609 v -4.274498 l 0.49237,1.831924 v 3.663861 l 0.49237,0.610644 v -3.969184 l 0.49238,-0.610643 v 4.579827 l 0.49237,-0.610644 v -3.969183 l 0.49246,-0.305322 v 4.274505 l 0.49237,1.526609 v -6.106436 l 0.49238,0.610644 v 7.327723 l 0.49237,-4.579827 v -3.969176 l 0.49237,-0.610651 v 4.579827 l 0.49238,0.610643 v -3.358539 l 0.49246,-2.442574 v 6.411757 l 0.49237,0.915965 v -5.801114 l 0.49237,0.915966 v 4.579827 h 0.49238 v -4.274505 l 0.49237,-0.610644 v 4.274505 l 0.49237,-0.305322 v -3.663861 l 0.49246,0.915965 v 3.053218 l 0.49238,0.915965 v -4.579826 l 0.49237,0.305321 v 4.274505 l 0.49237,-1.83193 v -4.57982 l 0.49238,2.137245 v 6.411758 l 0.49237,-0.610644 v -3.663861 l 0.49237,2.442574 v -4.885148 l 0.49246,-1.526602 v 3.969176 l 0.49238,-0.305322 v -3.35854"
     id="path5639" />
  <path
     style="fill:none;stroke:#000000;stroke-width:1;stroke-linecap:round;stroke-linejoin:round;stroke-miterlimit:4;stroke-dasharray:none;stroke-opacity:1"
     d="m 332.4839,20.781623 0.49237,0.305322 v 4.274505 l 0.49237,-1.221287 v -5.19047 l 0.49238,2.442574 v 4.579827 l 0.49237,-1.526609 v -3.969176 l 0.49246,0.915958 v 3.663861 l 0.49237,-2.137252 v -3.35854 l 0.49237,0.610651 v 5.495785 h 0.49238 v -4.579827 l 0.49237,-0.305322 v 4.579827 l 0.49237,-1.526609 v -4.579826 l 0.49246,1.221294 v 4.885141 l 0.49238,-1.83193 v -4.274505 l 0.49237,0.915972 v 5.495785 l 0.49237,1.221287 v -4.885148 l 0.49238,0.610643 v 4.274505 h 0.49237 v -5.495792 l 0.49237,-0.305322 v 3.35854 h 0.49246 v -4.885149 l 0.49238,0.610651 v 3.358533 l 0.49237,-2.137253 v 4.885149 l 0.49237,-0.915966 v -3.663861 l 0.49238,-1.22128 v 4.274498 l 0.49237,1.221287 v -4.579827 l 0.49246,0.305322 v 3.663861 l 0.49237,0.610644 v -4.885149 l 0.49238,-0.305322 v 4.885149 l 0.49237,1.221287 v -4.274505"
     id="path5641" />
  <path
     style="fill:none;stroke:#000000;stroke-width:1;stroke-linecap:round;stroke-linejoin:round;stroke-miterlimit:4;stroke-dasharray:none;stroke-opacity:1"
     d="m 345.77832,22.613554 v 1.221287 3.969184 l 0.49237,-0.305322 v -5.190471 l 0.49238,-0.915965 v 3.35854 h 0.49246 v -3.663862 l 0.49237,-0.610636 v 3.969176 l 0.49237,-0.610644 v -4.274505 l 0.49238,0.305322 v 4.579827 l 0.49237,1.831931 v -5.801107 l 0.49237,3.358532 v 4.274505 l 0.49246,-1.526609 v -3.663861 l 0.49238,-1.526609 v 3.663861 h 0.49237 v -4.579819 l 0.49237,1.831923 v 3.969184 l 0.49238,-0.610644 v -4.274505 l 0.49237,1.221287 v 3.663862 l 0.49237,0.915965 v -4.885149 l 0.49246,-0.915965 v 3.969183 l 0.49238,0.915966 v -3.969184 l 0.49237,-0.305321 v 3.969183 l 0.49237,-0.305322 v -3.663861 l 0.49238,-1.831924 v 6.41175 l 0.49237,-1.83193 v -3.053218 l 0.49246,-0.610644 v 4.274505 l 0.49237,-0.610643 v -3.969184 l 0.49238,0.610644 v 3.35854 l 0.49237,1.83193 v -4.274505 l 0.49237,4.579827 v -3.663861"
     id="path5643" />
  <path
     style="fill:none;stroke:#000000;stroke-width:1;stroke-linecap:round;stroke-linejoin:round;stroke-miterlimit:4;stroke-dasharray:none;stroke-opacity:1"
     d="m 358.58037,23.224198 0.49238,-0.305322 v 3.663861 l 0.49246,-0.915965 v -4.274505 l 0.49237,0.305322 v 3.358539 h 0.49237 v -3.358539 l 0.49238,0.305322 v 3.663861 h 0.49237 v -4.274505 l 0.49237,-0.610644 v 3.663862 l 0.49238,-0.305322 v -3.969176 l 0.49246,1.22128 v 3.053218 l 0.49237,-0.610644 v -4.274505 l 0.49237,0.610651 v 6.106429 l 0.49238,-0.610644 v -3.663861 l 0.49237,-0.610644 v 3.663861 l 0.49237,-0.610643 v -3.969176 l 0.49246,-0.915973 v 3.053218 l 0.49238,-0.305322 v -3.053217 l 0.49237,-0.305322 v 4.885148 l 0.49237,-0.305321 v -3.663862 l 0.49238,0.915965 v 3.663862 l 0.49237,0.610643 v -5.19047 l 0.49246,-0.305322 v 3.663862 l 0.49237,0.610643 v -3.969183 l 0.49238,-0.610643 v 5.495792 l 0.49237,-0.305322 v -4.274498 l 0.49237,2.442567 v 3.663862 l 0.49238,-1.221288 v -5.495792 l 0.49237,4.885149 v -3.969176"
     id="path5645" />
  <path
     style="fill:none;stroke:#000000;stroke-width:1;stroke-linecap:round;stroke-linejoin:round;stroke-miterlimit:4;stroke-dasharray:none;stroke-opacity:1"
     d="m 371.8748,20.476309 0.49246,0.610636 v 4.274505 l 0.49237,-1.83193 v -4.579827 l 0.49238,-0.610644 v 4.579827 l 0.49237,0.610644 v -3.969184 l 0.49237,0.610651 v 3.969176 l 0.49238,-2.137252 v -4.274505 l 0.49246,0.305321 v 4.274505 l 0.49237,-1.526609 v 4.579827 l 0.49237,0.610644 v -5.495785 l 0.49238,0.305314 v 3.663862 l 0.49237,0.305322 v -4.57982 l 0.49237,1.22128 v 4.579827 l 0.49246,-0.305322 v -6.717079 l 0.49238,-0.915966 v 4.885149 l 0.49237,0.915965 v -4.885148 l 0.49237,0.915965 v 2.747896 l 0.49238,0.610644 v -5.190471 l 0.49237,0.305322 v 4.885149 l 0.49246,0.915965 v -3.969176 l 0.49237,-0.915972 v 4.579826 l 0.49238,0.915966 v -4.885149 l 0.49246,0.915965 v 3.663862 l 0.49237,-0.610644 v -4.579826 l 0.49237,0.305321 v 3.663862 h 0.49238 v -3.663862 l 0.49237,0.305322 v 5.19047 l 0.49237,1.221288 v -6.106429"
     id="path5647" />
  <path
     style="fill:none;stroke:#000000;stroke-width:1;stroke-linecap:round;stroke-linejoin:round;stroke-miterlimit:4;stroke-dasharray:none;stroke-opacity:1"
     d="m 385.16931,20.170987 v 0 5.801107 l 0.49238,-0.915966 v -3.358539 l 0.49246,-0.915966 v 3.663862 l 0.49237,-1.526609 v -4.274505 h 0.49237 v 3.969183 l 0.49238,-0.305322 v -3.358539 l 0.49237,0.610643 v 6.106436 l 0.49237,-0.610644 v -3.663861 l 0.49246,-0.305322 v 4.579827 l 0.49238,0.305322 v -4.885149 l 0.49237,-0.305322 v 4.274505 l 0.49237,-0.305321 v -3.35854 h 0.49238 v 3.969183 l 0.49237,-0.305322 v -4.885141 l 0.49246,0.305322 v 3.969176 l 0.49237,0.915965 v -3.969183 h 0.49238 v 5.19047 l 0.49237,-2.137252 v -2.747896 l 0.49237,-0.610644 v 3.969183 l 0.49237,0.915966 v -4.885149 l 0.49238,-0.915958 v 4.274498 h 0.49246 v -3.969176 l 0.49237,-0.305322 v 4.274498 l 0.49237,1.526609 v -5.190471 l 0.49238,0.305322 v 3.969183 l 0.49237,-0.915965 v -3.663854 l 0.49237,3.358532 v -3.358532"
     id="path5649" />
  <path
     style="fill:none;stroke:#000000;stroke-width:1;stroke-linecap:round;stroke-linejoin:round;stroke-miterlimit:4;stroke-dasharray:none;stroke-opacity:1"
     d="m 397.97136,20.476309 0.49246,-1.831938 v 4.274505 l 0.49238,0.610644 v -3.663862 l 0.49237,0.610651 v 5.801107 l 0.49237,-1.831931 v -2.747896 l 0.49238,2.137252 v -4.274505 l 0.49237,0.915973 v 3.663854 l 0.49246,0.610644 v -4.57982 h 0.49237 v 3.663854 l 0.49238,0.305322 v -4.885148 l 0.49237,0.610643 v 4.579827 l 0.49237,1.831931 v -4.885149 l 0.49238,-1.22128 v 5.495785 l 0.49246,-1.221287 v -4.274498 l 0.49237,1.22128 v 5.495792 l 0.49237,-2.442574 v -3.663862 l 0.49238,0.915966 v 3.358539 l 0.49237,0.305322 v -4.885141 l 0.49237,1.526602 v 3.969183 h 0.49238 v -3.969183 l 0.49246,-1.526602 v 3.969176 l 0.49237,2.747896 v -5.801114 l 0.49237,-0.610644 v 5.801114 l 0.49238,-2.442574 v -3.663854 l 0.49237,-0.305322 v 3.663854 l 0.49237,1.526609 v -3.969183 l 0.49246,-0.915958 v 4.885141 l 0.49238,-0.915965 v -3.053218"
     id="path5651" />
  <path
     style="fill:none;stroke:#000000;stroke-width:1;stroke-linecap:round;stroke-linejoin:round;stroke-miterlimit:4;stroke-dasharray:none;stroke-opacity:1"
     d="m 411.26588,21.392267 0.49237,0.610644 v 6.717079 l 0.49237,-2.137253 v 9.77029 l 0.49238,-0.915966 v 15.876727 l 0.49237,-0.610643 v 18.013981 l 0.49246,-0.305322 v 16.792692 l 0.49237,-0.610643 v 13.739474 h 0.49238 v 12.518183 l 0.49237,-1.22128 v 7.93836 l 0.49237,-0.91597 v 5.19047 l 0.49238,-0.61064 v 4.57982 l 0.49237,-1.5266 v 3.66386 l 0.49237,1.22128 v -2.44257 l 0.49246,1.22129 v 2.13724 l 0.49238,-0.61064 v 1.83194 l 0.49237,0.61064 v -1.83194 l 0.49237,0.91597 v 0.91597 l 0.49238,0.91596 v -1.83193 l 0.49237,0.61065 v 1.5266 l 0.49237,0.30532 v -0.91596 h 0.49246 v 1.52661 h 0.49238 v -1.22129 l 0.49237,0.61064 v 0.91597 h 0.49237 v -0.61064 l 0.49238,-0.30533 v 1.22129 h 0.49237 v -0.91596 l 0.49246,-0.30533 v 1.22129 h 0.49237 v -0.91596"
     id="path5653" />
  <path
     style="fill:none;stroke:#000000;stroke-width:1;stroke-linecap:round;stroke-linejoin:round;stroke-miterlimit:4;stroke-dasharray:none;stroke-opacity:1"
     d="m 424.5603,133.75064 0.49238,-0.30533 v 1.22129 h 0.49237 v -0.91596 l 0.49237,0.30532 v 0.61064 l 0.49238,0.30533 v -0.91597 l 0.49246,0.30532 v 0.61065 l 0.49237,-0.30533 v -0.61064 l 0.49237,-0.30532 v 0.91596 l 0.49238,0.30533 v -0.61065 h 0.49237 v 0.61065 h 0.49237 v -0.61065 l 0.49246,0.30532 v -0.91596 l 0.49238,0.30532 v 0.61064 l 0.49237,0.30533 v -0.61065 h 0.49237 v 0.61065 l 0.49238,-0.30533 v -0.61064 l 0.49237,0.30532 v 0.61065 h 0.49237 v -0.61065 h 0.49246 v 0.61065 h 0.49238 v -0.61065 h 0.49237 v 0.61065 h 0.49237 v -0.30533 l 0.49238,0.30533 v -0.61065 l 0.49237,0.30532 v 0.30533 h 0.49246 v -0.61065 h 0.49237 v 0.61065 h 0.49238 v -0.61065 l 0.49237,0.61065 v -0.30533"
     id="path5655" />
  <path
     style="fill:none;stroke:#000000;stroke-width:1;stroke-linecap:round;stroke-linejoin:round;stroke-miterlimit:4;stroke-dasharray:none;stroke-opacity:1"
     d="m 437.85473,134.6666 v 0 0.30533 h 0.49237 v -0.61065 h 0.49238 v 0.61065 h 0.49246 v -0.61065 h 0.49237 v 0.61065 h 0.49237 v -0.61065 h 0.49238 v 0.61065 h 0.49237 v -0.30533 l 0.49237,0.30533 v -0.91597 l 0.49238,0.30532 v 0.61065 h 0.49246 v -0.61065 l 0.49237,0.30532 v -0.61064 l 0.49237,0.30532 v 0.30532 h 0.49238 v -0.30532 l 0.49237,0.30532 v -0.61064 h 0.49237 v 0.61064 l 0.49246,0.30533 v -0.91597 l 0.49238,0.30532 v 0.61065 h 0.49237 v -0.61065 h 0.49237 v 0.61065 h 0.49237 v -0.61065 h 0.49238 v 0.61065 h 0.49246 v -0.61065 h 0.49237 v 0.61065 h 0.49237 v -0.61065 h 0.49238 v 0.61065 h 0.49237 v -0.61065"
     id="path5657" />
  <path
     style="fill:none;stroke:#000000;stroke-width:1;stroke-linecap:round;stroke-linejoin:round;stroke-miterlimit:4;stroke-dasharray:none;stroke-opacity:1"
     d="m 450.65678,134.36128 0.49237,0.30532 v 0.30533 h 0.49238 v -0.61065 h 0.49246 v 0.61065 h 0.49237 v -0.61065 l 0.49237,-0.30532 v 0.91597 h 0.49238 v -0.61065 h 0.49237 v 0.61065 h 0.49237 v -0.61065 h 0.49246 v 0.61065 h 0.49238 v -0.61065 l 0.49237,0.30532 v 0.30533 h 0.49237 v -0.30533 h 0.49238 v 0.30533 h 0.49237 v -0.61065 h 0.49246 v 0.61065 l 0.49237,-0.30533 v -0.30532 h 0.49238 v 0.61065 h 0.49237 v -0.61065 h 0.49237 v 0.61065 h 0.49238 v -0.61065 h 0.49237 v 0.61065 h 0.49246 v -0.61065 h 0.49237 v 0.30532 h 0.49238 v -0.30532 h 0.49237 v 0.30532 l 0.49237,0.30533 v -0.61065 l 0.49238,0.61065 v -0.61065"
     id="path5659" />
  <path
     style="fill:none;stroke:#000000;stroke-width:1;stroke-linecap:round;stroke-linejoin:round;stroke-miterlimit:4;stroke-dasharray:none;stroke-opacity:1"
     d="m 463.95121,134.36128 h 0.49246 v 0.61065 h 0.49237 v -0.61065 h 0.49237 v 0.61065 h 0.49238 v -0.61065 h 0.49237 v 0.30532 l 0.49237,0.30533 v -0.61065 h 0.49246 v 0.30532 h 0.49238 v -0.61064 l 0.49237,0.30532 v 0.30532 l 0.49237,0.30533 v -0.61065 h 0.49238 v 0.61065 h 0.49237 v -0.61065 h 0.49246 v 0.61065 h 0.49237 v -0.61065 h 0.49238 v 0.61065 h 0.49237 v -0.61065 l 0.49237,0.30532 v -0.61064 h 0.49238 v 0.61064 l 0.49237,0.30533 v -0.61065 h 0.49246 v 0.61065 h 0.49237 v -0.61065 l 0.49238,-0.30532 v 0.91597 l 0.49237,-0.30533 v -0.91596 l 0.49237,0.30532 v 0.91597 h 0.49238 v -0.61065 h 0.49246 v 0.61065 h 0.49237 v -0.61065"
     id="path5661" />
  <path
     style="fill:none;stroke:#000000;stroke-width:1;stroke-linecap:round;stroke-linejoin:round;stroke-miterlimit:4;stroke-dasharray:none;stroke-opacity:1"
     d="m 477.24572,134.36128 v 0.30532 0.30533 h 0.49237 v -0.61065 l 0.49238,0.30532 v 0.30533 h 0.49237 v -0.61065 h 0.49237 v 0.61065 h 0.49246 v -0.61065 h 0.49238 v 0.61065 h 0.49237 v -0.61065 h 0.49237 v 0.61065 l 0.49238,-0.30533 v -0.30532 h 0.49237 v 0.30532 l 0.49237,0.30533 v -0.61065 l 0.49246,-0.30532 v 0.91597 h 0.49238 v -0.61065 l 0.49237,0.30532 v -0.61064 l 0.49237,0.30532 v 0.30532 h 0.49238 v 0.30533 h 0.49237 v -0.61065 h 0.49246 v 0.61065 h 0.49237 v -0.61065 l 0.49238,-0.30532 v 0.91597 h 0.49237 v -0.30533 l 0.49237,0.30533 v -0.61065 h 0.49238 v 0.61065 h 0.49246 v -0.61065 h 0.49237 v 0.61065 h 0.49237 v -0.61065"
     id="path5663" />
  <path
     style="fill:none;stroke:#000000;stroke-width:1;stroke-linecap:round;stroke-linejoin:round;stroke-miterlimit:4;stroke-dasharray:none;stroke-opacity:1"
     d="m 490.04777,134.36128 h 0.49238 v 0.61065 h 0.49237 v -0.61065 l 0.49237,0.30532 v -0.61064 h 0.49238 v 0.91597 h 0.49246 v -0.61065 h 0.49237 v 0.61065 h 0.49237 v -0.61065 h 0.49238 v 0.61065 h 0.49237 v -0.61065 h 0.49237 v 0.30532 h 0.49246 v -0.61064 l 0.49238,0.30532 v 0.30532 l 0.49237,0.30533 v -0.91597 l 0.49237,0.30532 v 0.30532 h 0.49238 v -0.30532 h 0.49237 v 0.30532 l 0.49246,0.30533 v -0.61065 h 0.49237 v 0.30532 h 0.49238 v -0.61064 h 0.49246 v 0.61064 h 0.49237 v -0.30532 h 0.49237 v 0.61065 h 0.49238 v -0.30533 l 0.49237,0.30533 v -0.61065 h 0.49237 v 0.61065 h 0.49246 v -0.30533 h 0.49238 v -0.30532"
     id="path5665" />
  <path
     style="fill:none;stroke:#000000;stroke-width:1;stroke-linecap:round;stroke-linejoin:round;stroke-miterlimit:4;stroke-dasharray:none;stroke-opacity:1"
     d="m 503.34229,134.36128 0.49237,0.30532 v -0.61064 h 0.49237 v 0.61064 h 0.49238 v -0.30532 h 0.49237 v 0.30532 h 0.49237 v -0.30532 h 0.49246 v 0.30532 h 0.49237 v -0.30532 h 0.49238 v 0.61065 h 0.49237 v -0.30533 h 0.49237 v -0.30532 l 0.49238,0.30532 v 0.30533 h 0.49246 v -0.61065 h 0.49237 v 0.61065 h 0.49237 v -0.91597 h 0.49238 v 0.61064 l 0.49237,0.30533 v -0.61065 l 0.49237,0.61065 v -1.22129 h 0.49246 v 0.91596 h 0.49238 v -0.61064 h 0.49237 v 0.61064 h 0.49237 v -0.30532 l 0.49238,0.30532 v -0.61064 h 0.49237 v 0.61064 h 0.49246 v -0.61064 l 0.49237,0.30532 v 0.30532 l 0.49238,0.30533 v -0.91597 l 0.49237,0.61064 v -0.61064"
     id="path5667" />
  <path
     style="fill:none;stroke:#000000;stroke-width:1;stroke-linecap:round;stroke-linejoin:round;stroke-miterlimit:4;stroke-dasharray:none;stroke-opacity:1"
     d="m 516.63671,134.05596 h 0.49237 v 0.61064 h 0.49238 v -0.91596 h 0.49237 v 0.91596 h 0.49246 v -0.91596 l 0.49237,0.30532 v 0.61064 h 0.49238 v -0.61064 h 0.49237 v 0.61064 h 0.49237 v -0.61064 l 0.49238,-0.30532 v 0.91596 l 0.49246,-0.61064 v -0.61065 l 0.49237,-0.30532 v 0.91597 h 0.49237 v -1.22129 l 0.49238,0.30532 v 0.61065 l 0.49237,0.61064 v -1.22129 l 0.49237,0.61065 v -1.52661 l 0.49246,-0.61064 v 1.5266 l 0.49238,-0.61064 v -1.52661 h 0.49237 v 1.22129 l 0.49237,0.30532 v -1.83193 l 0.49238,-0.30533 v 1.83194 h 0.49237 v -2.13726 l 0.49237,-0.61064 v 2.7479 l 0.49246,-1.52661 v -2.74789 l 0.49238,-0.61065 v 1.83193 l 0.49237,-0.61064 v -2.44257 l 0.49237,-0.91597 v 2.7479 l 0.49238,-0.61065 v -2.44257"
     id="path5669" />
  <path
     style="fill:none;stroke:#000000;stroke-width:1;stroke-linecap:round;stroke-linejoin:round;stroke-miterlimit:4;stroke-dasharray:none;stroke-opacity:1"
     d="m 529.93114,124.89631 v 0.61064 -3.05322 l 0.49237,-1.5266 v 3.35854 l 0.49246,-0.91597 v -3.66386 l 0.49237,1.52661 v -4.2745 l 0.49238,0.61064 v 3.05321 l 0.49237,-0.61064 v -3.66386 l 0.49237,-1.52661 v 3.96918 l 0.49238,-2.74789 v -3.05321 l 0.49246,-0.91597 v 3.05321 l 0.49237,-0.30532 v -3.66386 l 0.49237,-1.83193 v 4.27451 l 0.49238,-2.7479 v -4.88515 l 0.49237,-2.13724 v 4.57982 l 0.49237,-2.44258 v -4.57982 l 0.49238,-1.831926 v 4.274506 l 0.49246,-3.05323 v -4.885138 l 0.49237,-1.526609 v 5.801117 l 0.49237,-3.663864 v -3.663862 l 0.49238,2.137253 v -5.190464 l 0.49237,-0.915972 v 3.663862 l 0.49237,-1.831931 v -5.190464 l 0.49246,2.137246 v -4.274499 l 0.49238,-1.526609 v 5.495786 l 0.49237,-3.969177 v -4.579826 l 0.49237,-1.526609 v 4.579826 l 0.49238,-0.915965 v -6.717079 l 0.49237,3.663861 v -5.801107"
     id="path5671" />
  <path
     style="fill:none;stroke:#000000;stroke-width:1;stroke-linecap:round;stroke-linejoin:round;stroke-miterlimit:4;stroke-dasharray:none;stroke-opacity:1"
     d="m 542.73319,72.075666 0.49246,1.831924 v -5.801108 l 0.49237,1.221288 v 4.57982 l 0.49238,-3.053211 v -6.411758 l 0.49237,-0.915966 v 4.579827 l 0.49237,-0.915965 V 62.61069 l 0.49238,-0.915965 v 4.274505 l 0.49237,-2.137253 v -5.190464 l 0.49246,0.305322 v 5.495786 l 0.49237,-2.747896 v -4.579821 l 0.49238,-1.526608 v 4.57982 l 0.49237,0.610643 v -5.190463 l 0.49237,0.610643 v 4.57982 l 0.49238,-0.305322 v -5.801109 l 0.49246,2.137255 v -7.327726 l 0.49237,0.610644 v 3.663862 h 0.49237 v -4.579827 l 0.49238,-1.526602 v 4.274498 l 0.49237,-1.221287 v -5.190471 l 0.49237,1.526609 v 4.274505 l 0.49246,-0.610643 v -4.885149 l 0.49238,-1.22128 v 4.885141 l 0.49237,-1.526602 v -3.969183 l 0.49237,-1.526609 v 4.885142 h 0.49238 v -4.274499 l 0.49237,-0.915965 v 5.801114 l 0.49246,-1.831937 v -4.579821 l 0.49237,3.969177 v -3.969177"
     id="path5673" />
  <path
     style="fill:none;stroke:#000000;stroke-width:1;stroke-linecap:round;stroke-linejoin:round;stroke-miterlimit:4;stroke-dasharray:none;stroke-opacity:1"
     d="m 556.0277,41.543497 0.49238,-1.83193 v 5.19047 l 0.49237,-1.831931 v -4.885148 l 0.49237,-1.526609 v 5.19047 l 0.49238,-2.137252 v -4.274506 h 0.49237 v 4.274506 l 0.49246,2.137252 v -4.579827 l 0.49237,-0.305322 v 4.885149 l 0.49238,-2.137252 v -3.053218 l 0.49237,-0.305322 v 4.579827 l 0.49237,-0.305322 v -3.969183 l 0.49237,-1.526609 v 3.663861 l 0.49247,0.610644 v -4.885149 l 0.49237,-0.915965 v 4.579827 h 0.49237 v -3.969177 l 0.49237,-0.305322 v 3.663855 l 0.49238,1.221287 v -5.19047 l 0.49237,-0.610644 v 4.579827 l 0.49246,-0.610644 v -3.969183 l 0.49237,2.442574 v -5.190463 l 0.49238,-0.915964 v 4.579825 l 0.49237,-0.305328 v -4.274497 l 0.49237,-0.915966 v 5.190463 l 0.49238,0.915965 v -5.495784 l 0.49237,0.915965 v 4.885141 l 0.49246,-0.305322 v -5.190462 l 0.49237,0.305321 v 3.358532 l 0.49238,0.915972 v -3.663861"
     id="path5675" />
  <path
     style="fill:none;stroke:#000000;stroke-width:1;stroke-linecap:round;stroke-linejoin:round;stroke-miterlimit:4;stroke-dasharray:none;stroke-opacity:1"
     d="m 569.32213,30.246598 v -1.83193 5.495791 l 0.49237,-1.526616 v -4.579818 l 0.49237,-0.610644 v 3.969182 l 0.49238,-1.526608 v -3.969183 l 0.49246,1.221287 v 4.579819 l 0.49237,-1.22128 v -4.274504 l 0.49237,-1.221287 v 4.274505 l 0.49238,0.915965 v -4.274505 l 0.49237,1.526609 v 3.66386 l 0.49237,-0.305322 v -4.274503 l 0.49246,0.915965 v 3.969182 l 0.49238,1.22128 v -4.274497 l 0.49237,-0.610643 V 31.7732 l 0.49237,-0.915959 v -5.190469 l 0.49238,-0.610644 v 4.274506 l 0.49237,0.305321 v -3.969183 l 0.49237,-0.915965 v 3.969183 l 0.49246,1.221287 v -4.885149 l 0.49238,0.305322 v 3.663862 l 0.49237,0.610643 v -4.885148 l 0.49237,-0.915966 v 4.274505 l 0.49238,0.915966 v -3.969184 l 0.49237,-0.610643 v 4.579827 l 0.49246,-1.221287 v -3.663862 l 0.49237,-0.305322 v 3.35854 h 0.49238 v -3.969183 l 0.49237,4.274505 v -4.579827"
     id="path5677" />
  <path
     style="fill:none;stroke:#000000;stroke-width:1;stroke-linecap:round;stroke-linejoin:round;stroke-miterlimit:4;stroke-dasharray:none;stroke-opacity:1"
     d="m 582.12418,22.918876 0.49237,0.610644 v 3.969183 l 0.49238,1.221287 v -3.969183 l 0.49246,-1.221287 v 3.358539 h 0.49237 v -3.969183 l 0.49237,-1.526609 v 4.274505 l 0.49238,-2.137252 v 4.579826 l 0.49237,-0.610643 v -3.663862 l 0.49237,-0.305321 v 4.579826 l 0.49238,1.221288 v -5.190471 l 0.49246,-1.526609 v 3.969183 l 0.49237,-2.137252 v 4.579827 l 0.49237,-1.526609 V 23.52952 h 0.49238 v 3.663861 h 0.49237 v -3.969183 l 0.49237,1.221287 v 3.663861 l 0.49246,-0.610643 v -5.495792 l 0.49238,0.610643 v 3.663862 l 0.49237,0.610643 v -4.579827 h 0.49237 v 3.969184 h 0.49238 v -3.35854 l 0.49237,-0.610644 v 3.969184 l 0.49246,0.610643 v -4.579827 l 0.49237,0.610644 v 4.579827 l 0.49238,-1.526609 v -4.579827 l 0.49237,0.305322 v 4.885148 l 0.49237,0.610644 v -5.495792 l 0.49238,5.801114 v -3.35854"
     id="path5679" />
  <path
     style="fill:none;stroke:#000000;stroke-width:1;stroke-linecap:round;stroke-linejoin:round;stroke-miterlimit:4;stroke-dasharray:none;stroke-opacity:1"
     d="m 595.41861,24.140163 0.49246,-1.831931 v 5.190471 l 0.49237,-0.915966 v -4.579826 l 0.49237,0.610643 v 3.663862 l 0.49238,0.305321 v -4.274505 h 0.49237 v 4.274505 h 0.49237 v -3.969183 l 0.49238,0.610644 v 3.053218 l 0.49246,0.610643 v -4.579827 l 0.49237,-0.915965 v 4.885149 l 0.49237,0.915965 v -6.106436 l 0.49238,-0.915958 v 3.969176 l 0.49237,1.526609 v -4.579827 h 0.49237 v 3.35854 l 0.49246,1.221287 v -5.495785 l 0.49238,-0.305329 v 6.717079 l 0.49237,-1.83193 v -4.274498 l 0.49237,-0.305322 v 4.57982 l 0.49238,0.305321 v -4.579819 h 0.49237 v 3.663854 l 0.49246,1.526609 v -4.579827 l 0.49237,-0.305322 v 3.663862 h 0.49238 v -3.663862 l 0.49237,0.305322 v 3.969183 l 0.49237,-0.305321 v -5.190471 l 0.49238,0.305322 v 4.579827 l 0.49237,-0.610644 v -2.747896 l 0.49246,2.747896 v -3.969183"
     id="path5681" />
  <path
     style="fill:none;stroke:#000000;stroke-width:1;stroke-linecap:round;stroke-linejoin:round;stroke-miterlimit:4;stroke-dasharray:none;stroke-opacity:1"
     d="m 608.71312,19.865658 0.49237,-0.610643 v 4.579826 l 0.49246,1.831931 v -3.663861 l 0.49238,-0.305322 v 3.053218 l 0.49237,0.610643 v -3.663861 l 0.49237,-0.610644 v 3.053218 l 0.49238,1.221287 v -4.274505 h 0.49237 v 3.663862 l 0.49237,-0.915966 v -5.801114 l 0.49246,1.831931 v 3.35854 l 0.49238,0.305322 v -4.274505 l 0.49237,0.915972 v 3.358533 l 0.49237,-1.831931 v -3.053218 l 0.49238,0.610644 v 3.969183 l 0.49237,0.915965 v -4.579827 l 0.49246,1.526609 v 3.663862 l 0.49237,0.305321 v -3.969183 l 0.49238,-0.610636 v 4.579819 l 0.49237,-1.526608 v -3.663862 l 0.49237,0.610651 v 4.274498 l 0.49237,1.526609 v -5.190471 l 0.49247,-1.83193 v 4.885148 l 0.49237,-0.305322 v -3.969183 h 0.49237 v 3.35854 l 0.49237,1.221287 v -4.579827 l 0.49238,-0.610643 v 3.969183 l 0.49237,0.915965 v -4.274505 l 0.49237,3.969183 v -3.053218"
     id="path5683" />
  <path
     style="fill:none;stroke:#000000;stroke-width:1;stroke-linecap:round;stroke-linejoin:round;stroke-miterlimit:4;stroke-dasharray:none;stroke-opacity:1"
     d="m 622.00754,20.781623 v 1.221288 -3.053218 L 622.5,19.865658 v 4.274505 l 0.49238,-0.305322 v -3.663854 h 0.49237 v 4.57982 l 0.49237,-0.610644 v -3.969176 l 0.49238,-0.610651 v 3.969184 l 0.49237,-2.137253 v 4.579827 l 0.49246,1.526609 v -6.411758 l 0.49237,-1.221287 v 3.969183 l 0.49238,-1.221287 v -4.579827 l 0.49237,0.915966 v 6.106435 l 0.49237,-1.221287 v -4.274505 l 0.49238,-0.305321 v 4.274505 l 0.49246,0.305321 v -4.274505 l 0.49237,-0.915965 v 5.19047 l 0.49237,-1.221287 v -4.274505 l 0.49238,0.610644 v 3.663861 l 0.49237,0.915966 v -4.579827 h 0.49237 v 5.19047 l 0.49238,-0.305322 v -3.358532 l 0.49246,-0.305322 v 3.358533 l 0.49237,2.137252 v -5.495785 l 0.49237,0.915958 v 4.885149 l 0.49238,0.305322 v -4.579827 l 0.49237,-0.305322 v 4.274505 h 0.49237 v -3.969183 l 0.49246,2.442574 v -3.663854"
     id="path5685" />
  <path
     style="fill:none;stroke:#000000;stroke-width:1;stroke-linecap:round;stroke-linejoin:round;stroke-miterlimit:4;stroke-dasharray:none;stroke-opacity:1"
     d="m 634.80968,20.476309 0.49238,-1.221294 v 3.663861 l 0.49237,-0.610644 v -4.579826 l 0.49237,0.915965 v 4.274505 l 0.49238,1.221287 v -3.053218 l 0.49237,-0.610636 v 3.358532 l 0.49246,1.526609 v -6.411757 l 0.49237,0.305322 v 4.579826 l 0.49238,0.305322 v -4.274505 l 0.49237,-1.221287 v 3.969183 l 0.49237,0.610644 v -4.274505 l 0.49238,-0.305322 v 4.274505 l 0.49246,0.305322 v -4.579827 l 0.49237,0.305322 v 4.274505 h 0.49237 v -5.190471 l 0.49238,1.221288 v 4.274505 h 0.49237 v -4.274505 l 0.49237,-0.915966 v 3.35854 l 0.49238,1.526609 v -3.969183 l 0.49246,-0.610644 v 4.579827 l 0.49237,1.221287 v -5.19047 l 0.49237,-0.610644 v 4.274505 l 0.49238,-0.610644 v -4.274505 l 0.49237,-1.526602 v 5.801107 l 0.49237,-0.305321 v -3.969184 l 0.49246,0.305322 v 2.747896 l 0.49238,0.915966 v -3.663862 l 0.49237,4.579827 v -3.969183"
     id="path5687" />
  <path
     style="fill:none;stroke:#000000;stroke-width:1;stroke-linecap:round;stroke-linejoin:round;stroke-miterlimit:4;stroke-dasharray:none;stroke-opacity:1"
     d="m 648.10411,18.949693 0.49237,0.915965 v 4.274505 l 0.49238,-0.610643 v -4.274505 l 0.49237,-0.305322 v 4.579827 l 0.49246,0.610643 v -4.579827 h 0.49237 v 4.274505 l 0.49238,1.221287 v -6.106435 l 0.49237,1.221294 v 4.57982 l 0.49237,-1.221287 v -3.663862 h 0.49238 v 4.274505 l 0.49237,1.221287 v -4.885141 l 0.49246,-0.915973 v 3.663862 h 0.49237 v -3.663862 l 0.49238,-1.221287 v 4.885149 l 0.49237,0.305322 v -4.885149 h 0.49237 v 4.885149 l 0.49238,-0.610644 v -4.885149 l 0.49246,-0.915958 v 4.57982 l 0.49237,0.915965 v -4.579827 l 0.49237,0.915966 v 3.969183 l 0.49238,0.915965 v -3.663854 h 0.49237 v 3.358533 l 0.49237,0.915965 v -5.495792 l 0.49246,-0.305322 v 3.969183 l 0.49238,0.610644 v -5.190471 l 0.49237,0.305322 v 5.190471 h 0.49237 v -3.969184 l 0.49238,2.137253 v -3.053218"
     id="path5689" />
  <path
     style="fill:none;stroke:#000000;stroke-width:1;stroke-linecap:round;stroke-linejoin:round;stroke-miterlimit:4;stroke-dasharray:none;stroke-opacity:1"
     d="m 661.39854,18.644371 v -0.305322 3.35854 l 0.49237,-0.305322 v -3.35854 l 0.49237,-0.610643 v 3.969183 l 0.49246,-1.831931 v 3.969184 l 0.49238,-0.305322 v -4.274505 l 0.49237,0.915965 v 3.663862 l 0.49237,0.610643 v -3.969176 l 0.49238,-0.610651 v 3.35854 l 0.49237,0.610644 v -5.190471 l 0.49246,1.221287 v 3.663862 l 0.49237,-2.442575 v 5.190471 l 0.49238,-2.442574 v -4.885149 l 0.49237,3.663861 v -3.663861"
     id="path5691" />
  <rect
     style="fill:#fdd835;stroke:none;stroke-width:0.160975;stroke-linecap:square;stroke-miterlimit:10"
     id="rect5948"
     width="101.02271"
     height="9.9771299"
     x="102.86964"
     y="0.011424926" />
  <rect
     style="fill:#e53935;stroke:none;stroke-width:0.160859;stroke-linecap:square;stroke-linejoin:round;stroke-miterlimit:10"
     id="rect5948-2-9"
     width="100.64665"
     height="10"
     x="368.88861"
     y="0" />
  <path
     style="fill:none;stroke:#000000;stroke-width:1;stroke-linecap:butt;stroke-linejoin:miter;stroke-miterlimit:10;stroke-dasharray:1, 1;stroke-dashoffset:0;stroke-opacity:1"
     d="M 29.173355,136.19321 H 678.08081"
     id="path5986" />
  <path
     style="fill:none;stroke:#000000;stroke-width:1;stroke-linecap:butt;stroke-linejoin:miter;stroke-miterlimit:10;stroke-dasharray:none;stroke-opacity:1"
     d="M 25.909598,144.08093 H 105.90959"
     id="path5988" />
  <path
     style="fill:none;stroke:#000000;stroke-width:1;stroke-linecap:butt;stroke-linejoin:miter;stroke-miterlimit:10;stroke-dasharray:none;stroke-opacity:1"
     d="M 25.909598,88.512381 V 144.08093"
     id="path5990" />
  <text
     xml:space="preserve"
     style="font-stretch:condensed;font-size:10.6667px;line-height:1.25;font-family:'Noto Sans';-inkscape-font-specification:'Noto Sans, Condensed';letter-spacing:0px;word-spacing:0px;writing-mode:lr-tb"
     x="-0.40533462"
     y="120.15798"
     id="text5994"><tspan
       sodipodi:role="line"
       id="tspan5992"
       x="-0.40533462"
       y="120.15798">2 nA</tspan></text>
  <text
     xml:space="preserve"
     style="font-stretch:condensed;font-size:10.6667px;line-height:1.25;font-family:'Noto Sans';-inkscape-font-specification:'Noto Sans, Condensed';letter-spacing:0px;word-spacing:0px;writing-mode:lr-tb"
     x="45.568245"
     y="158.77982"
     id="text5998"><tspan
       sodipodi:role="line"
       id="tspan5996"
       x="45.568245"
       y="158.77982">5 seconds</tspan></text>
  <text
     xml:space="preserve"
     style="font-stretch:condensed;font-size:10.6667px;line-height:1.25;font-family:'Noto Sans';-inkscape-font-specification:'Noto Sans, Condensed';letter-spacing:0px;word-spacing:0px;writing-mode:lr-tb"
     x="601.25983"
     y="92.998993"
     id="text6255"><tspan
       sodipodi:role="line"
       id="tspan6253"
       x="601.25983"
       y="92.998993">10 mM ATP</tspan></text>
  <text
     xml:space="preserve"
     style="font-stretch:condensed;font-size:10.6667px;line-height:1.25;font-family:'Noto Sans';-inkscape-font-specification:'Noto Sans, Condensed';letter-spacing:0px;word-spacing:0px;writing-mode:lr-tb"
     x="601.25983"
     y="70.144035"
     id="text6255-7"><tspan
       sodipodi:role="line"
       id="tspan6253-0"
       x="601.25983"
       y="70.144035">100 M TNP-ATP</tspan></text>
  <rect
     style="fill:#e53935;stroke:none;stroke-width:0.0712721;stroke-linecap:square;stroke-linejoin:round;stroke-miterlimit:10"
     id="rect5948-1"
     width="19.758333"
     height="10"
     x="576.36481"
     y="84.190979" />
  <rect
     style="fill:#fdd835;stroke:none;stroke-width:0.0711394;stroke-linecap:square;stroke-linejoin:round;stroke-miterlimit:10"
     id="rect5948-2-9-8"
     width="19.684782"
     height="10"
     x="576.12311"
     y="62.562695" />
</svg>
