<?xml version="1.0" encoding="UTF-8" standalone="no"?>
<svg
   xmlns:dc="http://purl.org/dc/elements/1.1/"
   xmlns:cc="http://creativecommons.org/ns#"
   xmlns:rdf="http://www.w3.org/1999/02/22-rdf-syntax-ns#"
   xmlns:svg="http://www.w3.org/2000/svg"
   xmlns="http://www.w3.org/2000/svg"
   xmlns:sodipodi="http://sodipodi.sourceforge.net/DTD/sodipodi-0.dtd"
   xmlns:inkscape="http://www.inkscape.org/namespaces/inkscape"
   viewBox="0 0 312.21667 242.7225"
   version="1.1"
   id="svg5488"
   sodipodi:docname="atp_tnpatp_spectral_traces.svg"
   width="312.21667"
   height="242.7225"
   inkscape:version="1.0.1 (3bc2e813f5, 2020-09-07, custom)">
  <metadata
     id="metadata5492">
    <rdf:RDF>
      <cc:Work
         rdf:about="">
        <dc:format>image/svg+xml</dc:format>
        <dc:type
           rdf:resource="http://purl.org/dc/dcmitype/StillImage" />
        <dc:title />
      </cc:Work>
    </rdf:RDF>
  </metadata>
  <sodipodi:namedview
     pagecolor="#ffffff"
     bordercolor="#666666"
     borderopacity="1"
     objecttolerance="10"
     gridtolerance="10"
     guidetolerance="10"
     inkscape:pageopacity="0"
     inkscape:pageshadow="2"
     inkscape:window-width="1366"
     inkscape:window-height="768"
     id="namedview5490"
     showgrid="false"
     inkscape:zoom="1.1329365"
     inkscape:cx="164.84354"
     inkscape:cy="90.352816"
     inkscape:window-x="0"
     inkscape:window-y="0"
     inkscape:window-maximized="1"
     inkscape:current-layer="svg5488"
     inkscape:snap-global="true"
     showguides="false"
     inkscape:document-rotation="0" />
  <defs
     id="defs4662">
    <style
       type="text/css"
       id="style4660"><![CDATA[
    line, polyline, polygon, path, rect, circle {
      fill: none;
      stroke: #000000;
      stroke-linecap: round;
      stroke-linejoin: round;
      stroke-miterlimit: 10.00;
    }
  ]]></style>
    <pattern
       id="EMFhbasepattern"
       patternUnits="userSpaceOnUse"
       width="6"
       height="6"
       x="0"
       y="0" />
  </defs>
  <defs
     id="defs4671">
    <clipPath
       id="cpNS40OHw0OTguNTJ8MjUyLjAwfDUuNDg=">
      <rect
         x="5.48"
         y="5.48"
         width="493.04001"
         height="246.52"
         id="rect4668" />
    </clipPath>
  </defs>
  <defs
     id="defs4678">
    <clipPath
       id="cpMC4wMHw1MDQuMDB8NTA0LjAwfDAuMDA=">
      <rect
         x="0"
         y="0"
         width="504"
         height="504"
         id="rect4675" />
    </clipPath>
  </defs>
  <defs
     id="defs4683" />
  <rect
     style="fill:#bbdefb;stroke:none;stroke-width:0.651742;stroke-linecap:square;stroke-miterlimit:10"
     id="rect1495"
     width="5.5"
     height="211.10045"
     x="98.496056"
     y="8.8691712e-07" />
  <rect
     style="fill:#ffccbc;stroke:none;stroke-width:0.651742;stroke-linecap:square;stroke-linejoin:round;stroke-miterlimit:10"
     id="rect1495-6-1"
     width="5.5"
     height="211.10045"
     x="195.72563"
     y="8.8691712e-07" />
  <path
     id="polyline4699"
     clip-path="none"
     style="fill:none;stroke:#000000;stroke-width:1.91726;stroke-linecap:butt;stroke-linejoin:round;stroke-miterlimit:10;stroke-dasharray:none"
     d="m 34.894399,182.92384 0.34921,-1.91 0.34002,4.73 0.34921,-4.18 0.3492,-0.07 0.34921,11.37 0.34921,-12.82 0.34002,1.09 0.3492,5.54 0.34921,-3.45 0.34921,3.95 0.34002,-0.15 0.3492,-4.24 0.34921,2.79 0.34921,-0.63 0.34002,-3.34 0.34921,3 0.3492,-4.06 0.34921,5.2 0.34921,-2.3 0.34002,-4.25 0.3492,-0.19 0.34921,0.45 0.34921,-0.98 0.34002,-4.63 0.3492,4.41 0.34921,0.35 0.34921,-2.48 0.34002,1.38 0.34921,-0.83 0.3492,-5.48 0.34921,4 0.34002,-1.93 0.34921,1.85 0.3492,-5.31 0.34921,-1.48 0.34921,5.51 0.34002,3.31 0.3492,-3.99 0.34921,-6.41 0.34921,3.66 0.34002,2.19 0.34921,-3.76 0.3492,3.42 0.34921,-2.43 0.34002,-1.08 0.34921,2.3 0.3492,-0.46 0.34921,2.03 0.34002,0.51 0.34921,-4.02 0.3492,2.6 0.34921,0.06 0.34002,-3.03 0.34921,0.4 0.34921,-3.53 0.3492,9.8 0.34002,-10.74 0.34921,0.47 0.34921,2.94 0.3492,-6.39 0.34002,0.98 0.34921,-1.36 0.34921,0.18 0.3492,13.68 0.34002,-11.76 0.34921,-5.5 0.34921,7.69 0.34921,-3.07 0.34001,-10.25 0.34921,4.85 0.34921,2.55 0.34921,-0.96 0.34001,-0.58 0.34921,-0.79 0.34921,-2.38 0.34921,9.77 0.34002,-5.52 0.3492,1.67 0.34921,-7.91 0.34921,-0.84 0.34002,4.39 0.3492,2.75 0.34921,-14.85 0.34921,3.05 0.34002,5.11 0.3492,-4.13 0.34921,6.03 0.34921,-11.48 0.34002,10.82 0.34921,-6.94 0.3492,4.32 0.34921,-7.83 0.34002,-0.71 0.34921,11.41 0.3492,-10.37 0.34921,8.36 0.34002,-2.26 0.34921,-5.71 0.3492,2.58 0.34921,-8.38 0.34002,9.19 0.34921,-14.86 0.34921,10.72 0.3492,2.37 0.34002,-4.48 0.34921,-8.47 0.34921,0.39 0.34001,13.47 0.34921,-9.57 0.34921,1.38 0.34921,-1.16 0.34001,-10.51 0.34921,20.03 0.34921,-21.99 0.34921,8.77 0.34002,-3.01 0.3492,8.33 0.34921,-9.49 0.34921,2.16 0.34002,8.28 0.3492,-12.58 0.34921,-8.93 0.34002,7.36 0.34921,-3.95 0.3492,0.89 0.34921,9.72 0.34002,-12.29 0.34921,7.78 0.34921,-5 0.3492,-4.58 0.34002,2.71 0.34921,-1.01 0.34921,-2.16 0.34001,-0.91 0.34921,1.04 0.34921,-0.81 0.34921,-1.59 0.34002,-3.3 0.3492,-5.36 0.34921,3.76 0.34921,5.48 0.34002,-7.94 0.3492,-5.67 0.34921,9.11 0.34002,3.83 0.34921,-14.18 0.3492,6.62 0.34921,-6.66 0.34002,6.43 0.34921,-5.94 0.34921,4.07 0.34001,12.51 0.34921,-14.48 0.34921,6.95 0.34921,-4.94 0.34001,-6.339996 0.34921,-0.92 0.34921,2.529996 0.34002,5.54 0.3492,-18.009996 0.34921,12.439996 0.34921,-15.199996 0.34002,5.88 0.34921,14.519996 0.3492,-16.269996 0.34002,-5.18 0.34921,14.43 0.34921,-10.03 0.3492,-1.58 0.34002,-2.9 0.34921,10 0.34921,-0.36 0.34001,-3.31 0.34921,-7.27 0.34921,8.01 0.34921,-9.75 0.34002,9.59 0.3492,-5.83 0.34921,-5.94 0.34002,1.21 0.34921,-1.12 0.3492,-2.65 0.34921,14.02 0.34002,-11.1 0.34921,-2.24 0.3492,-6.43 0.34002,4.98 0.349211,-6.99 0.34921,-0.08 0.34002,5.3 0.3492,-2.45 0.34921,2.04 0.34921,-4.36 0.34002,13.54 0.3492,-8.92 0.34921,8.76 0.34002,-4.56 0.34921,-3.66 0.34921,6.82 0.34001,-2.66 0.34921,8.92 0.34921,-13.23 0.34002,4.56 0.3492,-0.25 0.34921,-2.89 0.34921,-1.59 0.34002,5.63 0.3492,-1.59 0.34921,-3.04 0.34002,-9.42 0.34921,1.93 0.34921,13.23 0.34001,-11.9 0.34921,0.29 0.34921,5.4 0.34002,2.4 0.3492,-1.37 0.34921,-6.77 0.34921,4 0.34002,2.92 0.34921,1.18 0.3492,-11.95 0.34002,13.11 0.34921,-3.61 0.34921,2 0.34001,2.53 0.34921,-4.05 0.34921,-8.87 0.34002,5.5 0.3492,-4 0.34921,15.54 0.34002,-16.78 0.34921,0.45 0.34921,4.22 0.34001,7.08 0.34921,-8.38 0.34921,-0.91 0.34002,2.03 0.3492,-3.79 0.34921,8.36 0.34921,0.53 0.34002,-12.13 0.3492,9.35 0.34921,-2.4 0.34002,5.52 0.34921,0.21 0.34921,-7.16 0.34001,2.9 0.34921,-9.5 0.34921,2.08 0.34002,-4.81 0.3492,7.96 0.34921,-1.71 0.34002,3.02 0.34921,-2.79 0.34921,-3.14 0.34001,-7.9 0.34921,5.32 0.34921,9.31 0.34002,-17.28 0.3492,5.85 0.34921,9.86 0.34002,7.07 0.34921,-16.64 0.3492,5.67 0.34002,-7.16 0.34921,0.97 0.34921,9.38 0.34002,-0.53 0.3492,-17.71 0.34002,2.68 0.34921,-10.18 0.34921,15.25 0.34001,-13.42 0.34921,12.14 0.34921,-9.54 0.34002,2.65 0.34921,-7.79 0.3492,19.69 0.34002,-9.45 0.34921,-9.42 0.34921,2.74 0.34001,-0.19 0.34921,-4.21 0.34921,2.97 0.34002,9.03 0.3492,-7.33 0.34921,-7.64 0.34002,-3.2 0.34921,3.51 0.34921,6.43 0.34001,-3.27 0.34921,-0.18 0.34002,7.87 0.34921,-18.49 0.3492,4.37 0.34002,-0.31 0.34921,3.48 0.34921,-2.93 0.34002,3.02 0.3492,3.04 0.34921,-1.61 0.34002,-4.21 0.34921,-3.92 0.3492,12.79 0.34002,-1.78 0.34921,0.3 0.34002,5.25 0.34921,-9.19 0.3492,-11.63 0.34002,20.3 0.34921,-9.66 0.34921,9.98 0.34001,-13.89 0.34921,3.04 0.34921,17.52 0.34002,-9.29 0.3492,8.48 0.34002,-14.09 0.34921,18.36 0.34921,-9.76 0.34002,5.37 0.3492,1.49 0.34921,-1.14 0.34002,6.38 0.34921,3.65 0.34001,-2.03 0.34921,2.5 0.34921,-11.28 0.34002,5.57 0.34921,-1.42 0.3492,0.22 0.34002,8.44 0.34921,4.19 0.34002,2.4 0.3492,7.87 0.34921,-6.95 0.34002,4.65 0.34921,6.86 0.34002,2.89 0.3492,-0.84 0.34921,-9.51 0.34002,9.5 0.34921,13.059996 0.3492,-4.469996 0.34002,2.2 0.34921,-13.12 0.34002,19.589996 0.3492,-11.829996 0.34921,17.759996 0.34002,-9.94 0.34921,3.39 0.34002,7.4 0.3492,-3.63 0.34921,2.88 0.34002,-1.34 0.34921,-2.07 0.34001,8.37 0.34921,2.21 0.34921,1.13 0.34002,-0.88 0.34921,0.16 0.34001,-1.77 0.34921,5.24 0.34921,-2.51 0.34002,4.41 0.3492,7.26 0.34002,0.88 0.34921,-2.52 0.34921,7.78 0.34002,-13.04 0.3492,7.37 0.34002,3.23 0.34921,0.43 0.34921,4.02 0.34001,-10.75 0.34921,3.79 0.34002,10.49 0.34921,1.03 0.3492,-5.97 0.34002,0.28 0.34921,0.09 0.34002,13.4 0.34921,-4.79 0.3492,-1.49 0.34002,8.33 0.34921,-0.72 0.34002,-8.76 0.3492,1.29 0.34002,6.35 0.34921,1.5 0.34921,1.42 0.34002,-3.88 0.3492,-0.94 0.34002,10.71 0.34921,-1.69 0.34921,3.3 0.34001,-6.17 0.34921,-0.53 0.34002,10.58 0.34921,0.38 0.34002,-2.57 0.3492,-5.02 0.34921,0.39 0.34002,8.96 0.34921,-1.38 0.34001,-4.24 0.34921,10.3 0.34002,-15.14 0.34921,1.6 0.34921,5.28 0.34001,10.07 0.34921,-18.92 0.34002,5.36 0.34921,2 0.34001,4.38 0.34921,8.18 0.34921,-10.23 0.34002,5.7 0.3492,-5.81 0.34002,7.51 0.34921,-7.13 0.34002,10.54 0.34921,1.98 0.34001,-4.99 0.34921,-5.01 0.34921,-2.83 0.34002,10.99 0.3492,-8.53 0.34002,8.34 0.34921,1.4 0.34002,0.89 0.34921,-4.1 0.34001,7.63 0.34921,-12.41 0.34921,1.49 0.34002,4.75 0.3492,2.51 0.34002,-1.44 0.34921,-4.85 0.34002,-0.48 0.34921,2.26 0.34001,8.41 0.34921,-1.86 0.34002,1.22 0.34921,-11.56 0.3492,8.39 0.34002,2.72 0.34921,8.71 0.34002,-11.13 0.34921,3.22 0.34001,0.61 0.34921,5.53 0.34002,-10.06 0.34921,5.09 0.34001,4.56 0.34921,-6.93 0.34002,3.24 0.34921,-2.66 0.34002,3.06 0.3492,-0.21 0.34921,4.2 0.34002,-18.7 0.34921,6.32 0.34001,12.45 0.34921,-2.02 0.34002,10.96 0.34921,1.25 0.34002,-11.93 0.3492,8.79 0.34002,-6.58 0.34921,-1.56 0.34002,-1.47 0.3492,-0.88 0.34002,12.42 0.34921,-9.05 0.34002,-1.32 0.34921,-0.93 0.34001,3.1 0.34921,-2.34 0.34002,9.48 0.34921,-7.34 0.34001,11.93 0.34921,-12.32 0.34002,2.24 0.34921,-3 0.34002,3.9 0.3492,-2.47 0.34921,0.26 0.34002,8.03 0.34921,-8.18 0.34001,2.14 0.34921,-0.15 0.34002,-2.72 0.34921,-0.45 0.34002,2.99 0.3492,-4.74 0.34002,5.72 0.34921,-8.54 0.34002,21.11 0.3492,-10.42 0.34002,0.25 0.34921,0.86 0.34002,4.15 0.34921,-4.29 0.34001,-2.17 0.34921,5.54 0.34002,-6.88 0.34002,-2.69 0.3492,6.67 0.34002,-5.52 0.34921,6.48 0.34002,-3.5 0.34921,-4.69 0.34001,9.69 0.34921,-10.44 0.34002,3.28 0.34921,-1.38 0.34001,8.38 0.34921,-6.84 0.34002,11.36 0.34921,-4.18 0.34002,-3.43 0.3492,-1.03 0.34002,5.81 0.34921,-4.72 0.34002,-0.54 0.3492,-7.81 0.34002,3.11 0.34921,0.55 0.34002,2.94 0.34921,2.91 0.34001,2.03 0.34921,-8.53 0.34002,7.07 0.34002,-8.02 0.3492,1.3 0.34002,-3.5 0.34921,10.01 0.34002,-4.92 0.34921,-1.67 0.34001,9.66 0.34921,-2.1 0.34002,-4.89 0.34921,-7.15 0.34001,3.86 0.34921,8.34 0.34002,-1.35 0.34002,-2.45 0.34921,3.88 0.34001,-3.85 0.34921,8.83 0.34002,-6.76 0.34921,-5.32 0.34001,12.82 0.34921,-13.94 0.34002,4.38 0.34921,4.46 0.34002,-1.51 0.34001,-4.99 0.34921,2.38 0.34002,-4.44 0.34921,3.36 0.34002,-5.32 0.3492,10.04 0.34002,-7.39 0.34921,2.45 0.34002,1.21 0.34001,-6.93 0.34921,10.75 0.34002,-5.03 0.34921,-2.09 0.34002,5.31 0.3492,1.42 0.34002,-1.72 0.34002,5.03 0.34921,2.13 0.34001,-11.99 0.34921,6.7 0.34002,-6.2 0.34921,1 0.34002,1.94 0.34001,-0.87 0.34921,4.9 0.34002,-7.58 0.34921,0.87 0.34001,2.24 0.34921,-4.12 0.34002,-1.83 0.34002,3.12 0.34921,2.57 0.34001,-10.34 0.34921,17.03 0.34002,-7.69 0.34921,-8.04 0.34001,4.06 0.34002,0.32 0.34921,-3.27 0.34002,5 0.34921,-4.84 0.34001,9.5 0.34002,-2.66 0.34921,-0.38 0.34002,0.5 0.3492,-3.59 0.34002,1.7 0.34002,0.03 0.34921,0.95 0.34002,-7.5 0.3492,9.35 0.34002,-6.08 0.34002,6.64 0.34921,-9.86 0.34002,10.95 0.3492,-7.07 0.34002,3.85 0.34002,-1.47 0.34921,-2.14 0.34001,5.5 0.34921,1.11 0.34002,-3.71 0.34002,1.89 0.34921,-4.01 0.34001,9.15 0.34921,-8.75 0.34002,-2.26 0.34002,5.61 0.3492,-0.03 0.34002,-5.4 0.34002,3.2 0.34921,-2.12 0.34002,3.32 0.3492,0.25 0.34002,-2.35 0.34002,0.58 0.34921,-3.39 0.34002,-0.04 0.34001,0.43 0.34921,-1.52 0.34002,2.09 0.34921,-2.69 0.34001,6.01 0.34002,4.69 0.34921,-8.37 0.34002,-0.99 0.34002,6.28 0.3492,-2.18 0.34002,-4.92 0.34921,-4.32 0.34002,7.65 0.34001,-5.98 0.34921,4.75 0.34002,-1.78 0.34002,2.13 0.34921,-5.81 0.34001,4.88 0.34002,-1.41 0.34921,1.34 0.34002,-4.96 0.34002,9.42 0.3492,-3.26 0.34002,3.96 0.34002,-1.07 0.34921,-8.96 0.34001,8.18 0.34921,-2.71 0.34002,-2.24 0.34002,-1.33 0.34921,7.42 0.34001,0.79 0.34002,-1.66 0.34921,-2.14 0.34002,3.73 0.34001,-4.79 0.34921,-1.74 0.34002,-2.19 0.34002,1.21 0.34921,3.38 0.34001,0.98 0.34002,-2.06 0.34921,-3.74 0.34002,1.38 0.34002,4.59 0.3492,-3.74 0.34002,-0.23 0.34002,0.48 0.34921,1.27 0.34001,-4.81 0.34002,1.11 0.34921,5.7 0.34002,-0.25 0.34002,-4.83 0.34001,9.12 0.34921,-4.06 0.34002,-4.78 0.34002,-1.26 0.3492,8.26 0.34002,-6.16 0.34002,-2.53 0.34921,6.42 0.34002,0.17 0.34001,0.57 0.34921,-5.16 0.34002,-2.39 0.34002,3.4 0.34921,-1.68 0.34001,2.54 0.34002,2.42 0.34002,-0.73 0.34921,-3.09 0.34001,3.26 0.34002,-0.6 0.34921,-1.76 0.34002,5.07 0.34002,-4.22 0.3492,-0.66 0.34002,1.88 0.34002,3.32 0.34002,-5.93 0.34921,2.55 0.34001,-4.63 0.34002,6.12 0.34921,-4.59 0.34002,1.21 0.34001,-2.58 0.34002,-0.31 0.34921,0.43 0.34002,2.58 0.34002,1.95 0.3492,1.17 0.34002,-0.22 0.34002,-1.06 0.34002,-4.94 0.34921,3.38 0.34001,-2.81 0.34002,5.22 0.34002,0.69 0.34921,-1.62 0.34001,-5.71 0.34002,0.23 0.34921,7.76 0.34002,-5.53 0.34002,-1.64 0.34001,4.22 0.34921,0.38 0.34002,-3.81 0.34002,6.6 0.34002,-2.66 0.3492,-1.07 0.34002,6.44 0.34002,-5.56 0.34002,-0.13 0.3492,1.89 0.34002,2.65 0.34002,-4.2 0.34002,0.79 0.34921,-1.51 0.34001,-1.39 0.34002,-2.17 0.34002,-0.01 0.34921,-0.54 0.34002,4.63 0.34001,-0.17 0.34002,0.42 0.34921,6.23 0.34002,-7.52 0.34001,-1.3 0.34002,3.1 0.34921,2.26 0.34002,-0.08 0.34002,-5.61 0.34001,-1.49 0.34921,6.02 0.34002,-5.99 0.34002,0.04 0.34002,2.22 0.34001,-2.05 0.34921,7.17 0.34002,-5 0.34002,-0.5 0.34001,1.01 0.34921,-1.62 0.34002,0.51 0.34002,3.49 0.34002,-1.18 0.34001,-1.77 0.34921,-0.53 0.34002,-4.43 0.34002,7.75 0.34002,-1.43 0.34001,-0.06 0.34921,1.9 0.34002,-3.24 0.34002,1.24 0.34002,0.03 0.3492,-3 0.34002,6.18 0.34002,-7.24 0.34002,1.37 0.34001,-3.2 0.34921,7.16 0.34002,0.25"
     sodipodi:nodetypes="ccccccccccccccccccccccccccccccccccccccccccccccccccccccccccccccccccccccccccccccccccccccccccccccccccccccccccccccccccccccccccccccccccccccccccccccccccccccccccccccccccccccccccccccccccccccccccccccccccccccccccccccccccccccccccccccccccccccccccccccccccccccccccccccccccccccccccccccccccccccccccccccccccccccccccccccccccccccccccccccccccccccccccccccccccccccccccccccccccccccccccccccccccccccccccccccccccccccccccccccccccccccccccccccccccccccccccccccccccccccccccccccccccccccccccccccccccccccccccccccccccccccccccccccccccccccccccccccccccccccccccccccccccccccccccccccccccccccccccccccccccccccccccccccccccccccccccccccccccccccccccccccccccccccccccccccccccccccccccccccccccccccccccccccccccccccccccccccccccccccccccccccccccccccccccccccccccccccccccccccccccccccccccccccccccccccccccccccccccccccccccccccccccccccccccccccccccccccccccccccccccc" />
  <rect
     style="fill:#c8e6c9;stroke:none;stroke-width:0.651742;stroke-linecap:square;stroke-linejoin:round;stroke-miterlimit:10"
     id="rect1495-6"
     width="5.5"
     height="211.10045"
     x="137.6584"
     y="8.8691712e-07" />
  <path
     id="polyline4701"
     clip-path="none"
     style="fill:none;stroke:#000000;stroke-width:1.91726;stroke-linecap:butt;stroke-linejoin:round;stroke-miterlimit:10;stroke-dasharray:none"
     d="m 34.894399,176.45384 0.34921,11.25 0.34002,-6.09 0.34921,2.17 0.3492,3.31 0.34921,-4.05 0.34921,-0.02 0.34002,5.98 0.3492,-2.3 0.34921,-8.81 0.34921,7.52 0.34002,-5.46 0.3492,-1.18 0.34921,0.85 0.34921,5.53 0.34002,-8.53 0.34921,4.57 0.3492,2.15 0.34921,-5.14 0.34921,5.03 0.34002,0.73 0.3492,-10.62 0.34921,2 0.34921,2.67 0.34002,-6.83 0.3492,-0.94 0.34921,10.28 0.34921,1.34 0.34002,-9.72 0.34921,12.03 0.3492,-12.8 0.34921,-1.58 0.34002,9.8 0.34921,-10.43 0.3492,0.66 0.34921,4.8 0.34921,-4.66 0.34002,4.2 0.3492,-2.37 0.34921,9.61 0.34921,-11.49 0.34002,0.57 0.34921,9.49 0.3492,-13.03 0.34921,-5.9 0.34002,14.55 0.34921,-4.64 0.3492,0.96 0.34921,3.58 0.34002,-6.59 0.34921,3.08 0.3492,2.53 0.34921,-8.83 0.34002,0.45 0.34921,0.12 0.34921,-6.21 0.3492,1.96 0.34002,7.01 0.34921,-3.44 0.34921,0.84 0.3492,-5.91 0.34002,7.75 0.34921,3.24 0.34921,-11.66 0.3492,-4.25 0.34002,-0.08 0.34921,3.67 0.34921,5.51 0.34921,-4.03 0.34001,-6.23 0.34921,-0.8 0.34921,-4.83 0.34921,-2.46 0.34001,17.16 0.34921,-4.53 0.34921,-6.62 0.34921,23.69 0.34002,-27.86 0.3492,-3.83 0.34921,17.52 0.34921,-11.52 0.34002,1.55 0.3492,2.33 0.34921,8.33 0.34921,-18.84 0.34002,5.78 0.3492,4.65 0.34921,-2.49 0.34921,4.72 0.34002,-0.48 0.34921,-11.33 0.3492,-8.57 0.34921,13.16 0.34002,-8.95 0.34921,7.95 0.3492,-0.83 0.34921,0.4 0.34002,-11.43 0.34921,0.78 0.3492,11.59 0.34921,-8.12 0.34002,11.9 0.34921,-14.88 0.34921,-2.65 0.3492,7.55 0.34002,-6.2 0.34921,7.1 0.34921,-6.5 0.34001,3.39 0.34921,-1.95 0.34921,-3.57 0.34921,-1.67 0.34001,-7.1 0.34921,-1.64 0.34921,18.32 0.34921,-13.49 0.34002,4.76 0.3492,-7.87 0.34921,4.47 0.34921,-0.43 0.34002,1.91 0.3492,-11.5 0.34921,3.84 0.34002,-0.02 0.34921,4.16 0.3492,-14.24 0.34921,9.38 0.34002,6.83 0.34921,-20.46 0.34921,9.44 0.3492,13.44 0.34002,-17.86 0.34921,2.67 0.34921,14.33 0.34001,-24.13 0.34921,6.34 0.34921,8.71 0.34921,-19.5 0.34002,10.82 0.3492,8.85 0.34921,-10.04 0.34921,-7.49 0.34002,11.35 0.3492,-6.9 0.34921,0.31 0.34002,-1.34 0.34921,-7.69 0.3492,-2.649996 0.34921,10.779996 0.34002,-6.11 0.34921,-1.45 0.34921,2.57 0.34001,1.03 0.34921,-5.729996 0.34921,3.579996 0.34921,3.53 0.34001,-5.21 0.34921,-0.28 0.34921,10.31 0.34002,-17.829996 0.3492,5.26 0.34921,5.639996 0.34921,-7.489996 0.34002,-1.17 0.34921,-4.62 0.3492,-3.49 0.34002,-12.99 0.34921,3.17 0.34921,8.85 0.3492,-7.28 0.34002,18.85 0.34921,-0.09 0.34921,-16.89 0.34001,11.42 0.34921,2.09 0.34921,-14.08 0.34921,-2.34 0.34002,13.36 0.3492,-9.81 0.34921,4.75 0.34002,0.45 0.34921,-7.52 0.3492,-12.63 0.34921,23.18 0.34002,-14.29 0.34921,6.23 0.3492,-3.03 0.34002,3.43 0.349211,-7.91 0.34921,13.81 0.34002,-15.89 0.3492,-5 0.34921,12.27 0.34921,4.19 0.34002,-5.06 0.3492,11.17 0.34921,-20.72 0.34002,12.23 0.34921,-2.84 0.34921,1.81 0.34001,-2.87 0.34921,0.68 0.34921,-4.55 0.34002,0.08 0.3492,5.31 0.34921,6.26 0.34921,-17.98 0.34002,2.48 0.3492,3.08 0.34921,-9.67 0.34002,7.58 0.34921,3.44 0.34921,12.32 0.34001,-23.44 0.34921,13.12 0.34921,-2.12 0.34002,2.26 0.3492,-11.55 0.34921,-2.65 0.34921,10.13 0.34002,-0.87 0.34921,-0.71 0.3492,4.91 0.34002,-13.71 0.34921,17.27 0.34921,-5.89 0.34001,2.47 0.34921,0.8 0.34921,-10.52 0.34002,6.24 0.3492,3.2 0.34921,-18.18 0.34002,0.05 0.34921,11.04 0.34921,-3.85 0.34001,5 0.34921,-10.44 0.34921,0.98 0.34002,-2.45 0.3492,15.64 0.34921,-5.99 0.34921,-6.2 0.34002,7.94 0.3492,-2.45 0.34921,-0.72 0.34002,-4.5 0.34921,8.9 0.34921,-10.95 0.34001,7.78 0.34921,-4.85 0.34921,7 0.34002,-16.58 0.3492,22.35 0.34921,-16.98 0.34002,1.59 0.34921,-0.13 0.34921,-7.98 0.34001,0.91 0.34921,16.68 0.34921,-12.43 0.34002,-9.41 0.3492,17.61 0.34921,-8.44 0.34002,-5.94 0.34921,4.5 0.3492,8.28 0.34002,-0.85 0.34921,-11.43 0.34921,7.47 0.34002,-5.38 0.3492,-7.75 0.34002,1.8 0.34921,-7.81 0.34921,-3.85 0.34001,15.15 0.34921,-15.96 0.34921,9.1 0.34002,5.56 0.34921,-12.81 0.3492,2.57 0.34002,7 0.34921,-9.7 0.34921,-4.04 0.34001,17.83 0.34921,-3.53 0.34921,-10.99 0.34002,1.04 0.3492,7.52 0.34921,-9.57 0.34002,-8 0.34921,6.18 0.34921,-3.9 0.34001,10.64 0.34921,5.01 0.34002,-22.38 0.34921,1.14 0.3492,7.88 0.34002,3.58 0.34921,-12.35 0.34921,5.17 0.34002,-3.25 0.3492,6.53 0.34921,10.04 0.34002,-13.49 0.34921,-3.44 0.3492,7.41 0.34002,2.62 0.34921,-0.43 0.34002,-4.71 0.34921,-4.59 0.3492,12 0.34002,-7.41 0.34921,5.35 0.34921,-13.65 0.34001,11.33 0.34921,6.78 0.34921,-5.36 0.34002,-3.61 0.3492,11.57 0.34002,-1.58 0.34921,-6.98 0.34921,17.21 0.34002,-17.43 0.3492,12.44 0.34921,8.21 0.34002,-4.56 0.34921,-7.06 0.34001,13.9 0.34921,-1.95 0.34921,0.9 0.34002,0.09 0.34921,4.51 0.3492,-6.11 0.34002,3.46 0.34921,7.16 0.34002,-2.4 0.3492,-0.1 0.34921,6.7 0.34002,1.17 0.34921,3.4 0.34002,9.94 0.3492,-4.49 0.34921,-11.66 0.34002,17.53 0.34921,4.14 0.3492,-2.25 0.34002,16.429996 0.34921,-12.639996 0.34002,-3.55 0.3492,8.57 0.34921,-2.65 0.34002,-5.45 0.34921,16.699996 0.34002,-11.119996 0.3492,7.799996 0.34921,6.05 0.34002,0.56 0.34921,0.43 0.34001,-4.61 0.34921,0.93 0.34921,0.39 0.34002,-3.36 0.34921,10.7 0.34001,5.12 0.34921,-3.31 0.34921,1.67 0.34002,-2.06 0.3492,7.97 0.34002,-10.1 0.34921,11.47 0.34921,-2.81 0.34002,8.75 0.3492,-3.79 0.34002,-0.3 0.34921,13.12 0.34921,-11.59 0.34001,-2.44 0.34921,15.78 0.34002,-7.68 0.34921,2.61 0.3492,-0.47 0.34002,-0.37 0.34921,8.27 0.34002,-4.3 0.34921,0.34 0.3492,0.12 0.34002,-7.07 0.34921,9.07 0.34002,-4.8 0.3492,4.59 0.34002,8.28 0.34921,-7.06 0.34921,8.24 0.34002,4.78 0.3492,-2.75 0.34002,-6.27 0.34921,8.59 0.34921,-7.66 0.34001,-5.49 0.34921,11.72 0.34002,-3.63 0.34921,-8.45 0.34002,15.33 0.3492,-7.52 0.34921,-1.22 0.34002,11.69 0.34921,-3.31 0.34001,-1.26 0.34921,-6.49 0.34002,12.21 0.34921,-9.66 0.34921,0.05 0.34001,8.41 0.34921,0.71 0.34002,-10.67 0.34921,19.53 0.34001,-10.89 0.34921,-0.08 0.34921,-1.52 0.34002,8.48 0.3492,-6.69 0.34002,2.85 0.34921,8.55 0.34002,-8.8 0.34921,5.08 0.34001,-3.77 0.34921,-1.44 0.34921,8.87 0.34002,-4.2 0.3492,-1.07 0.34002,-7.49 0.34921,12.74 0.34002,-4.14 0.34921,-2.66 0.34001,4.4 0.34921,-6.12 0.34921,5.53 0.34002,4.65 0.3492,8.03 0.34002,-17.87 0.34921,13.06 0.34002,-7.39 0.34921,-0.01 0.34001,4.63 0.34921,-7.67 0.34002,1.14 0.34921,16.72 0.3492,-7.55 0.34002,0.5 0.34921,4.78 0.34002,2.92 0.34921,-6.6 0.34001,-5.73 0.34921,7.51 0.34002,-2.67 0.34921,1.07 0.34001,11.15 0.34921,-9.63 0.34002,3.72 0.34921,4.35 0.34002,-0.93 0.3492,-1.59 0.34921,-3.56 0.34002,4.22 0.34921,-15.32 0.34001,18.99 0.34921,-9.41 0.34002,1.71 0.34921,-5.92 0.34002,18.46 0.3492,-16.17 0.34002,7.83 0.34921,-5.72 0.34002,5.19 0.3492,0.51 0.34002,4.52 0.34921,-12.01 0.34002,0.91 0.34921,8.88 0.34001,0.34 0.34921,0.14 0.34002,-3.44 0.34921,0.09 0.34001,-3.95 0.34921,7.11 0.34002,-10.17 0.34921,12.37 0.34002,-3.67 0.3492,6.59 0.34921,-13.97 0.34002,10.06 0.34921,-0.54 0.34001,-4.12 0.34921,-0.14 0.34002,14.53 0.34921,-15.48 0.34002,0.3 0.3492,6.02 0.34002,-4.77 0.34921,5.23 0.34002,3.3 0.3492,-16.16 0.34002,-0.25 0.34921,18.27 0.34002,-6.28 0.34921,6.97 0.34001,2.7 0.34921,-20.4 0.34002,-3.84 0.34002,23.95 0.3492,-14.91 0.34002,7.42 0.34921,6.86 0.34002,-7.43 0.34921,-2.47 0.34001,-3.94 0.34921,13.87 0.34002,-13.76 0.34921,4.83 0.34001,6.86 0.34921,-6.09 0.34002,-5.34 0.34921,12.32 0.34002,-11.12 0.3492,6.2 0.34002,9.84 0.34921,-11.12 0.34002,-1.77 0.3492,10.15 0.34002,-13.92 0.34921,3.28 0.34002,4.46 0.34921,-2.89 0.34001,0.28 0.34921,-3.44 0.34002,-0.22 0.34002,-1.74 0.3492,4.51 0.34002,0.55 0.34921,3.41 h 0.34002 l 0.34921,-1.19 0.34001,0.11 0.34921,-0.74 0.34002,5.51 0.34921,-10.72 0.34001,0.63 0.34921,5.81 0.34002,0.06 0.34002,-3.72 0.34921,5.58 0.34001,-6.26 0.34921,0.33 0.34002,6.9 0.34921,-5.92 0.34001,-1.17 0.34921,-3.15 0.34002,8.42 0.34921,-7.97 0.34002,5.79 0.34001,-1.61 0.34921,-4.14 0.34002,11.26 0.34921,-9.16 0.34002,5.29 0.3492,-4.75 0.34002,5.95 0.34921,-5.46 0.34002,6.74 0.34001,1.93 0.34921,-14.28 0.34002,6.35 0.34921,11.8 0.34002,-16.46 0.3492,3.93 0.34002,6.54 0.34002,-4.96 0.34921,-6.63 0.34001,13.18 0.34921,-3.19 0.34002,-6.78 0.34921,1.91 0.34002,9.12 0.34001,-17.67 0.34921,10.73 0.34002,0.7 0.34921,-8.37 0.34001,8.64 0.34921,0.6 0.34002,-0.09 0.34002,-5.44 0.34921,11.13 0.34001,-12.91 0.34921,-0.3 0.34002,8.54 0.34921,-1.07 0.34001,-7.58 0.34002,13.5 0.34921,-11.2 0.34002,-0.49 0.34921,7.95 0.34001,-5.92 0.34002,-5.58 0.34921,12.68 0.34002,-0.56 0.3492,-4.59 0.34002,2.95 0.34002,-3.45 0.34921,-5.97 0.34002,4.26 0.3492,12.14 0.34002,-13.17 0.34002,2.39 0.34921,-2.16 0.34002,-2.25 0.3492,-3.36 0.34002,13.81 0.34002,-8 0.34921,-5.92 0.34001,18.81 0.34921,-9.06 0.34002,-7.98 0.34002,13 0.34921,-9.89 0.34001,-2.27 0.34921,9.42 0.34002,0.44 0.34002,-6.23 0.3492,3.22 0.34002,-3.57 0.34002,1.41 0.34921,1 0.34002,4.78 0.3492,-9.2 0.34002,3.17 0.34002,6.87 0.34921,-12.44 0.34002,2.25 0.34001,8.26 0.34921,-4.92 0.34002,0.3 0.34921,2.75 0.34001,-7.2 0.34002,-1.65 0.34921,10.03 0.34002,-4.64 0.34002,-4.42 0.3492,4.59 0.34002,0.26 0.34921,-1.79 0.34002,3.07 0.34001,-0.81 0.34921,-8.55 0.34002,13.73 0.34002,-0.6 0.34921,-7.86 0.34001,1.01 0.34002,1.09 0.34921,-4.16 0.34002,2.92 0.34002,8.9 0.3492,-2.83 0.34002,-7.92 0.34002,13.32 0.34921,-9.84 0.34001,-4.29 0.34921,12.28 0.34002,-4.44 0.34002,-10.61 0.34921,9.88 0.34001,-10.89 0.34002,6.93 0.34921,2.59 0.34002,-2.32 0.34001,-5.47 0.34921,11.9 0.34002,-7.09 0.34002,-3.59 0.34921,5.68 0.34001,1.37 0.34002,-3.68 0.34921,-1.96 0.34002,10.05 0.34002,-6.69 0.3492,-3.78 0.34002,4.74 0.34002,-5.62 0.34921,-3.83 0.34001,9.51 0.34002,-5.58 0.34921,1.43 0.34002,10.11 0.34002,-9.35 0.34001,-6.19 0.34921,12.26 0.34002,-1.44 0.34002,-4.61 0.3492,0.75 0.34002,7.12 0.34002,-9.12 0.34921,0.26 0.34002,8.13 0.34001,-1.92 0.34921,5.41 0.34002,0.94 0.34002,-14.8 0.34921,1.54 0.34001,12.16 0.34002,-4.87 0.34002,-4.47 0.34921,7.88 0.34001,-10.45 0.34002,3.01 0.34921,8.78 0.34002,-15.81 0.34002,2.05 0.3492,7.18 0.34002,-5.19 0.34002,1.97 0.34002,3.24 0.34921,6.65 0.34001,-10.53 0.34002,6.65 0.34921,3.31 0.34002,-9.43 0.34001,-0.56 0.34002,6.97 0.34921,-5.69 0.34002,-0.18 0.34002,10.19 0.3492,-7.79 0.34002,-6.05 0.34002,11.73 0.34002,-8.25 0.34921,-3.45 0.34001,9.38 0.34002,-1.96 0.34002,-12.54 0.34921,11.85 0.34001,-3.9 0.34002,-2.23 0.34921,-0.38 0.34002,1.59 0.34002,0.67 0.34001,1.85 0.34921,7.14 0.34002,-11.47 0.34002,-1 0.34002,12.49 0.3492,-12.86 0.34002,8.31 0.34002,2.61 0.34002,-13.7 0.3492,7.18 0.34002,10.53 0.34002,-14.81 0.34002,5.48 0.34921,9.92 0.34001,-10.66 0.34002,1.09 0.34002,-5.45 0.34921,1.82 0.34002,-2.14 0.34001,3.3 0.34002,6.9 0.34921,-6.1 0.34002,3.09 0.34001,-1.54 0.34002,-3.99 0.34921,4.45 0.34002,2.51 0.34002,-4.1 0.34001,-0.69 0.34921,3.1 0.34002,-12.42 0.34002,12.15 0.34002,5.05 0.34001,-9.96 0.34921,1.85 0.34002,7.8 0.34002,-7.29 0.34001,0.22 0.34921,3.19 0.34002,-3.67 0.34002,-6.62 0.34002,12.16 0.34001,-0.46 0.34921,-3.19 0.34002,1.56 0.34002,-1.02 0.34002,1.39 0.34001,0.36 0.34921,-2.87 0.34002,-4.88 0.34002,2.45 0.34002,11.11 0.3492,-6.96 0.34002,-7.3 0.34002,17.41 0.34002,-14.58 0.34001,-2.72"
     sodipodi:nodetypes="ccccccccccccccccccccccccccccccccccccccccccccccccccccccccccccccccccccccccccccccccccccccccccccccccccccccccccccccccccccccccccccccccccccccccccccccccccccccccccccccccccccccccccccccccccccccccccccccccccccccccccccccccccccccccccccccccccccccccccccccccccccccccccccccccccccccccccccccccccccccccccccccccccccccccccccccccccccccccccccccccccccccccccccccccccccccccccccccccccccccccccccccccccccccccccccccccccccccccccccccccccccccccccccccccccccccccccccccccccccccccccccccccccccccccccccccccccccccccccccccccccccccccccccccccccccccccccccccccccccccccccccccccccccccccccccccccccccccccccccccccccccccccccccccccccccccccccccccccccccccccccccccccccccccccccccccccccccccccccccccccccccccccccccccccccccccccccccccccccccccccccccccccccccccccccccccccccccccccccccccccccccccccccccccccccccccccccccccccccccccccccccccccccccccccccccccccccccccccccccccccc" />
  <path
     id="polyline4691"
     clip-path="none"
     style="fill:none;stroke:#e53935;stroke-width:1.91726;stroke-linecap:butt;stroke-linejoin:round;stroke-miterlimit:10;stroke-dasharray:none"
     d="m 34.894399,184.63384 0.34921,-0.79 0.34002,2.61 0.34921,-3.01 0.3492,1.64 0.34921,-0.87 0.34921,-1.22 0.34002,0.53 0.3492,0.22 0.34921,0.49 0.34921,-1.1 0.34002,-0.66 0.3492,0.68 0.34921,-0.54 0.34921,-2.65 0.34002,1.36 0.34921,2.3 0.3492,-2.31 0.34921,0.05 0.34921,-0.73 0.34002,-2.13 0.3492,2.59 0.34921,-4.63 0.34921,1.44 0.34002,1.24 0.3492,-0.94 0.34921,-4.71 0.34921,0.23 0.34002,5.08 0.34921,-3.45 0.3492,-0.8 0.34921,2.7 0.34002,-2.43 0.34921,-0.19 0.3492,-0.73 0.34921,-1.45 0.34921,4.56 0.34002,-4.27 0.3492,-4.94 0.34921,0.46 0.34921,1.96 0.34002,1.24 0.34921,-0.37 0.3492,-1.75 0.34921,-2.59 0.34002,-0.14 0.34921,5.98 0.3492,-3.09 0.34921,-0.62 0.34002,-5.76 0.34921,7 0.3492,-5.37 0.34921,2.96 0.34002,1.22 0.34921,-0.86 0.34921,3.89 0.3492,-4.18 0.34002,-0.4 0.34921,-1.83 0.34921,-0.4 0.3492,-1.54 0.34002,1.82 0.34921,-4.31 0.34921,-2.87 0.3492,2.42 0.34002,3.8 0.34921,-6.57 0.34921,4.45 0.34921,-4.62 0.34001,-2.34 0.34921,1.46 0.34921,-2.19 0.34921,3.2 0.34001,-2.15 0.34921,4.29 0.34921,-2.42 0.34921,-2.63 0.34002,0.65 0.3492,-2.54 0.34921,-1.83 0.34921,-2.37 0.34002,4.08 0.3492,-2 0.34921,-2.86 0.34921,0.49 0.34002,-2.2 0.3492,2.94 0.34921,-1.9 0.34921,-2.77 0.34002,2.92 0.34921,-1.25 0.3492,1.63 0.34921,-5.17 0.34002,-1.96 0.34921,-1.6 0.3492,1.68 0.34921,1.42 0.34002,1.69 0.34921,-4.05 0.3492,0.92 0.34921,-2.04 0.34002,-0.99 0.34921,6.17 0.34921,-5.32 0.3492,-2.67 0.34002,1 0.34921,-1.82 0.34921,-1.94 0.34001,-0.16 0.34921,2.3 0.34921,-0.76 0.34921,-3.2 0.34001,-4.56 0.34921,4.49 0.34921,-1.62 0.34921,-4.63 0.34002,4.2 0.3492,-4.77 0.34921,0.49 0.34921,3.6 0.34002,1.81 0.3492,-10.19 0.34921,2.76 0.34002,4.87 0.34921,-4.09 0.3492,-2.02 0.34921,-0.77 0.34002,-3.09 0.34921,-0.3 0.34921,2.91 0.3492,-0.51 0.34002,-1.86 0.34921,0.24 0.34921,-2.29 0.34001,-2.97 0.34921,2.71 0.34921,-4.96 0.34921,-3.71 0.34002,10.98 0.3492,-10.66 0.34921,1.64 0.34921,-0.82 0.34002,-5.19 0.3492,4.18 0.34921,-0.03 0.34002,1.85 0.34921,2.59 0.3492,-0.84 0.34921,-4.25 0.34002,-2.95 0.34921,-1.43 0.34921,6.07 0.34001,-10.769996 0.34921,4.929996 0.34921,1.01 0.34921,-4.809996 0.34001,-0.42 0.34921,-4.92 0.34921,2.09 0.34002,1.09 0.3492,2.33 0.34921,-4.84 0.34921,5.29 0.34002,-2.26 0.34921,-7.09 0.3492,8.84 0.34002,-10.38 0.34921,5.82 0.34921,-3.09 0.3492,-5.03 0.34002,3.51 0.34921,-4.38 0.34921,7.79 0.34001,-2.45 0.34921,-7.51 0.34921,0.16 0.34921,4.76 0.34002,-0.42 0.3492,-9.51 0.34921,6.23 0.34002,-0.36 0.34921,-3.64 0.3492,2.01 0.34921,-1.67 0.34002,2.3 0.34921,-4.34 0.3492,8.09 0.34002,-9.21 0.349211,1.19 0.34921,-1.32 0.34002,3.16 0.3492,-0.91 0.34921,-4.31 0.34921,4.26 0.34002,2.96 0.3492,-4.55 0.34921,0.66 0.34002,-3.14 0.34921,-0.77 0.34921,1.19 0.34001,4.07 0.34921,-4.96 0.34921,2.86 0.34002,-3 0.3492,4.59 0.34921,-6.39 0.34921,4.48 0.34002,2.18 0.3492,-1.67 0.34921,-2.78 0.34002,-1 0.34921,5.53 0.34921,-6.73 0.34001,-1.8 0.34921,1.25 0.34921,1.08 0.34002,-3.49 0.3492,6.79 0.34921,3.18 0.34921,-8.3 0.34002,0.29 0.34921,-3.32 0.3492,3.71 0.34002,-2.58 0.34921,5.37 0.34921,-6.57 0.34001,1.03 0.34921,-2.21 0.34921,2.37 0.34002,3.49 0.3492,-3.58 0.34921,6.03 0.34002,-7.75 0.34921,5.31 0.34921,-1.56 0.34001,1.82 0.34921,-0.1 0.34921,1.51 0.34002,-9.43 0.3492,4.72 0.34921,-1.26 0.34921,1.76 0.34002,1.3 0.3492,-1.75 0.34921,-1.59 0.34002,-4.34 0.34921,6.82 0.34921,-0.21 0.34001,-1.61 0.34921,-1.44 0.34921,4.05 0.34002,0.18 0.3492,-4.8 0.34921,5.42 0.34002,-2.58 0.34921,-2.91 0.34921,3.02 0.34001,-2.09 0.34921,-2.14 0.34921,-0.38 0.34002,0.04 0.3492,4.1 0.34921,-3.25 0.34002,-1.13 0.34921,1.74 0.3492,0.55 0.34002,0.33 0.34921,-4.06 0.34921,-3.79 0.34002,7.61 0.3492,-2.83 0.34002,1.23 0.34921,-3.43 0.34921,6.35 0.34001,-3.59 0.34921,1.6 0.34921,-8.1 0.34002,4.2 0.34921,0.4 0.3492,-4.63 0.34002,-0.98 0.34921,-3.5 0.34921,3.69 0.34001,-0.84 0.34921,-0.16 0.34921,0.54 0.34002,0.45 0.3492,-7.86 0.34921,1.34 0.34002,1.97 0.34921,-1.18 0.34921,-0.83 0.34001,1.06 0.34921,-1.03 0.34002,-2.26 0.34921,-2.01 0.3492,6.33 0.34002,0.99 0.34921,-7.96 0.34921,3.89 0.34002,2.73 0.3492,-7.3 0.34921,5.44 0.34002,-3.05 0.34921,0.7 0.3492,-2.42 0.34002,-5.44 0.34921,10.82 0.34002,-2.45 0.34921,2.19 0.3492,-7.87 0.34002,8.84 0.34921,1.34 0.34921,-1.03 0.34001,3.97 0.34921,-3.37 0.34921,-0.55 0.34002,0.1 0.3492,-2.83 0.34002,3.99 0.34921,-0.27 0.34921,0.61 0.34002,-2.06 0.3492,7.39 0.34921,-0.67 0.34002,1.98 0.34921,2.48 0.34001,-5.96 0.34921,10.21 0.34921,-2 0.34002,1.38 0.34921,0.5 0.3492,1.73 0.34002,1.08 0.34921,-3.36 0.34002,4 0.3492,4.42 0.34921,-3.42 0.34002,5.46 0.34921,2.02 0.34002,0.54 0.3492,0.78 0.34921,2.03 0.34002,-1.89 0.34921,4.7 0.3492,0.58 0.34002,-3.26 0.34921,3.17 0.34002,-0.31 0.3492,1.74 0.34921,-0.96 0.34002,0.01 0.34921,9.22 0.34002,-6.8 0.3492,3.44 0.34921,-0.72 0.34002,2.77 0.34921,-3.18 0.34001,3.9 0.34921,-3.81 0.34921,7.29 0.34002,-3.86 0.34921,4 0.34001,0.47 0.34921,1.079996 0.34921,2.42 0.34002,-2.06 0.3492,-0.46 0.34002,2.89 0.34921,1.72 0.34921,-2.33 0.34002,7.03 0.3492,-6.08 0.34002,3.89 0.34921,-3.01 0.34921,4.63 0.34001,-0.37 0.34921,-0.87 0.34002,1.02 0.34921,-4.55 0.3492,5.02 0.34002,0.64 0.34921,3.75 0.34002,-1.14 0.34921,-0.31 0.3492,-2.96 0.34002,4.9 0.34921,-0.85 0.34002,4.25 0.3492,-3.3 0.34002,-0.47 0.34921,6.79 0.34921,-3.43 0.34002,2.43 0.3492,-0.07 0.34002,-0.41 0.34921,1.69 0.34921,-5.23 0.34001,11.15 0.34921,-7.29 0.34002,-0.55 0.34921,1.4 0.34002,1.35 0.3492,2.21 0.34921,-2.56 0.34002,3.01 0.34921,3.56 0.34001,-1.1 0.34921,-3.44 0.34002,4.65 0.34921,1.23 0.34921,-3.31 0.34001,2.47 0.34921,-0.67 0.34002,2.99 0.34921,-4.01 0.34001,0.72 0.34921,0.87 0.34921,3.3 0.34002,-2.79 0.3492,2.29 0.34002,2.57 0.34921,-2.85 0.34002,-1.42 0.34921,0.31 0.34001,3.15 0.34921,3.28 0.34921,-3.19 0.34002,-0.33 0.3492,5.87 0.34002,-1.86 0.34921,0.37 0.34002,-5.78 0.34921,7.5 0.34001,0.63 0.34921,-4.82 0.34921,4.35 0.34002,2.15 0.3492,-2.3 0.34002,2.52 0.34921,-2.12 0.34002,1.79 0.34921,-6.16 0.34001,6.27 0.34921,-1.87 0.34002,-1.9 0.34921,2.9 0.3492,3.81 0.34002,-4.47 0.34921,3.39 0.34002,0.32 0.34921,0.23 0.34001,6.35 0.34921,-4.22 0.34002,1.32 0.34921,-6.51 0.34001,5.86 0.34921,-3.84 0.34002,4.84 0.34921,-1.24 0.34002,-2.66 0.3492,2.5 0.34921,2.24 0.34002,1.58 0.34921,-1.62 0.34001,1.48 0.34921,-2.24 0.34002,7.55 0.34921,-7.05 0.34002,1.01 0.3492,4.2 0.34002,-3.94 0.34921,3.62 0.34002,0.33 0.3492,0.44 0.34002,2.44 0.34921,-5.17 0.34002,6.14 0.34921,-2.22 0.34001,0.72 0.34921,-3.21 0.34002,3.53 0.34921,-1.88 0.34001,1.54 0.34921,-0.94 0.34002,4.85 0.34921,-3.04 0.34002,1.1 0.3492,2.36 0.34921,-2.49 0.34002,-0.71 0.34921,4.25 0.34001,1.01 0.34921,-4.22 0.34002,1.59 0.34921,-2.44 0.34002,5.37 0.3492,-1.84 0.34002,-0.11 0.34921,2.11 0.34002,-1.88 0.3492,-0.52 0.34002,1.92 0.34921,-0.54 0.34002,0.05 0.34921,1.39 0.34001,1.26 0.34921,0.5 0.34002,-3.24 0.34002,3.33 0.3492,-0.19 0.34002,-2.26 0.34921,2.23 0.34002,-0.65 0.34921,4.46 0.34001,-2.5 0.34921,0.43 0.34002,-2.46 0.34921,2.17 0.34001,-1.83 0.34921,1.04 0.34002,-1.41 0.34921,3.19 0.34002,0.75 0.3492,-2.49 0.34002,3.13 0.34921,-1.72 0.34002,4.63 0.3492,-2.81 0.34002,1.54 0.34921,-0.56 0.34002,-0.58 0.34921,0.25 0.34001,0.38 0.34921,-3.06 0.34002,2.06 0.34002,1.82 0.3492,0.56 0.34002,-1.2 0.34921,1.96 0.34002,-2.48 0.34921,2.51 0.34001,-1.83 0.34921,-0.72 0.34002,5.1 0.34921,-5.49 0.34001,0.74 0.34921,-0.85 0.34002,2.14 0.34002,-2.3 0.34921,3.83 0.34001,-0.18 0.34921,1.27 0.34002,2.72 0.34921,-7.49 0.34001,4.2 0.34921,-2.28 0.34002,-0.62 0.34921,5.86 0.34002,-5.72 0.34001,5.22 0.34921,-1.78 0.34002,-0.82 0.34921,-2.47 0.34002,2.92 0.3492,0.43 0.34002,-0.42 0.34921,0.4 0.34002,-3.3 0.34001,3.08 0.34921,1.35 0.34002,-2.65 0.34921,1.36 0.34002,-2.97 0.3492,6.54 0.34002,-1.07 0.34002,2.58 0.34921,-1.44 0.34001,-1.29 0.34921,-4.57 0.34002,3.05 0.34921,1.02 0.34002,1.99 0.34001,-2.85 0.34921,-1.98 0.34002,1.51 0.34921,-2.56 0.34001,6.69 0.34921,-1.87 0.34002,1.55 0.34002,-0.8 0.34921,1.95 0.34001,-2.24 0.34921,-0.69 0.34002,0.83 0.34921,1.71 0.34001,-3.74 0.34002,-0.61 0.34921,5.97 0.34002,-5.26 0.34921,4.44 0.34001,0.67 0.34002,1.76 0.34921,-3.89 0.34002,-1 0.3492,0.86 0.34002,-2.03 0.34002,2.33 0.34921,-0.2 0.34002,-2.12 0.3492,4.56 0.34002,-5.34 0.34002,5.08 0.34921,-2.39 0.34002,0.39 0.3492,2.96 0.34002,-0.08 0.34002,0.26 0.34921,1.62 0.34001,-1.8 0.34921,-2.9 0.34002,3.03 0.34002,1.75 0.34921,-3.48 0.34001,0.47 0.34921,-1.09 0.34002,5.9 0.34002,-3.89 0.3492,2.02 0.34002,-2.18 0.34002,0.52 0.34921,-2.92 0.34002,4.11 0.3492,-0.37 0.34002,0.91 0.34002,0.26 0.34921,-0.78 0.34002,-1.48 0.34001,0.69 0.34921,-1.92 0.34002,3.32 0.34921,-1.8 0.34001,2.74 0.34002,-0.17 0.34921,-3.04 0.34002,3.18 0.34002,-0.31 0.3492,-1.04 0.34002,-0.06 0.34921,-2.07 0.34002,3.33 0.34001,1.51 0.34921,-2.64 0.34002,0.82 0.34002,0.51 0.34921,-0.27 0.34001,0.62 0.34002,0.01 0.34921,-0.32 0.34002,-2.94 0.34002,2.82 0.3492,-1.36 0.34002,3.84 0.34002,-2.43 0.34921,0.37 0.34001,-1.27 0.34921,0.3 0.34002,0.64 0.34002,-0.24 0.34921,-1.2 0.34001,1.62 0.34002,-0.99 0.34921,0.53 0.34002,1.38 0.34001,-1.35 0.34921,2.82 0.34002,-0.96 0.34002,1.02 0.34921,-2.07 0.34001,1.46 0.34002,-2.45 0.34921,1.56 0.34002,-1.37 0.34002,1.12 0.3492,0.43 0.34002,-0.52 0.34002,1.34 0.34921,-0.9 0.34001,-0.47 0.34002,1.54 0.34921,-3.54 0.34002,1.08 0.34002,2.47 0.34001,-0.49 0.34921,-1.98 0.34002,0.7 0.34002,-0.82 0.3492,1.08 0.34002,-1.8 0.34002,2.28 0.34921,-2.29 0.34002,1.03 0.34001,2.01 0.34921,-2.83 0.34002,0.7 0.34002,1.53 0.34921,-1.22 0.34001,-0.58 0.34002,1.77 0.34002,-1.1 0.34921,2.39 0.34001,-0.62 0.34002,-2.44 0.34921,0.81 0.34002,2.85 0.34002,-3.04 0.3492,-1.15 0.34002,1.2 0.34002,0.2 0.34002,1.64 0.34921,-0.58 0.34001,0.53 0.34002,1.79 0.34921,-2.32 0.34002,0.06 0.34001,-1.57 0.34002,2.87 0.34921,-0.6 0.34002,-1.88 0.34002,1.77 0.3492,-1.73 0.34002,2.08 0.34002,-3.32 0.34002,1.15 0.34921,1.33 0.34001,-0.5 0.34002,-0.08 0.34002,-2.02 0.34921,0.25 0.34001,2.18 0.34002,0.77 0.34921,0.15 0.34002,-0.44 0.34002,-0.15 0.34001,-1.05 0.34921,-0.92 0.34002,3.47 0.34002,-4.58 0.34002,4.57 0.3492,-4.63 0.34002,1.1 0.34002,4.72 0.34002,-3.83 0.3492,0.32 0.34002,1.23 0.34002,-1.93 0.34002,1.37 0.34921,-1.53 0.34001,1.65 0.34002,-2.06 0.34002,0.38 0.34921,-0.16 0.34002,2.58 0.34001,-2.9 0.34002,2.13 0.34921,-2.12 0.34002,1.2 0.34001,0.05 0.34002,1.78 0.34921,-0.22 0.34002,-0.76 0.34002,-0.02 0.34001,-0.74 0.34921,1.69 0.34002,-0.95 0.34002,0.23 0.34002,1.36 0.34001,-0.67 0.34921,-2.31 0.34002,1.21 0.34002,-0.02 0.34001,0.91 0.34921,-1.34 0.34002,1.5 0.34002,-2.93 0.34002,3.32 0.34001,-0.27 0.34921,-1.74 0.34002,3.56 0.34002,-2.03 0.34002,-1.58 0.34001,1.79 0.34921,-1.88 0.34002,2.12 0.34002,-0.79 0.34002,-2.33 0.3492,0.88 0.34002,3.06 0.34002,-1.66 0.34002,-0.26 0.34001,0.89 0.34921,-2.05"
     sodipodi:nodetypes="cccccccccccccccccccccccccccccccccccccccccccccccccccccccccccccccccccccccccccccccccccccccccccccccccccccccccccccccccccccccccccccccccccccccccccccccccccccccccccccccccccccccccccccccccccccccccccccccccccccccccccccccccccccccccccccccccccccccccccccccccccccccccccccccccccccccccccccccccccccccccccccccccccccccccccccccccccccccccccccccccccccccccccccccccccccccccccccccccccccccccccccccccccccccccccccccccccccccccccccccccccccccccccccccccccccccccccccccccccccccccccccccccccccccccccccccccccccccccccccccccccccccccccccccccccccccccccccccccccccccccccccccccccccccccccccccccccccccccccccccccccccccccccccccccccccccccccccccccccccccccccccccccccccccccccccccccccccccccccccccccccccccccccccccccccccccccccccccccccccccccccccccccccccccccccccccccccccccccccccccccccccccccccccccccccccccccccccccccccccccccccccccccccccccccccccccccccccccccccccccccc" />
  <path
     id="polyline4695"
     clip-path="none"
     style="fill:none;stroke:#fdd835;stroke-width:1.91726;stroke-linecap:butt;stroke-linejoin:round;stroke-miterlimit:10;stroke-dasharray:none"
     d="m 34.894399,188.14384 0.34921,-2.71 0.34002,-1.63 0.34921,2.53 0.3492,-0.91 0.34921,0.36 0.34921,0.81 0.34002,-1.3 0.3492,-0.08 0.34921,-1.44 0.34921,3.94 0.34002,0.69 0.3492,-3.02 0.34921,-2.54 0.34921,0.86 0.34002,-0.37 0.34921,1.62 0.3492,-3.86 0.34921,7.18 0.34921,-4.12 0.34002,-1.53 0.3492,7.21 0.34921,-9.75 0.34921,2.81 0.34002,1.76 0.3492,-3.55 0.34921,0.92 0.34921,4.37 0.34002,-6.37 0.34921,2.76 0.3492,-1.06 0.34921,-0.67 0.34002,-0.9 0.34921,6.32 0.3492,-6.02 0.34921,2.74 0.34921,-1.44 0.34002,-0.73 0.3492,0.22 0.34921,1.84 0.34921,-3.55 0.34002,-0.96 0.34921,0.04 0.3492,-2.1 0.34921,4.36 0.34002,3 0.34921,0.96 0.3492,-2.28 0.34921,-2.87 0.34002,0.92 0.34921,1.96 0.3492,-4.55 0.34921,7.54 0.34002,-5.15 0.34921,-4.25 0.34921,3.75 0.3492,-3.78 0.34002,2.05 0.34921,-1.1 0.34921,0.95 0.3492,-1 0.34002,1.87 0.34921,-2.36 0.34921,4.97 0.3492,-3.2 0.34002,4.45 0.34921,-4.57 0.34921,5.89 0.34921,-8.54 0.34001,2.89 0.34921,3.91 0.34921,-5.94 0.34921,-3.21 0.34001,3.28 0.34921,4.27 0.34921,-1.32 0.34921,-3.67 0.34002,-3.09 0.3492,5.86 0.34921,4.48 0.34921,-5.26 0.34002,-4.31 0.3492,4.73 0.34921,1.92 0.34921,-5.26 0.34002,9.39 0.3492,-9.99 0.34921,-8.54 0.34921,14.88 0.34002,3.27 0.34921,-7.94 0.3492,-1.24 0.34921,1.18 0.34002,5.67 0.34921,-10.24 0.3492,-5.59 0.34921,6.27 0.34002,-1.84 0.34921,3.13 0.3492,-8.09 0.34921,7.58 0.34002,1.2 0.34921,-2.53 0.34921,-0.37 0.3492,1.28 0.34002,-1.43 0.34921,1.35 0.34921,1.49 0.34001,-2.02 0.34921,3.95 0.34921,-8.77 0.34921,4.94 0.34001,-4.02 0.34921,2.08 0.34921,-4.5 0.34921,6.21 0.34002,-6.52 0.3492,7.05 0.34921,-9.45 0.34921,8.44 0.34002,3.93 0.3492,4.34 0.34921,-8.15 0.34002,-2.53 0.34921,-0.47 0.3492,4.45 0.34921,-2.24 0.34002,-2.24 0.34921,4.91 0.34921,-6.76 0.3492,0.13 0.34002,-2.55 0.34921,-1.19 0.34921,1.84 0.34001,-2.38 0.34921,6.88 0.34921,-7.67 0.34921,3.84 0.34002,4.18 0.3492,-3.76 0.34921,-7.71 0.34921,6.2 0.34002,-2.87 0.3492,-1.18 0.34921,0.11 0.34002,-4.53 0.34921,6.06 0.3492,2.39 0.34921,-9.03 0.34002,11.54 0.34921,-10.58 0.34921,11.41 0.34001,-4.4 0.34921,-4.34 0.34921,0.4 0.34921,0.99 0.34001,2.25 0.34921,-7.33 0.34921,-0.72 0.34002,8.02 0.3492,6.29 0.34921,-9.03 0.34921,1.67 0.34002,-3.75 0.34921,-0.77 0.3492,-5.06 0.34002,5.68 0.34921,0.42 0.34921,-3.35 0.3492,-4.7 0.34002,4.14 0.34921,-2.03 0.34921,8.04 0.34001,-1.11 0.34921,-8.75 0.34921,3.79 0.34921,1.72 0.34002,-1.48 0.3492,-0.18 0.34921,2.64 0.34002,-5.55 0.34921,-1.11 0.3492,5.68 0.34921,-9.03 0.34002,8.59 0.34921,-3.92 0.3492,-0.54 0.34002,1.41 0.349211,-4.45 0.34921,-0.6 0.34002,-0.34 0.3492,8.79 0.34921,-1.45 0.34921,-1.82 0.34002,-3.78 0.3492,-0.65 0.34921,3.95 0.34002,-3.24 0.34921,9.55 0.34921,-8.2 0.34001,1.56 0.34921,-1.68 0.34921,1.23 0.34002,-2.69 0.3492,6.13 0.34921,-0.41 0.34921,-4.11 0.34002,-3.94 0.3492,6.09 0.34921,-0.65 0.34002,0.73 0.34921,-1.38 0.34921,-5.45 0.34001,3.63 0.34921,1.44 0.34921,0.74 0.34002,-0.43 0.3492,0.01 0.34921,-4.79 0.34921,1.2 0.34002,6.78 0.34921,-6.99 0.3492,-1.67 0.34002,-5.11 0.34921,0.58 0.34921,3.4 0.34001,1.29 0.34921,-0.03 0.34921,2.36 0.34002,1.86 0.3492,3.32 0.34921,-3.18 0.34002,1.85 0.34921,-6.54 0.34921,-7.85 0.34001,8.99 0.34921,-0.46 0.34921,3.71 0.34002,1.58 0.3492,-9.28 0.34921,11.56 0.34921,-10.54 0.34002,5.61 0.3492,2.01 0.34921,-8.26 0.34002,1.11 0.34921,2.88 0.34921,4.96 0.34001,-6.49 0.34921,4.3 0.34921,-4.78 0.34002,0.16 0.3492,3.12 0.34921,-3.07 0.34002,-0.85 0.34921,5.29 0.34921,-8.3 0.34001,1.11 0.34921,0.9 0.34921,-0.29 0.34002,-4.6 0.3492,8.12 0.34921,-1.77 0.34002,1.13 0.34921,-3.61 0.3492,-3.66 0.34002,6.56 0.34921,-2.01 0.34921,-0.14 0.34002,5.15 0.3492,-4.97 0.34002,-1.21 0.34921,-0.12 0.34921,8.6 0.34001,-14.58 0.34921,3.43 0.34921,-2.06 0.34002,4.77 0.34921,-4.94 0.3492,4.77 0.34002,-0.35 0.34921,1.96 0.34921,-7.8 0.34001,2.79 0.34921,-0.31 0.34921,-4.01 0.34002,2.36 0.3492,-1.99 0.34921,0.77 0.34002,-1.57 0.34921,-1.37 0.34921,-0.18 0.34001,0.03 0.34921,-2.49 0.34002,-0.78 0.34921,3.39 0.3492,-0.15 0.34002,-1.91 0.34921,0.85 0.34921,-3.84 0.34002,-1.97 0.3492,6.85 0.34921,-4.66 0.34002,-1.04 0.34921,3.26 0.3492,-3.8 0.34002,-0.48 0.34921,-0.74 0.34002,8.07 0.34921,-4.34 0.3492,-5.61 0.34002,6.23 0.34921,-4.05 0.34921,-0.74 0.34001,-6.88 0.34921,3.82 0.34921,8.61 0.34002,-4.69 0.3492,5.67 0.34002,-3.23 0.34921,2.72 0.34921,-4.13 0.34002,-11.63 0.3492,0.42 0.34921,10.49 0.34002,3.94 0.34921,-9.64 0.34001,-1.49 0.34921,2.05 0.34921,7.04 0.34002,-1.9 0.34921,-2.82 0.3492,-5.81 0.34002,8.85 0.34921,0.89 0.34002,-7.44 0.3492,3.81 0.34921,-2.5 0.34002,-3.74 0.34921,0.66 0.34002,8.91 0.3492,4.03 0.34921,-14.51 0.34002,8.57 0.34921,-3.55 0.3492,13.54 0.34002,-8.55 0.34921,0.71 0.34002,-3.22 0.3492,-5.61 0.34921,3.62 0.34002,-0.82 0.34921,12.37 0.34002,-16.56 0.3492,1.81 0.34921,-3.87 0.34002,-2.64 0.34921,1.41 0.34001,0.98 0.34921,-1.7 0.34921,19.36 0.34002,-14.76 0.34921,2.29 0.34001,0.93 0.34921,4.48 0.34921,0.86 0.34002,-4.82 0.3492,-2.82 0.34002,7.08 0.34921,-13.61 0.34921,11.77 0.34002,2.62 0.3492,-7.27 0.34002,13.29 0.34921,-9.22 0.34921,-0.18 0.34001,-10.07 0.34921,-0.38 0.34002,15.4 0.34921,-7.43 0.3492,-1.51 0.34002,3.31 0.34921,-1.35 0.34002,1.9 0.34921,-11.82 0.3492,-9.09 0.34002,16.02 0.34921,1.23 0.34002,-6.63 0.3492,10.16 0.34002,-2.63 0.34921,-2.81 0.34921,-0.09 0.34002,-1.14 0.3492,-2.63 0.34002,14.11 0.34921,-8.23 0.34921,10.5 0.34001,-10.91 0.34921,1.72 0.34002,11.59 0.34921,-23.05 0.34002,10.65 0.3492,-6.38 0.34921,2.34 0.34002,9.34 0.34921,0.96 0.34001,-4.6 0.34921,-5.89 0.34002,-0.86 0.34921,7.47 0.34921,0.18 0.34001,3.07 0.34921,-18.83 0.34002,16.65 0.34921,6.05 0.34001,-0.66 0.34921,-7.16 0.34921,-8.53 0.34002,15.75 0.3492,-13.85 0.34002,20.25 0.34921,-8.92 0.34002,-11.51 0.34921,8.82 0.34001,2.98 0.34921,4.03 0.34921,-5.66 0.34002,-7.32 0.3492,1.02 0.34002,0.87 0.34921,16.74 0.34002,-2.58 0.34921,4.64 0.34001,-8.59 0.34921,-7.53 0.34921,4.58 0.34002,4.97 0.3492,-10.22 0.34002,1.95 0.34921,-2.59 0.34002,13.58 0.34921,-6.8 0.34001,-6.45 0.34921,9.82 0.34002,-10.58 0.34921,13.71 0.3492,4.6 0.34002,-22.62 0.34921,24.92 0.34002,-2.16 0.34921,-5.67 0.34001,-4.67 0.34921,-12.2 0.34002,18.28 0.34921,0.75 0.34001,-8.96 0.34921,-0.1 0.34002,7.59 0.34921,9.13 0.34002,-27.47 0.3492,21.3 0.34921,-11.54 0.34002,7.46 0.34921,1.41 0.34001,5.35 0.34921,-9.04 0.34002,6.68 0.34921,4.92 0.34002,0.84 0.3492,-13.52 0.34002,-3.11 0.34921,5.72 0.34002,-1.63 0.3492,21.72 0.34002,-2.24 0.34921,-3.25 0.34002,-14.82 0.34921,3.24 0.34001,10.16 0.34921,3.48 0.34002,9.67 0.34921,-9.53 0.34001,3.28 0.34921,-19.82 0.34002,2 0.34921,7.72 0.34002,4.34 0.3492,-1.53 0.34921,-10.71 0.34002,14.74 0.34921,-0.82 0.34001,10.08 0.34921,-16.52 0.34002,1.5 0.34921,4.86 0.34002,0.13 0.3492,6.52 0.34002,-28.86 0.34921,9.82 0.34002,19.86 0.3492,-9.08 0.34002,-8.41 0.34921,23.9 0.34002,-19.79 0.34921,-2.72 0.34001,17.17 0.34921,-9.13 0.34002,-0.49 0.34002,6.31 0.3492,-7.19 0.34002,10.41 0.34921,-4.56 0.34002,-12.76 0.34921,9.24 0.34001,-2.66 0.34921,21.68 0.34002,2.14 0.34921,-30.98 0.34001,10.69 0.34921,13.36 0.34002,-14 0.34921,-3.52 0.34002,19.8 0.3492,-18.57 0.34002,20.38 0.34921,-22.18 0.34002,5.65 0.3492,0.76 0.34002,12.07 0.34921,-11.46 0.34002,-1.87 0.34921,11.75 0.34001,-2.51 0.34921,-3.18 0.34002,-5.47 0.34002,23.22 0.3492,-0.73 0.34002,-18.63 0.34921,-0.19 0.34002,11.13 0.34921,-7.98 0.34001,7 0.34921,-15.23 0.34002,3.23 0.34921,1.97 0.34001,4.65 0.34921,4.03 0.34002,3.94 0.34002,-13.2 0.34921,10.94 0.34001,-12.3 0.34921,7.34 0.34002,2.1 0.34921,10.39 0.34001,-21.14 0.34921,7.52 0.34002,23.97 0.34921,-32.59 0.34002,20.5 0.34001,-17.99 0.34921,5.35 0.34002,8.58 0.34921,-5.36 0.34002,-2.64 0.3492,12.71 0.34002,-25.39 0.34921,16.25 0.34002,-5.45 0.34001,22 0.34921,-20.18 0.34002,-5.37 0.34921,11.26 0.34002,-3.05 0.3492,12 0.34002,-3.47 0.34002,-5.27 0.34921,2.78 0.34001,-5.65 0.34921,14.67 0.34002,-12.87 0.34921,-1.45 0.34002,4.86 0.34001,-3.77 0.34921,11.51 0.34002,-7.45 0.34921,3.24 0.34001,4.56 0.34921,-1.64 0.34002,-4.09 0.34002,-9.22 0.34921,4.93 0.34001,5.14 0.34921,-1.71 0.34002,0.2 0.34921,10.13 0.34001,-11.05 0.34002,6.41 0.34921,-5.96 0.34002,5.81 0.34921,-1.81 0.34001,1.56 0.34002,-3.47 0.34921,-6.75 0.34002,8.59 0.3492,-1.16 0.34002,7.88 0.34002,-3.26 0.34921,-1.42 0.34002,-5.46 0.3492,6.93 0.34002,1.46 0.34002,2.36 0.34921,-9.37 0.34002,7.75 0.3492,7.43 0.34002,-7.53 0.34002,-3.33 0.34921,-5.43 0.34001,5.94 0.34921,-6.03 0.34002,2.94 0.34002,4.83 0.34921,-3.25 0.34001,5.05 0.34921,2.64 0.34002,-2.94 0.34002,-5.66 0.3492,8.76 0.34002,-7.58 0.34002,5.08 0.34921,4.57 0.34002,-2.92 0.3492,-3.1 0.34002,6.14 0.34002,-3.3 0.34921,-0.78 0.34002,1.31 0.34001,-3.89 0.34921,2.58 0.34002,4.01 0.34921,-1.55 0.34001,1.25 0.34002,0.37 0.34921,-1.91 0.34002,2.08 0.34002,-6.31 0.3492,-0.2 0.34002,10.42 0.34921,-12.62 0.34002,7.96 0.34001,7.17 0.34921,-7.71 0.34002,-1.04 0.34002,5.13 0.34921,-14.05 0.34001,10.1 0.34002,-6.58 0.34921,7.5 0.34002,1.79 0.34002,-0.35 0.3492,0.82 0.34002,-3.19 0.34002,3.74 0.34921,0.38 0.34001,-3.43 0.34921,-3.18 0.34002,-0.21 0.34002,2.24 0.34921,5.17 0.34001,-7.28 0.34002,9.87 0.34921,-5.39 0.34002,0.12 0.34001,-1.23 0.34921,6.7 0.34002,-5.17 0.34002,-2.83 0.34921,-0.62 0.34001,-0.66 0.34002,9.61 0.34921,-6.75 0.34002,0.39 0.34002,1.93 0.3492,3.96 0.34002,-9.07 0.34002,2.94 0.34921,2.52 0.34001,-5.61 0.34002,3.48 0.34921,0.83 0.34002,0.96 0.34002,5.37 0.34001,-5.09 0.34921,-4.27 0.34002,8.37 0.34002,-7.68 0.3492,0.24 0.34002,4.52 0.34002,-7.95 0.34921,1.55 0.34002,4.28 0.34001,3.21 0.34921,-1.22 0.34002,-1.51 0.34002,-0.28 0.34921,-0.01 0.34001,-7.57 0.34002,4.19 0.34002,2.78 0.34921,6.74 0.34001,-3.84 0.34002,-1.73 0.34921,-2.62 0.34002,7.55 0.34002,-4.93 0.3492,-4.89 0.34002,8.86 0.34002,-3.91 0.34002,-2.9 0.34921,-0.21 0.34001,2.69 0.34002,0.38 0.34921,0.56 0.34002,1.74 0.34001,1.45 0.34002,-7.31 0.34921,1.11 0.34002,1.4 0.34002,0.51 0.3492,-0.21 0.34002,-1.6 0.34002,7.49 0.34002,-5.68 0.34921,-4.79 0.34001,5.41 0.34002,3.21 0.34002,0.39 0.34921,-1.15 0.34001,-3.04 0.34002,6.24 0.34921,-1.9 0.34002,-5.63 0.34002,5.06 0.34001,-0.46 0.34921,-0.88 0.34002,-6.71 0.34002,9.02 0.34002,0.91 0.3492,0.24 0.34002,-8.96 0.34002,3.77 0.34002,-0.49 0.3492,2.16 0.34002,0.58 0.34002,-4.36 0.34002,4.09 0.34921,0.03 0.34001,-4.84 0.34002,4.82 0.34002,-2.54 0.34921,3.46 0.34002,-4.74 0.34001,4.04 0.34002,6.82 0.34921,-12.12 0.34002,7.07 0.34001,-3.29 0.34002,-4.03 0.34921,5.21 0.34002,-0.33 0.34002,-4.18 0.34001,0.73 0.34921,-0.84 0.34002,2.4 0.34002,-6.01 0.34002,2.4 0.34001,8.46 0.34921,-3.77 0.34002,-4.64 0.34002,9.09 0.34001,-5.56 0.34921,4.24 0.34002,-4.6 0.34002,1.65 0.34002,-2.47 0.34001,4.97 0.34921,-1.2 0.34002,-3.75 0.34002,-0.38 0.34002,5.82 0.34001,-1.5 0.34921,-2.14 0.34002,3.35 0.34002,-3.22 0.34002,0.1 0.3492,-0.61 0.34002,4.9 0.34002,-2.14 0.34002,0.2 0.34001,1.77 0.34921,-2.96"
     sodipodi:nodetypes="cccccccccccccccccccccccccccccccccccccccccccccccccccccccccccccccccccccccccccccccccccccccccccccccccccccccccccccccccccccccccccccccccccccccccccccccccccccccccccccccccccccccccccccccccccccccccccccccccccccccccccccccccccccccccccccccccccccccccccccccccccccccccccccccccccccccccccccccccccccccccccccccccccccccccccccccccccccccccccccccccccccccccccccccccccccccccccccccccccccccccccccccccccccccccccccccccccccccccccccccccccccccccccccccccccccccccccccccccccccccccccccccccccccccccccccccccccccccccccccccccccccccccccccccccccccccccccccccccccccccccccccccccccccccccccccccccccccccccccccccccccccccccccccccccccccccccccccccccccccccccccccccccccccccccccccccccccccccccccccccccccccccccccccccccccccccccccccccccccccccccccccccccccccccccccccccccccccccccccccccccccccccccccccccccccccccccccccccccccccccccccccccccccccccccccccccccccccccccccccccccc" />
  <defs
     id="defs4709">
    <clipPath
       id="clipPath4707">
      <rect
         x="0"
         y="0"
         width="504"
         height="504"
         id="rect4705" />
    </clipPath>
  </defs>
  <path
     id="polyline4711"
     clip-path="url(#cpMC4wMHw1MDQuMDB8NTA0LjAwfDAuMDA=)"
     style="fill:none;stroke:#000000;stroke-width:1.07;stroke-linecap:butt;stroke-linejoin:round;stroke-miterlimit:10"
     transform="matrix(0.91896741,0,0,1,-10.018941,6.3538437)"
     d="M 48,204.85 V 10.96" />
  <polyline
     points="45.26,180.01 48.00,180.01 "
     style="stroke:#333333;stroke-width:1.07;stroke-linecap:butt"
     clip-path="url(#cpMC4wMHw1MDQuMDB8NTA0LjAwfDAuMDA=)"
     id="polyline4733"
     transform="matrix(0.91896741,0,0,1,-10.018941,6.3538437)" />
  <polyline
     points="45.26,139.95 48.00,139.95 "
     style="stroke:#333333;stroke-width:1.07;stroke-linecap:butt"
     clip-path="url(#cpMC4wMHw1MDQuMDB8NTA0LjAwfDAuMDA=)"
     id="polyline4735"
     transform="matrix(0.91896741,0,0,1,-10.018941,6.3538437)" />
  <polyline
     points="45.26,99.89 48.00,99.89 "
     style="stroke:#333333;stroke-width:1.07;stroke-linecap:butt"
     clip-path="url(#cpMC4wMHw1MDQuMDB8NTA0LjAwfDAuMDA=)"
     id="polyline4737"
     transform="matrix(0.91896741,0,0,1,-10.018941,6.3538437)" />
  <polyline
     points="45.26,59.83 48.00,59.83 "
     style="stroke:#333333;stroke-width:1.07;stroke-linecap:butt"
     clip-path="url(#cpMC4wMHw1MDQuMDB8NTA0LjAwfDAuMDA=)"
     id="polyline4739"
     transform="matrix(0.91896741,0,0,1,-10.018941,6.3538437)" />
  <polyline
     points="45.26,19.77 48.00,19.77 "
     style="stroke:#333333;stroke-width:1.07;stroke-linecap:butt"
     clip-path="url(#cpMC4wMHw1MDQuMDB8NTA0LjAwfDAuMDA=)"
     id="polyline4741"
     transform="matrix(0.91896741,0,0,1,-10.018941,6.3538437)" />
  <path
     id="polyline4743"
     clip-path="url(#cpMC4wMHw1MDQuMDB8NTA0LjAwfDAuMDA=)"
     style="fill:none;stroke:#000000;stroke-width:1.07;stroke-linecap:butt;stroke-linejoin:round;stroke-miterlimit:10"
     transform="matrix(0.91896741,0,0,1,-13.636271,6.3538437)"
     d="M 51.9363,204.85 H 353.33"
     sodipodi:nodetypes="cc" />
  <polyline
     points="98.08,207.58 98.08,204.85 "
     style="stroke:#333333;stroke-width:1.07;stroke-linecap:butt"
     clip-path="url(#cpMC4wMHw1MDQuMDB8NTA0LjAwfDAuMDA=)"
     id="polyline4745"
     transform="matrix(0.91896741,0,0,1,-13.636271,6.3538437)" />
  <polyline
     points="158.42,207.58 158.42,204.85 "
     style="stroke:#333333;stroke-width:1.07;stroke-linecap:butt"
     clip-path="url(#cpMC4wMHw1MDQuMDB8NTA0LjAwfDAuMDA=)"
     id="polyline4747"
     transform="matrix(0.91896741,0,0,1,-13.636271,6.3538437)" />
  <polyline
     points="218.76,207.58 218.76,204.85 "
     style="stroke:#333333;stroke-width:1.07;stroke-linecap:butt"
     clip-path="url(#cpMC4wMHw1MDQuMDB8NTA0LjAwfDAuMDA=)"
     id="polyline4749"
     transform="matrix(0.91896741,0,0,1,-13.636271,6.3538437)" />
  <polyline
     points="279.11,207.58 279.11,204.85 "
     style="stroke:#333333;stroke-width:1.07;stroke-linecap:butt"
     clip-path="url(#cpMC4wMHw1MDQuMDB8NTA0LjAwfDAuMDA=)"
     id="polyline4751"
     transform="matrix(0.91896741,0,0,1,-13.636271,6.3538437)" />
  <polyline
     points="339.45,207.58 339.45,204.85 "
     style="stroke:#333333;stroke-width:1.07;stroke-linecap:butt"
     clip-path="url(#cpMC4wMHw1MDQuMDB8NTA0LjAwfDAuMDA=)"
     id="polyline4753"
     transform="matrix(0.91896741,0,0,1,-13.636271,6.3538437)" />
  <defs
     id="defs4810">
    <clipPath
       id="cpNS40OHw0OTguNTJ8NDk4LjUyfDI1Mi4wMA==">
      <rect
         x="5.48"
         y="252"
         width="493.04001"
         height="246.52"
         id="rect4807" />
    </clipPath>
  </defs>
  <defs
     id="defs4818">
    <clipPath
       id="clipPath4816">
      <rect
         x="0"
         y="0"
         width="504"
         height="504"
         id="rect4814" />
    </clipPath>
  </defs>
  <defs
     id="defs4823">
    <clipPath
       id="cpNDguMDB8MzUzLjMzfDI3NC4xNXwyNTcuNDg=">
      <rect
         x="48"
         y="257.48001"
         width="305.32001"
         height="16.67"
         id="rect4820" />
    </clipPath>
  </defs>
  <defs
     id="defs4835">
    <clipPath
       id="clipPath4833">
      <rect
         x="0"
         y="0"
         width="504"
         height="504"
         id="rect4831" />
    </clipPath>
  </defs>
  <defs
     id="defs4840">
    <clipPath
       id="cpNDguMDB8MzUzLjMzfDI5Ni4zMHwyNzkuNjM=">
      <rect
         x="48"
         y="279.63"
         width="305.32001"
         height="16.67"
         id="rect4837" />
    </clipPath>
  </defs>
  <defs
     id="defs4852">
    <clipPath
       id="clipPath4850">
      <rect
         x="0"
         y="0"
         width="504"
         height="504"
         id="rect4848" />
    </clipPath>
  </defs>
  <defs
     id="defs4857">
    <clipPath
       id="cpNDguMDB8MzUzLjMzfDMxOC40NnwzMDEuNzg=">
      <rect
         x="48"
         y="301.78"
         width="305.32001"
         height="16.67"
         id="rect4854" />
    </clipPath>
  </defs>
  <defs
     id="defs4869">
    <clipPath
       id="clipPath4867">
      <rect
         x="0"
         y="0"
         width="504"
         height="504"
         id="rect4865" />
    </clipPath>
  </defs>
  <defs
     id="defs4874">
    <clipPath
       id="cpNDguMDB8MzUzLjMzfDM0MC42MXwzMjMuOTM=">
      <rect
         x="48"
         y="323.92999"
         width="305.32001"
         height="16.67"
         id="rect4871" />
    </clipPath>
  </defs>
  <defs
     id="defs4886">
    <clipPath
       id="clipPath4884">
      <rect
         x="0"
         y="0"
         width="504"
         height="504"
         id="rect4882" />
    </clipPath>
  </defs>
  <defs
     id="defs4891">
    <clipPath
       id="cpNDguMDB8MzUzLjMzfDM2Mi43NnwzNDYuMDk=">
      <rect
         x="48"
         y="346.09"
         width="305.32001"
         height="16.67"
         id="rect4888" />
    </clipPath>
  </defs>
  <defs
     id="defs4903">
    <clipPath
       id="clipPath4901">
      <rect
         x="0"
         y="0"
         width="504"
         height="504"
         id="rect4899" />
    </clipPath>
  </defs>
  <defs
     id="defs4908">
    <clipPath
       id="cpNDguMDB8MzUzLjMzfDM4NC45MXwzNjguMjQ=">
      <rect
         x="48"
         y="368.23999"
         width="305.32001"
         height="16.67"
         id="rect4905" />
    </clipPath>
  </defs>
  <defs
     id="defs4920">
    <clipPath
       id="clipPath4918">
      <rect
         x="0"
         y="0"
         width="504"
         height="504"
         id="rect4916" />
    </clipPath>
  </defs>
  <defs
     id="defs4925">
    <clipPath
       id="cpNDguMDB8MzUzLjMzfDQwNy4wNnwzOTAuMzk=">
      <rect
         x="48"
         y="390.39001"
         width="305.32001"
         height="16.67"
         id="rect4922" />
    </clipPath>
  </defs>
  <defs
     id="defs4937">
    <clipPath
       id="clipPath4935">
      <rect
         x="0"
         y="0"
         width="504"
         height="504"
         id="rect4933" />
    </clipPath>
  </defs>
  <defs
     id="defs4942">
    <clipPath
       id="cpNDguMDB8MzUzLjMzfDQyOS4yMXw0MTIuNTQ=">
      <rect
         x="48"
         y="412.54001"
         width="305.32001"
         height="16.67"
         id="rect4939" />
    </clipPath>
  </defs>
  <defs
     id="defs4954">
    <clipPath
       id="clipPath4952">
      <rect
         x="0"
         y="0"
         width="504"
         height="504"
         id="rect4950" />
    </clipPath>
  </defs>
  <defs
     id="defs4959">
    <clipPath
       id="cpNDguMDB8MzUzLjMzfDQ1MS4zN3w0MzQuNjk=">
      <rect
         x="48"
         y="434.69"
         width="305.32001"
         height="16.67"
         id="rect4956" />
    </clipPath>
  </defs>
  <defs
     id="defs4971">
    <clipPath
       id="clipPath4969">
      <rect
         x="0"
         y="0"
         width="504"
         height="504"
         id="rect4967" />
    </clipPath>
  </defs>
  <defs
     id="defs4976">
    <clipPath
       id="cpMzUzLjMzfDM3MC4yNHwyNzQuMTV8MjU3LjQ4">
      <rect
         x="353.32999"
         y="257.48001"
         width="16.92"
         height="16.67"
         id="rect4973" />
    </clipPath>
  </defs>
  <defs
     id="defs4988">
    <clipPath
       id="clipPath4986">
      <rect
         x="0"
         y="0"
         width="504"
         height="504"
         id="rect4984" />
    </clipPath>
  </defs>
  <defs
     id="defs4993">
    <clipPath
       id="cpMzUzLjMzfDM3MC4yNHwyOTYuMzB8Mjc5LjYz">
      <rect
         x="353.32999"
         y="279.63"
         width="16.92"
         height="16.67"
         id="rect4990" />
    </clipPath>
  </defs>
  <defs
     id="defs5005">
    <clipPath
       id="clipPath5003">
      <rect
         x="0"
         y="0"
         width="504"
         height="504"
         id="rect5001" />
    </clipPath>
  </defs>
  <defs
     id="defs5010">
    <clipPath
       id="cpMzUzLjMzfDM3MC4yNHwzMTguNDZ8MzAxLjc4">
      <rect
         x="353.32999"
         y="301.78"
         width="16.92"
         height="16.67"
         id="rect5007" />
    </clipPath>
  </defs>
  <defs
     id="defs5022">
    <clipPath
       id="clipPath5020">
      <rect
         x="0"
         y="0"
         width="504"
         height="504"
         id="rect5018" />
    </clipPath>
  </defs>
  <defs
     id="defs5027">
    <clipPath
       id="cpMzUzLjMzfDM3MC4yNHwzNDAuNjF8MzIzLjkz">
      <rect
         x="353.32999"
         y="323.92999"
         width="16.92"
         height="16.67"
         id="rect5024" />
    </clipPath>
  </defs>
  <defs
     id="defs5039">
    <clipPath
       id="clipPath5037">
      <rect
         x="0"
         y="0"
         width="504"
         height="504"
         id="rect5035" />
    </clipPath>
  </defs>
  <defs
     id="defs5044">
    <clipPath
       id="cpMzUzLjMzfDM3MC4yNHwzNjIuNzZ8MzQ2LjA5">
      <rect
         x="353.32999"
         y="346.09"
         width="16.92"
         height="16.67"
         id="rect5041" />
    </clipPath>
  </defs>
  <defs
     id="defs5056">
    <clipPath
       id="clipPath5054">
      <rect
         x="0"
         y="0"
         width="504"
         height="504"
         id="rect5052" />
    </clipPath>
  </defs>
  <defs
     id="defs5061">
    <clipPath
       id="cpMzUzLjMzfDM3MC4yNHwzODQuOTF8MzY4LjI0">
      <rect
         x="353.32999"
         y="368.23999"
         width="16.92"
         height="16.67"
         id="rect5058" />
    </clipPath>
  </defs>
  <defs
     id="defs5073">
    <clipPath
       id="clipPath5071">
      <rect
         x="0"
         y="0"
         width="504"
         height="504"
         id="rect5069" />
    </clipPath>
  </defs>
  <defs
     id="defs5078">
    <clipPath
       id="cpMzUzLjMzfDM3MC4yNHw0MDcuMDZ8MzkwLjM5">
      <rect
         x="353.32999"
         y="390.39001"
         width="16.92"
         height="16.67"
         id="rect5075" />
    </clipPath>
  </defs>
  <defs
     id="defs5090">
    <clipPath
       id="clipPath5088">
      <rect
         x="0"
         y="0"
         width="504"
         height="504"
         id="rect5086" />
    </clipPath>
  </defs>
  <defs
     id="defs5095">
    <clipPath
       id="cpMzUzLjMzfDM3MC4yNHw0MjkuMjF8NDEyLjU0">
      <rect
         x="353.32999"
         y="412.54001"
         width="16.92"
         height="16.67"
         id="rect5092" />
    </clipPath>
  </defs>
  <defs
     id="defs5107">
    <clipPath
       id="clipPath5105">
      <rect
         x="0"
         y="0"
         width="504"
         height="504"
         id="rect5103" />
    </clipPath>
  </defs>
  <defs
     id="defs5112">
    <clipPath
       id="cpMzUzLjMzfDM3MC4yNHw0NTEuMzd8NDM0LjY5">
      <rect
         x="353.32999"
         y="434.69"
         width="16.92"
         height="16.67"
         id="rect5109" />
    </clipPath>
  </defs>
  <defs
     id="defs5124">
    <clipPath
       id="clipPath5122">
      <rect
         x="0"
         y="0"
         width="504"
         height="504"
         id="rect5120" />
    </clipPath>
  </defs>
  <text
     xml:space="preserve"
     style="font-stretch:condensed;font-size:10.6667px;line-height:1.25;font-family:'Noto Sans';-inkscape-font-specification:'Noto Sans, Condensed';letter-spacing:0px;word-spacing:0px;writing-mode:lr-tb"
     x="242.07742"
     y="66.909172"
     id="text6255-75-9"><tspan
       sodipodi:role="line"
       id="tspan6253-9-3"
       x="242.07742"
       y="66.909172">10 mM ATP</tspan></text>
  <text
     xml:space="preserve"
     style="font-stretch:condensed;font-size:10.6667px;line-height:1.25;font-family:'Noto Sans';-inkscape-font-specification:'Noto Sans, Condensed';letter-spacing:0px;word-spacing:0px;writing-mode:lr-tb"
     x="242.07742"
     y="44.502041"
     id="text6255-7-2-1"><tspan
       sodipodi:role="line"
       id="tspan6253-0-2-9"
       x="242.07742"
       y="44.502041">100 M TNP-ATP</tspan></text>
  <text
     xml:space="preserve"
     style="font-stretch:condensed;font-size:10.6667px;line-height:1.25;font-family:'Noto Sans';-inkscape-font-specification:'Noto Sans, Condensed';letter-spacing:0px;word-spacing:0px;writing-mode:lr-tb"
     x="241.97073"
     y="24.548243"
     id="text6406-4"><tspan
       sodipodi:role="line"
       id="tspan6404-7"
       x="241.97073"
       y="24.548243">EDTA bath</tspan></text>
  <rect
     style="fill:#e53935;stroke:none;stroke-width:0.0712721;stroke-linecap:square;stroke-linejoin:round;stroke-miterlimit:10"
     id="rect5948-1-8"
     width="19.758333"
     height="10"
     x="216.01657"
     y="58.101162" />
  <rect
     style="fill:#fdd835;stroke:none;stroke-width:0.0711394;stroke-linecap:square;stroke-linejoin:round;stroke-miterlimit:10"
     id="rect5948-2-9-8-4"
     width="19.684782"
     height="10"
     x="216.05338"
     y="36.824703" />
  <rect
     style="fill:#000000;stroke:none;stroke-width:0.0711394;stroke-linecap:square;stroke-linejoin:round;stroke-miterlimit:10"
     id="rect5948-2-9-8-4-5"
     width="19.684782"
     height="10"
     x="216.05338"
     y="15.548241" />
  <text
     xml:space="preserve"
     style="font-stretch:condensed;font-size:10.6667px;line-height:1.25;font-family:'Noto Sans';-inkscape-font-specification:'Noto Sans, Condensed';letter-spacing:0px;word-spacing:0px;writing-mode:lr-tb"
     x="69.082703"
     y="224.24974"
     id="text6295-0"><tspan
       sodipodi:role="line"
       id="tspan6293-3"
       x="69.082703"
       y="224.24974">450</tspan></text>
  <text
     xml:space="preserve"
     style="font-stretch:condensed;font-size:10.6667px;line-height:1.25;font-family:'Noto Sans';-inkscape-font-specification:'Noto Sans, Condensed';letter-spacing:0px;word-spacing:0px;writing-mode:lr-tb"
     x="124.46487"
     y="224.24974"
     id="text6299-6"><tspan
       sodipodi:role="line"
       id="tspan6297-1"
       x="124.46487"
       y="224.24974">500</tspan></text>
  <text
     xml:space="preserve"
     style="font-stretch:condensed;font-size:10.6667px;line-height:1.25;font-family:'Noto Sans';-inkscape-font-specification:'Noto Sans, Condensed';letter-spacing:0px;word-spacing:0px;writing-mode:lr-tb"
     x="179.84702"
     y="224.24974"
     id="text6303-0"><tspan
       sodipodi:role="line"
       id="tspan6301-6"
       x="179.84702"
       y="224.24974">550</tspan></text>
  <text
     xml:space="preserve"
     style="font-stretch:condensed;font-size:10.6667px;line-height:1.25;font-family:'Noto Sans';-inkscape-font-specification:'Noto Sans, Condensed';letter-spacing:0px;word-spacing:0px;writing-mode:lr-tb"
     x="235.29312"
     y="224.24974"
     id="text6307-3"><tspan
       sodipodi:role="line"
       id="tspan6305-2"
       x="235.29312"
       y="224.24974">600</tspan></text>
  <text
     xml:space="preserve"
     style="font-stretch:condensed;font-size:10.6667px;line-height:1.25;font-family:'Noto Sans';-inkscape-font-specification:'Noto Sans, Condensed';letter-spacing:0px;word-spacing:0px;writing-mode:lr-tb"
     x="290.73929"
     y="224.24974"
     id="text6311-0"><tspan
       sodipodi:role="line"
       id="tspan6309-6"
       x="290.73929"
       y="224.24974">650</tspan></text>
  <text
     xml:space="preserve"
     style="font-stretch:condensed;font-size:10.6667px;line-height:1.25;font-family:'Noto Sans';-inkscape-font-specification:'Noto Sans, Condensed';letter-spacing:0px;word-spacing:0px;writing-mode:lr-tb"
     x="24.290895"
     y="190.17186"
     id="text6550"><tspan
       sodipodi:role="line"
       id="tspan6548"
       x="24.290895"
       y="190.17186">0</tspan></text>
  <text
     xml:space="preserve"
     style="font-stretch:condensed;font-size:10.6667px;line-height:1.25;font-family:'Noto Sans';-inkscape-font-specification:'Noto Sans, Condensed';letter-spacing:0px;word-spacing:0px;writing-mode:lr-tb"
     x="19.256227"
     y="150.11186"
     id="text6554"><tspan
       sodipodi:role="line"
       id="tspan6552"
       x="19.256227"
       y="150.11186">50</tspan></text>
  <text
     xml:space="preserve"
     style="font-stretch:condensed;font-size:10.6667px;line-height:1.25;font-family:'Noto Sans';-inkscape-font-specification:'Noto Sans, Condensed';letter-spacing:0px;word-spacing:0px;writing-mode:lr-tb"
     x="14.22156"
     y="110.05186"
     id="text6558"><tspan
       sodipodi:role="line"
       id="tspan6556"
       x="14.22156"
       y="110.05186">100</tspan></text>
  <text
     xml:space="preserve"
     style="font-stretch:condensed;font-size:10.6667px;line-height:1.25;font-family:'Noto Sans';-inkscape-font-specification:'Noto Sans, Condensed';letter-spacing:0px;word-spacing:0px;writing-mode:lr-tb"
     x="14.22156"
     y="69.991867"
     id="text6562"><tspan
       sodipodi:role="line"
       id="tspan6560"
       x="14.22156"
       y="69.991867">150</tspan></text>
  <text
     xml:space="preserve"
     style="font-stretch:condensed;font-size:10.6667px;line-height:1.25;font-family:'Noto Sans';-inkscape-font-specification:'Noto Sans, Condensed';letter-spacing:0px;word-spacing:0px;writing-mode:lr-tb"
     x="14.22156"
     y="29.931868"
     id="text6566"><tspan
       sodipodi:role="line"
       id="tspan6564"
       x="14.22156"
       y="29.931868">200</tspan></text>
  <text
     xml:space="preserve"
     style="font-stretch:condensed;font-size:10.6667px;line-height:1.25;font-family:'Noto Sans';-inkscape-font-specification:'Noto Sans, Condensed';letter-spacing:0px;word-spacing:0px;writing-mode:lr-tb"
     x="137.30759"
     y="240.16249"
     id="text6570"><tspan
       sodipodi:role="line"
       id="tspan6568"
       x="137.30759"
       y="240.16249">Wavelength (nm)</tspan></text>
  <text
     xml:space="preserve"
     style="font-stretch:condensed;font-size:10.6667px;line-height:1.25;font-family:'Noto Sans';-inkscape-font-specification:'Noto Sans, Condensed';letter-spacing:0px;word-spacing:0px;writing-mode:lr-tb"
     x="-172.32286"
     y="8.1066923"
     id="text6598"
     transform="rotate(-90)"><tspan
       sodipodi:role="line"
       id="tspan6596"
       x="-172.32286"
       y="8.1066923">Fluorescence intensity (A.U.)</tspan></text>
  <text
     xml:space="preserve"
     style="font-stretch:condensed;font-size:10.6667px;line-height:1.25;font-family:'Noto Sans';-inkscape-font-specification:'Noto Sans, Condensed';letter-spacing:0px;word-spacing:0px;writing-mode:lr-tb"
     x="-22.346731"
     y="98.496056"
     id="text1229"
     transform="rotate(-90)"><tspan
       sodipodi:role="line"
       id="tspan1227"
       x="-22.346731"
       y="98.496056">ANAP</tspan></text>
  <text
     xml:space="preserve"
     style="font-stretch:condensed;font-size:10.6667px;line-height:1.25;font-family:'Noto Sans';-inkscape-font-specification:'Noto Sans, Condensed';letter-spacing:0px;word-spacing:0px;writing-mode:lr-tb"
     x="-15.75469"
     y="137.6584"
     id="text1229-9"
     transform="rotate(-90)"><tspan
       sodipodi:role="line"
       id="tspan1227-1"
       x="-15.75469"
       y="137.6584">GFP</tspan></text>
  <text
     xml:space="preserve"
     style="font-stretch:condensed;font-size:10.6667px;line-height:1.25;font-family:'Noto Sans';-inkscape-font-specification:'Noto Sans, Condensed';letter-spacing:0px;word-spacing:0px;writing-mode:lr-tb"
     x="-34.165352"
     y="195.72563"
     id="text1229-9-4"
     transform="rotate(-90)"><tspan
       sodipodi:role="line"
       id="tspan1227-1-8"
       x="-34.165352"
       y="195.72563">TNP-ATP</tspan></text>
</svg>
