<?xml version="1.0" encoding="UTF-8" standalone="no"?>
<svg
   xmlns:dc="http://purl.org/dc/elements/1.1/"
   xmlns:cc="http://creativecommons.org/ns#"
   xmlns:rdf="http://www.w3.org/1999/02/22-rdf-syntax-ns#"
   xmlns:svg="http://www.w3.org/2000/svg"
   xmlns="http://www.w3.org/2000/svg"
   xmlns:sodipodi="http://sodipodi.sourceforge.net/DTD/sodipodi-0.dtd"
   xmlns:inkscape="http://www.inkscape.org/namespaces/inkscape"
   width="121.4567mm"
   height="53.789116mm"
   viewBox="0 0 121.4567 53.789116"
   version="1.1"
   id="svg857"
   inkscape:version="1.0.1 (3bc2e813f5, 2020-09-07, custom)"
   sodipodi:docname="wt_confocal_profiles.svg">
  <defs
     id="defs851">
    <marker
       style="overflow:visible"
       id="Arrow1Lend"
       refX="0"
       refY="0"
       orient="auto"
       inkscape:stockid="Arrow1Lend"
       inkscape:isstock="true">
      <path
         transform="matrix(-0.8,0,0,-0.8,-10,0)"
         style="fill:#d81b60;fill-opacity:1;fill-rule:evenodd;stroke:#d81b60;stroke-width:1pt;stroke-opacity:1"
         d="M 0,0 5,-5 -12.5,0 5,5 Z"
         id="path7667" />
    </marker>
    <style
       type="text/css"
       id="style2063">*{stroke-linecap:butt;stroke-linejoin:round;}</style>
    <path
       d="M 0,0 V 3.5"
       id="m9aa919085b"
       style="stroke:#000000;stroke-width:0.8" />
    <path
       d="m 31.78125,66.40625 q -7.609375,0 -11.453125,-7.5 Q 16.5,51.421875 16.5,36.375 q 0,-14.984375 3.828125,-22.484375 3.84375,-7.5 11.453125,-7.5 7.671875,0 11.5,7.5 3.84375,7.5 3.84375,22.484375 0,15.046875 -3.84375,22.53125 -3.828125,7.5 -11.5,7.5 z m 0,7.8125 q 12.265625,0 18.734375,-9.703125 6.46875,-9.6875 6.46875,-28.140625 0,-18.40625 -6.46875,-28.109375 -6.46875,-9.6875 -18.734375,-9.6875 -12.25,0 -18.71875,9.6875 Q 6.59375,17.96875 6.59375,36.375 q 0,18.453125 6.46875,28.140625 6.46875,9.703125 18.71875,9.703125 z"
       id="DejaVuSans-48" />
    <path
       d="m 12.40625,8.296875 h 16.109375 v 55.625 L 10.984375,60.40625 v 8.984375 l 17.4375,3.515625 H 38.28125 V 8.296875 H 54.390625 V 0 H 12.40625 Z"
       id="DejaVuSans-49" />
    <path
       d="M 19.1875,8.296875 H 53.609375 V 0 H 7.328125 v 8.296875 q 5.609375,5.8125 15.296875,15.59375 9.703125,9.796875 12.1875,12.640625 4.734375,5.3125 6.609375,9 1.890625,3.6875 1.890625,7.25 0,5.8125 -4.078125,9.46875 -4.078125,3.671875 -10.625,3.671875 -4.640625,0 -9.796875,-1.609375 -5.140625,-1.609375 -11,-4.890625 v 9.96875 Q 13.765625,71.78125 18.9375,73 q 5.1875,1.21875 9.484375,1.21875 11.328125,0 18.0625,-5.671875 6.734375,-5.65625 6.734375,-15.125 0,-4.5 -1.6875,-8.53125 Q 49.859375,40.875 45.40625,35.40625 44.1875,33.984375 37.640625,27.21875 31.109375,20.453125 19.1875,8.296875 Z"
       id="DejaVuSans-50" />
    <path
       d="M 40.578125,39.3125 Q 47.65625,37.796875 51.625,33 q 3.984375,-4.78125 3.984375,-11.8125 0,-10.78125 -7.421875,-16.703125 -7.421875,-5.90625 -21.09375,-5.90625 -4.578125,0 -9.4375,0.90625 -4.859375,0.90625 -10.03125,2.71875 v 9.515625 q 4.09375,-2.390625 8.96875,-3.609375 4.890625,-1.21875 10.21875,-1.21875 9.265625,0 14.125,3.65625 4.859375,3.65625 4.859375,10.640625 0,6.453125 -4.515625,10.078125 -4.515625,3.640625 -12.5625,3.640625 h -8.5 v 8.109375 h 8.890625 q 7.265625,0 11.125,2.90625 3.859375,2.90625 3.859375,8.375 0,5.609375 -3.984375,8.609375 -3.96875,3.015625 -11.390625,3.015625 -4.0625,0 -8.703125,-0.890625 Q 15.375,64.15625 9.8125,62.3125 v 8.78125 q 5.625,1.5625 10.53125,2.34375 4.90625,0.78125 9.25,0.78125 11.234375,0 17.765625,-5.109375 6.546875,-5.09375 6.546875,-13.78125 0,-6.0625 -3.46875,-10.234375 -3.46875,-4.171875 -9.859375,-5.78125 z"
       id="DejaVuSans-51" />
    <path
       d="M 0,0 H -3.5"
       id="mf29702de44"
       style="stroke:#000000;stroke-width:0.8" />
    <path
       d="M 10.6875,12.40625 H 21 V 0 H 10.6875 Z"
       id="DejaVuSans-46" />
    <path
       d="M 37.796875,64.3125 12.890625,25.390625 h 24.90625 z m -2.59375,8.59375 h 12.40625 V 25.390625 h 10.40625 V 17.1875 H 47.609375 V 0 h -9.8125 V 17.1875 H 4.890625 v 9.515625 z"
       id="DejaVuSans-52" />
    <path
       d="m 33.015625,40.375 q -6.640625,0 -10.53125,-4.546875 -3.875,-4.53125 -3.875,-12.4375 0,-7.859375 3.875,-12.4375 3.890625,-4.5625 10.53125,-4.5625 6.640625,0 10.515625,4.5625 3.875,4.578125 3.875,12.4375 0,7.90625 -3.875,12.4375 Q 39.65625,40.375 33.015625,40.375 Z M 52.59375,71.296875 V 62.3125 q -3.71875,1.75 -7.5,2.671875 -3.78125,0.9375 -7.5,0.9375 -9.765625,0 -14.921875,-6.59375 -5.140625,-6.59375 -5.875,-19.921875 2.875,4.25 7.21875,6.515625 4.359375,2.265625 9.578125,2.265625 10.984375,0 17.359375,-6.671875 6.375,-6.65625 6.375,-18.125 0,-11.234375 -6.640625,-18.03125 -6.640625,-6.78125 -17.671875,-6.78125 -12.65625,0 -19.34375,9.6875 -6.6875,9.703125 -6.6875,28.109375 0,17.28125 8.203125,27.5625 8.203125,10.28125 22.015625,10.28125 3.71875,0 7.5,-0.734375 3.78125,-0.734375 7.890625,-2.1875 z"
       id="DejaVuSans-54" />
    <path
       d="m 31.78125,34.625 q -7.03125,0 -11.0625,-3.765625 -4.015625,-3.765625 -4.015625,-10.34375 0,-6.59375 4.015625,-10.359375 4.03125,-3.765625 11.0625,-3.765625 7.03125,0 11.078125,3.78125 4.0625,3.796875 4.0625,10.34375 0,6.578125 -4.03125,10.34375 Q 38.875,34.625 31.78125,34.625 Z m -9.859375,4.1875 Q 15.578125,40.375 12.03125,44.71875 8.5,49.078125 8.5,55.328125 q 0,8.734375 6.21875,13.8125 6.234375,5.078125 17.0625,5.078125 10.890625,0 17.09375,-5.078125 6.203125,-5.078125 6.203125,-13.8125 0,-6.25 -3.546875,-10.609375 Q 48,40.375 41.703125,38.8125 q 7.125,-1.65625 11.09375,-6.5 3.984375,-4.828125 3.984375,-11.796875 0,-10.609375 -6.46875,-16.28125 -6.46875,-5.65625 -18.53125,-5.65625 -12.046875,0 -18.53125,5.65625 -6.46875,5.671875 -6.46875,16.28125 0,6.96875 4,11.796875 4.015625,4.84375 11.140625,6.5 z M 18.3125,54.390625 q 0,-5.65625 3.53125,-8.828125 3.546875,-3.171875 9.9375,-3.171875 6.359375,0 9.9375,3.171875 3.59375,3.171875 3.59375,8.828125 0,5.671875 -3.59375,8.84375 -3.578125,3.171875 -9.9375,3.171875 -6.390625,0 -9.9375,-3.171875 Q 18.3125,60.0625 18.3125,54.390625 Z"
       id="DejaVuSans-56" />
    <clipPath
       id="p27813e1b48">
      <rect
         height="92.403717"
         width="131.41862"
         x="122.94"
         y="219.22614"
         id="rect2333" />
    </clipPath>
    <clipPath
       id="p3d8200266e">
      <rect
         height="92.403717"
         width="131.41862"
         x="280.64233"
         y="219.22614"
         id="rect2336" />
    </clipPath>
    <clipPath
       id="p8534e9985a">
      <rect
         height="92.403717"
         width="131.41862"
         x="438.3447"
         y="219.22614"
         id="rect2339" />
    </clipPath>
    <clipPath
       id="p39b2eabf38">
      <rect
         height="92.403717"
         width="131.41862"
         x="596.04706"
         y="219.22614"
         id="rect2342" />
    </clipPath>
    <style
       type="text/css"
       id="style2560">*{stroke-linecap:butt;stroke-linejoin:round;}</style>
    <path
       d="M 0,0 V 3.5"
       id="m710a546a8d"
       style="stroke:#000000;stroke-width:0.8" />
    <path
       d="m 31.78125,66.40625 q -7.609375,0 -11.453125,-7.5 Q 16.5,51.421875 16.5,36.375 q 0,-14.984375 3.828125,-22.484375 3.84375,-7.5 11.453125,-7.5 7.671875,0 11.5,7.5 3.84375,7.5 3.84375,22.484375 0,15.046875 -3.84375,22.53125 -3.828125,7.5 -11.5,7.5 z m 0,7.8125 q 12.265625,0 18.734375,-9.703125 6.46875,-9.6875 6.46875,-28.140625 0,-18.40625 -6.46875,-28.109375 -6.46875,-9.6875 -18.734375,-9.6875 -12.25,0 -18.71875,9.6875 Q 6.59375,17.96875 6.59375,36.375 q 0,18.453125 6.46875,28.140625 6.46875,9.703125 18.71875,9.703125 z"
       id="DejaVuSans-48-3" />
    <path
       d="M 19.1875,8.296875 H 53.609375 V 0 H 7.328125 v 8.296875 q 5.609375,5.8125 15.296875,15.59375 9.703125,9.796875 12.1875,12.640625 4.734375,5.3125 6.609375,9 1.890625,3.6875 1.890625,7.25 0,5.8125 -4.078125,9.46875 -4.078125,3.671875 -10.625,3.671875 -4.640625,0 -9.796875,-1.609375 -5.140625,-1.609375 -11,-4.890625 v 9.96875 Q 13.765625,71.78125 18.9375,73 q 5.1875,1.21875 9.484375,1.21875 11.328125,0 18.0625,-5.671875 6.734375,-5.65625 6.734375,-15.125 0,-4.5 -1.6875,-8.53125 Q 49.859375,40.875 45.40625,35.40625 44.1875,33.984375 37.640625,27.21875 31.109375,20.453125 19.1875,8.296875 Z"
       id="DejaVuSans-50-2" />
    <path
       d="M 37.796875,64.3125 12.890625,25.390625 h 24.90625 z m -2.59375,8.59375 h 12.40625 V 25.390625 h 10.40625 V 17.1875 H 47.609375 V 0 h -9.8125 V 17.1875 H 4.890625 v 9.515625 z"
       id="DejaVuSans-52-7" />
    <path
       d="M 0,0 H -3.5"
       id="mdc39fcc7b6"
       style="stroke:#000000;stroke-width:0.8" />
    <path
       d="M 10.6875,12.40625 H 21 V 0 H 10.6875 Z"
       id="DejaVuSans-46-9" />
    <path
       d="m 33.015625,40.375 q -6.640625,0 -10.53125,-4.546875 -3.875,-4.53125 -3.875,-12.4375 0,-7.859375 3.875,-12.4375 3.890625,-4.5625 10.53125,-4.5625 6.640625,0 10.515625,4.5625 3.875,4.578125 3.875,12.4375 0,7.90625 -3.875,12.4375 Q 39.65625,40.375 33.015625,40.375 Z M 52.59375,71.296875 V 62.3125 q -3.71875,1.75 -7.5,2.671875 -3.78125,0.9375 -7.5,0.9375 -9.765625,0 -14.921875,-6.59375 -5.140625,-6.59375 -5.875,-19.921875 2.875,4.25 7.21875,6.515625 4.359375,2.265625 9.578125,2.265625 10.984375,0 17.359375,-6.671875 6.375,-6.65625 6.375,-18.125 0,-11.234375 -6.640625,-18.03125 -6.640625,-6.78125 -17.671875,-6.78125 -12.65625,0 -19.34375,9.6875 -6.6875,9.703125 -6.6875,28.109375 0,17.28125 8.203125,27.5625 8.203125,10.28125 22.015625,10.28125 3.71875,0 7.5,-0.734375 3.78125,-0.734375 7.890625,-2.1875 z"
       id="DejaVuSans-54-3" />
    <path
       d="m 31.78125,34.625 q -7.03125,0 -11.0625,-3.765625 -4.015625,-3.765625 -4.015625,-10.34375 0,-6.59375 4.015625,-10.359375 4.03125,-3.765625 11.0625,-3.765625 7.03125,0 11.078125,3.78125 4.0625,3.796875 4.0625,10.34375 0,6.578125 -4.03125,10.34375 Q 38.875,34.625 31.78125,34.625 Z m -9.859375,4.1875 Q 15.578125,40.375 12.03125,44.71875 8.5,49.078125 8.5,55.328125 q 0,8.734375 6.21875,13.8125 6.234375,5.078125 17.0625,5.078125 10.890625,0 17.09375,-5.078125 6.203125,-5.078125 6.203125,-13.8125 0,-6.25 -3.546875,-10.609375 Q 48,40.375 41.703125,38.8125 q 7.125,-1.65625 11.09375,-6.5 3.984375,-4.828125 3.984375,-11.796875 0,-10.609375 -6.46875,-16.28125 -6.46875,-5.65625 -18.53125,-5.65625 -12.046875,0 -18.53125,5.65625 -6.46875,5.671875 -6.46875,16.28125 0,6.96875 4,11.796875 4.015625,4.84375 11.140625,6.5 z M 18.3125,54.390625 q 0,-5.65625 3.53125,-8.828125 3.546875,-3.171875 9.9375,-3.171875 6.359375,0 9.9375,3.171875 3.59375,3.171875 3.59375,8.828125 0,5.671875 -3.59375,8.84375 -3.578125,3.171875 -9.9375,3.171875 -6.390625,0 -9.9375,-3.171875 Q 18.3125,60.0625 18.3125,54.390625 Z"
       id="DejaVuSans-56-6" />
    <path
       d="m 12.40625,8.296875 h 16.109375 v 55.625 L 10.984375,60.40625 v 8.984375 l 17.4375,3.515625 H 38.28125 V 8.296875 H 54.390625 V 0 H 12.40625 Z"
       id="DejaVuSans-49-6" />
    <path
       d="M 40.578125,39.3125 Q 47.65625,37.796875 51.625,33 q 3.984375,-4.78125 3.984375,-11.8125 0,-10.78125 -7.421875,-16.703125 -7.421875,-5.90625 -21.09375,-5.90625 -4.578125,0 -9.4375,0.90625 -4.859375,0.90625 -10.03125,2.71875 v 9.515625 q 4.09375,-2.390625 8.96875,-3.609375 4.890625,-1.21875 10.21875,-1.21875 9.265625,0 14.125,3.65625 4.859375,3.65625 4.859375,10.640625 0,6.453125 -4.515625,10.078125 -4.515625,3.640625 -12.5625,3.640625 h -8.5 v 8.109375 h 8.890625 q 7.265625,0 11.125,2.90625 3.859375,2.90625 3.859375,8.375 0,5.609375 -3.984375,8.609375 -3.96875,3.015625 -11.390625,3.015625 -4.0625,0 -8.703125,-0.890625 Q 15.375,64.15625 9.8125,62.3125 v 8.78125 q 5.625,1.5625 10.53125,2.34375 4.90625,0.78125 9.25,0.78125 11.234375,0 17.765625,-5.109375 6.546875,-5.09375 6.546875,-13.78125 0,-6.0625 -3.46875,-10.234375 -3.46875,-4.171875 -9.859375,-5.78125 z"
       id="DejaVuSans-51-8" />
    <clipPath
       id="peee7cc0c29">
      <rect
         height="105.75092"
         width="131.41862"
         x="122.94"
         y="212.55254"
         id="rect2815" />
    </clipPath>
    <clipPath
       id="p5211319b7f">
      <rect
         height="105.75092"
         width="131.41862"
         x="280.64233"
         y="212.55254"
         id="rect2818" />
    </clipPath>
    <clipPath
       id="p6743d71380">
      <rect
         height="105.75092"
         width="131.41862"
         x="438.3447"
         y="212.55254"
         id="rect2821" />
    </clipPath>
    <clipPath
       id="p5453478c59">
      <rect
         height="105.75092"
         width="131.41862"
         x="596.04706"
         y="212.55254"
         id="rect2824" />
    </clipPath>
    <defs
       id="defs2090">
      <path
         d="M 0,0 V 3.5"
         id="path2391"
         style="stroke:#000000;stroke-width:0.8" />
    </defs>
    <defs
       id="defs2162">
      <path
         d="M 0,0 H -3.5"
         id="path2441"
         style="stroke:#000000;stroke-width:0.8" />
    </defs>
    <defs
       id="defs2587">
      <path
         d="M 0,0 V 3.5"
         id="path2873"
         style="stroke:#000000;stroke-width:0.8" />
    </defs>
    <defs
       id="defs2641">
      <path
         d="M 0,0 H -3.5"
         id="path2911"
         style="stroke:#000000;stroke-width:0.8" />
    </defs>
    <defs
       id="defs2805">
      <path
         d="M 40.578125,39.3125 Q 47.65625,37.796875 51.625,33 q 3.984375,-4.78125 3.984375,-11.8125 0,-10.78125 -7.421875,-16.703125 -7.421875,-5.90625 -21.09375,-5.90625 -4.578125,0 -9.4375,0.90625 -4.859375,0.90625 -10.03125,2.71875 v 9.515625 q 4.09375,-2.390625 8.96875,-3.609375 4.890625,-1.21875 10.21875,-1.21875 9.265625,0 14.125,3.65625 4.859375,3.65625 4.859375,10.640625 0,6.453125 -4.515625,10.078125 -4.515625,3.640625 -12.5625,3.640625 h -8.5 v 8.109375 h 8.890625 q 7.265625,0 11.125,2.90625 3.859375,2.90625 3.859375,8.375 0,5.609375 -3.984375,8.609375 -3.96875,3.015625 -11.390625,3.015625 -4.0625,0 -8.703125,-0.890625 Q 15.375,64.15625 9.8125,62.3125 v 8.78125 q 5.625,1.5625 10.53125,2.34375 4.90625,0.78125 9.25,0.78125 11.234375,0 17.765625,-5.109375 6.546875,-5.09375 6.546875,-13.78125 0,-6.0625 -3.46875,-10.234375 -3.46875,-4.171875 -9.859375,-5.78125 z"
         id="path3020" />
    </defs>
    <defs
       id="defs2098">
      <path
         d="m 31.78125,66.40625 q -7.609375,0 -11.453125,-7.5 Q 16.5,51.421875 16.5,36.375 q 0,-14.984375 3.828125,-22.484375 3.84375,-7.5 11.453125,-7.5 7.671875,0 11.5,7.5 3.84375,7.5 3.84375,22.484375 0,15.046875 -3.84375,22.53125 -3.828125,7.5 -11.5,7.5 z m 0,7.8125 q 12.265625,0 18.734375,-9.703125 6.46875,-9.6875 6.46875,-28.140625 0,-18.40625 -6.46875,-28.109375 -6.46875,-9.6875 -18.734375,-9.6875 -12.25,0 -18.71875,9.6875 Q 6.59375,17.96875 6.59375,36.375 q 0,18.453125 6.46875,28.140625 6.46875,9.703125 18.71875,9.703125 z"
         id="path2397" />
    </defs>
    <defs
       id="defs2112">
      <path
         d="m 12.40625,8.296875 h 16.109375 v 55.625 L 10.984375,60.40625 v 8.984375 l 17.4375,3.515625 H 38.28125 V 8.296875 H 54.390625 V 0 H 12.40625 Z"
         id="path2407" />
    </defs>
    <defs
       id="defs2130">
      <path
         d="M 19.1875,8.296875 H 53.609375 V 0 H 7.328125 v 8.296875 q 5.609375,5.8125 15.296875,15.59375 9.703125,9.796875 12.1875,12.640625 4.734375,5.3125 6.609375,9 1.890625,3.6875 1.890625,7.25 0,5.8125 -4.078125,9.46875 -4.078125,3.671875 -10.625,3.671875 -4.640625,0 -9.796875,-1.609375 -5.140625,-1.609375 -11,-4.890625 v 9.96875 Q 13.765625,71.78125 18.9375,73 q 5.1875,1.21875 9.484375,1.21875 11.328125,0 18.0625,-5.671875 6.734375,-5.65625 6.734375,-15.125 0,-4.5 -1.6875,-8.53125 Q 49.859375,40.875 45.40625,35.40625 44.1875,33.984375 37.640625,27.21875 31.109375,20.453125 19.1875,8.296875 Z"
         id="path2419" />
    </defs>
    <defs
       id="defs2148">
      <path
         d="M 40.578125,39.3125 Q 47.65625,37.796875 51.625,33 q 3.984375,-4.78125 3.984375,-11.8125 0,-10.78125 -7.421875,-16.703125 -7.421875,-5.90625 -21.09375,-5.90625 -4.578125,0 -9.4375,0.90625 -4.859375,0.90625 -10.03125,2.71875 v 9.515625 q 4.09375,-2.390625 8.96875,-3.609375 4.890625,-1.21875 10.21875,-1.21875 9.265625,0 14.125,3.65625 4.859375,3.65625 4.859375,10.640625 0,6.453125 -4.515625,10.078125 -4.515625,3.640625 -12.5625,3.640625 h -8.5 v 8.109375 h 8.890625 q 7.265625,0 11.125,2.90625 3.859375,2.90625 3.859375,8.375 0,5.609375 -3.984375,8.609375 -3.96875,3.015625 -11.390625,3.015625 -4.0625,0 -8.703125,-0.890625 Q 15.375,64.15625 9.8125,62.3125 v 8.78125 q 5.625,1.5625 10.53125,2.34375 4.90625,0.78125 9.25,0.78125 11.234375,0 17.765625,-5.109375 6.546875,-5.09375 6.546875,-13.78125 0,-6.0625 -3.46875,-10.234375 -3.46875,-4.171875 -9.859375,-5.78125 z"
         id="path2431" />
    </defs>
    <defs
       id="defs2170">
      <path
         d="M 10.6875,12.40625 H 21 V 0 H 10.6875 Z"
         id="path2447" />
    </defs>
    <defs
       id="defs2203">
      <path
         d="M 37.796875,64.3125 12.890625,25.390625 h 24.90625 z m -2.59375,8.59375 h 12.40625 V 25.390625 h 10.40625 V 17.1875 H 47.609375 V 0 h -9.8125 V 17.1875 H 4.890625 v 9.515625 z"
         id="path2468" />
    </defs>
    <defs
       id="defs2221">
      <path
         d="m 33.015625,40.375 q -6.640625,0 -10.53125,-4.546875 -3.875,-4.53125 -3.875,-12.4375 0,-7.859375 3.875,-12.4375 3.890625,-4.5625 10.53125,-4.5625 6.640625,0 10.515625,4.5625 3.875,4.578125 3.875,12.4375 0,7.90625 -3.875,12.4375 Q 39.65625,40.375 33.015625,40.375 Z M 52.59375,71.296875 V 62.3125 q -3.71875,1.75 -7.5,2.671875 -3.78125,0.9375 -7.5,0.9375 -9.765625,0 -14.921875,-6.59375 -5.140625,-6.59375 -5.875,-19.921875 2.875,4.25 7.21875,6.515625 4.359375,2.265625 9.578125,2.265625 10.984375,0 17.359375,-6.671875 6.375,-6.65625 6.375,-18.125 0,-11.234375 -6.640625,-18.03125 -6.640625,-6.78125 -17.671875,-6.78125 -12.65625,0 -19.34375,9.6875 -6.6875,9.703125 -6.6875,28.109375 0,17.28125 8.203125,27.5625 8.203125,10.28125 22.015625,10.28125 3.71875,0 7.5,-0.734375 3.78125,-0.734375 7.890625,-2.1875 z"
         id="path2480" />
    </defs>
    <defs
       id="defs2239">
      <path
         d="m 31.78125,34.625 q -7.03125,0 -11.0625,-3.765625 -4.015625,-3.765625 -4.015625,-10.34375 0,-6.59375 4.015625,-10.359375 4.03125,-3.765625 11.0625,-3.765625 7.03125,0 11.078125,3.78125 4.0625,3.796875 4.0625,10.34375 0,6.578125 -4.03125,10.34375 Q 38.875,34.625 31.78125,34.625 Z m -9.859375,4.1875 Q 15.578125,40.375 12.03125,44.71875 8.5,49.078125 8.5,55.328125 q 0,8.734375 6.21875,13.8125 6.234375,5.078125 17.0625,5.078125 10.890625,0 17.09375,-5.078125 6.203125,-5.078125 6.203125,-13.8125 0,-6.25 -3.546875,-10.609375 Q 48,40.375 41.703125,38.8125 q 7.125,-1.65625 11.09375,-6.5 3.984375,-4.828125 3.984375,-11.796875 0,-10.609375 -6.46875,-16.28125 -6.46875,-5.65625 -18.53125,-5.65625 -12.046875,0 -18.53125,5.65625 -6.46875,5.671875 -6.46875,16.28125 0,6.96875 4,11.796875 4.015625,4.84375 11.140625,6.5 z M 18.3125,54.390625 q 0,-5.65625 3.53125,-8.828125 3.546875,-3.171875 9.9375,-3.171875 6.359375,0 9.9375,3.171875 3.59375,3.171875 3.59375,8.828125 0,5.671875 -3.59375,8.84375 -3.578125,3.171875 -9.9375,3.171875 -6.390625,0 -9.9375,-3.171875 Q 18.3125,60.0625 18.3125,54.390625 Z"
         id="path2492" />
    </defs>
    <defs
       id="defs2595">
      <path
         d="m 31.78125,66.40625 q -7.609375,0 -11.453125,-7.5 Q 16.5,51.421875 16.5,36.375 q 0,-14.984375 3.828125,-22.484375 3.84375,-7.5 11.453125,-7.5 7.671875,0 11.5,7.5 3.84375,7.5 3.84375,22.484375 0,15.046875 -3.84375,22.53125 -3.828125,7.5 -11.5,7.5 z m 0,7.8125 q 12.265625,0 18.734375,-9.703125 6.46875,-9.6875 6.46875,-28.140625 0,-18.40625 -6.46875,-28.109375 -6.46875,-9.6875 -18.734375,-9.6875 -12.25,0 -18.71875,9.6875 Q 6.59375,17.96875 6.59375,36.375 q 0,18.453125 6.46875,28.140625 6.46875,9.703125 18.71875,9.703125 z"
         id="path2879" />
    </defs>
    <defs
       id="defs2609">
      <path
         d="M 19.1875,8.296875 H 53.609375 V 0 H 7.328125 v 8.296875 q 5.609375,5.8125 15.296875,15.59375 9.703125,9.796875 12.1875,12.640625 4.734375,5.3125 6.609375,9 1.890625,3.6875 1.890625,7.25 0,5.8125 -4.078125,9.46875 -4.078125,3.671875 -10.625,3.671875 -4.640625,0 -9.796875,-1.609375 -5.140625,-1.609375 -11,-4.890625 v 9.96875 Q 13.765625,71.78125 18.9375,73 q 5.1875,1.21875 9.484375,1.21875 11.328125,0 18.0625,-5.671875 6.734375,-5.65625 6.734375,-15.125 0,-4.5 -1.6875,-8.53125 Q 49.859375,40.875 45.40625,35.40625 44.1875,33.984375 37.640625,27.21875 31.109375,20.453125 19.1875,8.296875 Z"
         id="path2889" />
    </defs>
    <defs
       id="defs2627">
      <path
         d="M 37.796875,64.3125 12.890625,25.390625 h 24.90625 z m -2.59375,8.59375 h 12.40625 V 25.390625 h 10.40625 V 17.1875 H 47.609375 V 0 h -9.8125 V 17.1875 H 4.890625 v 9.515625 z"
         id="path2901" />
    </defs>
    <defs
       id="defs2649">
      <path
         d="M 10.6875,12.40625 H 21 V 0 H 10.6875 Z"
         id="path2917" />
    </defs>
    <defs
       id="defs2697">
      <path
         d="m 33.015625,40.375 q -6.640625,0 -10.53125,-4.546875 -3.875,-4.53125 -3.875,-12.4375 0,-7.859375 3.875,-12.4375 3.890625,-4.5625 10.53125,-4.5625 6.640625,0 10.515625,4.5625 3.875,4.578125 3.875,12.4375 0,7.90625 -3.875,12.4375 Q 39.65625,40.375 33.015625,40.375 Z M 52.59375,71.296875 V 62.3125 q -3.71875,1.75 -7.5,2.671875 -3.78125,0.9375 -7.5,0.9375 -9.765625,0 -14.921875,-6.59375 -5.140625,-6.59375 -5.875,-19.921875 2.875,4.25 7.21875,6.515625 4.359375,2.265625 9.578125,2.265625 10.984375,0 17.359375,-6.671875 6.375,-6.65625 6.375,-18.125 0,-11.234375 -6.640625,-18.03125 -6.640625,-6.78125 -17.671875,-6.78125 -12.65625,0 -19.34375,9.6875 -6.6875,9.703125 -6.6875,28.109375 0,17.28125 8.203125,27.5625 8.203125,10.28125 22.015625,10.28125 3.71875,0 7.5,-0.734375 3.78125,-0.734375 7.890625,-2.1875 z"
         id="path2947" />
    </defs>
    <defs
       id="defs2715">
      <path
         d="m 31.78125,34.625 q -7.03125,0 -11.0625,-3.765625 -4.015625,-3.765625 -4.015625,-10.34375 0,-6.59375 4.015625,-10.359375 4.03125,-3.765625 11.0625,-3.765625 7.03125,0 11.078125,3.78125 4.0625,3.796875 4.0625,10.34375 0,6.578125 -4.03125,10.34375 Q 38.875,34.625 31.78125,34.625 Z m -9.859375,4.1875 Q 15.578125,40.375 12.03125,44.71875 8.5,49.078125 8.5,55.328125 q 0,8.734375 6.21875,13.8125 6.234375,5.078125 17.0625,5.078125 10.890625,0 17.09375,-5.078125 6.203125,-5.078125 6.203125,-13.8125 0,-6.25 -3.546875,-10.609375 Q 48,40.375 41.703125,38.8125 q 7.125,-1.65625 11.09375,-6.5 3.984375,-4.828125 3.984375,-11.796875 0,-10.609375 -6.46875,-16.28125 -6.46875,-5.65625 -18.53125,-5.65625 -12.046875,0 -18.53125,5.65625 -6.46875,5.671875 -6.46875,16.28125 0,6.96875 4,11.796875 4.015625,4.84375 11.140625,6.5 z M 18.3125,54.390625 q 0,-5.65625 3.53125,-8.828125 3.546875,-3.171875 9.9375,-3.171875 6.359375,0 9.9375,3.171875 3.59375,3.171875 3.59375,8.828125 0,5.671875 -3.59375,8.84375 -3.578125,3.171875 -9.9375,3.171875 -6.390625,0 -9.9375,-3.171875 Q 18.3125,60.0625 18.3125,54.390625 Z"
         id="path2959" />
    </defs>
    <defs
       id="defs2733">
      <path
         d="m 12.40625,8.296875 h 16.109375 v 55.625 L 10.984375,60.40625 v 8.984375 l 17.4375,3.515625 H 38.28125 V 8.296875 H 54.390625 V 0 H 12.40625 Z"
         id="path2971" />
    </defs>
    <marker
       style="overflow:visible"
       id="Arrow1Lend-6"
       refX="0"
       refY="0"
       orient="auto"
       inkscape:stockid="Arrow1Lend"
       inkscape:isstock="true">
      <path
         transform="matrix(-0.8,0,0,-0.8,-10,0)"
         style="fill:#d81b60;fill-opacity:1;fill-rule:evenodd;stroke:#d81b60;stroke-width:1pt;stroke-opacity:1"
         d="M 0,0 5,-5 -12.5,0 5,5 Z"
         id="path7667-1" />
    </marker>
    <marker
       style="overflow:visible"
       id="Arrow1Lend-6-5"
       refX="0"
       refY="0"
       orient="auto"
       inkscape:stockid="Arrow1Lend"
       inkscape:isstock="true">
      <path
         transform="matrix(-0.8,0,0,-0.8,-10,0)"
         style="fill:#d81b60;fill-opacity:1;fill-rule:evenodd;stroke:#d81b60;stroke-width:1pt;stroke-opacity:1"
         d="M 0,0 5,-5 -12.5,0 5,5 Z"
         id="path7667-1-2" />
    </marker>
    <marker
       style="overflow:visible"
       id="Arrow1Lend-9"
       refX="0"
       refY="0"
       orient="auto"
       inkscape:stockid="Arrow1Lend"
       inkscape:isstock="true">
      <path
         transform="matrix(-0.8,0,0,-0.8,-10,0)"
         style="fill:#d81b60;fill-opacity:1;fill-rule:evenodd;stroke:#d81b60;stroke-width:1pt;stroke-opacity:1"
         d="M 0,0 5,-5 -12.5,0 5,5 Z"
         id="path7667-3" />
    </marker>
    <marker
       style="overflow:visible"
       id="Arrow1Lend-6-8"
       refX="0"
       refY="0"
       orient="auto"
       inkscape:stockid="Arrow1Lend"
       inkscape:isstock="true">
      <path
         transform="matrix(-0.8,0,0,-0.8,-10,0)"
         style="fill:#d81b60;fill-opacity:1;fill-rule:evenodd;stroke:#d81b60;stroke-width:1pt;stroke-opacity:1"
         d="M 0,0 5,-5 -12.5,0 5,5 Z"
         id="path7667-1-8" />
    </marker>
    <marker
       style="overflow:visible"
       id="Arrow1Lend-6-5-4"
       refX="0"
       refY="0"
       orient="auto"
       inkscape:stockid="Arrow1Lend"
       inkscape:isstock="true">
      <path
         transform="matrix(-0.8,0,0,-0.8,-10,0)"
         style="fill:#d81b60;fill-opacity:1;fill-rule:evenodd;stroke:#d81b60;stroke-width:1pt;stroke-opacity:1"
         d="M 0,0 5,-5 -12.5,0 5,5 Z"
         id="path7667-1-2-3" />
    </marker>
  </defs>
  <sodipodi:namedview
     id="base"
     pagecolor="#ffffff"
     bordercolor="#666666"
     borderopacity="1.0"
     inkscape:pageopacity="0.0"
     inkscape:pageshadow="2"
     inkscape:zoom="0.35"
     inkscape:cx="-175.96541"
     inkscape:cy="251.63139"
     inkscape:document-units="mm"
     inkscape:current-layer="layer1"
     inkscape:document-rotation="0"
     showgrid="false"
     inkscape:window-width="1366"
     inkscape:window-height="768"
     inkscape:window-x="0"
     inkscape:window-y="0"
     inkscape:window-maximized="1"
     inkscape:snap-global="true" />
  <metadata
     id="metadata854">
    <rdf:RDF>
      <cc:Work
         rdf:about="">
        <dc:format>image/svg+xml</dc:format>
        <dc:type
           rdf:resource="http://purl.org/dc/dcmitype/StillImage" />
        <dc:title></dc:title>
      </cc:Work>
    </rdf:RDF>
  </metadata>
  <g
     inkscape:label="Layer 1"
     inkscape:groupmode="layer"
     id="layer1"
     transform="translate(-152.48847,-122.24654)">
    <g
       id="g5985">
      <path
         style="fill:none;stroke:#d81b60;stroke-width:0.79375;stroke-linecap:butt;stroke-linejoin:miter;stroke-miterlimit:4;stroke-dasharray:none;stroke-opacity:1"
         d="m 246.36387,158.85768 h 5"
         id="path4989"
         sodipodi:nodetypes="cc" />
      <text
         xml:space="preserve"
         style="font-stretch:condensed;font-size:2.82223px;line-height:1.25;font-family:'Noto Sans';-inkscape-font-specification:'Noto Sans, Condensed';letter-spacing:0px;word-spacing:0px;writing-mode:lr-tb;stroke-width:0.264583"
         x="253.3768"
         y="159.57802"
         id="text4993"><tspan
           sodipodi:role="line"
           id="tspan4991"
           x="253.3768"
           y="159.57802"
           style="stroke-width:0.264583">Cellmask Deep Red</tspan></text>
      <path
         style="fill:none;stroke:#00acc1;stroke-width:0.79375;stroke-linecap:butt;stroke-linejoin:miter;stroke-miterlimit:4;stroke-dasharray:none;stroke-opacity:1"
         d="m 246.36387,149.24464 h 5"
         id="path4989-8"
         sodipodi:nodetypes="cc" />
      <path
         style="fill:none;stroke:#fdd835;stroke-width:0.79375;stroke-linecap:butt;stroke-linejoin:miter;stroke-miterlimit:4;stroke-dasharray:none;stroke-opacity:1"
         d="m 246.36387,154.05116 h 5"
         id="path4989-8-4"
         sodipodi:nodetypes="cc" />
      <text
         xml:space="preserve"
         style="font-stretch:condensed;font-size:2.82223px;line-height:1.25;font-family:'Noto Sans';-inkscape-font-specification:'Noto Sans, Condensed';letter-spacing:0px;word-spacing:0px;writing-mode:lr-tb;stroke-width:0.264583"
         x="253.52637"
         y="150.25359"
         id="text5027"><tspan
           sodipodi:role="line"
           id="tspan5025"
           x="253.52637"
           y="150.25359"
           style="stroke-width:0.264583">ANAP</tspan></text>
      <text
         xml:space="preserve"
         style="font-stretch:condensed;font-size:2.82223px;line-height:1.25;font-family:'Noto Sans';-inkscape-font-specification:'Noto Sans, Condensed';letter-spacing:0px;word-spacing:0px;writing-mode:lr-tb;stroke-width:0.264583"
         x="253.3768"
         y="154.85089"
         id="text5031"><tspan
           sodipodi:role="line"
           id="tspan5029"
           x="253.3768"
           y="154.85089"
           style="stroke-width:0.264583">GFP</tspan></text>
    </g>
    <path
       id="path2270"
       clip-path="none"
       style="fill:none;stroke:#fdd835;stroke-width:0.79375;stroke-linecap:square;stroke-miterlimit:4;stroke-dasharray:none"
       d="m 164.07965,170.63241 c 0.16783,-0.86866 0.004,-1.19536 0.75005,-1.12485 0.58766,-0.59998 0.82823,-1.20987 0.81569,-1.83985 0.7642,-0.8664 0.97216,0.53836 1.05147,0.99615 0.33684,0.25648 0.48801,0.83362 0.89714,-0.25057 0.21509,-0.80156 0.24433,-1.60741 0.73552,-2.40778 0.60056,0.45021 1.07728,-1.38759 1.33728,0.0485 0.79032,0.59494 0.41112,1.36323 0.67582,2.02523 0.16233,-0.28732 0.1831,-1.95697 0.86581,-1.18796 -0.11896,-0.0915 0.47368,-1.75541 1.14729,-0.8089 0.29654,0.41967 -0.057,1.49587 1.10292,1.54192 0.74118,-1.31853 0.67955,0.32821 1.13385,-0.17001 0.16575,-0.7439 0.0352,-1.44063 0.61078,-1.16906 1.79897,-5.09061 0.88095,-10.19708 2.07336,-15.29241 0.48255,0.35497 0.61047,2.09212 0.72124,1.10495 0.0223,-1.10832 0.38164,-2.21436 0.8445,-3.3197 0.78779,3.22977 1.033,6.46282 1.56576,9.69405 0.60923,0.58672 0.72855,-0.14527 0.97863,-0.84789 0.19361,-0.52588 0.28702,-2.06263 0.66125,-0.76593 0.58635,1.03012 0.79177,-0.65449 0.78554,-0.96799 0.53635,-4.35331 0.60606,-8.70908 1.3771,-13.06105 0.0998,0.915 0.65379,0.59815 0.64573,1.587 0.15733,0.83096 0.0589,1.66319 0.69634,2.4877 0.68522,-1.50899 0.48244,0.58392 0.75392,-0.15841 0.11527,-0.87858 0.54061,0.16855 0.61046,-1.07445 0.63202,-3.95599 0.52223,-7.91464 1.09606,-11.87104 0.99133,5.53559 0.28579,11.07734 1.34208,16.61147 0.69976,0.43701 0.48085,-1.06515 0.67013,-1.41068 0.4909,-5.07376 0.54826,-10.14858 1.11928,-15.22204 1.21423,4.70506 0.34365,9.42109 1.56574,14.12769 0.456,-0.92597 0.56143,0.8371 0.67103,1.18499 0.32842,0.0373 0.75551,0.10543 0.93905,-0.0961 0.0767,0.33311 0.34007,2.05893 0.52523,1.06595 0.25919,-1.42319 0.56223,0.74028 0.74894,-0.50593 0.009,-0.80305 0.572,-1.01641 0.57009,-1.72157 0.26518,-2.04914 0.53037,-4.09829 0.79555,-6.14744 1.02612,1.57477 0.53027,3.25784 1.16891,4.87278 0.0995,0.941 0.11055,1.88239 0.39682,2.82255 0.56286,-0.0172 0.21967,1.24588 0.43679,1.71726 0.35372,2.14113 0.27067,4.28583 0.90528,6.42466 0.28108,-0.53114 0.82211,-0.38845 0.82017,-1.34668 0.42383,-0.72068 0.49622,0.98131 0.65375,1.3195 0.17973,0.77431 0.35946,1.5486 0.5392,2.32291 0.70398,0.33331 1.40069,-0.43604 1.55589,-0.9783 0.19834,-1.52343 0.4695,0.67098 0.56588,-0.56949 0.0466,-0.70541 0.45988,-1.41886 0.56234,-0.28118 0.9523,-1.05009 0.91767,1.33329 0.96268,-0.22997 0.25816,-1.87143 0.60158,-3.74221 1.05043,-5.61325 0.61998,2.18774 0.57691,4.37877 1.11838,6.56706 0.45433,-1.17933 0.85539,-0.43681 1.05107,0.34457 0.19104,0.3314 0.34952,1.89574 1.21418,1.04929 -0.0338,-1.02347 0.86251,-1.12495 0.84451,-0.0417 0.86389,0.9194 0.72753,0.55176 0.88256,-0.35829 0.31118,-1.15921 0.0941,-0.64844 0.78227,0.18709 0.49484,0.51793 0.9613,1.29479 0.96259,0.25867 0.11924,-1.08023 0.37754,1.33469 0.80848,0.63359 0.17973,-0.78511 0.57688,-0.2412 0.58503,-1.38676 0.382,-1.01327 -0.0646,-2.04206 0.92171,-3.04339 0.30687,0.95231 0.1923,1.94214 1.56576,2.84867 -0.0237,-0.81978 0.53206,-0.86941 0.67103,-1.58272 0.95966,1.00645 0.68003,2.04521 1.11839,3.06507 0.40283,-0.34906 0.88741,-0.52535 1.43398,0.33488 0.51,0.3708 -0.13073,1.93808 0.83603,1.06089 0.2369,-1.58009 0.3591,1.03975 0.99534,-0.0672 0.003,-0.68868 0.79424,-1.46935 1.08971,-0.38389 0.27783,1.21294 0.84545,-0.40222 0.7478,-0.84177 0.42538,-0.35597 0.48311,-1.85388 0.57523,-0.68764 0.0374,1.4989 0.33164,-0.23001 0.51264,0.8085 0.20705,0.50126 0.24665,1.61997 0.89066,1.75524 1.26986,-2.01377 0.97824,-4.04719 1.86572,-6.0671 0.98964,1.2432 1.03487,2.47874 1.56575,3.72696 1.36295,-5.74725 0.81278,-11.50399 1.51303,-17.25489 0.40439,-2.78211 -0.0399,-5.57326 0.94742,-8.34955 0.67154,0.9186 0.37451,2.12728 0.63799,3.15641 0.37269,3.1695 0.70116,6.33933 1.37511,9.5072 0.51979,-0.44614 0.26133,1.13965 0.46988,1.50614 1.06952,5.96441 1.37913,11.93328 2.24535,17.89726 0.31063,1.24293 1.11934,-1.21745 1.01744,0.32772 0.45997,0.71491 0.65375,1.7372 0.84597,2.60866 -0.40621,0.8205 1.06175,1.43639 1.0133,2.22183 0.88742,-0.31254 0.54686,1.35603 0.85676,-0.0122 0.0531,-1.06741 0.61168,-0.89648 0.72942,0.069 0.26627,0.68356 0.30424,1.36863 0.42693,2.05314 0.49064,-1.06804 1.0203,-0.3212 1.11838,-1.22529 1.19386,0.0717 0.81764,0.75439 1.09676,1.39834 0.1506,0.2507 0.39455,0.50043 0.46899,0.75336" />
    <path
       id="path2273"
       clip-path="none"
       style="fill:none;stroke:#00acc1;stroke-width:0.79375;stroke-linecap:square;stroke-miterlimit:4;stroke-dasharray:none"
       d="m 164.07965,171.29823 c 0.89531,-1.86999 0.46102,-3.75433 1.34206,-5.62495 0.6801,1.50909 0.39692,3.06384 1.34206,4.55221 0.22714,-1.01868 0.72341,-2.03015 1.1184,-3.04677 0.006,0.67001 1.19149,1.28589 1.34206,0.57559 0.63748,-0.67489 0.69506,-1.36101 1.11839,-2.04044 0.0862,1.20665 0.87841,-0.38619 0.89471,0.78961 0.29855,-0.59875 0.70295,0.83897 0.82079,1.19745 0.19518,0.7599 0.83157,-0.13716 0.78,-0.77717 0.212,-0.89641 0.42399,-1.79283 0.63599,-2.68925 0.24841,0.82013 0.96372,0.78368 0.8853,1.6752 0.16326,0.34672 0.0402,2.08924 0.49155,1.11589 1.50829,-4.14539 3.14799,-8.25695 3.46807,-12.41753 0.067,-0.33978 0.29877,0.27205 1.02126,-0.12521 0.17892,0.98137 0.65277,-1.32433 0.84415,0.16363 0.349,-1.21354 0.82651,-0.15971 1.25135,0.44703 0.65483,0.60999 0.44541,-1.02636 0.71407,-1.35443 1.53909,-6.41878 0.93193,-12.84641 1.8371,-19.26809 0.58424,-0.0804 0.36818,1.23735 0.64211,1.69907 0.53642,2.10267 0.57264,4.19944 1.37099,6.29275 0.0745,0.70279 0.14913,1.40556 0.22367,2.10834 0.54066,-0.16372 0.37711,1.28498 0.67104,-0.0743 0.58215,-3.54437 0.19064,-7.09777 1.24574,-10.63682 0.27672,0.30153 0.17383,1.31416 0.30455,1.88916 0.33528,2.45089 0.35774,4.90338 0.91018,7.35316 0.46909,-2.55705 0.73035,-5.11535 1.34206,-7.67155 1.4644,4.48408 0.73161,8.99178 2.23678,13.47657 0.4623,-0.62081 0.19635,-1.26528 0.8947,-1.87416 0.18098,1.15347 1.08582,0.67071 1.00208,-0.19209 0.31967,-0.70911 0.66043,-1.41924 0.78735,-2.13666 0.19554,0.65389 0.78638,1.29567 0.89471,1.95337 -0.16092,-1.18761 1.63692,0.1437 1.29536,0.62895 0.53571,1.0676 0.81979,-0.15994 0.9514,1.01684 0.4296,0.42626 -0.1995,1.69365 1.14197,1.44711 0.1638,-0.78351 0.36857,-1.18896 1.08483,-0.63747 -0.0569,1.0001 0.57302,0.62952 0.83728,0.91445 0.3691,0.95268 0.62189,-0.37528 0.60525,0.97154 -0.11647,0.40662 0.45526,1.85329 0.63987,1.54355 0.36293,-0.19081 0.46541,-1.52161 0.81889,-0.93398 1.34239,0.0603 1.06831,-1.00476 1.41687,-1.38954 0.91947,-1.87127 0.63957,-3.76175 1.42603,-5.6413 0.34217,0.21359 0.35189,1.30615 0.46803,1.86057 0.38129,1.72525 0.22975,3.46213 0.94547,5.18007 0.74521,0.81545 0.39146,-0.99751 0.78143,-1.01106 0.63474,0.2167 0.55506,0.50904 0.81798,0.0735 0.0953,1.01381 0.97226,0.31666 1.30839,1.15625 0.44193,-0.90919 1.00665,-0.78653 1.02394,-1.4902 0.20341,-0.50425 0.52815,-0.68196 0.5418,-1.55904 0.67051,-1.26047 0.45459,-0.16098 0.66439,0.48036 0.5056,0.72065 1.10321,-0.1996 1.11992,-0.67324 0.60542,0.60469 0.34845,1.59255 0.61925,0.33959 0.26784,-0.96834 0.65719,0.52301 0.64435,-0.7868 0.67976,-1.46607 1.09152,-2.93615 1.64934,-4.40458 0.13941,0.0932 1.00564,-1.2168 1.19611,0.0335 0.95801,3.58795 1.2912,7.18183 2.26987,10.76741 0.7021,0.82283 0.33793,1.04422 1.05849,0.52247 1.02464,1.10416 0.56612,2.30085 1.29115,3.43698 0.26363,-0.96717 0.51261,0.32495 0.75535,-0.98405 0.16625,-0.34407 0.59065,-1.69065 0.86,-1.31455 -0.10743,0.7366 1.0089,1.44672 1.06878,2.17979 0.15326,-1.21639 0.58474,-0.0394 0.67103,0.5082 0.78354,-0.28606 0.57949,1.1977 0.95395,-0.0933 0.33123,-1.40553 0.31871,-2.81294 1.05915,-4.21538 0.47545,1.27452 0.67691,-0.1955 0.88466,0.95949 0.24107,0.80071 -0.12283,1.61489 0.45741,2.40755 0.29856,-1.42 0.40944,1.25116 0.77766,0.28183 0.0476,-0.75189 1.03921,-0.77828 0.85691,-1.60152 0.0291,-0.51074 0.12108,-1.57845 0.6814,-1.72761 0.94634,2.12272 0.29495,4.27113 2.15758,6.38016 0.41676,-0.49708 0.81745,1.01259 0.85532,1.3319 0.63377,1.97819 0.37373,3.977 1.60514,5.94091 0.93404,0.72991 1.2567,0.7778 1.47168,1.61498 0.2423,0.73726 0.82839,1.27656 1.07126,1.08973 0.69017,0.40168 -0.24781,1.50366 1.3222,1.49584 1.0526,0.12697 0.88356,-0.80804 1.27946,0.26975 0.63136,-0.27476 0.53843,1.18174 0.80212,1.61432 -0.1806,0.62235 1.03635,-0.43179 1.07825,-0.16056 0.27812,-0.93111 0.51744,0.39198 0.58008,0.47821" />
    <path
       id="path2276"
       clip-path="none"
       style="fill:none;stroke:#d81b60;stroke-width:0.79375;stroke-linecap:square;stroke-miterlimit:4;stroke-dasharray:none"
       d="m 164.07965,174.30938 c 1.28791,-0.18079 2.74173,-0.15837 3.7966,-0.28615 1.79578,-0.0256 1.53709,-0.5256 2.91372,-0.75884 0.86206,-0.73794 2.28445,-3.1e-4 2.68414,-0.81843 1.46173,-0.12932 1.67605,-0.39678 2.13227,-1.03667 1.33054,-4.27703 0.51707,-8.57218 1.8302,-12.84546 0.66488,-0.32422 0.2097,0.74634 1.18212,-0.14712 1.40124,3.36509 0.7104,6.75868 2.1383,10.12437 1.73631,0.43439 1.96541,-0.94814 2.09017,-1.27127 0.16455,-0.72393 0.89088,-1.47839 1.09487,-0.29768 0.43784,0.73388 0.51904,1.58645 1.387,2.24114 1.36139,-0.19821 1.50514,-0.55882 2.89131,-0.77834 0.61559,0.52557 1.3937,-0.82349 1.55444,-1.11989 2.47083,-4.56488 1.82982,-9.16102 2.72699,-13.74002 0.42962,-1.41704 -0.13653,-2.85255 1.10333,-4.25676 1.40136,0.53587 1.35283,1.01372 1.94076,0.9388 0.88625,-1.89692 0.7282,-3.80318 1.41441,-5.7015 1.46546,6.47521 0.69905,12.96805 3.69564,19.43082 0.98696,0.68596 1.55149,1.17558 2.11998,1.88075 0.83362,-0.58497 2.0696,0.33746 2.68413,-0.16628 1.15505,0.27661 0.17328,1.55229 1.78943,1.25826 0.96142,0.29798 2.23781,0.3784 2.39395,-0.29919 0.72845,-0.3666 1.0965,0.54547 2.52695,0.75063 1.77511,-0.13082 1.14142,-1.16359 1.74212,-1.64195 0.77782,-1.203 0.59792,-2.45268 1.83672,-3.62663 1.22234,1.80743 0.54983,3.70011 2.68415,5.4859 0.31214,-0.32609 0.55973,0.84447 1.40594,-0.2614 0.24979,-0.55236 2.17063,0.0987 2.39657,0.17543 0.19849,-0.23661 3.4009,-1.30631 2.57513,-0.92516 1.08917,0.32265 2.38275,-0.36739 2.13407,-0.94431 0.52544,-1.05301 0.48907,-2.11254 1.10643,-3.16402 0.63478,0.30548 0.38688,1.95002 1.31087,0.94235 1.58097,-9.88816 1.24905,-19.78256 2.49166,-29.67196 1.13981,5.24415 0.20942,10.50237 2.11717,15.74109 2.75804,3.00391 1.64638,6.07449 2.24597,9.1125 0.73066,4.31756 -0.41368,8.6708 2.90653,12.95625 0.58858,0.70357 2.20594,1.31381 2.57215,2.03953 0.82086,0.58022 1.92445,0.76291 2.68413,1.35615" />
    <g
       id="g5715"
       transform="translate(6.4956237,-9.9382437)">
      <path
         d="m 157.20802,184.93815 h -1"
         id="use2164"
         style="stroke:#000000;stroke-width:0.264583;stroke-miterlimit:4;stroke-dasharray:none"
         clip-path="none" />
      <path
         d="m 157.20802,176.69081 h -1"
         id="use2182"
         style="stroke:#000000;stroke-width:0.264583;stroke-miterlimit:4;stroke-dasharray:none"
         clip-path="none" />
      <path
         d="m 157.20802,168.44347 h -1"
         id="use2197"
         style="stroke:#000000;stroke-width:0.264583;stroke-miterlimit:4;stroke-dasharray:none"
         clip-path="none" />
      <path
         d="m 157.20802,160.19614 h -1"
         id="use2215"
         style="stroke:#000000;stroke-width:0.264583;stroke-miterlimit:4;stroke-dasharray:none"
         clip-path="none" />
      <path
         d="m 157.20802,151.9488 h -1"
         id="use2233"
         style="stroke:#000000;stroke-width:0.264583;stroke-miterlimit:4;stroke-dasharray:none"
         clip-path="none" />
      <path
         d="m 157.20802,143.70146 h -1"
         id="use2251"
         style="stroke:#000000;stroke-width:0.264583;stroke-miterlimit:4;stroke-dasharray:none"
         clip-path="none" />
      <path
         d="M 157.20802,184.93815 V 143.70146"
         style="fill:none;stroke:#000000;stroke-width:0.264583;stroke-linecap:square;stroke-linejoin:miter;stroke-miterlimit:4;stroke-dasharray:none"
         id="path2279"
         sodipodi:nodetypes="cc" />
      <text
         xml:space="preserve"
         style="font-stretch:condensed;font-size:2.82223px;line-height:1.25;font-family:'Noto Sans';-inkscape-font-specification:'Noto Sans, Condensed';letter-spacing:0px;word-spacing:0px;writing-mode:lr-tb;stroke-width:0.264583"
         x="152.29047"
         y="185.94568"
         id="text5628"><tspan
           sodipodi:role="line"
           id="tspan5626"
           x="152.29047"
           y="185.94568"
           style="stroke-width:0.264583">0.0</tspan></text>
      <text
         xml:space="preserve"
         style="font-stretch:condensed;font-size:2.82223px;line-height:1.25;font-family:'Noto Sans';-inkscape-font-specification:'Noto Sans, Condensed';letter-spacing:0px;word-spacing:0px;writing-mode:lr-tb;stroke-width:0.264583"
         x="152.30458"
         y="177.69835"
         id="text5632"><tspan
           sodipodi:role="line"
           id="tspan5630"
           x="152.30458"
           y="177.69835"
           style="stroke-width:0.264583">0.2</tspan></text>
      <text
         xml:space="preserve"
         style="font-stretch:condensed;font-size:2.82223px;line-height:1.25;font-family:'Noto Sans';-inkscape-font-specification:'Noto Sans, Condensed';letter-spacing:0px;word-spacing:0px;writing-mode:lr-tb;stroke-width:0.264583"
         x="152.21144"
         y="169.451"
         id="text5636"><tspan
           sodipodi:role="line"
           id="tspan5634"
           x="152.21144"
           y="169.451"
           style="stroke-width:0.264583">0.4</tspan></text>
      <text
         xml:space="preserve"
         style="font-stretch:condensed;font-size:2.82223px;line-height:1.25;font-family:'Noto Sans';-inkscape-font-specification:'Noto Sans, Condensed';letter-spacing:0px;word-spacing:0px;writing-mode:lr-tb;stroke-width:0.264583"
         x="152.28764"
         y="161.20367"
         id="text5640"><tspan
           sodipodi:role="line"
           id="tspan5638"
           x="152.28764"
           y="161.20367"
           style="stroke-width:0.264583">0.6</tspan></text>
      <text
         xml:space="preserve"
         style="font-stretch:condensed;font-size:2.82223px;line-height:1.25;font-family:'Noto Sans';-inkscape-font-specification:'Noto Sans, Condensed';letter-spacing:0px;word-spacing:0px;writing-mode:lr-tb;stroke-width:0.264583"
         x="152.27353"
         y="152.95633"
         id="text5644"><tspan
           sodipodi:role="line"
           id="tspan5642"
           x="152.27353"
           y="152.95633"
           style="stroke-width:0.264583">0.8</tspan></text>
      <text
         xml:space="preserve"
         style="font-stretch:condensed;font-size:2.82223px;line-height:1.25;font-family:'Noto Sans';-inkscape-font-specification:'Noto Sans, Condensed';letter-spacing:0px;word-spacing:0px;writing-mode:lr-tb;stroke-width:0.264583"
         x="152.29047"
         y="144.709"
         id="text5648"><tspan
           sodipodi:role="line"
           id="tspan5646"
           x="152.29047"
           y="144.709"
           style="stroke-width:0.264583">1.0</tspan></text>
    </g>
    <text
       xml:space="preserve"
       style="font-style:normal;font-variant:normal;font-weight:normal;font-stretch:condensed;font-size:3.88056px;line-height:1.25;font-family:'Noto Sans';-inkscape-font-specification:'Noto Sans, Condensed';font-variant-ligatures:normal;font-variant-caps:normal;font-variant-numeric:normal;font-variant-east-asian:normal;letter-spacing:0px;word-spacing:0px;writing-mode:lr-tb;stroke-width:0.265;stroke-linecap:butt;stroke-linejoin:round;stroke-miterlimit:4;stroke-dasharray:none"
       x="-159.74826"
       y="155.26695"
       id="text5841"
       transform="rotate(-90)"><tspan
         sodipodi:role="line"
         id="tspan5839"
         x="-159.74826"
         y="155.26695"
         style="font-style:normal;font-variant:normal;font-weight:normal;font-stretch:condensed;font-size:3.88056px;font-family:'Noto Sans';-inkscape-font-specification:'Noto Sans, Condensed';font-variant-ligatures:normal;font-variant-caps:normal;font-variant-numeric:normal;font-variant-east-asian:normal;stroke-width:0.265;stroke-miterlimit:4;stroke-dasharray:none">F / F<tspan
   style="font-size:65%;baseline-shift:sub"
   id="tspan5845">max</tspan></tspan></text>
    <path
       style="fill:none;stroke:#d81b60;stroke-width:0.265;stroke-linecap:butt;stroke-linejoin:miter;stroke-miterlimit:4;stroke-dasharray:none;stroke-opacity:1;marker-end:url(#Arrow1Lend)"
       d="m 178.6187,122.24654 v 8.20031"
       id="path7662" />
    <path
       style="fill:none;stroke:#d81b60;stroke-width:0.264999;stroke-linecap:butt;stroke-linejoin:miter;stroke-miterlimit:4;stroke-dasharray:none;stroke-opacity:1;marker-end:url(#Arrow1Lend-6)"
       d="m 196.96028,122.24654 v 8.20031"
       id="path7662-4" />
    <path
       style="fill:none;stroke:#d81b60;stroke-width:0.264999;stroke-linecap:butt;stroke-linejoin:miter;stroke-miterlimit:4;stroke-dasharray:none;stroke-opacity:1;marker-end:url(#Arrow1Lend-6-5)"
       d="m 231.85402,122.24654 v 8.20031"
       id="path7662-4-5" />
  </g>
</svg>
