<?xml version="1.0" encoding="UTF-8" standalone="no"?>
<svg
   xmlns:dc="http://purl.org/dc/elements/1.1/"
   xmlns:cc="http://creativecommons.org/ns#"
   xmlns:rdf="http://www.w3.org/1999/02/22-rdf-syntax-ns#"
   xmlns:svg="http://www.w3.org/2000/svg"
   xmlns="http://www.w3.org/2000/svg"
   xmlns:sodipodi="http://sodipodi.sourceforge.net/DTD/sodipodi-0.dtd"
   xmlns:inkscape="http://www.inkscape.org/namespaces/inkscape"
   viewBox="0 0 394.55634 254.19772"
   version="1.1"
   id="svg142433"
   sodipodi:docname="simulated_noise_1.svg"
   width="394.55634"
   height="254.19772"
   inkscape:version="1.0.1 (3bc2e813f5, 2020-09-07, custom)">
  <g
     id="g143067"
     transform="matrix(1,0,0,0.7349975,90.88089,102.19074)"
     style="stroke-width:1.16643;stroke-miterlimit:10;stroke-dasharray:none">
    <path
       style="fill:none;stroke:#000000;stroke-width:1.16643;stroke-linecap:butt;stroke-linejoin:miter;stroke-miterlimit:10;stroke-dasharray:none;stroke-opacity:1"
       d="m -65.861911,120.72106 v 56.78"
       id="path143026" />
    <path
       style="fill:none;stroke:#000000;stroke-width:1.16643;stroke-linecap:butt;stroke-linejoin:miter;stroke-miterlimit:10;stroke-dasharray:none;stroke-opacity:1"
       d="M -65.861911,177.50106 H -7.8619113"
       id="path143028" />
  </g>
  <metadata
     id="metadata142437">
    <rdf:RDF>
      <cc:Work
         rdf:about="">
        <dc:format>image/svg+xml</dc:format>
        <dc:type
           rdf:resource="http://purl.org/dc/dcmitype/StillImage" />
        <dc:title></dc:title>
      </cc:Work>
    </rdf:RDF>
  </metadata>
  <sodipodi:namedview
     pagecolor="#ffffff"
     bordercolor="#666666"
     borderopacity="1"
     objecttolerance="10"
     gridtolerance="10"
     guidetolerance="10"
     inkscape:pageopacity="0"
     inkscape:pageshadow="2"
     inkscape:window-width="1366"
     inkscape:window-height="768"
     id="namedview142435"
     showgrid="false"
     inkscape:zoom="0.8263609"
     inkscape:cx="169.33086"
     inkscape:cy="91.085438"
     inkscape:window-x="0"
     inkscape:window-y="0"
     inkscape:window-maximized="0"
     inkscape:current-layer="svg142433" />
  <defs
     id="defs141876">
    <style
       type="text/css"
       id="style141874"><![CDATA[
    line, polyline, polygon, path, rect, circle {
      fill: none;
      stroke: #000000;
      stroke-linecap: round;
      stroke-linejoin: round;
      stroke-miterlimit: 10.00;
    }
  ]]></style>
  </defs>
  <defs
     id="defs141885">
    <clipPath
       id="cpNDIuOTJ8MTcwLjUzfDIzNi4yNXwyMi40MA==">
      <rect
         x="42.919998"
         y="22.4"
         width="127.61"
         height="213.86"
         id="rect141882" />
    </clipPath>
  </defs>
  <polyline
     points="48.72,218.36 48.83,217.45 48.95,222.67 49.06,220.17 49.18,220.86 49.30,222.90 49.41,220.86 49.53,222.45 49.64,220.63 49.76,220.63 49.88,220.63 49.99,219.95 50.11,221.31 50.22,221.08 50.34,219.49 50.46,218.81 50.57,224.49 50.69,218.58 50.81,219.04 50.92,221.08 51.04,215.40 51.15,221.99 51.27,221.08 51.39,220.63 51.50,224.26 51.62,223.35 51.73,218.36 51.85,219.95 51.97,220.86 52.08,219.95 52.20,216.77 52.31,222.22 52.43,221.76 52.55,222.22 52.66,219.49 52.78,219.27 52.89,221.31 53.01,217.22 53.13,221.08 53.24,217.22 53.36,223.81 53.47,218.81 53.59,217.68 53.71,215.40 53.82,223.58 53.94,219.49 54.05,218.13 54.17,219.72 54.29,218.58 54.40,220.63 54.52,222.22 54.63,219.72 54.75,220.17 54.87,219.95 54.98,221.76 55.10,221.76 55.21,218.36 55.33,220.86 55.45,220.17 55.56,219.04 55.68,222.45 55.79,223.81 55.91,215.86 56.03,219.72 56.14,217.90 56.26,218.81 56.37,220.40 56.49,224.04 56.61,220.63 56.72,219.95 56.84,218.13 56.95,222.67 57.07,224.04 57.19,219.72 57.30,219.49 57.42,222.45 57.53,225.40 57.65,220.17 57.77,216.99 57.88,221.31 58.00,219.27 58.11,223.35 58.23,219.49 58.35,218.13 58.46,219.27 58.58,219.04 58.69,220.40 58.81,222.22 58.93,220.40 59.04,224.49 59.16,218.36 59.27,215.63 59.39,219.72 59.51,220.40 59.62,223.13 59.74,218.81 59.85,221.99 59.97,214.95 60.09,218.36 60.20,216.99 60.32,219.04 60.43,220.17 60.55,221.76 60.67,222.22 60.78,218.58 60.90,224.72 61.01,219.49 61.13,220.17 61.25,217.90 61.36,220.86 61.48,219.27 61.59,222.45 61.71,219.72 61.83,223.58 61.94,216.31 62.06,221.31 62.17,220.63 62.29,215.63 62.41,219.49 62.52,220.86 62.64,215.86 62.75,223.58 62.87,217.90 62.99,220.17 63.10,222.45 63.22,220.40 63.33,218.58 63.45,218.81 63.57,221.08 63.68,219.49 63.80,220.86 63.91,218.36 64.03,224.26 64.15,219.72 64.26,221.76 64.38,221.08 64.49,217.68 64.61,217.68 64.73,224.72 64.84,217.68 64.96,217.45 65.07,222.67 65.19,216.99 65.31,221.76 65.42,219.95 65.54,224.26 65.65,221.31 65.77,223.35 65.89,222.67 66.00,218.58 66.12,222.22 66.23,221.08 66.35,219.27 66.47,226.08 66.58,219.49 66.70,218.36 66.81,220.86 66.93,222.22 67.05,221.99 67.16,217.22 67.28,219.04 67.39,217.68 67.51,215.63 67.63,221.31 67.74,220.17 67.86,219.27 67.97,223.13 68.09,220.17 68.21,219.72 68.32,220.86 68.44,216.77 68.55,220.40 68.67,217.45 68.79,218.58 68.90,218.81 69.02,220.17 69.14,221.08 69.25,222.45 69.37,216.77 69.48,220.40 69.60,219.04 69.72,215.40 69.83,219.95 69.95,219.95 70.06,218.58 70.18,222.22 70.30,223.81 70.41,221.08 70.53,222.90 70.64,218.58 70.76,221.31 70.88,217.45 70.99,219.95 71.11,219.95 71.22,219.04 71.34,220.86 71.46,218.81 71.57,223.58 71.69,219.49 71.80,223.58 71.92,222.22 72.04,219.27 72.15,216.77 72.27,219.95 72.38,219.04 72.50,217.90 72.62,220.86 72.73,218.13 72.85,220.17 72.96,219.27 73.08,222.22 73.20,220.40 73.31,219.27 73.43,223.81 73.54,220.86 73.66,220.17 73.78,218.13 73.89,222.45 74.01,223.35 74.12,224.49 74.24,217.90 74.36,216.31 74.47,219.72 74.59,218.13 74.70,219.27 74.82,222.45 74.94,221.08 75.05,220.17 75.17,223.81 75.28,221.08 75.40,220.63 75.52,221.08 75.63,221.08 75.75,220.17 75.86,221.31 75.98,217.22 76.10,218.13 76.21,219.95 76.33,217.90 76.44,220.40 76.56,219.04 76.68,217.45 76.79,218.81 76.91,221.08 77.02,219.27 77.14,223.81 77.26,219.27 77.37,218.36 77.49,222.90 77.60,222.67 77.72,221.31 77.84,216.99 77.95,221.31 78.07,224.04 78.18,222.67 78.30,220.86 78.42,218.58 78.53,220.40 78.65,217.90 78.76,221.99 78.88,221.99 79.00,219.04 79.11,216.31 79.23,224.04 79.34,217.68 79.46,216.09 79.58,219.04 79.69,221.99 79.81,219.72 79.92,221.08 80.04,220.63 80.16,221.54 80.27,217.45 80.39,219.27 80.50,219.27 80.62,222.90 80.74,216.54 80.85,219.95 80.97,223.35 81.08,222.90 81.20,219.49 81.32,221.76 81.43,221.08 81.55,216.31 81.66,219.95 81.78,222.67 81.90,219.95 82.01,219.27 82.13,221.54 82.24,217.45 82.36,221.08 82.48,219.04 82.59,219.04 82.71,219.95 82.82,220.63 82.94,221.08 83.06,219.27 83.17,221.08 83.29,223.35 83.40,222.90 83.52,221.54 83.64,219.27 83.75,218.81 83.87,216.77 83.98,219.27 84.10,222.22 84.22,220.63 84.33,221.31 84.45,221.54 84.56,216.54 84.68,221.31 84.80,218.13 84.91,221.31 85.03,220.63 85.14,222.90 85.26,216.99 85.38,219.49 85.49,221.08 85.61,218.13 85.72,220.63 85.84,222.22 85.96,220.86 86.07,217.45 86.19,221.08 86.30,221.54 86.42,219.27 86.54,221.76 86.65,213.59 86.77,222.22 86.88,222.22 87.00,223.13 87.12,220.63 87.23,220.86 87.35,221.99 87.46,218.13 87.58,217.90 87.70,223.81 87.81,221.76 87.93,221.31 88.05,217.90 88.16,219.27 88.28,221.54 88.39,218.13 88.51,220.17 88.63,221.76 88.74,221.31 88.86,221.54 88.97,219.95 89.09,216.31 89.21,220.40 89.32,219.04 89.44,222.22 89.55,214.95 89.67,218.81 89.79,221.31 89.90,221.31 90.02,220.86 90.13,222.67 90.25,221.08 90.37,220.17 90.48,220.40 90.60,220.86 90.71,217.68 90.83,219.27 90.95,221.54 91.06,221.76 91.18,222.22 91.29,214.04 91.41,220.40 91.53,219.04 91.64,217.68 91.76,219.27 91.87,223.35 91.99,217.22 92.11,220.40 92.22,220.40 92.34,221.54 92.45,219.95 92.57,216.77 92.69,221.31 92.80,221.76 92.92,221.08 93.03,219.04 93.15,222.22 93.27,218.81 93.38,221.76 93.50,223.58 93.61,222.90 93.73,217.90 93.85,224.04 93.96,223.13 94.08,223.35 94.19,219.49 94.31,222.22 94.43,221.76 94.54,218.13 94.66,219.04 94.77,222.45 94.89,224.04 95.01,222.22 95.12,220.63 95.24,221.76 95.35,226.53 95.47,222.67 95.59,217.45 95.70,218.81 95.82,219.49 95.93,221.76 96.05,219.04 96.17,218.81 96.28,219.27 96.40,219.27 96.51,216.54 96.63,219.49 96.75,218.13 96.86,218.13 96.98,220.63 97.09,221.08 97.21,222.22 97.33,221.54 97.44,217.90 97.56,217.68 97.67,221.08 97.79,216.99 97.91,223.13 98.02,216.99 98.14,219.95 98.25,220.86 98.37,221.31 98.49,216.77 98.60,223.13 98.72,221.31 98.83,217.90 98.95,223.35 99.07,216.77 99.18,219.95 99.30,222.45 99.41,223.13 99.53,223.35 99.65,221.54 99.76,219.49 99.88,222.22 99.99,219.95 100.11,221.99 100.23,219.95 100.34,221.31 100.46,218.81 100.57,219.27 100.69,224.26 100.81,221.54 100.92,222.45 101.04,221.31 101.15,221.08 101.27,219.49 101.39,216.31 101.50,219.95 101.62,216.54 101.73,221.99 101.85,218.13 101.97,221.31 102.08,218.81 102.20,222.45 102.31,220.40 102.43,219.72 102.55,223.58 102.66,222.90 102.78,223.35 102.89,215.86 103.01,221.76 103.13,221.54 103.24,217.90 103.36,223.35 103.47,220.17 103.59,220.86 103.71,225.63 103.82,220.17 103.94,218.36 104.05,216.54 104.17,217.22 104.29,218.58 104.40,218.36 104.52,220.17 104.63,224.04 104.75,218.36 104.87,219.04 104.98,219.95 105.10,223.13 105.21,219.27 105.33,221.54 105.45,220.40 105.56,220.86 105.68,221.31 105.79,216.99 105.91,221.99 106.03,221.76 106.14,219.27 106.26,219.72 106.37,218.36 106.49,221.76 106.61,219.49 106.72,224.04 106.84,219.72 106.96,221.76 107.07,219.49 107.19,221.31 107.30,215.18 107.42,221.31 107.54,222.45 107.65,217.90 107.77,221.76 107.88,218.36 108.00,221.54 108.12,221.08 108.23,221.99 108.35,218.58 108.46,221.99 108.58,219.27 108.70,220.63 108.81,219.27 108.93,220.63 109.04,219.27 109.16,220.17 109.28,219.04 109.39,220.17 109.51,221.54 109.62,219.27 109.74,217.90 109.86,223.35 109.97,222.67 110.09,222.90 110.20,223.13 110.32,222.67 110.44,221.54 110.55,219.49 110.67,219.04 110.78,219.95 110.90,221.76 111.02,222.67 111.13,218.36 111.25,220.86 111.36,221.31 111.48,218.81 111.60,219.49 111.71,221.76 111.83,223.81 111.94,214.50 112.06,219.27 112.18,221.76 112.29,220.17 112.41,218.81 112.52,219.27 112.64,218.81 112.76,219.72 112.87,215.18 112.99,224.04 113.10,221.08 113.22,220.17 113.34,221.76 113.45,221.99 113.57,224.49 113.68,219.27 113.80,223.35 113.92,214.72 114.03,218.81 114.15,221.31 114.26,219.72 114.38,220.17 114.50,221.76 114.61,224.72 114.73,220.86 114.84,220.86 114.96,223.35 115.08,219.27 115.19,224.49 115.31,220.17 115.42,219.95 115.54,220.40 115.66,221.54 115.77,218.81 115.89,218.36 116.00,220.86 116.12,221.31 116.24,217.22 116.35,219.04 116.47,224.04 116.58,220.86 116.70,219.72 116.82,216.77 116.93,220.40 117.05,222.67 117.16,217.68 117.28,223.13 117.40,216.77 117.51,221.08 117.63,222.67 117.74,219.72 117.86,222.22 117.98,224.94 118.09,222.45 118.21,222.45 118.32,218.81 118.44,222.67 118.56,221.08 118.67,216.54 118.79,216.31 118.90,217.22 119.02,218.13 119.14,219.04 119.25,216.09 119.37,221.99 119.48,219.04 119.60,223.35 119.72,221.31 119.83,226.08 119.95,221.99 120.06,218.36 120.18,216.31 120.30,224.49 120.41,221.99 120.53,218.81 120.64,221.08 120.76,221.76 120.88,219.49 120.99,219.27 121.11,220.40 121.22,218.36 121.34,225.17 121.46,220.63 121.57,221.08 121.69,218.13 121.80,219.95 121.92,219.49 122.04,218.81 122.15,224.94 122.27,222.22 122.38,221.76 122.50,217.68 122.62,220.63 122.73,216.09 122.85,220.63 122.96,220.40 123.08,218.13 123.20,220.40 123.31,217.45 123.43,223.13 123.54,217.68 123.66,220.40 123.78,220.40 123.89,219.95 124.01,221.99 124.12,222.90 124.24,219.49 124.36,214.95 124.47,222.22 124.59,219.49 124.70,222.90 124.82,222.45 124.94,221.08 125.05,217.90 125.17,220.86 125.28,220.86 125.40,221.54 125.52,219.04 125.63,222.45 125.75,219.04 125.87,219.72 125.98,217.68 126.10,223.58 126.21,219.49 126.33,218.13 126.45,219.72 126.56,220.63 126.68,218.58 126.79,217.90 126.91,221.99 127.03,221.08 127.14,222.22 127.26,222.22 127.37,223.58 127.49,215.86 127.61,221.31 127.72,216.54 127.84,221.76 127.95,221.54 128.07,216.99 128.19,219.27 128.30,219.27 128.42,220.40 128.53,222.45 128.65,220.40 128.77,222.45 128.88,217.22 129.00,222.45 129.11,220.86 129.23,224.94 129.35,219.95 129.46,220.63 129.58,222.45 129.69,221.76 129.81,220.40 129.93,214.72 130.04,219.72 130.16,220.17 130.27,220.63 130.39,220.63 130.51,218.36 130.62,220.63 130.74,219.49 130.85,219.27 130.97,222.90 131.09,216.99 131.20,222.90 131.32,214.27 131.43,217.45 131.55,219.27 131.67,222.22 131.78,222.45 131.90,223.81 132.01,220.63 132.13,218.13 132.25,224.72 132.36,222.22 132.48,216.99 132.59,224.94 132.71,219.72 132.83,220.17 132.94,219.27 133.06,223.58 133.17,221.08 133.29,220.17 133.41,219.72 133.52,221.54 133.64,220.63 133.75,222.90 133.87,221.31 133.99,221.54 134.10,219.04 134.22,220.17 134.33,220.17 134.45,217.45 134.57,223.13 134.68,215.86 134.80,220.86 134.91,218.36 135.03,220.40 135.15,219.27 135.26,217.22 135.38,222.22 135.49,221.54 135.61,219.27 135.73,217.45 135.84,219.04 135.96,226.08 136.07,219.72 136.19,221.54 136.31,217.68 136.42,220.63 136.54,220.17 136.65,220.17 136.77,222.22 136.89,226.08 137.00,217.22 137.12,221.31 137.23,218.81 137.35,223.58 137.47,222.22 137.58,218.36 137.70,225.17 137.81,222.90 137.93,217.22 138.05,219.49 138.16,223.13 138.28,221.76 138.39,221.08 138.51,219.04 138.63,222.45 138.74,219.72 138.86,221.54 138.97,219.95 139.09,222.22 139.21,218.81 139.32,221.76 139.44,218.81 139.55,221.31 139.67,218.81 139.79,221.76 139.90,218.36 140.02,219.49 140.13,220.86 140.25,221.54 140.37,220.17 140.48,221.99 140.60,221.76 140.71,219.72 140.83,220.17 140.95,222.67 141.06,219.04 141.18,221.54 141.29,223.81 141.41,218.36 141.53,220.17 141.64,217.90 141.76,219.27 141.87,219.27 141.99,219.27 142.11,217.45 142.22,217.68 142.34,220.86 142.45,220.86 142.57,222.90 142.69,219.49 142.80,222.67 142.92,221.99 143.03,219.49 143.15,219.04 143.27,217.68 143.38,221.31 143.50,220.86 143.61,221.54 143.73,221.31 143.85,223.81 143.96,226.31 144.08,217.45 144.20,220.40 144.31,220.63 144.43,219.72 144.54,222.90 144.66,221.31 144.78,222.22 144.89,222.45 145.01,221.76 145.12,221.31 145.24,223.58 145.36,224.94 145.47,219.04 145.59,216.09 145.70,218.81 145.82,220.63 145.94,221.54 146.05,217.90 146.17,222.22 146.28,222.90 146.40,221.99 146.52,221.08 146.63,220.63 146.75,218.81 146.86,218.13 146.98,219.95 147.10,218.81 147.21,219.49 147.33,218.81 147.44,222.45 147.56,217.22 147.68,221.99 147.79,225.17 147.91,220.40 148.02,217.68 148.14,224.26 148.26,221.54 148.37,219.49 148.49,219.04 148.60,216.09 148.72,219.04 148.84,218.81 148.95,218.13 149.07,218.36 149.18,220.86 149.30,222.22 149.42,216.31 149.53,215.18 149.65,221.76 149.76,219.95 149.88,217.68 150.00,221.54 150.11,219.72 150.23,219.27 150.34,221.76 150.46,223.81 150.58,221.99 150.69,224.26 150.81,217.90 150.92,222.45 151.04,223.35 151.16,223.13 151.27,218.13 151.39,219.72 151.50,218.58 151.62,222.22 151.74,224.94 151.85,220.86 151.97,221.76 152.08,220.63 152.20,218.36 152.32,220.40 152.43,217.90 152.55,219.49 152.66,217.45 152.78,217.68 152.90,218.36 153.01,221.54 153.13,216.99 153.24,222.22 153.36,216.09 153.48,218.81 153.59,220.40 153.71,220.40 153.82,223.35 153.94,223.58 154.06,221.99 154.17,218.58 154.29,222.67 154.40,222.90 154.52,222.22 154.64,217.68 154.75,220.63 154.87,219.27 154.98,218.58 155.10,222.22 155.22,218.81 155.33,218.58 155.45,225.40 155.56,220.86 155.68,218.36 155.80,222.90 155.91,218.81 156.03,221.54 156.14,223.13 156.26,216.77 156.38,218.13 156.49,220.17 156.61,219.04 156.72,222.67 156.84,222.67 156.96,221.08 157.07,224.26 157.19,219.04 157.30,218.36 157.42,221.54 157.54,221.76 157.65,219.04 157.77,220.86 157.88,222.90 158.00,220.40 158.12,221.08 158.23,221.99 158.35,221.76 158.46,217.68 158.58,224.26 158.70,220.40 158.81,220.40 158.93,222.22 159.04,217.68 159.16,218.36 159.28,216.54 159.39,220.86 159.51,222.45 159.62,219.49 159.74,220.63 159.86,222.90 159.97,222.22 160.09,221.08 160.20,219.49 160.32,220.86 160.44,217.22 160.55,221.99 160.67,221.08 160.78,219.49 160.90,221.99 161.02,222.90 161.13,222.45 161.25,221.31 161.36,219.95 161.48,219.49 161.60,220.86 161.71,216.31 161.83,219.27 161.94,220.40 162.06,221.99 162.18,223.13 162.29,217.45 162.41,219.95 162.52,221.08 162.64,219.49 162.76,219.49 162.87,224.04 162.99,221.31 163.11,221.31 163.22,220.63 163.34,220.86 163.45,219.72 163.57,220.17 163.69,220.40 163.80,219.72 163.92,218.81 164.03,216.99 164.15,221.76 164.27,216.09 164.38,221.08 164.50,217.90 164.61,223.13 164.73,221.54 "
     style="stroke:#000000;stroke-width:1.16643;stroke-linecap:butt;stroke-miterlimit:10;stroke-dasharray:none"
     clip-path="url(#cpNDIuOTJ8MTcwLjUzfDIzNi4yNXwyMi40MA==)"
     id="polyline141921"
     transform="matrix(1,0,0,0.7349975,-42.92,-98.638033)" />
  <defs
     id="defs141926">
    <clipPath
       id="cpMC4wMHw1MDQuMDB8NTA0LjAwfDAuMDA=">
      <rect
         x="0"
         y="0"
         width="504"
         height="504"
         id="rect141923" />
    </clipPath>
  </defs>
  <defs
     id="defs141931">
    <clipPath
       id="cpNDIuOTJ8MTcwLjUzfDQ3Mi41MXwyNTguNjU=">
      <rect
         x="42.919998"
         y="258.64999"
         width="127.61"
         height="213.86"
         id="rect141928" />
    </clipPath>
  </defs>
  <polyline
     points="48.72,347.87 48.83,351.27 48.95,350.14 49.06,356.27 49.18,348.32 49.30,347.64 49.41,347.41 49.53,347.64 49.64,350.59 49.76,346.28 49.88,346.28 49.99,355.13 50.11,356.50 50.22,354.00 50.34,349.46 50.46,345.82 50.57,350.14 50.69,347.18 50.81,343.10 50.92,350.14 51.04,343.32 51.15,352.86 51.27,341.73 51.39,344.23 51.50,346.96 51.62,340.82 51.73,342.64 51.85,347.41 51.97,347.18 52.08,346.50 52.20,342.64 52.31,345.59 52.43,356.72 52.55,350.14 52.66,350.59 52.78,350.14 52.89,346.73 53.01,349.23 53.13,349.00 53.24,349.68 53.36,342.64 53.47,344.91 53.59,348.77 53.71,347.64 53.82,344.46 53.94,347.87 54.05,343.32 54.17,348.77 54.29,351.50 54.40,357.40 54.52,351.73 54.63,344.23 54.75,345.14 54.87,347.64 54.98,350.36 55.10,345.82 55.21,349.91 55.33,347.64 55.45,341.28 55.56,346.28 55.68,345.59 55.79,346.50 55.91,344.23 56.03,351.05 56.14,344.69 56.26,346.73 56.37,355.13 56.49,350.14 56.61,343.10 56.72,351.27 56.84,346.73 56.95,339.69 57.07,348.09 57.19,348.55 57.30,348.09 57.42,347.18 57.53,347.18 57.65,345.82 57.77,346.05 57.88,342.64 58.00,346.73 58.11,341.05 58.23,345.59 58.35,343.32 58.46,348.09 58.58,348.55 58.69,352.18 58.81,357.18 58.93,349.91 59.04,342.87 59.16,347.18 59.27,350.14 59.39,349.00 59.51,346.28 59.62,346.50 59.74,347.18 59.85,354.68 59.97,350.82 60.09,352.86 60.20,343.32 60.32,343.32 60.43,354.45 60.55,345.14 60.67,350.36 60.78,352.86 60.90,344.91 61.01,351.05 61.13,347.87 61.25,344.91 61.36,353.54 61.48,350.82 61.59,343.10 61.71,347.87 61.83,349.46 61.94,347.64 62.06,347.41 62.17,349.68 62.29,345.14 62.41,345.37 62.52,343.10 62.64,356.72 62.75,347.18 62.87,347.41 62.99,346.96 63.10,342.64 63.22,343.78 63.33,346.28 63.45,344.91 63.57,341.28 63.68,346.73 63.80,345.82 63.91,345.82 64.03,349.68 64.15,346.73 64.26,348.55 64.38,347.41 64.49,345.59 64.61,351.50 64.73,345.59 64.84,346.05 64.96,347.87 65.07,345.82 65.19,347.41 65.31,350.36 65.42,344.69 65.54,350.59 65.65,344.23 65.77,351.05 65.89,346.28 66.00,348.09 66.12,342.41 66.23,353.09 66.35,345.82 66.47,346.50 66.58,343.55 66.70,350.36 66.81,341.96 66.93,348.32 67.05,342.19 67.16,349.00 67.28,345.82 67.39,347.87 67.51,350.14 67.63,339.46 67.74,344.69 67.86,351.50 67.97,349.00 68.09,346.73 68.21,349.23 68.32,341.51 68.44,352.18 68.55,349.46 68.67,352.86 68.79,347.18 68.90,339.69 69.02,347.18 69.14,343.55 69.25,339.69 69.37,352.63 69.48,342.19 69.60,349.46 69.72,346.73 69.83,355.81 69.95,343.55 70.06,348.55 70.18,345.37 70.30,347.18 70.41,345.82 70.53,344.69 70.64,351.27 70.76,351.73 70.88,345.14 70.99,347.87 71.11,347.64 71.22,352.86 71.34,348.09 71.46,345.82 71.57,348.32 71.69,349.46 71.80,359.22 71.92,347.64 72.04,349.23 72.15,347.41 72.27,346.73 72.38,346.28 72.50,348.09 72.62,351.05 72.73,354.22 72.85,347.18 72.96,347.64 73.08,344.69 73.20,344.00 73.31,341.73 73.43,349.91 73.54,345.82 73.66,346.96 73.78,349.00 73.89,347.87 74.01,346.73 74.12,346.28 74.24,352.86 74.36,349.46 74.47,351.73 74.59,346.05 74.70,350.36 74.82,343.55 74.94,348.32 75.05,347.64 75.17,344.46 75.28,345.37 75.40,349.46 75.52,347.18 75.63,350.14 75.75,342.19 75.86,350.59 75.98,352.86 76.10,346.28 76.21,344.23 76.33,348.32 76.44,347.18 76.56,338.78 76.68,349.00 76.79,346.73 76.91,341.73 77.02,354.22 77.14,344.23 77.26,343.10 77.37,350.14 77.49,347.87 77.60,347.41 77.72,348.55 77.84,347.87 77.95,344.91 78.07,346.05 78.18,344.69 78.30,346.96 78.42,346.96 78.53,344.91 78.65,345.37 78.76,346.28 78.88,344.23 79.00,344.00 79.11,348.55 79.23,347.64 79.34,344.00 79.46,348.32 79.58,353.32 79.69,347.64 79.81,346.50 79.92,345.14 80.04,341.51 80.16,345.82 80.27,345.82 80.39,351.27 80.50,347.87 80.62,347.87 80.74,349.46 80.85,347.64 80.97,347.41 81.08,343.78 81.20,345.82 81.32,355.36 81.43,354.22 81.55,351.05 81.66,348.32 81.78,350.14 81.90,348.09 82.01,346.96 82.13,345.82 82.24,347.64 82.36,343.32 82.48,347.18 82.59,349.91 82.71,349.46 82.82,338.78 82.94,352.18 83.06,346.05 83.17,344.00 83.29,348.32 83.40,346.28 83.52,349.46 83.64,347.64 83.75,346.28 83.87,345.37 83.98,353.77 84.10,353.09 84.22,349.91 84.33,345.59 84.45,345.82 84.56,348.77 84.68,350.82 84.80,337.42 84.91,342.87 85.03,347.18 85.14,354.45 85.26,346.73 85.38,348.77 85.49,346.50 85.61,349.46 85.72,344.23 85.84,345.37 85.96,345.37 86.07,346.73 86.19,348.77 86.30,349.68 86.42,350.14 86.54,346.50 86.65,338.33 86.77,355.59 86.88,345.82 87.00,335.15 87.12,352.18 87.23,346.50 87.35,346.73 87.46,346.73 87.58,351.73 87.70,354.68 87.81,346.96 87.93,348.09 88.05,349.46 88.16,345.37 88.28,352.63 88.39,346.28 88.51,349.23 88.63,341.73 88.74,349.68 88.86,344.23 88.97,347.18 89.09,353.77 89.21,348.09 89.32,341.05 89.44,347.64 89.55,341.96 89.67,347.87 89.79,348.09 89.90,344.00 90.02,349.91 90.13,350.82 90.25,347.87 90.37,345.82 90.48,346.28 90.60,343.55 90.71,351.05 90.83,345.37 90.95,351.05 91.06,342.19 91.18,353.32 91.29,351.27 91.41,351.95 91.53,349.00 91.64,352.18 91.76,350.82 91.87,350.36 91.99,342.87 92.11,344.69 92.22,349.00 92.34,355.36 92.45,355.59 92.57,344.00 92.69,347.18 92.80,343.55 92.92,347.41 93.03,347.87 93.15,344.91 93.27,348.77 93.38,348.55 93.50,347.18 93.61,341.96 93.73,341.05 93.85,346.96 93.96,347.64 94.08,348.77 94.19,351.73 94.31,351.73 94.43,346.05 94.54,350.59 94.66,345.37 94.77,347.64 94.89,346.28 95.01,348.09 95.12,347.18 95.24,342.87 95.35,346.05 95.47,349.91 95.59,336.74 95.70,342.87 95.82,352.86 95.93,345.82 96.05,355.13 96.17,351.05 96.28,350.82 96.40,349.91 96.51,344.23 96.63,349.00 96.75,354.22 96.86,349.46 96.98,349.46 97.09,344.46 97.21,352.18 97.33,345.37 97.44,342.19 97.56,344.23 97.67,348.55 97.79,348.55 97.91,343.55 98.02,346.73 98.14,345.37 98.25,344.00 98.37,345.14 98.49,346.96 98.60,344.69 98.72,347.87 98.83,353.32 98.95,349.46 99.07,342.41 99.18,346.05 99.30,355.13 99.41,343.10 99.53,346.50 99.65,348.32 99.76,347.18 99.88,350.36 99.99,344.00 100.11,343.10 100.23,348.55 100.34,347.18 100.46,344.69 100.57,346.96 100.69,353.32 100.81,347.87 100.92,349.00 101.04,348.55 101.15,349.46 101.27,353.54 101.39,346.96 101.50,353.32 101.62,350.36 101.73,348.77 101.85,352.63 101.97,348.32 102.08,348.32 102.20,342.64 102.31,346.73 102.43,348.09 102.55,350.14 102.66,353.77 102.78,347.41 102.89,351.05 103.01,351.05 103.13,347.18 103.24,345.37 103.36,345.59 103.47,341.96 103.59,351.73 103.71,346.73 103.82,346.96 103.94,349.91 104.05,346.05 104.17,352.41 104.29,346.96 104.40,346.28 104.52,340.37 104.63,341.73 104.75,348.77 104.87,341.96 104.98,348.09 105.10,344.91 105.21,346.73 105.33,345.82 105.45,344.46 105.56,345.59 105.68,349.46 105.79,349.68 105.91,342.19 106.03,346.50 106.14,347.41 106.26,342.41 106.37,347.18 106.49,343.10 106.61,354.45 106.72,343.78 106.84,347.41 106.96,342.41 107.07,346.96 107.19,346.28 107.30,353.09 107.42,350.82 107.54,347.87 107.65,351.73 107.77,349.23 107.88,347.87 108.00,353.32 108.12,347.41 108.23,355.36 108.35,347.18 108.46,351.95 108.58,346.05 108.70,343.32 108.81,344.00 108.93,346.05 109.04,354.00 109.16,348.55 109.28,355.81 109.39,343.32 109.51,344.46 109.62,347.87 109.74,346.50 109.86,346.96 109.97,351.50 110.09,345.59 110.20,346.05 110.32,344.69 110.44,350.36 110.55,350.14 110.67,350.14 110.78,351.95 110.90,350.82 111.02,342.64 111.13,346.50 111.25,353.77 111.36,345.14 111.48,350.59 111.60,346.28 111.71,348.77 111.83,343.78 111.94,344.23 112.06,347.87 112.18,340.60 112.29,348.09 112.41,346.50 112.52,354.91 112.64,346.28 112.76,348.09 112.87,351.95 112.99,343.10 113.10,351.05 113.22,338.78 113.34,341.28 113.45,350.59 113.57,341.73 113.68,343.55 113.80,346.96 113.92,347.64 114.03,349.23 114.15,345.59 114.26,349.46 114.38,352.18 114.50,352.63 114.61,349.23 114.73,346.28 114.84,348.32 114.96,347.87 115.08,341.73 115.19,346.73 115.31,346.96 115.42,351.50 115.54,346.28 115.66,345.14 115.77,352.86 115.89,352.41 116.00,347.87 116.12,345.14 116.24,353.32 116.35,350.59 116.47,345.82 116.58,343.55 116.70,351.05 116.82,348.32 116.93,348.09 117.05,348.55 117.16,349.46 117.28,346.05 117.40,349.00 117.51,349.68 117.63,347.64 117.74,345.14 117.86,344.69 117.98,348.32 118.09,351.27 118.21,351.05 118.32,339.23 118.44,353.32 118.56,348.32 118.67,352.63 118.79,351.05 118.90,349.46 119.02,342.19 119.14,346.73 119.25,347.18 119.37,343.32 119.48,351.50 119.60,349.00 119.72,346.28 119.83,348.09 119.95,344.00 120.06,355.13 120.18,344.46 120.30,346.28 120.41,347.87 120.53,347.18 120.64,352.63 120.76,346.50 120.88,344.46 120.99,346.28 121.11,346.73 121.22,348.09 121.34,347.64 121.46,351.27 121.57,351.95 121.69,341.96 121.80,343.55 121.92,341.96 122.04,343.78 122.15,342.19 122.27,349.91 122.38,347.64 122.50,342.87 122.62,348.55 122.73,349.68 122.85,346.50 122.96,349.46 123.08,345.82 123.20,352.63 123.31,353.54 123.43,353.32 123.54,352.63 123.66,344.46 123.78,348.09 123.89,346.28 124.01,349.00 124.12,351.73 124.24,348.77 124.36,345.82 124.47,351.95 124.59,344.69 124.70,346.50 124.82,350.36 124.94,355.81 125.05,349.23 125.17,348.77 125.28,348.09 125.40,339.46 125.52,342.64 125.63,347.64 125.75,346.05 125.87,350.36 125.98,351.50 126.10,344.46 126.21,347.18 126.33,349.68 126.45,346.05 126.56,344.91 126.68,354.00 126.79,348.77 126.91,345.82 127.03,353.32 127.14,352.63 127.26,347.18 127.37,345.14 127.49,344.46 127.61,345.59 127.72,348.55 127.84,350.36 127.95,349.68 128.07,349.68 128.19,351.27 128.30,346.96 128.42,349.00 128.53,347.18 128.65,339.92 128.77,348.55 128.88,345.37 129.00,351.05 129.11,345.59 129.23,347.18 129.35,346.50 129.46,344.69 129.58,347.87 129.69,347.87 129.81,349.46 129.93,345.59 130.04,345.59 130.16,348.09 130.27,349.23 130.39,349.68 130.51,347.64 130.62,349.46 130.74,350.59 130.85,346.73 130.97,346.50 131.09,345.59 131.20,342.64 131.32,339.69 131.43,347.64 131.55,346.28 131.67,352.41 131.78,341.96 131.90,345.14 132.01,341.73 132.13,345.14 132.25,342.87 132.36,344.46 132.48,350.59 132.59,347.87 132.71,351.95 132.83,347.64 132.94,346.96 133.06,351.95 133.17,352.41 133.29,351.73 133.41,347.41 133.52,350.14 133.64,341.51 133.75,345.59 133.87,345.14 133.99,353.77 134.10,341.05 134.22,352.18 134.33,348.77 134.45,344.46 134.57,350.82 134.68,353.32 134.80,349.00 134.91,347.41 135.03,340.82 135.15,347.18 135.26,347.64 135.38,346.28 135.49,352.18 135.61,345.82 135.73,345.14 135.84,353.54 135.96,353.09 136.07,346.96 136.19,347.18 136.31,351.50 136.42,342.87 136.54,342.19 136.65,343.32 136.77,341.96 136.89,344.91 137.00,347.41 137.12,341.28 137.23,346.96 137.35,347.18 137.47,343.32 137.58,349.91 137.70,347.18 137.81,342.19 137.93,349.00 138.05,344.23 138.16,346.96 138.28,347.87 138.39,346.96 138.51,342.41 138.63,346.28 138.74,349.46 138.86,350.59 138.97,352.18 139.09,347.18 139.21,347.87 139.32,344.91 139.44,346.96 139.55,347.87 139.67,350.36 139.79,345.82 139.90,344.91 140.02,348.32 140.13,343.55 140.25,346.50 140.37,349.68 140.48,346.05 140.60,341.73 140.71,345.82 140.83,350.14 140.95,348.32 141.06,349.23 141.18,351.95 141.29,349.91 141.41,348.77 141.53,346.28 141.64,344.91 141.76,346.50 141.87,348.77 141.99,349.46 142.11,346.50 142.22,356.50 142.34,337.42 142.45,348.32 142.57,345.14 142.69,347.64 142.80,342.87 142.92,348.77 143.03,345.82 143.15,349.91 143.27,351.05 143.38,348.55 143.50,344.91 143.61,344.91 143.73,348.55 143.85,351.27 143.96,344.00 144.08,344.23 144.20,347.18 144.31,351.05 144.43,349.00 144.54,341.51 144.66,351.50 144.78,347.18 144.89,352.41 145.01,349.91 145.12,348.55 145.24,348.77 145.36,348.32 145.47,351.95 145.59,345.82 145.70,339.69 145.82,346.73 145.94,344.23 146.05,346.05 146.17,347.18 146.28,341.05 146.40,349.23 146.52,349.23 146.63,341.96 146.75,343.10 146.86,345.59 146.98,352.18 147.10,346.05 147.21,353.32 147.33,342.64 147.44,353.09 147.56,344.69 147.68,345.37 147.79,348.32 147.91,352.63 148.02,349.91 148.14,345.14 148.26,348.55 148.37,344.23 148.49,349.46 148.60,346.50 148.72,348.09 148.84,350.14 148.95,346.50 149.07,348.32 149.18,347.41 149.30,342.64 149.42,345.82 149.53,346.28 149.65,350.82 149.76,349.46 149.88,345.82 150.00,348.32 150.11,342.41 150.23,349.91 150.34,351.50 150.46,342.64 150.58,344.23 150.69,347.87 150.81,349.23 150.92,349.91 151.04,348.32 151.16,352.18 151.27,349.68 151.39,350.14 151.50,350.36 151.62,349.23 151.74,347.18 151.85,345.82 151.97,345.82 152.08,350.59 152.20,349.23 152.32,351.50 152.43,347.64 152.55,350.59 152.66,346.28 152.78,347.87 152.90,352.41 153.01,343.55 153.13,348.77 153.24,352.18 153.36,349.23 153.48,346.50 153.59,344.23 153.71,349.23 153.82,352.18 153.94,348.32 154.06,346.50 154.17,348.09 154.29,352.18 154.40,338.10 154.52,346.28 154.64,346.28 154.75,339.01 154.87,347.64 154.98,343.78 155.10,350.82 155.22,344.46 155.33,349.91 155.45,347.41 155.56,342.64 155.68,346.05 155.80,349.00 155.91,350.82 156.03,353.54 156.14,347.87 156.26,348.09 156.38,347.41 156.49,349.46 156.61,354.22 156.72,354.91 156.84,348.09 156.96,352.41 157.07,343.32 157.19,351.73 157.30,344.23 157.42,352.18 157.54,351.05 157.65,352.41 157.77,347.64 157.88,342.19 158.00,346.28 158.12,348.55 158.23,347.18 158.35,351.50 158.46,343.10 158.58,350.36 158.70,347.41 158.81,351.73 158.93,345.14 159.04,345.14 159.16,350.14 159.28,346.73 159.39,349.46 159.51,344.69 159.62,344.69 159.74,346.96 159.86,349.46 159.97,343.55 160.09,347.18 160.20,347.41 160.32,345.59 160.44,345.82 160.55,348.55 160.67,352.63 160.78,349.91 160.90,342.87 161.02,345.59 161.13,350.14 161.25,348.32 161.36,340.14 161.48,350.36 161.60,348.77 161.71,348.09 161.83,351.73 161.94,344.69 162.06,353.54 162.18,339.92 162.29,351.73 162.41,349.91 162.52,348.32 162.64,345.14 162.76,350.14 162.87,343.55 162.99,346.05 163.11,347.87 163.22,350.14 163.34,354.22 163.45,345.59 163.57,348.55 163.69,347.18 163.80,344.91 163.92,351.27 164.03,348.77 164.15,346.96 164.27,346.50 164.38,342.87 164.50,349.23 164.61,347.64 164.73,345.14 "
     style="stroke:#000000;stroke-width:1.16643;stroke-linecap:butt;stroke-miterlimit:10;stroke-dasharray:none"
     clip-path="url(#cpNDIuOTJ8MTcwLjUzfDQ3Mi41MXwyNTguNjU=)"
     id="polyline141967"
     transform="matrix(1,0,0,0.7349975,-42.92,-98.638033)" />
  <defs
     id="defs141973">
    <clipPath
       id="clipPath141971">
      <rect
         x="0"
         y="0"
         width="504"
         height="504"
         id="rect141969" />
    </clipPath>
  </defs>
  <defs
     id="defs141978">
    <clipPath
       id="cpMTc2LjAxfDMwMy42MnwyMzYuMjV8MjIuNDA=">
      <rect
         x="176.00999"
         y="22.4"
         width="127.61"
         height="213.86"
         id="rect141975" />
    </clipPath>
  </defs>
  <polyline
     points="181.81,182.47 181.93,183.84 182.04,180.88 182.16,184.97 182.27,185.65 182.39,185.20 182.51,182.02 182.62,183.84 182.74,187.47 182.85,187.24 182.97,185.88 183.09,186.56 183.20,179.97 183.32,191.33 183.43,181.79 183.55,183.38 183.67,184.06 183.78,184.74 183.90,184.97 184.01,183.15 184.13,183.61 184.25,185.20 184.36,185.88 184.48,182.93 184.59,179.97 184.71,180.66 184.83,179.29 184.94,182.70 185.06,187.01 185.17,179.97 185.29,182.02 185.41,180.66 185.52,185.42 185.64,191.78 185.75,181.79 185.87,181.11 185.99,187.24 186.10,182.93 186.22,185.42 186.33,182.47 186.45,181.79 186.57,182.93 186.68,181.79 186.80,187.70 186.91,185.42 187.03,182.70 187.15,184.74 187.26,182.93 187.38,182.25 187.49,182.47 187.61,185.88 187.73,184.52 187.84,183.38 187.96,184.29 188.07,182.93 188.19,181.11 188.31,183.61 188.42,187.24 188.54,181.79 188.65,180.20 188.77,184.06 188.89,185.65 189.00,179.97 189.12,180.88 189.23,185.20 189.35,184.06 189.47,182.70 189.58,186.33 189.70,187.47 189.81,183.61 189.93,179.52 190.05,188.83 190.16,183.84 190.28,178.84 190.39,188.38 190.51,178.61 190.63,184.29 190.74,179.07 190.86,177.25 190.97,183.15 191.09,190.88 191.21,184.29 191.32,183.38 191.44,185.42 191.55,186.11 191.67,182.02 191.79,183.38 191.90,187.47 192.02,185.20 192.13,187.47 192.25,186.79 192.37,182.70 192.48,184.74 192.60,177.48 192.72,179.97 192.83,186.79 192.95,183.61 193.06,188.83 193.18,180.20 193.30,186.33 193.41,184.52 193.53,185.88 193.64,186.56 193.76,189.97 193.88,191.56 193.99,185.65 194.11,182.47 194.22,181.11 194.34,179.75 194.46,182.93 194.57,186.11 194.69,186.11 194.80,185.65 194.92,181.34 195.04,182.02 195.15,179.75 195.27,185.20 195.38,186.79 195.50,180.88 195.62,177.70 195.73,179.97 195.85,183.38 195.96,182.25 196.08,185.88 196.20,184.06 196.31,184.52 196.43,178.16 196.54,185.42 196.66,182.70 196.78,188.15 196.89,184.06 197.01,183.61 197.12,184.29 197.24,182.93 197.36,185.88 197.47,185.88 197.59,188.38 197.70,183.15 197.82,179.29 197.94,183.61 198.05,184.29 198.17,180.66 198.28,177.70 198.40,185.42 198.52,181.79 198.63,182.02 198.75,184.74 198.86,185.20 198.98,182.47 199.10,184.52 199.21,181.11 199.33,183.61 199.44,190.65 199.56,183.61 199.68,177.70 199.79,188.38 199.91,189.51 200.02,185.42 200.14,183.15 200.26,189.29 200.37,184.06 200.49,184.06 200.60,189.06 200.72,185.88 200.84,184.97 200.95,181.34 201.07,184.97 201.18,184.29 201.30,187.24 201.42,183.61 201.53,186.33 201.65,190.88 201.76,183.61 201.88,176.79 202.00,188.83 202.11,178.16 202.23,189.74 202.34,185.65 202.46,184.06 202.58,184.52 202.69,183.15 202.81,182.93 202.92,183.38 203.04,187.01 203.16,186.11 203.27,181.34 203.39,182.70 203.50,181.11 203.62,183.84 203.74,190.19 203.85,179.52 203.97,187.70 204.08,174.30 204.20,186.79 204.32,181.11 204.43,184.52 204.55,185.88 204.66,186.79 204.78,182.93 204.90,182.02 205.01,182.70 205.13,179.52 205.24,182.02 205.36,183.15 205.48,184.97 205.59,186.56 205.71,189.29 205.82,181.79 205.94,185.20 206.06,189.97 206.17,184.97 206.29,180.20 206.40,184.97 206.52,183.61 206.64,184.74 206.75,186.79 206.87,182.02 206.98,188.15 207.10,184.06 207.22,180.66 207.33,184.52 207.45,187.70 207.56,185.20 207.68,187.47 207.80,191.56 207.91,183.61 208.03,185.88 208.14,179.52 208.26,185.42 208.38,185.20 208.49,185.20 208.61,188.83 208.72,182.47 208.84,180.20 208.96,182.02 209.07,191.78 209.19,181.79 209.30,181.11 209.42,184.74 209.54,185.88 209.65,188.38 209.77,187.70 209.88,181.79 210.00,174.75 210.12,184.52 210.23,181.79 210.35,181.34 210.46,182.70 210.58,183.61 210.70,185.65 210.81,185.20 210.93,179.29 211.05,186.56 211.16,181.34 211.28,190.19 211.39,187.01 211.51,180.66 211.63,180.20 211.74,184.74 211.86,188.60 211.97,184.52 212.09,179.52 212.21,184.06 212.32,186.33 212.44,184.06 212.55,188.60 212.67,183.15 212.79,184.06 212.90,179.75 213.02,182.02 213.13,185.20 213.25,182.70 213.37,192.92 213.48,183.84 213.60,186.79 213.71,185.20 213.83,184.06 213.95,179.75 214.06,181.34 214.18,182.47 214.29,187.47 214.41,182.47 214.53,189.97 214.64,187.70 214.76,185.20 214.87,179.75 214.99,182.47 215.11,186.56 215.22,182.70 215.34,188.15 215.45,180.43 215.57,186.56 215.69,185.65 215.80,183.61 215.92,187.47 216.03,181.34 216.15,184.52 216.27,184.29 216.38,185.20 216.50,182.02 216.61,184.74 216.73,182.25 216.85,189.29 216.96,180.66 217.08,182.02 217.19,187.92 217.31,185.42 217.43,185.65 217.54,180.20 217.66,183.38 217.77,180.20 217.89,178.61 218.01,179.97 218.12,187.92 218.24,182.70 218.35,181.79 218.47,183.15 218.59,182.25 218.70,182.02 218.82,186.33 218.93,185.42 219.05,188.15 219.17,188.83 219.28,184.97 219.40,184.29 219.51,184.06 219.63,182.02 219.75,185.88 219.86,185.88 219.98,189.06 220.09,186.33 220.21,187.47 220.33,181.56 220.44,181.79 220.56,181.34 220.67,186.56 220.79,184.74 220.91,183.15 221.02,182.70 221.14,186.11 221.25,180.88 221.37,181.11 221.49,179.52 221.60,183.15 221.72,179.07 221.83,190.65 221.95,176.57 222.07,181.56 222.18,183.61 222.30,183.38 222.41,194.28 222.53,186.79 222.65,182.70 222.76,187.01 222.88,187.92 222.99,185.88 223.11,178.61 223.23,186.56 223.34,189.51 223.46,183.15 223.57,183.84 223.69,187.24 223.81,183.38 223.92,186.79 224.04,180.66 224.15,184.06 224.27,186.79 224.39,184.52 224.50,186.56 224.62,185.88 224.73,182.93 224.85,187.24 224.97,181.79 225.08,184.97 225.20,185.42 225.31,185.65 225.43,187.92 225.55,186.56 225.66,186.11 225.78,177.93 225.89,182.93 226.01,183.84 226.13,186.79 226.24,177.70 226.36,184.52 226.47,184.74 226.59,184.52 226.71,185.65 226.82,187.47 226.94,182.93 227.05,182.02 227.17,186.33 227.29,180.20 227.40,185.65 227.52,184.29 227.63,182.93 227.75,183.38 227.87,184.06 227.98,185.42 228.10,185.88 228.21,181.11 228.33,183.61 228.45,182.70 228.56,185.20 228.68,179.52 228.79,188.60 228.91,181.79 229.03,181.79 229.14,180.66 229.26,178.38 229.37,182.93 229.49,182.70 229.61,182.02 229.72,185.65 229.84,181.34 229.96,186.56 230.07,187.70 230.19,178.16 230.30,189.06 230.42,185.42 230.54,187.24 230.65,182.93 230.77,185.42 230.88,184.52 231.00,183.84 231.12,182.47 231.23,183.15 231.35,185.42 231.46,187.01 231.58,181.34 231.70,177.70 231.81,184.74 231.93,182.70 232.04,190.65 232.16,185.88 232.28,183.84 232.39,182.70 232.51,179.29 232.62,179.97 232.74,186.56 232.86,184.97 232.97,182.02 233.09,186.79 233.20,181.56 233.32,184.97 233.44,185.65 233.55,182.47 233.67,188.15 233.78,181.34 233.90,189.29 234.02,179.29 234.13,190.42 234.25,186.11 234.36,186.11 234.48,186.79 234.60,180.66 234.71,181.11 234.83,183.38 234.94,188.83 235.06,181.34 235.18,182.02 235.29,182.25 235.41,189.29 235.52,185.65 235.64,185.88 235.76,184.74 235.87,182.70 235.99,188.60 236.10,188.83 236.22,183.15 236.34,183.61 236.45,183.84 236.57,182.70 236.68,187.01 236.80,181.11 236.92,188.15 237.03,189.97 237.15,179.52 237.26,185.88 237.38,179.75 237.50,185.20 237.61,181.56 237.73,187.01 237.84,188.15 237.96,182.25 238.08,180.43 238.19,183.15 238.31,182.93 238.42,183.84 238.54,182.70 238.66,183.38 238.77,180.43 238.89,180.43 239.00,183.15 239.12,184.74 239.24,185.20 239.35,186.56 239.47,187.92 239.58,184.97 239.70,182.47 239.82,177.70 239.93,185.65 240.05,183.38 240.16,191.33 240.28,185.88 240.40,184.29 240.51,187.70 240.63,187.24 240.74,189.97 240.86,189.97 240.98,187.92 241.09,184.97 241.21,181.34 241.32,182.70 241.44,179.52 241.56,183.15 241.67,186.56 241.79,186.33 241.90,188.83 242.02,183.61 242.14,185.20 242.25,184.29 242.37,182.93 242.48,187.92 242.60,183.84 242.72,184.29 242.83,182.70 242.95,176.11 243.06,184.29 243.18,182.47 243.30,179.07 243.41,179.75 243.53,184.06 243.64,187.70 243.76,179.07 243.88,189.06 243.99,181.11 244.11,187.01 244.22,186.11 244.34,184.52 244.46,181.56 244.57,183.61 244.69,182.70 244.80,182.47 244.92,183.15 245.04,182.25 245.15,178.38 245.27,179.97 245.38,181.34 245.50,182.47 245.62,181.34 245.73,183.38 245.85,186.11 245.96,186.79 246.08,189.06 246.20,183.15 246.31,181.34 246.43,181.79 246.54,181.34 246.66,182.25 246.78,176.11 246.89,188.15 247.01,182.25 247.12,183.84 247.24,184.97 247.36,185.65 247.47,180.66 247.59,182.47 247.70,184.29 247.82,182.93 247.94,184.29 248.05,184.97 248.17,184.97 248.28,185.88 248.40,183.15 248.52,182.70 248.63,183.84 248.75,187.24 248.87,187.01 248.98,187.92 249.10,177.02 249.21,182.93 249.33,183.15 249.45,182.93 249.56,183.15 249.68,185.88 249.79,186.33 249.91,182.70 250.03,179.52 250.14,180.20 250.26,186.56 250.37,188.15 250.49,183.61 250.61,187.24 250.72,184.52 250.84,184.06 250.95,182.93 251.07,182.47 251.19,180.66 251.30,180.66 251.42,185.88 251.53,178.16 251.65,183.15 251.77,182.93 251.88,181.56 252.00,187.47 252.11,185.20 252.23,182.47 252.35,187.01 252.46,186.56 252.58,188.83 252.69,188.83 252.81,187.70 252.93,182.93 253.04,187.92 253.16,183.84 253.27,186.33 253.39,183.61 253.51,183.15 253.62,180.88 253.74,180.20 253.85,185.65 253.97,187.24 254.09,183.15 254.20,183.61 254.32,184.29 254.43,180.20 254.55,179.75 254.67,177.93 254.78,186.33 254.90,185.88 255.01,179.97 255.13,182.70 255.25,182.47 255.36,186.79 255.48,188.15 255.59,184.74 255.71,182.70 255.83,186.11 255.94,184.06 256.06,185.42 256.17,180.66 256.29,184.06 256.41,182.47 256.52,175.20 256.64,184.29 256.75,179.97 256.87,185.42 256.99,184.74 257.10,187.01 257.22,187.24 257.33,182.70 257.45,184.29 257.57,182.02 257.68,185.20 257.80,189.06 257.91,185.42 258.03,180.66 258.15,182.70 258.26,186.11 258.38,190.19 258.49,184.06 258.61,184.52 258.73,183.15 258.84,185.65 258.96,182.25 259.07,183.38 259.19,180.66 259.31,182.93 259.42,184.52 259.54,187.70 259.65,188.38 259.77,179.97 259.89,190.19 260.00,182.70 260.12,187.01 260.23,187.01 260.35,182.25 260.47,188.38 260.58,183.84 260.70,186.11 260.81,182.70 260.93,179.52 261.05,185.42 261.16,179.07 261.28,183.84 261.39,184.29 261.51,182.02 261.63,184.52 261.74,181.11 261.86,188.38 261.97,190.42 262.09,183.61 262.21,185.88 262.32,188.15 262.44,186.33 262.55,187.92 262.67,180.20 262.79,183.84 262.90,181.34 263.02,183.84 263.13,184.06 263.25,185.20 263.37,180.88 263.48,182.70 263.60,180.43 263.71,176.79 263.83,183.15 263.95,185.65 264.06,189.29 264.18,182.47 264.29,185.65 264.41,182.25 264.53,187.70 264.64,184.52 264.76,182.02 264.87,185.65 264.99,182.25 265.11,189.97 265.22,179.07 265.34,183.15 265.45,183.15 265.57,183.15 265.69,186.56 265.80,183.84 265.92,189.29 266.03,180.43 266.15,184.29 266.27,188.38 266.38,181.56 266.50,188.38 266.61,187.24 266.73,184.52 266.85,179.75 266.96,185.20 267.08,189.29 267.19,179.75 267.31,176.11 267.43,185.20 267.54,178.61 267.66,182.02 267.78,182.25 267.89,188.60 268.01,189.51 268.12,187.01 268.24,182.25 268.36,182.02 268.47,179.52 268.59,186.79 268.70,186.56 268.82,181.79 268.94,182.70 269.05,182.25 269.17,182.93 269.28,186.56 269.40,186.11 269.52,179.97 269.63,188.60 269.75,184.06 269.86,183.38 269.98,185.42 270.10,188.38 270.21,184.29 270.33,181.79 270.44,177.02 270.56,185.42 270.68,189.51 270.79,187.24 270.91,184.52 271.02,187.47 271.14,185.65 271.26,187.01 271.37,186.56 271.49,185.88 271.60,187.70 271.72,178.16 271.84,185.65 271.95,181.79 272.07,184.52 272.18,186.33 272.30,180.66 272.42,189.51 272.53,183.61 272.65,179.97 272.76,188.15 272.88,180.20 273.00,186.33 273.11,180.66 273.23,185.88 273.34,180.20 273.46,190.65 273.58,184.74 273.69,182.25 273.81,188.83 273.92,181.56 274.04,184.52 274.16,181.34 274.27,187.24 274.39,186.79 274.50,179.07 274.62,184.74 274.74,184.52 274.85,178.16 274.97,183.84 275.08,183.61 275.20,182.93 275.32,188.60 275.43,180.66 275.55,184.52 275.66,187.47 275.78,177.25 275.90,191.10 276.01,183.84 276.13,181.11 276.24,184.52 276.36,190.88 276.48,185.20 276.59,182.47 276.71,181.79 276.82,182.02 276.94,180.66 277.06,177.02 277.17,192.24 277.29,191.78 277.40,182.70 277.52,187.01 277.64,188.83 277.75,179.75 277.87,188.15 277.98,187.47 278.10,186.33 278.22,183.84 278.33,182.93 278.45,180.88 278.56,180.88 278.68,185.88 278.80,187.24 278.91,184.97 279.03,182.47 279.14,185.20 279.26,181.79 279.38,187.92 279.49,183.61 279.61,184.29 279.72,182.93 279.84,183.84 279.96,187.47 280.07,183.38 280.19,187.47 280.30,183.38 280.42,182.70 280.54,183.38 280.65,184.74 280.77,183.38 280.88,181.56 281.00,182.02 281.12,180.88 281.23,174.75 281.35,185.42 281.46,187.47 281.58,184.97 281.70,186.79 281.81,182.93 281.93,179.52 282.04,187.47 282.16,186.33 282.28,184.29 282.39,179.75 282.51,182.25 282.62,182.25 282.74,182.25 282.86,181.34 282.97,185.88 283.09,179.07 283.20,180.88 283.32,185.20 283.44,186.11 283.55,184.29 283.67,182.93 283.78,189.97 283.90,184.74 284.02,186.33 284.13,181.11 284.25,186.79 284.36,182.47 284.48,182.47 284.60,182.02 284.71,186.11 284.83,184.29 284.94,188.60 285.06,190.42 285.18,180.66 285.29,187.70 285.41,184.52 285.52,185.88 285.64,182.02 285.76,183.38 285.87,184.97 285.99,191.33 286.11,186.56 286.22,184.74 286.34,182.70 286.45,186.56 286.57,189.29 286.69,183.15 286.80,184.74 286.92,184.29 287.03,185.20 287.15,179.97 287.27,183.38 287.38,188.15 287.50,184.29 287.61,179.97 287.73,184.74 287.85,187.47 287.96,180.20 288.08,187.70 288.19,184.97 288.31,191.56 288.43,186.56 288.54,187.47 288.66,182.70 288.77,180.66 288.89,182.93 289.01,179.29 289.12,184.97 289.24,181.56 289.35,183.15 289.47,183.38 289.59,182.02 289.70,182.47 289.82,187.01 289.93,186.11 290.05,180.20 290.17,185.88 290.28,186.11 290.40,179.29 290.51,185.65 290.63,186.11 290.75,181.56 290.86,190.65 290.98,181.11 291.09,182.70 291.21,181.56 291.33,188.83 291.44,182.70 291.56,192.01 291.67,186.33 291.79,181.11 291.91,180.88 292.02,184.97 292.14,187.70 292.25,185.20 292.37,185.42 292.49,183.61 292.60,185.20 292.72,187.24 292.83,184.52 292.95,185.88 293.07,187.47 293.18,184.97 293.30,187.01 293.41,185.88 293.53,186.11 293.65,185.65 293.76,182.70 293.88,187.24 293.99,182.25 294.11,189.51 294.23,180.20 294.34,189.06 294.46,185.88 294.57,185.88 294.69,182.25 294.81,186.79 294.92,179.29 295.04,182.25 295.15,186.79 295.27,180.20 295.39,184.52 295.50,188.83 295.62,181.34 295.73,186.11 295.85,183.15 295.97,186.56 296.08,185.20 296.20,191.56 296.31,190.19 296.43,182.25 296.55,188.60 296.66,187.01 296.78,187.70 296.89,187.01 297.01,186.33 297.13,183.61 297.24,190.42 297.36,181.56 297.47,180.66 297.59,182.93 297.71,184.74 297.82,186.11 "
     style="stroke:#000000;stroke-width:1.16643;stroke-linecap:butt;stroke-miterlimit:10;stroke-dasharray:none"
     clip-path="url(#cpMTc2LjAxfDMwMy42MnwyMzYuMjV8MjIuNDA=)"
     id="polyline142014"
     transform="matrix(1,0,0,0.7349975,-42.92,-98.638033)" />
  <defs
     id="defs142020">
    <clipPath
       id="clipPath142018">
      <rect
         x="0"
         y="0"
         width="504"
         height="504"
         id="rect142016" />
    </clipPath>
  </defs>
  <defs
     id="defs142025">
    <clipPath
       id="cpMTc2LjAxfDMwMy42Mnw0NzIuNTF8MjU4LjY1">
      <rect
         x="176.00999"
         y="258.64999"
         width="127.61"
         height="213.86"
         id="rect142022" />
    </clipPath>
  </defs>
  <polyline
     points="181.81,310.84 181.93,309.03 182.04,306.98 182.16,307.21 182.27,311.07 182.39,311.98 182.51,314.71 182.62,309.94 182.74,310.62 182.85,313.12 182.97,312.43 183.09,310.16 183.20,310.16 183.32,308.80 183.43,300.85 183.55,307.44 183.67,308.35 183.78,311.53 183.90,305.39 184.01,318.79 184.13,302.90 184.25,308.57 184.36,320.38 184.48,311.75 184.59,313.80 184.71,311.07 184.83,305.62 184.94,309.94 185.06,314.93 185.17,314.71 185.29,312.21 185.41,310.39 185.52,309.94 185.64,308.12 185.75,313.34 185.87,311.07 185.99,317.20 186.10,312.21 186.22,310.39 186.33,313.57 186.45,307.66 186.57,301.99 186.68,317.66 186.80,308.80 186.91,309.71 187.03,306.08 187.15,310.84 187.26,312.43 187.38,313.12 187.49,310.62 187.61,308.35 187.73,312.43 187.84,309.71 187.96,315.84 188.07,309.94 188.19,306.53 188.31,316.07 188.42,318.11 188.54,314.02 188.65,310.16 188.77,308.12 188.89,310.84 189.00,310.62 189.12,312.21 189.23,315.84 189.35,309.71 189.47,310.62 189.58,311.75 189.70,315.16 189.81,310.39 189.93,310.84 190.05,309.03 190.16,311.75 190.28,314.02 190.39,310.62 190.51,310.39 190.63,316.52 190.74,312.89 190.86,313.57 190.97,316.52 191.09,312.21 191.21,309.71 191.32,311.75 191.44,309.03 191.55,306.53 191.67,309.94 191.79,314.93 191.90,309.94 192.02,308.35 192.13,307.89 192.25,313.34 192.37,315.16 192.48,306.76 192.60,313.12 192.72,310.16 192.83,307.21 192.95,311.07 193.06,307.89 193.18,310.39 193.30,309.48 193.41,308.12 193.53,312.43 193.64,309.48 193.76,308.12 193.88,313.12 193.99,302.21 194.11,307.21 194.22,306.30 194.34,314.25 194.46,314.93 194.57,314.71 194.69,309.71 194.80,310.84 194.92,308.35 195.04,316.75 195.15,312.21 195.27,312.66 195.38,310.39 195.50,306.98 195.62,317.43 195.73,307.21 195.85,306.98 195.96,310.16 196.08,307.44 196.20,305.62 196.31,308.35 196.43,312.89 196.54,306.98 196.66,307.21 196.78,312.21 196.89,312.89 197.01,310.16 197.12,309.71 197.24,317.43 197.36,311.30 197.47,314.25 197.59,313.34 197.70,312.21 197.82,309.71 197.94,311.98 198.05,311.75 198.17,312.66 198.28,306.98 198.40,310.84 198.52,311.53 198.63,311.75 198.75,307.44 198.86,309.71 198.98,313.57 199.10,310.62 199.21,309.25 199.33,314.25 199.44,311.53 199.56,306.98 199.68,310.84 199.79,316.98 199.91,310.62 200.02,313.80 200.14,309.94 200.26,304.71 200.37,307.44 200.49,313.34 200.60,312.66 200.72,306.76 200.84,314.93 200.95,311.98 201.07,315.84 201.18,311.53 201.30,304.26 201.42,310.16 201.53,313.57 201.65,316.75 201.76,319.93 201.88,309.48 202.00,317.43 202.11,308.80 202.23,309.71 202.34,309.25 202.46,304.49 202.58,307.89 202.69,312.89 202.81,311.53 202.92,308.80 203.04,314.25 203.16,314.25 203.27,311.75 203.39,311.07 203.50,310.84 203.62,313.57 203.74,308.57 203.85,315.16 203.97,313.12 204.08,308.35 204.20,313.12 204.32,310.62 204.43,313.12 204.55,311.07 204.66,309.94 204.78,316.30 204.90,311.30 205.01,312.89 205.13,310.62 205.24,305.62 205.36,314.25 205.48,312.89 205.59,307.21 205.71,309.03 205.82,311.07 205.94,309.25 206.06,307.21 206.17,311.07 206.29,313.34 206.40,309.48 206.52,309.25 206.64,306.08 206.75,311.98 206.87,310.84 206.98,310.84 207.10,310.16 207.22,313.57 207.33,305.62 207.45,308.35 207.56,314.25 207.68,312.43 207.80,311.30 207.91,315.61 208.03,310.62 208.14,311.53 208.26,305.85 208.38,306.76 208.49,311.30 208.61,310.39 208.72,309.48 208.84,314.93 208.96,313.80 209.07,309.94 209.19,308.80 209.30,305.85 209.42,306.98 209.54,314.71 209.65,311.75 209.77,310.84 209.88,310.39 210.00,312.89 210.12,313.57 210.23,314.25 210.35,310.16 210.46,314.48 210.58,311.07 210.70,314.25 210.81,317.89 210.93,313.57 211.05,314.02 211.16,312.21 211.28,308.80 211.39,306.98 211.51,315.16 211.63,305.85 211.74,308.12 211.86,311.07 211.97,310.39 212.09,314.25 212.21,309.71 212.32,314.71 212.44,310.84 212.55,310.84 212.67,315.16 212.79,307.21 212.90,309.71 213.02,313.34 213.13,317.43 213.25,306.98 213.37,312.89 213.48,316.07 213.60,306.53 213.71,312.43 213.83,308.12 213.95,311.98 214.06,314.71 214.18,308.35 214.29,304.49 214.41,311.53 214.53,311.75 214.64,310.62 214.76,309.71 214.87,312.21 214.99,309.94 215.11,313.57 215.22,311.75 215.34,309.94 215.45,309.03 215.57,310.62 215.69,315.84 215.80,309.03 215.92,312.21 216.03,310.84 216.15,306.98 216.27,310.16 216.38,308.80 216.50,310.84 216.61,311.07 216.73,316.98 216.85,305.62 216.96,310.39 217.08,312.21 217.19,310.84 217.31,308.80 217.43,306.30 217.54,314.25 217.66,308.12 217.77,314.93 217.89,312.43 218.01,309.94 218.12,310.16 218.24,311.07 218.35,311.75 218.47,308.35 218.59,313.80 218.70,310.39 218.82,313.80 218.93,310.39 219.05,318.11 219.17,307.21 219.28,313.80 219.40,303.80 219.51,315.61 219.63,306.76 219.75,312.21 219.86,305.85 219.98,306.30 220.09,314.25 220.21,313.80 220.33,309.25 220.44,307.44 220.56,308.80 220.67,311.07 220.79,309.71 220.91,304.03 221.02,309.25 221.14,306.98 221.25,311.53 221.37,307.66 221.49,308.57 221.60,308.80 221.72,313.57 221.83,320.84 221.95,314.93 222.07,308.80 222.18,308.35 222.30,308.80 222.41,309.94 222.53,312.43 222.65,308.12 222.76,313.34 222.88,305.17 222.99,309.25 223.11,307.21 223.23,309.48 223.34,313.12 223.46,309.71 223.57,306.08 223.69,309.48 223.81,313.34 223.92,311.98 224.04,310.16 224.15,311.07 224.27,314.93 224.39,311.75 224.50,316.98 224.62,310.84 224.73,314.93 224.85,313.34 224.97,309.25 225.08,313.57 225.20,315.16 225.31,313.12 225.43,305.85 225.55,314.48 225.66,311.30 225.78,314.71 225.89,308.35 226.01,311.75 226.13,309.03 226.24,311.98 226.36,304.94 226.47,313.57 226.59,311.07 226.71,312.89 226.82,310.84 226.94,310.84 227.05,309.71 227.17,313.57 227.29,313.80 227.40,314.93 227.52,305.62 227.63,312.21 227.75,317.66 227.87,311.30 227.98,309.25 228.10,310.62 228.21,311.30 228.33,306.53 228.45,311.30 228.56,309.48 228.68,312.89 228.79,315.16 228.91,315.16 229.03,316.30 229.14,314.48 229.26,308.35 229.37,312.43 229.49,312.89 229.61,316.98 229.72,308.57 229.84,318.11 229.96,311.07 230.07,309.03 230.19,310.16 230.30,303.80 230.42,310.16 230.54,308.57 230.65,309.03 230.77,311.07 230.88,310.39 231.00,315.16 231.12,311.07 231.23,307.89 231.35,313.12 231.46,309.03 231.58,306.76 231.70,314.02 231.81,308.57 231.93,310.84 232.04,307.44 232.16,313.57 232.28,310.16 232.39,312.43 232.51,311.07 232.62,314.25 232.74,309.94 232.86,309.48 232.97,318.57 233.09,308.57 233.20,308.12 233.32,313.80 233.44,313.12 233.55,305.85 233.67,309.48 233.78,312.66 233.90,309.71 234.02,311.30 234.13,308.80 234.25,306.30 234.36,311.53 234.48,309.71 234.60,311.98 234.71,311.30 234.83,311.98 234.94,314.02 235.06,312.21 235.18,315.16 235.29,313.34 235.41,318.11 235.52,306.08 235.64,309.94 235.76,312.89 235.87,315.16 235.99,311.75 236.10,315.61 236.22,313.12 236.34,312.89 236.45,311.30 236.57,311.75 236.68,310.62 236.80,313.57 236.92,311.53 237.03,317.66 237.15,314.93 237.26,307.89 237.38,311.07 237.50,307.66 237.61,310.62 237.73,311.30 237.84,310.16 237.96,315.16 238.08,311.98 238.19,308.35 238.31,309.03 238.42,309.71 238.54,308.57 238.66,307.44 238.77,305.17 238.89,308.35 239.00,309.48 239.12,308.57 239.24,308.80 239.35,307.89 239.47,314.71 239.58,313.34 239.70,310.39 239.82,315.61 239.93,313.12 240.05,313.80 240.16,304.26 240.28,311.07 240.40,311.53 240.51,312.66 240.63,304.94 240.74,312.43 240.86,311.07 240.98,311.53 241.09,313.80 241.21,314.25 241.32,311.75 241.44,311.75 241.56,309.25 241.67,311.07 241.79,311.98 241.90,307.66 242.02,308.80 242.14,315.39 242.25,309.71 242.37,306.53 242.48,318.11 242.60,306.53 242.72,311.30 242.83,310.84 242.95,315.84 243.06,310.84 243.18,311.07 243.30,309.03 243.41,309.71 243.53,310.84 243.64,309.71 243.76,311.75 243.88,313.34 243.99,313.12 244.11,313.12 244.22,310.39 244.34,303.12 244.46,309.71 244.57,304.71 244.69,308.35 244.80,308.12 244.92,311.30 245.04,307.89 245.15,309.71 245.27,312.43 245.38,315.61 245.50,305.62 245.62,316.52 245.73,309.25 245.85,311.30 245.96,307.44 246.08,304.26 246.20,314.25 246.31,307.66 246.43,318.79 246.54,312.21 246.66,311.98 246.78,310.39 246.89,307.66 247.01,309.25 247.12,316.30 247.24,309.71 247.36,312.21 247.47,312.89 247.59,310.62 247.70,314.02 247.82,315.39 247.94,314.25 248.05,314.48 248.17,309.94 248.28,310.16 248.40,318.11 248.52,313.57 248.63,310.16 248.75,313.34 248.87,312.21 248.98,314.02 249.10,311.53 249.21,311.98 249.33,309.71 249.45,307.66 249.56,312.66 249.68,309.94 249.79,316.30 249.91,315.16 250.03,311.07 250.14,314.02 250.26,307.44 250.37,312.66 250.49,310.84 250.61,308.80 250.72,312.66 250.84,316.07 250.95,311.07 251.07,312.21 251.19,308.12 251.30,311.07 251.42,313.34 251.53,308.57 251.65,312.21 251.77,305.62 251.88,309.71 252.00,304.94 252.11,315.16 252.23,312.21 252.35,311.07 252.46,313.80 252.58,306.08 252.69,308.35 252.81,311.30 252.93,315.61 253.04,315.16 253.16,312.21 253.27,305.85 253.39,307.89 253.51,309.71 253.62,312.43 253.74,308.35 253.85,314.02 253.97,311.53 254.09,311.75 254.20,309.48 254.32,308.80 254.43,310.84 254.55,315.39 254.67,305.17 254.78,314.02 254.90,313.57 255.01,312.21 255.13,312.43 255.25,310.62 255.36,311.30 255.48,314.02 255.59,310.16 255.71,310.16 255.83,313.12 255.94,316.98 256.06,312.43 256.17,308.80 256.29,305.17 256.41,310.84 256.52,307.44 256.64,319.02 256.75,309.94 256.87,309.25 256.99,317.20 257.10,309.25 257.22,314.71 257.33,315.61 257.45,314.25 257.57,316.30 257.68,312.89 257.80,308.80 257.91,314.93 258.03,307.66 258.15,307.66 258.26,309.03 258.38,311.07 258.49,312.89 258.61,315.39 258.73,310.62 258.84,316.30 258.96,315.84 259.07,311.07 259.19,309.71 259.31,314.25 259.42,310.62 259.54,312.21 259.65,312.21 259.77,305.85 259.89,309.94 260.00,311.75 260.12,306.53 260.23,312.43 260.35,312.66 260.47,313.80 260.58,311.30 260.70,311.30 260.81,308.35 260.93,309.94 261.05,309.94 261.16,314.93 261.28,314.48 261.39,309.94 261.51,309.94 261.63,310.39 261.74,313.12 261.86,311.75 261.97,311.07 262.09,309.03 262.21,314.48 262.32,315.16 262.44,310.16 262.55,316.07 262.67,310.84 262.79,317.20 262.90,306.08 263.02,311.75 263.13,313.12 263.25,310.84 263.37,308.12 263.48,311.98 263.60,309.03 263.71,316.52 263.83,310.62 263.95,308.57 264.06,311.30 264.18,317.43 264.29,313.34 264.41,308.80 264.53,307.66 264.64,313.80 264.76,314.25 264.87,311.30 264.99,309.71 265.11,308.80 265.22,308.35 265.34,305.17 265.45,312.43 265.57,312.66 265.69,308.80 265.80,316.75 265.92,309.48 266.03,312.43 266.15,312.43 266.27,314.25 266.38,306.98 266.50,310.84 266.61,316.52 266.73,306.98 266.85,305.62 266.96,309.25 267.08,311.30 267.19,307.66 267.31,309.25 267.43,312.43 267.54,311.75 267.66,314.02 267.78,311.98 267.89,315.16 268.01,310.16 268.12,315.16 268.24,312.66 268.36,307.89 268.47,308.12 268.59,317.89 268.70,309.94 268.82,310.39 268.94,316.75 269.05,313.34 269.17,319.25 269.28,312.43 269.40,313.57 269.52,313.80 269.63,315.16 269.75,311.07 269.86,310.39 269.98,310.39 270.10,310.84 270.21,314.02 270.33,311.53 270.44,310.39 270.56,311.07 270.68,307.89 270.79,308.35 270.91,311.53 271.02,312.21 271.14,308.57 271.26,307.44 271.37,312.89 271.49,315.16 271.60,306.76 271.72,310.62 271.84,307.44 271.95,306.98 272.07,312.43 272.18,310.39 272.30,311.07 272.42,312.21 272.53,314.48 272.65,309.25 272.76,309.71 272.88,309.94 273.00,311.98 273.11,312.43 273.23,311.75 273.34,309.03 273.46,310.84 273.58,308.57 273.69,311.53 273.81,313.80 273.92,308.12 274.04,313.80 274.16,309.94 274.27,309.94 274.39,308.80 274.50,306.98 274.62,316.07 274.74,316.52 274.85,314.02 274.97,312.43 275.08,309.25 275.20,311.30 275.32,317.43 275.43,311.53 275.55,312.43 275.66,311.53 275.78,309.94 275.90,306.76 276.01,315.39 276.13,311.07 276.24,309.94 276.36,313.12 276.48,311.98 276.59,306.76 276.71,309.25 276.82,311.75 276.94,311.98 277.06,310.84 277.17,310.39 277.29,312.21 277.40,311.98 277.52,311.98 277.64,308.80 277.75,317.43 277.87,310.16 277.98,306.08 278.10,314.71 278.22,310.39 278.33,309.48 278.45,310.84 278.56,313.57 278.68,309.71 278.80,311.75 278.91,312.21 279.03,308.12 279.14,309.94 279.26,311.30 279.38,313.12 279.49,310.39 279.61,313.12 279.72,313.57 279.84,311.75 279.96,311.07 280.07,300.40 280.19,311.30 280.30,310.39 280.42,309.03 280.54,307.66 280.65,314.48 280.77,311.30 280.88,307.21 281.00,308.57 281.12,313.34 281.23,308.57 281.35,314.25 281.46,309.71 281.58,315.61 281.70,309.03 281.81,305.17 281.93,314.93 282.04,310.62 282.16,311.30 282.28,311.53 282.39,306.76 282.51,309.94 282.62,308.57 282.74,314.02 282.86,315.39 282.97,317.20 283.09,314.93 283.20,314.71 283.32,310.16 283.44,314.93 283.55,316.30 283.67,308.80 283.78,315.61 283.90,310.39 284.02,312.89 284.13,314.02 284.25,307.66 284.36,308.35 284.48,314.93 284.60,312.43 284.71,308.12 284.83,311.75 284.94,315.39 285.06,315.39 285.18,313.12 285.29,312.66 285.41,312.21 285.52,311.98 285.64,306.76 285.76,311.30 285.87,316.07 285.99,314.71 286.11,309.25 286.22,308.35 286.34,314.93 286.45,310.84 286.57,312.89 286.69,312.66 286.80,307.21 286.92,307.21 287.03,316.52 287.15,308.12 287.27,315.84 287.38,307.21 287.50,306.53 287.61,309.48 287.73,312.66 287.85,308.80 287.96,310.16 288.08,314.71 288.19,312.89 288.31,310.84 288.43,312.43 288.54,312.66 288.66,310.16 288.77,316.52 288.89,311.75 289.01,311.30 289.12,306.08 289.24,312.66 289.35,315.61 289.47,312.66 289.59,313.80 289.70,313.12 289.82,312.43 289.93,310.62 290.05,309.48 290.17,311.98 290.28,311.53 290.40,309.94 290.51,305.39 290.63,314.25 290.75,304.94 290.86,309.03 290.98,310.84 291.09,309.94 291.21,313.57 291.33,315.61 291.44,319.25 291.56,314.93 291.67,306.53 291.79,311.53 291.91,311.30 292.02,312.21 292.14,316.98 292.25,311.53 292.37,311.30 292.49,306.98 292.60,307.89 292.72,305.85 292.83,312.89 292.95,315.39 293.07,313.34 293.18,310.62 293.30,313.80 293.41,314.02 293.53,308.12 293.65,311.98 293.76,312.43 293.88,314.25 293.99,309.25 294.11,312.89 294.23,312.66 294.34,309.25 294.46,314.48 294.57,314.71 294.69,312.43 294.81,313.34 294.92,309.03 295.04,310.62 295.15,310.39 295.27,303.12 295.39,306.98 295.50,312.43 295.62,305.39 295.73,312.89 295.85,312.43 295.97,313.80 296.08,312.43 296.20,317.66 296.31,312.43 296.43,310.62 296.55,311.07 296.66,303.12 296.78,316.30 296.89,310.84 297.01,315.16 297.13,308.12 297.24,312.66 297.36,307.21 297.47,306.30 297.59,311.98 297.71,309.48 297.82,314.93 "
     style="stroke:#000000;stroke-width:1.16643;stroke-linecap:butt;stroke-miterlimit:10;stroke-dasharray:none"
     clip-path="url(#cpMTc2LjAxfDMwMy42Mnw0NzIuNTF8MjU4LjY1)"
     id="polyline142061"
     transform="matrix(1,0,0,0.7349975,-42.92,-98.638033)" />
  <defs
     id="defs142067">
    <clipPath
       id="clipPath142065">
      <rect
         x="0"
         y="0"
         width="504"
         height="504"
         id="rect142063" />
    </clipPath>
  </defs>
  <defs
     id="defs142072">
    <clipPath
       id="cpMzA5LjEwfDQzNi43MnwyMzYuMjV8MjIuNDA=">
      <rect
         x="309.10001"
         y="22.4"
         width="127.61"
         height="213.86"
         id="rect142069" />
    </clipPath>
  </defs>
  <polyline
     points="314.90,151.58 315.02,149.09 315.13,153.17 315.25,147.50 315.37,149.09 315.48,150.22 315.60,151.13 315.72,143.63 315.83,144.77 315.95,148.18 316.06,144.77 316.18,144.54 316.30,146.36 316.41,145.68 316.53,145.68 316.64,149.09 316.76,144.77 316.88,146.81 316.99,153.86 317.11,144.09 317.22,151.36 317.34,145.91 317.46,142.27 317.57,146.59 317.69,151.81 317.80,143.63 317.92,150.68 318.04,142.95 318.15,147.95 318.27,143.41 318.38,149.31 318.50,149.77 318.62,147.04 318.73,153.40 318.85,143.86 318.96,152.27 319.08,152.27 319.20,146.81 319.31,151.13 319.43,142.73 319.54,144.77 319.66,145.45 319.78,152.49 319.89,145.22 320.01,143.63 320.12,152.49 320.24,151.81 320.36,140.91 320.47,145.45 320.59,145.91 320.70,150.68 320.82,150.68 320.94,146.13 321.05,147.04 321.17,148.18 321.28,144.32 321.40,151.58 321.52,142.50 321.63,149.54 321.75,149.99 321.86,140.68 321.98,149.77 322.10,148.63 322.21,146.81 322.33,149.31 322.44,149.54 322.56,148.40 322.68,152.95 322.79,145.45 322.91,149.09 323.02,150.22 323.14,152.27 323.26,151.13 323.37,148.63 323.49,148.40 323.60,144.54 323.72,147.04 323.84,148.86 323.95,146.13 324.07,148.86 324.18,152.27 324.30,149.77 324.42,150.45 324.53,140.91 324.65,152.27 324.76,145.00 324.88,147.72 325.00,141.82 325.11,146.59 325.23,147.72 325.34,146.59 325.46,152.04 325.58,142.27 325.69,142.50 325.81,145.45 325.92,148.63 326.04,143.63 326.16,149.54 326.27,154.99 326.39,143.63 326.50,145.91 326.62,147.04 326.74,146.59 326.85,146.59 326.97,144.77 327.08,147.04 327.20,149.99 327.32,148.40 327.43,144.77 327.55,145.45 327.66,149.99 327.78,154.08 327.90,145.00 328.01,147.04 328.13,139.32 328.24,146.81 328.36,147.27 328.48,147.27 328.59,151.81 328.71,144.77 328.82,141.59 328.94,147.95 329.06,145.68 329.17,149.54 329.29,147.04 329.40,147.04 329.52,150.45 329.64,147.04 329.75,152.49 329.87,146.13 329.98,147.72 330.10,150.90 330.22,147.04 330.33,147.27 330.45,150.68 330.56,150.68 330.68,146.36 330.80,144.77 330.91,145.45 331.03,145.00 331.14,146.81 331.26,151.36 331.38,152.04 331.49,144.54 331.61,152.95 331.72,143.18 331.84,151.81 331.96,147.72 332.07,144.77 332.19,149.31 332.30,150.45 332.42,146.59 332.54,148.86 332.65,147.27 332.77,143.63 332.88,147.95 333.00,142.04 333.12,145.22 333.23,145.68 333.35,151.36 333.46,145.45 333.58,147.27 333.70,147.95 333.81,147.04 333.93,145.00 334.04,147.72 334.16,149.09 334.28,153.86 334.39,149.54 334.51,148.86 334.63,148.86 334.74,149.54 334.86,150.45 334.97,149.54 335.09,146.59 335.21,152.04 335.32,152.49 335.44,151.13 335.55,148.63 335.67,142.50 335.79,147.27 335.90,147.72 336.02,154.76 336.13,145.45 336.25,144.32 336.37,148.18 336.48,154.54 336.60,153.63 336.71,146.81 336.83,146.36 336.95,147.95 337.06,142.27 337.18,152.27 337.29,147.95 337.41,149.77 337.53,151.36 337.64,149.31 337.76,150.68 337.87,154.08 337.99,144.54 338.11,140.46 338.22,145.45 338.34,151.36 338.45,145.91 338.57,143.41 338.69,148.86 338.80,140.23 338.92,147.95 339.03,144.54 339.15,150.45 339.27,154.99 339.38,151.58 339.50,147.27 339.61,150.22 339.73,151.36 339.85,153.86 339.96,149.31 340.08,145.00 340.19,146.36 340.31,142.50 340.43,149.99 340.54,144.32 340.66,149.31 340.77,141.82 340.89,144.09 341.01,140.46 341.12,145.91 341.24,150.22 341.35,148.40 341.47,148.63 341.59,150.22 341.70,149.99 341.82,149.09 341.93,150.45 342.05,154.31 342.17,151.81 342.28,142.50 342.40,143.86 342.51,143.41 342.63,154.76 342.75,152.04 342.86,142.73 342.98,140.00 343.09,142.95 343.21,148.40 343.33,153.40 343.44,144.54 343.56,149.54 343.67,151.81 343.79,150.45 343.91,152.49 344.02,147.04 344.14,149.54 344.25,149.09 344.37,150.45 344.49,145.00 344.60,150.68 344.72,146.13 344.83,142.73 344.95,152.04 345.07,147.50 345.18,145.00 345.30,153.17 345.41,144.32 345.53,149.09 345.65,145.00 345.76,148.18 345.88,147.72 345.99,140.68 346.11,146.36 346.23,152.27 346.34,143.63 346.46,147.72 346.57,146.13 346.69,148.86 346.81,153.17 346.92,146.59 347.04,150.90 347.15,147.04 347.27,152.49 347.39,138.64 347.50,148.63 347.62,146.13 347.73,142.73 347.85,142.95 347.97,153.17 348.08,149.54 348.20,141.14 348.31,147.27 348.43,151.36 348.55,148.63 348.66,147.50 348.78,147.04 348.89,149.99 349.01,149.09 349.13,152.72 349.24,153.86 349.36,143.18 349.47,147.50 349.59,145.45 349.71,145.00 349.82,145.00 349.94,148.63 350.05,148.63 350.17,155.67 350.29,148.86 350.40,146.81 350.52,146.13 350.63,153.40 350.75,147.50 350.87,144.77 350.98,148.86 351.10,148.40 351.21,145.91 351.33,151.36 351.45,149.09 351.56,143.63 351.68,151.58 351.79,147.04 351.91,146.13 352.03,148.86 352.14,148.40 352.26,145.22 352.37,146.59 352.49,142.73 352.61,156.35 352.72,145.45 352.84,145.22 352.96,147.95 353.07,149.09 353.19,149.54 353.30,144.54 353.42,146.13 353.54,149.54 353.65,147.95 353.77,146.81 353.88,148.18 354.00,146.36 354.12,147.27 354.23,144.77 354.35,147.72 354.46,154.08 354.58,149.99 354.70,145.91 354.81,149.54 354.93,148.86 355.04,154.31 355.16,149.77 355.28,152.04 355.39,151.36 355.51,144.77 355.62,147.04 355.74,148.63 355.86,146.36 355.97,149.31 356.09,147.95 356.20,141.82 356.32,140.46 356.44,145.45 356.55,145.68 356.67,141.59 356.78,146.36 356.90,150.68 357.02,148.63 357.13,147.95 357.25,145.00 357.36,151.13 357.48,152.72 357.60,142.95 357.71,142.95 357.83,137.50 357.94,151.81 358.06,151.36 358.18,148.40 358.29,145.00 358.41,150.90 358.52,148.86 358.64,145.22 358.76,143.63 358.87,145.68 358.99,144.54 359.10,148.63 359.22,147.04 359.34,141.36 359.45,149.09 359.57,147.72 359.68,147.27 359.80,147.72 359.92,142.95 360.03,147.50 360.15,145.45 360.26,146.36 360.38,148.86 360.50,150.68 360.61,151.13 360.73,140.00 360.84,147.95 360.96,147.04 361.08,143.63 361.19,147.27 361.31,146.36 361.42,147.04 361.54,146.13 361.66,151.13 361.77,147.72 361.89,149.54 362.00,143.63 362.12,149.54 362.24,149.31 362.35,145.68 362.47,136.82 362.58,147.72 362.70,141.14 362.82,150.22 362.93,147.04 363.05,147.95 363.16,144.54 363.28,153.17 363.40,141.36 363.51,146.36 363.63,155.90 363.74,141.14 363.86,145.91 363.98,147.72 364.09,141.82 364.21,149.99 364.32,150.68 364.44,145.91 364.56,148.63 364.67,152.72 364.79,151.13 364.90,145.45 365.02,153.17 365.14,149.31 365.25,143.86 365.37,143.63 365.48,145.45 365.60,146.36 365.72,148.18 365.83,150.45 365.95,147.72 366.06,148.86 366.18,148.63 366.30,145.91 366.41,145.68 366.53,148.18 366.64,145.00 366.76,150.45 366.88,147.50 366.99,144.77 367.11,150.68 367.22,147.04 367.34,145.68 367.46,151.36 367.57,143.41 367.69,149.99 367.80,134.78 367.92,152.72 368.04,147.04 368.15,148.40 368.27,152.95 368.38,151.81 368.50,145.22 368.62,148.40 368.73,152.04 368.85,151.81 368.96,146.81 369.08,152.27 369.20,148.63 369.31,148.18 369.43,146.59 369.54,147.04 369.66,150.68 369.78,149.77 369.89,147.95 370.01,153.63 370.12,159.76 370.24,147.72 370.36,144.32 370.47,149.77 370.59,148.86 370.70,150.22 370.82,151.81 370.94,141.14 371.05,154.54 371.17,144.09 371.28,147.04 371.40,152.72 371.52,150.68 371.63,146.59 371.75,151.13 371.87,151.13 371.98,147.72 372.10,147.04 372.21,151.81 372.33,148.86 372.45,145.45 372.56,154.76 372.68,149.77 372.79,145.68 372.91,152.95 373.03,145.45 373.14,141.36 373.26,150.68 373.37,151.36 373.49,144.54 373.61,144.32 373.72,148.40 373.84,146.13 373.95,145.91 374.07,151.13 374.19,147.04 374.30,147.04 374.42,148.86 374.53,146.36 374.65,147.72 374.77,149.99 374.88,153.86 375.00,150.22 375.11,146.59 375.23,141.82 375.35,147.50 375.46,144.32 375.58,153.86 375.69,142.50 375.81,147.72 375.93,144.54 376.04,152.27 376.16,154.99 376.27,141.14 376.39,149.77 376.51,144.54 376.62,151.36 376.74,151.81 376.85,157.49 376.97,144.77 377.09,142.73 377.20,148.86 377.32,145.68 377.43,145.22 377.55,142.73 377.67,142.95 377.78,154.76 377.90,149.09 378.01,154.08 378.13,148.40 378.25,154.76 378.36,145.22 378.48,148.18 378.59,147.95 378.71,147.72 378.83,151.58 378.94,148.40 379.06,148.40 379.17,145.22 379.29,154.31 379.41,150.90 379.52,148.18 379.64,146.36 379.75,143.63 379.87,147.27 379.99,151.36 380.10,149.09 380.22,143.41 380.33,144.09 380.45,145.91 380.57,139.32 380.68,143.18 380.80,150.22 380.91,150.90 381.03,150.68 381.15,142.27 381.26,145.68 381.38,147.04 381.49,146.59 381.61,152.04 381.73,147.50 381.84,142.27 381.96,145.68 382.07,151.58 382.19,151.58 382.31,153.17 382.42,153.17 382.54,145.45 382.65,146.13 382.77,151.81 382.89,147.04 383.00,149.09 383.12,145.45 383.23,146.36 383.35,151.81 383.47,148.18 383.58,149.99 383.70,148.40 383.81,153.17 383.93,147.27 384.05,145.00 384.16,150.90 384.28,145.68 384.39,147.50 384.51,152.72 384.63,146.36 384.74,147.04 384.86,151.81 384.97,153.40 385.09,156.35 385.21,153.63 385.32,154.08 385.44,152.27 385.55,149.09 385.67,152.49 385.79,153.86 385.90,145.68 386.02,147.27 386.13,148.86 386.25,150.45 386.37,147.72 386.48,156.81 386.60,144.09 386.71,151.58 386.83,147.95 386.95,150.90 387.06,142.27 387.18,140.91 387.29,148.18 387.41,147.27 387.53,150.68 387.64,144.32 387.76,147.95 387.87,148.40 387.99,145.91 388.11,148.18 388.22,149.77 388.34,147.27 388.45,149.77 388.57,150.22 388.69,149.31 388.80,149.99 388.92,148.40 389.03,144.54 389.15,145.00 389.27,145.45 389.38,144.32 389.50,146.13 389.61,140.00 389.73,147.04 389.85,145.45 389.96,148.86 390.08,147.95 390.19,144.32 390.31,145.45 390.43,142.04 390.54,152.04 390.66,143.86 390.78,143.63 390.89,145.22 391.01,153.63 391.12,139.77 391.24,142.50 391.36,141.59 391.47,149.31 391.59,147.04 391.70,148.63 391.82,142.95 391.94,144.54 392.05,145.91 392.17,146.13 392.28,144.09 392.40,146.81 392.52,147.95 392.63,144.09 392.75,146.13 392.86,151.13 392.98,145.22 393.10,146.13 393.21,145.68 393.33,145.22 393.44,142.95 393.56,144.32 393.68,145.68 393.79,144.09 393.91,142.95 394.02,147.95 394.14,147.50 394.26,145.68 394.37,154.08 394.49,144.54 394.60,141.36 394.72,146.81 394.84,148.40 394.95,153.40 395.07,146.59 395.18,143.86 395.30,146.81 395.42,148.86 395.53,147.95 395.65,145.00 395.76,149.54 395.88,146.36 396.00,147.72 396.11,146.81 396.23,145.68 396.34,144.54 396.46,148.18 396.58,150.22 396.69,150.45 396.81,148.40 396.92,150.45 397.04,151.13 397.16,145.45 397.27,152.27 397.39,143.86 397.50,146.13 397.62,144.54 397.74,156.35 397.85,146.59 397.97,146.59 398.08,154.08 398.20,150.22 398.32,145.68 398.43,149.99 398.55,148.86 398.66,149.31 398.78,141.36 398.90,146.13 399.01,145.22 399.13,146.59 399.24,143.86 399.36,148.63 399.48,153.40 399.59,152.04 399.71,143.41 399.82,145.68 399.94,145.68 400.06,154.76 400.17,141.14 400.29,146.36 400.40,146.13 400.52,142.95 400.64,146.81 400.75,150.68 400.87,147.50 400.98,143.86 401.10,149.09 401.22,146.81 401.33,149.31 401.45,140.00 401.56,147.04 401.68,143.63 401.80,149.77 401.91,148.86 402.03,149.77 402.14,150.22 402.26,149.31 402.38,145.00 402.49,146.36 402.61,147.50 402.72,144.32 402.84,147.27 402.96,147.95 403.07,145.91 403.19,148.63 403.30,146.13 403.42,149.54 403.54,150.22 403.65,148.18 403.77,145.22 403.88,148.86 404.00,144.77 404.12,140.46 404.23,143.86 404.35,152.72 404.46,142.95 404.58,149.54 404.70,144.77 404.81,151.36 404.93,143.86 405.04,152.72 405.16,152.04 405.28,148.86 405.39,145.00 405.51,151.13 405.62,143.86 405.74,146.59 405.86,148.86 405.97,150.90 406.09,150.22 406.20,144.54 406.32,145.68 406.44,142.27 406.55,146.13 406.67,148.86 406.78,152.72 406.90,148.63 407.02,147.72 407.13,147.27 407.25,138.64 407.36,147.04 407.48,151.58 407.60,152.72 407.71,148.63 407.83,146.13 407.94,145.00 408.06,147.50 408.18,143.18 408.29,145.22 408.41,143.18 408.52,152.72 408.64,146.36 408.76,149.99 408.87,146.59 408.99,150.22 409.10,143.86 409.22,148.18 409.34,145.91 409.45,143.41 409.57,143.86 409.69,144.54 409.80,147.72 409.92,149.99 410.03,147.95 410.15,149.54 410.27,142.50 410.38,147.95 410.50,148.40 410.61,151.81 410.73,157.49 410.85,142.27 410.96,153.40 411.08,145.22 411.19,144.32 411.31,140.91 411.43,149.99 411.54,148.18 411.66,146.36 411.77,152.72 411.89,143.41 412.01,146.59 412.12,147.04 412.24,148.86 412.35,147.27 412.47,144.54 412.59,148.86 412.70,145.45 412.82,138.64 412.93,148.18 413.05,144.09 413.17,146.59 413.28,152.04 413.40,149.09 413.51,144.09 413.63,144.32 413.75,148.63 413.86,144.32 413.98,148.40 414.09,148.40 414.21,145.91 414.33,147.72 414.44,144.09 414.56,148.63 414.67,146.13 414.79,145.91 414.91,148.63 415.02,149.09 415.14,151.13 415.25,148.40 415.37,139.55 415.49,150.68 415.60,149.31 415.72,151.13 415.83,148.63 415.95,146.81 416.07,148.40 416.18,153.40 416.30,146.59 416.41,143.41 416.53,147.72 416.65,143.63 416.76,144.77 416.88,152.49 416.99,147.95 417.11,142.04 417.23,144.77 417.34,148.63 417.46,145.45 417.57,144.54 417.69,149.77 417.81,154.08 417.92,146.36 418.04,147.95 418.15,148.86 418.27,149.31 418.39,150.45 418.50,152.04 418.62,139.77 418.73,147.04 418.85,147.95 418.97,143.86 419.08,151.58 419.20,144.77 419.31,151.13 419.43,143.86 419.55,153.86 419.66,146.81 419.78,142.27 419.89,149.09 420.01,146.59 420.13,148.86 420.24,141.82 420.36,149.09 420.47,148.86 420.59,147.50 420.71,144.09 420.82,150.68 420.94,145.22 421.05,153.40 421.17,144.54 421.29,152.27 421.40,152.04 421.52,144.54 421.63,147.72 421.75,147.95 421.87,150.45 421.98,142.50 422.10,142.95 422.21,148.63 422.33,145.22 422.45,148.86 422.56,148.18 422.68,149.31 422.79,145.22 422.91,147.50 423.03,150.45 423.14,147.04 423.26,150.68 423.37,148.18 423.49,145.00 423.61,150.90 423.72,150.90 423.84,140.00 423.95,145.91 424.07,146.13 424.19,154.31 424.30,143.18 424.42,147.04 424.53,154.99 424.65,145.68 424.77,144.32 424.88,145.91 425.00,147.27 425.11,142.50 425.23,145.91 425.35,149.09 425.46,145.45 425.58,143.18 425.69,140.91 425.81,147.72 425.93,153.17 426.04,140.46 426.16,153.40 426.27,155.45 426.39,148.40 426.51,145.68 426.62,145.91 426.74,147.95 426.85,151.58 426.97,155.90 427.09,148.86 427.20,153.17 427.32,144.09 427.43,144.09 427.55,154.54 427.67,153.63 427.78,144.54 427.90,146.81 428.02,147.27 428.13,146.36 428.25,141.59 428.36,147.50 428.48,151.13 428.60,146.81 428.71,150.22 428.83,150.90 428.94,147.27 429.06,146.59 429.18,155.45 429.29,145.45 429.41,146.59 429.52,140.00 429.64,144.77 429.76,149.99 429.87,150.68 429.99,143.86 430.10,149.54 430.22,148.63 430.34,149.31 430.45,146.81 430.57,154.54 430.68,142.50 430.80,155.45 430.92,152.27 "
     style="stroke:#000000;stroke-width:1.16643;stroke-linecap:butt;stroke-miterlimit:10;stroke-dasharray:none"
     clip-path="url(#cpMzA5LjEwfDQzNi43MnwyMzYuMjV8MjIuNDA=)"
     id="polyline142108"
     transform="matrix(1,0,0,0.7349975,-42.92,-98.638033)" />
  <defs
     id="defs142114">
    <clipPath
       id="clipPath142112">
      <rect
         x="0"
         y="0"
         width="504"
         height="504"
         id="rect142110" />
    </clipPath>
  </defs>
  <defs
     id="defs142119">
    <clipPath
       id="cpMzA5LjEwfDQzNi43Mnw0NzIuNTF8MjU4LjY1">
      <rect
         x="309.10001"
         y="258.64999"
         width="127.61"
         height="213.86"
         id="rect142116" />
    </clipPath>
  </defs>
  <polyline
     points="314.90,275.19 315.02,272.69 315.13,276.55 315.25,272.69 315.37,279.05 315.48,276.55 315.60,277.46 315.72,272.46 315.83,274.05 315.95,274.51 316.06,274.28 316.18,275.41 316.30,271.33 316.41,277.46 316.53,277.46 316.64,275.41 316.76,274.73 316.88,276.55 316.99,273.82 317.11,271.78 317.22,271.78 317.34,275.87 317.46,277.23 317.57,272.69 317.69,277.69 317.80,272.92 317.92,274.28 318.04,274.05 318.15,271.78 318.27,274.05 318.38,268.83 318.50,273.82 318.62,277.91 318.73,277.00 318.85,274.51 318.96,277.00 319.08,272.69 319.20,273.82 319.31,278.82 319.43,273.14 319.54,276.55 319.66,278.14 319.78,273.60 319.89,274.73 320.01,272.92 320.12,278.14 320.24,276.78 320.36,277.46 320.47,275.41 320.59,275.19 320.70,277.69 320.82,274.05 320.94,278.59 321.05,275.64 321.17,273.82 321.28,275.19 321.40,274.05 321.52,276.10 321.63,275.87 321.75,276.78 321.86,277.00 321.98,274.05 322.10,273.82 322.21,272.92 322.33,276.32 322.44,276.32 322.56,273.60 322.68,275.87 322.79,276.78 322.91,272.92 323.02,270.87 323.14,271.10 323.26,273.60 323.37,272.69 323.49,272.46 323.60,274.05 323.72,271.10 323.84,277.23 323.95,277.46 324.07,274.05 324.18,276.32 324.30,277.91 324.42,274.96 324.53,273.82 324.65,273.82 324.76,275.19 324.88,273.82 325.00,275.64 325.11,274.73 325.23,277.46 325.34,275.19 325.46,274.05 325.58,272.69 325.69,275.19 325.81,274.96 325.92,277.46 326.04,280.41 326.16,273.82 326.27,274.51 326.39,277.23 326.50,272.01 326.62,276.78 326.74,273.60 326.85,275.41 326.97,276.10 327.08,272.23 327.20,274.96 327.32,276.78 327.43,275.87 327.55,279.27 327.66,274.51 327.78,274.96 327.90,273.14 328.01,277.00 328.13,277.46 328.24,275.64 328.36,275.41 328.48,273.14 328.59,275.41 328.71,268.37 328.82,275.64 328.94,276.55 329.06,274.96 329.17,271.78 329.29,274.51 329.40,274.73 329.52,272.69 329.64,271.10 329.75,276.10 329.87,272.69 329.98,275.64 330.10,276.10 330.22,277.91 330.33,273.60 330.45,275.41 330.56,277.91 330.68,274.05 330.80,276.78 330.91,275.64 331.03,275.19 331.14,275.64 331.26,268.83 331.38,274.28 331.49,274.05 331.61,277.46 331.72,275.87 331.84,274.28 331.96,274.96 332.07,274.05 332.19,273.60 332.30,274.28 332.42,277.46 332.54,273.60 332.65,279.50 332.77,277.91 332.88,274.73 333.00,273.82 333.12,275.64 333.23,276.32 333.35,275.87 333.46,274.05 333.58,273.82 333.70,275.41 333.81,271.55 333.93,272.69 334.04,276.10 334.16,274.05 334.28,276.78 334.39,279.73 334.51,276.10 334.63,274.51 334.74,275.19 334.86,279.27 334.97,275.19 335.09,272.01 335.21,276.55 335.32,273.14 335.44,273.82 335.55,277.46 335.67,276.55 335.79,274.73 335.90,274.28 336.02,273.82 336.13,276.10 336.25,273.82 336.37,275.19 336.48,277.00 336.60,277.91 336.71,275.87 336.83,275.64 336.95,272.69 337.06,272.01 337.18,273.14 337.29,276.32 337.41,273.60 337.53,277.00 337.64,273.60 337.76,272.23 337.87,272.92 337.99,278.14 338.11,274.96 338.22,274.05 338.34,273.60 338.45,276.10 338.57,275.64 338.69,275.41 338.80,275.41 338.92,274.96 339.03,275.64 339.15,274.05 339.27,275.19 339.38,277.00 339.50,277.23 339.61,274.28 339.73,274.28 339.85,272.69 339.96,278.14 340.08,273.37 340.19,275.41 340.31,274.73 340.43,273.37 340.54,275.87 340.66,272.46 340.77,278.59 340.89,272.69 341.01,275.87 341.12,272.01 341.24,274.51 341.35,275.87 341.47,281.55 341.59,279.50 341.70,272.92 341.82,276.78 341.93,274.73 342.05,274.28 342.17,277.23 342.28,274.73 342.40,274.05 342.51,273.14 342.63,269.05 342.75,274.28 342.86,274.28 342.98,274.73 343.09,274.96 343.21,274.28 343.33,274.96 343.44,273.60 343.56,270.87 343.67,279.96 343.79,278.82 343.91,274.73 344.02,275.87 344.14,274.28 344.25,273.82 344.37,274.28 344.49,271.78 344.60,275.87 344.72,279.50 344.83,278.82 344.95,275.19 345.07,274.73 345.18,273.60 345.30,276.55 345.41,277.23 345.53,273.60 345.65,276.32 345.76,272.46 345.88,273.14 345.99,280.18 346.11,274.96 346.23,274.51 346.34,277.00 346.46,274.51 346.57,275.41 346.69,274.28 346.81,273.82 346.92,274.51 347.04,276.10 347.15,274.73 347.27,272.46 347.39,277.23 347.50,269.28 347.62,273.37 347.73,276.32 347.85,277.69 347.97,274.96 348.08,274.28 348.20,273.82 348.31,275.19 348.43,275.41 348.55,272.01 348.66,274.28 348.78,271.55 348.89,272.46 349.01,271.78 349.13,274.05 349.24,277.91 349.36,276.10 349.47,277.23 349.59,273.82 349.71,276.32 349.82,273.14 349.94,276.10 350.05,273.82 350.17,275.41 350.29,274.73 350.40,272.01 350.52,273.60 350.63,274.05 350.75,275.87 350.87,276.10 350.98,272.92 351.10,273.37 351.21,272.46 351.33,274.28 351.45,273.37 351.56,274.96 351.68,275.64 351.79,274.51 351.91,274.96 352.03,272.69 352.14,275.64 352.26,274.96 352.37,272.46 352.49,275.87 352.61,275.64 352.72,272.23 352.84,272.23 352.96,274.51 353.07,272.69 353.19,274.73 353.30,275.87 353.42,273.60 353.54,277.23 353.65,275.64 353.77,275.87 353.88,271.78 354.00,271.78 354.12,271.10 354.23,274.96 354.35,274.73 354.46,276.10 354.58,274.96 354.70,273.37 354.81,273.37 354.93,275.64 355.04,271.55 355.16,274.51 355.28,279.96 355.39,271.55 355.51,271.33 355.62,279.96 355.74,274.28 355.86,279.05 355.97,276.78 356.09,274.73 356.20,271.55 356.32,276.32 356.44,275.19 356.55,274.28 356.67,271.10 356.78,274.05 356.90,272.92 357.02,273.37 357.13,275.19 357.25,277.46 357.36,272.92 357.48,274.05 357.60,273.60 357.71,276.10 357.83,275.87 357.94,277.69 358.06,274.51 358.18,275.87 358.29,274.96 358.41,276.78 358.52,273.82 358.64,273.14 358.76,273.14 358.87,273.14 358.99,277.23 359.10,277.23 359.22,277.91 359.34,274.28 359.45,278.37 359.57,274.51 359.68,274.28 359.80,274.05 359.92,275.19 360.03,275.87 360.15,276.78 360.26,274.28 360.38,270.42 360.50,270.64 360.61,278.37 360.73,275.87 360.84,274.28 360.96,271.78 361.08,276.55 361.19,271.78 361.31,276.10 361.42,277.69 361.54,275.19 361.66,276.10 361.77,274.51 361.89,274.05 362.00,275.19 362.12,275.87 362.24,275.64 362.35,274.28 362.47,274.05 362.58,279.73 362.70,271.10 362.82,274.28 362.93,276.55 363.05,278.14 363.16,274.96 363.28,278.14 363.40,273.37 363.51,274.96 363.63,277.46 363.74,274.96 363.86,276.10 363.98,275.19 364.09,273.60 364.21,276.32 364.32,274.96 364.44,275.41 364.56,274.73 364.67,275.87 364.79,271.78 364.90,272.46 365.02,275.19 365.14,273.60 365.25,274.05 365.37,274.73 365.48,272.01 365.60,275.19 365.72,272.23 365.83,278.37 365.95,274.28 366.06,274.05 366.18,276.32 366.30,271.10 366.41,271.33 366.53,274.51 366.64,277.00 366.76,280.64 366.88,279.27 366.99,272.46 367.11,279.96 367.22,276.55 367.34,277.23 367.46,273.60 367.57,272.01 367.69,277.69 367.80,270.42 367.92,272.01 368.04,276.78 368.15,273.14 368.27,275.41 368.38,274.96 368.50,273.82 368.62,275.41 368.73,275.64 368.85,276.10 368.96,274.05 369.08,276.10 369.20,275.64 369.31,275.19 369.43,273.82 369.54,275.41 369.66,275.64 369.78,275.19 369.89,274.28 370.01,276.55 370.12,277.46 370.24,277.91 370.36,276.10 370.47,274.73 370.59,279.50 370.70,275.64 370.82,277.46 370.94,275.87 371.05,273.37 371.17,276.10 371.28,275.87 371.40,279.05 371.52,274.28 371.63,275.19 371.75,271.33 371.87,277.69 371.98,274.05 372.10,277.00 372.21,273.60 372.33,273.60 372.45,274.96 372.56,276.10 372.68,277.00 372.79,274.28 372.91,277.00 373.03,277.23 373.14,274.28 373.26,272.69 373.37,276.32 373.49,272.92 373.61,275.64 373.72,276.55 373.84,273.60 373.95,274.05 374.07,278.14 374.19,275.87 374.30,272.46 374.42,275.19 374.53,277.23 374.65,276.78 374.77,276.32 374.88,276.55 375.00,275.19 375.11,279.27 375.23,272.01 375.35,274.73 375.46,278.59 375.58,274.05 375.69,281.55 375.81,271.55 375.93,275.19 376.04,274.05 376.16,271.10 376.27,272.92 376.39,274.51 376.51,276.55 376.62,274.28 376.74,279.50 376.85,274.73 376.97,275.87 377.09,274.96 377.20,277.23 377.32,276.55 377.43,274.05 377.55,275.64 377.67,275.41 377.78,275.19 377.90,278.37 378.01,275.64 378.13,275.41 378.25,275.87 378.36,277.23 378.48,269.51 378.59,276.10 378.71,277.46 378.83,273.14 378.94,275.64 379.06,274.51 379.17,273.37 379.29,275.41 379.41,273.60 379.52,274.51 379.64,278.82 379.75,275.19 379.87,274.96 379.99,277.23 380.10,271.33 380.22,273.82 380.33,273.14 380.45,277.23 380.57,273.82 380.68,277.46 380.80,276.32 380.91,279.50 381.03,276.32 381.15,276.10 381.26,276.55 381.38,273.82 381.49,272.23 381.61,276.78 381.73,272.01 381.84,275.87 381.96,274.05 382.07,272.46 382.19,274.96 382.31,274.05 382.42,271.55 382.54,273.37 382.65,274.96 382.77,273.14 382.89,272.01 383.00,276.32 383.12,277.46 383.23,277.00 383.35,279.27 383.47,272.69 383.58,274.51 383.70,277.00 383.81,274.73 383.93,272.69 384.05,274.05 384.16,272.01 384.28,274.05 384.39,271.33 384.51,277.00 384.63,273.82 384.74,279.27 384.86,276.55 384.97,275.19 385.09,272.01 385.21,273.14 385.32,277.23 385.44,272.23 385.55,276.10 385.67,272.46 385.79,276.32 385.90,277.46 386.02,277.23 386.13,275.19 386.25,272.92 386.37,274.96 386.48,272.01 386.60,270.87 386.71,272.01 386.83,274.96 386.95,272.69 387.06,275.87 387.18,273.37 387.29,274.96 387.41,274.28 387.53,278.14 387.64,273.37 387.76,275.19 387.87,274.51 387.99,277.23 388.11,274.05 388.22,275.87 388.34,271.33 388.45,272.23 388.57,272.92 388.69,272.69 388.80,273.60 388.92,276.78 389.03,274.28 389.15,273.60 389.27,274.73 389.38,275.19 389.50,277.69 389.61,278.37 389.73,276.55 389.85,273.60 389.96,276.10 390.08,277.69 390.19,274.28 390.31,271.55 390.43,278.59 390.54,273.82 390.66,274.51 390.78,271.55 390.89,275.64 391.01,272.46 391.12,279.27 391.24,275.64 391.36,271.78 391.47,273.37 391.59,280.64 391.70,274.73 391.82,273.14 391.94,275.87 392.05,276.10 392.17,275.64 392.28,278.14 392.40,274.96 392.52,270.87 392.63,275.19 392.75,274.96 392.86,275.41 392.98,274.51 393.10,274.96 393.21,274.73 393.33,277.00 393.44,278.59 393.56,275.41 393.68,276.32 393.79,274.96 393.91,274.05 394.02,272.69 394.14,274.28 394.26,272.92 394.37,274.73 394.49,272.23 394.60,272.92 394.72,276.10 394.84,275.87 394.95,273.82 395.07,270.87 395.18,277.00 395.30,274.05 395.42,273.14 395.53,279.27 395.65,275.87 395.76,277.69 395.88,272.92 396.00,277.46 396.11,275.19 396.23,279.05 396.34,272.46 396.46,277.69 396.58,276.55 396.69,273.82 396.81,276.10 396.92,272.92 397.04,277.23 397.16,272.23 397.27,274.73 397.39,275.64 397.50,277.46 397.62,270.64 397.74,274.73 397.85,270.42 397.97,276.32 398.08,271.78 398.20,274.51 398.32,276.55 398.43,278.14 398.55,274.05 398.66,277.00 398.78,272.92 398.90,274.05 399.01,271.33 399.13,274.28 399.24,276.78 399.36,271.33 399.48,273.60 399.59,276.10 399.71,273.60 399.82,272.01 399.94,274.73 400.06,271.78 400.17,281.77 400.29,275.19 400.40,275.19 400.52,274.73 400.64,273.14 400.75,274.28 400.87,279.73 400.98,273.37 401.10,278.14 401.22,275.41 401.33,273.82 401.45,275.87 401.56,271.55 401.68,279.96 401.80,274.96 401.91,274.28 402.03,275.64 402.14,273.14 402.26,273.14 402.38,273.82 402.49,276.32 402.61,276.78 402.72,275.19 402.84,274.28 402.96,275.41 403.07,275.19 403.19,272.46 403.30,270.42 403.42,276.10 403.54,274.28 403.65,272.23 403.77,272.69 403.88,276.55 404.00,275.19 404.12,280.64 404.23,275.64 404.35,272.23 404.46,276.32 404.58,273.60 404.70,274.96 404.81,274.73 404.93,272.01 405.04,274.28 405.16,275.41 405.28,278.14 405.39,280.18 405.51,273.37 405.62,273.37 405.74,278.14 405.86,275.87 405.97,273.60 406.09,275.19 406.20,275.19 406.32,272.23 406.44,274.96 406.55,275.64 406.67,276.55 406.78,274.51 406.90,274.96 407.02,271.33 407.13,271.78 407.25,270.87 407.36,274.51 407.48,274.28 407.60,275.19 407.71,274.96 407.83,277.46 407.94,272.46 408.06,278.14 408.18,276.10 408.29,277.00 408.41,277.00 408.52,274.51 408.64,276.32 408.76,272.46 408.87,276.78 408.99,277.00 409.10,273.82 409.22,273.60 409.34,272.92 409.45,277.23 409.57,277.46 409.69,277.00 409.80,277.91 409.92,275.64 410.03,278.37 410.15,277.91 410.27,273.14 410.38,273.37 410.50,274.05 410.61,276.10 410.73,277.00 410.85,275.64 410.96,274.73 411.08,274.28 411.19,274.51 411.31,275.64 411.43,272.69 411.54,275.87 411.66,274.73 411.77,275.19 411.89,275.87 412.01,274.51 412.12,273.60 412.24,273.82 412.35,280.64 412.47,274.96 412.59,272.46 412.70,274.05 412.82,274.28 412.93,274.05 413.05,274.96 413.17,276.55 413.28,279.96 413.40,272.46 413.51,274.73 413.63,274.28 413.75,274.73 413.86,274.96 413.98,271.55 414.09,271.33 414.21,273.37 414.33,272.92 414.44,273.60 414.56,276.78 414.67,274.73 414.79,273.37 414.91,274.51 415.02,274.73 415.14,278.59 415.25,271.55 415.37,276.32 415.49,272.69 415.60,272.92 415.72,277.46 415.83,277.91 415.95,277.00 416.07,274.28 416.18,276.10 416.30,277.23 416.41,276.32 416.53,272.46 416.65,274.96 416.76,276.78 416.88,273.37 416.99,274.05 417.11,273.60 417.23,275.64 417.34,274.05 417.46,274.73 417.57,275.19 417.69,273.60 417.81,273.82 417.92,274.28 418.04,276.78 418.15,277.91 418.27,271.78 418.39,274.73 418.50,278.37 418.62,271.10 418.73,274.05 418.85,277.23 418.97,274.05 419.08,275.87 419.20,272.69 419.31,274.05 419.43,278.37 419.55,274.05 419.66,279.05 419.78,275.41 419.89,277.00 420.01,276.32 420.13,271.10 420.24,274.51 420.36,274.73 420.47,274.73 420.59,276.10 420.71,278.37 420.82,274.28 420.94,274.28 421.05,274.96 421.17,277.23 421.29,276.55 421.40,271.78 421.52,273.14 421.63,276.78 421.75,272.01 421.87,272.92 421.98,273.14 422.10,272.01 422.21,280.64 422.33,274.51 422.45,277.91 422.56,273.60 422.68,279.50 422.79,277.23 422.91,276.10 423.03,272.01 423.14,273.14 423.26,270.42 423.37,276.10 423.49,277.23 423.61,272.46 423.72,275.87 423.84,277.23 423.95,274.05 424.07,276.10 424.19,276.55 424.30,273.14 424.42,273.37 424.53,276.55 424.65,276.10 424.77,271.33 424.88,274.28 425.00,273.82 425.11,275.87 425.23,276.78 425.35,275.19 425.46,274.51 425.58,276.10 425.69,273.14 425.81,272.69 425.93,276.55 426.04,275.87 426.16,276.10 426.27,276.32 426.39,277.23 426.51,275.64 426.62,272.01 426.74,271.78 426.85,277.00 426.97,273.60 427.09,275.64 427.20,273.82 427.32,274.28 427.43,276.32 427.55,274.73 427.67,274.05 427.78,274.05 427.90,272.69 428.02,273.60 428.13,273.37 428.25,276.10 428.36,273.14 428.48,277.23 428.60,276.10 428.71,277.00 428.83,273.37 428.94,273.37 429.06,273.82 429.18,274.28 429.29,276.10 429.41,276.32 429.52,279.05 429.64,275.64 429.76,277.00 429.87,274.96 429.99,274.28 430.10,271.10 430.22,276.32 430.34,273.82 430.45,274.05 430.57,273.82 430.68,271.55 430.80,277.23 430.92,275.64 "
     style="stroke:#000000;stroke-width:1.16643;stroke-linecap:butt;stroke-miterlimit:10;stroke-dasharray:none"
     clip-path="url(#cpMzA5LjEwfDQzNi43Mnw0NzIuNTF8MjU4LjY1)"
     id="polyline142155"
     transform="matrix(1,0,0,0.7349975,-42.92,-98.638033)" />
  <defs
     id="defs142161">
    <clipPath
       id="clipPath142159">
      <rect
         x="0"
         y="0"
         width="504"
         height="504"
         id="rect142157" />
    </clipPath>
  </defs>
  <defs
     id="defs142166">
    <clipPath
       id="cpNDIuOTJ8MTcwLjUzfDI1OC42NXwyNDEuNzM=">
      <rect
         x="42.919998"
         y="241.73"
         width="127.61"
         height="16.92"
         id="rect142163" />
    </clipPath>
  </defs>
  <defs
     id="defs142178">
    <clipPath
       id="clipPath142176">
      <rect
         x="0"
         y="0"
         width="504"
         height="504"
         id="rect142174" />
    </clipPath>
  </defs>
  <defs
     id="defs142183">
    <clipPath
       id="cpMTc2LjAxfDMwMy42MnwyNTguNjV8MjQxLjcz">
      <rect
         x="176.00999"
         y="241.73"
         width="127.61"
         height="16.92"
         id="rect142180" />
    </clipPath>
  </defs>
  <defs
     id="defs142195">
    <clipPath
       id="clipPath142193">
      <rect
         x="0"
         y="0"
         width="504"
         height="504"
         id="rect142191" />
    </clipPath>
  </defs>
  <defs
     id="defs142200">
    <clipPath
       id="cpMzA5LjEwfDQzNi43MnwyNTguNjV8MjQxLjcz">
      <rect
         x="309.10001"
         y="241.73"
         width="127.61"
         height="16.92"
         id="rect142197" />
    </clipPath>
  </defs>
  <defs
     id="defs142212">
    <clipPath
       id="clipPath142210">
      <rect
         x="0"
         y="0"
         width="504"
         height="504"
         id="rect142208" />
    </clipPath>
  </defs>
  <defs
     id="defs142217">
    <clipPath
       id="cpNDIuOTJ8MTcwLjUzfDIyLjQwfDUuNDg=">
      <rect
         x="42.919998"
         y="5.48"
         width="127.61"
         height="16.92"
         id="rect142214" />
    </clipPath>
  </defs>
  <defs
     id="defs142229">
    <clipPath
       id="clipPath142227">
      <rect
         x="0"
         y="0"
         width="504"
         height="504"
         id="rect142225" />
    </clipPath>
  </defs>
  <defs
     id="defs142234">
    <clipPath
       id="cpMTc2LjAxfDMwMy42MnwyMi40MHw1LjQ4">
      <rect
         x="176.00999"
         y="5.48"
         width="127.61"
         height="16.92"
         id="rect142231" />
    </clipPath>
  </defs>
  <defs
     id="defs142246">
    <clipPath
       id="clipPath142244">
      <rect
         x="0"
         y="0"
         width="504"
         height="504"
         id="rect142242" />
    </clipPath>
  </defs>
  <defs
     id="defs142251">
    <clipPath
       id="cpMzA5LjEwfDQzNi43MnwyMi40MHw1LjQ4">
      <rect
         x="309.10001"
         y="5.48"
         width="127.61"
         height="16.92"
         id="rect142248" />
    </clipPath>
  </defs>
  <defs
     id="defs142263">
    <clipPath
       id="clipPath142261">
      <rect
         x="0"
         y="0"
         width="504"
         height="504"
         id="rect142259" />
    </clipPath>
  </defs>
  <path
     style="fill:none;stroke:#757575;stroke-width:1;stroke-linecap:butt;stroke-linejoin:miter;stroke-miterlimit:10;stroke-dasharray:1, 1;stroke-dashoffset:0;stroke-opacity:1"
     d="M 0,80.047207 H 394.55635"
     id="path143045" />
  <path
     style="fill:none;stroke:#757575;stroke-width:1;stroke-linecap:butt;stroke-linejoin:miter;stroke-miterlimit:10;stroke-dasharray:1, 1;stroke-dashoffset:0;stroke-opacity:1"
     d="M 0,253.69772 H 394.55635"
     id="path143045-9" />
  <text
     xml:space="preserve"
     style="font-stretch:condensed;font-size:10.6667px;line-height:1.25;font-family:'Noto Sans';-inkscape-font-specification:'Noto Sans, Condensed';letter-spacing:0px;word-spacing:0px;writing-mode:lr-tb"
     x="0.80575758"
     y="215.81465"
     id="text143071"><tspan
       sodipodi:role="line"
       id="tspan143069"
       x="0.80575758"
       y="215.81465">1 nA</tspan></text>
  <text
     xml:space="preserve"
     style="font-stretch:condensed;font-size:10.6667px;line-height:1.25;font-family:'Noto Sans';-inkscape-font-specification:'Noto Sans, Condensed';letter-spacing:0px;word-spacing:0px;writing-mode:lr-tb"
     x="33.507637"
     y="247.16176"
     id="text143075"><tspan
       sodipodi:role="line"
       id="tspan143073"
       x="33.507637"
       y="247.16176">2 seconds</tspan></text>
</svg>
