<?xml version="1.0" encoding="UTF-8" standalone="no"?>
<svg
   xmlns:dc="http://purl.org/dc/elements/1.1/"
   xmlns:cc="http://creativecommons.org/ns#"
   xmlns:rdf="http://www.w3.org/1999/02/22-rdf-syntax-ns#"
   xmlns:svg="http://www.w3.org/2000/svg"
   xmlns="http://www.w3.org/2000/svg"
   xmlns:sodipodi="http://sodipodi.sourceforge.net/DTD/sodipodi-0.dtd"
   xmlns:inkscape="http://www.inkscape.org/namespaces/inkscape"
   width="127.39722mm"
   height="43.019112mm"
   viewBox="0 0 127.39722 43.019112"
   version="1.1"
   id="svg140065"
   inkscape:version="1.0.1 (3bc2e813f5, 2020-09-07, custom)"
   sodipodi:docname="spectra_converge.svg">
  <defs
     id="defs140059">
    <pattern
       id="EMFhbasepattern"
       patternUnits="userSpaceOnUse"
       width="6"
       height="6"
       x="0"
       y="0" />
  </defs>
  <sodipodi:namedview
     id="base"
     pagecolor="#ffffff"
     bordercolor="#666666"
     borderopacity="1.0"
     inkscape:pageopacity="0.0"
     inkscape:pageshadow="2"
     inkscape:zoom="0.98994949"
     inkscape:cx="243.27969"
     inkscape:cy="110.05325"
     inkscape:document-units="mm"
     inkscape:current-layer="g141119"
     inkscape:document-rotation="0"
     showgrid="false"
     inkscape:window-width="1366"
     inkscape:window-height="768"
     inkscape:window-x="0"
     inkscape:window-y="0"
     inkscape:window-maximized="1" />
  <metadata
     id="metadata140062">
    <rdf:RDF>
      <cc:Work
         rdf:about="">
        <dc:format>image/svg+xml</dc:format>
        <dc:type
           rdf:resource="http://purl.org/dc/dcmitype/StillImage" />
        <dc:title></dc:title>
      </cc:Work>
    </rdf:RDF>
  </metadata>
  <g
     inkscape:label="Layer 1"
     inkscape:groupmode="layer"
     id="layer1"
     transform="translate(184.30539,-2192.1625)">
    <path
       id="path140759"
       style="fill:none;stroke:#fb8c00;stroke-width:0.529167;stroke-linecap:round;stroke-linejoin:round;stroke-miterlimit:4;stroke-dasharray:none;stroke-opacity:1"
       d="m -75.414528,2224.5893 v 0 l 0.0879,0.086 v -0.086 0.086 -0.086 h 0.0879 v 0.086 0 h 0.0879 v 0 0 0 l 0.0879,-0.086 v 0.086 0 0 h 0.0879 v 0 0 l 0.0879,-0.086 v 0.086 -0.086 0 l 0.0879,0.086 v -0.086 0 0 l 0.0879,0.086 v 0 -0.086 l 0.0879,0.086 v 0 0 -0.086 h 0.0879 v 0 0.086 0 h 0.0879 v 0 -0.086 0.086 h 0.0879 v 0 0 h 0.0879 v 0 -0.086 0.086 h 0.0879 v 0 0 0 h 0.0879 v 0 0 0 h 0.0879 v 0 -0.086 0 l 0.0879,0.086 v 0 0 0 h 0.0879 v 0 0 h 0.0879 v 0 0 0 h 0.0879 v 0 0 0 h 0.0879 v 0 0 0 h 0.0879 v -0.086 0.086 0 h 0.0879 v 0 0 0 h 0.0879 v 0 0 0 h 0.0879 v 0 0 0 h 0.0879 v 0 0 0 h 0.0879 v 0 0 0 h 0.0879 v 0 0 0 h 0.0879 v 0 0 0 h 0.0879 v 0 0 0 h 0.0879 v 0 0 0.086 l 0.0879,-0.086 v 0 0 0 h 0.0879 v 0 0 0 h 0.0879 v 0 0 0.086 l 0.0879,-0.086 v 0 0 0 h 0.0879 v 0 0 0 h 0.0879 v 0 0 0 h 0.0879 v 0 0 0 h 0.0879 v 0.086 -0.086 0 h 0.0879 v 0 0 0 0 h 0.0879 v 0 0 0 h 0.0879 v 0.086 -0.086 0 l 0.0879,0.086 v -0.086 0 0 h 0.0879 v 0.086 -0.086 0.086 h 0.0879 v 0 0 0 -0.086 h 0.0879 v 0 0 0 h 0.0879 v 0 0.086 -0.086 l 0.0879,0.086 v 0 0 -0.086 h 0.0879 v 0 0 0.086 -0.086 l 0.0879,0.086 v 0 -0.086 0 h 0.0879 v 0 0 0 l 0.0879,0.086 v 0 0 0 0 l 0.0879,-0.086 v 0 0.086 0 h 0.0879 v 0 -0.086 0 h 0.0879 v 0.086 0 0 0 h 0.0879 v 0 0 0 h 0.0879 v -0.086 0.086 0 0 h 0.0879 v -0.086 0 0.086 h 0.0879 v 0 0 0 h 0.0879 v -0.086 0.086 0 0 l 0.0879,-0.086 v 0.086 0 0 h 0.0879 v 0 0 0 0 h 0.0879 v 0 0 0 h 0.0879 v 0 0 0 0 h 0.0879 v 0 0 0 h 0.0879 v 0 0 0 0 h 0.0879 v 0 0 0 0 h 0.0879 v 0 0 0 h 0.0879 v 0 0 0 0 h 0.0879 v 0 0 0 h 0.0879 v 0 0 0 0 h 0.0879 v 0 0 0 0 h 0.0879 v 0 0 0 h 0.0879 v 0 0 0 0 h 0.0879 v 0 0 0 0 h 0.0879 v 0 0 0 0 h 0.0879 v 0 0 0 h 0.0879 v 0 0 0 0 h 0.0879 v 0 0 0 0 h 0.0879 v 0 0 0 0 h 0.0879 v 0 0 0 h 0.0879 v 0 0 0 0 h 0.0879 v 0 0 0 0 h 0.0879 v 0 0 0 0 h 0.0879 v 0 0 0 0 h 0.0879 v 0 0 0 0 h 0.0879 v 0 0 0 0 h 0.0879 v 0 0 0 0 h 0.0879 v 0 0 0 h 0.0879 v 0 0 0 0 h 0.0879 v 0 0 0 0 h 0.0879 v 0 0 0 0 h 0.0879 v 0 0 0 0 h 0.0879 v 0 0 0 0 h 0.0879 v 0 0 0 0 0 h 0.0879 v 0 0 0 0 h 0.0879 v 0 0 0 0 h 0.0879 v 0 0 0 0 h 0.0879 v 0 0 0 0 h 0.0879 v 0 0 0 0 h 0.0879 v 0 0 0 0 h 0.0879 v 0 0 0 0 h 0.0879 v 0 0 0 0 0 h 0.0879 v 0 0 0 0 h 0.0879 v 0 0 0 0 h 0.0879 v 0 0 0 0 h 0.0879 v 0 0 0 0 0 h 0.0879 v 0 0 0 0 h 0.0879 v 0 0 0 0 h 0.0879 v 0 0 0 0 l 0.0879,0.086 v -0.086 0 0 0 0 h 0.0879 v 0 0 0 0 h 0.0879 v 0 0 0 0 0 h 0.0879 v 0 0 0 0 h 0.0879 v 0 0 0 0 h 0.0879 v 0 0 0 0 0 h 0.0879 v 0 0 0 0.086 h 0.0879 v 0 -0.086 0 0 0.086 h 0.0879 v -0.086 0.086 -0.086 0 h 0.0879 v 0 0 0 0.086 -0.086 h 0.0879 v 0 0.086 0 -0.086 l 0.0879,0.086 v -0.086 0.086 0 -0.086 0 l 0.0879,0.086 v 0 -0.086 0 0.086 l 0.0879,-0.086 v 0 0.086 -0.086 0 0.086 l 0.0879,-0.086 v 0 0.086 0 -0.086 0 h 0.0879 v 0 0 0 0.086 h 0.0879 v -0.086 0.086 -0.086 0.086 0 l 0.0879,-0.086 v 0 0.086 0 0 0 l 0.0879,-0.086 v 0 0.086 0 0 h 0.0879 v 0 0 0 0 0 h 0.0879 v 0 0 -0.086 0 0.086 h 0.0879 v -0.086 0.086 0 0 l 0.0879,-0.086 v 0.086 0 0 -0.086 0.086 h 0.0879 v 0 -0.086 0.086 0 0 h 0.0879 v 0 0 0 0 0 l 0.0879,-0.086 v 0.086 0 0 0 -0.086 l 0.0879,0.086 v 0 0 0 0 0 h 0.0879 v 0 0 0 0 h 0.0879 v 0 0 0 0 0 h 0.0879 v 0 0 0 0 0 h 0.0879 v 0 0 0 0 0 h 0.0879 v 0 0 0 0 0 h 0.0879 v 0 0 0 0 0 h 0.0879 v 0 0 0 0 0 h 0.0879 v 0 0 0 0 0 h 0.0879 v 0 0 0 0 0 h 0.0879 v 0 0 0 0 0 h 0.0879 v 0 0 0 0 0 h 0.0879 v 0 0 0 0 0 0 h 0.0879 v 0 0 0 0 0 h 0.0879 v 0 0 0 0 0 h 0.0879 v 0 0 0 0 0 h 0.0879 v 0 0 0 0 0 h 0.0879 v 0 0 0 0 0 h 0.0879 v 0 0 0 0 0 0 h 0.0879 v 0 0 0 0 0 h 0.0879 v 0 0 0 0 0 h 0.0879 v 0 0 0 0 0 h 0.0879 v 0 0 0 0 0 0 h 0.0879 v 0 0 0 0 0 h 0.0879 v 0 0 0 0 0 0 h 0.0879 v 0 0 0 0 0 h 0.0879 v 0 0 0 0 0 h 0.0879 v 0 0 0 0 0 0 h 0.0879 v 0 0 0 0 0 h 0.0879 v 0 0 0 0 0 0 h 0.0879 v 0 0 0 0 0 h 0.0879 v 0 0 0 0 0 0 h 0.0879 v 0 0 0 0 0 h 0.0879 v 0 0 0 0 0 0 h 0.0879 v 0 0 0 0 0 0 h 0.0879 v 0 0 0 0 0 h 0.0879 v 0 0 0 0 0 0 h 0.0879 v 0 0 0 0 0 h 0.0879 v 0 0 0 0 0 0 h 0.0879 v 0 0 0 0 0 0 h 0.0879 v 0 0 0 0 0 0 h 0.0879 v 0 0 0 0 0 h 0.0879 v 0 0 0 0 0 0 h 0.0879 v 0 0 0 0 0 0 h 0.0879 v 0 0 0 0 0 0 h 0.0879 v 0 0 0 0 0 0 h 0.0879 v 0 0 0 0 0 0 h 0.0879 v 0 0 0 0 0 0 h 0.0879 v 0 0 0 0 0 h 0.08791 v 0 0 0 0 0 0 h 0.0879 v 0 0 0 0 0 0 h 0.0879 v 0 0 0 0 0 0 h 0.0879 v 0 0 0 0 0 0 h 0.0879 v 0 0 0 0 0 0 0 h 0.0879 v 0 0 0 0 0 0 h 0.0879 v 0 0 0 0 0 0 h 0.0879 v 0 0 0 0 0 0 h 0.0879 v 0 0 0 0 0 0 h 0.0879 v 0 0 0 0 0 0 h 0.0879 v 0 0 0 0 0 0 m -115.409152,-23.3399 1.14267,-7.4651 1.23057,3.7754 1.05478,0.9439 1.05477,2.8316 1.05478,-2.5742 0.96687,2.1452 0.96688,2.1452 0.87898,1.1155 0.87898,-2.7458 0.79108,2.7458 0.87897,0.7722 0.79108,-2.4026 0.70319,1.5445 0.79108,-0.858 0.70318,-0.086 0.70318,3.2606 0.70319,0.6007 0.61528,-1.8019 0.70319,-0.4291 0.61528,0.858 0.61529,0.1717 0.61528,-0.7723 0.52739,3.1748 0.61528,1.2014 0.52739,-2.1452 0.61528,2.4883 0.52739,-2.7457 0.52739,0.6006 0.52738,-4.2045 0.43949,3.5181 0.52739,1.287 0.43949,-1.8877 0.52739,0.5149 0.43948,3.947 0.43949,-1.4586 0.43949,-0.6007 0.43949,-1.4587 0.43949,2.4025 0.43949,-1.287 0.43949,-1.0297 0.43949,4.1187 0.35159,0.6007 0.43949,-2.0594 0.35159,-1.8878 0.43949,1.1155 0.35159,1.8878 0.35159,0.086 0.35159,1.2871 0.43949,-2.3168 0.35159,-2.8316 0.35159,1.8019 0.3516,3.2606 0.35159,-1.3728 0.26369,-0.5149 0.35159,-1.9735 0.35159,1.6303 h 0.35159 l 0.2637,1.802 0.35159,-1.2014 0.26369,0.9439 0.3516,-3.0032 0.2637,1.1154 0.35159,-0.086 0.26369,-0.9438 0.35159,1.3729 0.26369,0.9439 0.2637,-0.4291 0.26369,-0.086 0.35159,0.7723 h 0.2637 l 0.26369,1.3729 0.26369,-0.6864 0.2637,-0.7723 0.26369,1.0296 h 0.26369 l 0.2637,-0.5148 0.26369,-0.2574 0.26369,0.1716 0.2637,-0.1716 0.26369,0.9439 0.26369,-0.2575 0.1758,2.3169 0.26369,-0.4291 0.26369,-1.5445 0.2637,-0.7723 0.1758,1.7162 0.26369,1.0297 0.26369,-0.7723 0.1758,0.3432 0.26369,-0.6864 0.1758,0.7722 0.26369,-2.8316 0.1758,2.1452 0.26369,0.4289 0.17579,-0.6006 0.2637,-0.1716 0.17579,1.5446 0.2637,-0.4291 0.17579,0.2575 0.1758,-1.6304 0.26369,2.3168 0.1758,0.086 0.17579,-0.5149 0.2637,-1.8877 0.17579,2.66 0.1758,1.7162 0.17579,-1.373 0.2637,-1.287 0.17579,0.3431 0.1758,-0.4289 0.17579,0.4289 0.1758,2.5742 0.26369,-3.5181 0.1758,2.9175 0.17579,-0.1716 0.1758,-0.6006 0.17579,-0.3433 0.1758,-0.5148 0.1758,0.429 0.17579,-1.5445 0.1758,0.9439 0.17579,-0.086 0.1758,1.2871 0.1758,0.3432 0.17579,-0.9439 0.17579,-0.9439 0.1758,0.6007 0.1758,0.6006 0.17579,0.1717 0.1758,-0.9439 0.17579,-0.7723 0.0879,1.0297 0.1758,1.9735 0.17579,-0.3432 0.1758,0.2574 0.17579,-0.1716 0.1758,-3.089 0.0879,2.7458 0.17579,1.4587 0.1758,-2.2309 0.17579,-0.2575 0.0879,1.8878 0.1758,-2.66 0.17579,1.0297 0.1758,0.3432 0.0879,0.429 0.17579,0.1716 0.1758,-0.1716 0.0879,0.5148 0.17579,-1.4587 0.1758,-0.6864 0.0879,1.1155 0.1758,0.429 0.1758,1.3729 0.0879,-0.086 0.1758,-0.9439 0.17579,1.6303 0.0879,0.6865 0.1758,-1.6303 0.0879,0.858 0.17579,-0.7722 0.0879,-0.8581 0.17579,0.9439 0.1758,0.2574 0.0879,-0.6865 0.17579,0.7723 0.0879,1.0297 0.1758,-1.8878 0.0879,-0.086 0.1758,0.6007 0.0879,1.0297 0.17579,-1.4588 0.0879,0.7723 0.1758,-0.8581 0.0879,1.2871 0.0879,0.1717 0.1758,-0.2575 0.0879,-0.6864 0.17579,-0.4291 0.0879,1.2013 0.17579,-0.6006 0.0879,0.2574 0.0879,-0.3432 h 0.1758 l 0.0879,1.6303 0.1758,0.1717 0.0879,-0.9439 0.0879,-0.4291 0.1758,0.6865 0.0879,-1.1155 0.0879,0.1716 0.17579,1.8877 0.0879,-0.7722 h 0.0879 l 0.17579,-0.5148 0.0879,1.2012 0.0879,-0.2573 0.17579,0.3431 0.0879,-0.9438 0.0879,0.5148 0.0879,-0.429 0.17579,-0.429 0.0879,0.5148 0.0879,0.2574 0.17579,-0.2574 h 0.0879 l 0.0879,0.5149 0.0879,-0.3433 0.17579,0.086 0.0879,0.7723 0.0879,-1.3729 0.0879,0.6864 0.0879,0.2574 0.1758,-1.3729 0.0879,0.5148 0.0879,1.1155 0.0879,-1.0296 0.0879,0.858 0.1758,0.7723 0.0879,-0.1716 0.0879,-0.1716 0.0879,-0.3433 0.0879,0.5149 h 0.1758 l 0.0879,-0.7722 0.0879,0.6006 0.0879,-0.6864 0.0879,0.4289 0.0879,-0.5148 0.0879,0.6865 0.17579,-0.5148 0.0879,-0.6007 0.0879,0.6007 0.0879,0.3431 0.0879,-0.086 0.0879,0.2575 0.0879,0.6864 0.0879,-0.8581 0.0879,-0.086 0.1758,1.0297 0.0879,-0.9439 0.0879,0.6007 0.0879,-0.2574 0.0879,0.3432 0.0879,-0.1716 0.0879,-0.1716 0.0879,0.1716 0.0879,0.1716 0.0879,-0.5148 0.0879,-0.8581 0.0879,0.7723 0.0879,0.5148 0.0879,-0.1716 0.0879,0.1716 0.0879,0.3432 0.0879,-0.9439 0.0879,0.3433 0.0879,0.5148 0.17579,-0.429 0.0879,0.429 0.0879,0.5149 0.0879,-0.7723 h 0.0879 l 0.0879,0.429 0.0879,0.429 0.0879,-0.2573 0.0879,-0.5149 0.0879,0.5149 v 0.1716 l 0.0879,-0.6007 0.0879,-0.2574 0.0879,1.0296 0.0879,-0.2573 0.0879,-0.6007 0.0879,0.429 0.0879,0.1717 0.0879,0.2573 0.0879,-0.086 0.0879,-0.6864 0.0879,0.2574 0.0879,-0.5148 0.0879,0.6865 0.0879,-0.086 0.0879,-0.2574 0.0879,0.4291 h 0.0879 l 0.0879,-0.6007 0.0879,1.0297 v -0.2575 l 0.0879,-0.429 0.0879,0.3433 h 0.0879 l 0.0879,0.1715 0.0879,0.086 0.0879,-0.5149 0.0879,0.2575 0.0879,0.1715 0.0879,0.1717 v -0.6865 l 0.0879,0.086 0.0879,0.429 0.0879,-0.1715 0.0879,0.086 0.0879,0.086 0.0879,0.2575 0.0879,-0.2575 0.0879,0.1717 v -0.086 l 0.0879,-0.2574 0.0879,0.086 0.0879,0.1717 0.0879,0.086 0.0879,0.086 0.0879,-0.429 v 0.5148 l 0.0879,-0.3433 0.0879,0.6008 0.0879,0.2573 0.0879,-0.6864 h 0.0879 v 0.2574 l 0.0879,-0.1716 0.0879,0.1716 0.0879,-0.2574 0.0879,0.4291 0.0879,-0.086 v -0.429 l 0.0879,0.429 0.0879,-0.9439 0.0879,0.429 0.0879,-0.086 v 0.6866 l 0.0879,-0.086 0.0879,-0.086 0.0879,-0.086 h 0.0879 v 0.086 l 0.0879,0.6006 0.0879,-0.3431 0.0879,-0.2575 0.0879,-0.6006 v -0.2575 l 0.0879,1.0298 h 0.0879 l 0.0879,-0.086 v -0.2574 l 0.0879,0.086 0.0879,0.086 0.0879,0.2575 0.0879,-0.5149 v 0.6006 l 0.0879,0.086 0.0879,-0.086 0.0879,-0.1715 v 0.086 l 0.0879,-0.086 0.0879,-0.1717 0.0879,0.5148 v -0.6006 l 0.0879,0.086 0.0879,0.3432 0.0879,0.086 v 0 h 0.0879 l 0.0879,-0.5148 0.0879,0.5148 v 0.1716 l 0.0879,-0.086 h 0.0879 v -0.2573 l 0.0879,-0.1717 0.0879,0.3432 0.0879,-0.1715 v -0.086 l 0.0879,0.086 0.0879,-0.086 v 0.3431 l 0.0879,-0.086 h 0.08791 l 0.0879,0.1716 v -0.086 h 0.0879 0.0879 v 0.3433 h 0.0879 l 0.0879,-0.086 0.0879,-0.1717 v -0.1716 l 0.0879,-0.1715 0.0879,0.2573 v 0 l 0.0879,0.1716 0.0879,0.086 v -0.2575 l 0.0879,0.2575 0.0879,0.086 v -0.5149 l 0.0879,0.086 0.0879,0.3433 v -0.086 l 0.0879,0.2575 0.0879,-0.3433 v 0.086 l 0.0879,-0.2574 0.0879,0.4291 v -0.2575 l 0.0879,0.086 0.0879,-0.3432 v 0.5149 l 0.0879,-0.086 0.0879,-0.1717 v 0.3433 l 0.0879,0.2574 0.0879,-0.3432 v 0.086 h 0.0879 0.0879 v -0.086 h 0.0879 l 0.0879,-0.086 v -0.086 l 0.0879,0.086 0.0879,-0.086 v 0.2575 l 0.0879,-0.1716 v -0.086 h 0.0879 l 0.0879,0.3433 v -0.2574 l 0.0879,0.1716 0.0879,0.086 v -0.1716 l 0.0879,-0.086 0.0879,-0.1717 v 0.3433 l 0.0879,-0.1716 v 0 h 0.0879 0.0879 v 0 l 0.0879,0.3432 v -0.5149 l 0.0879,0.3433 0.0879,0.1716 v 0.1716 l 0.0879,-0.1716 0.0879,-0.4291 v 0.2575 h 0.0879 v 0.086 l 0.0879,0.086 0.0879,-0.086 v 0.1716 l 0.0879,-0.1716 v -0.1716 l 0.0879,0.3432 0.0879,-0.1716 v 0.1716 l 0.0879,-0.086 v -0.086 l 0.0879,-0.1716 v 0 l 0.0879,0.1716 0.0879,0.1716 v 0.086 l 0.0879,-0.2574 v 0.2574 h 0.0879 l 0.0879,-0.086 v -0.086 l 0.0879,-0.086 v 0.086 l 0.0879,0.086 v -0.1716 l 0.0879,0.086 0.0879,0.086 v -0.086 h 0.0879 v 0.1716 l 0.0879,0.086 v -0.086 l 0.0879,-0.1716 0.0879,0.086 v -0.086 l 0.0879,-0.1716 v 0.2574 l 0.0879,-0.2574 v 0.1716 l 0.0879,0.086 v 0 l 0.0879,-0.1716 h 0.0879 v 0.086 l 0.0879,0.3432 v -0.2574 l 0.0879,-0.1716 v 0.2574 l 0.0879,0.1716 v -0.2574 l 0.0879,-0.086 0.0879,0.2574 v 0 l 0.0879,-0.1716 v 0.2574 h 0.0879 v 0 l 0.0879,-0.086 v -0.086 l 0.0879,-0.086 v 0.086 h 0.0879 v 0.086 l 0.0879,-0.2574 0.0879,0.1716 v 0 l 0.0879,0.1716 v -0.086 l 0.0879,-0.086 v 0.086 l 0.0879,0.086 v -0.3432 l 0.0879,0.2574 v -0.1716 l 0.0879,0.2574 v 0.2575 l 0.0879,-0.5149 v 0.086 l 0.0879,-0.086 v 0.1716 l 0.0879,0.086 v -0.1716 h 0.0879 v 0 l 0.0879,0.1716 v 0 l 0.0879,-0.086 v 0.1716 l 0.0879,-0.2574 v -0.086 l 0.0879,0.086 v 0.086 h 0.0879 l 0.0879,0.086 v 0.086 h 0.0879 v -0.086 h 0.0879 v 0.1716 l 0.0879,-0.1716 v 0 h 0.0879 v -0.1716 0.1716 l 0.0879,-0.086 v 0.3433 l 0.0879,-0.2575 v 0.086 l 0.0879,0.086 v -0.3432 l 0.0879,0.1716 v 0 h 0.0879 v 0 h 0.0879 v 0 l 0.0879,0.1716 v -0.086 l 0.0879,-0.086 v 0 l 0.0879,-0.086 v 0.086 l 0.0879,0.1716 v -0.1716 l 0.0879,-0.086 v 0 l 0.0879,-0.086 v 0.4291 l 0.0879,-0.086 v 0 h 0.0879 v 0 0 l 0.0879,-0.086 v -0.086 l 0.0879,0.1716 v 0.086 l 0.0879,-0.1717 v 0.086 h 0.0879 v -0.086 h 0.0879 v -0.086 l 0.0879,0.1716 v 0 l 0.0879,-0.086 v -0.086 -0.086 l 0.0879,0.1716 v 0.1717 l 0.0879,-0.086 v 0 l 0.0879,-0.086 v 0 l 0.0879,0.086 v -0.1716 l 0.0879,0.086 v 0.086 0.086 l 0.0879,-0.1717 v 0.086 h 0.0879 v 0.086 h 0.0879 v -0.1717 l 0.0879,0.2575 v 0 l 0.0879,-0.086 v -0.086 -0.1716 l 0.0879,0.086 v 0 l 0.0879,0.086 v 0.086 l 0.0879,-0.086 v 0 0.086 l 0.0879,-0.2575 v 0.086 l 0.0879,0.1717 v -0.086 l 0.0879,-0.1716 v 0.2575 h 0.0879 v -0.086 0 l 0.0879,0.1717 v 0 h 0.0879 v -0.086 h 0.0879 v 0.086 -0.086 l 0.0879,-0.086 v 0.086 h 0.0879 v 0 l 0.0879,-0.1717 v 0.1717 0 l 0.0879,0.086 v -0.086 h 0.0879 v -0.086 l 0.0879,0.086 v 0.1716 -0.086 h 0.0879 v 0 l 0.0879,0.086 v -0.1716 0 l 0.0879,0.1716 v -0.1716 h 0.0879 v -0.086 l 0.0879,0.1717 v 0 0 l 0.0879,-0.1717 v 0.1717 h 0.0879 v -0.086 0.1716 l 0.0879,-0.1716 v 0 h 0.0879 v 0.086 0 h 0.0879 v -0.086 h 0.0879 v 0.1716 -0.086 l 0.0879,0.086 v -0.1716 l 0.0879,0.086 v -0.086 0.086 h 0.0879 v 0 l 0.0879,0.086 v 0 -0.086 h 0.0879 v 0 l 0.0879,-0.086 v 0.086 0.086 l 0.0879,-0.086 v 0 l 0.0879,0.086 v -0.086 -0.086 l 0.0879,0.1716 v -0.086 h 0.0879 v -0.086 0.086 l 0.0879,-0.086 v 0.1716 h 0.0879 v 0 0 l 0.0879,-0.086 v 0.086 0 l 0.0879,-0.086 v 0.086 l 0.0879,0.086 v -0.086 -0.086 l 0.0879,0.086 v 0 h 0.0879 v 0 0 h 0.0879 v -0.086 0 l 0.0879,0.086 v 0.086 l 0.0879,-0.086 v 0.086 -0.086 h 0.0879 v 0.086 -0.086 l 0.0879,0.086 v -0.086 h 0.0879 v -0.086 0.086 h 0.0879 v 0 0.086 l 0.0879,-0.086 v 0 h 0.0879 v 0 0 h 0.0879 v -0.086 0.2573 l 0.0879,-0.086 v 0 0 h 0.0879 v -0.086 l 0.0879,0.086 v -0.086 0 h 0.0879 v 0.086 -0.086 l 0.0879,0.086 v 0 0 h 0.0879 v -0.086 l 0.0879,0.086 v -0.1716 0.086 l 0.0879,0.086 v 0 0 h 0.0879 v 0 0 h 0.0879 v 0 0 h 0.0879 v 0 0 l 0.0879,-0.086 v 0 l 0.0879,0.086 v 0.086 -0.086 l 0.0879,-0.086 v 0.086 0 h 0.0879 v 0 0 h 0.0879 v -0.086 0.1715 l 0.0879,-0.086 v 0 0 l 0.0879,-0.086 v 0.1715 -0.086 l 0.0879,-0.086 v 0.086 0 l 0.0879,0.086 v 0 h 0.0879 v -0.086 0 l 0.0879,0.086 v 0 0 l 0.0879,-0.086 v 0.086 0 h 0.0879 v -0.086 0.086 l 0.0879,-0.086 v 0.086 0 l 0.0879,-0.086 v 0.086 0 h 0.0879 v -0.086 0.086 h 0.0879 v 0 -0.086 l 0.0879,0.086 v 0 0 h 0.0879 v -0.086 0.086 h 0.0879 v 0 0 l 0.0879,-0.086 v 0 0.086 h 0.0879 v 0 0.086 l 0.0879,-0.086 v 0 -0.086 l 0.0879,0.086 v 0 -0.086 0.1715 l 0.0879,-0.086 v -0.086 0 l 0.0879,0.086 v -0.086 0.086 h 0.0879 v -0.086 0.086 h 0.0879 v 0 0 l 0.0879,0.086 v -0.086 0 l 0.0879,0.086 v -0.1715 0 l 0.0879,0.086 v 0 0 l 0.0879,0.086 v -0.1715 0.086 0 h 0.0879 v 0 0 h 0.0879 v 0 0.086 l 0.0879,-0.086 v 0 0 l 0.0879,0.086 v -0.086 0.086 l 0.0879,-0.086 v 0 0.086 -0.086 l 0.0879,0.086 v -0.086 0 l 0.0879,0.086 v 0 0 l 0.0879,-0.086 v 0 0 l 0.0879,0.086 v -0.086 0.086 -0.086 h 0.0879 v 0 0 l 0.0879,0.086 v -0.086 0 l 0.0879,0.086 v -0.086 0.086 0 l 0.0879,-0.086 v 0.086 0 h 0.0879 v 0 0 h 0.0879 v -0.086 0.086 0 l 0.0879,-0.086 v 0.086 -0.086 l 0.0879,0.086 v 0 0 h 0.0879 v 0 0 0 h 0.0879 v 0 0 h 0.0879 v 0 0 h 0.0879 v 0 0 0 h 0.0879 v 0 0 h 0.0879 v 0 0 0 h 0.0879 v 0 0 l 0.0879,-0.086 v 0.086 0 0 h 0.0879 v 0 0 h 0.0879 v 0 0 -0.086 l 0.0879,0.086 v 0 0 h 0.0879 v 0 0.086 -0.086 h 0.0879 v 0 0 l 0.0879,-0.086 v 0.086 0 0 h 0.0879 v 0.086 0 l 0.0879,-0.086 v 0 0 0 l 0.0879,0.086 v -0.086 0 h 0.0879 v 0 0.086 -0.086 h 0.0879 v 0 0 0.086 h 0.0879 v -0.086" />
    <path
       id="path140755"
       style="fill:none;stroke:#1e88e5;stroke-width:0.529167;stroke-linecap:round;stroke-linejoin:round;stroke-miterlimit:4;stroke-dasharray:none;stroke-opacity:1"
       d="m -75.414528,2224.8468 v 0 h 0.0879 v 0 0 0 h 0.0879 v 0 0 h 0.0879 v 0 0 0 h 0.0879 v 0 0 0 h 0.0879 v 0 0 h 0.0879 v 0 0 0 h 0.0879 v 0 0 0 h 0.0879 v 0 0 h 0.0879 v 0 0 0 h 0.0879 v 0 0 0 h 0.0879 v 0 0 0 h 0.0879 v 0 0 h 0.0879 v 0 0 0 h 0.0879 v 0 0 0 h 0.0879 v 0 0 0 h 0.0879 v 0 0 0 h 0.0879 v 0 0 0 h 0.0879 v 0 0 h 0.0879 v 0 0 0 h 0.0879 v 0 0 0 h 0.0879 v 0 0 0 h 0.0879 v 0 0 0 h 0.0879 v 0 0 0 h 0.0879 v 0 0 0 h 0.0879 v 0 0 0 h 0.0879 v 0 0 0 h 0.0879 v 0 0 0 h 0.0879 v 0 0 0 h 0.0879 v 0 0 0 h 0.0879 v 0 0 0 h 0.0879 v 0 0 0 h 0.0879 v 0 0 0 h 0.0879 v 0 0 0 h 0.0879 v 0 0 0 h 0.0879 v 0 0 0 h 0.0879 v 0 0 0 h 0.0879 v 0 0 0 h 0.0879 v 0 0 0 h 0.0879 v 0 0 0 h 0.0879 v 0 0 0 0 h 0.0879 v 0 0 0 h 0.0879 v 0 0 0 h 0.0879 v 0 0 0 h 0.0879 v 0 0 0 h 0.0879 v 0 0 0 0 h 0.0879 v 0 0 0 h 0.0879 v 0 0 0 h 0.0879 v 0 0 0 h 0.0879 v 0 0 0 0 h 0.0879 v 0 0 0 h 0.0879 v 0 0 0 h 0.0879 v 0 0 0 0 h 0.0879 v 0 0 0 h 0.0879 v 0 0 0 h 0.0879 v 0 0 0 0 h 0.0879 v 0 0 0 h 0.0879 v 0 0 0 0 h 0.0879 v 0 0 0 h 0.0879 v 0 0 0 h 0.0879 v 0 0 0 0 h 0.0879 v 0 0 0 h 0.0879 v 0 0 0 0 h 0.0879 v 0 0 0 h 0.0879 v 0 0 0 0 h 0.0879 v 0 0 0 h 0.0879 v 0 0 0 0 h 0.0879 v 0 0 0 0 h 0.0879 v 0 0 0 h 0.0879 v 0 0 0 0 h 0.0879 v 0 0 0 h 0.0879 v 0 0 0 0 h 0.0879 v 0 0 0 0 h 0.0879 v 0 0 0 h 0.0879 v 0 0 0 0 h 0.0879 v 0 0 0 0 h 0.0879 v 0 0 0 0 h 0.0879 v 0 0 0 h 0.0879 v 0 0 0 0 h 0.0879 v 0 0 0 0 h 0.0879 v 0 0 0 0 h 0.0879 v 0 0 0 h 0.0879 v 0 0 0 0 h 0.0879 v 0 0 0 0 h 0.0879 v 0 0 0 0 h 0.0879 v 0 0 0 0 h 0.0879 v 0 0 0 0 h 0.0879 v 0 0 0 0 h 0.0879 v 0 0 0 0 h 0.0879 v 0 0 0 h 0.0879 v 0 0 0 0 h 0.0879 v 0 0 0 0 h 0.0879 v 0 0 0 0 h 0.0879 v 0 0 0 0 h 0.0879 v 0 0 0 0 h 0.0879 v 0 0 0 0 0 h 0.0879 v 0 0 0 0 h 0.0879 v 0 0 0 0 h 0.0879 v 0 0 0 0 h 0.0879 v 0 0 0 0 h 0.0879 v 0 0 0 0 h 0.0879 v 0 0 0 0 h 0.0879 v 0 0 0 0 h 0.0879 v 0 0 0 0 0 h 0.0879 v 0 0 0 0 h 0.0879 v 0 0 0 0 h 0.0879 v 0 0 0 0 h 0.0879 v 0 0 0 0 0 h 0.0879 v 0 0 0 0 h 0.0879 v 0 0 0 0 h 0.0879 v 0 0 0 0 h 0.0879 v 0 0 0 0 0 h 0.0879 v 0 0 0 0 h 0.0879 v 0 0 0 0 0 h 0.0879 v 0 0 0 0 h 0.0879 v 0 0 0 0 h 0.0879 v 0 0 0 0 0 h 0.0879 v 0 0 0 0 h 0.0879 v 0 0 0 0 0 h 0.0879 v 0 0 0 0 h 0.0879 v 0 0 0 0 0 h 0.0879 v 0 0 0 0 h 0.0879 v 0 0 0 0 0 h 0.0879 v 0 0 0 0 h 0.0879 v 0 0 0 0 0 h 0.0879 v 0 0 0 0 0 h 0.0879 v 0 0 0 0 h 0.0879 v 0 0 0 0 0 h 0.0879 v 0 0 0 0 0 h 0.0879 v 0 0 0 0 h 0.0879 v 0 0 0 0 0 h 0.0879 v 0 0 0 0 0 h 0.0879 v 0 0 0 0 h 0.0879 v 0 0 0 0 0 h 0.0879 v 0 0 0 0 0 h 0.0879 v 0 0 0 0 0 h 0.0879 v 0 0 0 0 0 h 0.0879 v 0 0 0 0 0 h 0.0879 v 0 0 0 0 h 0.0879 v 0 0 0 0 0 h 0.0879 v 0 0 0 0 0 h 0.0879 v 0 0 0 0 0 h 0.0879 v 0 0 0 0 0 h 0.0879 v 0 0 0 0 0 h 0.0879 v 0 0 0 0 0 h 0.0879 v 0 0 0 0 0 h 0.0879 v 0 0 0 0 0 h 0.0879 v 0 0 0 0 0 h 0.0879 v 0 0 0 0 0 h 0.0879 v 0 0 0 0 0 0 h 0.0879 v 0 0 0 0 0 h 0.0879 v 0 0 0 0 0 h 0.0879 v 0 0 0 0 0 h 0.0879 v 0 0 0 0 0 h 0.0879 v 0 0 0 0 0 h 0.0879 v 0 0 0 0 0 0 h 0.0879 v 0 0 0 0 0 h 0.0879 v 0 0 0 0 0 h 0.0879 v 0 0 0 0 0 h 0.0879 v 0 0 0 0 0 0 h 0.0879 v 0 0 0 0 0 h 0.0879 v 0 0 0 0 0 0 h 0.0879 v 0 0 0 0 0 h 0.0879 v 0 0 0 0 0 h 0.0879 v 0 0 0 0 0 0 h 0.0879 v 0 0 0 0 0 h 0.0879 v 0 0 0 0 0 0 h 0.0879 v 0 0 0 0 0 h 0.0879 v 0 0 0 0 0 0 h 0.0879 v 0 0 0 0 0 h 0.0879 v 0 0 0 0 0 0 h 0.0879 v 0 0 0 0 0 0 h 0.0879 v 0 0 0 0 0 h 0.0879 v 0 0 0 0 0 0 h 0.0879 v 0 0 0 0 0 h 0.0879 v 0 0 0 0 0 0 h 0.0879 v 0 0 0 0 0 0 h 0.0879 v 0 0 0 0 0 0 h 0.0879 v 0 0 0 0 0 h 0.0879 v 0 0 0 0 0 0 h 0.0879 v 0 0 0 0 0 0 h 0.0879 v 0 0 0 0 0 0 h 0.0879 v 0 0 0 0 0 0 h 0.0879 v 0 0 0 0 0 0 h 0.0879 v 0 0 0 0 0 0 h 0.0879 v 0 0 0 0 0 h 0.08791 v 0 0 0 0 0 0 h 0.0879 v 0 0 0 0 0 0 h 0.0879 v 0 0 0 0 0 0 h 0.0879 v 0 0 0 0 0 0 h 0.0879 v 0 0 0 0 0 0 0 h 0.0879 v 0 0 0 0 0 0 h 0.0879 v 0 0 0 0 0 0 h 0.0879 v 0 0 0 0 0 0 h 0.0879 v 0 0 0 0 0 0 h 0.0879 v 0 0 0 0 0 0 h 0.0879 v 0 0 0 0 0 0 m -115.409152,-0.2575 h 1.14267 l 1.23057,0.086 h 1.05478 l 1.05477,-0.086 1.05478,0.086 h 0.96687 0.96688 0.87898 0.87898 0.79108 0.87897 0.79108 l 0.70319,0.086 0.79108,-0.086 h 0.70318 0.70318 0.70319 0.61528 0.70319 0.61528 0.61529 0.61528 0.52739 0.61528 l 0.52739,0.086 h 0.61528 l 0.52739,-0.086 h 0.52739 0.52738 l 0.43949,0.086 h 0.52739 0.43949 l 0.52739,-0.086 h 0.43948 0.43949 l 0.43949,0.086 h 0.43949 l 0.43949,-0.086 0.43949,0.086 h 0.43949 0.43949 0.35159 0.43949 0.35159 l 0.43949,-0.086 0.35159,0.086 h 0.35159 0.35159 0.43949 0.35159 0.35159 0.3516 0.35159 0.26369 0.35159 0.35159 0.35159 0.2637 0.35159 0.26369 0.3516 0.2637 0.35159 0.26369 0.35159 0.26369 0.2637 0.26369 0.35159 0.2637 0.26369 0.26369 0.2637 0.26369 0.26369 0.2637 0.26369 0.26369 0.2637 0.26369 0.26369 0.1758 0.26369 0.26369 0.2637 0.1758 0.26369 0.26369 0.1758 0.26369 0.1758 0.26369 0.1758 0.26369 0.17579 0.2637 0.17579 0.2637 0.17579 0.1758 0.26369 0.1758 0.17579 0.2637 0.17579 0.1758 0.17579 0.2637 0.17579 0.1758 0.17579 0.1758 0.26369 0.1758 0.17579 0.1758 0.17579 0.1758 0.1758 0.17579 0.1758 0.17579 0.1758 0.1758 0.17579 0.17579 0.1758 0.1758 0.17579 0.1758 0.17579 0.0879 0.1758 0.17579 0.1758 0.17579 l 0.1758,0.086 0.0879,-0.086 h 0.17579 0.1758 0.17579 0.0879 0.1758 0.17579 0.1758 l 0.0879,0.086 0.17579,-0.086 h 0.1758 0.0879 0.17579 0.1758 0.0879 0.1758 0.1758 0.0879 0.1758 0.17579 0.0879 0.1758 0.0879 0.17579 l 0.0879,0.086 0.17579,-0.086 0.1758,0.086 0.0879,-0.086 h 0.17579 0.0879 0.1758 0.0879 0.1758 0.0879 0.17579 0.0879 0.1758 0.0879 0.0879 0.1758 0.0879 l 0.17579,0.086 h 0.0879 0.17579 0.0879 0.0879 0.1758 0.0879 0.1758 0.0879 0.0879 l 0.1758,-0.086 0.0879,0.086 h 0.0879 0.17579 0.0879 0.0879 0.17579 0.0879 0.0879 0.17579 0.0879 0.0879 0.0879 0.17579 0.0879 0.0879 l 0.17579,-0.086 0.0879,0.086 h 0.0879 0.0879 0.17579 0.0879 0.0879 0.0879 0.0879 0.1758 0.0879 0.0879 0.0879 0.0879 0.1758 0.0879 0.0879 0.0879 0.0879 0.1758 0.0879 0.0879 0.0879 0.0879 0.0879 0.0879 0.17579 0.0879 0.0879 0.0879 0.0879 0.0879 0.0879 0.0879 0.0879 0.1758 0.0879 0.0879 0.0879 0.0879 0.0879 0.0879 0.0879 0.0879 0.0879 0.0879 0.0879 0.0879 0.0879 0.0879 0.0879 0.0879 0.0879 0.0879 0.17579 0.0879 0.0879 0.0879 0.0879 0.0879 0.0879 0.0879 0.0879 0.0879 v 0 h 0.0879 0.0879 0.0879 0.0879 0.0879 0.0879 0.0879 0.0879 0.0879 0.0879 0.0879 0.0879 0.0879 0.0879 0.0879 0.0879 l 0.0879,-0.086 0.0879,0.086 h 0.0879 v 0 h 0.0879 0.0879 0.0879 0.0879 0.0879 0.0879 0.0879 0.0879 0.0879 v 0 h 0.0879 0.0879 l 0.0879,-0.086 0.0879,0.086 h 0.0879 0.0879 0.0879 0.0879 v 0 h 0.0879 0.0879 0.0879 0.0879 0.0879 0.0879 v 0 h 0.0879 0.0879 l 0.0879,-0.086 0.0879,0.086 h 0.0879 v 0 h 0.0879 0.0879 0.0879 0.0879 0.0879 v 0 h 0.0879 0.0879 0.0879 0.0879 v 0 h 0.0879 0.0879 0.0879 0.0879 v 0 h 0.0879 0.0879 0.0879 0.0879 v 0 h 0.0879 0.0879 0.0879 v 0 h 0.0879 0.0879 0.0879 0.0879 v 0 h 0.0879 0.0879 0.0879 v 0 h 0.0879 0.0879 0.0879 v 0 h 0.0879 0.0879 0.0879 v 0 h 0.0879 0.0879 0.0879 v 0 h 0.0879 0.0879 v 0 h 0.0879 0.0879 0.0879 v 0 h 0.0879 0.0879 v 0 h 0.0879 0.08791 0.0879 v 0 h 0.0879 0.0879 v 0 h 0.0879 0.0879 0.0879 v 0 h 0.0879 0.0879 v 0 h 0.0879 0.0879 v 0 h 0.0879 0.0879 v 0 h 0.0879 0.0879 v 0 h 0.0879 0.0879 v 0 h 0.0879 0.0879 v 0 h 0.0879 0.0879 v 0 h 0.0879 0.0879 v 0 h 0.0879 0.0879 v 0 h 0.0879 0.0879 v 0 h 0.0879 0.0879 v 0 h 0.0879 0.0879 v 0 h 0.0879 v 0 h 0.0879 0.0879 v 0 h 0.0879 0.0879 v 0 h 0.0879 0.0879 v 0 h 0.0879 v 0 h 0.0879 0.0879 v 0 h 0.0879 v 0 h 0.0879 0.0879 v 0 h 0.0879 0.0879 v 0 h 0.0879 v 0 h 0.0879 0.0879 v 0 h 0.0879 v 0 h 0.0879 0.0879 v 0 h 0.0879 v 0 h 0.0879 v 0 h 0.0879 0.0879 v 0 h 0.0879 v 0 h 0.0879 0.0879 v 0 h 0.0879 v 0 h 0.0879 v 0 h 0.0879 0.0879 v 0 h 0.0879 v 0 h 0.0879 v 0 h 0.0879 0.0879 v 0 h 0.0879 v 0 h 0.0879 v 0 h 0.0879 v 0 h 0.0879 0.0879 v 0 h 0.0879 v 0 h 0.0879 v 0 h 0.0879 v 0 h 0.0879 0.0879 v 0 h 0.0879 v 0 h 0.0879 v 0 h 0.0879 v 0 h 0.0879 v 0 h 0.0879 v 0 h 0.0879 0.0879 v 0 h 0.0879 v 0 h 0.0879 v 0 h 0.0879 v 0 h 0.0879 v 0 h 0.0879 v 0 h 0.0879 v 0 h 0.0879 v 0 h 0.0879 v 0 h 0.0879 v 0 h 0.0879 v 0 h 0.0879 v 0 h 0.0879 v 0 h 0.0879 v 0 h 0.0879 0.0879 v 0 h 0.0879 v 0 h 0.0879 v 0 h 0.0879 v 0 h 0.0879 v 0 0 h 0.0879 v 0 h 0.0879 v 0 h 0.0879 v 0 h 0.0879 v 0 h 0.0879 v 0 h 0.0879 v 0 h 0.0879 v 0 h 0.0879 v 0 h 0.0879 v 0 h 0.0879 v 0 h 0.0879 v 0 h 0.0879 v 0 h 0.0879 v 0 h 0.0879 v 0 0 h 0.0879 v 0 h 0.0879 v 0 h 0.0879 v 0 h 0.0879 v 0 h 0.0879 v 0 h 0.0879 v 0 h 0.0879 v 0 0 h 0.0879 v 0 h 0.0879 v 0 h 0.0879 v 0 h 0.0879 v 0 h 0.0879 v 0 0 h 0.0879 v 0 h 0.0879 v 0 h 0.0879 v 0 h 0.0879 v 0 h 0.0879 v 0 0 h 0.0879 v 0 h 0.0879 v 0 h 0.0879 v 0 0 h 0.0879 v 0 h 0.0879 v 0 h 0.0879 v 0 h 0.0879 v 0 0 h 0.0879 v 0 h 0.0879 v 0 h 0.0879 v 0 0 h 0.0879 v 0 h 0.0879 v 0 h 0.0879 v 0 0 h 0.0879 v 0 h 0.0879 v 0 h 0.0879 v 0 0 h 0.0879 v 0 h 0.0879 v 0 0 h 0.0879 v 0 h 0.0879 v 0 h 0.0879 v 0 0 h 0.0879 v 0 h 0.0879 v 0 0 h 0.0879 v 0 h 0.0879 v 0 0 h 0.0879 v 0 h 0.0879 v 0 0 h 0.0879 v 0 h 0.0879 v 0 0 h 0.0879 v 0 h 0.0879 v 0 0 h 0.0879 v 0 h 0.0879 v 0 0 h 0.0879 v 0 h 0.0879 v 0 0 h 0.0879 v 0 h 0.0879 v 0 0 h 0.0879 v 0 h 0.0879 v 0 0 h 0.0879 v 0 0 h 0.0879 v 0 h 0.0879 v 0 0 h 0.0879 v 0 h 0.0879 v 0 0 h 0.0879 v 0 0 h 0.0879 v 0 h 0.0879 v 0 0 h 0.0879 v 0 0 h 0.0879 v 0 h 0.0879 v 0 0 h 0.0879 v 0 0 h 0.0879 v 0 h 0.0879 v 0 0 h 0.0879 v 0 0 h 0.0879 v 0 0 h 0.0879 v 0 h 0.0879 v 0 0 h 0.0879 v 0 0 h 0.0879 v 0 0 h 0.0879 v 0 h 0.0879 v 0 0 h 0.0879 v 0 0 h 0.0879 v 0 0 h 0.0879 v 0 0 h 0.0879 v 0 0 h 0.0879 v 0 h 0.0879 v 0 0 h 0.0879 v 0 0 h 0.0879 v 0 0 h 0.0879 v 0 0 h 0.0879 v 0 0 h 0.0879 v 0 0 h 0.0879 v 0 0 h 0.0879 v 0 h 0.0879 v 0 0 h 0.0879 v 0 0 h 0.0879 v 0 0 h 0.0879 v 0 0 h 0.0879 v 0 0 h 0.0879 v 0 0 h 0.0879 v 0 0 h 0.0879 v 0 0 h 0.0879 v 0 0 h 0.0879 v 0 0 h 0.0879 v 0 0 h 0.0879 v 0 0 h 0.0879 v 0 0 h 0.0879 v 0 0 h 0.0879 v 0 0 0 h 0.0879 v 0 0 h 0.0879 v 0 0 h 0.0879 v 0 0 h 0.0879 v 0 0 h 0.0879 v 0 0 h 0.0879 v 0 0 h 0.0879 v 0 0 h 0.0879 v 0 0 0 h 0.0879 v 0 0 h 0.0879 v 0 0 h 0.0879 v 0 0 h 0.0879 v 0 0 h 0.0879 v 0 0 0 h 0.0879 v 0 0 h 0.0879 v 0 0 h 0.0879 v 0 0 h 0.0879 v 0 0 0 h 0.0879 v 0 0 h 0.0879 v 0 0 h 0.0879 v 0 0 0 h 0.0879 v 0 0 h 0.0879 v 0 0 h 0.0879 v 0 0 0 h 0.0879 v 0 0 h 0.0879 v 0 0 h 0.0879 v 0 0 0 h 0.0879 v 0 0 h 0.0879 v 0 0 h 0.0879 v 0 0 0 h 0.0879 v 0 0 h 0.0879 v 0 0 0 h 0.0879 v 0 0 h 0.0879 v 0 0 0 h 0.0879 v 0 0 h 0.0879 v 0 0 0 h 0.0879 v 0 0 h 0.0879 v 0 0 0 h 0.0879 v 0 0 h 0.0879 v 0 0 0 h 0.0879 v 0 0 h 0.0879 v 0 0 0 h 0.0879 v 0 0 h 0.0879 v 0 0 0 h 0.0879 v 0 0 0 h 0.0879 v 0" />
    <text
       xml:space="preserve"
       style="font-stretch:condensed;font-size:2.82223px;line-height:1.25;font-family:'Noto Sans';-inkscape-font-specification:'Noto Sans, Condensed';letter-spacing:0px;word-spacing:0px;writing-mode:lr-tb;stroke-width:0.264583"
       x="-178.3541"
       y="2225.8542"
       id="text140967"><tspan
         sodipodi:role="line"
         id="tspan140965"
         x="-178.3541"
         y="2225.8542"
         style="stroke-width:0.264583">0</tspan></text>
    <text
       xml:space="preserve"
       style="font-stretch:condensed;font-size:2.82223px;line-height:1.25;font-family:'Noto Sans';-inkscape-font-specification:'Noto Sans, Condensed';letter-spacing:0px;word-spacing:0px;writing-mode:lr-tb;stroke-width:0.264583"
       x="-178.02672"
       y="2210.0659"
       id="text140971"><tspan
         sodipodi:role="line"
         id="tspan140969"
         x="-178.02672"
         y="2210.0659"
         style="stroke-width:0.264583">1</tspan></text>
    <text
       xml:space="preserve"
       style="font-stretch:condensed;font-size:2.82223px;line-height:1.25;font-family:'Noto Sans';-inkscape-font-specification:'Noto Sans, Condensed';letter-spacing:0px;word-spacing:0px;writing-mode:lr-tb;stroke-width:0.264583"
       x="-178.33998"
       y="2194.2058"
       id="text140975"><tspan
         sodipodi:role="line"
         id="tspan140973"
         x="-178.33998"
         y="2194.2058"
         style="stroke-width:0.264583">2</tspan></text>
    <path
       style="fill:none;stroke:#000000;stroke-width:0.264583;stroke-linecap:butt;stroke-linejoin:miter;stroke-miterlimit:4;stroke-dasharray:none;stroke-opacity:1"
       d="m -176.12266,2224.8466 h 2"
       id="path140977" />
    <path
       style="fill:none;stroke:#000000;stroke-width:0.264583;stroke-linecap:butt;stroke-linejoin:miter;stroke-miterlimit:4;stroke-dasharray:none;stroke-opacity:1"
       d="m -176.12266,2209.0584 h 2"
       id="path140977-8" />
    <path
       style="fill:none;stroke:#000000;stroke-width:0.264583;stroke-linecap:butt;stroke-linejoin:miter;stroke-miterlimit:4;stroke-dasharray:none;stroke-opacity:1"
       d="m -176.12266,2193.1842 h 2"
       id="path140977-6" />
    <path
       style="fill:none;stroke:#000000;stroke-width:0.264583;stroke-linecap:butt;stroke-linejoin:miter;stroke-miterlimit:4;stroke-dasharray:none;stroke-opacity:1"
       d="m -173.06788,2228.1858 v -2"
       id="path140977-5" />
    <path
       style="fill:none;stroke:#000000;stroke-width:0.264583;stroke-linecap:butt;stroke-linejoin:miter;stroke-miterlimit:4;stroke-dasharray:none;stroke-opacity:1"
       d="m -115.67059,2228.1858 v -2"
       id="path140977-5-5" />
    <path
       style="fill:none;stroke:#000000;stroke-width:0.264583;stroke-linecap:butt;stroke-linejoin:miter;stroke-miterlimit:4;stroke-dasharray:none;stroke-opacity:1"
       d="m -58.079396,2228.1858 v -2"
       id="path140977-5-8" />
    <path
       style="fill:none;stroke:#000000;stroke-width:0.264583;stroke-linecap:square;stroke-linejoin:miter;stroke-miterlimit:4;stroke-dasharray:none;stroke-opacity:1"
       d="M -174.12266,2226.1858 H -58.079396"
       id="path141057" />
    <path
       style="fill:none;stroke:#000000;stroke-width:0.264583;stroke-linecap:square;stroke-linejoin:miter;stroke-miterlimit:4;stroke-dasharray:none;stroke-opacity:1"
       d="m -174.12266,2193.1842 v 33.0016"
       id="path141059"
       sodipodi:nodetypes="cc" />
    <text
       xml:space="preserve"
       style="font-style:normal;font-variant:normal;font-weight:normal;font-stretch:condensed;font-size:3.52778px;line-height:1.25;font-family:'Noto Sans';-inkscape-font-specification:'Noto Sans, Condensed';font-variant-ligatures:normal;font-variant-caps:normal;font-variant-numeric:normal;font-variant-east-asian:normal;letter-spacing:0px;word-spacing:0px;writing-mode:lr-tb;stroke-width:0.264583"
       x="-2223.4307"
       y="-181.2341"
       id="text141063"
       transform="rotate(-90)"><tspan
         sodipodi:role="line"
         id="tspan141061"
         x="-2223.4307"
         y="-181.2341"
         style="font-style:normal;font-variant:normal;font-weight:normal;font-stretch:condensed;font-size:3.52778px;font-family:'Noto Sans';-inkscape-font-specification:'Noto Sans, Condensed';font-variant-ligatures:normal;font-variant-caps:normal;font-variant-numeric:normal;font-variant-east-asian:normal;stroke-width:0.264583">Amplitude (pA<tspan
   style="font-size:65%;baseline-shift:super"
   id="tspan141085">2</tspan> / Hz)</tspan></text>
    <text
       xml:space="preserve"
       style="font-style:normal;font-variant:normal;font-weight:normal;font-stretch:condensed;font-size:3.52778px;line-height:1.25;font-family:'Noto Sans';-inkscape-font-specification:'Noto Sans, Condensed';font-variant-ligatures:normal;font-variant-caps:normal;font-variant-numeric:normal;font-variant-east-asian:normal;letter-spacing:0px;word-spacing:0px;writing-mode:lr-tb;stroke-width:0.264583"
       x="-127.0424"
       y="2234.335"
       id="text141069"><tspan
         sodipodi:role="line"
         id="tspan141067"
         x="-127.0424"
         y="2234.335"
         style="font-style:normal;font-variant:normal;font-weight:normal;font-stretch:condensed;font-size:3.52778px;font-family:'Noto Sans';-inkscape-font-specification:'Noto Sans, Condensed';font-variant-ligatures:normal;font-variant-caps:normal;font-variant-numeric:normal;font-variant-east-asian:normal;stroke-width:0.264583">Frequency (kHz)</tspan></text>
    <text
       xml:space="preserve"
       style="font-stretch:condensed;font-size:2.82223px;line-height:1.25;font-family:'Noto Sans';-inkscape-font-specification:'Noto Sans, Condensed';letter-spacing:0px;word-spacing:0px;writing-mode:lr-tb;stroke-width:0.264583"
       x="-174.57213"
       y="2230.9504"
       id="text141073"><tspan
         sodipodi:role="line"
         id="tspan141071"
         x="-174.57213"
         y="2230.9504"
         style="stroke-width:0.264583">0.1</tspan></text>
    <text
       xml:space="preserve"
       style="font-stretch:condensed;font-size:2.82223px;line-height:1.25;font-family:'Noto Sans';-inkscape-font-specification:'Noto Sans, Condensed';letter-spacing:0px;word-spacing:0px;writing-mode:lr-tb;stroke-width:0.264583"
       x="-116.20963"
       y="2230.9221"
       id="text141077"><tspan
         sodipodi:role="line"
         id="tspan141075"
         x="-116.20963"
         y="2230.9221"
         style="stroke-width:0.264583">1</tspan></text>
    <text
       xml:space="preserve"
       style="font-stretch:condensed;font-size:2.82223px;line-height:1.25;font-family:'Noto Sans';-inkscape-font-specification:'Noto Sans, Condensed';letter-spacing:0px;word-spacing:0px;writing-mode:lr-tb;stroke-width:0.264583"
       x="-59.448174"
       y="2230.9504"
       id="text141081"><tspan
         sodipodi:role="line"
         id="tspan141079"
         x="-59.448174"
         y="2230.9504"
         style="stroke-width:0.264583">10</tspan></text>
    <g
       id="g141119"
       transform="translate(2.1033936,11.9816)">
      <path
         style="fill:none;stroke:#1e88e5;stroke-width:0.529167;stroke-linecap:butt;stroke-linejoin:miter;stroke-miterlimit:4;stroke-dasharray:none;stroke-opacity:1"
         d="m -87.97739,2198.066 h 4.700963"
         id="path141087" />
      <path
         style="fill:none;stroke:#fb8c00;stroke-width:0.529167;stroke-linecap:butt;stroke-linejoin:miter;stroke-miterlimit:4;stroke-dasharray:none;stroke-opacity:1"
         d="m -87.974019,2202.7747 h 4.694221"
         id="path141089" />
      <text
         xml:space="preserve"
         style="font-stretch:condensed;font-size:2.82223px;line-height:1.25;font-family:'Noto Sans';-inkscape-font-specification:'Noto Sans, Condensed';letter-spacing:0px;word-spacing:0px;writing-mode:lr-tb;stroke-width:0.264583"
         x="-81.896332"
         y="2198.7363"
         id="text141093"><tspan
           sodipodi:role="line"
           id="tspan141091"
           x="-81.896332"
           y="2198.7363"
           style="stroke-width:0.264583">1mM TNP-ATP</tspan></text>
      <text
         xml:space="preserve"
         style="font-stretch:condensed;font-size:2.82223px;line-height:1.25;font-family:'Noto Sans';-inkscape-font-specification:'Noto Sans, Condensed';letter-spacing:0px;word-spacing:0px;writing-mode:lr-tb;stroke-width:0.264583"
         x="-81.896332"
         y="2203.7837"
         id="text141093-3"><tspan
           sodipodi:role="line"
           id="tspan141091-1"
           x="-81.896332"
           y="2203.7837"
           style="stroke-width:0.264583">0 TNP-ATP</tspan></text>
    </g>
  </g>
</svg>
