<?xml version="1.0" encoding="UTF-8" standalone="no"?>
<svg
   xmlns:dc="http://purl.org/dc/elements/1.1/"
   xmlns:cc="http://creativecommons.org/ns#"
   xmlns:rdf="http://www.w3.org/1999/02/22-rdf-syntax-ns#"
   xmlns:svg="http://www.w3.org/2000/svg"
   xmlns="http://www.w3.org/2000/svg"
   xmlns:sodipodi="http://sodipodi.sourceforge.net/DTD/sodipodi-0.dtd"
   xmlns:inkscape="http://www.inkscape.org/namespaces/inkscape"
   viewBox="0 0 573.63318 511.17844"
   version="1.1"
   id="svg3667"
   sodipodi:docname="weighted_states_2.svg"
   width="573.63318"
   height="511.17844"
   inkscape:version="1.0.1 (3bc2e813f5, 2020-09-07, custom)">
  <metadata
     id="metadata3671">
    <rdf:RDF>
      <cc:Work
         rdf:about="">
        <dc:format>image/svg+xml</dc:format>
        <dc:type
           rdf:resource="http://purl.org/dc/dcmitype/StillImage" />
        <dc:title></dc:title>
      </cc:Work>
    </rdf:RDF>
  </metadata>
  <sodipodi:namedview
     pagecolor="#ffffff"
     bordercolor="#666666"
     borderopacity="1"
     objecttolerance="10"
     gridtolerance="10"
     guidetolerance="10"
     inkscape:pageopacity="0"
     inkscape:pageshadow="2"
     inkscape:window-width="1366"
     inkscape:window-height="768"
     id="namedview3669"
     showgrid="false"
     inkscape:zoom="0.8263609"
     inkscape:cx="339.34861"
     inkscape:cy="226.90492"
     inkscape:window-x="0"
     inkscape:window-y="0"
     inkscape:window-maximized="1"
     inkscape:current-layer="svg3667" />
  <defs
     id="defs3156">
    <style
       type="text/css"
       id="style3154"><![CDATA[
    line, polyline, polygon, path, rect, circle {
      fill: none;
      stroke: #000000;
      stroke-linecap: round;
      stroke-linejoin: round;
      stroke-miterlimit: 10.00;
    }
  ]]></style>
    <style
       type="text/css"
       id="style4194"><![CDATA[
    line, polyline, polygon, path, rect, circle {
      fill: none;
      stroke: #000000;
      stroke-linecap: round;
      stroke-linejoin: round;
      stroke-miterlimit: 10.00;
    }
  ]]></style>
    <clipPath
       id="clipPath4341">
      <rect
         x="0"
         y="0"
         width="504"
         height="504"
         id="rect4339" />
    </clipPath>
    <clipPath
       id="clipPath4414">
      <rect
         x="0"
         y="0"
         width="504"
         height="504"
         id="rect4412" />
    </clipPath>
    <clipPath
       id="clipPath4485">
      <rect
         x="0"
         y="0"
         width="504"
         height="504"
         id="rect4483" />
    </clipPath>
    <clipPath
       id="clipPath4502">
      <rect
         x="0"
         y="0"
         width="504"
         height="504"
         id="rect4500" />
    </clipPath>
    <clipPath
       id="clipPath4519">
      <rect
         x="0"
         y="0"
         width="504"
         height="504"
         id="rect4517" />
    </clipPath>
    <clipPath
       id="clipPath4536">
      <rect
         x="0"
         y="0"
         width="504"
         height="504"
         id="rect4534" />
    </clipPath>
    <clipPath
       id="clipPath4553">
      <rect
         x="0"
         y="0"
         width="504"
         height="504"
         id="rect4551" />
    </clipPath>
    <style
       type="text/css"
       id="style9278"><![CDATA[
    line, polyline, polygon, path, rect, circle {
      fill: none;
      stroke: #000000;
      stroke-linecap: round;
      stroke-linejoin: round;
      stroke-miterlimit: 10.00;
    }
  ]]></style>
    <clipPath
       id="cpMzIuOTJ8MjE0LjIyfDI0NC43MXwyMi40MA==">
      <rect
         x="32.92"
         y="22.40"
         width="181.30"
         height="222.32"
         id="rect9286" />
    </clipPath>
    <clipPath
       id="cpMC4wMHw1MDQuMDB8NTA0LjAwfDAuMDA=">
      <rect
         x="0.00"
         y="0.00"
         width="504.00"
         height="504.00"
         id="rect9353" />
    </clipPath>
    <clipPath
       id="cpMzIuOTJ8MjE0LjIyfDQ3Mi41MXwyNTAuMTk=">
      <rect
         x="32.92"
         y="250.19"
         width="181.30"
         height="222.32"
         id="rect9358" />
    </clipPath>
    <clipPath
       id="clipPath9425">
      <rect
         x="0.00"
         y="0.00"
         width="504.00"
         height="504.00"
         id="rect9423" />
    </clipPath>
    <clipPath
       id="cpMjE5LjcwfDQwMS4wMHwyNDQuNzF8MjIuNDA=">
      <rect
         x="219.70"
         y="22.40"
         width="181.30"
         height="222.32"
         id="rect9429" />
    </clipPath>
    <clipPath
       id="clipPath9498">
      <rect
         x="0.00"
         y="0.00"
         width="504.00"
         height="504.00"
         id="rect9496" />
    </clipPath>
    <clipPath
       id="cpMjE5LjcwfDQwMS4wMHw0NzIuNTF8MjUwLjE5">
      <rect
         x="219.70"
         y="250.19"
         width="181.30"
         height="222.32"
         id="rect9502" />
    </clipPath>
    <clipPath
       id="clipPath9569">
      <rect
         x="0.00"
         y="0.00"
         width="504.00"
         height="504.00"
         id="rect9567" />
    </clipPath>
    <clipPath
       id="cpMzIuOTJ8MjE0LjIyfDIyLjQwfDUuNDg=">
      <rect
         x="32.92"
         y="5.48"
         width="181.30"
         height="16.92"
         id="rect9573" />
    </clipPath>
    <clipPath
       id="clipPath9586">
      <rect
         x="0.00"
         y="0.00"
         width="504.00"
         height="504.00"
         id="rect9584" />
    </clipPath>
    <clipPath
       id="cpMjE5LjcwfDQwMS4wMHwyMi40MHw1LjQ4">
      <rect
         x="219.70"
         y="5.48"
         width="181.30"
         height="16.92"
         id="rect9590" />
    </clipPath>
    <clipPath
       id="clipPath9603">
      <rect
         x="0.00"
         y="0.00"
         width="504.00"
         height="504.00"
         id="rect9601" />
    </clipPath>
    <clipPath
       id="cpNDAxLjAwfDQxNy45MnwyNDQuNzF8MjIuNDA=">
      <rect
         x="401.00"
         y="22.40"
         width="16.92"
         height="222.32"
         id="rect9607" />
    </clipPath>
    <clipPath
       id="clipPath9620">
      <rect
         x="0.00"
         y="0.00"
         width="504.00"
         height="504.00"
         id="rect9618" />
    </clipPath>
    <clipPath
       id="cpNDAxLjAwfDQxNy45Mnw0NzIuNTF8MjUwLjE5">
      <rect
         x="401.00"
         y="250.19"
         width="16.92"
         height="222.32"
         id="rect9624" />
    </clipPath>
    <clipPath
       id="clipPath9637">
      <rect
         x="0.00"
         y="0.00"
         width="504.00"
         height="504.00"
         id="rect9635" />
    </clipPath>
  </defs>
  <defs
     id="defs3165" />
  <defs
     id="defs3232" />
  <defs
     id="defs3237" />
  <defs
     id="defs3305">
    <clipPath
       id="clipPath3303">
      <rect
         x="0"
         y="0"
         width="504"
         height="504"
         id="rect3301" />
    </clipPath>
  </defs>
  <defs
     id="defs3310" />
  <defs
     id="defs3378">
    <clipPath
       id="clipPath3376">
      <rect
         x="0"
         y="0"
         width="504"
         height="504"
         id="rect3374" />
    </clipPath>
  </defs>
  <defs
     id="defs3383" />
  <defs
     id="defs3451">
    <clipPath
       id="clipPath3449">
      <rect
         x="0"
         y="0"
         width="504"
         height="504"
         id="rect3447" />
    </clipPath>
  </defs>
  <defs
     id="defs3456" />
  <defs
     id="defs3468">
    <clipPath
       id="clipPath3466">
      <rect
         x="0"
         y="0"
         width="504"
         height="504"
         id="rect3464" />
    </clipPath>
  </defs>
  <defs
     id="defs3473" />
  <defs
     id="defs3485">
    <clipPath
       id="clipPath3483">
      <rect
         x="0"
         y="0"
         width="504"
         height="504"
         id="rect3481" />
    </clipPath>
  </defs>
  <defs
     id="defs3490" />
  <defs
     id="defs3502">
    <clipPath
       id="clipPath3500">
      <rect
         x="0"
         y="0"
         width="504"
         height="504"
         id="rect3498" />
    </clipPath>
  </defs>
  <defs
     id="defs3507" />
  <defs
     id="defs3519">
    <clipPath
       id="clipPath3517">
      <rect
         x="0"
         y="0"
         width="504"
         height="504"
         id="rect3515" />
    </clipPath>
  </defs>
  <rect
     x="55.691227"
     y="18.584988"
     width="181.3"
     height="222.32001"
     style="fill:#efebe9;stroke:none;stroke-width:1.07"
     clip-path="none"
     id="rect4207" />
  <polyline
     points="32.92,197.99 214.22,197.99 "
     style="stroke:#ffffff;stroke-width:1.07;stroke-linecap:butt"
     clip-path="none"
     id="polyline4225"
     transform="translate(22.771232,-3.8150274)" />
  <polyline
     points="32.92,148.32 214.22,148.32 "
     style="stroke:#ffffff;stroke-width:1.07;stroke-linecap:butt"
     clip-path="none"
     id="polyline4227"
     transform="translate(22.771232,-3.8150274)" />
  <polyline
     points="32.92,98.65 214.22,98.65 "
     style="stroke:#ffffff;stroke-width:1.07;stroke-linecap:butt"
     clip-path="none"
     id="polyline4229"
     transform="translate(22.771232,-3.8150274)" />
  <polyline
     points="32.92,48.98 214.22,48.98 "
     style="stroke:#ffffff;stroke-width:1.07;stroke-linecap:butt"
     clip-path="none"
     id="polyline4231"
     transform="translate(22.771232,-3.8150274)" />
  <polyline
     points="74.12,244.71 74.12,22.40 "
     style="stroke:#ffffff;stroke-width:1.07;stroke-linecap:butt"
     clip-path="none"
     id="polyline4233"
     transform="translate(22.771232,-3.8150274)" />
  <polyline
     points="140.05,244.71 140.05,22.40 "
     style="stroke:#ffffff;stroke-width:1.07;stroke-linecap:butt"
     clip-path="none"
     id="polyline4235"
     transform="translate(22.771232,-3.8150274)" />
  <polyline
     points="205.98,244.71 205.98,22.40 "
     style="stroke:#ffffff;stroke-width:1.07;stroke-linecap:butt"
     clip-path="none"
     id="polyline4237"
     transform="translate(22.771232,-3.8150274)" />
  <polygon
     points="77.42,32.87 80.72,32.97 84.01,33.08 87.31,33.23 90.6,33.4 93.9,33.62 97.2,33.89 100.49,34.23 103.79,34.63 107.09,35.13 110.38,35.74 113.68,36.48 116.98,37.39 120.27,38.48 123.57,39.81 126.86,41.38 130.16,43.26 133.46,45.46 136.75,48.01 140.05,50.94 143.35,54.25 146.64,57.95 149.94,62.02 153.24,66.45 156.53,71.19 159.83,76.23 163.13,81.54 166.42,87.07 169.72,92.79 173.01,98.68 176.31,104.7 179.61,110.84 182.9,117.07 186.2,123.38 189.5,129.75 192.79,136.18 196.09,142.64 199.39,149.13 202.68,155.65 205.98,162.19 205.98,181.66 202.68,175.08 199.39,168.51 196.09,161.95 192.79,155.41 189.5,148.89 186.2,142.4 182.9,135.94 179.61,129.52 176.31,123.15 173.01,116.84 169.72,110.61 166.42,104.48 163.13,98.46 159.83,92.58 156.53,86.86 153.24,81.34 149.94,76.04 146.64,71.01 143.35,66.28 140.05,61.87 136.75,57.81 133.46,54.13 130.16,50.83 126.86,47.92 123.57,45.38 120.27,43.21 116.98,41.37 113.68,39.85 110.38,38.6 107.09,37.61 103.79,36.81 100.49,36.18 97.2,35.69 93.9,35.31 90.6,35.03 87.31,34.82 84.01,34.64 80.72,34.52 77.42,34.42 74.12,34.34 70.83,34.28 67.53,34.23 64.23,34.19 60.94,34.17 57.64,34.14 54.34,34.12 51.05,34.11 47.75,34.1 44.46,34.09 41.16,34.08 41.16,32.51 44.46,32.52 47.75,32.53 51.05,32.54 54.34,32.56 57.64,32.58 60.94,32.61 64.23,32.64 67.53,32.68 70.83,32.73 74.12,32.79 "
     style="fill:#1e88e5;fill-opacity:0.5;stroke:none;stroke-width:0"
     clip-path="none"
     id="polygon4239"
     transform="translate(22.771232,-3.8150274)" />
  <polyline
     points="41.16,32.51 44.46,32.52 47.75,32.53 51.05,32.54 54.34,32.56 57.64,32.58 60.94,32.61 64.23,32.64 67.53,32.68 70.83,32.73 74.12,32.79 77.42,32.87 80.72,32.97 84.01,33.08 87.31,33.23 90.60,33.40 93.90,33.62 97.20,33.89 100.49,34.23 103.79,34.63 107.09,35.13 110.38,35.74 113.68,36.48 116.98,37.39 120.27,38.48 123.57,39.81 126.86,41.38 130.16,43.26 133.46,45.46 136.75,48.01 140.05,50.94 143.35,54.25 146.64,57.95 149.94,62.02 153.24,66.45 156.53,71.19 159.83,76.23 163.13,81.54 166.42,87.07 169.72,92.79 173.01,98.68 176.31,104.70 179.61,110.84 182.90,117.07 186.20,123.38 189.50,129.75 192.79,136.18 196.09,142.64 199.39,149.13 202.68,155.65 205.98,162.19 "
     style="stroke:#1e88e5;stroke-width:1.07"
     clip-path="none"
     id="polyline4241"
     transform="translate(22.771232,-3.8150274)" />
  <polyline
     points="205.98,181.66 202.68,175.08 199.39,168.51 196.09,161.95 192.79,155.41 189.50,148.89 186.20,142.40 182.90,135.94 179.61,129.52 176.31,123.15 173.01,116.84 169.72,110.61 166.42,104.48 163.13,98.46 159.83,92.58 156.53,86.86 153.24,81.34 149.94,76.04 146.64,71.01 143.35,66.28 140.05,61.87 136.75,57.81 133.46,54.13 130.16,50.83 126.86,47.92 123.57,45.38 120.27,43.21 116.98,41.37 113.68,39.85 110.38,38.60 107.09,37.61 103.79,36.81 100.49,36.18 97.20,35.69 93.90,35.31 90.60,35.03 87.31,34.82 84.01,34.64 80.72,34.52 77.42,34.42 74.12,34.34 70.83,34.28 67.53,34.23 64.23,34.19 60.94,34.17 57.64,34.14 54.34,34.12 51.05,34.11 47.75,34.10 44.46,34.09 41.16,34.08 "
     style="stroke:#1e88e5;stroke-width:1.07"
     clip-path="none"
     id="polyline4243"
     transform="translate(22.771232,-3.8150274)" />
  <polygon
     points="77.42,50.78 80.72,49.28 84.01,47.82 87.31,46.4 90.6,45.05 93.9,43.77 97.2,42.59 100.49,41.51 103.79,40.57 107.09,39.79 110.38,39.21 113.68,38.85 116.98,38.71 120.27,38.67 123.57,38.67 126.86,38.73 130.16,38.99 133.46,39.55 136.75,40.45 140.05,41.72 143.35,43.38 146.64,45.42 149.94,47.84 153.24,50.61 156.53,53.7 159.83,57.08 163.13,60.73 166.42,64.6 169.72,68.67 173.01,72.9 176.31,77.27 179.61,81.76 182.9,86.33 186.2,90.99 189.5,95.7 192.79,100.47 196.09,105.27 199.39,110.11 202.68,114.98 205.98,119.86 205.98,134.42 202.68,129.5 199.39,124.58 196.09,119.68 192.79,114.8 189.5,109.93 186.2,105.1 182.9,100.29 179.61,95.53 176.31,90.82 173.01,86.16 169.72,81.59 166.42,77.11 163.13,72.75 159.83,68.52 156.53,64.46 153.24,60.59 149.94,56.95 146.64,53.58 143.35,50.5 140.05,47.75 136.75,45.35 133.46,43.32 130.16,41.68 126.86,40.43 123.57,39.62 120.27,39.49 116.98,39.99 113.68,40.74 110.38,41.69 107.09,42.77 103.79,43.96 100.49,45.24 97.2,46.6 93.9,48.02 90.6,49.48 87.31,50.99 84.01,52.52 80.72,54.08 77.42,55.66 74.12,57.25 70.83,58.86 67.53,60.48 64.23,62.1 60.94,63.74 57.64,65.37 54.34,67.01 51.05,68.66 47.75,70.3 44.46,71.95 41.16,73.6 41.16,68.43 44.46,66.79 47.75,65.15 51.05,63.52 54.34,61.89 57.64,60.26 60.94,58.65 64.23,57.04 67.53,55.45 70.83,53.87 74.12,52.31 "
     style="fill:#ffb74d;fill-opacity:0.5;stroke:none;stroke-width:0"
     clip-path="none"
     id="polygon4245"
     transform="translate(22.771232,-3.8150274)" />
  <polyline
     points="41.16,68.43 44.46,66.79 47.75,65.15 51.05,63.52 54.34,61.89 57.64,60.26 60.94,58.65 64.23,57.04 67.53,55.45 70.83,53.87 74.12,52.31 77.42,50.78 80.72,49.28 84.01,47.82 87.31,46.40 90.60,45.05 93.90,43.77 97.20,42.59 100.49,41.51 103.79,40.57 107.09,39.79 110.38,39.21 113.68,38.85 116.98,38.71 120.27,38.67 123.57,38.67 126.86,38.73 130.16,38.99 133.46,39.55 136.75,40.45 140.05,41.72 143.35,43.38 146.64,45.42 149.94,47.84 153.24,50.61 156.53,53.70 159.83,57.08 163.13,60.73 166.42,64.60 169.72,68.67 173.01,72.90 176.31,77.27 179.61,81.76 182.90,86.33 186.20,90.99 189.50,95.70 192.79,100.47 196.09,105.27 199.39,110.11 202.68,114.98 205.98,119.86 "
     style="stroke:#ffb74d;stroke-width:1.07"
     clip-path="none"
     id="polyline4247"
     transform="translate(22.771232,-3.8150274)" />
  <polyline
     points="205.98,134.42 202.68,129.50 199.39,124.58 196.09,119.68 192.79,114.80 189.50,109.93 186.20,105.10 182.90,100.29 179.61,95.53 176.31,90.82 173.01,86.16 169.72,81.59 166.42,77.11 163.13,72.75 159.83,68.52 156.53,64.46 153.24,60.59 149.94,56.95 146.64,53.58 143.35,50.50 140.05,47.75 136.75,45.35 133.46,43.32 130.16,41.68 126.86,40.43 123.57,39.62 120.27,39.49 116.98,39.99 113.68,40.74 110.38,41.69 107.09,42.77 103.79,43.96 100.49,45.24 97.20,46.60 93.90,48.02 90.60,49.48 87.31,50.99 84.01,52.52 80.72,54.08 77.42,55.66 74.12,57.25 70.83,58.86 67.53,60.48 64.23,62.10 60.94,63.74 57.64,65.37 54.34,67.01 51.05,68.66 47.75,70.30 44.46,71.95 41.16,73.60 "
     style="stroke:#ffb74d;stroke-width:1.07"
     clip-path="none"
     id="polyline4249"
     transform="translate(22.771232,-3.8150274)" />
  <polygon
     points="77.42,75.22 80.72,72.07 84.01,68.95 87.31,65.88 90.6,62.87 93.9,59.94 97.2,57.09 100.49,54.36 103.79,51.76 107.09,49.33 110.38,47.09 113.68,45.07 116.98,43.32 120.27,41.86 123.57,40.74 126.86,39.97 130.16,39.58 133.46,39.5 136.75,39.49 140.05,39.49 143.35,39.57 146.64,39.95 149.94,40.71 153.24,41.82 156.53,43.25 159.83,44.98 163.13,46.98 166.42,49.19 169.72,51.61 173.01,54.18 176.31,56.9 179.61,59.72 182.9,62.65 186.2,65.64 189.5,68.7 192.79,71.81 196.09,74.96 199.39,78.15 202.68,81.36 205.98,84.58 205.98,94.24 202.68,90.97 199.39,87.71 196.09,84.47 192.79,81.24 189.5,78.03 186.2,74.85 182.9,71.7 179.61,68.59 176.31,65.53 173.01,62.54 169.72,59.62 166.42,56.79 163.13,54.08 159.83,51.51 156.53,49.11 153.24,46.9 149.94,44.92 146.64,43.2 143.35,41.77 140.05,40.68 136.75,40.12 133.46,40.72 130.16,41.83 126.86,43.27 123.57,45.02 120.27,47.03 116.98,49.27 113.68,51.71 110.38,54.31 107.09,57.04 103.79,59.89 100.49,62.83 97.2,65.85 93.9,68.92 90.6,72.04 87.31,75.2 84.01,78.39 80.72,81.61 77.42,84.84 74.12,88.09 70.83,91.35 67.53,94.62 64.23,97.9 60.94,101.19 57.64,104.48 54.34,107.78 51.05,111.08 47.75,114.38 44.46,117.68 41.16,120.99 41.16,111.09 44.46,107.8 47.75,104.5 51.05,101.21 54.34,97.92 57.64,94.64 60.94,91.37 64.23,88.11 67.53,84.86 70.83,81.63 74.12,78.41 "
     style="fill:#ff9800;fill-opacity:0.5;stroke:none;stroke-width:0"
     clip-path="none"
     id="polygon4251"
     transform="translate(22.771232,-3.8150274)" />
  <polyline
     points="41.16,111.09 44.46,107.80 47.75,104.50 51.05,101.21 54.34,97.92 57.64,94.64 60.94,91.37 64.23,88.11 67.53,84.86 70.83,81.63 74.12,78.41 77.42,75.22 80.72,72.07 84.01,68.95 87.31,65.88 90.60,62.87 93.90,59.94 97.20,57.09 100.49,54.36 103.79,51.76 107.09,49.33 110.38,47.09 113.68,45.07 116.98,43.32 120.27,41.86 123.57,40.74 126.86,39.97 130.16,39.58 133.46,39.50 136.75,39.49 140.05,39.49 143.35,39.57 146.64,39.95 149.94,40.71 153.24,41.82 156.53,43.25 159.83,44.98 163.13,46.98 166.42,49.19 169.72,51.61 173.01,54.18 176.31,56.90 179.61,59.72 182.90,62.65 186.20,65.64 189.50,68.70 192.79,71.81 196.09,74.96 199.39,78.15 202.68,81.36 205.98,84.58 "
     style="stroke:#ff9800;stroke-width:1.07"
     clip-path="none"
     id="polyline4253"
     transform="translate(22.771232,-3.8150274)" />
  <polyline
     points="205.98,94.24 202.68,90.97 199.39,87.71 196.09,84.47 192.79,81.24 189.50,78.03 186.20,74.85 182.90,71.70 179.61,68.59 176.31,65.53 173.01,62.54 169.72,59.62 166.42,56.79 163.13,54.08 159.83,51.51 156.53,49.11 153.24,46.90 149.94,44.92 146.64,43.20 143.35,41.77 140.05,40.68 136.75,40.12 133.46,40.72 130.16,41.83 126.86,43.27 123.57,45.02 120.27,47.03 116.98,49.27 113.68,51.71 110.38,54.31 107.09,57.04 103.79,59.89 100.49,62.83 97.20,65.85 93.90,68.92 90.60,72.04 87.31,75.20 84.01,78.39 80.72,81.61 77.42,84.84 74.12,88.09 70.83,91.35 67.53,94.62 64.23,97.90 60.94,101.19 57.64,104.48 54.34,107.78 51.05,111.08 47.75,114.38 44.46,117.68 41.16,120.99 "
     style="stroke:#ff9800;stroke-width:1.07"
     clip-path="none"
     id="polyline4255"
     transform="translate(22.771232,-3.8150274)" />
  <polygon
     points="77.42,105.45 80.72,100.64 84.01,95.87 87.31,91.14 90.6,86.47 93.9,81.88 97.2,77.37 100.49,72.99 103.79,68.73 107.09,64.65 110.38,60.76 113.68,57.08 116.98,53.67 120.27,50.56 123.57,47.78 126.86,45.36 130.16,43.3 133.46,41.63 136.75,40.35 140.05,39.44 143.35,38.88 146.64,38.66 149.94,38.63 153.24,38.63 156.53,38.64 159.83,38.72 163.13,39.05 166.42,39.61 169.72,40.37 173.01,41.29 176.31,42.35 179.61,43.52 182.9,44.79 186.2,46.13 189.5,47.53 192.79,48.99 196.09,50.48 199.39,52.01 202.68,53.56 205.98,55.14 205.98,59.89 202.68,58.27 199.39,56.67 196.09,55.08 192.79,53.51 189.5,51.95 186.2,50.43 182.9,48.93 179.61,47.48 176.31,46.08 173.01,44.74 169.72,43.48 166.42,42.31 163.13,41.26 159.83,40.34 156.53,39.59 153.24,39.08 149.94,39.42 146.64,40.31 143.35,41.58 140.05,43.23 136.75,45.27 133.46,47.68 130.16,50.45 126.86,53.55 123.57,56.95 120.27,60.61 116.98,64.49 113.68,68.58 110.38,72.83 107.09,77.21 103.79,81.71 100.49,86.3 97.2,90.98 93.9,95.71 90.6,100.49 87.31,105.3 84.01,110.15 80.72,115.03 77.42,119.91 74.12,124.82 70.83,129.74 67.53,134.66 64.23,139.6 60.94,144.55 57.64,149.49 54.34,154.44 51.05,159.4 47.75,164.36 44.46,169.32 41.16,174.28 41.16,159.55 44.46,154.59 47.75,149.64 51.05,144.69 54.34,139.75 57.64,134.81 60.94,129.88 64.23,124.96 67.53,120.06 70.83,115.17 74.12,110.3 "
     style="fill:#f57c00;fill-opacity:0.5;stroke:none;stroke-width:0"
     clip-path="none"
     id="polygon4257"
     transform="translate(22.771232,-3.8150274)" />
  <polyline
     points="41.16,159.55 44.46,154.59 47.75,149.64 51.05,144.69 54.34,139.75 57.64,134.81 60.94,129.88 64.23,124.96 67.53,120.06 70.83,115.17 74.12,110.30 77.42,105.45 80.72,100.64 84.01,95.87 87.31,91.14 90.60,86.47 93.90,81.88 97.20,77.37 100.49,72.99 103.79,68.73 107.09,64.65 110.38,60.76 113.68,57.08 116.98,53.67 120.27,50.56 123.57,47.78 126.86,45.36 130.16,43.30 133.46,41.63 136.75,40.35 140.05,39.44 143.35,38.88 146.64,38.66 149.94,38.63 153.24,38.63 156.53,38.64 159.83,38.72 163.13,39.05 166.42,39.61 169.72,40.37 173.01,41.29 176.31,42.35 179.61,43.52 182.90,44.79 186.20,46.13 189.50,47.53 192.79,48.99 196.09,50.48 199.39,52.01 202.68,53.56 205.98,55.14 "
     style="stroke:#f57c00;stroke-width:1.07"
     clip-path="none"
     id="polyline4259"
     transform="translate(22.771232,-3.8150274)" />
  <polyline
     points="205.98,59.89 202.68,58.27 199.39,56.67 196.09,55.08 192.79,53.51 189.50,51.95 186.20,50.43 182.90,48.93 179.61,47.48 176.31,46.08 173.01,44.74 169.72,43.48 166.42,42.31 163.13,41.26 159.83,40.34 156.53,39.59 153.24,39.08 149.94,39.42 146.64,40.31 143.35,41.58 140.05,43.23 136.75,45.27 133.46,47.68 130.16,50.45 126.86,53.55 123.57,56.95 120.27,60.61 116.98,64.49 113.68,68.58 110.38,72.83 107.09,77.21 103.79,81.71 100.49,86.30 97.20,90.98 93.90,95.71 90.60,100.49 87.31,105.30 84.01,110.15 80.72,115.03 77.42,119.91 74.12,124.82 70.83,129.74 67.53,134.66 64.23,139.60 60.94,144.55 57.64,149.49 54.34,154.44 51.05,159.40 47.75,164.36 44.46,169.32 41.16,174.28 "
     style="stroke:#f57c00;stroke-width:1.07"
     clip-path="none"
     id="polyline4261"
     transform="translate(22.771232,-3.8150274)" />
  <polygon
     points="77.42,142.73 80.72,136.26 84.01,129.83 87.31,123.45 90.6,117.14 93.9,110.89 97.2,104.73 100.49,98.68 103.79,92.77 107.09,87.02 110.38,81.47 113.68,76.15 116.98,71.08 120.27,66.33 123.57,61.88 126.86,57.79 130.16,54.08 133.46,50.75 136.75,47.81 140.05,45.25 143.35,43.03 146.64,41.14 149.94,39.55 153.24,38.23 156.53,37.12 159.83,36.22 163.13,35.48 166.42,34.88 169.72,34.39 173.01,34 176.31,33.68 179.61,33.43 182.9,33.22 186.2,33.06 189.5,32.93 192.79,32.83 196.09,32.75 199.39,32.68 202.68,32.63 205.98,32.59 205.98,32.74 202.68,32.83 199.39,32.93 196.09,33.06 192.79,33.22 189.5,33.42 186.2,33.67 182.9,33.98 179.61,34.37 176.31,34.86 173.01,35.45 169.72,36.19 166.42,37.09 163.13,38.18 159.83,39.5 156.53,41.08 153.24,42.96 149.94,45.16 146.64,47.72 143.35,50.65 140.05,53.95 136.75,57.65 133.46,61.71 130.16,66.13 126.86,70.89 123.57,75.94 120.27,81.25 116.98,86.81 113.68,92.55 110.38,98.46 107.09,104.5 103.79,110.65 100.49,116.89 97.2,123.2 93.9,129.58 90.6,136.01 87.31,142.47 84.01,148.98 80.72,155.5 77.42,162.05 74.12,168.61 70.83,175.18 67.53,181.76 64.23,188.35 60.94,194.95 57.64,201.55 54.34,208.16 51.05,214.77 47.75,221.38 44.46,227.99 41.16,234.61 41.16,215.03 44.46,208.42 47.75,201.81 51.05,195.21 54.34,188.61 57.64,182.02 60.94,175.43 64.23,168.86 67.53,162.3 70.83,155.75 74.12,149.23 "
     style="fill:#e65100;fill-opacity:0.5;stroke:none;stroke-width:0"
     clip-path="none"
     id="polygon4263"
     transform="translate(22.771232,-3.8150274)" />
  <polyline
     points="41.16,215.03 44.46,208.42 47.75,201.81 51.05,195.21 54.34,188.61 57.64,182.02 60.94,175.43 64.23,168.86 67.53,162.30 70.83,155.75 74.12,149.23 77.42,142.73 80.72,136.26 84.01,129.83 87.31,123.45 90.60,117.14 93.90,110.89 97.20,104.73 100.49,98.68 103.79,92.77 107.09,87.02 110.38,81.47 113.68,76.15 116.98,71.08 120.27,66.33 123.57,61.88 126.86,57.79 130.16,54.08 133.46,50.75 136.75,47.81 140.05,45.25 143.35,43.03 146.64,41.14 149.94,39.55 153.24,38.23 156.53,37.12 159.83,36.22 163.13,35.48 166.42,34.88 169.72,34.39 173.01,34.00 176.31,33.68 179.61,33.43 182.90,33.22 186.20,33.06 189.50,32.93 192.79,32.83 196.09,32.75 199.39,32.68 202.68,32.63 205.98,32.59 "
     style="stroke:#e65100;stroke-width:1.07"
     clip-path="none"
     id="polyline4265"
     transform="translate(22.771232,-3.8150274)" />
  <polyline
     points="205.98,32.74 202.68,32.83 199.39,32.93 196.09,33.06 192.79,33.22 189.50,33.42 186.20,33.67 182.90,33.98 179.61,34.37 176.31,34.86 173.01,35.45 169.72,36.19 166.42,37.09 163.13,38.18 159.83,39.50 156.53,41.08 153.24,42.96 149.94,45.16 146.64,47.72 143.35,50.65 140.05,53.95 136.75,57.65 133.46,61.71 130.16,66.13 126.86,70.89 123.57,75.94 120.27,81.25 116.98,86.81 113.68,92.55 110.38,98.46 107.09,104.50 103.79,110.65 100.49,116.89 97.20,123.20 93.90,129.58 90.60,136.01 87.31,142.47 84.01,148.98 80.72,155.50 77.42,162.05 74.12,168.61 70.83,175.18 67.53,181.76 64.23,188.35 60.94,194.95 57.64,201.55 54.34,208.16 51.05,214.77 47.75,221.38 44.46,227.99 41.16,234.61 "
     style="stroke:#e65100;stroke-width:1.07"
     clip-path="none"
     id="polyline4267"
     transform="translate(22.771232,-3.8150274)" />
  <rect
     x="55.691227"
     y="246.37497"
     width="181.3"
     height="222.32001"
     style="fill:#efebe9;stroke:none;stroke-width:1.07"
     clip-path="none"
     id="rect4279" />
  <polyline
     points="32.92,425.61 214.22,425.61 "
     style="stroke:#ffffff;stroke-width:1.07;stroke-linecap:butt"
     clip-path="none"
     id="polyline4295"
     transform="translate(22.771232,-3.8150274)" />
  <polyline
     points="32.92,374.28 214.22,374.28 "
     style="stroke:#ffffff;stroke-width:1.07;stroke-linecap:butt"
     clip-path="none"
     id="polyline4297"
     transform="translate(22.771232,-3.8150274)" />
  <polyline
     points="32.92,322.95 214.22,322.95 "
     style="stroke:#ffffff;stroke-width:1.07;stroke-linecap:butt"
     clip-path="none"
     id="polyline4299"
     transform="translate(22.771232,-3.8150274)" />
  <polyline
     points="32.92,271.63 214.22,271.63 "
     style="stroke:#ffffff;stroke-width:1.07;stroke-linecap:butt"
     clip-path="none"
     id="polyline4301"
     transform="translate(22.771232,-3.8150274)" />
  <polyline
     points="74.12,472.51 74.12,250.19 "
     style="stroke:#ffffff;stroke-width:1.07;stroke-linecap:butt"
     clip-path="none"
     id="polyline4303"
     transform="translate(22.771232,-3.8150274)" />
  <polyline
     points="140.05,472.51 140.05,250.19 "
     style="stroke:#ffffff;stroke-width:1.07;stroke-linecap:butt"
     clip-path="none"
     id="polyline4305"
     transform="translate(22.771232,-3.8150274)" />
  <polyline
     points="205.98,472.51 205.98,250.19 "
     style="stroke:#ffffff;stroke-width:1.07;stroke-linecap:butt"
     clip-path="none"
     id="polyline4307"
     transform="translate(22.771232,-3.8150274)" />
  <polygon
     points="77.42,260.64 80.72,260.69 84.01,260.75 87.31,260.83 90.6,260.92 93.9,261.05 97.2,261.19 100.49,261.38 103.79,261.61 107.09,261.89 110.38,262.25 113.68,262.68 116.98,263.22 120.27,263.86 123.57,264.64 126.86,265.55 130.16,266.65 133.46,267.93 136.75,269.4 140.05,271.06 143.35,272.91 146.64,274.95 149.94,277.18 153.24,279.58 156.53,282.1 159.83,284.79 163.13,287.6 166.42,290.52 169.72,293.53 173.01,296.6 176.31,299.75 179.61,302.96 182.9,306.21 186.2,309.48 189.5,312.79 192.79,316.12 196.09,319.47 199.39,322.83 202.68,326.21 205.98,329.59 205.98,346.22 202.68,342.82 199.39,339.44 196.09,336.05 192.79,332.69 189.5,329.34 186.2,326 182.9,322.67 179.61,319.38 176.31,316.11 173.01,312.89 169.72,309.71 166.42,306.6 163.13,303.56 159.83,300.58 156.53,297.7 153.24,294.94 149.94,292.33 146.64,289.9 143.35,287.63 140.05,285.55 136.75,283.66 133.46,282.03 130.16,280.55 126.86,279.27 123.57,278.2 120.27,277.3 116.98,276.53 113.68,275.89 110.38,275.38 107.09,274.94 103.79,274.6 100.49,274.32 97.2,274.09 93.9,273.91 90.6,273.78 87.31,273.66 84.01,273.57 80.72,273.49 77.42,273.43 74.12,273.39 70.83,273.35 67.53,273.32 64.23,273.3 60.94,273.28 57.64,273.27 54.34,273.26 51.05,273.25 47.75,273.24 44.46,273.23 41.16,273.23 41.16,260.47 44.46,260.47 47.75,260.48 51.05,260.49 54.34,260.49 57.64,260.5 60.94,260.52 64.23,260.53 67.53,260.55 70.83,260.58 74.12,260.6 "
     style="fill:#1e88e5;fill-opacity:0.5;stroke:none;stroke-width:0"
     clip-path="none"
     id="polygon4309"
     transform="translate(22.771232,-3.8150274)" />
  <polyline
     points="41.16,260.47 44.46,260.47 47.75,260.48 51.05,260.49 54.34,260.49 57.64,260.50 60.94,260.52 64.23,260.53 67.53,260.55 70.83,260.58 74.12,260.60 77.42,260.64 80.72,260.69 84.01,260.75 87.31,260.83 90.60,260.92 93.90,261.05 97.20,261.19 100.49,261.38 103.79,261.61 107.09,261.89 110.38,262.25 113.68,262.68 116.98,263.22 120.27,263.86 123.57,264.64 126.86,265.55 130.16,266.65 133.46,267.93 136.75,269.40 140.05,271.06 143.35,272.91 146.64,274.95 149.94,277.18 153.24,279.58 156.53,282.10 159.83,284.79 163.13,287.60 166.42,290.52 169.72,293.53 173.01,296.60 176.31,299.75 179.61,302.96 182.90,306.21 186.20,309.48 189.50,312.79 192.79,316.12 196.09,319.47 199.39,322.83 202.68,326.21 205.98,329.59 "
     style="stroke:#1e88e5;stroke-width:1.07"
     clip-path="none"
     id="polyline4311"
     transform="translate(22.771232,-3.8150274)" />
  <polyline
     points="205.98,346.22 202.68,342.82 199.39,339.44 196.09,336.05 192.79,332.69 189.50,329.34 186.20,326.00 182.90,322.67 179.61,319.38 176.31,316.11 173.01,312.89 169.72,309.71 166.42,306.60 163.13,303.56 159.83,300.58 156.53,297.70 153.24,294.94 149.94,292.33 146.64,289.90 143.35,287.63 140.05,285.55 136.75,283.66 133.46,282.03 130.16,280.55 126.86,279.27 123.57,278.20 120.27,277.30 116.98,276.53 113.68,275.89 110.38,275.38 107.09,274.94 103.79,274.60 100.49,274.32 97.20,274.09 93.90,273.91 90.60,273.78 87.31,273.66 84.01,273.57 80.72,273.49 77.42,273.43 74.12,273.39 70.83,273.35 67.53,273.32 64.23,273.30 60.94,273.28 57.64,273.27 54.34,273.26 51.05,273.25 47.75,273.24 44.46,273.23 41.16,273.23 "
     style="stroke:#1e88e5;stroke-width:1.07"
     clip-path="none"
     id="polyline4313"
     transform="translate(22.771232,-3.8150274)" />
  <polygon
     points="77.42,282.68 80.72,281.88 84.01,281.09 87.31,280.32 90.6,279.57 93.9,278.86 97.2,278.17 100.49,277.53 103.79,276.94 107.09,276.41 110.38,275.94 113.68,275.56 116.98,275.28 120.27,275.11 123.57,275.1 126.86,275.25 130.16,275.59 133.46,276.07 136.75,276.75 140.05,277.6 143.35,278.66 146.64,279.9 149.94,281.33 153.24,282.91 156.53,284.62 159.83,286.51 163.13,288.49 166.42,290.59 169.72,292.77 173.01,295.01 176.31,297.31 179.61,299.66 182.9,302.07 186.2,304.49 189.5,306.94 192.79,309.42 196.09,311.92 199.39,314.43 202.68,316.95 205.98,319.48 205.98,341.19 202.68,338.65 199.39,336.11 196.09,333.59 192.79,331.08 189.5,328.58 186.2,326.1 182.9,323.66 179.61,321.24 176.31,318.86 173.01,316.51 169.72,314.22 166.42,311.98 163.13,309.85 159.83,307.77 156.53,305.81 153.24,303.98 149.94,302.29 146.64,300.78 143.35,299.44 140.05,298.26 136.75,297.32 133.46,296.56 130.16,296.01 126.86,295.67 123.57,295.5 120.27,295.5 116.98,295.63 113.68,295.86 110.38,296.22 107.09,296.66 103.79,297.2 100.49,297.8 97.2,298.45 93.9,299.15 90.6,299.87 87.31,300.61 84.01,301.37 80.72,302.16 77.42,302.96 74.12,303.77 70.83,304.6 67.53,305.43 64.23,306.26 60.94,307.1 57.64,307.94 54.34,308.78 51.05,309.63 47.75,310.48 44.46,311.33 41.16,312.18 41.16,291.89 44.46,291.04 47.75,290.19 51.05,289.35 54.34,288.5 57.64,287.65 60.94,286.81 64.23,285.97 67.53,285.14 70.83,284.31 74.12,283.49 "
     style="fill:#ffb74d;fill-opacity:0.5;stroke:none;stroke-width:0"
     clip-path="none"
     id="polygon4315"
     transform="translate(22.771232,-3.8150274)" />
  <polyline
     points="41.16,291.89 44.46,291.04 47.75,290.19 51.05,289.35 54.34,288.50 57.64,287.65 60.94,286.81 64.23,285.97 67.53,285.14 70.83,284.31 74.12,283.49 77.42,282.68 80.72,281.88 84.01,281.09 87.31,280.32 90.60,279.57 93.90,278.86 97.20,278.17 100.49,277.53 103.79,276.94 107.09,276.41 110.38,275.94 113.68,275.56 116.98,275.28 120.27,275.11 123.57,275.10 126.86,275.25 130.16,275.59 133.46,276.07 136.75,276.75 140.05,277.60 143.35,278.66 146.64,279.90 149.94,281.33 153.24,282.91 156.53,284.62 159.83,286.51 163.13,288.49 166.42,290.59 169.72,292.77 173.01,295.01 176.31,297.31 179.61,299.66 182.90,302.07 186.20,304.49 189.50,306.94 192.79,309.42 196.09,311.92 199.39,314.43 202.68,316.95 205.98,319.48 "
     style="stroke:#ffb74d;stroke-width:1.07"
     clip-path="none"
     id="polyline4317"
     transform="translate(22.771232,-3.8150274)" />
  <polyline
     points="205.98,341.19 202.68,338.65 199.39,336.11 196.09,333.59 192.79,331.08 189.50,328.58 186.20,326.10 182.90,323.66 179.61,321.24 176.31,318.86 173.01,316.51 169.72,314.22 166.42,311.98 163.13,309.85 159.83,307.77 156.53,305.81 153.24,303.98 149.94,302.29 146.64,300.78 143.35,299.44 140.05,298.26 136.75,297.32 133.46,296.56 130.16,296.01 126.86,295.67 123.57,295.50 120.27,295.50 116.98,295.63 113.68,295.86 110.38,296.22 107.09,296.66 103.79,297.20 100.49,297.80 97.20,298.45 93.90,299.15 90.60,299.87 87.31,300.61 84.01,301.37 80.72,302.16 77.42,302.96 74.12,303.77 70.83,304.60 67.53,305.43 64.23,306.26 60.94,307.10 57.64,307.94 54.34,308.78 51.05,309.63 47.75,310.48 44.46,311.33 41.16,312.18 "
     style="stroke:#ffb74d;stroke-width:1.07"
     clip-path="none"
     id="polyline4319"
     transform="translate(22.771232,-3.8150274)" />
  <polygon
     points="77.42,306.14 80.72,304.49 84.01,302.85 87.31,301.23 90.6,299.64 93.9,298.08 97.2,296.53 100.49,295.03 103.79,293.61 107.09,292.24 110.38,290.93 113.68,289.7 116.98,288.61 120.27,287.64 123.57,286.84 126.86,286.17 130.16,285.66 133.46,285.35 136.75,285.22 140.05,285.27 143.35,285.52 146.64,285.95 149.94,286.54 153.24,287.29 156.53,288.23 159.83,289.3 163.13,290.47 166.42,291.74 169.72,293.09 173.01,294.49 176.31,295.96 179.61,297.46 182.9,299 186.2,300.58 189.5,302.19 192.79,303.82 196.09,305.47 199.39,307.13 202.68,308.8 205.98,310.48 205.98,344.33 202.68,342.65 199.39,340.98 196.09,339.31 192.79,337.65 189.5,336.02 186.2,334.4 182.9,332.8 179.61,331.24 176.31,329.73 173.01,328.24 169.72,326.8 166.42,325.42 163.13,324.14 159.83,322.95 156.53,321.84 153.24,320.9 149.94,320.11 146.64,319.5 143.35,319.06 140.05,318.81 136.75,318.72 133.46,318.87 130.16,319.2 126.86,319.73 123.57,320.42 120.27,321.27 116.98,322.28 113.68,323.41 110.38,324.62 107.09,325.93 103.79,327.32 100.49,328.77 97.2,330.27 93.9,331.82 90.6,333.41 87.31,335.01 84.01,336.63 80.72,338.29 77.42,339.92 74.12,341.58 70.83,343.26 67.53,344.95 64.23,346.63 60.94,348.33 57.64,350.02 54.34,351.72 51.05,353.43 47.75,355.13 44.46,356.84 41.16,358.54 41.16,324.74 44.46,323.04 47.75,321.33 51.05,319.63 54.34,317.93 57.64,316.23 60.94,314.53 64.23,312.84 67.53,311.16 70.83,309.48 74.12,307.81 "
     style="fill:#ff9800;fill-opacity:0.5;stroke:none;stroke-width:0"
     clip-path="none"
     id="polygon4321"
     transform="translate(22.771232,-3.8150274)" />
  <polyline
     points="41.16,324.74 44.46,323.04 47.75,321.33 51.05,319.63 54.34,317.93 57.64,316.23 60.94,314.53 64.23,312.84 67.53,311.16 70.83,309.48 74.12,307.81 77.42,306.14 80.72,304.49 84.01,302.85 87.31,301.23 90.60,299.64 93.90,298.08 97.20,296.53 100.49,295.03 103.79,293.61 107.09,292.24 110.38,290.93 113.68,289.70 116.98,288.61 120.27,287.64 123.57,286.84 126.86,286.17 130.16,285.66 133.46,285.35 136.75,285.22 140.05,285.27 143.35,285.52 146.64,285.95 149.94,286.54 153.24,287.29 156.53,288.23 159.83,289.30 163.13,290.47 166.42,291.74 169.72,293.09 173.01,294.49 176.31,295.96 179.61,297.46 182.90,299.00 186.20,300.58 189.50,302.19 192.79,303.82 196.09,305.47 199.39,307.13 202.68,308.80 205.98,310.48 "
     style="stroke:#ff9800;stroke-width:1.07"
     clip-path="none"
     id="polyline4323"
     transform="translate(22.771232,-3.8150274)" />
  <polyline
     points="205.98,344.33 202.68,342.65 199.39,340.98 196.09,339.31 192.79,337.65 189.50,336.02 186.20,334.40 182.90,332.80 179.61,331.24 176.31,329.73 173.01,328.24 169.72,326.80 166.42,325.42 163.13,324.14 159.83,322.95 156.53,321.84 153.24,320.90 149.94,320.11 146.64,319.50 143.35,319.06 140.05,318.81 136.75,318.72 133.46,318.87 130.16,319.20 126.86,319.73 123.57,320.42 120.27,321.27 116.98,322.28 113.68,323.41 110.38,324.62 107.09,325.93 103.79,327.32 100.49,328.77 97.20,330.27 93.90,331.82 90.60,333.41 87.31,335.01 84.01,336.63 80.72,338.29 77.42,339.92 74.12,341.58 70.83,343.26 67.53,344.95 64.23,346.63 60.94,348.33 57.64,350.02 54.34,351.72 51.05,353.43 47.75,355.13 44.46,356.84 41.16,358.54 "
     style="stroke:#ff9800;stroke-width:1.07"
     clip-path="none"
     id="polyline4325"
     transform="translate(22.771232,-3.8150274)" />
  <polygon
     points="77.42,332.04 80.72,329.53 84.01,327.03 87.31,324.55 90.6,322.12 93.9,319.68 97.2,317.3 100.49,314.96 103.79,312.67 107.09,310.42 110.38,308.27 113.68,306.23 116.98,304.29 120.27,302.46 123.57,300.77 126.86,299.29 130.16,297.92 133.46,296.76 136.75,295.79 140.05,295.02 143.35,294.45 146.64,294.04 149.94,293.8 153.24,293.75 156.53,293.82 159.83,294.04 163.13,294.41 166.42,294.81 169.72,295.31 173.01,295.87 176.31,296.48 179.61,297.15 182.9,297.85 186.2,298.57 189.5,299.33 192.79,300.1 196.09,300.89 199.39,301.7 202.68,302.52 205.98,303.34 205.98,351.19 202.68,350.38 199.39,349.57 196.09,348.76 192.79,347.96 189.5,347.18 186.2,346.42 182.9,345.68 179.61,345 176.31,344.33 173.01,343.71 169.72,343.17 166.42,342.65 163.13,342.25 159.83,341.95 156.53,341.76 153.24,341.71 149.94,341.7 146.64,341.97 143.35,342.37 140.05,342.95 136.75,343.75 133.46,344.76 130.16,345.94 126.86,347.32 123.57,348.89 120.27,350.6 116.98,352.47 113.68,354.44 110.38,356.53 107.09,358.71 103.79,360.98 100.49,363.3 97.2,365.66 93.9,368.06 90.6,370.5 87.31,372.95 84.01,375.43 80.72,377.93 77.42,380.44 74.12,382.97 70.83,385.51 67.53,388.04 64.23,390.58 60.94,393.12 57.64,395.68 54.34,398.24 51.05,400.8 47.75,403.36 44.46,405.92 41.16,408.48 41.16,360.04 44.46,357.48 47.75,354.92 51.05,352.36 54.34,349.81 57.64,347.26 60.94,344.71 64.23,342.16 67.53,339.62 70.83,337.09 74.12,334.56 "
     style="fill:#f57c00;fill-opacity:0.5;stroke:none;stroke-width:0"
     clip-path="none"
     id="polygon4327"
     transform="translate(22.771232,-3.8150274)" />
  <polyline
     points="41.16,360.04 44.46,357.48 47.75,354.92 51.05,352.36 54.34,349.81 57.64,347.26 60.94,344.71 64.23,342.16 67.53,339.62 70.83,337.09 74.12,334.56 77.42,332.04 80.72,329.53 84.01,327.03 87.31,324.55 90.60,322.12 93.90,319.68 97.20,317.30 100.49,314.96 103.79,312.67 107.09,310.42 110.38,308.27 113.68,306.23 116.98,304.29 120.27,302.46 123.57,300.77 126.86,299.29 130.16,297.92 133.46,296.76 136.75,295.79 140.05,295.02 143.35,294.45 146.64,294.04 149.94,293.80 153.24,293.75 156.53,293.82 159.83,294.04 163.13,294.41 166.42,294.81 169.72,295.31 173.01,295.87 176.31,296.48 179.61,297.15 182.90,297.85 186.20,298.57 189.50,299.33 192.79,300.10 196.09,300.89 199.39,301.70 202.68,302.52 205.98,303.34 "
     style="stroke:#f57c00;stroke-width:1.07"
     clip-path="none"
     id="polyline4329"
     transform="translate(22.771232,-3.8150274)" />
  <polyline
     points="205.98,351.19 202.68,350.38 199.39,349.57 196.09,348.76 192.79,347.96 189.50,347.18 186.20,346.42 182.90,345.68 179.61,345.00 176.31,344.33 173.01,343.71 169.72,343.17 166.42,342.65 163.13,342.25 159.83,341.95 156.53,341.76 153.24,341.71 149.94,341.70 146.64,341.97 143.35,342.37 140.05,342.95 136.75,343.75 133.46,344.76 130.16,345.94 126.86,347.32 123.57,348.89 120.27,350.60 116.98,352.47 113.68,354.44 110.38,356.53 107.09,358.71 103.79,360.98 100.49,363.30 97.20,365.66 93.90,368.06 90.60,370.50 87.31,372.95 84.01,375.43 80.72,377.93 77.42,380.44 74.12,382.97 70.83,385.51 67.53,388.04 64.23,390.58 60.94,393.12 57.64,395.68 54.34,398.24 51.05,400.80 47.75,403.36 44.46,405.92 41.16,408.48 "
     style="stroke:#f57c00;stroke-width:1.07"
     clip-path="none"
     id="polyline4331"
     transform="translate(22.771232,-3.8150274)" />
  <polygon
     points="77.42,361.42 80.72,358.05 84.01,354.71 87.31,351.38 90.6,348.07 93.9,344.8 97.2,341.56 100.49,338.37 103.79,335.22 107.09,332.13 110.38,329.12 113.68,326.24 116.98,323.43 120.27,320.74 123.57,318.18 126.86,315.8 130.16,313.59 133.46,311.58 136.75,309.79 140.05,308.21 143.35,306.77 146.64,305.53 149.94,304.46 153.24,303.54 156.53,302.77 159.83,302.14 163.13,301.61 166.42,301.19 169.72,300.85 173.01,300.55 176.31,300.31 179.61,300.12 182.9,299.97 186.2,299.86 189.5,299.77 192.79,299.7 196.09,299.65 199.39,299.6 202.68,299.57 205.98,299.54 205.98,362.24 202.68,362.28 199.39,362.32 196.09,362.37 192.79,362.43 189.5,362.51 186.2,362.61 182.9,362.73 179.61,362.89 176.31,363.05 173.01,363.28 169.72,363.58 166.42,363.93 163.13,364.4 159.83,364.96 156.53,365.61 153.24,366.4 149.94,367.33 146.64,368.43 143.35,369.72 140.05,371.23 136.75,372.91 133.46,374.74 130.16,376.81 126.86,379.06 123.57,381.51 120.27,384.06 116.98,386.77 113.68,389.65 110.38,392.59 107.09,395.6 103.79,398.7 100.49,401.84 97.2,405.04 93.9,408.29 90.6,411.58 87.31,414.9 84.01,418.23 80.72,421.58 77.42,424.96 74.12,428.34 70.83,431.73 67.53,435.13 64.23,438.53 60.94,441.93 57.64,445.34 54.34,448.75 51.05,452.16 47.75,455.57 44.46,458.99 41.16,462.4 41.16,398.84 44.46,395.43 47.75,392.01 51.05,388.6 54.34,385.19 57.64,381.78 60.94,378.37 64.23,374.97 67.53,371.56 70.83,368.17 74.12,364.79 "
     style="fill:#e65100;fill-opacity:0.5;stroke:none;stroke-width:0"
     clip-path="none"
     id="polygon4333"
     transform="translate(22.771232,-3.8150274)" />
  <polyline
     points="41.16,398.84 44.46,395.43 47.75,392.01 51.05,388.60 54.34,385.19 57.64,381.78 60.94,378.37 64.23,374.97 67.53,371.56 70.83,368.17 74.12,364.79 77.42,361.42 80.72,358.05 84.01,354.71 87.31,351.38 90.60,348.07 93.90,344.80 97.20,341.56 100.49,338.37 103.79,335.22 107.09,332.13 110.38,329.12 113.68,326.24 116.98,323.43 120.27,320.74 123.57,318.18 126.86,315.80 130.16,313.59 133.46,311.58 136.75,309.79 140.05,308.21 143.35,306.77 146.64,305.53 149.94,304.46 153.24,303.54 156.53,302.77 159.83,302.14 163.13,301.61 166.42,301.19 169.72,300.85 173.01,300.55 176.31,300.31 179.61,300.12 182.90,299.97 186.20,299.86 189.50,299.77 192.79,299.70 196.09,299.65 199.39,299.60 202.68,299.57 205.98,299.54 "
     style="stroke:#e65100;stroke-width:1.07"
     clip-path="none"
     id="polyline4335"
     transform="translate(22.771232,-3.8150274)" />
  <polyline
     points="205.98,362.24 202.68,362.28 199.39,362.32 196.09,362.37 192.79,362.43 189.50,362.51 186.20,362.61 182.90,362.73 179.61,362.89 176.31,363.05 173.01,363.28 169.72,363.58 166.42,363.93 163.13,364.40 159.83,364.96 156.53,365.61 153.24,366.40 149.94,367.33 146.64,368.43 143.35,369.72 140.05,371.23 136.75,372.91 133.46,374.74 130.16,376.81 126.86,379.06 123.57,381.51 120.27,384.06 116.98,386.77 113.68,389.65 110.38,392.59 107.09,395.60 103.79,398.70 100.49,401.84 97.20,405.04 93.90,408.29 90.60,411.58 87.31,414.90 84.01,418.23 80.72,421.58 77.42,424.96 74.12,428.34 70.83,431.73 67.53,435.13 64.23,438.53 60.94,441.93 57.64,445.34 54.34,448.75 51.05,452.16 47.75,455.57 44.46,458.99 41.16,462.40 "
     style="stroke:#e65100;stroke-width:1.07"
     clip-path="none"
     id="polyline4337"
     transform="translate(22.771232,-3.8150274)" />
  <rect
     x="242.47124"
     y="18.584988"
     width="181.3"
     height="222.32001"
     style="fill:#efebe9;stroke:none;stroke-width:1.07"
     clip-path="none"
     id="rect4350" />
  <polyline
     points="219.70,197.99 401.00,197.99 "
     style="stroke:#ffffff;stroke-width:1.07;stroke-linecap:butt"
     clip-path="none"
     id="polyline4368"
     transform="translate(22.771232,-3.8150274)" />
  <polyline
     points="219.70,148.32 401.00,148.32 "
     style="stroke:#ffffff;stroke-width:1.07;stroke-linecap:butt"
     clip-path="none"
     id="polyline4370"
     transform="translate(22.771232,-3.8150274)" />
  <polyline
     points="219.70,98.65 401.00,98.65 "
     style="stroke:#ffffff;stroke-width:1.07;stroke-linecap:butt"
     clip-path="none"
     id="polyline4372"
     transform="translate(22.771232,-3.8150274)" />
  <polyline
     points="219.70,48.98 401.00,48.98 "
     style="stroke:#ffffff;stroke-width:1.07;stroke-linecap:butt"
     clip-path="none"
     id="polyline4374"
     transform="translate(22.771232,-3.8150274)" />
  <polyline
     points="260.90,244.71 260.90,22.40 "
     style="stroke:#ffffff;stroke-width:1.07;stroke-linecap:butt"
     clip-path="none"
     id="polyline4376"
     transform="translate(22.771232,-3.8150274)" />
  <polyline
     points="326.83,244.71 326.83,22.40 "
     style="stroke:#ffffff;stroke-width:1.07;stroke-linecap:butt"
     clip-path="none"
     id="polyline4378"
     transform="translate(22.771232,-3.8150274)" />
  <polyline
     points="392.76,244.71 392.76,22.40 "
     style="stroke:#ffffff;stroke-width:1.07;stroke-linecap:butt"
     clip-path="none"
     id="polyline4380"
     transform="translate(22.771232,-3.8150274)" />
  <rect
     x="242.47124"
     y="246.37497"
     width="181.3"
     height="222.32001"
     style="fill:#efebe9;stroke:none;stroke-width:1.07"
     clip-path="none"
     id="rect4423" />
  <polyline
     points="219.70,425.61 401.00,425.61 "
     style="stroke:#ffffff;stroke-width:1.07;stroke-linecap:butt"
     clip-path="none"
     id="polyline4439"
     transform="translate(22.771232,-3.8150274)" />
  <polyline
     points="219.70,374.28 401.00,374.28 "
     style="stroke:#ffffff;stroke-width:1.07;stroke-linecap:butt"
     clip-path="none"
     id="polyline4441"
     transform="translate(22.771232,-3.8150274)" />
  <polyline
     points="219.70,322.95 401.00,322.95 "
     style="stroke:#ffffff;stroke-width:1.07;stroke-linecap:butt"
     clip-path="none"
     id="polyline4443"
     transform="translate(22.771232,-3.8150274)" />
  <polyline
     points="219.70,271.63 401.00,271.63 "
     style="stroke:#ffffff;stroke-width:1.07;stroke-linecap:butt"
     clip-path="none"
     id="polyline4445"
     transform="translate(22.771232,-3.8150274)" />
  <polyline
     points="260.90,472.51 260.90,250.19 "
     style="stroke:#ffffff;stroke-width:1.07;stroke-linecap:butt"
     clip-path="none"
     id="polyline4447"
     transform="translate(22.771232,-3.8150274)" />
  <polyline
     points="326.83,472.51 326.83,250.19 "
     style="stroke:#ffffff;stroke-width:1.07;stroke-linecap:butt"
     clip-path="none"
     id="polyline4449"
     transform="translate(22.771232,-3.8150274)" />
  <polyline
     points="392.76,472.51 392.76,250.19 "
     style="stroke:#ffffff;stroke-width:1.07;stroke-linecap:butt"
     clip-path="none"
     id="polyline4451"
     transform="translate(22.771232,-3.8150274)" />
  <text
     xml:space="preserve"
     style="font-style:normal;font-variant:normal;font-weight:normal;font-stretch:condensed;font-size:16px;line-height:1.25;font-family:'Noto Sans';-inkscape-font-specification:'Noto Sans, Condensed';font-variant-ligatures:normal;font-variant-caps:normal;font-variant-numeric:normal;font-variant-east-asian:normal;letter-spacing:0px;word-spacing:0px;writing-mode:lr-tb"
     x="479.28143"
     y="132.32718"
     id="text5183-7"><tspan
       sodipodi:role="line"
       id="tspan5181-1"
       x="479.28143"
       y="132.32718">TNP-ATP bound</tspan><tspan
       sodipodi:role="line"
       x="479.28143"
       y="152.32718"
       id="tspan5302-4">Kir6.2 subunits</tspan></text>
  <rect
     style="opacity:0.99;fill:#1e88e5;fill-opacity:0.5;stroke:#1e88e5;stroke-width:1;stroke-linecap:round;stroke-linejoin:round;stroke-miterlimit:10;stroke-dasharray:none"
     id="rect5185-0"
     width="20.86804"
     height="20.86804"
     x="479.94141"
     y="158.59622" />
  <rect
     style="opacity:0.99;fill:#ffb74d;fill-opacity:0.5;stroke:#ffb74d;stroke-width:1;stroke-linecap:round;stroke-linejoin:round;stroke-miterlimit:10;stroke-dasharray:none"
     id="rect5185-6-4"
     width="20.86804"
     height="20.86804"
     x="479.94141"
     y="196.34995" />
  <rect
     style="opacity:0.99;fill:#ff9800;fill-opacity:0.5;stroke:#ff9800;stroke-width:1;stroke-linecap:round;stroke-linejoin:round;stroke-miterlimit:10;stroke-dasharray:none"
     id="rect5185-2-8"
     width="20.86804"
     height="20.86804"
     x="479.94141"
     y="234.10367" />
  <rect
     style="opacity:0.99;fill:#f57c00;fill-opacity:0.5;stroke:#f57c00;stroke-width:1;stroke-linecap:round;stroke-linejoin:round;stroke-miterlimit:10;stroke-dasharray:none"
     id="rect5185-9-3"
     width="20.86804"
     height="20.86804"
     x="479.94141"
     y="271.85739" />
  <rect
     style="opacity:0.99;fill:#e65100;fill-opacity:0.5;stroke:#e65100;stroke-width:1;stroke-linecap:round;stroke-linejoin:round;stroke-miterlimit:10;stroke-dasharray:none"
     id="rect5185-1-3"
     width="20.86804"
     height="20.86804"
     x="479.94141"
     y="309.61111" />
  <text
     xml:space="preserve"
     style="font-style:normal;font-variant:normal;font-weight:normal;font-stretch:condensed;font-size:16px;line-height:1.25;font-family:'Noto Sans';-inkscape-font-specification:'Noto Sans, Condensed';font-variant-ligatures:normal;font-variant-caps:normal;font-variant-numeric:normal;font-variant-east-asian:normal;letter-spacing:0px;word-spacing:0px;writing-mode:lr-tb"
     x="-303.11179"
     y="11.808"
     id="text5222-4"
     transform="rotate(-90)"><tspan
       sodipodi:role="line"
       id="tspan5220-6"
       x="-303.11179"
       y="11.808">Fraction occupancy</tspan></text>
  <text
     xml:space="preserve"
     style="font-style:normal;font-variant:normal;font-weight:normal;font-stretch:condensed;font-size:13.3333px;line-height:1.25;font-family:'Noto Sans';-inkscape-font-specification:'Noto Sans, Condensed';font-variant-ligatures:normal;font-variant-caps:normal;font-variant-numeric:normal;font-variant-east-asian:normal;letter-spacing:0px;word-spacing:0px;writing-mode:lr-tb"
     x="31.57469"
     y="50.858974"
     id="text5226-1"><tspan
       sodipodi:role="line"
       id="tspan5224-5"
       x="31.57469"
       y="50.858974">10<tspan
   style="font-size:65%;baseline-shift:super"
   id="tspan5844">-1</tspan></tspan></text>
  <text
     xml:space="preserve"
     style="font-style:normal;font-variant:normal;font-weight:normal;font-stretch:condensed;font-size:16px;line-height:1.25;font-family:'Noto Sans';-inkscape-font-specification:'Noto Sans, Condensed';font-variant-ligatures:normal;font-variant-caps:normal;font-variant-numeric:normal;font-variant-east-asian:normal;letter-spacing:0px;word-spacing:0px;writing-mode:lr-tb"
     x="104.58627"
     y="12.16"
     id="text5254-3"><tspan
       sodipodi:role="line"
       id="tspan5252-0"
       x="104.58627"
       y="12.16">MWC model</tspan></text>
  <text
     xml:space="preserve"
     style="font-style:normal;font-variant:normal;font-weight:normal;font-stretch:condensed;font-size:16px;line-height:1.25;font-family:'Noto Sans';-inkscape-font-specification:'Noto Sans, Condensed';font-variant-ligatures:normal;font-variant-caps:normal;font-variant-numeric:normal;font-variant-east-asian:normal;letter-spacing:0px;word-spacing:0px;writing-mode:lr-tb"
     x="266.21637"
     y="12.271572"
     id="text5254-7-0"><tspan
       sodipodi:role="line"
       id="tspan5252-9-2"
       x="266.21637"
       y="12.271572">Single binding model</tspan></text>
  <text
     xml:space="preserve"
     style="font-style:normal;font-variant:normal;font-weight:normal;font-stretch:condensed;font-size:16px;line-height:1.25;font-family:'Noto Sans';-inkscape-font-specification:'Noto Sans, Condensed';font-variant-ligatures:normal;font-variant-caps:normal;font-variant-numeric:normal;font-variant-east-asian:normal;letter-spacing:0px;word-spacing:0px;writing-mode:lr-tb"
     x="320.871"
     y="-434.91669"
     id="text5276-5"
     transform="rotate(90)"><tspan
       sodipodi:role="line"
       id="tspan5274-3"
       x="320.871"
       y="-434.91669">Open states</tspan></text>
  <text
     xml:space="preserve"
     style="font-style:normal;font-variant:normal;font-weight:normal;font-stretch:condensed;font-size:16px;line-height:1.25;font-family:'Noto Sans';-inkscape-font-specification:'Noto Sans, Condensed';font-variant-ligatures:normal;font-variant-caps:normal;font-variant-numeric:normal;font-variant-east-asian:normal;letter-spacing:0px;word-spacing:0px;writing-mode:lr-tb"
     x="89.268036"
     y="-431.23669"
     id="text5280-8"
     transform="rotate(90)"><tspan
       sodipodi:role="line"
       id="tspan5278-5"
       x="89.268036"
       y="-431.23669">Closed states</tspan></text>
  <text
     xml:space="preserve"
     style="font-style:normal;font-variant:normal;font-weight:normal;font-stretch:condensed;font-size:16px;line-height:1.25;font-family:'Noto Sans';-inkscape-font-specification:'Noto Sans, Condensed';font-variant-ligatures:normal;font-variant-caps:normal;font-variant-numeric:normal;font-variant-east-asian:normal;letter-spacing:0px;word-spacing:0px;writing-mode:lr-tb"
     x="510.76508"
     y="174.74228"
     id="text5284-0"><tspan
       sodipodi:role="line"
       id="tspan5282-5"
       x="510.76508"
       y="174.74228">0</tspan></text>
  <text
     xml:space="preserve"
     style="font-style:normal;font-variant:normal;font-weight:normal;font-stretch:condensed;font-size:16px;line-height:1.25;font-family:'Noto Sans';-inkscape-font-specification:'Noto Sans, Condensed';font-variant-ligatures:normal;font-variant-caps:normal;font-variant-numeric:normal;font-variant-east-asian:normal;letter-spacing:0px;word-spacing:0px;writing-mode:lr-tb"
     x="510.33307"
     y="212.48599"
     id="text5288-6"><tspan
       sodipodi:role="line"
       id="tspan5286-6"
       x="510.33307"
       y="212.48599">1</tspan></text>
  <text
     xml:space="preserve"
     style="font-style:normal;font-variant:normal;font-weight:normal;font-stretch:condensed;font-size:16px;line-height:1.25;font-family:'Noto Sans';-inkscape-font-specification:'Noto Sans, Condensed';font-variant-ligatures:normal;font-variant-caps:normal;font-variant-numeric:normal;font-variant-east-asian:normal;letter-spacing:0px;word-spacing:0px;writing-mode:lr-tb"
     x="510.84503"
     y="250.22971"
     id="text5292-7"><tspan
       sodipodi:role="line"
       id="tspan5290-3"
       x="510.84503"
       y="250.22971">2</tspan></text>
  <text
     xml:space="preserve"
     style="font-style:normal;font-variant:normal;font-weight:normal;font-stretch:condensed;font-size:16px;line-height:1.25;font-family:'Noto Sans';-inkscape-font-specification:'Noto Sans, Condensed';font-variant-ligatures:normal;font-variant-caps:normal;font-variant-numeric:normal;font-variant-east-asian:normal;letter-spacing:0px;word-spacing:0px;writing-mode:lr-tb"
     x="510.82904"
     y="287.97342"
     id="text5296-4"><tspan
       sodipodi:role="line"
       id="tspan5294-0"
       x="510.82904"
       y="287.97342">3</tspan></text>
  <text
     xml:space="preserve"
     style="font-style:normal;font-variant:normal;font-weight:normal;font-stretch:condensed;font-size:16px;line-height:1.25;font-family:'Noto Sans';-inkscape-font-specification:'Noto Sans, Condensed';font-variant-ligatures:normal;font-variant-caps:normal;font-variant-numeric:normal;font-variant-east-asian:normal;letter-spacing:0px;word-spacing:0px;writing-mode:lr-tb"
     x="511.16504"
     y="325.79709"
     id="text5300-8"><tspan
       sodipodi:role="line"
       id="tspan5298-0"
       x="511.16504"
       y="325.79709">4</tspan></text>
  <text
     xml:space="preserve"
     style="font-style:normal;font-variant:normal;font-weight:normal;font-stretch:condensed;font-size:13.3333px;line-height:1.25;font-family:'Noto Sans';-inkscape-font-specification:'Noto Sans, Condensed';font-variant-ligatures:normal;font-variant-caps:normal;font-variant-numeric:normal;font-variant-east-asian:normal;letter-spacing:0px;word-spacing:0px;writing-mode:lr-tb"
     x="82.254272"
     y="484.69717"
     id="text5306-8"><tspan
       sodipodi:role="line"
       id="tspan5304-1"
       x="82.254272"
       y="484.69717">10<tspan
   style="font-size:65%;baseline-shift:super"
   id="tspan5308-5">-6</tspan></tspan></text>
  <text
     xml:space="preserve"
     style="font-style:normal;font-variant:normal;font-weight:normal;font-stretch:condensed;font-size:13.3333px;line-height:1.25;font-family:'Noto Sans';-inkscape-font-specification:'Noto Sans, Condensed';font-variant-ligatures:normal;font-variant-caps:normal;font-variant-numeric:normal;font-variant-east-asian:normal;letter-spacing:0px;word-spacing:0px;writing-mode:lr-tb"
     x="149.04727"
     y="484.65384"
     id="text5306-7-35"><tspan
       sodipodi:role="line"
       id="tspan5304-8-1"
       x="149.04727"
       y="484.65384">10<tspan
   style="font-size:65%;baseline-shift:super"
   id="tspan5308-0-1">-4</tspan></tspan></text>
  <text
     xml:space="preserve"
     style="font-style:normal;font-variant:normal;font-weight:normal;font-stretch:condensed;font-size:13.3333px;line-height:1.25;font-family:'Noto Sans';-inkscape-font-specification:'Noto Sans, Condensed';font-variant-ligatures:normal;font-variant-caps:normal;font-variant-numeric:normal;font-variant-east-asian:normal;letter-spacing:0px;word-spacing:0px;writing-mode:lr-tb"
     x="216.10028"
     y="484.69717"
     id="text5306-9-4"><tspan
       sodipodi:role="line"
       id="tspan5304-5-0"
       x="216.10028"
       y="484.69717">10<tspan
   style="font-size:65%;baseline-shift:super"
   id="tspan5308-2-1">-2</tspan></tspan></text>
  <text
     xml:space="preserve"
     style="font-style:normal;font-variant:normal;font-weight:normal;font-stretch:condensed;font-size:13.3333px;line-height:1.25;font-family:'Noto Sans';-inkscape-font-specification:'Noto Sans, Condensed';font-variant-ligatures:normal;font-variant-caps:normal;font-variant-numeric:normal;font-variant-east-asian:normal;letter-spacing:0px;word-spacing:0px;writing-mode:lr-tb"
     x="271.7243"
     y="484.69717"
     id="text5306-1-1"><tspan
       sodipodi:role="line"
       id="tspan5304-3-8"
       x="271.7243"
       y="484.69717">10<tspan
   style="font-size:65%;baseline-shift:super"
   id="tspan5308-27-5">-6</tspan></tspan></text>
  <text
     xml:space="preserve"
     style="font-style:normal;font-variant:normal;font-weight:normal;font-stretch:condensed;font-size:13.3333px;line-height:1.25;font-family:'Noto Sans';-inkscape-font-specification:'Noto Sans, Condensed';font-variant-ligatures:normal;font-variant-caps:normal;font-variant-numeric:normal;font-variant-east-asian:normal;letter-spacing:0px;word-spacing:0px;writing-mode:lr-tb"
     x="338.51727"
     y="484.65384"
     id="text5306-7-3-7"><tspan
       sodipodi:role="line"
       id="tspan5304-8-3-8"
       x="338.51727"
       y="484.65384">10<tspan
   style="font-size:65%;baseline-shift:super"
   id="tspan5308-0-2-5">-4</tspan></tspan></text>
  <text
     xml:space="preserve"
     style="font-style:normal;font-variant:normal;font-weight:normal;font-stretch:condensed;font-size:13.3333px;line-height:1.25;font-family:'Noto Sans';-inkscape-font-specification:'Noto Sans, Condensed';font-variant-ligatures:normal;font-variant-caps:normal;font-variant-numeric:normal;font-variant-east-asian:normal;letter-spacing:0px;word-spacing:0px;writing-mode:lr-tb"
     x="405.57025"
     y="484.69717"
     id="text5306-9-3-1"><tspan
       sodipodi:role="line"
       id="tspan5304-5-8-6"
       x="405.57025"
       y="484.69717">10<tspan
   style="font-size:65%;baseline-shift:super"
   id="tspan5308-2-6-0">-2</tspan></tspan></text>
  <text
     xml:space="preserve"
     style="font-style:normal;font-variant:normal;font-weight:normal;font-stretch:condensed;font-size:16px;line-height:1.25;font-family:'Noto Sans';-inkscape-font-specification:'Noto Sans, Condensed';font-variant-ligatures:normal;font-variant-caps:normal;font-variant-numeric:normal;font-variant-east-asian:normal;letter-spacing:0px;word-spacing:0px;writing-mode:lr-tb"
     x="193.26532"
     y="508.61844"
     id="text5382-9"><tspan
       sodipodi:role="line"
       id="tspan5380-1"
       x="193.26532"
       y="508.61844">[TNP-ATP] (M)</tspan></text>
  <text
     xml:space="preserve"
     style="font-style:normal;font-variant:normal;font-weight:normal;font-stretch:condensed;font-size:13.3333px;line-height:1.25;font-family:'Noto Sans';-inkscape-font-specification:'Noto Sans, Condensed';font-variant-ligatures:normal;font-variant-caps:normal;font-variant-numeric:normal;font-variant-east-asian:normal;letter-spacing:0px;word-spacing:0px;writing-mode:lr-tb"
     x="30.326693"
     y="100.55063"
     id="text5226-1-2"><tspan
       sodipodi:role="line"
       id="tspan5224-5-4"
       x="30.326693"
       y="100.55063">10<tspan
   style="font-size:65%;baseline-shift:super"
   id="tspan5844-9">-4</tspan></tspan></text>
  <text
     xml:space="preserve"
     style="font-style:normal;font-variant:normal;font-weight:normal;font-stretch:condensed;font-size:13.3333px;line-height:1.25;font-family:'Noto Sans';-inkscape-font-specification:'Noto Sans, Condensed';font-variant-ligatures:normal;font-variant-caps:normal;font-variant-numeric:normal;font-variant-east-asian:normal;letter-spacing:0px;word-spacing:0px;writing-mode:lr-tb"
     x="30.534693"
     y="150.19894"
     id="text5226-1-0"><tspan
       sodipodi:role="line"
       id="tspan5224-5-1"
       x="30.534693"
       y="150.19894">10<tspan
   style="font-size:65%;baseline-shift:super"
   id="tspan5844-4">-7</tspan></tspan></text>
  <text
     xml:space="preserve"
     style="font-style:normal;font-variant:normal;font-weight:normal;font-stretch:condensed;font-size:13.3333px;line-height:1.25;font-family:'Noto Sans';-inkscape-font-specification:'Noto Sans, Condensed';font-variant-ligatures:normal;font-variant-caps:normal;font-variant-numeric:normal;font-variant-east-asian:normal;letter-spacing:0px;word-spacing:0px;writing-mode:lr-tb"
     x="26.478718"
     y="199.91232"
     id="text5226-1-4"><tspan
       sodipodi:role="line"
       id="tspan5224-5-3"
       x="26.478718"
       y="199.91232">10<tspan
   style="font-size:65%;baseline-shift:super"
   id="tspan5844-2">-10</tspan></tspan></text>
  <text
     xml:space="preserve"
     style="font-style:normal;font-variant:normal;font-weight:normal;font-stretch:condensed;font-size:13.3333px;line-height:1.25;font-family:'Noto Sans';-inkscape-font-specification:'Noto Sans, Condensed';font-variant-ligatures:normal;font-variant-caps:normal;font-variant-numeric:normal;font-variant-east-asian:normal;letter-spacing:0px;word-spacing:0px;writing-mode:lr-tb"
     x="30.612692"
     y="273.55228"
     id="text5226-1-5"><tspan
       sodipodi:role="line"
       id="tspan5224-5-13"
       x="30.612692"
       y="273.55228">10<tspan
   style="font-size:65%;baseline-shift:super"
   id="tspan5844-26">-2</tspan></tspan></text>
  <text
     xml:space="preserve"
     style="font-style:normal;font-variant:normal;font-weight:normal;font-stretch:condensed;font-size:13.3333px;line-height:1.25;font-family:'Noto Sans';-inkscape-font-specification:'Noto Sans, Condensed';font-variant-ligatures:normal;font-variant-caps:normal;font-variant-numeric:normal;font-variant-east-asian:normal;letter-spacing:0px;word-spacing:0px;writing-mode:lr-tb"
     x="30.517359"
     y="324.87228"
     id="text5226-1-2-0"><tspan
       sodipodi:role="line"
       id="tspan5224-5-4-6"
       x="30.517359"
       y="324.87228">10<tspan
   style="font-size:65%;baseline-shift:super"
   id="tspan5844-9-9">-8</tspan></tspan></text>
  <text
     xml:space="preserve"
     style="font-style:normal;font-variant:normal;font-weight:normal;font-stretch:condensed;font-size:13.3333px;line-height:1.25;font-family:'Noto Sans';-inkscape-font-specification:'Noto Sans, Condensed';font-variant-ligatures:normal;font-variant-caps:normal;font-variant-numeric:normal;font-variant-east-asian:normal;letter-spacing:0px;word-spacing:0px;writing-mode:lr-tb"
     x="26.236052"
     y="376.18063"
     id="text5226-1-0-6"><tspan
       sodipodi:role="line"
       id="tspan5224-5-1-8"
       x="26.236052"
       y="376.18063">10<tspan
   style="font-size:65%;baseline-shift:super"
   id="tspan5844-4-0">-14</tspan></tspan></text>
  <text
     xml:space="preserve"
     style="font-style:normal;font-variant:normal;font-weight:normal;font-stretch:condensed;font-size:13.3333px;line-height:1.25;font-family:'Noto Sans';-inkscape-font-specification:'Noto Sans, Condensed';font-variant-ligatures:normal;font-variant-caps:normal;font-variant-numeric:normal;font-variant-east-asian:normal;letter-spacing:0px;word-spacing:0px;writing-mode:lr-tb"
     x="26.478718"
     y="427.53232"
     id="text5226-1-4-8"><tspan
       sodipodi:role="line"
       id="tspan5224-5-3-6"
       x="26.478718"
       y="427.53232">10<tspan
   style="font-size:65%;baseline-shift:super"
   id="tspan5844-2-7">-20</tspan></tspan></text>
  <polygon
     points="251.01,32.66 254.31,32.7 257.61,32.75 260.9,32.82 264.2,32.9 267.5,33 270.79,33.12 274.09,33.27 277.39,33.45 280.68,33.68 283.98,33.96 287.27,34.3 290.57,34.72 293.87,35.23 297.16,35.86 300.46,36.63 303.76,37.56 307.05,38.69 310.35,40.05 313.65,41.69 316.94,43.62 320.24,45.89 323.53,48.52 326.83,51.52 330.13,54.91 333.42,58.68 336.72,62.82 340.02,67.31 343.31,72.11 346.61,77.2 349.91,82.55 353.2,88.12 356.5,93.88 359.8,99.79 363.09,105.84 366.39,112 369.68,118.25 372.98,124.57 376.28,130.95 379.57,137.38 382.87,143.85 386.17,150.35 389.46,156.87 392.76,163.42 392.76,202.99 389.46,196.38 386.17,189.78 382.87,183.19 379.57,176.61 376.28,170.04 372.98,163.48 369.68,156.93 366.39,150.41 363.09,143.91 359.8,137.44 356.5,131.01 353.2,124.63 349.91,118.31 346.61,112.06 343.31,105.9 340.02,99.85 336.72,93.93 333.42,88.18 330.13,82.61 326.83,77.26 323.53,72.17 320.24,67.37 316.94,62.88 313.65,58.74 310.35,54.98 307.05,51.6 303.76,48.61 300.46,46 297.16,43.76 293.87,41.86 290.57,40.28 287.27,38.96 283.98,37.91 280.68,37.05 277.39,36.37 274.09,35.84 270.79,35.43 267.5,35.12 264.2,34.88 260.9,34.7 257.61,34.57 254.31,34.47 251.01,34.39 247.72,34.34 244.42,34.29 241.13,34.26 237.83,34.23 234.53,34.21 231.24,34.19 227.94,34.18 227.94,32.52 231.24,32.53 234.53,32.54 237.83,32.55 241.13,32.57 244.42,32.6 247.72,32.62 "
     style="fill:#1e88e5;fill-opacity:0.5;stroke:none;stroke-width:0"
     clip-path="url(#cpMjE5LjcwfDQwMS4wMHwyNDQuNzF8MjIuNDA=)"
     id="polygon9466"
     transform="translate(22.77124,-3.815012)" />
  <polyline
     points="227.94,32.52 231.24,32.53 234.53,32.54 237.83,32.55 241.13,32.57 244.42,32.60 247.72,32.62 251.01,32.66 254.31,32.70 257.61,32.75 260.90,32.82 264.20,32.90 267.50,33.00 270.79,33.12 274.09,33.27 277.39,33.45 280.68,33.68 283.98,33.96 287.27,34.30 290.57,34.72 293.87,35.23 297.16,35.86 300.46,36.63 303.76,37.56 307.05,38.69 310.35,40.05 313.65,41.69 316.94,43.62 320.24,45.89 323.53,48.52 326.83,51.52 330.13,54.91 333.42,58.68 336.72,62.82 340.02,67.31 343.31,72.11 346.61,77.20 349.91,82.55 353.20,88.12 356.50,93.88 359.80,99.79 363.09,105.84 366.39,112.00 369.68,118.25 372.98,124.57 376.28,130.95 379.57,137.38 382.87,143.85 386.17,150.35 389.46,156.87 392.76,163.42 "
     style="stroke:#1e88e5;stroke-width:1.07"
     clip-path="url(#cpMjE5LjcwfDQwMS4wMHwyNDQuNzF8MjIuNDA=)"
     id="polyline9468"
     transform="translate(22.77124,-3.815012)" />
  <polyline
     points="392.76,202.99 389.46,196.38 386.17,189.78 382.87,183.19 379.57,176.61 376.28,170.04 372.98,163.48 369.68,156.93 366.39,150.41 363.09,143.91 359.80,137.44 356.50,131.01 353.20,124.63 349.91,118.31 346.61,112.06 343.31,105.90 340.02,99.85 336.72,93.93 333.42,88.18 330.13,82.61 326.83,77.26 323.53,72.17 320.24,67.37 316.94,62.88 313.65,58.74 310.35,54.98 307.05,51.60 303.76,48.61 300.46,46.00 297.16,43.76 293.87,41.86 290.57,40.28 287.27,38.96 283.98,37.91 280.68,37.05 277.39,36.37 274.09,35.84 270.79,35.43 267.50,35.12 264.20,34.88 260.90,34.70 257.61,34.57 254.31,34.47 251.01,34.39 247.72,34.34 244.42,34.29 241.13,34.26 237.83,34.23 234.53,34.21 231.24,34.19 227.94,34.18 "
     style="stroke:#1e88e5;stroke-width:1.07"
     clip-path="url(#cpMjE5LjcwfDQwMS4wMHwyNDQuNzF8MjIuNDA=)"
     id="polyline9470"
     transform="translate(22.77124,-3.815012)" />
  <polygon
     points="251.01,52.15 254.31,50.62 257.61,49.12 260.9,47.67 264.2,46.26 267.5,44.92 270.79,43.65 274.09,42.47 277.39,41.41 280.68,40.5 283.98,39.74 287.27,39.19 290.57,38.87 293.87,38.74 297.16,38.7 300.46,38.69 303.76,38.69 307.05,38.67 310.35,38.68 313.65,38.76 316.94,39.06 320.24,39.68 323.53,40.65 326.83,42 330.13,43.73 333.42,45.85 336.72,48.33 340.02,51.16 343.31,54.31 346.61,57.75 349.91,61.44 353.2,65.35 356.5,69.45 359.8,73.71 363.09,78.1 366.39,82.61 369.68,87.2 372.98,91.86 376.28,96.59 379.57,101.36 382.87,106.18 386.17,111.02 389.46,115.89 392.76,120.78 392.76,150.41 389.46,145.46 386.17,140.52 382.87,135.58 379.57,130.66 376.28,125.74 372.98,120.83 369.68,115.94 366.39,111.08 363.09,106.23 359.8,101.42 356.5,96.64 353.2,91.92 349.91,87.25 346.61,82.66 343.31,78.16 340.02,73.76 336.72,69.5 333.42,65.41 330.13,61.49 326.83,57.8 323.53,54.36 320.24,51.21 316.94,48.38 313.65,45.91 310.35,43.8 307.05,42.07 303.76,40.77 300.46,40.59 297.16,41.42 293.87,42.47 290.57,43.63 287.27,44.9 283.98,46.24 280.68,47.64 277.39,49.1 274.09,50.59 270.79,52.12 267.5,53.68 264.2,55.25 260.9,56.84 257.61,58.45 254.31,60.06 251.01,61.69 247.72,63.32 244.42,64.95 241.13,66.59 237.83,68.23 234.53,69.88 231.24,71.53 227.94,73.18 227.94,63.34 231.24,61.71 234.53,60.09 237.83,58.47 241.13,56.87 244.42,55.28 247.72,53.7 "
     style="fill:#ffb74d;fill-opacity:0.5;stroke:none;stroke-width:0"
     clip-path="url(#cpMjE5LjcwfDQwMS4wMHwyNDQuNzF8MjIuNDA=)"
     id="polygon9472"
     transform="translate(22.77124,-3.815012)" />
  <polyline
     points="227.94,63.34 231.24,61.71 234.53,60.09 237.83,58.47 241.13,56.87 244.42,55.28 247.72,53.70 251.01,52.15 254.31,50.62 257.61,49.12 260.90,47.67 264.20,46.26 267.50,44.92 270.79,43.65 274.09,42.47 277.39,41.41 280.68,40.50 283.98,39.74 287.27,39.19 290.57,38.87 293.87,38.74 297.16,38.70 300.46,38.69 303.76,38.69 307.05,38.67 310.35,38.68 313.65,38.76 316.94,39.06 320.24,39.68 323.53,40.65 326.83,42.00 330.13,43.73 333.42,45.85 336.72,48.33 340.02,51.16 343.31,54.31 346.61,57.75 349.91,61.44 353.20,65.35 356.50,69.45 359.80,73.71 363.09,78.10 366.39,82.61 369.68,87.20 372.98,91.86 376.28,96.59 379.57,101.36 382.87,106.18 386.17,111.02 389.46,115.89 392.76,120.78 "
     style="stroke:#ffb74d;stroke-width:1.07"
     clip-path="url(#cpMjE5LjcwfDQwMS4wMHwyNDQuNzF8MjIuNDA=)"
     id="polyline9474"
     transform="translate(22.77124,-3.815012)" />
  <polyline
     points="392.76,150.41 389.46,145.46 386.17,140.52 382.87,135.58 379.57,130.66 376.28,125.74 372.98,120.83 369.68,115.94 366.39,111.08 363.09,106.23 359.80,101.42 356.50,96.64 353.20,91.92 349.91,87.25 346.61,82.66 343.31,78.16 340.02,73.76 336.72,69.50 333.42,65.41 330.13,61.49 326.83,57.80 323.53,54.36 320.24,51.21 316.94,48.38 313.65,45.91 310.35,43.80 307.05,42.07 303.76,40.77 300.46,40.59 297.16,41.42 293.87,42.47 290.57,43.63 287.27,44.90 283.98,46.24 280.68,47.64 277.39,49.10 274.09,50.59 270.79,52.12 267.50,53.68 264.20,55.25 260.90,56.84 257.61,58.45 254.31,60.06 251.01,61.69 247.72,63.32 244.42,64.95 241.13,66.59 237.83,68.23 234.53,69.88 231.24,71.53 227.94,73.18 "
     style="stroke:#ffb74d;stroke-width:1.07"
     clip-path="url(#cpMjE5LjcwfDQwMS4wMHwyNDQuNzF8MjIuNDA=)"
     id="polyline9476"
     transform="translate(22.77124,-3.815012)" />
  <polygon
     points="251.01,77.87 254.31,74.69 257.61,71.54 260.9,68.42 264.2,65.36 267.5,62.36 270.79,59.44 274.09,56.61 277.39,53.89 280.68,51.32 283.98,48.91 287.27,46.71 290.57,44.73 293.87,43.04 297.16,41.64 300.46,40.58 303.76,39.89 307.05,39.59 310.35,39.52 313.65,39.5 316.94,39.5 320.24,39.5 323.53,39.49 326.83,39.5 330.13,39.61 333.42,40.06 336.72,40.89 340.02,42.07 343.31,43.56 346.61,45.34 349.91,47.38 353.2,49.64 356.5,52.08 359.8,54.68 363.09,57.42 366.39,60.27 369.68,63.2 372.98,66.22 376.28,69.29 379.57,72.4 382.87,75.56 386.17,78.75 389.46,81.96 392.76,85.19 392.76,104.88 389.46,101.59 386.17,98.31 382.87,95.03 379.57,91.75 376.28,88.49 372.98,85.24 369.68,82.01 366.39,78.8 363.09,75.61 359.8,72.45 356.5,69.33 353.2,66.26 349.91,63.25 346.61,60.32 343.31,57.47 340.02,54.73 336.72,52.12 333.42,49.68 330.13,47.42 326.83,45.39 323.53,43.61 320.24,42.12 316.94,41.7 313.65,42.97 310.35,44.66 307.05,46.61 303.76,48.81 300.46,51.21 297.16,53.77 293.87,56.48 290.57,59.31 287.27,62.22 283.98,65.22 280.68,68.28 277.39,71.39 274.09,74.54 270.79,77.73 267.5,80.94 264.2,84.17 260.9,87.42 257.61,90.68 254.31,93.95 251.01,97.22 247.72,100.51 244.42,103.8 241.13,107.1 237.83,110.4 234.53,113.7 231.24,117 227.94,120.31 227.94,100.66 231.24,97.38 234.53,94.1 237.83,90.82 241.13,87.56 244.42,84.32 247.72,81.09 "
     style="fill:#ff9800;fill-opacity:0.5;stroke:none;stroke-width:0"
     clip-path="url(#cpMjE5LjcwfDQwMS4wMHwyNDQuNzF8MjIuNDA=)"
     id="polygon9478"
     transform="translate(22.77124,-3.815012)" />
  <polyline
     points="227.94,100.66 231.24,97.38 234.53,94.10 237.83,90.82 241.13,87.56 244.42,84.32 247.72,81.09 251.01,77.87 254.31,74.69 257.61,71.54 260.90,68.42 264.20,65.36 267.50,62.36 270.79,59.44 274.09,56.61 277.39,53.89 280.68,51.32 283.98,48.91 287.27,46.71 290.57,44.73 293.87,43.04 297.16,41.64 300.46,40.58 303.76,39.89 307.05,39.59 310.35,39.52 313.65,39.50 316.94,39.50 320.24,39.50 323.53,39.49 326.83,39.50 330.13,39.61 333.42,40.06 336.72,40.89 340.02,42.07 343.31,43.56 346.61,45.34 349.91,47.38 353.20,49.64 356.50,52.08 359.80,54.68 363.09,57.42 366.39,60.27 369.68,63.20 372.98,66.22 376.28,69.29 379.57,72.40 382.87,75.56 386.17,78.75 389.46,81.96 392.76,85.19 "
     style="stroke:#ff9800;stroke-width:1.07"
     clip-path="url(#cpMjE5LjcwfDQwMS4wMHwyNDQuNzF8MjIuNDA=)"
     id="polyline9480"
     transform="translate(22.77124,-3.815012)" />
  <polyline
     points="392.76,104.88 389.46,101.59 386.17,98.31 382.87,95.03 379.57,91.75 376.28,88.49 372.98,85.24 369.68,82.01 366.39,78.80 363.09,75.61 359.80,72.45 356.50,69.33 353.20,66.26 349.91,63.25 346.61,60.32 343.31,57.47 340.02,54.73 336.72,52.12 333.42,49.68 330.13,47.42 326.83,45.39 323.53,43.61 320.24,42.12 316.94,41.70 313.65,42.97 310.35,44.66 307.05,46.61 303.76,48.81 300.46,51.21 297.16,53.77 293.87,56.48 290.57,59.31 287.27,62.22 283.98,65.22 280.68,68.28 277.39,71.39 274.09,74.54 270.79,77.73 267.50,80.94 264.20,84.17 260.90,87.42 257.61,90.68 254.31,93.95 251.01,97.22 247.72,100.51 244.42,103.80 241.13,107.10 237.83,110.40 234.53,113.70 231.24,117.00 227.94,120.31 "
     style="stroke:#ff9800;stroke-width:1.07"
     clip-path="url(#cpMjE5LjcwfDQwMS4wMHwyNDQuNzF8MjIuNDA=)"
     id="polyline9482"
     transform="translate(22.77124,-3.815012)" />
  <polygon
     points="251.01,109.39 254.31,104.55 257.61,99.74 260.9,94.98 264.2,90.26 267.5,85.6 270.79,81.02 274.09,76.53 277.39,72.16 280.68,67.93 283.98,63.86 287.27,60.01 290.57,56.39 293.87,53.03 297.16,49.98 300.46,47.26 303.76,44.9 307.05,42.93 310.35,41.34 313.65,40.14 316.94,39.32 320.24,38.84 323.53,38.68 326.83,38.65 330.13,38.64 333.42,38.64 336.72,38.63 340.02,38.63 343.31,38.64 346.61,38.77 349.91,39.15 353.2,39.75 356.5,40.54 359.8,41.49 363.09,42.57 366.39,43.76 369.68,45.04 372.98,46.39 376.28,47.81 379.57,49.27 382.87,50.77 386.17,52.3 389.46,53.86 392.76,55.44 392.76,65.19 389.46,63.56 386.17,61.93 382.87,60.3 379.57,58.69 376.28,57.08 372.98,55.49 369.68,53.91 366.39,52.35 363.09,50.82 359.8,49.31 356.5,47.85 353.2,46.44 349.91,45.08 346.61,43.8 343.31,42.61 340.02,41.53 336.72,40.59 333.42,40.25 330.13,41.32 326.83,42.9 323.53,44.86 320.24,47.2 316.94,49.9 313.65,52.94 310.35,56.28 307.05,59.89 303.76,63.74 300.46,67.79 297.16,72.02 293.87,76.38 290.57,80.86 287.27,85.43 283.98,90.08 280.68,94.8 277.39,99.56 274.09,104.37 270.79,109.21 267.5,114.07 264.2,118.96 260.9,123.86 257.61,128.78 254.31,133.7 251.01,138.64 247.72,143.58 244.42,148.52 241.13,153.48 237.83,158.43 234.53,163.39 231.24,168.34 227.94,173.31 227.94,143.76 231.24,138.82 234.53,133.89 237.83,128.96 241.13,124.05 244.42,119.14 247.72,114.26 "
     style="fill:#f57c00;fill-opacity:0.5;stroke:none;stroke-width:0"
     clip-path="url(#cpMjE5LjcwfDQwMS4wMHwyNDQuNzF8MjIuNDA=)"
     id="polygon9484"
     transform="translate(22.77124,-3.815012)" />
  <polyline
     points="227.94,143.76 231.24,138.82 234.53,133.89 237.83,128.96 241.13,124.05 244.42,119.14 247.72,114.26 251.01,109.39 254.31,104.55 257.61,99.74 260.90,94.98 264.20,90.26 267.50,85.60 270.79,81.02 274.09,76.53 277.39,72.16 280.68,67.93 283.98,63.86 287.27,60.01 290.57,56.39 293.87,53.03 297.16,49.98 300.46,47.26 303.76,44.90 307.05,42.93 310.35,41.34 313.65,40.14 316.94,39.32 320.24,38.84 323.53,38.68 326.83,38.65 330.13,38.64 333.42,38.64 336.72,38.63 340.02,38.63 343.31,38.64 346.61,38.77 349.91,39.15 353.20,39.75 356.50,40.54 359.80,41.49 363.09,42.57 366.39,43.76 369.68,45.04 372.98,46.39 376.28,47.81 379.57,49.27 382.87,50.77 386.17,52.30 389.46,53.86 392.76,55.44 "
     style="stroke:#f57c00;stroke-width:1.07"
     clip-path="url(#cpMjE5LjcwfDQwMS4wMHwyNDQuNzF8MjIuNDA=)"
     id="polyline9486"
     transform="translate(22.77124,-3.815012)" />
  <polyline
     points="392.76,65.19 389.46,63.56 386.17,61.93 382.87,60.30 379.57,58.69 376.28,57.08 372.98,55.49 369.68,53.91 366.39,52.35 363.09,50.82 359.80,49.31 356.50,47.85 353.20,46.44 349.91,45.08 346.61,43.80 343.31,42.61 340.02,41.53 336.72,40.59 333.42,40.25 330.13,41.32 326.83,42.90 323.53,44.86 320.24,47.20 316.94,49.90 313.65,52.94 310.35,56.28 307.05,59.89 303.76,63.74 300.46,67.79 297.16,72.02 293.87,76.38 290.57,80.86 287.27,85.43 283.98,90.08 280.68,94.80 277.39,99.56 274.09,104.37 270.79,109.21 267.50,114.07 264.20,118.96 260.90,123.86 257.61,128.78 254.31,133.70 251.01,138.64 247.72,143.58 244.42,148.52 241.13,153.48 237.83,158.43 234.53,163.39 231.24,168.34 227.94,173.31 "
     style="stroke:#f57c00;stroke-width:1.07"
     clip-path="url(#cpMjE5LjcwfDQwMS4wMHwyNDQuNzF8MjIuNDA=)"
     id="polyline9488"
     transform="translate(22.77124,-3.815012)" />
  <polygon
     points="251.01,147.95 254.31,141.44 257.61,134.98 260.9,128.56 264.2,122.18 267.5,115.88 270.79,109.64 274.09,103.5 277.39,97.48 280.68,91.6 283.98,85.89 287.27,80.35 290.57,75.07 293.87,70.05 297.16,65.34 300.46,60.97 303.76,56.97 307.05,53.34 310.35,50.09 313.65,47.24 316.94,44.75 320.24,42.61 323.53,40.79 326.83,39.26 330.13,37.99 333.42,36.94 336.72,36.07 340.02,35.37 343.31,34.8 346.61,34.33 349.91,33.96 353.2,33.65 356.5,33.41 359.8,33.22 363.09,33.06 366.39,32.94 369.68,32.84 372.98,32.76 376.28,32.7 379.57,32.64 382.87,32.6 386.17,32.57 389.46,32.54 392.76,32.52 392.76,32.74 389.46,32.82 386.17,32.92 382.87,33.04 379.57,33.19 376.28,33.39 372.98,33.63 369.68,33.93 366.39,34.3 363.09,34.77 359.8,35.34 356.5,36.05 353.2,36.92 349.91,37.97 346.61,39.25 343.31,40.78 340.02,42.6 336.72,44.74 333.42,47.22 330.13,50.08 326.83,53.31 323.53,56.93 320.24,60.93 316.94,65.28 313.65,69.97 310.35,74.97 307.05,80.24 303.76,85.74 300.46,91.45 297.16,97.32 293.87,103.34 290.57,109.48 287.27,115.7 283.98,122 280.68,128.38 277.39,134.79 274.09,141.26 270.79,147.75 267.5,154.27 264.2,160.81 260.9,167.37 257.61,173.95 254.31,180.53 251.01,187.12 247.72,193.72 244.42,200.32 241.13,206.93 237.83,213.54 234.53,220.15 231.24,226.76 227.94,233.38 227.94,193.92 231.24,187.32 234.53,180.73 237.83,174.15 241.13,167.58 244.42,161.02 247.72,154.47 "
     style="fill:#e65100;fill-opacity:0.5;stroke:none;stroke-width:0"
     clip-path="url(#cpMjE5LjcwfDQwMS4wMHwyNDQuNzF8MjIuNDA=)"
     id="polygon9490"
     transform="translate(22.77124,-3.815012)" />
  <polyline
     points="227.94,193.92 231.24,187.32 234.53,180.73 237.83,174.15 241.13,167.58 244.42,161.02 247.72,154.47 251.01,147.95 254.31,141.44 257.61,134.98 260.90,128.56 264.20,122.18 267.50,115.88 270.79,109.64 274.09,103.50 277.39,97.48 280.68,91.60 283.98,85.89 287.27,80.35 290.57,75.07 293.87,70.05 297.16,65.34 300.46,60.97 303.76,56.97 307.05,53.34 310.35,50.09 313.65,47.24 316.94,44.75 320.24,42.61 323.53,40.79 326.83,39.26 330.13,37.99 333.42,36.94 336.72,36.07 340.02,35.37 343.31,34.80 346.61,34.33 349.91,33.96 353.20,33.65 356.50,33.41 359.80,33.22 363.09,33.06 366.39,32.94 369.68,32.84 372.98,32.76 376.28,32.70 379.57,32.64 382.87,32.60 386.17,32.57 389.46,32.54 392.76,32.52 "
     style="stroke:#e65100;stroke-width:1.07"
     clip-path="url(#cpMjE5LjcwfDQwMS4wMHwyNDQuNzF8MjIuNDA=)"
     id="polyline9492"
     transform="translate(22.77124,-3.815012)" />
  <polyline
     points="392.76,32.74 389.46,32.82 386.17,32.92 382.87,33.04 379.57,33.19 376.28,33.39 372.98,33.63 369.68,33.93 366.39,34.30 363.09,34.77 359.80,35.34 356.50,36.05 353.20,36.92 349.91,37.97 346.61,39.25 343.31,40.78 340.02,42.60 336.72,44.74 333.42,47.22 330.13,50.08 326.83,53.31 323.53,56.93 320.24,60.93 316.94,65.28 313.65,69.97 310.35,74.97 307.05,80.24 303.76,85.74 300.46,91.45 297.16,97.32 293.87,103.34 290.57,109.48 287.27,115.70 283.98,122.00 280.68,128.38 277.39,134.79 274.09,141.26 270.79,147.75 267.50,154.27 264.20,160.81 260.90,167.37 257.61,173.95 254.31,180.53 251.01,187.12 247.72,193.72 244.42,200.32 241.13,206.93 237.83,213.54 234.53,220.15 231.24,226.76 227.94,233.38 "
     style="stroke:#e65100;stroke-width:1.07"
     clip-path="url(#cpMjE5LjcwfDQwMS4wMHwyNDQuNzF8MjIuNDA=)"
     id="polyline9494"
     transform="translate(22.77124,-3.815012)" />
  <polygon
     points="251.01,260.4 254.31,260.43 257.61,260.47 260.9,260.52 264.2,260.59 267.5,260.67 270.79,260.76 274.09,260.87 277.39,261.02 280.68,261.2 283.98,261.43 287.27,261.7 290.57,262.03 293.87,262.39 297.16,262.85 300.46,263.36 303.76,263.96 307.05,264.67 310.35,265.51 313.65,266.47 316.94,267.62 320.24,268.93 323.53,270.43 326.83,272.12 330.13,274 333.42,276.08 336.72,278.31 340.02,280.73 343.31,283.31 346.61,286.02 349.91,288.84 353.2,291.76 356.5,294.76 359.8,297.86 363.09,301.01 366.39,304.2 369.68,307.46 372.98,310.73 376.28,314.04 379.57,317.37 382.87,320.72 386.17,324.08 389.46,327.46 392.76,330.85 392.76,354.96 389.46,351.55 386.17,348.14 382.87,344.74 379.57,341.33 376.28,337.94 372.98,334.56 369.68,331.19 366.39,327.83 363.09,324.47 359.8,321.16 356.5,317.85 353.2,314.58 349.91,311.35 346.61,308.14 343.31,304.97 340.02,301.93 336.72,298.94 333.42,296.05 330.13,293.28 326.83,290.64 323.53,288.16 320.24,285.88 316.94,283.84 313.65,282.02 310.35,280.39 307.05,279.04 303.76,277.87 300.46,276.93 297.16,276.15 293.87,275.54 290.57,275.03 287.27,274.62 283.98,274.28 280.68,274.02 277.39,273.83 274.09,273.65 270.79,273.52 267.5,273.41 264.2,273.32 260.9,273.26 257.61,273.21 254.31,273.17 251.01,273.13 247.72,273.1 244.42,273.08 241.13,273.06 237.83,273.05 234.53,273.04 231.24,273.04 227.94,273.03 227.94,260.3 231.24,260.31 234.53,260.32 237.83,260.33 241.13,260.34 244.42,260.35 247.72,260.37 "
     style="fill:#1e88e5;fill-opacity:0.5;stroke:none;stroke-width:0"
     clip-path="url(#cpMjE5LjcwfDQwMS4wMHw0NzIuNTF8MjUwLjE5)"
     id="polygon9537"
     transform="translate(22.77124,-3.815012)" />
  <polyline
     points="227.94,260.30 231.24,260.31 234.53,260.32 237.83,260.33 241.13,260.34 244.42,260.35 247.72,260.37 251.01,260.40 254.31,260.43 257.61,260.47 260.90,260.52 264.20,260.59 267.50,260.67 270.79,260.76 274.09,260.87 277.39,261.02 280.68,261.20 283.98,261.43 287.27,261.70 290.57,262.03 293.87,262.39 297.16,262.85 300.46,263.36 303.76,263.96 307.05,264.67 310.35,265.51 313.65,266.47 316.94,267.62 320.24,268.93 323.53,270.43 326.83,272.12 330.13,274.00 333.42,276.08 336.72,278.31 340.02,280.73 343.31,283.31 346.61,286.02 349.91,288.84 353.20,291.76 356.50,294.76 359.80,297.86 363.09,301.01 366.39,304.20 369.68,307.46 372.98,310.73 376.28,314.04 379.57,317.37 382.87,320.72 386.17,324.08 389.46,327.46 392.76,330.85 "
     style="stroke:#1e88e5;stroke-width:1.07"
     clip-path="url(#cpMjE5LjcwfDQwMS4wMHw0NzIuNTF8MjUwLjE5)"
     id="polyline9539"
     transform="translate(22.77124,-3.815012)" />
  <polyline
     points="392.76,354.96 389.46,351.55 386.17,348.14 382.87,344.74 379.57,341.33 376.28,337.94 372.98,334.56 369.68,331.19 366.39,327.83 363.09,324.47 359.80,321.16 356.50,317.85 353.20,314.58 349.91,311.35 346.61,308.14 343.31,304.97 340.02,301.93 336.72,298.94 333.42,296.05 330.13,293.28 326.83,290.64 323.53,288.16 320.24,285.88 316.94,283.84 313.65,282.02 310.35,280.39 307.05,279.04 303.76,277.87 300.46,276.93 297.16,276.15 293.87,275.54 290.57,275.03 287.27,274.62 283.98,274.28 280.68,274.02 277.39,273.83 274.09,273.65 270.79,273.52 267.50,273.41 264.20,273.32 260.90,273.26 257.61,273.21 254.31,273.17 251.01,273.13 247.72,273.10 244.42,273.08 241.13,273.06 237.83,273.05 234.53,273.04 231.24,273.04 227.94,273.03 "
     style="stroke:#1e88e5;stroke-width:1.07"
     clip-path="url(#cpMjE5LjcwfDQwMS4wMHw0NzIuNTF8MjUwLjE5)"
     id="polyline9541"
     transform="translate(22.77124,-3.815012)" />
  <polygon
     points="251.01,282.33 254.31,281.52 257.61,280.73 260.9,279.95 264.2,279.2 267.5,278.47 270.79,277.78 274.09,277.12 277.39,276.51 280.68,275.96 283.98,275.48 287.27,275.07 290.57,274.76 293.87,274.57 297.16,274.48 300.46,274.51 303.76,274.67 307.05,274.96 310.35,275.38 313.65,275.89 316.94,276.55 320.24,277.32 323.53,278.16 326.83,279.16 330.13,280.34 333.42,281.66 336.72,283.17 340.02,284.79 343.31,286.53 346.61,288.4 349.91,290.39 353.2,292.49 356.5,294.67 359.8,296.92 363.09,299.23 366.39,301.6 369.68,304.02 372.98,306.46 376.28,308.91 379.57,311.39 382.87,313.89 386.17,316.4 389.46,318.93 392.76,321.46 392.76,341.71 389.46,339.17 386.17,336.63 382.87,334.08 379.57,331.56 376.28,329.05 372.98,326.55 369.68,324.06 366.39,321.59 363.09,319.14 359.8,316.73 356.5,314.36 353.2,312.01 349.91,309.74 346.61,307.55 343.31,305.48 340.02,303.47 336.72,301.63 333.42,299.94 330.13,298.41 326.83,297.03 323.53,295.9 320.24,295.03 316.94,294.38 313.65,293.93 310.35,293.67 307.05,293.61 303.76,293.69 300.46,293.92 297.16,294.27 293.87,294.69 290.57,295.19 287.27,295.77 283.98,296.42 280.68,297.08 277.39,297.8 274.09,298.55 270.79,299.31 267.5,300.09 264.2,300.89 260.9,301.71 257.61,302.53 254.31,303.34 251.01,304.17 247.72,305.01 244.42,305.85 241.13,306.69 237.83,307.54 234.53,308.39 231.24,309.24 227.94,310.09 227.94,288.15 231.24,287.31 234.53,286.47 237.83,285.63 241.13,284.79 244.42,283.96 247.72,283.15 "
     style="fill:#ffb74d;fill-opacity:0.5;stroke:none;stroke-width:0"
     clip-path="url(#cpMjE5LjcwfDQwMS4wMHw0NzIuNTF8MjUwLjE5)"
     id="polygon9543"
     transform="translate(22.77124,-3.815012)" />
  <polyline
     points="227.94,288.15 231.24,287.31 234.53,286.47 237.83,285.63 241.13,284.79 244.42,283.96 247.72,283.15 251.01,282.33 254.31,281.52 257.61,280.73 260.90,279.95 264.20,279.20 267.50,278.47 270.79,277.78 274.09,277.12 277.39,276.51 280.68,275.96 283.98,275.48 287.27,275.07 290.57,274.76 293.87,274.57 297.16,274.48 300.46,274.51 303.76,274.67 307.05,274.96 310.35,275.38 313.65,275.89 316.94,276.55 320.24,277.32 323.53,278.16 326.83,279.16 330.13,280.34 333.42,281.66 336.72,283.17 340.02,284.79 343.31,286.53 346.61,288.40 349.91,290.39 353.20,292.49 356.50,294.67 359.80,296.92 363.09,299.23 366.39,301.60 369.68,304.02 372.98,306.46 376.28,308.91 379.57,311.39 382.87,313.89 386.17,316.40 389.46,318.93 392.76,321.46 "
     style="stroke:#ffb74d;stroke-width:1.07"
     clip-path="url(#cpMjE5LjcwfDQwMS4wMHw0NzIuNTF8MjUwLjE5)"
     id="polyline9545"
     transform="translate(22.77124,-3.815012)" />
  <polyline
     points="392.76,341.71 389.46,339.17 386.17,336.63 382.87,334.08 379.57,331.56 376.28,329.05 372.98,326.55 369.68,324.06 366.39,321.59 363.09,319.14 359.80,316.73 356.50,314.36 353.20,312.01 349.91,309.74 346.61,307.55 343.31,305.48 340.02,303.47 336.72,301.63 333.42,299.94 330.13,298.41 326.83,297.03 323.53,295.90 320.24,295.03 316.94,294.38 313.65,293.93 310.35,293.67 307.05,293.61 303.76,293.69 300.46,293.92 297.16,294.27 293.87,294.69 290.57,295.19 287.27,295.77 283.98,296.42 280.68,297.08 277.39,297.80 274.09,298.55 270.79,299.31 267.50,300.09 264.20,300.89 260.90,301.71 257.61,302.53 254.31,303.34 251.01,304.17 247.72,305.01 244.42,305.85 241.13,306.69 237.83,307.54 234.53,308.39 231.24,309.24 227.94,310.09 "
     style="stroke:#ffb74d;stroke-width:1.07"
     clip-path="url(#cpMjE5LjcwfDQwMS4wMHw0NzIuNTF8MjUwLjE5)"
     id="polyline9547"
     transform="translate(22.77124,-3.815012)" />
  <polygon
     points="251.01,296.11 254.31,294.45 257.61,292.82 260.9,291.19 264.2,289.59 267.5,288.02 270.79,286.49 274.09,284.97 277.39,283.51 280.68,282.12 283.98,280.82 287.27,279.6 290.57,278.48 293.87,277.49 297.16,276.66 300.46,275.98 303.76,275.42 307.05,275.04 310.35,274.83 313.65,274.77 316.94,274.89 320.24,275.12 323.53,275.48 326.83,275.93 330.13,276.53 333.42,277.22 336.72,278.01 340.02,278.9 343.31,279.88 346.61,281.02 349.91,282.21 353.2,283.51 356.5,284.87 359.8,286.3 363.09,287.78 366.39,289.31 369.68,290.88 372.98,292.46 376.28,294.07 379.57,295.69 382.87,297.33 386.17,298.99 389.46,300.66 392.76,302.34 392.76,320.76 389.46,319.07 386.17,317.39 382.87,315.72 379.57,314.04 376.28,312.4 372.98,310.75 369.68,309.12 366.39,307.53 363.09,305.97 359.8,304.45 356.5,302.98 353.2,301.53 349.91,300.17 346.61,298.89 343.31,297.73 340.02,296.68 336.72,295.78 333.42,295.07 330.13,294.54 326.83,294.17 323.53,294.04 320.24,294.14 316.94,294.42 313.65,294.92 310.35,295.55 307.05,296.39 303.76,297.37 300.46,298.53 297.16,299.72 293.87,301.02 290.57,302.4 287.27,303.86 283.98,305.37 280.68,306.91 277.39,308.48 274.09,310.09 270.79,311.72 267.5,313.36 264.2,315.01 260.9,316.69 257.61,318.36 254.31,320.04 251.01,321.73 247.72,323.43 244.42,325.12 241.13,326.82 237.83,328.52 234.53,330.22 231.24,331.93 227.94,333.64 227.94,307.92 231.24,306.22 234.53,304.52 237.83,302.83 241.13,301.14 244.42,299.46 247.72,297.78 "
     style="fill:#ff9800;fill-opacity:0.5;stroke:none;stroke-width:0"
     clip-path="url(#cpMjE5LjcwfDQwMS4wMHw0NzIuNTF8MjUwLjE5)"
     id="polygon9549"
     transform="translate(22.77124,-3.815012)" />
  <polyline
     points="227.94,307.92 231.24,306.22 234.53,304.52 237.83,302.83 241.13,301.14 244.42,299.46 247.72,297.78 251.01,296.11 254.31,294.45 257.61,292.82 260.90,291.19 264.20,289.59 267.50,288.02 270.79,286.49 274.09,284.97 277.39,283.51 280.68,282.12 283.98,280.82 287.27,279.60 290.57,278.48 293.87,277.49 297.16,276.66 300.46,275.98 303.76,275.42 307.05,275.04 310.35,274.83 313.65,274.77 316.94,274.89 320.24,275.12 323.53,275.48 326.83,275.93 330.13,276.53 333.42,277.22 336.72,278.01 340.02,278.90 343.31,279.88 346.61,281.02 349.91,282.21 353.20,283.51 356.50,284.87 359.80,286.30 363.09,287.78 366.39,289.31 369.68,290.88 372.98,292.46 376.28,294.07 379.57,295.69 382.87,297.33 386.17,298.99 389.46,300.66 392.76,302.34 "
     style="stroke:#ff9800;stroke-width:1.07"
     clip-path="url(#cpMjE5LjcwfDQwMS4wMHw0NzIuNTF8MjUwLjE5)"
     id="polyline9551"
     transform="translate(22.77124,-3.815012)" />
  <polyline
     points="392.76,320.76 389.46,319.07 386.17,317.39 382.87,315.72 379.57,314.04 376.28,312.40 372.98,310.75 369.68,309.12 366.39,307.53 363.09,305.97 359.80,304.45 356.50,302.98 353.20,301.53 349.91,300.17 346.61,298.89 343.31,297.73 340.02,296.68 336.72,295.78 333.42,295.07 330.13,294.54 326.83,294.17 323.53,294.04 320.24,294.14 316.94,294.42 313.65,294.92 310.35,295.55 307.05,296.39 303.76,297.37 300.46,298.53 297.16,299.72 293.87,301.02 290.57,302.40 287.27,303.86 283.98,305.37 280.68,306.91 277.39,308.48 274.09,310.09 270.79,311.72 267.50,313.36 264.20,315.01 260.90,316.69 257.61,318.36 254.31,320.04 251.01,321.73 247.72,323.43 244.42,325.12 241.13,326.82 237.83,328.52 234.53,330.22 231.24,331.93 227.94,333.64 "
     style="stroke:#ff9800;stroke-width:1.07"
     clip-path="url(#cpMjE5LjcwfDQwMS4wMHw0NzIuNTF8MjUwLjE5)"
     id="polyline9553"
     transform="translate(22.77124,-3.815012)" />
  <polygon
     points="251.01,312.78 254.31,310.27 257.61,307.77 260.9,305.3 264.2,302.85 267.5,300.42 270.79,298.03 274.09,295.68 277.39,293.38 280.68,291.16 283.98,289.01 287.27,286.94 290.57,284.98 293.87,283.17 297.16,281.49 300.46,279.95 303.76,278.62 307.05,277.45 310.35,276.5 313.65,275.74 316.94,275.15 320.24,274.71 323.53,274.42 326.83,274.29 330.13,274.25 333.42,274.35 336.72,274.52 340.02,274.81 343.31,275.15 346.61,275.58 349.91,276.05 353.2,276.6 356.5,277.19 359.8,277.82 363.09,278.51 366.39,279.21 369.68,279.94 372.98,280.71 376.28,281.49 379.57,282.28 382.87,283.09 386.17,283.9 389.46,284.73 392.76,285.55 392.76,303.48 389.46,302.66 386.17,301.84 382.87,301.03 379.57,300.23 376.28,299.44 372.98,298.66 369.68,297.92 366.39,297.2 363.09,296.51 359.8,295.89 356.5,295.29 353.2,294.76 349.91,294.3 346.61,293.95 343.31,293.69 340.02,293.57 336.72,293.61 333.42,293.81 330.13,294.19 326.83,294.79 323.53,295.55 320.24,296.57 316.94,297.76 313.65,299.14 310.35,300.69 307.05,302.41 303.76,304.26 300.46,306.26 297.16,308.36 293.87,310.54 290.57,312.78 287.27,315.08 283.98,317.45 280.68,319.84 277.39,322.27 274.09,324.73 270.79,327.22 267.5,329.72 264.2,332.23 260.9,334.75 257.61,337.28 254.31,339.82 251.01,342.36 247.72,344.91 244.42,347.46 241.13,350.01 237.83,352.57 234.53,355.13 231.24,357.69 227.94,360.26 227.94,330.56 231.24,328.01 234.53,325.46 237.83,322.91 241.13,320.37 244.42,317.83 247.72,315.3 "
     style="fill:#f57c00;fill-opacity:0.5;stroke:none;stroke-width:0"
     clip-path="url(#cpMjE5LjcwfDQwMS4wMHw0NzIuNTF8MjUwLjE5)"
     id="polygon9555"
     transform="translate(22.77124,-3.815012)" />
  <polyline
     points="227.94,330.56 231.24,328.01 234.53,325.46 237.83,322.91 241.13,320.37 244.42,317.83 247.72,315.30 251.01,312.78 254.31,310.27 257.61,307.77 260.90,305.30 264.20,302.85 267.50,300.42 270.79,298.03 274.09,295.68 277.39,293.38 280.68,291.16 283.98,289.01 287.27,286.94 290.57,284.98 293.87,283.17 297.16,281.49 300.46,279.95 303.76,278.62 307.05,277.45 310.35,276.50 313.65,275.74 316.94,275.15 320.24,274.71 323.53,274.42 326.83,274.29 330.13,274.25 333.42,274.35 336.72,274.52 340.02,274.81 343.31,275.15 346.61,275.58 349.91,276.05 353.20,276.60 356.50,277.19 359.80,277.82 363.09,278.51 366.39,279.21 369.68,279.94 372.98,280.71 376.28,281.49 379.57,282.28 382.87,283.09 386.17,283.90 389.46,284.73 392.76,285.55 "
     style="stroke:#f57c00;stroke-width:1.07"
     clip-path="url(#cpMjE5LjcwfDQwMS4wMHw0NzIuNTF8MjUwLjE5)"
     id="polyline9557"
     transform="translate(22.77124,-3.815012)" />
  <polyline
     points="392.76,303.48 389.46,302.66 386.17,301.84 382.87,301.03 379.57,300.23 376.28,299.44 372.98,298.66 369.68,297.92 366.39,297.20 363.09,296.51 359.80,295.89 356.50,295.29 353.20,294.76 349.91,294.30 346.61,293.95 343.31,293.69 340.02,293.57 336.72,293.61 333.42,293.81 330.13,294.19 326.83,294.79 323.53,295.55 320.24,296.57 316.94,297.76 313.65,299.14 310.35,300.69 307.05,302.41 303.76,304.26 300.46,306.26 297.16,308.36 293.87,310.54 290.57,312.78 287.27,315.08 283.98,317.45 280.68,319.84 277.39,322.27 274.09,324.73 270.79,327.22 267.50,329.72 264.20,332.23 260.90,334.75 257.61,337.28 254.31,339.82 251.01,342.36 247.72,344.91 244.42,347.46 241.13,350.01 237.83,352.57 234.53,355.13 231.24,357.69 227.94,360.26 "
     style="stroke:#f57c00;stroke-width:1.07"
     clip-path="url(#cpMjE5LjcwfDQwMS4wMHw0NzIuNTF8MjUwLjE5)"
     id="polyline9559"
     transform="translate(22.77124,-3.815012)" />
  <polygon
     points="251.01,333 254.31,329.65 257.61,326.3 260.9,322.97 264.2,319.67 267.5,316.39 270.79,313.13 274.09,309.91 277.39,306.77 280.68,303.68 283.98,300.68 287.27,297.81 290.57,295 293.87,292.32 297.16,289.83 300.46,287.48 303.76,285.32 307.05,283.34 310.35,281.55 313.65,279.92 316.94,278.54 320.24,277.31 323.53,276.28 326.83,275.38 330.13,274.6 333.42,273.98 336.72,273.43 340.02,272.97 343.31,272.58 346.61,272.27 349.91,272 353.2,271.79 356.5,271.61 359.8,271.47 363.09,271.36 366.39,271.25 369.68,271.17 372.98,271.1 376.28,271.06 379.57,271.02 382.87,270.98 386.17,270.96 389.46,270.95 392.76,270.93 392.76,290.4 389.46,290.43 386.17,290.47 382.87,290.53 379.57,290.59 376.28,290.66 372.98,290.75 369.68,290.86 366.39,291.03 363.09,291.22 359.8,291.46 356.5,291.74 353.2,292.07 349.91,292.49 346.61,293.03 343.31,293.7 340.02,294.45 336.72,295.39 333.42,296.52 330.13,297.78 326.83,299.24 323.53,300.91 320.24,302.79 316.94,304.89 313.65,307.14 310.35,309.56 307.05,312.16 303.76,314.88 300.46,317.74 297.16,320.69 293.87,323.7 290.57,326.81 287.27,329.97 283.98,333.2 280.68,336.47 277.39,339.74 274.09,343.06 270.79,346.4 267.5,349.76 264.2,353.12 260.9,356.5 257.61,359.89 254.31,363.29 251.01,366.69 247.72,370.09 244.42,373.5 241.13,376.91 237.83,380.32 234.53,383.73 231.24,387.15 227.94,390.57 227.94,356.77 231.24,353.36 234.53,349.96 237.83,346.55 241.13,343.15 244.42,339.76 247.72,336.38 "
     style="fill:#e65100;fill-opacity:0.5;stroke:none;stroke-width:0"
     clip-path="url(#cpMjE5LjcwfDQwMS4wMHw0NzIuNTF8MjUwLjE5)"
     id="polygon9561"
     transform="translate(22.77124,-3.815012)" />
  <polyline
     points="227.94,356.77 231.24,353.36 234.53,349.96 237.83,346.55 241.13,343.15 244.42,339.76 247.72,336.38 251.01,333.00 254.31,329.65 257.61,326.30 260.90,322.97 264.20,319.67 267.50,316.39 270.79,313.13 274.09,309.91 277.39,306.77 280.68,303.68 283.98,300.68 287.27,297.81 290.57,295.00 293.87,292.32 297.16,289.83 300.46,287.48 303.76,285.32 307.05,283.34 310.35,281.55 313.65,279.92 316.94,278.54 320.24,277.31 323.53,276.28 326.83,275.38 330.13,274.60 333.42,273.98 336.72,273.43 340.02,272.97 343.31,272.58 346.61,272.27 349.91,272.00 353.20,271.79 356.50,271.61 359.80,271.47 363.09,271.36 366.39,271.25 369.68,271.17 372.98,271.10 376.28,271.06 379.57,271.02 382.87,270.98 386.17,270.96 389.46,270.95 392.76,270.93 "
     style="stroke:#e65100;stroke-width:1.07"
     clip-path="url(#cpMjE5LjcwfDQwMS4wMHw0NzIuNTF8MjUwLjE5)"
     id="polyline9563"
     transform="translate(22.77124,-3.815012)" />
  <polyline
     points="392.76,290.40 389.46,290.43 386.17,290.47 382.87,290.53 379.57,290.59 376.28,290.66 372.98,290.75 369.68,290.86 366.39,291.03 363.09,291.22 359.80,291.46 356.50,291.74 353.20,292.07 349.91,292.49 346.61,293.03 343.31,293.70 340.02,294.45 336.72,295.39 333.42,296.52 330.13,297.78 326.83,299.24 323.53,300.91 320.24,302.79 316.94,304.89 313.65,307.14 310.35,309.56 307.05,312.16 303.76,314.88 300.46,317.74 297.16,320.69 293.87,323.70 290.57,326.81 287.27,329.97 283.98,333.20 280.68,336.47 277.39,339.74 274.09,343.06 270.79,346.40 267.50,349.76 264.20,353.12 260.90,356.50 257.61,359.89 254.31,363.29 251.01,366.69 247.72,370.09 244.42,373.50 241.13,376.91 237.83,380.32 234.53,383.73 231.24,387.15 227.94,390.57 "
     style="stroke:#e65100;stroke-width:1.07"
     clip-path="url(#cpMjE5LjcwfDQwMS4wMHw0NzIuNTF8MjUwLjE5)"
     id="polyline9565"
     transform="translate(22.77124,-3.815012)" />
</svg>
