<?xml version="1.0" encoding="UTF-8" standalone="no"?>
<svg
   xmlns:dc="http://purl.org/dc/elements/1.1/"
   xmlns:cc="http://creativecommons.org/ns#"
   xmlns:rdf="http://www.w3.org/1999/02/22-rdf-syntax-ns#"
   xmlns:svg="http://www.w3.org/2000/svg"
   xmlns="http://www.w3.org/2000/svg"
   xmlns:sodipodi="http://sodipodi.sourceforge.net/DTD/sodipodi-0.dtd"
   xmlns:inkscape="http://www.inkscape.org/namespaces/inkscape"
   viewBox="0 0 567.79266 511.17838"
   version="1.1"
   id="svg3667"
   sodipodi:docname="weighted_states.svg"
   width="567.79266"
   height="511.17838"
   inkscape:version="1.0.1 (3bc2e813f5, 2020-09-07, custom)">
  <metadata
     id="metadata3671">
    <rdf:RDF>
      <cc:Work
         rdf:about="">
        <dc:format>image/svg+xml</dc:format>
        <dc:type
           rdf:resource="http://purl.org/dc/dcmitype/StillImage" />
        <dc:title />
      </cc:Work>
    </rdf:RDF>
  </metadata>
  <sodipodi:namedview
     pagecolor="#ffffff"
     bordercolor="#666666"
     borderopacity="1"
     objecttolerance="10"
     gridtolerance="10"
     guidetolerance="10"
     inkscape:pageopacity="0"
     inkscape:pageshadow="2"
     inkscape:window-width="1366"
     inkscape:window-height="768"
     id="namedview3669"
     showgrid="false"
     inkscape:zoom="0.8263609"
     inkscape:cx="218.78856"
     inkscape:cy="324.11933"
     inkscape:window-x="0"
     inkscape:window-y="0"
     inkscape:window-maximized="1"
     inkscape:current-layer="svg3667"
     inkscape:document-rotation="0" />
  <defs
     id="defs3156">
    <style
       type="text/css"
       id="style3154"><![CDATA[
    line, polyline, polygon, path, rect, circle {
      fill: none;
      stroke: #000000;
      stroke-linecap: round;
      stroke-linejoin: round;
      stroke-miterlimit: 10.00;
    }
  ]]></style>
    <style
       type="text/css"
       id="style4194"><![CDATA[
    line, polyline, polygon, path, rect, circle {
      fill: none;
      stroke: #000000;
      stroke-linecap: round;
      stroke-linejoin: round;
      stroke-miterlimit: 10.00;
    }
  ]]></style>
    <clipPath
       id="clipPath4341">
      <rect
         x="0"
         y="0"
         width="504"
         height="504"
         id="rect4339" />
    </clipPath>
    <clipPath
       id="clipPath4414">
      <rect
         x="0"
         y="0"
         width="504"
         height="504"
         id="rect4412" />
    </clipPath>
    <clipPath
       id="clipPath4485">
      <rect
         x="0"
         y="0"
         width="504"
         height="504"
         id="rect4483" />
    </clipPath>
    <clipPath
       id="clipPath4502">
      <rect
         x="0"
         y="0"
         width="504"
         height="504"
         id="rect4500" />
    </clipPath>
    <clipPath
       id="clipPath4519">
      <rect
         x="0"
         y="0"
         width="504"
         height="504"
         id="rect4517" />
    </clipPath>
    <clipPath
       id="clipPath4536">
      <rect
         x="0"
         y="0"
         width="504"
         height="504"
         id="rect4534" />
    </clipPath>
    <clipPath
       id="clipPath4553">
      <rect
         x="0"
         y="0"
         width="504"
         height="504"
         id="rect4551" />
    </clipPath>
    <style
       type="text/css"
       id="style13087"><![CDATA[
    line, polyline, polygon, path, rect, circle {
      fill: none;
      stroke: #000000;
      stroke-linecap: round;
      stroke-linejoin: round;
      stroke-miterlimit: 10.00;
    }
  ]]></style>
    <clipPath
       id="cpMjcuNTR8MjExLjUzfDI0NC43MXwyMi40MA==">
      <rect
         x="27.54"
         y="22.40"
         width="183.99"
         height="222.32"
         id="rect13095" />
    </clipPath>
    <clipPath
       id="cpMC4wMHw1MDQuMDB8NTA0LjAwfDAuMDA=">
      <rect
         x="0.00"
         y="0.00"
         width="504.00"
         height="504.00"
         id="rect13162" />
    </clipPath>
    <clipPath
       id="cpMjcuNTR8MjExLjUzfDQ3Mi41MXwyNTAuMTk=">
      <rect
         x="27.54"
         y="250.19"
         width="183.99"
         height="222.32"
         id="rect13167" />
    </clipPath>
    <clipPath
       id="clipPath13236">
      <rect
         x="0.00"
         y="0.00"
         width="504.00"
         height="504.00"
         id="rect13234" />
    </clipPath>
    <clipPath
       id="cpMjE3LjAxfDQwMS4wMHwyNDQuNzF8MjIuNDA=">
      <rect
         x="217.01"
         y="22.40"
         width="183.99"
         height="222.32"
         id="rect13240" />
    </clipPath>
    <clipPath
       id="clipPath13309">
      <rect
         x="0.00"
         y="0.00"
         width="504.00"
         height="504.00"
         id="rect13307" />
    </clipPath>
    <clipPath
       id="cpMjE3LjAxfDQwMS4wMHw0NzIuNTF8MjUwLjE5">
      <rect
         x="217.01"
         y="250.19"
         width="183.99"
         height="222.32"
         id="rect13313" />
    </clipPath>
    <clipPath
       id="clipPath13382">
      <rect
         x="0.00"
         y="0.00"
         width="504.00"
         height="504.00"
         id="rect13380" />
    </clipPath>
    <clipPath
       id="cpMjcuNTR8MjExLjUzfDIyLjQwfDUuNDg=">
      <rect
         x="27.54"
         y="5.48"
         width="183.99"
         height="16.92"
         id="rect13386" />
    </clipPath>
    <clipPath
       id="clipPath13399">
      <rect
         x="0.00"
         y="0.00"
         width="504.00"
         height="504.00"
         id="rect13397" />
    </clipPath>
    <clipPath
       id="cpMjE3LjAxfDQwMS4wMHwyMi40MHw1LjQ4">
      <rect
         x="217.01"
         y="5.48"
         width="183.99"
         height="16.92"
         id="rect13403" />
    </clipPath>
    <clipPath
       id="clipPath13416">
      <rect
         x="0.00"
         y="0.00"
         width="504.00"
         height="504.00"
         id="rect13414" />
    </clipPath>
    <clipPath
       id="cpNDAxLjAwfDQxNy45MnwyNDQuNzF8MjIuNDA=">
      <rect
         x="401.00"
         y="22.40"
         width="16.92"
         height="222.32"
         id="rect13420" />
    </clipPath>
    <clipPath
       id="clipPath13433">
      <rect
         x="0.00"
         y="0.00"
         width="504.00"
         height="504.00"
         id="rect13431" />
    </clipPath>
    <clipPath
       id="cpNDAxLjAwfDQxNy45Mnw0NzIuNTF8MjUwLjE5">
      <rect
         x="401.00"
         y="250.19"
         width="16.92"
         height="222.32"
         id="rect13437" />
    </clipPath>
    <clipPath
       id="clipPath13450">
      <rect
         x="0.00"
         y="0.00"
         width="504.00"
         height="504.00"
         id="rect13448" />
    </clipPath>
  </defs>
  <defs
     id="defs3165" />
  <defs
     id="defs3232" />
  <defs
     id="defs3237" />
  <defs
     id="defs3305">
    <clipPath
       id="clipPath3303">
      <rect
         x="0"
         y="0"
         width="504"
         height="504"
         id="rect3301" />
    </clipPath>
  </defs>
  <defs
     id="defs3310" />
  <defs
     id="defs3378">
    <clipPath
       id="clipPath3376">
      <rect
         x="0"
         y="0"
         width="504"
         height="504"
         id="rect3374" />
    </clipPath>
  </defs>
  <defs
     id="defs3383" />
  <rect
     x="44.470718"
     y="18.584915"
     width="183.99001"
     height="222.32001"
     style="fill:#efebe9;stroke:none;stroke-width:1.07"
     clip-path="none"
     id="rect3167" />
  <polyline
     points="27.54,234.61 211.53,234.61 "
     style="stroke:#ffffff;stroke-width:1.07;stroke-linecap:butt"
     clip-path="none"
     id="polyline3183"
     transform="translate(16.930719,-3.8150853)" />
  <polyline
     points="27.54,183.54 211.53,183.54 "
     style="stroke:#ffffff;stroke-width:1.07;stroke-linecap:butt"
     clip-path="none"
     id="polyline3185"
     transform="translate(16.930719,-3.8150853)" />
  <polyline
     points="27.54,132.47 211.53,132.47 "
     style="stroke:#ffffff;stroke-width:1.07;stroke-linecap:butt"
     clip-path="none"
     id="polyline3187"
     transform="translate(16.930719,-3.8150853)" />
  <polyline
     points="27.54,81.40 211.53,81.40 "
     style="stroke:#ffffff;stroke-width:1.07;stroke-linecap:butt"
     clip-path="none"
     id="polyline3189"
     transform="translate(16.930719,-3.8150853)" />
  <polyline
     points="27.54,30.34 211.53,30.34 "
     style="stroke:#ffffff;stroke-width:1.07;stroke-linecap:butt"
     clip-path="none"
     id="polyline3191"
     transform="translate(16.930719,-3.8150853)" />
  <polyline
     points="69.35,244.71 69.35,22.40 "
     style="stroke:#ffffff;stroke-width:1.07;stroke-linecap:butt"
     clip-path="none"
     id="polyline3193"
     transform="translate(16.930719,-3.8150853)" />
  <polyline
     points="136.26,244.71 136.26,22.40 "
     style="stroke:#ffffff;stroke-width:1.07;stroke-linecap:butt"
     clip-path="none"
     id="polyline3195"
     transform="translate(16.930719,-3.8150853)" />
  <polyline
     points="203.17,244.71 203.17,22.40 "
     style="stroke:#ffffff;stroke-width:1.07;stroke-linecap:butt"
     clip-path="none"
     id="polyline3197"
     transform="translate(16.930719,-3.8150853)" />
  <polygon
     points="49.28,34.08 52.63,34.68 55.97,35.42 59.32,36.34 62.66,37.45 66.01,38.83 69.35,40.53 72.7,42.6 76.05,45.13 79.39,48.15 82.74,51.83 86.08,56.29 89.43,61.63 92.77,68 96.12,75.55 99.46,84.27 102.81,94.29 106.15,105.68 109.5,118.35 112.84,132.17 116.19,146.64 119.53,161.41 122.88,175.84 126.22,189.31 129.57,201.26 132.92,211.23 136.26,219.04 139.61,224.79 142.95,228.74 146.3,231.28 149.64,232.81 152.99,233.68 156.33,234.15 159.68,234.39 163.02,234.51 166.37,234.56 169.71,234.59 173.06,234.6 176.4,234.6 179.75,234.61 183.09,234.61 186.44,234.61 189.78,234.61 193.13,234.61 196.48,234.61 199.82,234.61 203.17,234.61 203.17,234.61 199.82,234.61 196.48,234.61 193.13,234.61 189.78,234.61 186.44,234.61 183.09,234.61 179.75,234.61 176.4,234.61 173.06,234.61 169.71,234.61 166.37,234.6 163.02,234.6 159.68,234.59 156.33,234.56 152.99,234.5 149.64,234.38 146.3,234.13 142.95,233.65 139.61,232.77 136.26,231.21 132.92,228.63 129.57,224.63 126.22,218.81 122.88,210.93 119.53,200.89 116.19,189.04 112.84,175.72 109.5,161.89 106.15,148.08 102.81,135.22 99.46,123.63 96.12,113.47 92.77,104.92 89.43,97.88 86.08,92.43 82.74,88.09 79.39,84.56 76.05,81.91 72.7,79.82 69.35,78.14 66.01,76.76 62.66,75.7 59.32,74.87 55.97,74.22 52.63,73.68 49.28,73.26 45.94,72.93 42.59,72.67 39.25,72.44 35.9,72.26 35.9,32.65 39.25,32.9 42.59,33.21 45.94,33.6 "
     style="fill:#1e88e5;fill-opacity:0.5;stroke:none;stroke-width:0"
     clip-path="none"
     id="polygon3199"
     transform="translate(16.930719,-3.8150853)" />
  <polyline
     points="35.90,32.65 39.25,32.90 42.59,33.21 45.94,33.60 49.28,34.08 52.63,34.68 55.97,35.42 59.32,36.34 62.66,37.45 66.01,38.83 69.35,40.53 72.70,42.60 76.05,45.13 79.39,48.15 82.74,51.83 86.08,56.29 89.43,61.63 92.77,68.00 96.12,75.55 99.46,84.27 102.81,94.29 106.15,105.68 109.50,118.35 112.84,132.17 116.19,146.64 119.53,161.41 122.88,175.84 126.22,189.31 129.57,201.26 132.92,211.23 136.26,219.04 139.61,224.79 142.95,228.74 146.30,231.28 149.64,232.81 152.99,233.68 156.33,234.15 159.68,234.39 163.02,234.51 166.37,234.56 169.71,234.59 173.06,234.60 176.40,234.60 179.75,234.61 183.09,234.61 186.44,234.61 189.78,234.61 193.13,234.61 196.48,234.61 199.82,234.61 203.17,234.61 "
     style="stroke:#1e88e5;stroke-width:1.07"
     clip-path="none"
     id="polyline3201"
     transform="translate(16.930719,-3.8150853)" />
  <polyline
     points="203.17,234.61 199.82,234.61 196.48,234.61 193.13,234.61 189.78,234.61 186.44,234.61 183.09,234.61 179.75,234.61 176.40,234.61 173.06,234.61 169.71,234.61 166.37,234.60 163.02,234.60 159.68,234.59 156.33,234.56 152.99,234.50 149.64,234.38 146.30,234.13 142.95,233.65 139.61,232.77 136.26,231.21 132.92,228.63 129.57,224.63 126.22,218.81 122.88,210.93 119.53,200.89 116.19,189.04 112.84,175.72 109.50,161.89 106.15,148.08 102.81,135.22 99.46,123.63 96.12,113.47 92.77,104.92 89.43,97.88 86.08,92.43 82.74,88.09 79.39,84.56 76.05,81.91 72.70,79.82 69.35,78.14 66.01,76.76 62.66,75.70 59.32,74.87 55.97,74.22 52.63,73.68 49.28,73.26 45.94,72.93 42.59,72.67 39.25,72.44 35.90,72.26 "
     style="stroke:#1e88e5;stroke-width:1.07"
     clip-path="none"
     id="polyline3203"
     transform="translate(16.930719,-3.8150853)" />
  <polygon
     points="49.28,231.21 52.63,230.35 55.97,229.28 59.32,227.95 62.66,226.29 66.01,224.25 69.35,221.75 72.7,218.7 76.05,215 79.39,210.58 82.74,205.37 86.08,199.32 89.43,192.46 92.77,184.89 96.12,176.88 99.46,168.8 102.81,161.3 106.15,155.04 109.5,150.98 112.84,149.33 116.19,148.85 119.53,148.84 122.88,149.61 126.22,152.6 129.57,158.74 132.92,167.68 136.26,178.55 139.61,190.09 142.95,201.1 146.3,210.66 149.64,218.31 152.99,224 156.33,227.99 159.68,230.62 163.02,232.28 166.37,233.29 169.71,233.87 173.06,234.21 176.4,234.39 179.75,234.5 183.09,234.55 186.44,234.58 189.78,234.59 193.13,234.6 196.48,234.6 199.82,234.61 203.17,234.61 203.17,234.61 199.82,234.61 196.48,234.61 193.13,234.61 189.78,234.61 186.44,234.6 183.09,234.6 179.75,234.59 176.4,234.58 173.06,234.55 169.71,234.49 166.37,234.39 163.02,234.2 159.68,233.86 156.33,233.26 152.99,232.23 149.64,230.54 146.3,227.87 142.95,223.83 139.61,218.07 136.26,210.35 132.92,200.74 129.57,189.69 126.22,178.18 122.88,167.51 119.53,159.46 116.19,158.16 112.84,163.23 109.5,170.37 106.15,178.26 102.81,186.12 99.46,193.53 96.12,200.24 92.77,206.16 89.43,211.25 86.08,215.55 82.74,219.15 79.39,222.12 76.05,224.55 72.7,226.54 69.35,228.14 66.01,229.44 62.66,230.48 59.32,231.31 55.97,231.98 52.63,232.52 49.28,232.94 45.94,233.28 42.59,233.56 39.25,233.77 35.9,233.94 35.9,233.24 39.25,232.89 42.59,232.45 45.94,231.9 "
     style="fill:#ffb74d;fill-opacity:0.5;stroke:none;stroke-width:0"
     clip-path="none"
     id="polygon3205"
     transform="translate(16.930719,-3.8150853)" />
  <polyline
     points="35.90,233.24 39.25,232.89 42.59,232.45 45.94,231.90 49.28,231.21 52.63,230.35 55.97,229.28 59.32,227.95 62.66,226.29 66.01,224.25 69.35,221.75 72.70,218.70 76.05,215.00 79.39,210.58 82.74,205.37 86.08,199.32 89.43,192.46 92.77,184.89 96.12,176.88 99.46,168.80 102.81,161.30 106.15,155.04 109.50,150.98 112.84,149.33 116.19,148.85 119.53,148.84 122.88,149.61 126.22,152.60 129.57,158.74 132.92,167.68 136.26,178.55 139.61,190.09 142.95,201.10 146.30,210.66 149.64,218.31 152.99,224.00 156.33,227.99 159.68,230.62 163.02,232.28 166.37,233.29 169.71,233.87 173.06,234.21 176.40,234.39 179.75,234.50 183.09,234.55 186.44,234.58 189.78,234.59 193.13,234.60 196.48,234.60 199.82,234.61 203.17,234.61 "
     style="stroke:#ffb74d;stroke-width:1.07"
     clip-path="none"
     id="polyline3207"
     transform="translate(16.930719,-3.8150853)" />
  <polyline
     points="203.17,234.61 199.82,234.61 196.48,234.61 193.13,234.61 189.78,234.61 186.44,234.60 183.09,234.60 179.75,234.59 176.40,234.58 173.06,234.55 169.71,234.49 166.37,234.39 163.02,234.20 159.68,233.86 156.33,233.26 152.99,232.23 149.64,230.54 146.30,227.87 142.95,223.83 139.61,218.07 136.26,210.35 132.92,200.74 129.57,189.69 126.22,178.18 122.88,167.51 119.53,159.46 116.19,158.16 112.84,163.23 109.50,170.37 106.15,178.26 102.81,186.12 99.46,193.53 96.12,200.24 92.77,206.16 89.43,211.25 86.08,215.55 82.74,219.15 79.39,222.12 76.05,224.55 72.70,226.54 69.35,228.14 66.01,229.44 62.66,230.48 59.32,231.31 55.97,231.98 52.63,232.52 49.28,232.94 45.94,233.28 42.59,233.56 39.25,233.77 35.90,233.94 "
     style="stroke:#ffb74d;stroke-width:1.07"
     clip-path="none"
     id="polyline3209"
     transform="translate(16.930719,-3.8150853)" />
  <polygon
     points="49.28,234.59 52.63,234.57 55.97,234.55 59.32,234.52 62.66,234.47 66.01,234.39 69.35,234.27 72.7,234.08 76.05,233.78 79.39,233.34 82.74,232.66 86.08,231.65 89.43,230.16 92.77,228 96.12,224.94 99.46,220.73 102.81,215.14 106.15,208.03 109.5,199.41 112.84,189.7 116.19,179.61 119.53,170.29 122.88,163.01 126.22,159.11 129.57,158.24 132.92,158.12 136.26,158.15 139.61,158.92 142.95,162.85 146.3,170.03 149.64,179.28 152.99,189.3 156.33,198.99 159.68,207.6 163.02,214.77 166.37,220.42 169.71,224.7 173.06,227.81 176.4,230.02 179.75,231.55 183.09,232.59 186.44,233.29 189.78,233.75 193.13,234.06 196.48,234.25 199.82,234.38 203.17,234.46 203.17,234.57 199.82,234.55 196.48,234.51 193.13,234.46 189.78,234.38 186.44,234.25 183.09,234.05 179.75,233.74 176.4,233.27 173.06,232.56 169.71,231.51 166.37,229.95 163.02,227.72 159.68,224.56 156.33,220.24 152.99,214.53 149.64,207.31 146.3,198.65 142.95,188.94 139.61,178.93 136.26,169.75 132.92,164.55 129.57,170.16 126.22,179.33 122.88,189.42 119.53,199.17 116.19,207.81 112.84,214.99 109.5,220.63 106.15,224.87 102.81,227.95 99.46,230.13 96.12,231.63 92.77,232.65 89.43,233.33 86.08,233.78 82.74,234.08 79.39,234.27 76.05,234.39 72.7,234.47 69.35,234.52 66.01,234.55 62.66,234.57 59.32,234.59 55.97,234.59 52.63,234.6 49.28,234.6 45.94,234.6 42.59,234.61 39.25,234.61 35.9,234.61 35.9,234.6 39.25,234.6 42.59,234.6 45.94,234.59 "
     style="fill:#ff9800;fill-opacity:0.5;stroke:none;stroke-width:0"
     clip-path="none"
     id="polygon3211"
     transform="translate(16.930719,-3.8150853)" />
  <polyline
     points="35.90,234.60 39.25,234.60 42.59,234.60 45.94,234.59 49.28,234.59 52.63,234.57 55.97,234.55 59.32,234.52 62.66,234.47 66.01,234.39 69.35,234.27 72.70,234.08 76.05,233.78 79.39,233.34 82.74,232.66 86.08,231.65 89.43,230.16 92.77,228.00 96.12,224.94 99.46,220.73 102.81,215.14 106.15,208.03 109.50,199.41 112.84,189.70 116.19,179.61 119.53,170.29 122.88,163.01 126.22,159.11 129.57,158.24 132.92,158.12 136.26,158.15 139.61,158.92 142.95,162.85 146.30,170.03 149.64,179.28 152.99,189.30 156.33,198.99 159.68,207.60 163.02,214.77 166.37,220.42 169.71,224.70 173.06,227.81 176.40,230.02 179.75,231.55 183.09,232.59 186.44,233.29 189.78,233.75 193.13,234.06 196.48,234.25 199.82,234.38 203.17,234.46 "
     style="stroke:#ff9800;stroke-width:1.07"
     clip-path="none"
     id="polyline3213"
     transform="translate(16.930719,-3.8150853)" />
  <polyline
     points="203.17,234.57 199.82,234.55 196.48,234.51 193.13,234.46 189.78,234.38 186.44,234.25 183.09,234.05 179.75,233.74 176.40,233.27 173.06,232.56 169.71,231.51 166.37,229.95 163.02,227.72 159.68,224.56 156.33,220.24 152.99,214.53 149.64,207.31 146.30,198.65 142.95,188.94 139.61,178.93 136.26,169.75 132.92,164.55 129.57,170.16 126.22,179.33 122.88,189.42 119.53,199.17 116.19,207.81 112.84,214.99 109.50,220.63 106.15,224.87 102.81,227.95 99.46,230.13 96.12,231.63 92.77,232.65 89.43,233.33 86.08,233.78 82.74,234.08 79.39,234.27 76.05,234.39 72.70,234.47 69.35,234.52 66.01,234.55 62.66,234.57 59.32,234.59 55.97,234.59 52.63,234.60 49.28,234.60 45.94,234.60 42.59,234.61 39.25,234.61 35.90,234.61 "
     style="stroke:#ff9800;stroke-width:1.07"
     clip-path="none"
     id="polyline3215"
     transform="translate(16.930719,-3.8150853)" />
  <polygon
     points="49.28,234.61 52.63,234.61 55.97,234.61 59.32,234.61 62.66,234.61 66.01,234.61 69.35,234.6 72.7,234.6 76.05,234.59 79.39,234.58 82.74,234.55 86.08,234.5 89.43,234.4 92.77,234.21 96.12,233.88 99.46,233.3 102.81,232.3 106.15,230.64 109.5,227.99 112.84,223.97 116.19,218.21 119.53,210.46 122.88,200.78 126.22,189.61 129.57,177.85 132.92,166.73 136.26,157.54 139.61,151.35 142.95,148.75 146.3,148.46 149.64,148.45 152.99,148.47 156.33,149.45 159.68,153.33 163.02,159.44 166.37,166.94 169.71,175.08 173.06,183.22 176.4,190.95 179.75,198 183.09,204.23 186.44,209.62 189.78,214.2 193.13,218.03 196.48,221.2 199.82,223.81 203.17,225.93 203.17,230.13 199.82,229 196.48,227.6 193.13,225.86 189.78,223.72 186.44,221.1 183.09,217.9 179.75,214.04 176.4,209.44 173.06,204.02 169.71,197.76 166.37,190.68 163.02,182.93 159.68,174.77 156.33,166.65 152.99,159.19 149.64,153.65 146.3,157.38 142.95,166.34 139.61,177.39 136.26,189.13 132.92,200.35 129.57,210.13 126.22,217.95 122.88,223.78 119.53,227.86 116.19,230.55 112.84,232.25 109.5,233.27 106.15,233.87 102.81,234.21 99.46,234.39 96.12,234.49 92.77,234.55 89.43,234.58 86.08,234.59 82.74,234.6 79.39,234.6 76.05,234.61 72.7,234.61 69.35,234.61 66.01,234.61 62.66,234.61 59.32,234.61 55.97,234.61 52.63,234.61 49.28,234.61 45.94,234.61 42.59,234.61 39.25,234.61 35.9,234.61 39.25,234.61 42.59,234.61 45.94,234.61 "
     style="fill:#f57c00;fill-opacity:0.5;stroke:none;stroke-width:0"
     clip-path="none"
     id="polygon3217"
     transform="translate(16.930719,-3.8150853)" />
  <polyline
     points="35.90,234.61 39.25,234.61 42.59,234.61 45.94,234.61 49.28,234.61 52.63,234.61 55.97,234.61 59.32,234.61 62.66,234.61 66.01,234.61 69.35,234.60 72.70,234.60 76.05,234.59 79.39,234.58 82.74,234.55 86.08,234.50 89.43,234.40 92.77,234.21 96.12,233.88 99.46,233.30 102.81,232.30 106.15,230.64 109.50,227.99 112.84,223.97 116.19,218.21 119.53,210.46 122.88,200.78 126.22,189.61 129.57,177.85 132.92,166.73 136.26,157.54 139.61,151.35 142.95,148.75 146.30,148.46 149.64,148.45 152.99,148.47 156.33,149.45 159.68,153.33 163.02,159.44 166.37,166.94 169.71,175.08 173.06,183.22 176.40,190.95 179.75,198.00 183.09,204.23 186.44,209.62 189.78,214.20 193.13,218.03 196.48,221.20 199.82,223.81 203.17,225.93 "
     style="stroke:#f57c00;stroke-width:1.07"
     clip-path="none"
     id="polyline3219"
     transform="translate(16.930719,-3.8150853)" />
  <polyline
     points="203.17,230.13 199.82,229.00 196.48,227.60 193.13,225.86 189.78,223.72 186.44,221.10 183.09,217.90 179.75,214.04 176.40,209.44 173.06,204.02 169.71,197.76 166.37,190.68 163.02,182.93 159.68,174.77 156.33,166.65 152.99,159.19 149.64,153.65 146.30,157.38 142.95,166.34 139.61,177.39 136.26,189.13 132.92,200.35 129.57,210.13 126.22,217.95 122.88,223.78 119.53,227.86 116.19,230.55 112.84,232.25 109.50,233.27 106.15,233.87 102.81,234.21 99.46,234.39 96.12,234.49 92.77,234.55 89.43,234.58 86.08,234.59 82.74,234.60 79.39,234.60 76.05,234.61 72.70,234.61 69.35,234.61 66.01,234.61 62.66,234.61 59.32,234.61 55.97,234.61 52.63,234.61 49.28,234.61 45.94,234.61 42.59,234.61 39.25,234.61 35.90,234.61 "
     style="stroke:#f57c00;stroke-width:1.07"
     clip-path="none"
     id="polyline3221"
     transform="translate(16.930719,-3.8150853)" />
  <polygon
     points="49.28,234.61 52.63,234.61 55.97,234.61 59.32,234.61 62.66,234.61 66.01,234.61 69.35,234.61 72.7,234.61 76.05,234.61 79.39,234.61 82.74,234.61 86.08,234.61 89.43,234.6 92.77,234.6 96.12,234.59 99.46,234.56 102.81,234.51 106.15,234.39 109.5,234.14 112.84,233.66 116.19,232.78 119.53,231.21 122.88,228.61 126.22,224.56 129.57,218.64 132.92,210.57 136.26,200.26 139.61,187.86 142.95,173.85 146.3,158.8 149.64,143.42 152.99,128.33 156.33,114.06 159.68,100.99 163.02,89.32 166.37,79.14 169.71,70.41 173.06,63.03 176.4,56.87 179.75,51.78 183.09,47.61 186.44,44.21 189.78,41.46 193.13,39.23 196.48,37.44 199.82,36.01 203.17,34.86 203.17,39.16 199.82,41.37 196.48,44.1 193.13,47.47 189.78,51.62 186.44,56.67 183.09,62.78 179.75,70.11 176.4,78.8 173.06,88.93 169.71,100.54 166.37,113.57 163.02,127.8 159.68,142.87 156.33,158.26 152.99,173.33 149.64,187.4 146.3,199.85 142.95,210.25 139.61,218.4 136.26,224.38 132.92,228.49 129.57,231.13 126.22,232.73 122.88,233.64 119.53,234.13 116.19,234.38 112.84,234.5 109.5,234.56 106.15,234.59 102.81,234.6 99.46,234.6 96.12,234.61 92.77,234.61 89.43,234.61 86.08,234.61 82.74,234.61 79.39,234.61 76.05,234.61 72.7,234.61 69.35,234.61 66.01,234.61 62.66,234.61 59.32,234.61 55.97,234.61 52.63,234.61 49.28,234.61 45.94,234.61 42.59,234.61 39.25,234.61 35.9,234.61 39.25,234.61 42.59,234.61 45.94,234.61 "
     style="fill:#e65100;fill-opacity:0.5;stroke:none;stroke-width:0"
     clip-path="none"
     id="polygon3223"
     transform="translate(16.930719,-3.8150853)" />
  <polyline
     points="35.90,234.61 39.25,234.61 42.59,234.61 45.94,234.61 49.28,234.61 52.63,234.61 55.97,234.61 59.32,234.61 62.66,234.61 66.01,234.61 69.35,234.61 72.70,234.61 76.05,234.61 79.39,234.61 82.74,234.61 86.08,234.61 89.43,234.60 92.77,234.60 96.12,234.59 99.46,234.56 102.81,234.51 106.15,234.39 109.50,234.14 112.84,233.66 116.19,232.78 119.53,231.21 122.88,228.61 126.22,224.56 129.57,218.64 132.92,210.57 136.26,200.26 139.61,187.86 142.95,173.85 146.30,158.80 149.64,143.42 152.99,128.33 156.33,114.06 159.68,100.99 163.02,89.32 166.37,79.14 169.71,70.41 173.06,63.03 176.40,56.87 179.75,51.78 183.09,47.61 186.44,44.21 189.78,41.46 193.13,39.23 196.48,37.44 199.82,36.01 203.17,34.86 "
     style="stroke:#e65100;stroke-width:1.07"
     clip-path="none"
     id="polyline3225"
     transform="translate(16.930719,-3.8150853)" />
  <polyline
     points="203.17,39.16 199.82,41.37 196.48,44.10 193.13,47.47 189.78,51.62 186.44,56.67 183.09,62.78 179.75,70.11 176.40,78.80 173.06,88.93 169.71,100.54 166.37,113.57 163.02,127.80 159.68,142.87 156.33,158.26 152.99,173.33 149.64,187.40 146.30,199.85 142.95,210.25 139.61,218.40 136.26,224.38 132.92,228.49 129.57,231.13 126.22,232.73 122.88,233.64 119.53,234.13 116.19,234.38 112.84,234.50 109.50,234.56 106.15,234.59 102.81,234.60 99.46,234.60 96.12,234.61 92.77,234.61 89.43,234.61 86.08,234.61 82.74,234.61 79.39,234.61 76.05,234.61 72.70,234.61 69.35,234.61 66.01,234.61 62.66,234.61 59.32,234.61 55.97,234.61 52.63,234.61 49.28,234.61 45.94,234.61 42.59,234.61 39.25,234.61 35.90,234.61 "
     style="stroke:#e65100;stroke-width:1.07"
     clip-path="none"
     id="polyline3227"
     transform="translate(16.930719,-3.8150853)" />
  <rect
     x="44.470718"
     y="246.37492"
     width="183.99001"
     height="222.32001"
     style="fill:#efebe9;stroke:none;stroke-width:1.07"
     clip-path="none"
     id="rect3239" />
  <polyline
     points="27.54,462.40 211.53,462.40 "
     style="stroke:#ffffff;stroke-width:1.07;stroke-linecap:butt"
     clip-path="none"
     id="polyline3255"
     transform="translate(16.930719,-3.8150853)" />
  <polyline
     points="27.54,414.50 211.53,414.50 "
     style="stroke:#ffffff;stroke-width:1.07;stroke-linecap:butt"
     clip-path="none"
     id="polyline3257"
     transform="translate(16.930719,-3.8150853)" />
  <polyline
     points="27.54,366.60 211.53,366.60 "
     style="stroke:#ffffff;stroke-width:1.07;stroke-linecap:butt"
     clip-path="none"
     id="polyline3259"
     transform="translate(16.930719,-3.8150853)" />
  <polyline
     points="27.54,318.70 211.53,318.70 "
     style="stroke:#ffffff;stroke-width:1.07;stroke-linecap:butt"
     clip-path="none"
     id="polyline3261"
     transform="translate(16.930719,-3.8150853)" />
  <polyline
     points="27.54,270.80 211.53,270.80 "
     style="stroke:#ffffff;stroke-width:1.07;stroke-linecap:butt"
     clip-path="none"
     id="polyline3263"
     transform="translate(16.930719,-3.8150853)" />
  <polyline
     points="69.35,472.51 69.35,250.19 "
     style="stroke:#ffffff;stroke-width:1.07;stroke-linecap:butt"
     clip-path="none"
     id="polyline3265"
     transform="translate(16.930719,-3.8150853)" />
  <polyline
     points="136.26,472.51 136.26,250.19 "
     style="stroke:#ffffff;stroke-width:1.07;stroke-linecap:butt"
     clip-path="none"
     id="polyline3267"
     transform="translate(16.930719,-3.8150853)" />
  <polyline
     points="203.17,472.51 203.17,250.19 "
     style="stroke:#ffffff;stroke-width:1.07;stroke-linecap:butt"
     clip-path="none"
     id="polyline3269"
     transform="translate(16.930719,-3.8150853)" />
  <polygon
     points="49.28,270.7 52.63,271.22 55.97,271.94 59.32,272.75 62.66,273.68 66.01,274.86 69.35,276.3 72.7,278.14 76.05,280.43 79.39,283.67 82.74,287.34 86.08,291.63 89.43,297.21 92.77,303.45 96.12,311.15 99.46,320.24 102.81,330.68 106.15,342.81 109.5,356.01 112.84,370.27 116.19,384.91 119.53,399.51 122.88,413.24 126.22,425.81 129.57,436.52 132.92,444.94 136.26,451.25 139.61,455.62 142.95,458.49 146.3,460.25 149.64,461.28 152.99,461.83 156.33,462.13 159.68,462.27 163.02,462.34 166.37,462.38 169.71,462.39 173.06,462.4 176.4,462.4 179.75,462.4 183.09,462.4 186.44,462.4 189.78,462.4 193.13,462.4 196.48,462.4 199.82,462.4 203.17,462.4 203.17,462.4 199.82,462.4 196.48,462.4 193.13,462.4 189.78,462.4 186.44,462.4 183.09,462.4 179.75,462.4 176.4,462.4 173.06,462.4 169.71,462.4 166.37,462.4 163.02,462.4 159.68,462.4 156.33,462.4 152.99,462.4 149.64,462.39 146.3,462.37 142.95,462.33 139.61,462.27 136.26,462.18 132.92,462.03 129.57,461.82 126.22,461.54 122.88,461.18 119.53,460.77 116.19,460.32 112.84,459.84 109.5,459.37 106.15,458.91 102.81,458.48 99.46,458.1 96.12,457.77 92.77,457.47 89.43,457.23 86.08,457.03 82.74,456.86 79.39,456.72 76.05,456.6 72.7,456.51 69.35,456.44 66.01,456.38 62.66,456.33 59.32,456.29 55.97,456.27 52.63,456.25 49.28,456.23 45.94,456.21 42.59,456.2 39.25,456.19 35.9,456.18 35.9,269.39 39.25,269.58 42.59,269.81 45.94,270.2 "
     style="fill:#1e88e5;fill-opacity:0.5;stroke:none;stroke-width:0"
     clip-path="none"
     id="polygon3271"
     transform="translate(16.930719,-3.8150853)" />
  <polyline
     points="35.90,269.39 39.25,269.58 42.59,269.81 45.94,270.20 49.28,270.70 52.63,271.22 55.97,271.94 59.32,272.75 62.66,273.68 66.01,274.86 69.35,276.30 72.70,278.14 76.05,280.43 79.39,283.67 82.74,287.34 86.08,291.63 89.43,297.21 92.77,303.45 96.12,311.15 99.46,320.24 102.81,330.68 106.15,342.81 109.50,356.01 112.84,370.27 116.19,384.91 119.53,399.51 122.88,413.24 126.22,425.81 129.57,436.52 132.92,444.94 136.26,451.25 139.61,455.62 142.95,458.49 146.30,460.25 149.64,461.28 152.99,461.83 156.33,462.13 159.68,462.27 163.02,462.34 166.37,462.38 169.71,462.39 173.06,462.40 176.40,462.40 179.75,462.40 183.09,462.40 186.44,462.40 189.78,462.40 193.13,462.40 196.48,462.40 199.82,462.40 203.17,462.40 "
     style="stroke:#1e88e5;stroke-width:1.07"
     clip-path="none"
     id="polyline3273"
     transform="translate(16.930719,-3.8150853)" />
  <polyline
     points="203.17,462.40 199.82,462.40 196.48,462.40 193.13,462.40 189.78,462.40 186.44,462.40 183.09,462.40 179.75,462.40 176.40,462.40 173.06,462.40 169.71,462.40 166.37,462.40 163.02,462.40 159.68,462.40 156.33,462.40 152.99,462.40 149.64,462.39 146.30,462.37 142.95,462.33 139.61,462.27 136.26,462.18 132.92,462.03 129.57,461.82 126.22,461.54 122.88,461.18 119.53,460.77 116.19,460.32 112.84,459.84 109.50,459.37 106.15,458.91 102.81,458.48 99.46,458.10 96.12,457.77 92.77,457.47 89.43,457.23 86.08,457.03 82.74,456.86 79.39,456.72 76.05,456.60 72.70,456.51 69.35,456.44 66.01,456.38 62.66,456.33 59.32,456.29 55.97,456.27 52.63,456.25 49.28,456.23 45.94,456.21 42.59,456.20 39.25,456.19 35.90,456.18 "
     style="stroke:#1e88e5;stroke-width:1.07"
     clip-path="none"
     id="polyline3275"
     transform="translate(16.930719,-3.8150853)" />
  <polygon
     points="49.28,462.3 52.63,462.28 55.97,462.24 59.32,462.2 62.66,462.15 66.01,462.09 69.35,462.01 72.7,461.92 76.05,461.8 79.39,461.65 82.74,461.48 86.08,461.27 89.43,461.04 92.77,460.76 96.12,460.45 99.46,460.11 102.81,459.76 106.15,459.4 109.5,459.08 112.84,458.82 116.19,458.66 119.53,458.64 122.88,458.79 126.22,459.11 129.57,459.51 132.92,459.99 136.26,460.48 139.61,460.96 142.95,461.37 146.3,461.7 149.64,461.94 152.99,462.11 156.33,462.23 159.68,462.3 163.02,462.35 166.37,462.37 169.71,462.39 173.06,462.39 176.4,462.4 179.75,462.4 183.09,462.4 186.44,462.4 189.78,462.4 193.13,462.4 196.48,462.4 199.82,462.4 203.17,462.4 203.17,462.4 199.82,462.4 196.48,462.4 193.13,462.4 189.78,462.4 186.44,462.4 183.09,462.4 179.75,462.4 176.4,462.4 173.06,462.4 169.71,462.4 166.37,462.4 163.02,462.4 159.68,462.4 156.33,462.4 152.99,462.4 149.64,462.4 146.3,462.4 142.95,462.4 139.61,462.4 136.26,462.4 132.92,462.39 129.57,462.39 126.22,462.39 122.88,462.39 119.53,462.39 116.19,462.39 112.84,462.39 109.5,462.39 106.15,462.39 102.81,462.39 99.46,462.39 96.12,462.4 92.77,462.4 89.43,462.4 86.08,462.4 82.74,462.4 79.39,462.4 76.05,462.4 72.7,462.4 69.35,462.4 66.01,462.4 62.66,462.4 59.32,462.4 55.97,462.4 52.63,462.4 49.28,462.4 45.94,462.4 42.59,462.4 39.25,462.4 35.9,462.4 35.9,462.36 39.25,462.35 42.59,462.34 45.94,462.32 "
     style="fill:#ffb74d;fill-opacity:0.5;stroke:none;stroke-width:0"
     clip-path="none"
     id="polygon3277"
     transform="translate(16.930719,-3.8150853)" />
  <polyline
     points="35.90,462.36 39.25,462.35 42.59,462.34 45.94,462.32 49.28,462.30 52.63,462.28 55.97,462.24 59.32,462.20 62.66,462.15 66.01,462.09 69.35,462.01 72.70,461.92 76.05,461.80 79.39,461.65 82.74,461.48 86.08,461.27 89.43,461.04 92.77,460.76 96.12,460.45 99.46,460.11 102.81,459.76 106.15,459.40 109.50,459.08 112.84,458.82 116.19,458.66 119.53,458.64 122.88,458.79 126.22,459.11 129.57,459.51 132.92,459.99 136.26,460.48 139.61,460.96 142.95,461.37 146.30,461.70 149.64,461.94 152.99,462.11 156.33,462.23 159.68,462.30 163.02,462.35 166.37,462.37 169.71,462.39 173.06,462.39 176.40,462.40 179.75,462.40 183.09,462.40 186.44,462.40 189.78,462.40 193.13,462.40 196.48,462.40 199.82,462.40 203.17,462.40 "
     style="stroke:#ffb74d;stroke-width:1.07"
     clip-path="none"
     id="polyline3279"
     transform="translate(16.930719,-3.8150853)" />
  <polyline
     points="203.17,462.40 199.82,462.40 196.48,462.40 193.13,462.40 189.78,462.40 186.44,462.40 183.09,462.40 179.75,462.40 176.40,462.40 173.06,462.40 169.71,462.40 166.37,462.40 163.02,462.40 159.68,462.40 156.33,462.40 152.99,462.40 149.64,462.40 146.30,462.40 142.95,462.40 139.61,462.40 136.26,462.40 132.92,462.39 129.57,462.39 126.22,462.39 122.88,462.39 119.53,462.39 116.19,462.39 112.84,462.39 109.50,462.39 106.15,462.39 102.81,462.39 99.46,462.39 96.12,462.40 92.77,462.40 89.43,462.40 86.08,462.40 82.74,462.40 79.39,462.40 76.05,462.40 72.70,462.40 69.35,462.40 66.01,462.40 62.66,462.40 59.32,462.40 55.97,462.40 52.63,462.40 49.28,462.40 45.94,462.40 42.59,462.40 39.25,462.40 35.90,462.40 "
     style="stroke:#ffb74d;stroke-width:1.07"
     clip-path="none"
     id="polyline3281"
     transform="translate(16.930719,-3.8150853)" />
  <polygon
     points="49.28,462.4 52.63,462.4 55.97,462.4 59.32,462.4 62.66,462.4 66.01,462.4 69.35,462.4 72.7,462.4 76.05,462.4 79.39,462.4 82.74,462.4 86.08,462.4 89.43,462.4 92.77,462.39 96.12,462.39 99.46,462.38 102.81,462.37 106.15,462.35 109.5,462.33 112.84,462.3 116.19,462.28 119.53,462.24 122.88,462.21 126.22,462.18 129.57,462.17 132.92,462.16 136.26,462.16 139.61,462.18 142.95,462.2 146.3,462.23 149.64,462.26 152.99,462.29 156.33,462.32 159.68,462.34 163.02,462.36 166.37,462.37 169.71,462.38 173.06,462.39 176.4,462.39 179.75,462.4 183.09,462.4 186.44,462.4 189.78,462.4 193.13,462.4 196.48,462.4 199.82,462.4 203.17,462.4 203.17,462.4 199.82,462.4 196.48,462.4 193.13,462.4 189.78,462.4 186.44,462.4 183.09,462.4 179.75,462.4 176.4,462.4 173.06,462.4 169.71,462.4 166.37,462.4 163.02,462.4 159.68,462.4 156.33,462.4 152.99,462.4 149.64,462.4 146.3,462.4 142.95,462.4 139.61,462.4 136.26,462.4 132.92,462.4 129.57,462.4 126.22,462.4 122.88,462.4 119.53,462.4 116.19,462.4 112.84,462.4 109.5,462.4 106.15,462.4 102.81,462.4 99.46,462.4 96.12,462.4 92.77,462.4 89.43,462.4 86.08,462.4 82.74,462.4 79.39,462.4 76.05,462.4 72.7,462.4 69.35,462.4 66.01,462.4 62.66,462.4 59.32,462.4 55.97,462.4 52.63,462.4 49.28,462.4 45.94,462.4 42.59,462.4 39.25,462.4 35.9,462.4 39.25,462.4 42.59,462.4 45.94,462.4 "
     style="fill:#ff9800;fill-opacity:0.5;stroke:none;stroke-width:0"
     clip-path="none"
     id="polygon3283"
     transform="translate(16.930719,-3.8150853)" />
  <polyline
     points="35.90,462.40 39.25,462.40 42.59,462.40 45.94,462.40 49.28,462.40 52.63,462.40 55.97,462.40 59.32,462.40 62.66,462.40 66.01,462.40 69.35,462.40 72.70,462.40 76.05,462.40 79.39,462.40 82.74,462.40 86.08,462.40 89.43,462.40 92.77,462.39 96.12,462.39 99.46,462.38 102.81,462.37 106.15,462.35 109.50,462.33 112.84,462.30 116.19,462.28 119.53,462.24 122.88,462.21 126.22,462.18 129.57,462.17 132.92,462.16 136.26,462.16 139.61,462.18 142.95,462.20 146.30,462.23 149.64,462.26 152.99,462.29 156.33,462.32 159.68,462.34 163.02,462.36 166.37,462.37 169.71,462.38 173.06,462.39 176.40,462.39 179.75,462.40 183.09,462.40 186.44,462.40 189.78,462.40 193.13,462.40 196.48,462.40 199.82,462.40 203.17,462.40 "
     style="stroke:#ff9800;stroke-width:1.07"
     clip-path="none"
     id="polyline3285"
     transform="translate(16.930719,-3.8150853)" />
  <polyline
     points="203.17,462.40 199.82,462.40 196.48,462.40 193.13,462.40 189.78,462.40 186.44,462.40 183.09,462.40 179.75,462.40 176.40,462.40 173.06,462.40 169.71,462.40 166.37,462.40 163.02,462.40 159.68,462.40 156.33,462.40 152.99,462.40 149.64,462.40 146.30,462.40 142.95,462.40 139.61,462.40 136.26,462.40 132.92,462.40 129.57,462.40 126.22,462.40 122.88,462.40 119.53,462.40 116.19,462.40 112.84,462.40 109.50,462.40 106.15,462.40 102.81,462.40 99.46,462.40 96.12,462.40 92.77,462.40 89.43,462.40 86.08,462.40 82.74,462.40 79.39,462.40 76.05,462.40 72.70,462.40 69.35,462.40 66.01,462.40 62.66,462.40 59.32,462.40 55.97,462.40 52.63,462.40 49.28,462.40 45.94,462.40 42.59,462.40 39.25,462.40 35.90,462.40 "
     style="stroke:#ff9800;stroke-width:1.07"
     clip-path="none"
     id="polyline3287"
     transform="translate(16.930719,-3.8150853)" />
  <polygon
     points="49.28,462.4 52.63,462.4 55.97,462.4 59.32,462.4 62.66,462.4 66.01,462.4 69.35,462.4 72.7,462.4 76.05,462.4 79.39,462.4 82.74,462.4 86.08,462.4 89.43,462.4 92.77,462.4 96.12,462.4 99.46,462.4 102.81,462.4 106.15,462.4 109.5,462.4 112.84,462.4 116.19,462.4 119.53,462.4 122.88,462.4 126.22,462.4 129.57,462.39 132.92,462.39 136.26,462.39 139.61,462.38 142.95,462.38 146.3,462.38 149.64,462.38 152.99,462.38 156.33,462.38 159.68,462.38 163.02,462.39 166.37,462.39 169.71,462.39 173.06,462.39 176.4,462.39 179.75,462.4 183.09,462.4 186.44,462.4 189.78,462.4 193.13,462.4 196.48,462.4 199.82,462.4 203.17,462.4 203.17,462.4 199.82,462.4 196.48,462.4 193.13,462.4 189.78,462.4 186.44,462.4 183.09,462.4 179.75,462.4 176.4,462.4 173.06,462.4 169.71,462.4 166.37,462.4 163.02,462.4 159.68,462.4 156.33,462.4 152.99,462.4 149.64,462.4 146.3,462.4 142.95,462.4 139.61,462.4 136.26,462.4 132.92,462.4 129.57,462.4 126.22,462.4 122.88,462.4 119.53,462.4 116.19,462.4 112.84,462.4 109.5,462.4 106.15,462.4 102.81,462.4 99.46,462.4 96.12,462.4 92.77,462.4 89.43,462.4 86.08,462.4 82.74,462.4 79.39,462.4 76.05,462.4 72.7,462.4 69.35,462.4 66.01,462.4 62.66,462.4 59.32,462.4 55.97,462.4 52.63,462.4 49.28,462.4 45.94,462.4 42.59,462.4 39.25,462.4 35.9,462.4 39.25,462.4 42.59,462.4 45.94,462.4 "
     style="fill:#f57c00;fill-opacity:0.5;stroke:none;stroke-width:0"
     clip-path="none"
     id="polygon3289"
     transform="translate(16.930719,-3.8150853)" />
  <polyline
     points="35.90,462.40 39.25,462.40 42.59,462.40 45.94,462.40 49.28,462.40 52.63,462.40 55.97,462.40 59.32,462.40 62.66,462.40 66.01,462.40 69.35,462.40 72.70,462.40 76.05,462.40 79.39,462.40 82.74,462.40 86.08,462.40 89.43,462.40 92.77,462.40 96.12,462.40 99.46,462.40 102.81,462.40 106.15,462.40 109.50,462.40 112.84,462.40 116.19,462.40 119.53,462.40 122.88,462.40 126.22,462.40 129.57,462.39 132.92,462.39 136.26,462.39 139.61,462.38 142.95,462.38 146.30,462.38 149.64,462.38 152.99,462.38 156.33,462.38 159.68,462.38 163.02,462.39 166.37,462.39 169.71,462.39 173.06,462.39 176.40,462.39 179.75,462.40 183.09,462.40 186.44,462.40 189.78,462.40 193.13,462.40 196.48,462.40 199.82,462.40 203.17,462.40 "
     style="stroke:#f57c00;stroke-width:1.07"
     clip-path="none"
     id="polyline3291"
     transform="translate(16.930719,-3.8150853)" />
  <polyline
     points="203.17,462.40 199.82,462.40 196.48,462.40 193.13,462.40 189.78,462.40 186.44,462.40 183.09,462.40 179.75,462.40 176.40,462.40 173.06,462.40 169.71,462.40 166.37,462.40 163.02,462.40 159.68,462.40 156.33,462.40 152.99,462.40 149.64,462.40 146.30,462.40 142.95,462.40 139.61,462.40 136.26,462.40 132.92,462.40 129.57,462.40 126.22,462.40 122.88,462.40 119.53,462.40 116.19,462.40 112.84,462.40 109.50,462.40 106.15,462.40 102.81,462.40 99.46,462.40 96.12,462.40 92.77,462.40 89.43,462.40 86.08,462.40 82.74,462.40 79.39,462.40 76.05,462.40 72.70,462.40 69.35,462.40 66.01,462.40 62.66,462.40 59.32,462.40 55.97,462.40 52.63,462.40 49.28,462.40 45.94,462.40 42.59,462.40 39.25,462.40 35.90,462.40 "
     style="stroke:#f57c00;stroke-width:1.07"
     clip-path="none"
     id="polyline3293"
     transform="translate(16.930719,-3.8150853)" />
  <polygon
     points="49.28,462.4 52.63,462.4 55.97,462.4 59.32,462.4 62.66,462.4 66.01,462.4 69.35,462.4 72.7,462.4 76.05,462.4 79.39,462.4 82.74,462.4 86.08,462.4 89.43,462.4 92.77,462.4 96.12,462.4 99.46,462.4 102.81,462.4 106.15,462.4 109.5,462.4 112.84,462.4 116.19,462.4 119.53,462.4 122.88,462.4 126.22,462.4 129.57,462.4 132.92,462.4 136.26,462.4 139.61,462.4 142.95,462.4 146.3,462.4 149.64,462.4 152.99,462.4 156.33,462.4 159.68,462.4 163.02,462.4 166.37,462.4 169.71,462.4 173.06,462.4 176.4,462.4 179.75,462.4 183.09,462.4 186.44,462.4 189.78,462.4 193.13,462.4 196.48,462.4 199.82,462.4 203.17,462.4 203.17,462.4 199.82,462.4 196.48,462.4 193.13,462.4 189.78,462.4 186.44,462.4 183.09,462.4 179.75,462.4 176.4,462.4 173.06,462.4 169.71,462.4 166.37,462.4 163.02,462.4 159.68,462.4 156.33,462.4 152.99,462.4 149.64,462.4 146.3,462.4 142.95,462.4 139.61,462.4 136.26,462.4 132.92,462.4 129.57,462.4 126.22,462.4 122.88,462.4 119.53,462.4 116.19,462.4 112.84,462.4 109.5,462.4 106.15,462.4 102.81,462.4 99.46,462.4 96.12,462.4 92.77,462.4 89.43,462.4 86.08,462.4 82.74,462.4 79.39,462.4 76.05,462.4 72.7,462.4 69.35,462.4 66.01,462.4 62.66,462.4 59.32,462.4 55.97,462.4 52.63,462.4 49.28,462.4 45.94,462.4 42.59,462.4 39.25,462.4 35.9,462.4 39.25,462.4 42.59,462.4 45.94,462.4 "
     style="fill:#e65100;fill-opacity:0.5;stroke:none;stroke-width:0"
     clip-path="none"
     id="polygon3295"
     transform="translate(16.930719,-3.8150853)" />
  <polyline
     points="35.90,462.40 39.25,462.40 42.59,462.40 45.94,462.40 49.28,462.40 52.63,462.40 55.97,462.40 59.32,462.40 62.66,462.40 66.01,462.40 69.35,462.40 72.70,462.40 76.05,462.40 79.39,462.40 82.74,462.40 86.08,462.40 89.43,462.40 92.77,462.40 96.12,462.40 99.46,462.40 102.81,462.40 106.15,462.40 109.50,462.40 112.84,462.40 116.19,462.40 119.53,462.40 122.88,462.40 126.22,462.40 129.57,462.40 132.92,462.40 136.26,462.40 139.61,462.40 142.95,462.40 146.30,462.40 149.64,462.40 152.99,462.40 156.33,462.40 159.68,462.40 163.02,462.40 166.37,462.40 169.71,462.40 173.06,462.40 176.40,462.40 179.75,462.40 183.09,462.40 186.44,462.40 189.78,462.40 193.13,462.40 196.48,462.40 199.82,462.40 203.17,462.40 "
     style="stroke:#e65100;stroke-width:1.07"
     clip-path="none"
     id="polyline3297"
     transform="translate(16.930719,-3.8150853)" />
  <polyline
     points="203.17,462.40 199.82,462.40 196.48,462.40 193.13,462.40 189.78,462.40 186.44,462.40 183.09,462.40 179.75,462.40 176.40,462.40 173.06,462.40 169.71,462.40 166.37,462.40 163.02,462.40 159.68,462.40 156.33,462.40 152.99,462.40 149.64,462.40 146.30,462.40 142.95,462.40 139.61,462.40 136.26,462.40 132.92,462.40 129.57,462.40 126.22,462.40 122.88,462.40 119.53,462.40 116.19,462.40 112.84,462.40 109.50,462.40 106.15,462.40 102.81,462.40 99.46,462.40 96.12,462.40 92.77,462.40 89.43,462.40 86.08,462.40 82.74,462.40 79.39,462.40 76.05,462.40 72.70,462.40 69.35,462.40 66.01,462.40 62.66,462.40 59.32,462.40 55.97,462.40 52.63,462.40 49.28,462.40 45.94,462.40 42.59,462.40 39.25,462.40 35.90,462.40 "
     style="stroke:#e65100;stroke-width:1.07"
     clip-path="none"
     id="polyline3299"
     transform="translate(16.930719,-3.8150853)" />
  <rect
     x="233.94072"
     y="18.584915"
     width="183.99001"
     height="222.32001"
     style="fill:#efebe9;stroke:none;stroke-width:1.07"
     clip-path="none"
     id="rect3312" />
  <polyline
     points="217.01,234.61 401.00,234.61 "
     style="stroke:#ffffff;stroke-width:1.07;stroke-linecap:butt"
     clip-path="none"
     id="polyline3328"
     transform="translate(16.930719,-3.8150853)" />
  <polyline
     points="217.01,183.54 401.00,183.54 "
     style="stroke:#ffffff;stroke-width:1.07;stroke-linecap:butt"
     clip-path="none"
     id="polyline3330"
     transform="translate(16.930719,-3.8150853)" />
  <polyline
     points="217.01,132.47 401.00,132.47 "
     style="stroke:#ffffff;stroke-width:1.07;stroke-linecap:butt"
     clip-path="none"
     id="polyline3332"
     transform="translate(16.930719,-3.8150853)" />
  <polyline
     points="217.01,81.40 401.00,81.40 "
     style="stroke:#ffffff;stroke-width:1.07;stroke-linecap:butt"
     clip-path="none"
     id="polyline3334"
     transform="translate(16.930719,-3.8150853)" />
  <polyline
     points="217.01,30.34 401.00,30.34 "
     style="stroke:#ffffff;stroke-width:1.07;stroke-linecap:butt"
     clip-path="none"
     id="polyline3336"
     transform="translate(16.930719,-3.8150853)" />
  <polyline
     points="258.82,244.71 258.82,22.40 "
     style="stroke:#ffffff;stroke-width:1.07;stroke-linecap:butt"
     clip-path="none"
     id="polyline3338"
     transform="translate(16.930719,-3.8150853)" />
  <polyline
     points="325.73,244.71 325.73,22.40 "
     style="stroke:#ffffff;stroke-width:1.07;stroke-linecap:butt"
     clip-path="none"
     id="polyline3340"
     transform="translate(16.930719,-3.8150853)" />
  <polyline
     points="392.64,244.71 392.64,22.40 "
     style="stroke:#ffffff;stroke-width:1.07;stroke-linecap:butt"
     clip-path="none"
     id="polyline3342"
     transform="translate(16.930719,-3.8150853)" />
  <polygon
     points="238.75,34.61 242.1,35.25 245.44,36.02 248.79,36.98 252.13,38.15 255.48,39.59 258.82,41.34 262.17,43.49 265.52,46.11 268.86,49.25 272.21,53.05 275.55,57.62 278.9,63.12 282.24,69.61 285.59,77.27 288.93,86.23 292.28,96.47 295.62,107.97 298.97,120.83 302.31,134.58 305.66,149.15 309,163.9 312.35,178.3 315.69,191.58 319.04,203.2 322.39,212.8 325.73,220.25 329.08,225.65 332.42,229.3 335.77,231.62 339.11,233.01 342.46,233.79 345.8,234.2 349.15,234.42 352.49,234.52 355.84,234.57 359.18,234.59 362.53,234.6 365.87,234.61 369.22,234.61 372.56,234.61 375.91,234.61 379.26,234.61 382.6,234.61 385.95,234.61 389.29,234.61 392.64,234.61 392.64,234.61 389.29,234.61 385.95,234.61 382.6,234.61 379.26,234.61 375.91,234.61 372.56,234.61 369.22,234.61 365.87,234.61 362.53,234.61 359.18,234.61 355.84,234.61 352.49,234.61 349.15,234.61 345.8,234.61 342.46,234.6 339.11,234.59 335.77,234.57 332.42,234.52 329.08,234.42 325.73,234.21 322.39,233.79 319.04,233.01 315.69,231.64 312.35,229.33 309,225.7 305.66,220.36 302.31,213.04 298.97,203.63 295.62,192.32 292.28,179.55 288.93,166.02 285.59,152.24 282.24,139.28 278.9,127.29 275.55,116.55 272.21,107.63 268.86,100.21 265.52,94.2 262.17,89.53 258.82,85.79 255.48,83.1 252.13,80.95 248.79,79.34 245.44,78.12 242.1,77.1 238.75,76.33 235.41,75.81 232.06,75.38 228.72,74.96 225.37,74.74 225.37,33.01 228.72,33.3 232.06,33.65 235.41,34.08 "
     style="fill:#1e88e5;fill-opacity:0.5;stroke:none;stroke-width:0"
     clip-path="none"
     id="polygon3344"
     transform="translate(16.930719,-3.8150853)" />
  <polyline
     points="225.37,33.01 228.72,33.30 232.06,33.65 235.41,34.08 238.75,34.61 242.10,35.25 245.44,36.02 248.79,36.98 252.13,38.15 255.48,39.59 258.82,41.34 262.17,43.49 265.52,46.11 268.86,49.25 272.21,53.05 275.55,57.62 278.90,63.12 282.24,69.61 285.59,77.27 288.93,86.23 292.28,96.47 295.62,107.97 298.97,120.83 302.31,134.58 305.66,149.15 309.00,163.90 312.35,178.30 315.69,191.58 319.04,203.20 322.39,212.80 325.73,220.25 329.08,225.65 332.42,229.30 335.77,231.62 339.11,233.01 342.46,233.79 345.80,234.20 349.15,234.42 352.49,234.52 355.84,234.57 359.18,234.59 362.53,234.60 365.87,234.61 369.22,234.61 372.56,234.61 375.91,234.61 379.26,234.61 382.60,234.61 385.95,234.61 389.29,234.61 392.64,234.61 "
     style="stroke:#1e88e5;stroke-width:1.07"
     clip-path="none"
     id="polyline3346"
     transform="translate(16.930719,-3.8150853)" />
  <polyline
     points="392.64,234.61 389.29,234.61 385.95,234.61 382.60,234.61 379.26,234.61 375.91,234.61 372.56,234.61 369.22,234.61 365.87,234.61 362.53,234.61 359.18,234.61 355.84,234.61 352.49,234.61 349.15,234.61 345.80,234.61 342.46,234.60 339.11,234.59 335.77,234.57 332.42,234.52 329.08,234.42 325.73,234.21 322.39,233.79 319.04,233.01 315.69,231.64 312.35,229.33 309.00,225.70 305.66,220.36 302.31,213.04 298.97,203.63 295.62,192.32 292.28,179.55 288.93,166.02 285.59,152.24 282.24,139.28 278.90,127.29 275.55,116.55 272.21,107.63 268.86,100.21 265.52,94.20 262.17,89.53 258.82,85.79 255.48,83.10 252.13,80.95 248.79,79.34 245.44,78.12 242.10,77.10 238.75,76.33 235.41,75.81 232.06,75.38 228.72,74.96 225.37,74.74 "
     style="stroke:#1e88e5;stroke-width:1.07"
     clip-path="none"
     id="polyline3348"
     transform="translate(16.930719,-3.8150853)" />
  <polygon
     points="238.75,227.79 242.1,226.1 245.44,224.02 248.79,221.46 252.13,218.35 255.48,214.59 258.82,210.09 262.17,204.8 265.52,198.66 268.86,191.73 272.21,184.11 275.55,176.11 278.9,168.14 282.24,160.78 285.59,154.87 288.93,151.21 292.28,149.69 295.62,149.27 298.97,149.2 302.31,149.16 305.66,148.94 309,149.02 312.35,149.99 315.69,153.43 319.04,160.08 322.39,169.53 325.73,180.63 329.08,192.19 332.42,202.99 335.77,212.22 339.11,219.5 342.46,224.86 345.8,228.56 349.15,230.99 352.49,232.51 355.84,233.42 359.18,233.95 362.53,234.25 365.87,234.42 369.22,234.51 372.56,234.56 375.91,234.58 379.26,234.59 382.6,234.6 385.95,234.6 389.29,234.61 392.64,234.61 392.64,234.61 389.29,234.61 385.95,234.61 382.6,234.61 379.26,234.61 375.91,234.61 372.56,234.61 369.22,234.61 365.87,234.6 362.53,234.6 359.18,234.59 355.84,234.58 352.49,234.56 349.15,234.51 345.8,234.42 342.46,234.25 339.11,233.95 335.77,233.42 332.42,232.51 329.08,231 325.73,228.58 322.39,224.88 319.04,219.54 315.69,212.28 312.35,203.11 309,192.45 305.66,181.03 302.31,170.46 298.97,168.99 295.62,176.16 292.28,184.07 288.93,191.66 285.59,198.58 282.24,204.7 278.9,210.01 275.55,214.52 272.21,218.29 268.86,221.42 265.52,223.98 262.17,226.07 258.82,227.77 255.48,229.13 252.13,230.24 248.79,231.12 245.44,231.83 242.1,232.39 238.75,232.84 235.41,233.2 232.06,233.49 228.72,233.72 225.37,233.9 225.37,231.84 228.72,231.13 232.06,230.25 235.41,229.15 "
     style="fill:#ffb74d;fill-opacity:0.5;stroke:none;stroke-width:0"
     clip-path="none"
     id="polygon3350"
     transform="translate(16.930719,-3.8150853)" />
  <polyline
     points="225.37,231.84 228.72,231.13 232.06,230.25 235.41,229.15 238.75,227.79 242.10,226.10 245.44,224.02 248.79,221.46 252.13,218.35 255.48,214.59 258.82,210.09 262.17,204.80 265.52,198.66 268.86,191.73 272.21,184.11 275.55,176.11 278.90,168.14 282.24,160.78 285.59,154.87 288.93,151.21 292.28,149.69 295.62,149.27 298.97,149.20 302.31,149.16 305.66,148.94 309.00,149.02 312.35,149.99 315.69,153.43 319.04,160.08 322.39,169.53 325.73,180.63 329.08,192.19 332.42,202.99 335.77,212.22 339.11,219.50 342.46,224.86 345.80,228.56 349.15,230.99 352.49,232.51 355.84,233.42 359.18,233.95 362.53,234.25 365.87,234.42 369.22,234.51 372.56,234.56 375.91,234.58 379.26,234.59 382.60,234.60 385.95,234.60 389.29,234.61 392.64,234.61 "
     style="stroke:#ffb74d;stroke-width:1.07"
     clip-path="none"
     id="polyline3352"
     transform="translate(16.930719,-3.8150853)" />
  <polyline
     points="392.64,234.61 389.29,234.61 385.95,234.61 382.60,234.61 379.26,234.61 375.91,234.61 372.56,234.61 369.22,234.61 365.87,234.60 362.53,234.60 359.18,234.59 355.84,234.58 352.49,234.56 349.15,234.51 345.80,234.42 342.46,234.25 339.11,233.95 335.77,233.42 332.42,232.51 329.08,231.00 325.73,228.58 322.39,224.88 319.04,219.54 315.69,212.28 312.35,203.11 309.00,192.45 305.66,181.03 302.31,170.46 298.97,168.99 295.62,176.16 292.28,184.07 288.93,191.66 285.59,198.58 282.24,204.70 278.90,210.01 275.55,214.52 272.21,218.29 268.86,221.42 265.52,223.98 262.17,226.07 258.82,227.77 255.48,229.13 252.13,230.24 248.79,231.12 245.44,231.83 242.10,232.39 238.75,232.84 235.41,233.20 232.06,233.49 228.72,233.72 225.37,233.90 "
     style="stroke:#ffb74d;stroke-width:1.07"
     clip-path="none"
     id="polyline3354"
     transform="translate(16.930719,-3.8150853)" />
  <polygon
     points="238.75,234.51 242.1,234.46 245.44,234.37 248.79,234.24 252.13,234.04 255.48,233.72 258.82,233.24 262.17,232.52 265.52,231.43 268.86,229.84 272.21,227.53 275.55,224.29 278.9,219.85 282.24,213.98 285.59,206.57 288.93,197.72 292.28,187.87 295.62,177.85 298.97,168.81 302.31,162.11 305.66,159.02 309,158.4 312.35,158.26 315.69,158.27 319.04,158.21 322.39,158.15 325.73,158.22 329.08,159.33 332.42,163.95 335.77,171.63 339.11,181.1 342.46,191.14 345.8,200.68 349.15,209.04 352.49,215.93 355.84,221.31 359.18,225.35 362.53,228.28 365.87,230.35 369.22,231.78 372.56,232.75 375.91,233.39 379.26,233.82 382.6,234.1 385.95,234.28 389.29,234.4 392.64,234.48 392.64,234.6 389.29,234.59 385.95,234.59 382.6,234.57 379.26,234.55 375.91,234.52 372.56,234.48 369.22,234.4 365.87,234.28 362.53,234.1 359.18,233.82 355.84,233.4 352.49,232.75 349.15,231.78 345.8,230.36 342.46,228.29 339.11,225.36 335.77,221.33 332.42,215.95 329.08,209.08 325.73,200.72 322.39,191.2 319.04,181.28 315.69,178.32 312.35,187.45 309,197.32 305.66,206.22 302.31,213.7 298.97,219.63 295.62,224.12 292.28,227.41 288.93,229.75 285.59,231.37 282.24,232.47 278.9,233.21 275.55,233.7 272.21,234.02 268.86,234.23 265.52,234.37 262.17,234.46 258.82,234.51 255.48,234.55 252.13,234.57 248.79,234.58 245.44,234.59 242.1,234.6 238.75,234.6 235.41,234.6 232.06,234.61 228.72,234.61 225.37,234.61 225.37,234.59 228.72,234.58 232.06,234.57 235.41,234.55 "
     style="fill:#ff9800;fill-opacity:0.5;stroke:none;stroke-width:0"
     clip-path="none"
     id="polygon3356"
     transform="translate(16.930719,-3.8150853)" />
  <polyline
     points="225.37,234.59 228.72,234.58 232.06,234.57 235.41,234.55 238.75,234.51 242.10,234.46 245.44,234.37 248.79,234.24 252.13,234.04 255.48,233.72 258.82,233.24 262.17,232.52 265.52,231.43 268.86,229.84 272.21,227.53 275.55,224.29 278.90,219.85 282.24,213.98 285.59,206.57 288.93,197.72 292.28,187.87 295.62,177.85 298.97,168.81 302.31,162.11 305.66,159.02 309.00,158.40 312.35,158.26 315.69,158.27 319.04,158.21 322.39,158.15 325.73,158.22 329.08,159.33 332.42,163.95 335.77,171.63 339.11,181.10 342.46,191.14 345.80,200.68 349.15,209.04 352.49,215.93 355.84,221.31 359.18,225.35 362.53,228.28 365.87,230.35 369.22,231.78 372.56,232.75 375.91,233.39 379.26,233.82 382.60,234.10 385.95,234.28 389.29,234.40 392.64,234.48 "
     style="stroke:#ff9800;stroke-width:1.07"
     clip-path="none"
     id="polyline3358"
     transform="translate(16.930719,-3.8150853)" />
  <polyline
     points="392.64,234.60 389.29,234.59 385.95,234.59 382.60,234.57 379.26,234.55 375.91,234.52 372.56,234.48 369.22,234.40 365.87,234.28 362.53,234.10 359.18,233.82 355.84,233.40 352.49,232.75 349.15,231.78 345.80,230.36 342.46,228.29 339.11,225.36 335.77,221.33 332.42,215.95 329.08,209.08 325.73,200.72 322.39,191.20 319.04,181.28 315.69,178.32 312.35,187.45 309.00,197.32 305.66,206.22 302.31,213.70 298.97,219.63 295.62,224.12 292.28,227.41 288.93,229.75 285.59,231.37 282.24,232.47 278.90,233.21 275.55,233.70 272.21,234.02 268.86,234.23 265.52,234.37 262.17,234.46 258.82,234.51 255.48,234.55 252.13,234.57 248.79,234.58 245.44,234.59 242.10,234.60 238.75,234.60 235.41,234.60 232.06,234.61 228.72,234.61 225.37,234.61 "
     style="stroke:#ff9800;stroke-width:1.07"
     clip-path="none"
     id="polyline3360"
     transform="translate(16.930719,-3.8150853)" />
  <polygon
     points="238.75,234.61 242.1,234.61 245.44,234.61 248.79,234.6 252.13,234.6 255.48,234.59 258.82,234.57 262.17,234.54 265.52,234.48 268.86,234.37 272.21,234.17 275.55,233.8 278.9,233.14 282.24,232.03 285.59,230.2 288.93,227.31 292.28,222.97 295.62,216.79 298.97,208.6 302.31,198.5 305.66,187.06 309,175.34 312.35,164.52 315.69,155.91 319.04,150.45 322.39,148.66 325.73,148.51 329.08,148.48 332.42,148.49 335.77,148.47 339.11,148.45 342.46,148.5 345.8,149.96 349.15,154.31 352.49,160.75 355.84,168.42 359.18,176.6 362.53,184.7 365.87,192.31 369.22,199.22 372.56,205.29 375.91,210.53 379.26,214.96 382.6,218.66 385.95,221.72 389.29,224.23 392.64,226.28 392.64,232.45 389.29,231.9 385.95,231.21 382.6,230.35 379.26,229.27 375.91,227.94 372.56,226.28 369.22,224.24 365.87,221.73 362.53,218.67 359.18,214.97 355.84,210.55 352.49,205.31 349.15,199.24 345.8,192.34 342.46,184.73 339.11,176.63 335.77,168.52 332.42,165.57 329.08,175.24 325.73,186.95 322.39,198.33 319.04,208.41 315.69,216.62 312.35,222.83 309,227.21 305.66,230.13 302.31,231.99 298.97,233.12 295.62,233.78 292.28,234.16 288.93,234.37 285.59,234.48 282.24,234.54 278.9,234.57 275.55,234.59 272.21,234.6 268.86,234.6 265.52,234.61 262.17,234.61 258.82,234.61 255.48,234.61 252.13,234.61 248.79,234.61 245.44,234.61 242.1,234.61 238.75,234.61 235.41,234.61 232.06,234.61 228.72,234.61 225.37,234.61 228.72,234.61 232.06,234.61 235.41,234.61 "
     style="fill:#f57c00;fill-opacity:0.5;stroke:none;stroke-width:0"
     clip-path="none"
     id="polygon3362"
     transform="translate(16.930719,-3.8150853)" />
  <polyline
     points="225.37,234.61 228.72,234.61 232.06,234.61 235.41,234.61 238.75,234.61 242.10,234.61 245.44,234.61 248.79,234.60 252.13,234.60 255.48,234.59 258.82,234.57 262.17,234.54 265.52,234.48 268.86,234.37 272.21,234.17 275.55,233.80 278.90,233.14 282.24,232.03 285.59,230.20 288.93,227.31 292.28,222.97 295.62,216.79 298.97,208.60 302.31,198.50 305.66,187.06 309.00,175.34 312.35,164.52 315.69,155.91 319.04,150.45 322.39,148.66 325.73,148.51 329.08,148.48 332.42,148.49 335.77,148.47 339.11,148.45 342.46,148.50 345.80,149.96 349.15,154.31 352.49,160.75 355.84,168.42 359.18,176.60 362.53,184.70 365.87,192.31 369.22,199.22 372.56,205.29 375.91,210.53 379.26,214.96 382.60,218.66 385.95,221.72 389.29,224.23 392.64,226.28 "
     style="stroke:#f57c00;stroke-width:1.07"
     clip-path="none"
     id="polyline3364"
     transform="translate(16.930719,-3.8150853)" />
  <polyline
     points="392.64,232.45 389.29,231.90 385.95,231.21 382.60,230.35 379.26,229.27 375.91,227.94 372.56,226.28 369.22,224.24 365.87,221.73 362.53,218.67 359.18,214.97 355.84,210.55 352.49,205.31 349.15,199.24 345.80,192.34 342.46,184.73 339.11,176.63 335.77,168.52 332.42,165.57 329.08,175.24 325.73,186.95 322.39,198.33 319.04,208.41 315.69,216.62 312.35,222.83 309.00,227.21 305.66,230.13 302.31,231.99 298.97,233.12 295.62,233.78 292.28,234.16 288.93,234.37 285.59,234.48 282.24,234.54 278.90,234.57 275.55,234.59 272.21,234.60 268.86,234.60 265.52,234.61 262.17,234.61 258.82,234.61 255.48,234.61 252.13,234.61 248.79,234.61 245.44,234.61 242.10,234.61 238.75,234.61 235.41,234.61 232.06,234.61 228.72,234.61 225.37,234.61 "
     style="stroke:#f57c00;stroke-width:1.07"
     clip-path="none"
     id="polyline3366"
     transform="translate(16.930719,-3.8150853)" />
  <polygon
     points="238.75,234.61 242.1,234.61 245.44,234.61 248.79,234.61 252.13,234.61 255.48,234.61 258.82,234.61 262.17,234.61 265.52,234.61 268.86,234.6 272.21,234.6 275.55,234.58 278.9,234.55 282.24,234.49 285.59,234.35 288.93,234.07 292.28,233.52 295.62,232.51 298.97,230.75 302.31,227.86 305.66,223.43 309,217.06 312.35,208.5 315.69,197.71 319.04,184.91 322.39,170.6 325.73,155.4 329.08,140.01 332.42,125.05 335.77,111.02 339.11,98.25 342.46,86.91 345.8,77.05 349.15,68.64 352.49,61.55 355.84,55.64 359.18,50.77 362.53,46.79 365.87,43.54 369.22,40.91 372.56,38.8 375.91,37.09 379.26,35.73 382.6,34.63 385.95,33.76 389.29,33.06 392.64,32.5 392.64,38.8 389.29,40.92 385.95,43.55 382.6,46.8 379.26,50.79 375.91,55.66 372.56,61.57 369.22,68.66 365.87,77.08 362.53,86.94 359.18,98.28 355.84,111.06 352.49,125.09 349.15,140.04 345.8,155.42 342.46,170.6 339.11,184.9 335.77,197.69 332.42,208.48 329.08,217.04 325.73,223.41 322.39,227.84 319.04,230.73 315.69,232.49 312.35,233.5 309,234.06 305.66,234.34 302.31,234.49 298.97,234.55 295.62,234.58 292.28,234.6 288.93,234.6 285.59,234.61 282.24,234.61 278.9,234.61 275.55,234.61 272.21,234.61 268.86,234.61 265.52,234.61 262.17,234.61 258.82,234.61 255.48,234.61 252.13,234.61 248.79,234.61 245.44,234.61 242.1,234.61 238.75,234.61 235.41,234.61 232.06,234.61 228.72,234.61 225.37,234.61 228.72,234.61 232.06,234.61 235.41,234.61 "
     style="fill:#e65100;fill-opacity:0.5;stroke:none;stroke-width:0"
     clip-path="none"
     id="polygon3368"
     transform="translate(16.930719,-3.8150853)" />
  <polyline
     points="225.37,234.61 228.72,234.61 232.06,234.61 235.41,234.61 238.75,234.61 242.10,234.61 245.44,234.61 248.79,234.61 252.13,234.61 255.48,234.61 258.82,234.61 262.17,234.61 265.52,234.61 268.86,234.60 272.21,234.60 275.55,234.58 278.90,234.55 282.24,234.49 285.59,234.35 288.93,234.07 292.28,233.52 295.62,232.51 298.97,230.75 302.31,227.86 305.66,223.43 309.00,217.06 312.35,208.50 315.69,197.71 319.04,184.91 322.39,170.60 325.73,155.40 329.08,140.01 332.42,125.05 335.77,111.02 339.11,98.25 342.46,86.91 345.80,77.05 349.15,68.64 352.49,61.55 355.84,55.64 359.18,50.77 362.53,46.79 365.87,43.54 369.22,40.91 372.56,38.80 375.91,37.09 379.26,35.73 382.60,34.63 385.95,33.76 389.29,33.06 392.64,32.50 "
     style="stroke:#e65100;stroke-width:1.07"
     clip-path="none"
     id="polyline3370"
     transform="translate(16.930719,-3.8150853)" />
  <polyline
     points="392.64,38.80 389.29,40.92 385.95,43.55 382.60,46.80 379.26,50.79 375.91,55.66 372.56,61.57 369.22,68.66 365.87,77.08 362.53,86.94 359.18,98.28 355.84,111.06 352.49,125.09 349.15,140.04 345.80,155.42 342.46,170.60 339.11,184.90 335.77,197.69 332.42,208.48 329.08,217.04 325.73,223.41 322.39,227.84 319.04,230.73 315.69,232.49 312.35,233.50 309.00,234.06 305.66,234.34 302.31,234.49 298.97,234.55 295.62,234.58 292.28,234.60 288.93,234.60 285.59,234.61 282.24,234.61 278.90,234.61 275.55,234.61 272.21,234.61 268.86,234.61 265.52,234.61 262.17,234.61 258.82,234.61 255.48,234.61 252.13,234.61 248.79,234.61 245.44,234.61 242.10,234.61 238.75,234.61 235.41,234.61 232.06,234.61 228.72,234.61 225.37,234.61 "
     style="stroke:#e65100;stroke-width:1.07"
     clip-path="none"
     id="polyline3372"
     transform="translate(16.930719,-3.8150853)" />
  <rect
     x="233.94072"
     y="246.37492"
     width="183.99001"
     height="222.32001"
     style="fill:#efebe9;stroke:none;stroke-width:1.07"
     clip-path="none"
     id="rect3385" />
  <polyline
     points="217.01,462.40 401.00,462.40 "
     style="stroke:#ffffff;stroke-width:1.07;stroke-linecap:butt"
     clip-path="none"
     id="polyline3401"
     transform="translate(16.930719,-3.8150853)" />
  <polyline
     points="217.01,414.50 401.00,414.50 "
     style="stroke:#ffffff;stroke-width:1.07;stroke-linecap:butt"
     clip-path="none"
     id="polyline3403"
     transform="translate(16.930719,-3.8150853)" />
  <polyline
     points="217.01,366.60 401.00,366.60 "
     style="stroke:#ffffff;stroke-width:1.07;stroke-linecap:butt"
     clip-path="none"
     id="polyline3405"
     transform="translate(16.930719,-3.8150853)" />
  <polyline
     points="217.01,318.70 401.00,318.70 "
     style="stroke:#ffffff;stroke-width:1.07;stroke-linecap:butt"
     clip-path="none"
     id="polyline3407"
     transform="translate(16.930719,-3.8150853)" />
  <polyline
     points="217.01,270.80 401.00,270.80 "
     style="stroke:#ffffff;stroke-width:1.07;stroke-linecap:butt"
     clip-path="none"
     id="polyline3409"
     transform="translate(16.930719,-3.8150853)" />
  <polyline
     points="258.82,472.51 258.82,250.19 "
     style="stroke:#ffffff;stroke-width:1.07;stroke-linecap:butt"
     clip-path="none"
     id="polyline3411"
     transform="translate(16.930719,-3.8150853)" />
  <polyline
     points="325.73,472.51 325.73,250.19 "
     style="stroke:#ffffff;stroke-width:1.07;stroke-linecap:butt"
     clip-path="none"
     id="polyline3413"
     transform="translate(16.930719,-3.8150853)" />
  <polyline
     points="392.64,472.51 392.64,250.19 "
     style="stroke:#ffffff;stroke-width:1.07;stroke-linecap:butt"
     clip-path="none"
     id="polyline3415"
     transform="translate(16.930719,-3.8150853)" />
  <defs
     id="defs3451">
    <clipPath
       id="clipPath3449">
      <rect
         x="0"
         y="0"
         width="504"
         height="504"
         id="rect3447" />
    </clipPath>
  </defs>
  <defs
     id="defs3456" />
  <defs
     id="defs3468">
    <clipPath
       id="clipPath3466">
      <rect
         x="0"
         y="0"
         width="504"
         height="504"
         id="rect3464" />
    </clipPath>
  </defs>
  <defs
     id="defs3473" />
  <defs
     id="defs3485">
    <clipPath
       id="clipPath3483">
      <rect
         x="0"
         y="0"
         width="504"
         height="504"
         id="rect3481" />
    </clipPath>
  </defs>
  <defs
     id="defs3490" />
  <defs
     id="defs3502">
    <clipPath
       id="clipPath3500">
      <rect
         x="0"
         y="0"
         width="504"
         height="504"
         id="rect3498" />
    </clipPath>
  </defs>
  <defs
     id="defs3507" />
  <defs
     id="defs3519">
    <clipPath
       id="clipPath3517">
      <rect
         x="0"
         y="0"
         width="504"
         height="504"
         id="rect3515" />
    </clipPath>
  </defs>
  <text
     xml:space="preserve"
     style="font-style:normal;font-variant:normal;font-weight:normal;font-stretch:condensed;font-size:16px;line-height:1.25;font-family:'Noto Sans';-inkscape-font-specification:'Noto Sans, Condensed';font-variant-ligatures:normal;font-variant-caps:normal;font-variant-numeric:normal;font-variant-east-asian:normal;letter-spacing:0px;word-spacing:0px;writing-mode:lr-tb"
     x="473.44092"
     y="132.32713"
     id="text5183"><tspan
       sodipodi:role="line"
       id="tspan5181"
       x="473.44092"
       y="132.32713">TNP-ATP bound</tspan><tspan
       sodipodi:role="line"
       x="473.44092"
       y="152.32713"
       id="tspan5302">Kir6.2 subunits</tspan></text>
  <rect
     style="opacity:0.99;fill:#1e88e5;fill-opacity:0.5;stroke:#1e88e5;stroke-width:1;stroke-miterlimit:10;stroke-dasharray:none"
     id="rect5185"
     width="20.86804"
     height="20.86804"
     x="474.10092"
     y="158.59619" />
  <rect
     style="opacity:0.99;fill:#ffb74d;fill-opacity:0.5;stroke:#ffb74d;stroke-width:1;stroke-linecap:round;stroke-linejoin:round;stroke-miterlimit:10;stroke-dasharray:none"
     id="rect5185-6"
     width="20.86804"
     height="20.86804"
     x="474.10092"
     y="196.34991" />
  <rect
     style="opacity:0.99;fill:#ff9800;fill-opacity:0.5;stroke:#ff9800;stroke-width:1;stroke-linecap:round;stroke-linejoin:round;stroke-miterlimit:10;stroke-dasharray:none"
     id="rect5185-2"
     width="20.86804"
     height="20.86804"
     x="474.10092"
     y="234.10364" />
  <rect
     style="opacity:0.99;fill:#f57c00;fill-opacity:0.5;stroke:#f57c00;stroke-width:1;stroke-linecap:round;stroke-linejoin:round;stroke-miterlimit:10;stroke-dasharray:none"
     id="rect5185-9"
     width="20.86804"
     height="20.86804"
     x="474.10092"
     y="271.85733" />
  <rect
     style="opacity:0.99;fill:#e65100;fill-opacity:0.5;stroke:#e65100;stroke-width:1;stroke-linecap:round;stroke-linejoin:round;stroke-miterlimit:10;stroke-dasharray:none"
     id="rect5185-1"
     width="20.86804"
     height="20.86804"
     x="474.10092"
     y="309.61105" />
  <text
     xml:space="preserve"
     style="font-style:normal;font-variant:normal;font-weight:normal;font-stretch:condensed;font-size:16px;line-height:1.25;font-family:'Noto Sans';-inkscape-font-specification:'Noto Sans, Condensed';font-variant-ligatures:normal;font-variant-caps:normal;font-variant-numeric:normal;font-variant-east-asian:normal;letter-spacing:0px;word-spacing:0px;writing-mode:lr-tb"
     x="-303.11176"
     y="11.808"
     id="text5222"
     transform="rotate(-90)"><tspan
       sodipodi:role="line"
       id="tspan5220"
       x="-303.11176"
       y="11.808">Fraction occupancy</tspan></text>
  <text
     xml:space="preserve"
     style="font-style:normal;font-variant:normal;font-weight:normal;font-stretch:condensed;font-size:13.3333px;line-height:1.25;font-family:'Noto Sans';-inkscape-font-specification:'Noto Sans, Condensed';font-variant-ligatures:normal;font-variant-caps:normal;font-variant-numeric:normal;font-variant-east-asian:normal;letter-spacing:0px;word-spacing:0px;writing-mode:lr-tb"
     x="26.071228"
     y="31.284914"
     id="text5226"><tspan
       sodipodi:role="line"
       id="tspan5224"
       x="26.071228"
       y="31.284914">1.0</tspan></text>
  <text
     xml:space="preserve"
     style="font-style:normal;font-variant:normal;font-weight:normal;font-stretch:condensed;font-size:13.3333px;line-height:1.25;font-family:'Noto Sans';-inkscape-font-specification:'Noto Sans, Condensed';font-variant-ligatures:normal;font-variant-caps:normal;font-variant-numeric:normal;font-variant-east-asian:normal;letter-spacing:0px;word-spacing:0px;writing-mode:lr-tb"
     x="26.124561"
     y="133.41492"
     id="text5234"><tspan
       sodipodi:role="line"
       id="tspan5232"
       x="26.124561"
       y="133.41492">0.5</tspan></text>
  <text
     xml:space="preserve"
     style="font-style:normal;font-variant:normal;font-weight:normal;font-stretch:condensed;font-size:13.3333px;line-height:1.25;font-family:'Noto Sans';-inkscape-font-specification:'Noto Sans, Condensed';font-variant-ligatures:normal;font-variant-caps:normal;font-variant-numeric:normal;font-variant-east-asian:normal;letter-spacing:0px;word-spacing:0px;writing-mode:lr-tb"
     x="26.071228"
     y="235.55492"
     id="text5238"><tspan
       sodipodi:role="line"
       id="tspan5236"
       x="26.071228"
       y="235.55492">0.0</tspan></text>
  <text
     xml:space="preserve"
     style="font-style:normal;font-variant:normal;font-weight:normal;font-stretch:condensed;font-size:13.3333px;line-height:1.25;font-family:'Noto Sans';-inkscape-font-specification:'Noto Sans, Condensed';font-variant-ligatures:normal;font-variant-caps:normal;font-variant-numeric:normal;font-variant-east-asian:normal;letter-spacing:0px;word-spacing:0px;writing-mode:lr-tb"
     x="26.137896"
     y="271.7449"
     id="text5242"><tspan
       sodipodi:role="line"
       id="tspan5240"
       x="26.137896"
       y="271.7449">0.2</tspan></text>
  <text
     xml:space="preserve"
     style="font-style:normal;font-variant:normal;font-weight:normal;font-stretch:condensed;font-size:13.3333px;line-height:1.25;font-family:'Noto Sans';-inkscape-font-specification:'Noto Sans, Condensed';font-variant-ligatures:normal;font-variant-caps:normal;font-variant-numeric:normal;font-variant-east-asian:normal;letter-spacing:0px;word-spacing:0px;writing-mode:lr-tb"
     x="27.617891"
     y="367.54489"
     id="text5246"><tspan
       sodipodi:role="line"
       id="tspan5244"
       x="27.617891"
       y="367.54489">0.1</tspan></text>
  <text
     xml:space="preserve"
     style="font-style:normal;font-variant:normal;font-weight:normal;font-stretch:condensed;font-size:13.3333px;line-height:1.25;font-family:'Noto Sans';-inkscape-font-specification:'Noto Sans, Condensed';font-variant-ligatures:normal;font-variant-caps:normal;font-variant-numeric:normal;font-variant-east-asian:normal;letter-spacing:0px;word-spacing:0px;writing-mode:lr-tb"
     x="26.071228"
     y="463.34491"
     id="text5250"><tspan
       sodipodi:role="line"
       id="tspan5248"
       x="26.071228"
       y="463.34491">0.0</tspan></text>
  <text
     xml:space="preserve"
     style="font-style:normal;font-variant:normal;font-weight:normal;font-stretch:condensed;font-size:16px;line-height:1.25;font-family:'Noto Sans';-inkscape-font-specification:'Noto Sans, Condensed';font-variant-ligatures:normal;font-variant-caps:normal;font-variant-numeric:normal;font-variant-east-asian:normal;letter-spacing:0px;word-spacing:0px;writing-mode:lr-tb"
     x="98.745789"
     y="12.16"
     id="text5254"><tspan
       sodipodi:role="line"
       id="tspan5252"
       x="98.745789"
       y="12.16">MWC model</tspan></text>
  <text
     xml:space="preserve"
     style="font-style:normal;font-variant:normal;font-weight:normal;font-stretch:condensed;font-size:16px;line-height:1.25;font-family:'Noto Sans';-inkscape-font-specification:'Noto Sans, Condensed';font-variant-ligatures:normal;font-variant-caps:normal;font-variant-numeric:normal;font-variant-east-asian:normal;letter-spacing:0px;word-spacing:0px;writing-mode:lr-tb"
     x="260.37585"
     y="12.271546"
     id="text5254-7"><tspan
       sodipodi:role="line"
       id="tspan5252-9"
       x="260.37585"
       y="12.271546">Single binding model</tspan></text>
  <text
     xml:space="preserve"
     style="font-style:normal;font-variant:normal;font-weight:normal;font-stretch:condensed;font-size:16px;line-height:1.25;font-family:'Noto Sans';-inkscape-font-specification:'Noto Sans, Condensed';font-variant-ligatures:normal;font-variant-caps:normal;font-variant-numeric:normal;font-variant-east-asian:normal;letter-spacing:0px;word-spacing:0px;writing-mode:lr-tb"
     x="320.87097"
     y="-429.0762"
     id="text5276"
     transform="rotate(90)"><tspan
       sodipodi:role="line"
       id="tspan5274"
       x="320.87097"
       y="-429.0762">Open states</tspan></text>
  <text
     xml:space="preserve"
     style="font-style:normal;font-variant:normal;font-weight:normal;font-stretch:condensed;font-size:16px;line-height:1.25;font-family:'Noto Sans';-inkscape-font-specification:'Noto Sans, Condensed';font-variant-ligatures:normal;font-variant-caps:normal;font-variant-numeric:normal;font-variant-east-asian:normal;letter-spacing:0px;word-spacing:0px;writing-mode:lr-tb"
     x="89.268013"
     y="-425.39621"
     id="text5280"
     transform="rotate(90)"><tspan
       sodipodi:role="line"
       id="tspan5278"
       x="89.268013"
       y="-425.39621">Closed states</tspan></text>
  <text
     xml:space="preserve"
     style="font-style:normal;font-variant:normal;font-weight:normal;font-stretch:condensed;font-size:16px;line-height:1.25;font-family:'Noto Sans';-inkscape-font-specification:'Noto Sans, Condensed';font-variant-ligatures:normal;font-variant-caps:normal;font-variant-numeric:normal;font-variant-east-asian:normal;letter-spacing:0px;word-spacing:0px;writing-mode:lr-tb"
     x="504.92456"
     y="174.74222"
     id="text5284"><tspan
       sodipodi:role="line"
       id="tspan5282"
       x="504.92456"
       y="174.74222">0</tspan></text>
  <text
     xml:space="preserve"
     style="font-style:normal;font-variant:normal;font-weight:normal;font-stretch:condensed;font-size:16px;line-height:1.25;font-family:'Noto Sans';-inkscape-font-specification:'Noto Sans, Condensed';font-variant-ligatures:normal;font-variant-caps:normal;font-variant-numeric:normal;font-variant-east-asian:normal;letter-spacing:0px;word-spacing:0px;writing-mode:lr-tb"
     x="504.49255"
     y="212.48593"
     id="text5288"><tspan
       sodipodi:role="line"
       id="tspan5286"
       x="504.49255"
       y="212.48593">1</tspan></text>
  <text
     xml:space="preserve"
     style="font-style:normal;font-variant:normal;font-weight:normal;font-stretch:condensed;font-size:16px;line-height:1.25;font-family:'Noto Sans';-inkscape-font-specification:'Noto Sans, Condensed';font-variant-ligatures:normal;font-variant-caps:normal;font-variant-numeric:normal;font-variant-east-asian:normal;letter-spacing:0px;word-spacing:0px;writing-mode:lr-tb"
     x="505.00455"
     y="250.22964"
     id="text5292"><tspan
       sodipodi:role="line"
       id="tspan5290"
       x="505.00455"
       y="250.22964">2</tspan></text>
  <text
     xml:space="preserve"
     style="font-style:normal;font-variant:normal;font-weight:normal;font-stretch:condensed;font-size:16px;line-height:1.25;font-family:'Noto Sans';-inkscape-font-specification:'Noto Sans, Condensed';font-variant-ligatures:normal;font-variant-caps:normal;font-variant-numeric:normal;font-variant-east-asian:normal;letter-spacing:0px;word-spacing:0px;writing-mode:lr-tb"
     x="504.98856"
     y="287.97336"
     id="text5296"><tspan
       sodipodi:role="line"
       id="tspan5294"
       x="504.98856"
       y="287.97336">3</tspan></text>
  <text
     xml:space="preserve"
     style="font-style:normal;font-variant:normal;font-weight:normal;font-stretch:condensed;font-size:16px;line-height:1.25;font-family:'Noto Sans';-inkscape-font-specification:'Noto Sans, Condensed';font-variant-ligatures:normal;font-variant-caps:normal;font-variant-numeric:normal;font-variant-east-asian:normal;letter-spacing:0px;word-spacing:0px;writing-mode:lr-tb"
     x="505.32455"
     y="325.79706"
     id="text5300"><tspan
       sodipodi:role="line"
       id="tspan5298"
       x="505.32455"
       y="325.79706">4</tspan></text>
  <text
     xml:space="preserve"
     style="font-style:normal;font-variant:normal;font-weight:normal;font-stretch:condensed;font-size:13.3333px;line-height:1.25;font-family:'Noto Sans';-inkscape-font-specification:'Noto Sans, Condensed';font-variant-ligatures:normal;font-variant-caps:normal;font-variant-numeric:normal;font-variant-east-asian:normal;letter-spacing:0px;word-spacing:0px;writing-mode:lr-tb"
     x="76.413773"
     y="484.69708"
     id="text5306"><tspan
       sodipodi:role="line"
       id="tspan5304"
       x="76.413773"
       y="484.69708">10<tspan
   style="font-size:65%;baseline-shift:super"
   id="tspan5308">-6</tspan></tspan></text>
  <text
     xml:space="preserve"
     style="font-style:normal;font-variant:normal;font-weight:normal;font-stretch:condensed;font-size:13.3333px;line-height:1.25;font-family:'Noto Sans';-inkscape-font-specification:'Noto Sans, Condensed';font-variant-ligatures:normal;font-variant-caps:normal;font-variant-numeric:normal;font-variant-east-asian:normal;letter-spacing:0px;word-spacing:0px;writing-mode:lr-tb"
     x="143.20677"
     y="484.65375"
     id="text5306-7"><tspan
       sodipodi:role="line"
       id="tspan5304-8"
       x="143.20677"
       y="484.65375">10<tspan
   style="font-size:65%;baseline-shift:super"
   id="tspan5308-0">-4</tspan></tspan></text>
  <text
     xml:space="preserve"
     style="font-style:normal;font-variant:normal;font-weight:normal;font-stretch:condensed;font-size:13.3333px;line-height:1.25;font-family:'Noto Sans';-inkscape-font-specification:'Noto Sans, Condensed';font-variant-ligatures:normal;font-variant-caps:normal;font-variant-numeric:normal;font-variant-east-asian:normal;letter-spacing:0px;word-spacing:0px;writing-mode:lr-tb"
     x="210.25978"
     y="484.69708"
     id="text5306-9"><tspan
       sodipodi:role="line"
       id="tspan5304-5"
       x="210.25978"
       y="484.69708">10<tspan
   style="font-size:65%;baseline-shift:super"
   id="tspan5308-2">-2</tspan></tspan></text>
  <text
     xml:space="preserve"
     style="font-style:normal;font-variant:normal;font-weight:normal;font-stretch:condensed;font-size:13.3333px;line-height:1.25;font-family:'Noto Sans';-inkscape-font-specification:'Noto Sans, Condensed';font-variant-ligatures:normal;font-variant-caps:normal;font-variant-numeric:normal;font-variant-east-asian:normal;letter-spacing:0px;word-spacing:0px;writing-mode:lr-tb"
     x="265.88379"
     y="484.69708"
     id="text5306-1"><tspan
       sodipodi:role="line"
       id="tspan5304-3"
       x="265.88379"
       y="484.69708">10<tspan
   style="font-size:65%;baseline-shift:super"
   id="tspan5308-27">-6</tspan></tspan></text>
  <text
     xml:space="preserve"
     style="font-style:normal;font-variant:normal;font-weight:normal;font-stretch:condensed;font-size:13.3333px;line-height:1.25;font-family:'Noto Sans';-inkscape-font-specification:'Noto Sans, Condensed';font-variant-ligatures:normal;font-variant-caps:normal;font-variant-numeric:normal;font-variant-east-asian:normal;letter-spacing:0px;word-spacing:0px;writing-mode:lr-tb"
     x="332.67679"
     y="484.65375"
     id="text5306-7-3"><tspan
       sodipodi:role="line"
       id="tspan5304-8-3"
       x="332.67679"
       y="484.65375">10<tspan
   style="font-size:65%;baseline-shift:super"
   id="tspan5308-0-2">-4</tspan></tspan></text>
  <text
     xml:space="preserve"
     style="font-style:normal;font-variant:normal;font-weight:normal;font-stretch:condensed;font-size:13.3333px;line-height:1.25;font-family:'Noto Sans';-inkscape-font-specification:'Noto Sans, Condensed';font-variant-ligatures:normal;font-variant-caps:normal;font-variant-numeric:normal;font-variant-east-asian:normal;letter-spacing:0px;word-spacing:0px;writing-mode:lr-tb"
     x="399.72977"
     y="484.69708"
     id="text5306-9-3"><tspan
       sodipodi:role="line"
       id="tspan5304-5-8"
       x="399.72977"
       y="484.69708">10<tspan
   style="font-size:65%;baseline-shift:super"
   id="tspan5308-2-6">-2</tspan></tspan></text>
  <text
     xml:space="preserve"
     style="font-style:normal;font-variant:normal;font-weight:normal;font-stretch:condensed;font-size:16px;line-height:1.25;font-family:'Noto Sans';-inkscape-font-specification:'Noto Sans, Condensed';font-variant-ligatures:normal;font-variant-caps:normal;font-variant-numeric:normal;font-variant-east-asian:normal;letter-spacing:0px;word-spacing:0px;writing-mode:lr-tb"
     x="187.42484"
     y="508.61838"
     id="text5382"><tspan
       sodipodi:role="line"
       id="tspan5380"
       x="187.42484"
       y="508.61838">[TNP-ATP] (M)</tspan></text>
  <polygon
     points="252.13,267.56 255.48,269.38 258.82,272.07 262.17,275.35 265.52,279.39 268.86,283.82 272.21,289.3 275.55,295.96 278.9,303.72 282.24,313.21 285.59,323.91 288.93,335.5 292.28,347.43 295.62,360.59 298.97,373.85 302.31,386.91 305.66,400.13 309,412.74 312.35,424.04 315.69,434.21 319.04,442.63 322.39,449.18 325.73,454.03 329.08,457.35 332.42,459.51 335.77,460.82 339.11,461.58 342.46,461.99 345.8,462.2 349.15,462.31 352.49,462.36 355.84,462.38 359.18,462.4 362.53,462.4 365.87,462.4 369.22,462.4 372.56,462.4 375.91,462.4 379.26,462.4 382.6,462.4 385.95,462.4 389.29,462.4 392.64,462.4 392.64,462.4 389.29,462.4 385.95,462.4 382.6,462.4 379.26,462.4 375.91,462.4 372.56,462.4 369.22,462.4 365.87,462.4 362.53,462.4 359.18,462.4 355.84,462.4 352.49,462.4 349.15,462.4 345.8,462.4 342.46,462.4 339.11,462.4 335.77,462.4 332.42,462.39 329.08,462.38 325.73,462.35 322.39,462.29 319.04,462.2 315.69,462.05 312.35,461.82 309,461.5 305.66,461.1 302.31,460.62 298.97,460.11 295.62,459.57 292.28,459.07 288.93,458.57 285.59,458.13 282.24,457.72 278.9,457.38 275.55,457.1 272.21,456.85 268.86,456.65 265.52,456.48 262.17,456.33 258.82,456.23 255.48,456.15 252.13,456.08 248.79,456.02 245.44,455.96 242.1,455.93 238.75,455.89 235.41,455.87 232.06,455.86 228.72,455.85 225.37,455.83 225.37,260.3 228.72,260.65 232.06,261.24 235.41,261.82 238.75,262.37 242.1,263.32 245.44,264.28 248.79,265.76 "
     style="fill:#1e88e5;fill-opacity:0.5;stroke:none;stroke-width:0"
     clip-path="url(#cpMjE3LjAxfDQwMS4wMHw0NzIuNTF8MjUwLjE5)"
     id="polygon13350"
     transform="translate(16.930725,-3.8150787)" />
  <polyline
     points="225.37,260.30 228.72,260.65 232.06,261.24 235.41,261.82 238.75,262.37 242.10,263.32 245.44,264.28 248.79,265.76 252.13,267.56 255.48,269.38 258.82,272.07 262.17,275.35 265.52,279.39 268.86,283.82 272.21,289.30 275.55,295.96 278.90,303.72 282.24,313.21 285.59,323.91 288.93,335.50 292.28,347.43 295.62,360.59 298.97,373.85 302.31,386.91 305.66,400.13 309.00,412.74 312.35,424.04 315.69,434.21 319.04,442.63 322.39,449.18 325.73,454.03 329.08,457.35 332.42,459.51 335.77,460.82 339.11,461.58 342.46,461.99 345.80,462.20 349.15,462.31 352.49,462.36 355.84,462.38 359.18,462.40 362.53,462.40 365.87,462.40 369.22,462.40 372.56,462.40 375.91,462.40 379.26,462.40 382.60,462.40 385.95,462.40 389.29,462.40 392.64,462.40 "
     style="stroke:#1e88e5;stroke-width:1.07"
     clip-path="url(#cpMjE3LjAxfDQwMS4wMHw0NzIuNTF8MjUwLjE5)"
     id="polyline13352"
     transform="translate(16.930725,-3.8150787)" />
  <polyline
     points="392.64,462.40 389.29,462.40 385.95,462.40 382.60,462.40 379.26,462.40 375.91,462.40 372.56,462.40 369.22,462.40 365.87,462.40 362.53,462.40 359.18,462.40 355.84,462.40 352.49,462.40 349.15,462.40 345.80,462.40 342.46,462.40 339.11,462.40 335.77,462.40 332.42,462.39 329.08,462.38 325.73,462.35 322.39,462.29 319.04,462.20 315.69,462.05 312.35,461.82 309.00,461.50 305.66,461.10 302.31,460.62 298.97,460.11 295.62,459.57 292.28,459.07 288.93,458.57 285.59,458.13 282.24,457.72 278.90,457.38 275.55,457.10 272.21,456.85 268.86,456.65 265.52,456.48 262.17,456.33 258.82,456.23 255.48,456.15 252.13,456.08 248.79,456.02 245.44,455.96 242.10,455.93 238.75,455.89 235.41,455.87 232.06,455.86 228.72,455.85 225.37,455.83 "
     style="stroke:#1e88e5;stroke-width:1.07"
     clip-path="url(#cpMjE3LjAxfDQwMS4wMHw0NzIuNTF8MjUwLjE5)"
     id="polyline13354"
     transform="translate(16.930725,-3.8150787)" />
  <polygon
     points="252.13,461.74 255.48,461.58 258.82,461.39 262.17,461.16 265.52,460.89 268.86,460.57 272.21,460.22 275.55,459.83 278.9,459.42 282.24,459.01 285.59,458.61 288.93,458.28 292.28,458.06 295.62,457.96 298.97,457.99 302.31,458.19 305.66,458.49 309,458.91 312.35,459.37 315.69,459.86 319.04,460.33 322.39,460.75 325.73,461.14 329.08,461.49 332.42,461.76 335.77,461.97 339.11,462.13 342.46,462.23 345.8,462.3 349.15,462.34 352.49,462.37 355.84,462.38 359.18,462.39 362.53,462.4 365.87,462.4 369.22,462.4 372.56,462.4 375.91,462.4 379.26,462.4 382.6,462.4 385.95,462.4 389.29,462.4 392.64,462.4 392.64,462.4 389.29,462.4 385.95,462.4 382.6,462.4 379.26,462.4 375.91,462.4 372.56,462.4 369.22,462.4 365.87,462.4 362.53,462.4 359.18,462.4 355.84,462.4 352.49,462.4 349.15,462.4 345.8,462.4 342.46,462.4 339.11,462.4 335.77,462.4 332.42,462.4 329.08,462.4 325.73,462.39 322.39,462.39 319.04,462.39 315.69,462.38 312.35,462.38 309,462.38 305.66,462.38 302.31,462.38 298.97,462.38 295.62,462.38 292.28,462.38 288.93,462.39 285.59,462.39 282.24,462.39 278.9,462.39 275.55,462.4 272.21,462.4 268.86,462.4 265.52,462.4 262.17,462.4 258.82,462.4 255.48,462.4 252.13,462.4 248.79,462.4 245.44,462.4 242.1,462.4 238.75,462.4 235.41,462.4 232.06,462.4 228.72,462.4 225.37,462.4 225.37,462.29 228.72,462.26 232.06,462.23 235.41,462.18 238.75,462.13 242.1,462.06 245.44,461.97 248.79,461.87 "
     style="fill:#ffb74d;fill-opacity:0.5;stroke:none;stroke-width:0"
     clip-path="url(#cpMjE3LjAxfDQwMS4wMHw0NzIuNTF8MjUwLjE5)"
     id="polygon13356"
     transform="translate(16.930725,-3.8150787)" />
  <polyline
     points="225.37,462.29 228.72,462.26 232.06,462.23 235.41,462.18 238.75,462.13 242.10,462.06 245.44,461.97 248.79,461.87 252.13,461.74 255.48,461.58 258.82,461.39 262.17,461.16 265.52,460.89 268.86,460.57 272.21,460.22 275.55,459.83 278.90,459.42 282.24,459.01 285.59,458.61 288.93,458.28 292.28,458.06 295.62,457.96 298.97,457.99 302.31,458.19 305.66,458.49 309.00,458.91 312.35,459.37 315.69,459.86 319.04,460.33 322.39,460.75 325.73,461.14 329.08,461.49 332.42,461.76 335.77,461.97 339.11,462.13 342.46,462.23 345.80,462.30 349.15,462.34 352.49,462.37 355.84,462.38 359.18,462.39 362.53,462.40 365.87,462.40 369.22,462.40 372.56,462.40 375.91,462.40 379.26,462.40 382.60,462.40 385.95,462.40 389.29,462.40 392.64,462.40 "
     style="stroke:#ffb74d;stroke-width:1.07"
     clip-path="url(#cpMjE3LjAxfDQwMS4wMHw0NzIuNTF8MjUwLjE5)"
     id="polyline13358"
     transform="translate(16.930725,-3.8150787)" />
  <polyline
     points="392.64,462.40 389.29,462.40 385.95,462.40 382.60,462.40 379.26,462.40 375.91,462.40 372.56,462.40 369.22,462.40 365.87,462.40 362.53,462.40 359.18,462.40 355.84,462.40 352.49,462.40 349.15,462.40 345.80,462.40 342.46,462.40 339.11,462.40 335.77,462.40 332.42,462.40 329.08,462.40 325.73,462.39 322.39,462.39 319.04,462.39 315.69,462.38 312.35,462.38 309.00,462.38 305.66,462.38 302.31,462.38 298.97,462.38 295.62,462.38 292.28,462.38 288.93,462.39 285.59,462.39 282.24,462.39 278.90,462.39 275.55,462.40 272.21,462.40 268.86,462.40 265.52,462.40 262.17,462.40 258.82,462.40 255.48,462.40 252.13,462.40 248.79,462.40 245.44,462.40 242.10,462.40 238.75,462.40 235.41,462.40 232.06,462.40 228.72,462.40 225.37,462.40 "
     style="stroke:#ffb74d;stroke-width:1.07"
     clip-path="url(#cpMjE3LjAxfDQwMS4wMHw0NzIuNTF8MjUwLjE5)"
     id="polyline13360"
     transform="translate(16.930725,-3.8150787)" />
  <polygon
     points="252.13,462.38 255.48,462.37 258.82,462.35 262.17,462.33 265.52,462.29 268.86,462.23 272.21,462.14 275.55,462.01 278.9,461.84 282.24,461.6 285.59,461.28 288.93,460.89 292.28,460.43 295.62,459.93 298.97,459.43 302.31,458.95 305.66,458.58 309,458.36 312.35,458.3 315.69,458.42 319.04,458.66 322.39,459 325.73,459.4 329.08,459.84 332.42,460.28 335.77,460.69 339.11,461.05 342.46,461.37 345.8,461.64 349.15,461.85 352.49,462.01 355.84,462.13 359.18,462.22 362.53,462.28 365.87,462.32 369.22,462.35 372.56,462.37 375.91,462.38 379.26,462.39 382.6,462.39 385.95,462.4 389.29,462.4 392.64,462.4 392.64,462.4 389.29,462.4 385.95,462.4 382.6,462.4 379.26,462.4 375.91,462.4 372.56,462.4 369.22,462.4 365.87,462.4 362.53,462.4 359.18,462.4 355.84,462.4 352.49,462.4 349.15,462.4 345.8,462.4 342.46,462.4 339.11,462.39 335.77,462.39 332.42,462.39 329.08,462.38 325.73,462.38 322.39,462.38 319.04,462.38 315.69,462.38 312.35,462.39 309,462.39 305.66,462.39 302.31,462.39 298.97,462.4 295.62,462.4 292.28,462.4 288.93,462.4 285.59,462.4 282.24,462.4 278.9,462.4 275.55,462.4 272.21,462.4 268.86,462.4 265.52,462.4 262.17,462.4 258.82,462.4 255.48,462.4 252.13,462.4 248.79,462.4 245.44,462.4 242.1,462.4 238.75,462.4 235.41,462.4 232.06,462.4 228.72,462.4 225.37,462.4 228.72,462.4 232.06,462.4 235.41,462.4 238.75,462.4 242.1,462.4 245.44,462.4 248.79,462.39 "
     style="fill:#ff9800;fill-opacity:0.5;stroke:none;stroke-width:0"
     clip-path="url(#cpMjE3LjAxfDQwMS4wMHw0NzIuNTF8MjUwLjE5)"
     id="polygon13362"
     transform="translate(16.930725,-3.8150787)" />
  <polyline
     points="225.37,462.40 228.72,462.40 232.06,462.40 235.41,462.40 238.75,462.40 242.10,462.40 245.44,462.40 248.79,462.39 252.13,462.38 255.48,462.37 258.82,462.35 262.17,462.33 265.52,462.29 268.86,462.23 272.21,462.14 275.55,462.01 278.90,461.84 282.24,461.60 285.59,461.28 288.93,460.89 292.28,460.43 295.62,459.93 298.97,459.43 302.31,458.95 305.66,458.58 309.00,458.36 312.35,458.30 315.69,458.42 319.04,458.66 322.39,459.00 325.73,459.40 329.08,459.84 332.42,460.28 335.77,460.69 339.11,461.05 342.46,461.37 345.80,461.64 349.15,461.85 352.49,462.01 355.84,462.13 359.18,462.22 362.53,462.28 365.87,462.32 369.22,462.35 372.56,462.37 375.91,462.38 379.26,462.39 382.60,462.39 385.95,462.40 389.29,462.40 392.64,462.40 "
     style="stroke:#ff9800;stroke-width:1.07"
     clip-path="url(#cpMjE3LjAxfDQwMS4wMHw0NzIuNTF8MjUwLjE5)"
     id="polyline13364"
     transform="translate(16.930725,-3.8150787)" />
  <polyline
     points="392.64,462.40 389.29,462.40 385.95,462.40 382.60,462.40 379.26,462.40 375.91,462.40 372.56,462.40 369.22,462.40 365.87,462.40 362.53,462.40 359.18,462.40 355.84,462.40 352.49,462.40 349.15,462.40 345.80,462.40 342.46,462.40 339.11,462.39 335.77,462.39 332.42,462.39 329.08,462.38 325.73,462.38 322.39,462.38 319.04,462.38 315.69,462.38 312.35,462.39 309.00,462.39 305.66,462.39 302.31,462.39 298.97,462.40 295.62,462.40 292.28,462.40 288.93,462.40 285.59,462.40 282.24,462.40 278.90,462.40 275.55,462.40 272.21,462.40 268.86,462.40 265.52,462.40 262.17,462.40 258.82,462.40 255.48,462.40 252.13,462.40 248.79,462.40 245.44,462.40 242.10,462.40 238.75,462.40 235.41,462.40 232.06,462.40 228.72,462.40 225.37,462.40 "
     style="stroke:#ff9800;stroke-width:1.07"
     clip-path="url(#cpMjE3LjAxfDQwMS4wMHw0NzIuNTF8MjUwLjE5)"
     id="polyline13366"
     transform="translate(16.930725,-3.8150787)" />
  <polygon
     points="252.13,462.4 255.48,462.4 258.82,462.4 262.17,462.4 265.52,462.4 268.86,462.4 272.21,462.39 275.55,462.38 278.9,462.35 282.24,462.31 285.59,462.25 288.93,462.14 292.28,461.98 295.62,461.73 298.97,461.38 302.31,460.95 305.66,460.41 309,459.83 312.35,459.24 315.69,458.69 319.04,458.22 322.39,457.89 325.73,457.73 329.08,457.68 332.42,457.81 335.77,458.01 339.11,458.33 342.46,458.69 345.8,459.1 349.15,459.49 352.49,459.89 355.84,460.26 359.18,460.59 362.53,460.9 365.87,461.16 369.22,461.38 372.56,461.57 375.91,461.73 379.26,461.86 382.6,461.97 385.95,462.05 389.29,462.12 392.64,462.18 392.64,462.4 389.29,462.4 385.95,462.4 382.6,462.4 379.26,462.4 375.91,462.4 372.56,462.4 369.22,462.4 365.87,462.39 362.53,462.39 359.18,462.39 355.84,462.39 352.49,462.38 349.15,462.38 345.8,462.38 342.46,462.38 339.11,462.38 335.77,462.38 332.42,462.38 329.08,462.38 325.73,462.39 322.39,462.39 319.04,462.39 315.69,462.4 312.35,462.4 309,462.4 305.66,462.4 302.31,462.4 298.97,462.4 295.62,462.4 292.28,462.4 288.93,462.4 285.59,462.4 282.24,462.4 278.9,462.4 275.55,462.4 272.21,462.4 268.86,462.4 265.52,462.4 262.17,462.4 258.82,462.4 255.48,462.4 252.13,462.4 248.79,462.4 245.44,462.4 242.1,462.4 238.75,462.4 235.41,462.4 232.06,462.4 228.72,462.4 225.37,462.4 228.72,462.4 232.06,462.4 235.41,462.4 238.75,462.4 242.1,462.4 245.44,462.4 248.79,462.4 "
     style="fill:#f57c00;fill-opacity:0.5;stroke:none;stroke-width:0"
     clip-path="url(#cpMjE3LjAxfDQwMS4wMHw0NzIuNTF8MjUwLjE5)"
     id="polygon13368"
     transform="translate(16.930725,-3.8150787)" />
  <polyline
     points="225.37,462.40 228.72,462.40 232.06,462.40 235.41,462.40 238.75,462.40 242.10,462.40 245.44,462.40 248.79,462.40 252.13,462.40 255.48,462.40 258.82,462.40 262.17,462.40 265.52,462.40 268.86,462.40 272.21,462.39 275.55,462.38 278.90,462.35 282.24,462.31 285.59,462.25 288.93,462.14 292.28,461.98 295.62,461.73 298.97,461.38 302.31,460.95 305.66,460.41 309.00,459.83 312.35,459.24 315.69,458.69 319.04,458.22 322.39,457.89 325.73,457.73 329.08,457.68 332.42,457.81 335.77,458.01 339.11,458.33 342.46,458.69 345.80,459.10 349.15,459.49 352.49,459.89 355.84,460.26 359.18,460.59 362.53,460.90 365.87,461.16 369.22,461.38 372.56,461.57 375.91,461.73 379.26,461.86 382.60,461.97 385.95,462.05 389.29,462.12 392.64,462.18 "
     style="stroke:#f57c00;stroke-width:1.07"
     clip-path="url(#cpMjE3LjAxfDQwMS4wMHw0NzIuNTF8MjUwLjE5)"
     id="polyline13370"
     transform="translate(16.930725,-3.8150787)" />
  <polyline
     points="392.64,462.40 389.29,462.40 385.95,462.40 382.60,462.40 379.26,462.40 375.91,462.40 372.56,462.40 369.22,462.40 365.87,462.39 362.53,462.39 359.18,462.39 355.84,462.39 352.49,462.38 349.15,462.38 345.80,462.38 342.46,462.38 339.11,462.38 335.77,462.38 332.42,462.38 329.08,462.38 325.73,462.39 322.39,462.39 319.04,462.39 315.69,462.40 312.35,462.40 309.00,462.40 305.66,462.40 302.31,462.40 298.97,462.40 295.62,462.40 292.28,462.40 288.93,462.40 285.59,462.40 282.24,462.40 278.90,462.40 275.55,462.40 272.21,462.40 268.86,462.40 265.52,462.40 262.17,462.40 258.82,462.40 255.48,462.40 252.13,462.40 248.79,462.40 245.44,462.40 242.10,462.40 238.75,462.40 235.41,462.40 232.06,462.40 228.72,462.40 225.37,462.40 "
     style="stroke:#f57c00;stroke-width:1.07"
     clip-path="url(#cpMjE3LjAxfDQwMS4wMHw0NzIuNTF8MjUwLjE5)"
     id="polyline13372"
     transform="translate(16.930725,-3.8150787)" />
  <polygon
     points="252.13,462.4 255.48,462.4 258.82,462.4 262.17,462.4 265.52,462.4 268.86,462.4 272.21,462.4 275.55,462.4 278.9,462.4 282.24,462.4 285.59,462.4 288.93,462.39 292.28,462.37 295.62,462.33 298.97,462.27 302.31,462.16 305.66,461.99 309,461.74 312.35,461.38 315.69,460.91 319.04,460.33 322.39,459.66 325.73,458.91 329.08,458.1 332.42,457.32 335.77,456.5 339.11,455.73 342.46,454.99 345.8,454.34 349.15,453.74 352.49,453.24 355.84,452.78 359.18,452.4 362.53,452.1 365.87,451.81 369.22,451.58 372.56,451.38 375.91,451.24 379.26,451.12 382.6,451.01 385.95,450.95 389.29,450.9 392.64,450.85 392.64,462.34 389.29,462.34 385.95,462.34 382.6,462.34 379.26,462.35 375.91,462.35 372.56,462.35 369.22,462.35 365.87,462.35 362.53,462.35 359.18,462.36 355.84,462.36 352.49,462.36 349.15,462.37 345.8,462.37 342.46,462.38 339.11,462.38 335.77,462.39 332.42,462.39 329.08,462.4 325.73,462.4 322.39,462.4 319.04,462.4 315.69,462.4 312.35,462.4 309,462.4 305.66,462.4 302.31,462.4 298.97,462.4 295.62,462.4 292.28,462.4 288.93,462.4 285.59,462.4 282.24,462.4 278.9,462.4 275.55,462.4 272.21,462.4 268.86,462.4 265.52,462.4 262.17,462.4 258.82,462.4 255.48,462.4 252.13,462.4 248.79,462.4 245.44,462.4 242.1,462.4 238.75,462.4 235.41,462.4 232.06,462.4 228.72,462.4 225.37,462.4 228.72,462.4 232.06,462.4 235.41,462.4 238.75,462.4 242.1,462.4 245.44,462.4 248.79,462.4 "
     style="fill:#e65100;fill-opacity:0.5;stroke:none;stroke-width:0"
     clip-path="url(#cpMjE3LjAxfDQwMS4wMHw0NzIuNTF8MjUwLjE5)"
     id="polygon13374"
     transform="translate(16.930725,-3.8150787)" />
  <polyline
     points="225.37,462.40 228.72,462.40 232.06,462.40 235.41,462.40 238.75,462.40 242.10,462.40 245.44,462.40 248.79,462.40 252.13,462.40 255.48,462.40 258.82,462.40 262.17,462.40 265.52,462.40 268.86,462.40 272.21,462.40 275.55,462.40 278.90,462.40 282.24,462.40 285.59,462.40 288.93,462.39 292.28,462.37 295.62,462.33 298.97,462.27 302.31,462.16 305.66,461.99 309.00,461.74 312.35,461.38 315.69,460.91 319.04,460.33 322.39,459.66 325.73,458.91 329.08,458.10 332.42,457.32 335.77,456.50 339.11,455.73 342.46,454.99 345.80,454.34 349.15,453.74 352.49,453.24 355.84,452.78 359.18,452.40 362.53,452.10 365.87,451.81 369.22,451.58 372.56,451.38 375.91,451.24 379.26,451.12 382.60,451.01 385.95,450.95 389.29,450.90 392.64,450.85 "
     style="stroke:#e65100;stroke-width:1.07"
     clip-path="url(#cpMjE3LjAxfDQwMS4wMHw0NzIuNTF8MjUwLjE5)"
     id="polyline13376"
     transform="translate(16.930725,-3.8150787)" />
  <polyline
     points="392.64,462.34 389.29,462.34 385.95,462.34 382.60,462.34 379.26,462.35 375.91,462.35 372.56,462.35 369.22,462.35 365.87,462.35 362.53,462.35 359.18,462.36 355.84,462.36 352.49,462.36 349.15,462.37 345.80,462.37 342.46,462.38 339.11,462.38 335.77,462.39 332.42,462.39 329.08,462.40 325.73,462.40 322.39,462.40 319.04,462.40 315.69,462.40 312.35,462.40 309.00,462.40 305.66,462.40 302.31,462.40 298.97,462.40 295.62,462.40 292.28,462.40 288.93,462.40 285.59,462.40 282.24,462.40 278.90,462.40 275.55,462.40 272.21,462.40 268.86,462.40 265.52,462.40 262.17,462.40 258.82,462.40 255.48,462.40 252.13,462.40 248.79,462.40 245.44,462.40 242.10,462.40 238.75,462.40 235.41,462.40 232.06,462.40 228.72,462.40 225.37,462.40 "
     style="stroke:#e65100;stroke-width:1.07"
     clip-path="url(#cpMjE3LjAxfDQwMS4wMHw0NzIuNTF8MjUwLjE5)"
     id="polyline13378"
     transform="translate(16.930725,-3.8150787)" />
</svg>
