<?xml version="1.0" encoding="UTF-8" standalone="no"?>
<svg
   xmlns:dc="http://purl.org/dc/elements/1.1/"
   xmlns:cc="http://creativecommons.org/ns#"
   xmlns:rdf="http://www.w3.org/1999/02/22-rdf-syntax-ns#"
   xmlns:svg="http://www.w3.org/2000/svg"
   xmlns="http://www.w3.org/2000/svg"
   xmlns:sodipodi="http://sodipodi.sourceforge.net/DTD/sodipodi-0.dtd"
   xmlns:inkscape="http://www.inkscape.org/namespaces/inkscape"
   viewBox="0 0 340.84182 148.55664"
   version="1.1"
   id="svg31753"
   sodipodi:docname="gfp_ofp_contrasts_2.svg"
   width="340.84183"
   height="148.55664"
   inkscape:version="1.0.1 (3bc2e813f5, 2020-09-07, custom)">
  <metadata
     id="metadata31757">
    <rdf:RDF>
      <cc:Work
         rdf:about="">
        <dc:format>image/svg+xml</dc:format>
        <dc:type
           rdf:resource="http://purl.org/dc/dcmitype/StillImage" />
        <dc:title></dc:title>
      </cc:Work>
    </rdf:RDF>
  </metadata>
  <sodipodi:namedview
     pagecolor="#ffffff"
     bordercolor="#666666"
     borderopacity="1"
     objecttolerance="10"
     gridtolerance="10"
     guidetolerance="10"
     inkscape:pageopacity="0"
     inkscape:pageshadow="2"
     inkscape:window-width="1366"
     inkscape:window-height="768"
     id="namedview31755"
     showgrid="false"
     inkscape:zoom="0.5843254"
     inkscape:cx="-67.198171"
     inkscape:cy="145.7537"
     inkscape:window-x="0"
     inkscape:window-y="0"
     inkscape:window-maximized="0"
     inkscape:current-layer="svg31753"
     inkscape:document-rotation="0" />
  <defs
     id="defs31523">
    <style
       type="text/css"
       id="style31521"><![CDATA[
    line, polyline, polygon, path, rect, circle {
      fill: none;
      stroke: #000000;
      stroke-linecap: round;
      stroke-linejoin: round;
      stroke-miterlimit: 10.00;
    }
  ]]></style>
    <clipPath
       id="cpMTgxLjU2fDQzNi4yM3w0NzIuNTF8NS40OA==-3">
      <rect
         x="181.56"
         y="5.48"
         width="254.67"
         height="467.03"
         id="rect31529-2" />
    </clipPath>
    <clipPath
       id="clipPath8613">
      <rect
         x="181.56"
         y="5.48"
         width="254.67"
         height="467.03"
         id="rect8611" />
    </clipPath>
    <clipPath
       id="clipPath8617">
      <rect
         x="181.56"
         y="5.48"
         width="254.67"
         height="467.03"
         id="rect8615" />
    </clipPath>
    <clipPath
       id="clipPath8621">
      <rect
         x="181.56"
         y="5.48"
         width="254.67"
         height="467.03"
         id="rect8619" />
    </clipPath>
    <clipPath
       id="clipPath8625">
      <rect
         x="181.56"
         y="5.48"
         width="254.67"
         height="467.03"
         id="rect8623" />
    </clipPath>
    <clipPath
       id="clipPath8629">
      <rect
         x="181.56"
         y="5.48"
         width="254.67"
         height="467.03"
         id="rect8627" />
    </clipPath>
    <clipPath
       id="clipPath8633">
      <rect
         x="181.56"
         y="5.48"
         width="254.67"
         height="467.03"
         id="rect8631" />
    </clipPath>
    <clipPath
       id="clipPath8637">
      <rect
         x="181.56"
         y="5.48"
         width="254.67"
         height="467.03"
         id="rect8635" />
    </clipPath>
    <clipPath
       id="clipPath8641">
      <rect
         x="181.56"
         y="5.48"
         width="254.67"
         height="467.03"
         id="rect8639" />
    </clipPath>
    <clipPath
       id="clipPath8645">
      <rect
         x="181.56"
         y="5.48"
         width="254.67"
         height="467.03"
         id="rect8643" />
    </clipPath>
    <clipPath
       id="clipPath8649">
      <rect
         x="181.56"
         y="5.48"
         width="254.67"
         height="467.03"
         id="rect8647" />
    </clipPath>
    <clipPath
       id="clipPath8653">
      <rect
         x="181.56"
         y="5.48"
         width="254.67"
         height="467.03"
         id="rect8651" />
    </clipPath>
    <clipPath
       id="clipPath8657">
      <rect
         x="181.56"
         y="5.48"
         width="254.67"
         height="467.03"
         id="rect8655" />
    </clipPath>
    <clipPath
       id="clipPath8661">
      <rect
         x="181.56"
         y="5.48"
         width="254.67"
         height="467.03"
         id="rect8659" />
    </clipPath>
    <clipPath
       id="clipPath8665">
      <rect
         x="181.56"
         y="5.48"
         width="254.67"
         height="467.03"
         id="rect8663" />
    </clipPath>
    <clipPath
       id="clipPath8669">
      <rect
         x="181.56"
         y="5.48"
         width="254.67"
         height="467.03"
         id="rect8667" />
    </clipPath>
    <clipPath
       id="clipPath8673">
      <rect
         x="181.56"
         y="5.48"
         width="254.67"
         height="467.03"
         id="rect8671" />
    </clipPath>
    <clipPath
       id="clipPath8677">
      <rect
         x="181.56"
         y="5.48"
         width="254.67"
         height="467.03"
         id="rect8675" />
    </clipPath>
    <clipPath
       id="clipPath8681">
      <rect
         x="181.56"
         y="5.48"
         width="254.67"
         height="467.03"
         id="rect8679" />
    </clipPath>
    <clipPath
       id="clipPath8685">
      <rect
         x="181.56"
         y="5.48"
         width="254.67"
         height="467.03"
         id="rect8683" />
    </clipPath>
    <clipPath
       id="clipPath8689">
      <rect
         x="181.56"
         y="5.48"
         width="254.67"
         height="467.03"
         id="rect8687" />
    </clipPath>
    <clipPath
       id="clipPath8693">
      <rect
         x="181.56"
         y="5.48"
         width="254.67"
         height="467.03"
         id="rect8691" />
    </clipPath>
    <clipPath
       id="clipPath8697">
      <rect
         x="181.56"
         y="5.48"
         width="254.67"
         height="467.03"
         id="rect8695" />
    </clipPath>
    <clipPath
       id="clipPath8701">
      <rect
         x="181.56"
         y="5.48"
         width="254.67"
         height="467.03"
         id="rect8699" />
    </clipPath>
    <clipPath
       id="clipPath8705">
      <rect
         x="181.56"
         y="5.48"
         width="254.67"
         height="467.03"
         id="rect8703" />
    </clipPath>
    <clipPath
       id="clipPath8709">
      <rect
         x="181.56"
         y="5.48"
         width="254.67"
         height="467.03"
         id="rect8707" />
    </clipPath>
    <clipPath
       id="clipPath8713">
      <rect
         x="181.56"
         y="5.48"
         width="254.67"
         height="467.03"
         id="rect8711" />
    </clipPath>
    <clipPath
       id="clipPath8717">
      <rect
         x="181.56"
         y="5.48"
         width="254.67"
         height="467.03"
         id="rect8715" />
    </clipPath>
    <clipPath
       id="clipPath8721">
      <rect
         x="181.56"
         y="5.48"
         width="254.67"
         height="467.03"
         id="rect8719" />
    </clipPath>
    <clipPath
       id="clipPath8725">
      <rect
         x="181.56"
         y="5.48"
         width="254.67"
         height="467.03"
         id="rect8723" />
    </clipPath>
    <clipPath
       id="clipPath8729">
      <rect
         x="181.56"
         y="5.48"
         width="254.67"
         height="467.03"
         id="rect8727" />
    </clipPath>
    <clipPath
       id="clipPath8733">
      <rect
         x="181.56"
         y="5.48"
         width="254.67"
         height="467.03"
         id="rect8731" />
    </clipPath>
    <clipPath
       id="clipPath8737">
      <rect
         x="181.56"
         y="5.48"
         width="254.67"
         height="467.03"
         id="rect8735" />
    </clipPath>
    <clipPath
       id="clipPath8741">
      <rect
         x="181.56"
         y="5.48"
         width="254.67"
         height="467.03"
         id="rect8739" />
    </clipPath>
    <clipPath
       id="clipPath8745">
      <rect
         x="181.56"
         y="5.48"
         width="254.67"
         height="467.03"
         id="rect8743" />
    </clipPath>
    <clipPath
       id="clipPath8749">
      <rect
         x="181.56"
         y="5.48"
         width="254.67"
         height="467.03"
         id="rect8747" />
    </clipPath>
    <clipPath
       id="clipPath8753">
      <rect
         x="181.56"
         y="5.48"
         width="254.67"
         height="467.03"
         id="rect8751" />
    </clipPath>
    <clipPath
       id="clipPath8757">
      <rect
         x="181.56"
         y="5.48"
         width="254.67"
         height="467.03"
         id="rect8755" />
    </clipPath>
    <clipPath
       id="clipPath8761">
      <rect
         x="181.56"
         y="5.48"
         width="254.67"
         height="467.03"
         id="rect8759" />
    </clipPath>
    <clipPath
       id="clipPath8765">
      <rect
         x="181.56"
         y="5.48"
         width="254.67"
         height="467.03"
         id="rect8763" />
    </clipPath>
    <clipPath
       id="clipPath8769">
      <rect
         x="181.56"
         y="5.48"
         width="254.67"
         height="467.03"
         id="rect8767" />
    </clipPath>
    <clipPath
       id="clipPath8773">
      <rect
         x="181.56"
         y="5.48"
         width="254.67"
         height="467.03"
         id="rect8771" />
    </clipPath>
    <clipPath
       id="clipPath8777">
      <rect
         x="181.56"
         y="5.48"
         width="254.67"
         height="467.03"
         id="rect8775" />
    </clipPath>
    <clipPath
       id="clipPath8781">
      <rect
         x="181.56"
         y="5.48"
         width="254.67"
         height="467.03"
         id="rect8779" />
    </clipPath>
    <clipPath
       id="clipPath8785">
      <rect
         x="181.56"
         y="5.48"
         width="254.67"
         height="467.03"
         id="rect8783" />
    </clipPath>
    <clipPath
       id="clipPath8789">
      <rect
         x="181.56"
         y="5.48"
         width="254.67"
         height="467.03"
         id="rect8787" />
    </clipPath>
    <clipPath
       id="clipPath8793">
      <rect
         x="181.56"
         y="5.48"
         width="254.67"
         height="467.03"
         id="rect8791" />
    </clipPath>
    <clipPath
       id="clipPath8797">
      <rect
         x="181.56"
         y="5.48"
         width="254.67"
         height="467.03"
         id="rect8795" />
    </clipPath>
    <clipPath
       id="clipPath8801">
      <rect
         x="181.56"
         y="5.48"
         width="254.67"
         height="467.03"
         id="rect8799" />
    </clipPath>
    <clipPath
       id="cpMC4wMHw1MDQuMDB8NTA0LjAwfDAuMDA=-7">
      <rect
         x="0"
         y="0"
         width="504"
         height="504"
         id="rect31662-3" />
    </clipPath>
    <clipPath
       id="clipPath8807">
      <rect
         x="0"
         y="0"
         width="504"
         height="504"
         id="rect8805" />
    </clipPath>
    <clipPath
       id="clipPath8811">
      <rect
         x="0"
         y="0"
         width="504"
         height="504"
         id="rect8809" />
    </clipPath>
    <clipPath
       id="cpMTgxLjU2fDQzNi4yM3w0NzIuNTF8NS40OA==-9">
      <rect
         x="181.56"
         y="5.48"
         width="254.67"
         height="467.03"
         id="rect31529-1" />
    </clipPath>
    <clipPath
       clipPathUnits="userSpaceOnUse"
       id="clipPath9425">
      <rect
         x="181.56"
         y="5.48"
         width="254.67"
         height="467.03"
         style="fill:#efebe9;stroke:none;stroke-width:1.07;stroke-linecap:round;stroke-linejoin:round;stroke-miterlimit:10"
         clip-path="url(#cpMTgxLjU2fDQzNi4yM3w0NzIuNTF8NS40OA==-9)"
         id="rect9427"
         transform="matrix(0.89324953,0,0,0.7929417,46.567757,74.7608)" />
    </clipPath>
  </defs>
  <defs
     id="defs31532">
    <clipPath
       id="cpMTgxLjU2fDQzNi4yM3w0NzIuNTF8NS40OA==">
      <rect
         x="181.56"
         y="5.48"
         width="254.67"
         height="467.03"
         id="rect31529" />
    </clipPath>
  </defs>
  <rect
     x="181.56"
     y="5.48"
     width="254.67"
     height="467.03"
     style="fill:#efebe9;stroke:none;stroke-width:1.07"
     clip-path="url(#cpMTgxLjU2fDQzNi4yM3w0NzIuNTF8NS40OA==)"
     id="rect31534"
     transform="matrix(0.73374413,0,0,0.25652166,-21.489649,-1.4057363)" />
  <path
     id="polyline31548"
     clip-path="none"
     style="fill:none;stroke:#ffffff;stroke-width:0.856589;stroke-linecap:butt;stroke-linejoin:round;stroke-miterlimit:10;stroke-dasharray:none"
     d="m 111.72893,108.65637 c 62.28754,0 124.57508,0 186.86262,0" />
  <path
     id="polyline31552"
     clip-path="none"
     style="fill:none;stroke:#ffffff;stroke-width:0.856589;stroke-linecap:butt;stroke-linejoin:round;stroke-miterlimit:10;stroke-dasharray:none"
     d="m 111.72893,51.32388 c 62.28754,0 124.57508,0 186.86262,0" />
  <path
     id="polyline31554"
     clip-path="none"
     style="fill:none;stroke:#ffffff;stroke-width:0.725045;stroke-linecap:butt;stroke-linejoin:round;stroke-miterlimit:10;stroke-dasharray:none"
     d="m 153.93279,119.80332 c 0,-39.934441 0,-79.868878 0,-119.80332" />
  <path
     id="polyline31556"
     clip-path="none"
     style="fill:none;stroke:#ffffff;stroke-width:0.725045;stroke-linecap:butt;stroke-linejoin:round;stroke-miterlimit:10;stroke-dasharray:none"
     d="m 240.58279,119.80332 c 0,-39.934441 0,-79.868878 0,-119.80332" />
  <path
     id="polyline31558"
     clip-path="none"
     style="fill:none;stroke:#ffffff;stroke-width:0.725045;stroke-linecap:butt;stroke-linejoin:round;stroke-miterlimit:10;stroke-dasharray:none"
     d="m 291.26279,119.80332 c 0,-39.934441 0,-79.868878 0,-119.80332" />
  <polyline
     points="228.83,88.75 229.19,88.74 229.55,88.74 229.91,88.74 230.27,88.74 230.63,88.73 230.99,88.73 231.35,88.73 231.71,88.73 232.07,88.72 232.43,88.72 232.79,88.71 233.14,88.71 233.50,88.70 233.86,88.69 234.22,88.68 234.58,88.68 234.94,88.67 235.30,88.66 235.66,88.66 236.02,88.65 236.38,88.65 236.74,88.66 237.10,88.66 237.46,88.67 237.82,88.67 238.18,88.68 238.54,88.69 238.90,88.70 239.26,88.71 239.62,88.72 239.98,88.73 240.34,88.73 240.70,88.73 241.06,88.73 241.42,88.72 241.78,88.71 242.13,88.70 242.49,88.68 242.85,88.66 243.21,88.64 243.57,88.61 243.93,88.58 244.29,88.55 244.65,88.52 245.01,88.48 245.37,88.45 245.73,88.41 246.09,88.37 246.45,88.34 246.81,88.30 247.17,88.26 247.53,88.23 247.89,88.19 248.25,88.15 248.61,88.12 248.97,88.08 249.33,88.05 249.69,88.01 250.05,87.98 250.41,87.95 250.76,87.92 251.12,87.89 251.48,87.86 251.84,87.83 252.20,87.79 252.56,87.76 252.92,87.72 253.28,87.68 253.64,87.63 254.00,87.58 254.36,87.52 254.72,87.45 255.08,87.38 255.44,87.31 255.80,87.22 256.16,87.14 256.52,87.04 256.88,86.95 257.24,86.84 257.60,86.74 257.96,86.64 258.32,86.53 258.68,86.43 259.04,86.33 259.40,86.24 259.75,86.14 260.11,86.05 260.47,85.97 260.83,85.89 261.19,85.81 261.55,85.74 261.91,85.67 262.27,85.59 262.63,85.52 262.99,85.44 263.35,85.36 263.71,85.28 264.07,85.18 264.43,85.08 264.79,84.97 265.15,84.86 265.51,84.73 265.87,84.60 266.23,84.46 266.59,84.31 266.95,84.16 267.31,84.00 267.67,83.83 268.03,83.65 268.39,83.46 268.74,83.26 269.10,83.05 269.46,82.83 269.82,82.59 270.18,82.34 270.54,82.07 270.90,81.78 271.26,81.48 271.62,81.16 271.98,80.83 272.34,80.48 272.70,80.11 273.06,79.73 273.24,79.53 273.24,88.88 273.06,88.88 272.70,88.88 272.34,88.88 271.98,88.88 271.62,88.88 271.26,88.88 270.90,88.88 270.54,88.88 270.18,88.88 269.82,88.88 269.46,88.88 269.10,88.88 268.74,88.88 268.39,88.88 268.03,88.88 267.67,88.88 267.31,88.88 266.95,88.88 266.59,88.88 266.23,88.88 265.87,88.88 265.51,88.88 265.15,88.88 264.79,88.88 264.43,88.88 264.07,88.88 263.71,88.88 263.35,88.88 262.99,88.88 262.63,88.88 262.27,88.88 261.91,88.88 261.55,88.88 261.19,88.88 260.83,88.88 260.47,88.88 260.11,88.88 259.75,88.88 259.40,88.88 259.04,88.88 258.68,88.88 258.32,88.88 257.96,88.88 257.60,88.88 257.24,88.88 256.88,88.88 256.52,88.88 256.16,88.88 255.80,88.88 255.44,88.88 255.08,88.88 254.72,88.88 254.36,88.88 254.00,88.88 253.64,88.88 253.28,88.88 252.92,88.88 252.56,88.88 252.20,88.88 251.84,88.88 251.48,88.88 251.12,88.88 250.76,88.88 250.41,88.88 250.05,88.88 249.69,88.88 249.33,88.88 248.97,88.88 248.61,88.88 248.25,88.88 247.89,88.88 247.53,88.88 247.17,88.88 246.81,88.88 246.45,88.88 246.09,88.88 245.73,88.88 245.37,88.88 245.01,88.88 244.65,88.88 244.29,88.88 243.93,88.88 243.57,88.88 243.21,88.88 242.85,88.88 242.49,88.88 242.13,88.88 241.78,88.88 241.42,88.88 241.06,88.88 240.70,88.88 240.34,88.88 239.98,88.88 239.62,88.88 239.26,88.88 238.90,88.88 238.54,88.88 238.18,88.88 237.82,88.88 237.46,88.88 237.10,88.88 236.74,88.88 236.38,88.88 236.02,88.88 235.66,88.88 235.30,88.88 234.94,88.88 234.58,88.88 234.22,88.88 233.86,88.88 233.50,88.88 233.14,88.88 232.79,88.88 232.43,88.88 232.07,88.88 231.71,88.88 231.35,88.88 230.99,88.88 230.63,88.88 230.27,88.88 229.91,88.88 229.55,88.88 229.19,88.88 228.83,88.88 228.83,88.75 "
     style="fill:#ffffff;stroke:none;stroke-width:2.13"
     clip-path="url(#cpMTgxLjU2fDQzNi4yM3w0NzIuNTF8NS40OA==)"
     id="polyline31560"
     transform="matrix(1,0,0,0.61539412,-97.017206,-3.37235)" />
  <polygon
     points="274.86,77.65 275.22,77.21 275.58,76.76 275.94,76.31 276.3,75.85 276.66,75.39 277.02,74.93 277.37,74.46 277.73,73.99 278.09,73.51 278.45,73.03 278.81,72.54 279.17,72.05 279.53,71.54 279.89,71.03 280.25,70.5 280.61,69.97 280.97,69.42 281.33,68.86 281.69,68.28 282.05,67.7 282.41,67.1 282.77,66.48 283.13,65.86 283.49,65.21 283.85,64.55 284.21,63.88 284.57,63.18 284.93,62.47 285.29,61.73 285.65,60.98 286.01,60.2 286.36,59.41 286.72,58.59 286.9,58.18 286.9,88.88 286.72,88.88 286.36,88.88 286.01,88.88 285.65,88.88 285.29,88.88 284.93,88.88 284.57,88.88 284.21,88.88 283.85,88.88 283.49,88.88 283.13,88.88 282.77,88.88 282.41,88.88 282.05,88.88 281.69,88.88 281.33,88.88 280.97,88.88 280.61,88.88 280.25,88.88 279.89,88.88 279.53,88.88 279.17,88.88 278.81,88.88 278.45,88.88 278.09,88.88 277.73,88.88 277.37,88.88 277.02,88.88 276.66,88.88 276.3,88.88 275.94,88.88 275.58,88.88 275.22,88.88 274.86,88.88 274.5,88.88 274.14,88.88 273.78,88.88 273.42,88.88 273.24,88.88 273.24,79.53 273.42,79.33 273.78,78.93 274.14,78.51 274.5,78.08 "
     style="fill:#bbdefb;stroke:none;stroke-width:2.13"
     clip-path="url(#cpMTgxLjU2fDQzNi4yM3w0NzIuNTF8NS40OA==)"
     id="polygon31562"
     transform="matrix(1,0,0,0.61539412,-97.017206,-3.37235)" />
  <polygon
     points="288.52,54.33 288.88,53.46 289.24,52.59 289.6,51.72 289.96,50.85 290.32,49.99 290.68,49.13 291.04,48.27 291.4,47.42 291.76,46.57 292.12,45.71 292.48,44.86 292.84,44.01 293.2,43.16 293.56,42.32 293.92,41.47 294.28,40.63 294.64,39.79 295,38.96 295.35,38.14 295.71,37.32 296.07,36.52 296.43,35.73 296.79,34.95 297.15,34.18 297.51,33.42 297.87,32.67 298.23,31.92 298.41,31.55 298.41,88.88 298.23,88.88 297.87,88.88 297.51,88.88 297.15,88.88 296.79,88.88 296.43,88.88 296.07,88.88 295.71,88.88 295.35,88.88 295,88.88 294.64,88.88 294.28,88.88 293.92,88.88 293.56,88.88 293.2,88.88 292.84,88.88 292.48,88.88 292.12,88.88 291.76,88.88 291.4,88.88 291.04,88.88 290.68,88.88 290.32,88.88 289.96,88.88 289.6,88.88 289.24,88.88 288.88,88.88 288.52,88.88 288.16,88.88 287.8,88.88 287.44,88.88 287.08,88.88 286.9,88.88 286.9,58.18 287.08,57.76 287.44,56.92 287.8,56.06 288.16,55.2 "
     style="fill:#2196f3;stroke:none;stroke-width:2.13"
     clip-path="url(#cpMTgxLjU2fDQzNi4yM3w0NzIuNTF8NS40OA==)"
     id="polygon31564"
     transform="matrix(1,0,0,0.61539412,-97.017206,-3.37235)" />
  <polygon
     points="300.03,28.23 300.39,27.5 300.75,26.78 301.11,26.06 301.47,25.35 301.83,24.66 302.19,23.99 302.55,23.34 302.91,22.71 303.27,22.12 303.63,21.55 303.98,21.02 304.34,20.52 304.7,20.06 305.06,19.63 305.42,19.23 305.78,18.86 306.14,18.52 306.5,18.21 306.86,17.92 307.22,17.65 307.58,17.41 307.94,17.2 308.3,17 308.66,16.83 309.02,16.68 309.38,16.54 309.74,16.43 310.1,16.33 310.46,16.26 310.82,16.2 311.18,16.16 311.54,16.15 311.9,16.16 312.26,16.19 312.62,16.25 312.97,16.34 313.33,16.46 313.69,16.6 314.05,16.79 314.41,17 314.77,17.24 315.13,17.52 315.49,17.83 315.85,18.18 316.21,18.55 316.57,18.96 316.93,19.39 317.29,19.86 317.65,20.35 318.01,20.86 318.37,21.4 318.73,21.94 319.09,22.5 319.45,23.07 319.81,23.64 320.17,24.21 320.53,24.77 320.89,25.33 321.25,25.88 321.61,26.42 321.96,26.97 322.32,27.52 322.68,28.08 323.04,28.66 323.22,28.96 323.22,88.88 323.04,88.88 322.68,88.88 322.32,88.88 321.96,88.88 321.61,88.88 321.25,88.88 320.89,88.88 320.53,88.88 320.17,88.88 319.81,88.88 319.45,88.88 319.09,88.88 318.73,88.88 318.37,88.88 318.01,88.88 317.65,88.88 317.29,88.88 316.93,88.88 316.57,88.88 316.21,88.88 315.85,88.88 315.49,88.88 315.13,88.88 314.77,88.88 314.41,88.88 314.05,88.88 313.69,88.88 313.33,88.88 312.97,88.88 312.62,88.88 312.26,88.88 311.9,88.88 311.54,88.88 311.18,88.88 310.82,88.88 310.46,88.88 310.1,88.88 309.74,88.88 309.38,88.88 309.02,88.88 308.66,88.88 308.3,88.88 307.94,88.88 307.58,88.88 307.22,88.88 306.86,88.88 306.5,88.88 306.14,88.88 305.78,88.88 305.42,88.88 305.06,88.88 304.7,88.88 304.34,88.88 303.98,88.88 303.63,88.88 303.27,88.88 302.91,88.88 302.55,88.88 302.19,88.88 301.83,88.88 301.47,88.88 301.11,88.88 300.75,88.88 300.39,88.88 300.03,88.88 299.67,88.88 299.31,88.88 298.95,88.88 298.59,88.88 298.41,88.88 298.41,31.55 298.59,31.18 298.95,30.44 299.31,29.7 299.67,28.97 "
     style="fill:#0d47a1;stroke:none;stroke-width:2.13"
     clip-path="url(#cpMTgxLjU2fDQzNi4yM3w0NzIuNTF8NS40OA==)"
     id="polygon31566"
     transform="matrix(1,0,0,0.61539412,-97.017206,-3.37235)" />
  <polygon
     points="324.84,32.12 325.2,32.99 325.56,33.91 325.92,34.91 326.28,35.95 326.64,37.05 327,38.2 327.36,39.38 327.72,40.57 328.08,41.78 328.44,42.99 328.8,44.18 329.16,45.33 329.52,46.45 329.88,47.53 330.24,48.55 330.59,49.53 330.95,50.45 331.31,51.32 331.67,52.14 332.03,52.93 332.39,53.68 332.75,54.41 333.11,55.12 333.47,55.81 333.83,56.51 334.19,57.21 334.37,57.56 334.37,88.88 334.19,88.88 333.83,88.88 333.47,88.88 333.11,88.88 332.75,88.88 332.39,88.88 332.03,88.88 331.67,88.88 331.31,88.88 330.95,88.88 330.59,88.88 330.24,88.88 329.88,88.88 329.52,88.88 329.16,88.88 328.8,88.88 328.44,88.88 328.08,88.88 327.72,88.88 327.36,88.88 327,88.88 326.64,88.88 326.28,88.88 325.92,88.88 325.56,88.88 325.2,88.88 324.84,88.88 324.48,88.88 324.12,88.88 323.76,88.88 323.4,88.88 323.22,88.88 323.22,28.96 323.4,29.26 323.76,29.9 324.12,30.59 324.48,31.32 "
     style="fill:#2196f3;stroke:none;stroke-width:2.13"
     clip-path="url(#cpMTgxLjU2fDQzNi4yM3w0NzIuNTF8NS40OA==)"
     id="polygon31568"
     transform="matrix(1,0,0,0.61539412,-97.017206,-3.37235)" />
  <polygon
     points="335.99,60.79 336.35,61.53 336.71,62.26 337.07,62.99 337.43,63.72 337.79,64.44 338.15,65.15 338.51,65.84 338.87,66.53 339.23,67.2 339.58,67.85 339.94,68.49 340.3,69.11 340.66,69.73 341.02,70.32 341.38,70.91 341.74,71.49 342.1,72.06 342.46,72.62 342.82,73.18 343.18,73.73 343.54,74.27 343.9,74.8 344.26,75.32 344.62,75.83 344.98,76.33 345.34,76.8 345.7,77.26 346.06,77.7 346.42,78.11 346.78,78.49 347.14,78.86 347.5,79.19 347.86,79.5 348.22,79.79 348.39,79.92 348.39,88.88 348.22,88.88 347.86,88.88 347.5,88.88 347.14,88.88 346.78,88.88 346.42,88.88 346.06,88.88 345.7,88.88 345.34,88.88 344.98,88.88 344.62,88.88 344.26,88.88 343.9,88.88 343.54,88.88 343.18,88.88 342.82,88.88 342.46,88.88 342.1,88.88 341.74,88.88 341.38,88.88 341.02,88.88 340.66,88.88 340.3,88.88 339.94,88.88 339.58,88.88 339.23,88.88 338.87,88.88 338.51,88.88 338.15,88.88 337.79,88.88 337.43,88.88 337.07,88.88 336.71,88.88 336.35,88.88 335.99,88.88 335.63,88.88 335.27,88.88 334.91,88.88 334.55,88.88 334.37,88.88 334.37,57.56 334.55,57.91 334.91,58.62 335.27,59.34 335.63,60.06 "
     style="fill:#bbdefb;stroke:none;stroke-width:2.13"
     clip-path="url(#cpMTgxLjU2fDQzNi4yM3w0NzIuNTF8NS40OA==)"
     id="polygon31570"
     transform="matrix(1,0,0,0.61539412,-97.017206,-3.37235)" />
  <polyline
     points="348.39,79.92 348.57,80.05 348.93,80.29 349.29,80.52 349.65,80.73 350.01,80.92 350.37,81.11 350.73,81.28 351.09,81.45 351.45,81.62 351.81,81.78 352.17,81.94 352.53,82.10 352.89,82.27 353.25,82.43 353.61,82.60 353.97,82.78 354.33,82.95 354.69,83.14 355.05,83.32 355.41,83.51 355.77,83.71 356.13,83.91 356.49,84.11 356.85,84.32 357.21,84.52 357.56,84.73 357.92,84.94 358.28,85.15 358.64,85.36 359.00,85.56 359.36,85.75 359.72,85.95 360.08,86.13 360.44,86.31 360.80,86.47 361.16,86.63 361.52,86.77 361.88,86.91 362.24,87.03 362.60,87.14 362.96,87.25 363.32,87.34 363.68,87.42 364.04,87.50 364.40,87.57 364.76,87.63 365.12,87.69 365.48,87.75 365.84,87.80 366.19,87.84 366.55,87.89 366.91,87.93 367.27,87.97 367.63,88.01 367.99,88.04 368.35,88.08 368.71,88.11 369.07,88.14 369.43,88.17 369.79,88.20 370.15,88.23 370.51,88.25 370.87,88.27 371.23,88.30 371.59,88.32 371.95,88.34 372.31,88.36 372.67,88.37 373.03,88.39 373.39,88.41 373.75,88.42 374.11,88.44 374.47,88.45 374.83,88.47 375.18,88.48 375.54,88.49 375.90,88.50 376.26,88.51 376.62,88.52 376.98,88.52 377.34,88.53 377.70,88.54 378.06,88.55 378.42,88.55 378.78,88.56 379.14,88.57 379.50,88.58 379.86,88.59 380.22,88.60 380.58,88.61 380.94,88.62 381.30,88.64 381.66,88.65 382.02,88.67 382.38,88.68 382.74,88.70 383.10,88.71 383.46,88.73 383.82,88.75 384.17,88.76 384.53,88.78 384.89,88.79 385.25,88.80 385.61,88.81 385.97,88.82 386.33,88.83 386.69,88.84 387.05,88.85 387.41,88.85 387.77,88.86 388.13,88.86 388.49,88.87 388.85,88.87 389.21,88.87 389.57,88.87 389.93,88.87 390.29,88.88 390.65,88.88 391.01,88.88 391.37,88.88 391.73,88.88 392.09,88.88 392.45,88.88 392.80,88.88 393.16,88.88 393.52,88.88 393.88,88.88 394.24,88.88 394.60,88.88 394.96,88.88 395.32,88.88 395.68,88.88 396.04,88.88 396.40,88.88 396.76,88.88 397.12,88.88 397.48,88.87 397.84,88.87 398.20,88.87 398.56,88.87 398.92,88.87 399.28,88.86 399.64,88.86 400.00,88.86 400.36,88.85 400.72,88.85 401.08,88.84 401.44,88.84 401.79,88.83 402.15,88.83 402.51,88.82 402.87,88.82 403.23,88.81 403.59,88.81 403.95,88.80 404.31,88.80 404.67,88.80 405.03,88.79 405.39,88.79 405.75,88.79 406.11,88.79 406.47,88.79 406.83,88.79 407.19,88.79 407.55,88.79 407.91,88.79 408.27,88.80 408.63,88.80 408.63,88.88 408.27,88.88 407.91,88.88 407.55,88.88 407.19,88.88 406.83,88.88 406.47,88.88 406.11,88.88 405.75,88.88 405.39,88.88 405.03,88.88 404.67,88.88 404.31,88.88 403.95,88.88 403.59,88.88 403.23,88.88 402.87,88.88 402.51,88.88 402.15,88.88 401.79,88.88 401.44,88.88 401.08,88.88 400.72,88.88 400.36,88.88 400.00,88.88 399.64,88.88 399.28,88.88 398.92,88.88 398.56,88.88 398.20,88.88 397.84,88.88 397.48,88.88 397.12,88.88 396.76,88.88 396.40,88.88 396.04,88.88 395.68,88.88 395.32,88.88 394.96,88.88 394.60,88.88 394.24,88.88 393.88,88.88 393.52,88.88 393.16,88.88 392.80,88.88 392.45,88.88 392.09,88.88 391.73,88.88 391.37,88.88 391.01,88.88 390.65,88.88 390.29,88.88 389.93,88.88 389.57,88.88 389.21,88.88 388.85,88.88 388.49,88.88 388.13,88.88 387.77,88.88 387.41,88.88 387.05,88.88 386.69,88.88 386.33,88.88 385.97,88.88 385.61,88.88 385.25,88.88 384.89,88.88 384.53,88.88 384.17,88.88 383.82,88.88 383.46,88.88 383.10,88.88 382.74,88.88 382.38,88.88 382.02,88.88 381.66,88.88 381.30,88.88 380.94,88.88 380.58,88.88 380.22,88.88 379.86,88.88 379.50,88.88 379.14,88.88 378.78,88.88 378.42,88.88 378.06,88.88 377.70,88.88 377.34,88.88 376.98,88.88 376.62,88.88 376.26,88.88 375.90,88.88 375.54,88.88 375.18,88.88 374.83,88.88 374.47,88.88 374.11,88.88 373.75,88.88 373.39,88.88 373.03,88.88 372.67,88.88 372.31,88.88 371.95,88.88 371.59,88.88 371.23,88.88 370.87,88.88 370.51,88.88 370.15,88.88 369.79,88.88 369.43,88.88 369.07,88.88 368.71,88.88 368.35,88.88 367.99,88.88 367.63,88.88 367.27,88.88 366.91,88.88 366.55,88.88 366.19,88.88 365.84,88.88 365.48,88.88 365.12,88.88 364.76,88.88 364.40,88.88 364.04,88.88 363.68,88.88 363.32,88.88 362.96,88.88 362.60,88.88 362.24,88.88 361.88,88.88 361.52,88.88 361.16,88.88 360.80,88.88 360.44,88.88 360.08,88.88 359.72,88.88 359.36,88.88 359.00,88.88 358.64,88.88 358.28,88.88 357.92,88.88 357.56,88.88 357.21,88.88 356.85,88.88 356.49,88.88 356.13,88.88 355.77,88.88 355.41,88.88 355.05,88.88 354.69,88.88 354.33,88.88 353.97,88.88 353.61,88.88 353.25,88.88 352.89,88.88 352.53,88.88 352.17,88.88 351.81,88.88 351.45,88.88 351.09,88.88 350.73,88.88 350.37,88.88 350.01,88.88 349.65,88.88 349.29,88.88 348.93,88.88 348.57,88.88 348.39,88.88 348.39,79.92 "
     style="fill:#ffffff;stroke:none;stroke-width:2.13"
     clip-path="url(#cpMTgxLjU2fDQzNi4yM3w0NzIuNTF8NS40OA==)"
     id="polyline31572"
     transform="matrix(1,0,0,0.61539412,-97.017206,-3.37235)" />
  <polyline
     points="193.14,255.58 193.47,255.58 193.80,255.58 194.13,255.57 194.46,255.57 194.79,255.57 195.13,255.57 195.46,255.57 195.79,255.57 196.12,255.57 196.45,255.57 196.78,255.57 197.12,255.58 197.45,255.58 197.78,255.58 198.11,255.58 198.44,255.57 198.77,255.57 199.11,255.57 199.44,255.56 199.77,255.55 200.10,255.54 200.43,255.53 200.76,255.51 201.09,255.50 201.43,255.48 201.76,255.45 202.09,255.43 202.42,255.40 202.75,255.37 203.08,255.34 203.42,255.31 203.75,255.28 204.08,255.25 204.41,255.21 204.74,255.18 205.07,255.15 205.41,255.12 205.74,255.09 206.07,255.06 206.40,255.03 206.73,255.01 207.06,254.99 207.40,254.96 207.73,254.94 208.06,254.93 208.39,254.91 208.72,254.90 209.05,254.88 209.39,254.87 209.72,254.87 210.05,254.86 210.38,254.86 210.71,254.86 211.04,254.86 211.38,254.86 211.71,254.86 212.04,254.87 212.37,254.87 212.70,254.87 213.03,254.87 213.37,254.86 213.70,254.86 214.03,254.84 214.36,254.82 214.69,254.79 215.02,254.76 215.36,254.71 215.69,254.66 216.02,254.60 216.35,254.53 216.68,254.46 217.01,254.37 217.35,254.28 217.68,254.19 218.01,254.09 218.34,253.98 218.67,253.88 219.00,253.77 219.34,253.66 219.67,253.55 220.00,253.44 220.33,253.33 220.66,253.23 220.99,253.12 221.33,253.02 221.66,252.91 221.99,252.80 222.32,252.70 222.65,252.59 222.98,252.47 223.32,252.36 223.65,252.23 223.98,252.11 224.31,251.98 224.64,251.84 224.97,251.70 225.31,251.56 225.64,251.41 225.97,251.26 226.30,251.11 226.63,250.96 226.96,250.82 227.30,250.68 227.63,250.53 227.96,250.40 228.29,250.26 228.62,250.12 228.95,249.98 229.29,249.83 229.62,249.68 229.95,249.52 230.28,249.34 230.61,249.15 230.94,248.94 231.28,248.70 231.61,248.45 231.94,248.18 232.27,247.89 232.60,247.57 232.93,247.23 233.27,246.88 233.60,246.52 233.93,246.14 234.10,245.95 234.10,255.67 233.93,255.67 233.60,255.67 233.27,255.67 232.93,255.67 232.60,255.67 232.27,255.67 231.94,255.67 231.61,255.67 231.28,255.67 230.94,255.67 230.61,255.67 230.28,255.67 229.95,255.67 229.62,255.67 229.29,255.67 228.95,255.67 228.62,255.67 228.29,255.67 227.96,255.67 227.63,255.67 227.30,255.67 226.96,255.67 226.63,255.67 226.30,255.67 225.97,255.67 225.64,255.67 225.31,255.67 224.97,255.67 224.64,255.67 224.31,255.67 223.98,255.67 223.65,255.67 223.32,255.67 222.98,255.67 222.65,255.67 222.32,255.67 221.99,255.67 221.66,255.67 221.33,255.67 220.99,255.67 220.66,255.67 220.33,255.67 220.00,255.67 219.67,255.67 219.34,255.67 219.00,255.67 218.67,255.67 218.34,255.67 218.01,255.67 217.68,255.67 217.35,255.67 217.01,255.67 216.68,255.67 216.35,255.67 216.02,255.67 215.69,255.67 215.36,255.67 215.02,255.67 214.69,255.67 214.36,255.67 214.03,255.67 213.70,255.67 213.37,255.67 213.03,255.67 212.70,255.67 212.37,255.67 212.04,255.67 211.71,255.67 211.38,255.67 211.04,255.67 210.71,255.67 210.38,255.67 210.05,255.67 209.72,255.67 209.39,255.67 209.05,255.67 208.72,255.67 208.39,255.67 208.06,255.67 207.73,255.67 207.40,255.67 207.06,255.67 206.73,255.67 206.40,255.67 206.07,255.67 205.74,255.67 205.41,255.67 205.07,255.67 204.74,255.67 204.41,255.67 204.08,255.67 203.75,255.67 203.42,255.67 203.08,255.67 202.75,255.67 202.42,255.67 202.09,255.67 201.76,255.67 201.43,255.67 201.09,255.67 200.76,255.67 200.43,255.67 200.10,255.67 199.77,255.67 199.44,255.67 199.11,255.67 198.77,255.67 198.44,255.67 198.11,255.67 197.78,255.67 197.45,255.67 197.12,255.67 196.78,255.67 196.45,255.67 196.12,255.67 195.79,255.67 195.46,255.67 195.13,255.67 194.79,255.67 194.46,255.67 194.13,255.67 193.80,255.67 193.47,255.67 193.14,255.67 193.14,255.58 "
     style="fill:#ffffff;stroke:none;stroke-width:2.13"
     clip-path="url(#clipPath9425)"
     id="polyline31588"
     transform="matrix(1,0,0,0.61539412,-97.017206,-48.681437)" />
  <polygon
     points="235.92,243.8 236.25,243.4 236.58,243.01 236.91,242.62 237.25,242.23 237.58,241.82 237.91,241.41 238.24,240.98 238.57,240.54 238.9,240.08 239.24,239.59 239.57,239.07 239.9,238.53 240.23,237.96 240.56,237.36 240.89,236.74 241.23,236.1 241.56,235.44 241.89,234.76 242.22,234.08 242.55,233.38 242.88,232.69 243.22,232.01 243.55,231.33 243.88,230.68 244.21,230.04 244.54,229.42 244.87,228.84 245.21,228.28 245.54,227.74 245.87,227.24 246.2,226.75 246.53,226.29 246.86,225.85 247.03,225.63 247.03,255.67 246.86,255.67 246.53,255.67 246.2,255.67 245.87,255.67 245.54,255.67 245.21,255.67 244.87,255.67 244.54,255.67 244.21,255.67 243.88,255.67 243.55,255.67 243.22,255.67 242.88,255.67 242.55,255.67 242.22,255.67 241.89,255.67 241.56,255.67 241.23,255.67 240.89,255.67 240.56,255.67 240.23,255.67 239.9,255.67 239.57,255.67 239.24,255.67 238.9,255.67 238.57,255.67 238.24,255.67 237.91,255.67 237.58,255.67 237.25,255.67 236.91,255.67 236.58,255.67 236.25,255.67 235.92,255.67 235.59,255.67 235.26,255.67 234.92,255.67 234.59,255.67 234.26,255.67 234.1,255.67 234.1,245.95 234.26,245.76 234.59,245.37 234.92,244.97 235.26,244.58 235.59,244.19 "
     style="fill:#bbdefb;stroke:none;stroke-width:2.13"
     clip-path="url(#cpMTgxLjU2fDQzNi4yM3w0NzIuNTF8NS40OA==)"
     id="polygon31590"
     transform="matrix(1,0,0,0.61539412,-97.017206,-48.681437)" />
  <polygon
     points="248.85,223.16 249.19,222.64 249.52,222.1 249.85,221.51 250.18,220.88 250.51,220.21 250.84,219.49 251.18,218.73 251.51,217.92 251.84,217.07 252.17,216.18 252.5,215.25 252.83,214.28 253.17,213.28 253.5,212.25 253.83,211.2 254.16,210.12 254.49,209.03 254.82,207.94 255.16,206.84 255.49,205.74 255.82,204.65 256.15,203.58 256.48,202.53 256.81,201.5 257.15,200.49 257.48,199.52 257.81,198.57 258.14,197.65 258.47,196.76 258.8,195.9 258.97,195.47 258.97,255.67 258.8,255.67 258.47,255.67 258.14,255.67 257.81,255.67 257.48,255.67 257.15,255.67 256.81,255.67 256.48,255.67 256.15,255.67 255.82,255.67 255.49,255.67 255.16,255.67 254.82,255.67 254.49,255.67 254.16,255.67 253.83,255.67 253.5,255.67 253.17,255.67 252.83,255.67 252.5,255.67 252.17,255.67 251.84,255.67 251.51,255.67 251.18,255.67 250.84,255.67 250.51,255.67 250.18,255.67 249.85,255.67 249.52,255.67 249.19,255.67 248.85,255.67 248.52,255.67 248.19,255.67 247.86,255.67 247.53,255.67 247.2,255.67 247.03,255.67 247.03,225.63 247.2,225.41 247.53,224.98 247.86,224.55 248.19,224.1 248.52,223.64 "
     style="fill:#2196f3;stroke:none;stroke-width:2.13"
     clip-path="url(#cpMTgxLjU2fDQzNi4yM3w0NzIuNTF8NS40OA==)"
     id="polygon31592"
     transform="matrix(1,0,0,0.61539412,-97.017206,-48.681437)" />
  <polygon
     points="260.79,191.11 261.13,190.37 261.46,189.65 261.79,188.95 262.12,188.28 262.45,187.64 262.78,187.03 263.12,186.47 263.45,185.94 263.78,185.46 264.11,185.04 264.44,184.67 264.77,184.34 265.11,184.07 265.44,183.85 265.77,183.67 266.1,183.53 266.43,183.42 266.76,183.35 267.1,183.3 267.43,183.26 267.76,183.25 268.09,183.24 268.42,183.24 268.75,183.24 269.09,183.23 269.42,183.23 269.75,183.22 270.08,183.21 270.41,183.19 270.74,183.16 271.07,183.13 271.41,183.09 271.74,183.03 272.07,182.98 272.4,182.91 272.73,182.85 273.06,182.78 273.4,182.72 273.73,182.66 274.06,182.62 274.39,182.6 274.72,182.6 275.05,182.63 275.39,182.7 275.72,182.81 276.05,182.96 276.38,183.16 276.71,183.4 277.04,183.68 277.38,184.01 277.71,184.38 278.04,184.79 278.37,185.25 278.7,185.74 279.03,186.26 279.37,186.82 279.7,187.42 280.03,188.05 280.36,188.71 280.69,189.42 281.02,190.17 281.36,190.96 281.69,191.79 282.02,192.67 282.35,193.58 282.68,194.52 283.01,195.49 283.18,195.99 283.18,255.67 283.01,255.67 282.68,255.67 282.35,255.67 282.02,255.67 281.69,255.67 281.36,255.67 281.02,255.67 280.69,255.67 280.36,255.67 280.03,255.67 279.7,255.67 279.37,255.67 279.03,255.67 278.7,255.67 278.37,255.67 278.04,255.67 277.71,255.67 277.38,255.67 277.04,255.67 276.71,255.67 276.38,255.67 276.05,255.67 275.72,255.67 275.39,255.67 275.05,255.67 274.72,255.67 274.39,255.67 274.06,255.67 273.73,255.67 273.4,255.67 273.06,255.67 272.73,255.67 272.4,255.67 272.07,255.67 271.74,255.67 271.41,255.67 271.07,255.67 270.74,255.67 270.41,255.67 270.08,255.67 269.75,255.67 269.42,255.67 269.09,255.67 268.75,255.67 268.42,255.67 268.09,255.67 267.76,255.67 267.43,255.67 267.1,255.67 266.76,255.67 266.43,255.67 266.1,255.67 265.77,255.67 265.44,255.67 265.11,255.67 264.77,255.67 264.44,255.67 264.11,255.67 263.78,255.67 263.45,255.67 263.12,255.67 262.78,255.67 262.45,255.67 262.12,255.67 261.79,255.67 261.46,255.67 261.13,255.67 260.79,255.67 260.46,255.67 260.13,255.67 259.8,255.67 259.47,255.67 259.14,255.67 258.97,255.67 258.97,195.47 259.14,195.05 259.47,194.23 259.8,193.42 260.13,192.63 260.46,191.86 "
     style="fill:#0d47a1;stroke:none;stroke-width:2.13"
     clip-path="url(#cpMTgxLjU2fDQzNi4yM3w0NzIuNTF8NS40OA==)"
     id="polygon31594"
     transform="matrix(1,0,0,0.61539412,-97.017206,-48.681437)" />
  <polygon
     points="285,201.48 285.34,202.43 285.67,203.36 286,204.25 286.33,205.12 286.66,205.96 286.99,206.77 287.33,207.56 287.66,208.33 287.99,209.08 288.32,209.82 288.65,210.55 288.98,211.27 289.32,212 289.65,212.74 289.98,213.47 290.31,214.22 290.64,214.97 290.97,215.72 291.31,216.48 291.64,217.25 291.97,218.02 292.3,218.8 292.63,219.58 292.96,220.36 293.3,221.15 293.63,221.93 293.96,222.72 294.29,223.51 294.46,223.91 294.46,255.67 294.29,255.67 293.96,255.67 293.63,255.67 293.3,255.67 292.96,255.67 292.63,255.67 292.3,255.67 291.97,255.67 291.64,255.67 291.31,255.67 290.97,255.67 290.64,255.67 290.31,255.67 289.98,255.67 289.65,255.67 289.32,255.67 288.98,255.67 288.65,255.67 288.32,255.67 287.99,255.67 287.66,255.67 287.33,255.67 286.99,255.67 286.66,255.67 286.33,255.67 286,255.67 285.67,255.67 285.34,255.67 285,255.67 284.67,255.67 284.34,255.67 284.01,255.67 283.68,255.67 283.35,255.67 283.18,255.67 283.18,195.99 283.35,196.48 283.68,197.49 284.01,198.49 284.34,199.5 284.67,200.5 "
     style="fill:#2196f3;stroke:none;stroke-width:2.13"
     clip-path="url(#cpMTgxLjU2fDQzNi4yM3w0NzIuNTF8NS40OA==)"
     id="polygon31596"
     transform="matrix(1,0,0,0.61539412,-97.017206,-48.681437)" />
  <polygon
     points="296.28,228.24 296.61,229 296.94,229.75 297.28,230.49 297.61,231.2 297.94,231.9 298.27,232.57 298.6,233.23 298.93,233.86 299.27,234.47 299.6,235.06 299.93,235.64 300.26,236.2 300.59,236.74 300.92,237.28 301.26,237.8 301.59,238.32 301.92,238.83 302.25,239.33 302.58,239.82 302.91,240.31 303.25,240.79 303.58,241.25 303.91,241.71 304.24,242.16 304.57,242.6 304.9,243.03 305.24,243.44 305.57,243.84 305.9,244.22 306.23,244.59 306.56,244.94 306.89,245.27 307.23,245.59 307.56,245.9 307.89,246.18 308.22,246.45 308.39,246.58 308.39,255.67 308.22,255.67 307.89,255.67 307.56,255.67 307.23,255.67 306.89,255.67 306.56,255.67 306.23,255.67 305.9,255.67 305.57,255.67 305.24,255.67 304.9,255.67 304.57,255.67 304.24,255.67 303.91,255.67 303.58,255.67 303.25,255.67 302.91,255.67 302.58,255.67 302.25,255.67 301.92,255.67 301.59,255.67 301.26,255.67 300.92,255.67 300.59,255.67 300.26,255.67 299.93,255.67 299.6,255.67 299.27,255.67 298.93,255.67 298.6,255.67 298.27,255.67 297.94,255.67 297.61,255.67 297.28,255.67 296.94,255.67 296.61,255.67 296.28,255.67 295.95,255.67 295.62,255.67 295.29,255.67 294.95,255.67 294.62,255.67 294.46,255.67 294.46,223.91 294.62,224.31 294.95,225.1 295.29,225.89 295.62,226.68 295.95,227.46 "
     style="fill:#bbdefb;stroke:none;stroke-width:2.13"
     clip-path="url(#cpMTgxLjU2fDQzNi4yM3w0NzIuNTF8NS40OA==)"
     id="polygon31598"
     transform="matrix(1,0,0,0.61539412,-97.017206,-48.681437)" />
  <polyline
     points="308.39,246.58 308.55,246.71 308.88,246.94 309.22,247.17 309.55,247.38 309.88,247.58 310.21,247.77 310.54,247.95 310.87,248.13 311.21,248.31 311.54,248.48 311.87,248.66 312.20,248.84 312.53,249.02 312.86,249.21 313.20,249.40 313.53,249.59 313.86,249.79 314.19,249.99 314.52,250.19 314.85,250.39 315.19,250.59 315.52,250.78 315.85,250.97 316.18,251.16 316.51,251.34 316.84,251.51 317.18,251.68 317.51,251.85 317.84,252.01 318.17,252.16 318.50,252.32 318.83,252.46 319.17,252.61 319.50,252.75 319.83,252.88 320.16,253.01 320.49,253.12 320.82,253.24 321.16,253.34 321.49,253.44 321.82,253.53 322.15,253.61 322.48,253.69 322.81,253.76 323.15,253.83 323.48,253.89 323.81,253.95 324.14,254.01 324.47,254.06 324.80,254.12 325.14,254.18 325.47,254.24 325.80,254.30 326.13,254.37 326.46,254.43 326.79,254.50 327.13,254.56 327.46,254.62 327.79,254.69 328.12,254.75 328.45,254.81 328.78,254.86 329.12,254.91 329.45,254.96 329.78,255.01 330.11,255.05 330.44,255.08 330.77,255.12 331.11,255.15 331.44,255.18 331.77,255.20 332.10,255.23 332.43,255.25 332.76,255.27 333.10,255.29 333.43,255.30 333.76,255.32 334.09,255.33 334.42,255.35 334.75,255.36 335.09,255.37 335.42,255.38 335.75,255.39 336.08,255.40 336.41,255.41 336.74,255.41 337.08,255.42 337.41,255.42 337.74,255.42 338.07,255.43 338.40,255.43 338.73,255.43 339.07,255.43 339.40,255.43 339.73,255.43 340.06,255.43 340.39,255.43 340.72,255.43 341.05,255.43 341.39,255.44 341.72,255.44 342.05,255.45 342.38,255.45 342.71,255.46 343.04,255.47 343.38,255.48 343.71,255.48 344.04,255.49 344.37,255.50 344.70,255.51 345.03,255.51 345.37,255.52 345.70,255.52 346.03,255.52 346.36,255.53 346.69,255.53 347.02,255.53 347.36,255.53 347.69,255.53 348.02,255.54 348.35,255.54 348.68,255.54 349.01,255.55 349.35,255.55 349.68,255.56 350.01,255.57 350.34,255.57 350.67,255.58 351.00,255.59 351.34,255.60 351.67,255.61 352.00,255.61 352.33,255.62 352.66,255.63 352.99,255.63 353.33,255.64 353.66,255.64 353.99,255.64 354.32,255.65 354.65,255.65 354.98,255.64 355.32,255.64 355.65,255.64 355.98,255.64 356.31,255.63 356.64,255.63 356.97,255.62 357.31,255.62 357.64,255.62 357.97,255.61 358.30,255.61 358.63,255.61 358.96,255.61 358.96,255.67 358.63,255.67 358.30,255.67 357.97,255.67 357.64,255.67 357.31,255.67 356.97,255.67 356.64,255.67 356.31,255.67 355.98,255.67 355.65,255.67 355.32,255.67 354.98,255.67 354.65,255.67 354.32,255.67 353.99,255.67 353.66,255.67 353.33,255.67 352.99,255.67 352.66,255.67 352.33,255.67 352.00,255.67 351.67,255.67 351.34,255.67 351.00,255.67 350.67,255.67 350.34,255.67 350.01,255.67 349.68,255.67 349.35,255.67 349.01,255.67 348.68,255.67 348.35,255.67 348.02,255.67 347.69,255.67 347.36,255.67 347.02,255.67 346.69,255.67 346.36,255.67 346.03,255.67 345.70,255.67 345.37,255.67 345.03,255.67 344.70,255.67 344.37,255.67 344.04,255.67 343.71,255.67 343.38,255.67 343.04,255.67 342.71,255.67 342.38,255.67 342.05,255.67 341.72,255.67 341.39,255.67 341.05,255.67 340.72,255.67 340.39,255.67 340.06,255.67 339.73,255.67 339.40,255.67 339.07,255.67 338.73,255.67 338.40,255.67 338.07,255.67 337.74,255.67 337.41,255.67 337.08,255.67 336.74,255.67 336.41,255.67 336.08,255.67 335.75,255.67 335.42,255.67 335.09,255.67 334.75,255.67 334.42,255.67 334.09,255.67 333.76,255.67 333.43,255.67 333.10,255.67 332.76,255.67 332.43,255.67 332.10,255.67 331.77,255.67 331.44,255.67 331.11,255.67 330.77,255.67 330.44,255.67 330.11,255.67 329.78,255.67 329.45,255.67 329.12,255.67 328.78,255.67 328.45,255.67 328.12,255.67 327.79,255.67 327.46,255.67 327.13,255.67 326.79,255.67 326.46,255.67 326.13,255.67 325.80,255.67 325.47,255.67 325.14,255.67 324.80,255.67 324.47,255.67 324.14,255.67 323.81,255.67 323.48,255.67 323.15,255.67 322.81,255.67 322.48,255.67 322.15,255.67 321.82,255.67 321.49,255.67 321.16,255.67 320.82,255.67 320.49,255.67 320.16,255.67 319.83,255.67 319.50,255.67 319.17,255.67 318.83,255.67 318.50,255.67 318.17,255.67 317.84,255.67 317.51,255.67 317.18,255.67 316.84,255.67 316.51,255.67 316.18,255.67 315.85,255.67 315.52,255.67 315.19,255.67 314.85,255.67 314.52,255.67 314.19,255.67 313.86,255.67 313.53,255.67 313.20,255.67 312.86,255.67 312.53,255.67 312.20,255.67 311.87,255.67 311.54,255.67 311.21,255.67 310.87,255.67 310.54,255.67 310.21,255.67 309.88,255.67 309.55,255.67 309.22,255.67 308.88,255.67 308.55,255.67 308.39,255.67 308.39,246.58 "
     style="fill:#ffffff;stroke:none;stroke-width:2.13"
     clip-path="url(#cpMTgxLjU2fDQzNi4yM3w0NzIuNTF8NS40OA==)"
     id="polyline31600"
     transform="matrix(1,0,0,0.61539412,-97.017206,-48.681437)" />
  <circle
     cx="259.69"
     cy="255.67"
     r="2.49"
     style="fill:#ffffff;stroke-width:0.474167;stroke-miterlimit:10;stroke-dasharray:none"
     clip-path="url(#cpMTgxLjU2fDQzNi4yM3w0NzIuNTF8NS40OA==)"
     id="circle31634"
     transform="matrix(1.0544812,0,0,1.0544819,-111.16544,-160.943)" />
  <circle
     cx="290.23999"
     cy="255.67"
     r="2.49"
     style="fill:#ffffff;stroke-width:0.474167;stroke-miterlimit:10;stroke-dasharray:none"
     clip-path="url(#cpMTgxLjU2fDQzNi4yM3w0NzIuNTF8NS40OA==)"
     id="circle31636"
     transform="matrix(1.0544812,0,0,1.0544819,-112.82984,-160.943)" />
  <circle
     cx="251.11"
     cy="255.67"
     r="2.49"
     style="fill:#ffffff;stroke-width:0.474167;stroke-miterlimit:10;stroke-dasharray:none"
     clip-path="url(#cpMTgxLjU2fDQzNi4yM3w0NzIuNTF8NS40OA==)"
     id="circle31638"
     transform="matrix(1.0544812,0,0,1.0544819,-110.69799,-160.943)" />
  <circle
     cx="261.56"
     cy="255.67"
     r="2.49"
     style="fill:#ffffff;stroke-width:0.474167;stroke-miterlimit:10;stroke-dasharray:none"
     clip-path="url(#cpMTgxLjU2fDQzNi4yM3w0NzIuNTF8NS40OA==)"
     id="circle31640"
     transform="matrix(1.0544812,0,0,1.0544819,-111.26732,-160.943)" />
  <circle
     cx="285.32001"
     cy="255.67"
     r="2.49"
     style="fill:#ffffff;stroke-width:0.474167;stroke-miterlimit:10;stroke-dasharray:none"
     clip-path="url(#cpMTgxLjU2fDQzNi4yM3w0NzIuNTF8NS40OA==)"
     id="circle31642"
     transform="matrix(1.0544812,0,0,1.0544819,-112.5618,-160.943)" />
  <circle
     cx="329.82001"
     cy="88.879997"
     r="2.49"
     style="fill:#ffffff;stroke-width:0.474167;stroke-miterlimit:10;stroke-dasharray:none"
     clip-path="url(#cpMTgxLjU2fDQzNi4yM3w0NzIuNTF8NS40OA==)"
     id="circle31654"
     transform="matrix(1.0544812,0,0,1.0544819,-114.98621,-42.39846)" />
  <circle
     cx="314.39001"
     cy="88.879997"
     r="2.49"
     style="fill:#ffffff;stroke-width:0.474167;stroke-miterlimit:10;stroke-dasharray:none"
     clip-path="url(#cpMTgxLjU2fDQzNi4yM3w0NzIuNTF8NS40OA==)"
     id="circle31656"
     transform="matrix(1.0544812,0,0,1.0544819,-114.14557,-42.39846)" />
  <circle
     cx="310.26999"
     cy="88.879997"
     r="2.49"
     style="fill:#ffffff;stroke-width:0.474167;stroke-miterlimit:10;stroke-dasharray:none"
     clip-path="url(#cpMTgxLjU2fDQzNi4yM3w0NzIuNTF8NS40OA==)"
     id="circle31658"
     transform="matrix(1.0544812,0,0,1.0544819,-113.9211,-42.39846)" />
  <circle
     cx="291.72"
     cy="88.879997"
     r="2.49"
     style="fill:#ffffff;stroke-width:0.474167;stroke-miterlimit:10;stroke-dasharray:none"
     clip-path="url(#cpMTgxLjU2fDQzNi4yM3w0NzIuNTF8NS40OA==)"
     id="circle31660"
     transform="matrix(1.0544812,0,0,1.0544819,-112.91048,-42.39846)" />
  <defs
     id="defs31665">
    <clipPath
       id="cpMC4wMHw1MDQuMDB8NTA0LjAwfDAuMDA=">
      <rect
         x="0"
         y="0"
         width="504"
         height="504"
         id="rect31662" />
    </clipPath>
  </defs>
  <rect
     x="454.09"
     y="222.33"
     width="14.45"
     height="14.45"
     style="fill:#0d47a1;stroke:none;stroke-width:2.13;stroke-linecap:square;stroke-linejoin:miter"
     clip-path="url(#cpMC4wMHw1MDQuMDB8NTA0LjAwfDAuMDA=)"
     id="rect31731"
     transform="translate(-148.43934,-171.05535)" />
  <rect
     x="454.09"
     y="239.61"
     width="14.45"
     height="14.45"
     style="fill:#2196f3;stroke:none;stroke-width:2.13;stroke-linecap:square;stroke-linejoin:miter"
     clip-path="url(#cpMC4wMHw1MDQuMDB8NTA0LjAwfDAuMDA=)"
     id="rect31735"
     transform="translate(-148.43934,-171.05535)" />
  <rect
     x="454.09"
     y="256.89001"
     width="14.45"
     height="14.45"
     style="fill:#bbdefb;stroke:none;stroke-width:2.13;stroke-linecap:square;stroke-linejoin:miter"
     clip-path="url(#cpMC4wMHw1MDQuMDB8NTA0LjAwfDAuMDA=)"
     id="rect31739"
     transform="translate(-148.43934,-171.05535)" />
  <text
     xml:space="preserve"
     style="font-stretch:condensed;font-size:10.6667px;line-height:1.25;font-family:'Noto Sans';-inkscape-font-specification:'Noto Sans, Condensed';letter-spacing:0px;word-spacing:0px;writing-mode:lr-tb"
     x="151.89545"
     y="132.49907"
     id="text32322"><tspan
       sodipodi:role="line"
       id="tspan32320"
       x="151.89545"
       y="132.49907">1</tspan></text>
  <text
     xml:space="preserve"
     style="font-stretch:condensed;font-size:10.6667px;line-height:1.25;font-family:'Noto Sans';-inkscape-font-specification:'Noto Sans, Condensed';letter-spacing:0px;word-spacing:0px;writing-mode:lr-tb"
     x="238.12411"
     y="132.60573"
     id="text32326"><tspan
       sodipodi:role="line"
       id="tspan32324"
       x="238.12411"
       y="132.60573">2</tspan></text>
  <text
     xml:space="preserve"
     style="font-stretch:condensed;font-size:10.6667px;line-height:1.25;font-family:'Noto Sans';-inkscape-font-specification:'Noto Sans, Condensed';letter-spacing:0px;word-spacing:0px;writing-mode:lr-tb"
     x="288.80945"
     y="132.60573"
     id="text32330"><tspan
       sodipodi:role="line"
       id="tspan32328"
       x="288.80945"
       y="132.60573">3</tspan></text>
  <text
     xml:space="preserve"
     style="font-stretch:condensed;font-size:10.6667px;line-height:1.25;font-family:'Noto Sans';-inkscape-font-specification:'Noto Sans, Condensed';letter-spacing:0px;word-spacing:0px;writing-mode:lr-tb"
     x="149.64311"
     y="148.44997"
     id="text32334"><tspan
       sodipodi:role="line"
       id="tspan32332"
       x="149.64311"
       y="148.44997">Fold increase in emission ratio</tspan></text>
  <text
     xml:space="preserve"
     style="font-stretch:condensed;font-size:10.6667px;line-height:1.25;font-family:'Noto Sans';-inkscape-font-specification:'Noto Sans, Condensed';letter-spacing:0px;word-spacing:0px;writing-mode:lr-tb"
     x="15.445354"
     y="55.131889"
     id="text32338"><tspan
       sodipodi:role="line"
       id="tspan32336"
       x="15.445354"
       y="55.131889">WT-GFP+TMD0-L0-mO</tspan></text>
  <text
     xml:space="preserve"
     style="font-stretch:condensed;font-size:10.6667px;line-height:1.25;font-family:'Noto Sans';-inkscape-font-specification:'Noto Sans, Condensed';letter-spacing:0px;word-spacing:0px;writing-mode:lr-tb"
     x="-0.064000204"
     y="112.66171"
     id="text32338-3"><tspan
       sodipodi:role="line"
       id="tspan32336-6"
       x="-0.064000204"
       y="112.66171">W311*-GFP+TMD0-L0-mO</tspan></text>
  <text
     xml:space="preserve"
     style="font-stretch:condensed;font-size:10.6667px;line-height:1.25;font-family:'Noto Sans';-inkscape-font-specification:'Noto Sans, Condensed';letter-spacing:0px;word-spacing:0px;writing-mode:lr-tb"
     x="305.26666"
     y="43.615501"
     id="text32414"><tspan
       sodipodi:role="line"
       id="tspan32412"
       x="305.26666"
       y="43.615501">Interval</tspan></text>
  <text
     xml:space="preserve"
     style="font-stretch:condensed;font-size:10.6667px;line-height:1.25;font-family:'Noto Sans';-inkscape-font-specification:'Noto Sans, Condensed';letter-spacing:0px;word-spacing:0px;writing-mode:lr-tb"
     x="323.44446"
     y="62.307655"
     id="text32418"><tspan
       sodipodi:role="line"
       id="tspan32416"
       x="323.44446"
       y="62.307655">50%</tspan></text>
  <text
     xml:space="preserve"
     style="font-stretch:condensed;font-size:10.6667px;line-height:1.25;font-family:'Noto Sans';-inkscape-font-specification:'Noto Sans, Condensed';letter-spacing:0px;word-spacing:0px;writing-mode:lr-tb"
     x="323.60446"
     y="79.587654"
     id="text32422"><tspan
       sodipodi:role="line"
       id="tspan32420"
       x="323.60446"
       y="79.587654">80%</tspan></text>
  <text
     xml:space="preserve"
     style="font-stretch:condensed;font-size:10.6667px;line-height:1.25;font-family:'Noto Sans';-inkscape-font-specification:'Noto Sans, Condensed';letter-spacing:0px;word-spacing:0px;writing-mode:lr-tb"
     x="323.57245"
     y="96.867691"
     id="text32426"><tspan
       sodipodi:role="line"
       id="tspan32424"
       x="323.57245"
       y="96.867691">95%</tspan></text>
</svg>
