<?xml version="1.0" encoding="UTF-8" standalone="no"?>
<svg
   xmlns:dc="http://purl.org/dc/elements/1.1/"
   xmlns:cc="http://creativecommons.org/ns#"
   xmlns:rdf="http://www.w3.org/1999/02/22-rdf-syntax-ns#"
   xmlns:svg="http://www.w3.org/2000/svg"
   xmlns="http://www.w3.org/2000/svg"
   xmlns:sodipodi="http://sodipodi.sourceforge.net/DTD/sodipodi-0.dtd"
   xmlns:inkscape="http://www.inkscape.org/namespaces/inkscape"
   viewBox="0 0 309.40515 141.0034"
   version="1.1"
   id="svg31753"
   sodipodi:docname="gfp_ofp_contrasts_2.svg"
   width="309.40515"
   height="141.0034"
   inkscape:version="1.0.1 (3bc2e813f5, 2020-09-07, custom)">
  <metadata
     id="metadata31757">
    <rdf:RDF>
      <cc:Work
         rdf:about="">
        <dc:format>image/svg+xml</dc:format>
        <dc:type
           rdf:resource="http://purl.org/dc/dcmitype/StillImage" />
        <dc:title></dc:title>
      </cc:Work>
    </rdf:RDF>
  </metadata>
  <sodipodi:namedview
     pagecolor="#ffffff"
     bordercolor="#666666"
     borderopacity="1"
     objecttolerance="10"
     gridtolerance="10"
     guidetolerance="10"
     inkscape:pageopacity="0"
     inkscape:pageshadow="2"
     inkscape:window-width="1366"
     inkscape:window-height="768"
     id="namedview31755"
     showgrid="false"
     inkscape:zoom="0.5843254"
     inkscape:cx="318.76436"
     inkscape:cy="8.8436822"
     inkscape:window-x="0"
     inkscape:window-y="0"
     inkscape:window-maximized="0"
     inkscape:current-layer="svg31753"
     inkscape:document-rotation="0" />
  <defs
     id="defs31523">
    <style
       type="text/css"
       id="style31521"><![CDATA[
    line, polyline, polygon, path, rect, circle {
      fill: none;
      stroke: #000000;
      stroke-linecap: round;
      stroke-linejoin: round;
      stroke-miterlimit: 10.00;
    }
  ]]></style>
    <clipPath
       id="cpMTgxLjU2fDQzNi4yM3w0NzIuNTF8NS40OA==-3">
      <rect
         x="181.56"
         y="5.48"
         width="254.67"
         height="467.03"
         id="rect31529-2" />
    </clipPath>
    <clipPath
       id="clipPath8613">
      <rect
         x="181.56"
         y="5.48"
         width="254.67"
         height="467.03"
         id="rect8611" />
    </clipPath>
    <clipPath
       id="clipPath8617">
      <rect
         x="181.56"
         y="5.48"
         width="254.67"
         height="467.03"
         id="rect8615" />
    </clipPath>
    <clipPath
       id="clipPath8621">
      <rect
         x="181.56"
         y="5.48"
         width="254.67"
         height="467.03"
         id="rect8619" />
    </clipPath>
    <clipPath
       id="clipPath8625">
      <rect
         x="181.56"
         y="5.48"
         width="254.67"
         height="467.03"
         id="rect8623" />
    </clipPath>
    <clipPath
       id="clipPath8629">
      <rect
         x="181.56"
         y="5.48"
         width="254.67"
         height="467.03"
         id="rect8627" />
    </clipPath>
    <clipPath
       id="clipPath8633">
      <rect
         x="181.56"
         y="5.48"
         width="254.67"
         height="467.03"
         id="rect8631" />
    </clipPath>
    <clipPath
       id="clipPath8637">
      <rect
         x="181.56"
         y="5.48"
         width="254.67"
         height="467.03"
         id="rect8635" />
    </clipPath>
    <clipPath
       id="clipPath8641">
      <rect
         x="181.56"
         y="5.48"
         width="254.67"
         height="467.03"
         id="rect8639" />
    </clipPath>
    <clipPath
       id="clipPath8645">
      <rect
         x="181.56"
         y="5.48"
         width="254.67"
         height="467.03"
         id="rect8643" />
    </clipPath>
    <clipPath
       id="clipPath8649">
      <rect
         x="181.56"
         y="5.48"
         width="254.67"
         height="467.03"
         id="rect8647" />
    </clipPath>
    <clipPath
       id="clipPath8653">
      <rect
         x="181.56"
         y="5.48"
         width="254.67"
         height="467.03"
         id="rect8651" />
    </clipPath>
    <clipPath
       id="clipPath8657">
      <rect
         x="181.56"
         y="5.48"
         width="254.67"
         height="467.03"
         id="rect8655" />
    </clipPath>
    <clipPath
       id="clipPath8661">
      <rect
         x="181.56"
         y="5.48"
         width="254.67"
         height="467.03"
         id="rect8659" />
    </clipPath>
    <clipPath
       id="clipPath8665">
      <rect
         x="181.56"
         y="5.48"
         width="254.67"
         height="467.03"
         id="rect8663" />
    </clipPath>
    <clipPath
       id="clipPath8669">
      <rect
         x="181.56"
         y="5.48"
         width="254.67"
         height="467.03"
         id="rect8667" />
    </clipPath>
    <clipPath
       id="clipPath8673">
      <rect
         x="181.56"
         y="5.48"
         width="254.67"
         height="467.03"
         id="rect8671" />
    </clipPath>
    <clipPath
       id="clipPath8677">
      <rect
         x="181.56"
         y="5.48"
         width="254.67"
         height="467.03"
         id="rect8675" />
    </clipPath>
    <clipPath
       id="clipPath8681">
      <rect
         x="181.56"
         y="5.48"
         width="254.67"
         height="467.03"
         id="rect8679" />
    </clipPath>
    <clipPath
       id="clipPath8685">
      <rect
         x="181.56"
         y="5.48"
         width="254.67"
         height="467.03"
         id="rect8683" />
    </clipPath>
    <clipPath
       id="clipPath8689">
      <rect
         x="181.56"
         y="5.48"
         width="254.67"
         height="467.03"
         id="rect8687" />
    </clipPath>
    <clipPath
       id="clipPath8693">
      <rect
         x="181.56"
         y="5.48"
         width="254.67"
         height="467.03"
         id="rect8691" />
    </clipPath>
    <clipPath
       id="clipPath8697">
      <rect
         x="181.56"
         y="5.48"
         width="254.67"
         height="467.03"
         id="rect8695" />
    </clipPath>
    <clipPath
       id="clipPath8701">
      <rect
         x="181.56"
         y="5.48"
         width="254.67"
         height="467.03"
         id="rect8699" />
    </clipPath>
    <clipPath
       id="clipPath8705">
      <rect
         x="181.56"
         y="5.48"
         width="254.67"
         height="467.03"
         id="rect8703" />
    </clipPath>
    <clipPath
       id="clipPath8709">
      <rect
         x="181.56"
         y="5.48"
         width="254.67"
         height="467.03"
         id="rect8707" />
    </clipPath>
    <clipPath
       id="clipPath8713">
      <rect
         x="181.56"
         y="5.48"
         width="254.67"
         height="467.03"
         id="rect8711" />
    </clipPath>
    <clipPath
       id="clipPath8717">
      <rect
         x="181.56"
         y="5.48"
         width="254.67"
         height="467.03"
         id="rect8715" />
    </clipPath>
    <clipPath
       id="clipPath8721">
      <rect
         x="181.56"
         y="5.48"
         width="254.67"
         height="467.03"
         id="rect8719" />
    </clipPath>
    <clipPath
       id="clipPath8725">
      <rect
         x="181.56"
         y="5.48"
         width="254.67"
         height="467.03"
         id="rect8723" />
    </clipPath>
    <clipPath
       id="clipPath8729">
      <rect
         x="181.56"
         y="5.48"
         width="254.67"
         height="467.03"
         id="rect8727" />
    </clipPath>
    <clipPath
       id="clipPath8733">
      <rect
         x="181.56"
         y="5.48"
         width="254.67"
         height="467.03"
         id="rect8731" />
    </clipPath>
    <clipPath
       id="clipPath8737">
      <rect
         x="181.56"
         y="5.48"
         width="254.67"
         height="467.03"
         id="rect8735" />
    </clipPath>
    <clipPath
       id="clipPath8741">
      <rect
         x="181.56"
         y="5.48"
         width="254.67"
         height="467.03"
         id="rect8739" />
    </clipPath>
    <clipPath
       id="clipPath8745">
      <rect
         x="181.56"
         y="5.48"
         width="254.67"
         height="467.03"
         id="rect8743" />
    </clipPath>
    <clipPath
       id="clipPath8749">
      <rect
         x="181.56"
         y="5.48"
         width="254.67"
         height="467.03"
         id="rect8747" />
    </clipPath>
    <clipPath
       id="clipPath8753">
      <rect
         x="181.56"
         y="5.48"
         width="254.67"
         height="467.03"
         id="rect8751" />
    </clipPath>
    <clipPath
       id="clipPath8757">
      <rect
         x="181.56"
         y="5.48"
         width="254.67"
         height="467.03"
         id="rect8755" />
    </clipPath>
    <clipPath
       id="clipPath8761">
      <rect
         x="181.56"
         y="5.48"
         width="254.67"
         height="467.03"
         id="rect8759" />
    </clipPath>
    <clipPath
       id="clipPath8765">
      <rect
         x="181.56"
         y="5.48"
         width="254.67"
         height="467.03"
         id="rect8763" />
    </clipPath>
    <clipPath
       id="clipPath8769">
      <rect
         x="181.56"
         y="5.48"
         width="254.67"
         height="467.03"
         id="rect8767" />
    </clipPath>
    <clipPath
       id="clipPath8773">
      <rect
         x="181.56"
         y="5.48"
         width="254.67"
         height="467.03"
         id="rect8771" />
    </clipPath>
    <clipPath
       id="clipPath8777">
      <rect
         x="181.56"
         y="5.48"
         width="254.67"
         height="467.03"
         id="rect8775" />
    </clipPath>
    <clipPath
       id="clipPath8781">
      <rect
         x="181.56"
         y="5.48"
         width="254.67"
         height="467.03"
         id="rect8779" />
    </clipPath>
    <clipPath
       id="clipPath8785">
      <rect
         x="181.56"
         y="5.48"
         width="254.67"
         height="467.03"
         id="rect8783" />
    </clipPath>
    <clipPath
       id="clipPath8789">
      <rect
         x="181.56"
         y="5.48"
         width="254.67"
         height="467.03"
         id="rect8787" />
    </clipPath>
    <clipPath
       id="clipPath8793">
      <rect
         x="181.56"
         y="5.48"
         width="254.67"
         height="467.03"
         id="rect8791" />
    </clipPath>
    <clipPath
       id="clipPath8797">
      <rect
         x="181.56"
         y="5.48"
         width="254.67"
         height="467.03"
         id="rect8795" />
    </clipPath>
    <clipPath
       id="clipPath8801">
      <rect
         x="181.56"
         y="5.48"
         width="254.67"
         height="467.03"
         id="rect8799" />
    </clipPath>
    <clipPath
       id="cpMC4wMHw1MDQuMDB8NTA0LjAwfDAuMDA=-7">
      <rect
         x="0"
         y="0"
         width="504"
         height="504"
         id="rect31662-3" />
    </clipPath>
    <clipPath
       id="clipPath8807">
      <rect
         x="0"
         y="0"
         width="504"
         height="504"
         id="rect8805" />
    </clipPath>
    <clipPath
       id="clipPath8811">
      <rect
         x="0"
         y="0"
         width="504"
         height="504"
         id="rect8809" />
    </clipPath>
  </defs>
  <defs
     id="defs31532">
    <clipPath
       id="cpMTgxLjU2fDQzNi4yM3w0NzIuNTF8NS40OA==">
      <rect
         x="181.56"
         y="5.48"
         width="254.67"
         height="467.03"
         id="rect31529" />
    </clipPath>
  </defs>
  <defs
     id="defs31665">
    <clipPath
       id="cpMC4wMHw1MDQuMDB8NTA0LjAwfDAuMDA=">
      <rect
         x="0"
         y="0"
         width="504"
         height="504"
         id="rect31662" />
    </clipPath>
  </defs>
  <rect
     x="181.56"
     y="5.48"
     width="254.67"
     height="467.03"
     style="fill:#efebe9;stroke:none;stroke-width:1.07;stroke-linecap:round;stroke-linejoin:round;stroke-miterlimit:10"
     clip-path="url(#cpMTgxLjU2fDQzNi4yM3w0NzIuNTF8NS40OA==-3)"
     id="rect31534-3"
     transform="matrix(0.65068467,0,0,0.24623685,-21.808175,-1.349376)" />
  <path
     id="polyline31546-2"
     clip-path="none"
     style="fill:none;stroke:#ffffff;stroke-width:0.80665;stroke-linecap:butt;stroke-linejoin:round;stroke-miterlimit:10;stroke-dasharray:none"
     d="m 96.330135,105.89067 c 55.236615,0 110.473245,0 165.709865,0" />
  <path
     id="polyline31550-8"
     clip-path="none"
     style="fill:none;stroke:#ffffff;stroke-width:0.80665;stroke-linecap:butt;stroke-linejoin:round;stroke-miterlimit:10;stroke-dasharray:none"
     d="m 96.330135,50.07044 c 55.236615,0 110.473245,0 165.709865,0" />
  <path
     id="polyline31554-1"
     clip-path="none"
     style="fill:none;stroke:#ffffff;stroke-width:0.710361;stroke-linecap:butt;stroke-linejoin:round;stroke-miterlimit:10;stroke-dasharray:none"
     d="m 115.70574,115 c 0,-38.33333 0,-76.66666 0,-115" />
  <path
     id="polyline31556-6"
     clip-path="none"
     style="fill:none;stroke:#ffffff;stroke-width:0.710361;stroke-linecap:butt;stroke-linejoin:round;stroke-miterlimit:10;stroke-dasharray:none"
     d="m 202.35574,115 c 0,-38.33333 0,-76.66666 0,-115" />
  <path
     id="polyline31558-0"
     clip-path="none"
     style="fill:none;stroke:#ffffff;stroke-width:0.710361;stroke-linecap:butt;stroke-linejoin:round;stroke-miterlimit:10;stroke-dasharray:none"
     d="m 253.03574,115 c 0,-38.33333 0,-76.66666 0,-115" />
  <polyline
     points="229.22,172.15 229.61,172.15 230.00,172.15 230.40,172.16 230.79,172.16 231.18,172.17 231.57,172.18 231.96,172.19 232.35,172.20 232.74,172.21 233.13,172.22 233.52,172.23 233.91,172.24 234.30,172.25 234.69,172.25 235.09,172.26 235.48,172.26 235.87,172.27 236.26,172.27 236.65,172.27 237.04,172.27 237.43,172.27 237.82,172.27 238.21,172.27 238.60,172.27 238.99,172.27 239.39,172.26 239.78,172.26 240.17,172.26 240.56,172.25 240.95,172.25 241.34,172.24 241.73,172.24 242.12,172.23 242.51,172.23 242.90,172.22 243.29,172.22 243.68,172.22 244.08,172.21 244.47,172.21 244.86,172.21 245.25,172.22 245.64,172.22 246.03,172.22 246.42,172.23 246.81,172.23 247.20,172.24 247.59,172.24 247.98,172.24 248.37,172.25 248.77,172.25 249.16,172.25 249.55,172.25 249.94,172.25 250.33,172.24 250.72,172.24 251.11,172.24 251.50,172.23 251.89,172.22 252.28,172.22 252.67,172.21 253.07,172.20 253.46,172.19 253.85,172.18 254.24,172.17 254.63,172.16 255.02,172.14 255.41,172.13 255.80,172.11 256.19,172.09 256.58,172.07 256.97,172.04 257.36,172.01 257.76,171.97 258.15,171.94 258.54,171.90 258.93,171.86 259.32,171.82 259.71,171.78 260.10,171.74 260.49,171.71 260.88,171.67 261.27,171.65 261.66,171.63 262.06,171.61 262.45,171.60 262.84,171.59 263.23,171.58 263.62,171.58 264.01,171.58 264.40,171.57 264.79,171.57 265.18,171.56 265.57,171.54 265.96,171.52 266.35,171.50 266.75,171.46 267.14,171.42 267.53,171.38 267.92,171.33 268.31,171.27 268.70,171.21 269.09,171.15 269.48,171.08 269.87,171.02 270.26,170.95 270.65,170.88 271.05,170.81 271.44,170.74 271.83,170.68 272.22,170.61 272.61,170.54 273.00,170.47 273.39,170.41 273.78,170.34 274.17,170.27 274.56,170.21 274.95,170.14 275.34,170.08 275.74,170.02 276.13,169.95 276.52,169.89 276.91,169.83 277.30,169.77 277.69,169.71 278.08,169.64 278.47,169.56 278.86,169.48 279.25,169.39 279.64,169.28 280.03,169.16 280.43,169.02 280.82,168.86 281.21,168.69 281.60,168.49 281.99,168.29 282.38,168.06 282.77,167.82 283.16,167.57 283.55,167.31 283.94,167.05 284.33,166.78 284.73,166.51 285.12,166.25 285.51,165.99 285.90,165.73 286.29,165.47 286.68,165.22 287.07,164.97 287.46,164.72 287.85,164.47 288.24,164.21 288.63,163.95 289.02,163.68 289.42,163.41 289.61,163.27 289.61,172.28 289.42,172.28 289.02,172.28 288.63,172.28 288.24,172.28 287.85,172.28 287.46,172.28 287.07,172.28 286.68,172.28 286.29,172.28 285.90,172.28 285.51,172.28 285.12,172.28 284.73,172.28 284.33,172.28 283.94,172.28 283.55,172.28 283.16,172.28 282.77,172.28 282.38,172.28 281.99,172.28 281.60,172.28 281.21,172.28 280.82,172.28 280.43,172.28 280.03,172.28 279.64,172.28 279.25,172.28 278.86,172.28 278.47,172.28 278.08,172.28 277.69,172.28 277.30,172.28 276.91,172.28 276.52,172.28 276.13,172.28 275.74,172.28 275.34,172.28 274.95,172.28 274.56,172.28 274.17,172.28 273.78,172.28 273.39,172.28 273.00,172.28 272.61,172.28 272.22,172.28 271.83,172.28 271.44,172.28 271.05,172.28 270.65,172.28 270.26,172.28 269.87,172.28 269.48,172.28 269.09,172.28 268.70,172.28 268.31,172.28 267.92,172.28 267.53,172.28 267.14,172.28 266.75,172.28 266.35,172.28 265.96,172.28 265.57,172.28 265.18,172.28 264.79,172.28 264.40,172.28 264.01,172.28 263.62,172.28 263.23,172.28 262.84,172.28 262.45,172.28 262.06,172.28 261.66,172.28 261.27,172.28 260.88,172.28 260.49,172.28 260.10,172.28 259.71,172.28 259.32,172.28 258.93,172.28 258.54,172.28 258.15,172.28 257.76,172.28 257.36,172.28 256.97,172.28 256.58,172.28 256.19,172.28 255.80,172.28 255.41,172.28 255.02,172.28 254.63,172.28 254.24,172.28 253.85,172.28 253.46,172.28 253.07,172.28 252.67,172.28 252.28,172.28 251.89,172.28 251.50,172.28 251.11,172.28 250.72,172.28 250.33,172.28 249.94,172.28 249.55,172.28 249.16,172.28 248.77,172.28 248.37,172.28 247.98,172.28 247.59,172.28 247.20,172.28 246.81,172.28 246.42,172.28 246.03,172.28 245.64,172.28 245.25,172.28 244.86,172.28 244.47,172.28 244.08,172.28 243.68,172.28 243.29,172.28 242.90,172.28 242.51,172.28 242.12,172.28 241.73,172.28 241.34,172.28 240.95,172.28 240.56,172.28 240.17,172.28 239.78,172.28 239.39,172.28 238.99,172.28 238.60,172.28 238.21,172.28 237.82,172.28 237.43,172.28 237.04,172.28 236.65,172.28 236.26,172.28 235.87,172.28 235.48,172.28 235.09,172.28 234.69,172.28 234.30,172.28 233.91,172.28 233.52,172.28 233.13,172.28 232.74,172.28 232.35,172.28 231.96,172.28 231.57,172.28 231.18,172.28 230.79,172.28 230.40,172.28 230.00,172.28 229.61,172.28 229.22,172.28 229.22,172.15 "
     style="fill:#ffffff;stroke:none;stroke-width:2.13;stroke-linecap:round;stroke-linejoin:round;stroke-miterlimit:10"
     clip-path="url(#cpMTgxLjU2fDQzNi4yM3w0NzIuNTF8NS40OA==-3)"
     id="polyline31574-4"
     transform="matrix(1,0,0,0.61539412,-135.24426,-55.949664)" />
  <polygon
     points="294.11,159.56 294.5,159.13 294.89,158.67 295.28,158.19 295.67,157.66 296.06,157.11 296.45,156.53 296.84,155.93 297.23,155.3 297.62,154.67 298.01,154.02 298.41,153.37 298.8,152.72 299.19,152.08 299.58,151.44 299.97,150.8 300.36,150.17 300.75,149.54 301.14,148.91 301.53,148.28 301.92,147.63 302.31,146.96 302.71,146.27 303.1,145.55 303.49,144.8 303.88,144.03 304.27,143.23 304.46,142.81 304.46,172.28 304.27,172.28 303.88,172.28 303.49,172.28 303.1,172.28 302.71,172.28 302.31,172.28 301.92,172.28 301.53,172.28 301.14,172.28 300.75,172.28 300.36,172.28 299.97,172.28 299.58,172.28 299.19,172.28 298.8,172.28 298.41,172.28 298.01,172.28 297.62,172.28 297.23,172.28 296.84,172.28 296.45,172.28 296.06,172.28 295.67,172.28 295.28,172.28 294.89,172.28 294.5,172.28 294.11,172.28 293.72,172.28 293.32,172.28 292.93,172.28 292.54,172.28 292.15,172.28 291.76,172.28 291.37,172.28 290.98,172.28 290.59,172.28 290.2,172.28 289.81,172.28 289.61,172.28 289.61,163.27 289.81,163.13 290.2,162.84 290.59,162.55 290.98,162.26 291.37,161.96 291.76,161.65 292.15,161.34 292.54,161.01 292.93,160.68 293.32,160.33 293.72,159.95 "
     style="fill:#bbdefb;stroke:none;stroke-width:2.13;stroke-linecap:round;stroke-linejoin:round;stroke-miterlimit:10"
     clip-path="url(#cpMTgxLjU2fDQzNi4yM3w0NzIuNTF8NS40OA==-3)"
     id="polygon31576-9"
     transform="matrix(1,0,0,0.61539412,-135.24426,-55.949664)" />
  <polygon
     points="308.96,133.24 309.35,132.47 309.74,131.71 310.13,130.94 310.52,130.17 310.91,129.38 311.3,128.56 311.69,127.71 312.09,126.83 312.48,125.9 312.87,124.93 313.26,123.92 313.65,122.85 314.04,121.74 314.43,120.6 314.82,119.42 315.21,118.21 315.6,117.01 315.99,115.81 316.39,114.63 316.58,114.06 316.58,172.28 316.39,172.28 315.99,172.28 315.6,172.28 315.21,172.28 314.82,172.28 314.43,172.28 314.04,172.28 313.65,172.28 313.26,172.28 312.87,172.28 312.48,172.28 312.09,172.28 311.69,172.28 311.3,172.28 310.91,172.28 310.52,172.28 310.13,172.28 309.74,172.28 309.35,172.28 308.96,172.28 308.57,172.28 308.18,172.28 307.79,172.28 307.4,172.28 307,172.28 306.61,172.28 306.22,172.28 305.83,172.28 305.44,172.28 305.05,172.28 304.66,172.28 304.46,172.28 304.46,142.81 304.66,142.4 305.05,141.55 305.44,140.69 305.83,139.83 306.22,138.96 306.61,138.1 307,137.25 307.4,136.42 307.79,135.6 308.18,134.8 308.57,134.01 "
     style="fill:#2196f3;stroke:none;stroke-width:2.13;stroke-linecap:round;stroke-linejoin:round;stroke-miterlimit:10"
     clip-path="url(#cpMTgxLjU2fDQzNi4yM3w0NzIuNTF8NS40OA==-3)"
     id="polygon31578-6"
     transform="matrix(1,0,0,0.61539412,-135.24426,-55.949664)" />
  <polygon
     points="321.08,105.15 321.47,104.64 321.86,104.11 322.25,103.57 322.64,103.02 323.03,102.46 323.42,101.9 323.81,101.34 324.2,100.81 324.59,100.32 324.98,99.89 325.38,99.53 325.77,99.25 326.16,99.04 326.55,98.91 326.94,98.85 327.33,98.84 327.72,98.89 328.11,98.96 328.5,99.05 328.89,99.14 329.28,99.21 329.67,99.27 330.07,99.3 330.46,99.32 330.85,99.33 331.24,99.34 331.63,99.37 332.02,99.42 332.41,99.52 332.8,99.67 333.19,99.88 333.58,100.17 333.97,100.52 334.36,100.96 334.76,101.46 335.15,102.03 335.54,102.65 335.93,103.32 336.32,104.02 336.71,104.76 337.1,105.52 337.49,106.3 337.88,107.1 338.27,107.91 338.66,108.74 339.06,109.58 339.45,110.42 339.84,111.28 340.23,112.15 340.62,113.03 340.81,113.48 340.81,172.28 340.62,172.28 340.23,172.28 339.84,172.28 339.45,172.28 339.06,172.28 338.66,172.28 338.27,172.28 337.88,172.28 337.49,172.28 337.1,172.28 336.71,172.28 336.32,172.28 335.93,172.28 335.54,172.28 335.15,172.28 334.76,172.28 334.36,172.28 333.97,172.28 333.58,172.28 333.19,172.28 332.8,172.28 332.41,172.28 332.02,172.28 331.63,172.28 331.24,172.28 330.85,172.28 330.46,172.28 330.07,172.28 329.67,172.28 329.28,172.28 328.89,172.28 328.5,172.28 328.11,172.28 327.72,172.28 327.33,172.28 326.94,172.28 326.55,172.28 326.16,172.28 325.77,172.28 325.38,172.28 324.98,172.28 324.59,172.28 324.2,172.28 323.81,172.28 323.42,172.28 323.03,172.28 322.64,172.28 322.25,172.28 321.86,172.28 321.47,172.28 321.08,172.28 320.68,172.28 320.29,172.28 319.9,172.28 319.51,172.28 319.12,172.28 318.73,172.28 318.34,172.28 317.95,172.28 317.56,172.28 317.17,172.28 316.78,172.28 316.58,172.28 316.58,114.06 316.78,113.49 317.17,112.41 317.56,111.38 317.95,110.43 318.34,109.55 318.73,108.75 319.12,108.02 319.51,107.36 319.9,106.76 320.29,106.2 320.68,105.67 "
     style="fill:#0d47a1;stroke:none;stroke-width:2.13;stroke-linecap:round;stroke-linejoin:round;stroke-miterlimit:10"
     clip-path="url(#cpMTgxLjU2fDQzNi4yM3w0NzIuNTF8NS40OA==-3)"
     id="polygon31580-8"
     transform="matrix(1,0,0,0.61539412,-135.24426,-55.949664)" />
  <polygon
     points="345.31,123.98 345.7,124.91 346.09,125.84 346.48,126.76 346.87,127.69 347.26,128.61 347.65,129.52 348.05,130.43 348.44,131.33 348.83,132.23 349.22,133.13 349.61,134.03 350,134.92 350.39,135.82 350.78,136.72 351.17,137.62 351.56,138.53 351.95,139.44 352.15,139.9 352.15,172.28 351.95,172.28 351.56,172.28 351.17,172.28 350.78,172.28 350.39,172.28 350,172.28 349.61,172.28 349.22,172.28 348.83,172.28 348.44,172.28 348.05,172.28 347.65,172.28 347.26,172.28 346.87,172.28 346.48,172.28 346.09,172.28 345.7,172.28 345.31,172.28 344.92,172.28 344.53,172.28 344.14,172.28 343.75,172.28 343.35,172.28 342.96,172.28 342.57,172.28 342.18,172.28 341.79,172.28 341.4,172.28 341.01,172.28 340.81,172.28 340.81,113.48 341.01,113.92 341.4,114.81 341.79,115.71 342.18,116.62 342.57,117.53 342.96,118.44 343.35,119.36 343.75,120.28 344.14,121.2 344.53,122.13 344.92,123.05 "
     style="fill:#2196f3;stroke:none;stroke-width:2.13;stroke-linecap:round;stroke-linejoin:round;stroke-miterlimit:10"
     clip-path="url(#cpMTgxLjU2fDQzNi4yM3w0NzIuNTF8NS40OA==-3)"
     id="polygon31582-2"
     transform="matrix(1,0,0,0.61539412,-135.24426,-55.949664)" />
  <polygon
     points="356.64,150.34 357.04,151.16 357.43,151.95 357.82,152.71 358.21,153.45 358.6,154.15 358.99,154.82 359.38,155.45 359.77,156.06 360.16,156.63 360.55,157.17 360.94,157.68 361.33,158.16 361.73,158.61 362.12,159.04 362.51,159.44 362.9,159.82 363.29,160.19 363.68,160.54 364.07,160.89 364.46,161.23 364.85,161.57 365.24,161.91 365.63,162.26 365.83,162.43 365.83,172.28 365.63,172.28 365.24,172.28 364.85,172.28 364.46,172.28 364.07,172.28 363.68,172.28 363.29,172.28 362.9,172.28 362.51,172.28 362.12,172.28 361.73,172.28 361.33,172.28 360.94,172.28 360.55,172.28 360.16,172.28 359.77,172.28 359.38,172.28 358.99,172.28 358.6,172.28 358.21,172.28 357.82,172.28 357.43,172.28 357.04,172.28 356.64,172.28 356.25,172.28 355.86,172.28 355.47,172.28 355.08,172.28 354.69,172.28 354.3,172.28 353.91,172.28 353.52,172.28 353.13,172.28 352.74,172.28 352.34,172.28 352.15,172.28 352.15,139.9 352.34,140.36 352.74,141.28 353.13,142.21 353.52,143.14 353.91,144.07 354.3,145 354.69,145.92 355.08,146.84 355.47,147.74 355.86,148.62 356.25,149.49 "
     style="fill:#bbdefb;stroke:none;stroke-width:2.13;stroke-linecap:round;stroke-linejoin:round;stroke-miterlimit:10"
     clip-path="url(#cpMTgxLjU2fDQzNi4yM3w0NzIuNTF8NS40OA==-3)"
     id="polygon31584-4"
     transform="matrix(1,0,0,0.61539412,-135.24426,-55.949664)" />
  <polyline
     points="365.83,162.43 366.02,162.60 366.42,162.95 366.81,163.30 367.20,163.66 367.59,164.01 367.98,164.36 368.37,164.70 368.76,165.04 369.15,165.38 369.54,165.70 369.93,166.02 370.32,166.33 370.72,166.62 371.11,166.91 371.50,167.18 371.89,167.45 372.28,167.69 372.67,167.93 373.06,168.15 373.45,168.36 373.84,168.55 374.23,168.73 374.62,168.89 375.01,169.04 375.41,169.17 375.80,169.30 376.19,169.41 376.58,169.52 376.97,169.62 377.36,169.72 377.75,169.82 378.14,169.91 378.53,170.01 378.92,170.11 379.31,170.21 379.71,170.31 380.10,170.41 380.49,170.50 380.88,170.60 381.27,170.68 381.66,170.76 382.05,170.84 382.44,170.90 382.83,170.96 383.22,171.01 383.61,171.05 384.00,171.09 384.40,171.12 384.79,171.14 385.18,171.16 385.57,171.18 385.96,171.20 386.35,171.21 386.74,171.23 387.13,171.24 387.52,171.26 387.91,171.28 388.30,171.30 388.69,171.32 389.09,171.34 389.48,171.36 389.87,171.38 390.26,171.40 390.65,171.43 391.04,171.45 391.43,171.47 391.82,171.50 392.21,171.52 392.60,171.55 392.99,171.58 393.39,171.62 393.78,171.66 394.17,171.70 394.56,171.75 394.95,171.79 395.34,171.83 395.73,171.88 396.12,171.92 396.51,171.95 396.90,171.99 397.29,172.02 397.68,172.04 398.08,172.06 398.47,172.08 398.86,172.09 399.25,172.10 399.64,172.11 400.03,172.12 400.42,172.13 400.81,172.14 401.20,172.15 401.59,172.16 401.98,172.16 402.38,172.17 402.77,172.18 403.16,172.18 403.55,172.19 403.94,172.19 404.33,172.19 404.72,172.19 405.11,172.20 405.50,172.20 405.89,172.20 406.28,172.20 406.67,172.21 407.07,172.21 407.46,172.21 407.85,172.21 408.24,172.22 408.63,172.22 409.02,172.22 409.41,172.22 409.80,172.22 410.19,172.22 410.58,172.22 410.97,172.21 411.37,172.21 411.76,172.21 412.15,172.21 412.54,172.21 412.93,172.21 413.32,172.21 413.71,172.22 414.10,172.22 414.49,172.23 414.88,172.23 415.27,172.24 415.66,172.24 416.06,172.25 416.45,172.25 416.84,172.26 417.23,172.26 417.62,172.26 418.01,172.26 418.40,172.26 418.79,172.26 419.18,172.26 419.57,172.26 419.96,172.26 420.35,172.26 420.75,172.25 421.14,172.25 421.53,172.24 421.92,172.24 422.31,172.23 422.70,172.23 423.09,172.22 423.48,172.22 423.87,172.22 424.26,172.21 424.65,172.21 424.65,172.28 424.26,172.28 423.87,172.28 423.48,172.28 423.09,172.28 422.70,172.28 422.31,172.28 421.92,172.28 421.53,172.28 421.14,172.28 420.75,172.28 420.35,172.28 419.96,172.28 419.57,172.28 419.18,172.28 418.79,172.28 418.40,172.28 418.01,172.28 417.62,172.28 417.23,172.28 416.84,172.28 416.45,172.28 416.06,172.28 415.66,172.28 415.27,172.28 414.88,172.28 414.49,172.28 414.10,172.28 413.71,172.28 413.32,172.28 412.93,172.28 412.54,172.28 412.15,172.28 411.76,172.28 411.37,172.28 410.97,172.28 410.58,172.28 410.19,172.28 409.80,172.28 409.41,172.28 409.02,172.28 408.63,172.28 408.24,172.28 407.85,172.28 407.46,172.28 407.07,172.28 406.67,172.28 406.28,172.28 405.89,172.28 405.50,172.28 405.11,172.28 404.72,172.28 404.33,172.28 403.94,172.28 403.55,172.28 403.16,172.28 402.77,172.28 402.38,172.28 401.98,172.28 401.59,172.28 401.20,172.28 400.81,172.28 400.42,172.28 400.03,172.28 399.64,172.28 399.25,172.28 398.86,172.28 398.47,172.28 398.08,172.28 397.68,172.28 397.29,172.28 396.90,172.28 396.51,172.28 396.12,172.28 395.73,172.28 395.34,172.28 394.95,172.28 394.56,172.28 394.17,172.28 393.78,172.28 393.39,172.28 392.99,172.28 392.60,172.28 392.21,172.28 391.82,172.28 391.43,172.28 391.04,172.28 390.65,172.28 390.26,172.28 389.87,172.28 389.48,172.28 389.09,172.28 388.69,172.28 388.30,172.28 387.91,172.28 387.52,172.28 387.13,172.28 386.74,172.28 386.35,172.28 385.96,172.28 385.57,172.28 385.18,172.28 384.79,172.28 384.40,172.28 384.00,172.28 383.61,172.28 383.22,172.28 382.83,172.28 382.44,172.28 382.05,172.28 381.66,172.28 381.27,172.28 380.88,172.28 380.49,172.28 380.10,172.28 379.71,172.28 379.31,172.28 378.92,172.28 378.53,172.28 378.14,172.28 377.75,172.28 377.36,172.28 376.97,172.28 376.58,172.28 376.19,172.28 375.80,172.28 375.41,172.28 375.01,172.28 374.62,172.28 374.23,172.28 373.84,172.28 373.45,172.28 373.06,172.28 372.67,172.28 372.28,172.28 371.89,172.28 371.50,172.28 371.11,172.28 370.72,172.28 370.32,172.28 369.93,172.28 369.54,172.28 369.15,172.28 368.76,172.28 368.37,172.28 367.98,172.28 367.59,172.28 367.20,172.28 366.81,172.28 366.42,172.28 366.02,172.28 365.83,172.28 365.83,162.43 "
     style="fill:#ffffff;stroke:none;stroke-width:2.13;stroke-linecap:round;stroke-linejoin:round;stroke-miterlimit:10"
     clip-path="url(#cpMTgxLjU2fDQzNi4yM3w0NzIuNTF8NS40OA==-3)"
     id="polyline31586-6"
     transform="matrix(1,0,0,0.61539412,-135.24426,-55.949664)" />
  <polyline
     points="219.14,338.95 219.46,338.94 219.77,338.92 220.09,338.91 220.41,338.89 220.73,338.87 221.05,338.85 221.36,338.82 221.68,338.80 222.00,338.77 222.32,338.74 222.64,338.71 222.95,338.69 223.27,338.66 223.59,338.63 223.91,338.61 224.22,338.59 224.54,338.57 224.86,338.55 225.18,338.54 225.50,338.53 225.81,338.52 226.13,338.51 226.45,338.51 226.77,338.51 227.09,338.51 227.40,338.52 227.72,338.52 228.04,338.52 228.36,338.52 228.68,338.51 228.99,338.51 229.31,338.50 229.63,338.49 229.95,338.47 230.27,338.45 230.58,338.43 230.90,338.40 231.22,338.38 231.54,338.35 231.86,338.32 232.17,338.28 232.49,338.25 232.81,338.22 233.13,338.19 233.44,338.16 233.76,338.13 234.08,338.10 234.40,338.07 234.72,338.04 235.03,338.01 235.35,337.97 235.67,337.94 235.99,337.90 236.31,337.86 236.62,337.81 236.94,337.76 237.26,337.70 237.58,337.64 237.90,337.57 238.21,337.49 238.53,337.40 238.85,337.31 239.17,337.22 239.49,337.12 239.80,337.02 240.12,336.92 240.44,336.82 240.76,336.72 241.07,336.61 241.39,336.51 241.71,336.42 242.03,336.32 242.35,336.23 242.66,336.14 242.98,336.05 243.30,335.96 243.62,335.87 243.94,335.78 244.25,335.69 244.57,335.59 244.89,335.49 245.21,335.38 245.53,335.27 245.84,335.16 246.16,335.03 246.48,334.90 246.80,334.76 247.12,334.62 247.43,334.46 247.75,334.30 248.07,334.14 248.39,333.97 248.71,333.79 249.02,333.61 249.34,333.42 249.66,333.23 249.98,333.03 250.29,332.83 250.61,332.63 250.93,332.42 251.25,332.21 251.57,332.00 251.88,331.79 252.20,331.57 252.52,331.36 252.84,331.14 253.16,330.93 253.47,330.71 253.79,330.50 254.11,330.28 254.27,330.18 254.27,339.07 254.11,339.07 253.79,339.07 253.47,339.07 253.16,339.07 252.84,339.07 252.52,339.07 252.20,339.07 251.88,339.07 251.57,339.07 251.25,339.07 250.93,339.07 250.61,339.07 250.29,339.07 249.98,339.07 249.66,339.07 249.34,339.07 249.02,339.07 248.71,339.07 248.39,339.07 248.07,339.07 247.75,339.07 247.43,339.07 247.12,339.07 246.80,339.07 246.48,339.07 246.16,339.07 245.84,339.07 245.53,339.07 245.21,339.07 244.89,339.07 244.57,339.07 244.25,339.07 243.94,339.07 243.62,339.07 243.30,339.07 242.98,339.07 242.66,339.07 242.35,339.07 242.03,339.07 241.71,339.07 241.39,339.07 241.07,339.07 240.76,339.07 240.44,339.07 240.12,339.07 239.80,339.07 239.49,339.07 239.17,339.07 238.85,339.07 238.53,339.07 238.21,339.07 237.90,339.07 237.58,339.07 237.26,339.07 236.94,339.07 236.62,339.07 236.31,339.07 235.99,339.07 235.67,339.07 235.35,339.07 235.03,339.07 234.72,339.07 234.40,339.07 234.08,339.07 233.76,339.07 233.44,339.07 233.13,339.07 232.81,339.07 232.49,339.07 232.17,339.07 231.86,339.07 231.54,339.07 231.22,339.07 230.90,339.07 230.58,339.07 230.27,339.07 229.95,339.07 229.63,339.07 229.31,339.07 228.99,339.07 228.68,339.07 228.36,339.07 228.04,339.07 227.72,339.07 227.40,339.07 227.09,339.07 226.77,339.07 226.45,339.07 226.13,339.07 225.81,339.07 225.50,339.07 225.18,339.07 224.86,339.07 224.54,339.07 224.22,339.07 223.91,339.07 223.59,339.07 223.27,339.07 222.95,339.07 222.64,339.07 222.32,339.07 222.00,339.07 221.68,339.07 221.36,339.07 221.05,339.07 220.73,339.07 220.41,339.07 220.09,339.07 219.77,339.07 219.46,339.07 219.14,339.07 219.14,338.95 "
     style="fill:#ffffff;stroke:none;stroke-width:2.13;stroke-linecap:round;stroke-linejoin:round;stroke-miterlimit:10"
     clip-path="url(#cpMTgxLjU2fDQzNi4yM3w0NzIuNTF8NS40OA==-3)"
     id="polyline31602-4"
     transform="matrix(1,0,0,0.61539412,-135.24426,-102.77101)" />
  <polygon
     points="257.61,327.34 257.93,326.98 258.24,326.61 258.56,326.22 258.88,325.83 259.2,325.42 259.51,325.01 259.83,324.6 260.15,324.2 260.47,323.79 260.79,323.4 261.1,323.01 261.42,322.62 261.74,322.24 262.06,321.86 262.38,321.49 262.69,321.1 263.01,320.72 263.33,320.32 263.65,319.9 263.97,319.47 264.28,319.02 264.6,318.54 264.92,318.03 265.24,317.49 265.56,316.91 265.87,316.3 266.19,315.66 266.51,314.98 266.83,314.27 267.15,313.53 267.46,312.77 267.78,311.99 268.1,311.18 268.42,310.36 268.73,309.53 269.05,308.69 269.21,308.27 269.21,339.07 269.05,339.07 268.73,339.07 268.42,339.07 268.1,339.07 267.78,339.07 267.46,339.07 267.15,339.07 266.83,339.07 266.51,339.07 266.19,339.07 265.87,339.07 265.56,339.07 265.24,339.07 264.92,339.07 264.6,339.07 264.28,339.07 263.97,339.07 263.65,339.07 263.33,339.07 263.01,339.07 262.69,339.07 262.38,339.07 262.06,339.07 261.74,339.07 261.42,339.07 261.1,339.07 260.79,339.07 260.47,339.07 260.15,339.07 259.83,339.07 259.51,339.07 259.2,339.07 258.88,339.07 258.56,339.07 258.24,339.07 257.93,339.07 257.61,339.07 257.29,339.07 256.97,339.07 256.65,339.07 256.34,339.07 256.02,339.07 255.7,339.07 255.38,339.07 255.06,339.07 254.75,339.07 254.43,339.07 254.27,339.07 254.27,330.18 254.43,330.07 254.75,329.85 255.06,329.62 255.38,329.38 255.7,329.14 256.02,328.88 256.34,328.61 256.65,328.32 256.97,328.01 257.29,327.68 "
     style="fill:#bbdefb;stroke:none;stroke-width:2.13;stroke-linecap:round;stroke-linejoin:round;stroke-miterlimit:10"
     clip-path="url(#cpMTgxLjU2fDQzNi4yM3w0NzIuNTF8NS40OA==-3)"
     id="polygon31604-0"
     transform="matrix(1,0,0,0.61539412,-135.24426,-102.77101)" />
  <polygon
     points="272.55,299.77 272.87,298.97 273.19,298.17 273.5,297.35 273.82,296.51 274.14,295.67 274.46,294.81 274.78,293.94 275.09,293.07 275.41,292.19 275.73,291.31 276.05,290.44 276.36,289.58 276.68,288.73 277,287.9 277.32,287.08 277.64,286.29 277.95,285.5 278.27,284.74 278.59,283.98 278.91,283.24 279.23,282.49 279.54,281.75 279.86,281.01 280.18,280.26 280.34,279.89 280.34,339.07 280.18,339.07 279.86,339.07 279.54,339.07 279.23,339.07 278.91,339.07 278.59,339.07 278.27,339.07 277.95,339.07 277.64,339.07 277.32,339.07 277,339.07 276.68,339.07 276.36,339.07 276.05,339.07 275.73,339.07 275.41,339.07 275.09,339.07 274.78,339.07 274.46,339.07 274.14,339.07 273.82,339.07 273.5,339.07 273.19,339.07 272.87,339.07 272.55,339.07 272.23,339.07 271.91,339.07 271.6,339.07 271.28,339.07 270.96,339.07 270.64,339.07 270.32,339.07 270.01,339.07 269.69,339.07 269.37,339.07 269.21,339.07 269.21,308.27 269.37,307.85 269.69,307.02 270.01,306.19 270.32,305.36 270.64,304.55 270.96,303.74 271.28,302.94 271.6,302.14 271.91,301.35 272.23,300.56 "
     style="fill:#2196f3;stroke:none;stroke-width:2.13;stroke-linecap:round;stroke-linejoin:round;stroke-miterlimit:10"
     clip-path="url(#cpMTgxLjU2fDQzNi4yM3w0NzIuNTF8NS40OA==-3)"
     id="polygon31606-4"
     transform="matrix(1,0,0,0.61539412,-135.24426,-102.77101)" />
  <polygon
     points="283.68,272.61 284,272.04 284.31,271.51 284.63,271.01 284.95,270.53 285.27,270.08 285.58,269.66 285.9,269.25 286.22,268.86 286.54,268.49 286.86,268.14 287.17,267.8 287.49,267.47 287.81,267.15 288.13,266.84 288.45,266.54 288.76,266.24 289.08,265.96 289.4,265.68 289.72,265.41 290.04,265.15 290.35,264.9 290.67,264.67 290.99,264.46 291.31,264.29 291.63,264.15 291.94,264.06 292.26,264.01 292.58,264.02 292.9,264.09 293.22,264.22 293.53,264.4 293.85,264.65 294.17,264.96 294.49,265.31 294.8,265.7 295.12,266.11 295.44,266.55 295.76,266.99 296.08,267.43 296.39,267.85 296.71,268.26 297.03,268.65 297.35,269.01 297.67,269.35 297.98,269.66 298.3,269.95 298.62,270.23 298.94,270.5 299.26,270.76 299.57,271.03 299.89,271.31 300.21,271.61 300.53,271.93 300.85,272.27 301.16,272.65 301.48,273.07 301.8,273.52 302.12,274.01 302.43,274.54 302.75,275.11 303.07,275.72 303.39,276.37 303.71,277.05 304.02,277.77 304.34,278.52 304.66,279.3 304.82,279.7 304.82,339.07 304.66,339.07 304.34,339.07 304.02,339.07 303.71,339.07 303.39,339.07 303.07,339.07 302.75,339.07 302.43,339.07 302.12,339.07 301.8,339.07 301.48,339.07 301.16,339.07 300.85,339.07 300.53,339.07 300.21,339.07 299.89,339.07 299.57,339.07 299.26,339.07 298.94,339.07 298.62,339.07 298.3,339.07 297.98,339.07 297.67,339.07 297.35,339.07 297.03,339.07 296.71,339.07 296.39,339.07 296.08,339.07 295.76,339.07 295.44,339.07 295.12,339.07 294.8,339.07 294.49,339.07 294.17,339.07 293.85,339.07 293.53,339.07 293.22,339.07 292.9,339.07 292.58,339.07 292.26,339.07 291.94,339.07 291.63,339.07 291.31,339.07 290.99,339.07 290.67,339.07 290.35,339.07 290.04,339.07 289.72,339.07 289.4,339.07 289.08,339.07 288.76,339.07 288.45,339.07 288.13,339.07 287.81,339.07 287.49,339.07 287.17,339.07 286.86,339.07 286.54,339.07 286.22,339.07 285.9,339.07 285.58,339.07 285.27,339.07 284.95,339.07 284.63,339.07 284.31,339.07 284,339.07 283.68,339.07 283.36,339.07 283.04,339.07 282.72,339.07 282.41,339.07 282.09,339.07 281.77,339.07 281.45,339.07 281.13,339.07 280.82,339.07 280.5,339.07 280.34,339.07 280.34,279.89 280.5,279.52 280.82,278.77 281.13,278.03 281.45,277.29 281.77,276.56 282.09,275.84 282.41,275.15 282.72,274.47 283.04,273.82 283.36,273.2 "
     style="fill:#0d47a1;stroke:none;stroke-width:2.13;stroke-linecap:round;stroke-linejoin:round;stroke-miterlimit:10"
     clip-path="url(#cpMTgxLjU2fDQzNi4yM3w0NzIuNTF8NS40OA==-3)"
     id="polygon31608-8"
     transform="matrix(1,0,0,0.61539412,-135.24426,-102.77101)" />
  <polygon
     points="308.16,288.75 308.48,289.61 308.79,290.45 309.11,291.28 309.43,292.1 309.75,292.89 310.07,293.67 310.38,294.42 310.7,295.16 311.02,295.88 311.34,296.58 311.65,297.27 311.97,297.95 312.29,298.61 312.61,299.26 312.93,299.9 313.24,300.54 313.56,301.18 313.88,301.81 314.2,302.45 314.52,303.08 314.83,303.73 315.15,304.38 315.47,305.04 315.79,305.71 315.95,306.04 315.95,339.07 315.79,339.07 315.47,339.07 315.15,339.07 314.83,339.07 314.52,339.07 314.2,339.07 313.88,339.07 313.56,339.07 313.24,339.07 312.93,339.07 312.61,339.07 312.29,339.07 311.97,339.07 311.65,339.07 311.34,339.07 311.02,339.07 310.7,339.07 310.38,339.07 310.07,339.07 309.75,339.07 309.43,339.07 309.11,339.07 308.79,339.07 308.48,339.07 308.16,339.07 307.84,339.07 307.52,339.07 307.2,339.07 306.89,339.07 306.57,339.07 306.25,339.07 305.93,339.07 305.61,339.07 305.3,339.07 304.98,339.07 304.82,339.07 304.82,279.7 304.98,280.1 305.3,280.92 305.61,281.76 305.93,282.62 306.25,283.49 306.57,284.36 306.89,285.25 307.2,286.13 307.52,287.01 307.84,287.88 "
     style="fill:#2196f3;stroke:none;stroke-width:2.13;stroke-linecap:round;stroke-linejoin:round;stroke-miterlimit:10"
     clip-path="url(#cpMTgxLjU2fDQzNi4yM3w0NzIuNTF8NS40OA==-3)"
     id="polygon31610-3"
     transform="matrix(1,0,0,0.61539412,-135.24426,-102.77101)" />
  <polygon
     points="319.29,313.63 319.6,314.39 319.92,315.14 320.24,315.88 320.56,316.62 320.87,317.36 321.19,318.08 321.51,318.79 321.83,319.48 322.15,320.16 322.46,320.81 322.78,321.44 323.1,322.05 323.42,322.63 323.74,323.19 324.05,323.72 324.37,324.22 324.69,324.69 325.01,325.15 325.33,325.57 325.64,325.98 325.96,326.36 326.28,326.73 326.6,327.07 326.92,327.41 327.23,327.73 327.55,328.04 327.87,328.34 328.19,328.63 328.51,328.92 328.82,329.2 329.14,329.47 329.46,329.74 329.62,329.87 329.62,339.07 329.46,339.07 329.14,339.07 328.82,339.07 328.51,339.07 328.19,339.07 327.87,339.07 327.55,339.07 327.23,339.07 326.92,339.07 326.6,339.07 326.28,339.07 325.96,339.07 325.64,339.07 325.33,339.07 325.01,339.07 324.69,339.07 324.37,339.07 324.05,339.07 323.74,339.07 323.42,339.07 323.1,339.07 322.78,339.07 322.46,339.07 322.15,339.07 321.83,339.07 321.51,339.07 321.19,339.07 320.87,339.07 320.56,339.07 320.24,339.07 319.92,339.07 319.6,339.07 319.29,339.07 318.97,339.07 318.65,339.07 318.33,339.07 318.01,339.07 317.7,339.07 317.38,339.07 317.06,339.07 316.74,339.07 316.42,339.07 316.11,339.07 315.95,339.07 315.95,306.04 316.11,306.38 316.42,307.07 316.74,307.77 317.06,308.47 317.38,309.19 317.7,309.92 318.01,310.65 318.33,311.39 318.65,312.13 318.97,312.88 "
     style="fill:#bbdefb;stroke:none;stroke-width:2.13;stroke-linecap:round;stroke-linejoin:round;stroke-miterlimit:10"
     clip-path="url(#cpMTgxLjU2fDQzNi4yM3w0NzIuNTF8NS40OA==-3)"
     id="polygon31612-3"
     transform="matrix(1,0,0,0.61539412,-135.24426,-102.77101)" />
  <polyline
     points="329.62,329.87 329.78,330.01 330.09,330.27 330.41,330.53 330.73,330.78 331.05,331.04 331.37,331.29 331.68,331.55 332.00,331.80 332.32,332.06 332.64,332.31 332.96,332.56 333.27,332.82 333.59,333.07 333.91,333.32 334.23,333.57 334.55,333.81 334.86,334.04 335.18,334.26 335.50,334.48 335.82,334.68 336.14,334.86 336.45,335.03 336.77,335.18 337.09,335.32 337.41,335.44 337.72,335.54 338.04,335.62 338.36,335.69 338.68,335.75 339.00,335.79 339.31,335.82 339.63,335.85 339.95,335.87 340.27,335.89 340.59,335.92 340.90,335.94 341.22,335.97 341.54,336.01 341.86,336.05 342.18,336.10 342.49,336.16 342.81,336.23 343.13,336.30 343.45,336.37 343.77,336.45 344.08,336.54 344.40,336.62 344.72,336.71 345.04,336.80 345.36,336.88 345.67,336.97 345.99,337.05 346.31,337.13 346.63,337.21 346.94,337.28 347.26,337.35 347.58,337.42 347.90,337.49 348.22,337.56 348.53,337.63 348.85,337.69 349.17,337.76 349.49,337.82 349.81,337.88 350.12,337.94 350.44,337.99 350.76,338.05 351.08,338.10 351.40,338.15 351.71,338.20 352.03,338.25 352.35,338.29 352.67,338.33 352.99,338.37 353.30,338.40 353.62,338.43 353.94,338.46 354.26,338.48 354.58,338.51 354.89,338.53 355.21,338.54 355.53,338.56 355.85,338.57 356.16,338.59 356.48,338.60 356.80,338.61 357.12,338.62 357.44,338.63 357.75,338.64 358.07,338.65 358.39,338.66 358.71,338.67 359.03,338.68 359.34,338.69 359.66,338.70 359.98,338.71 360.30,338.72 360.62,338.73 360.93,338.74 361.25,338.75 361.57,338.76 361.89,338.77 362.21,338.78 362.52,338.79 362.84,338.80 363.16,338.81 363.48,338.82 363.79,338.84 364.11,338.85 364.43,338.86 364.75,338.88 365.07,338.89 365.38,338.91 365.70,338.92 366.02,338.94 366.34,338.95 366.66,338.97 366.97,338.98 367.29,338.99 367.61,339.00 367.93,339.02 368.25,339.02 368.56,339.03 368.88,339.04 369.20,339.05 369.52,339.05 369.84,339.06 370.15,339.06 370.47,339.06 370.79,339.06 371.11,339.06 371.43,339.06 371.74,339.07 372.06,339.06 372.38,339.06 372.70,339.06 373.01,339.06 373.33,339.06 373.65,339.06 373.97,339.05 374.29,339.05 374.60,339.04 374.92,339.04 375.24,339.04 375.56,339.03 375.88,339.03 376.19,339.02 376.51,339.02 376.83,339.02 377.15,339.01 377.47,339.01 377.78,339.01 378.10,339.01 378.10,339.07 377.78,339.07 377.47,339.07 377.15,339.07 376.83,339.07 376.51,339.07 376.19,339.07 375.88,339.07 375.56,339.07 375.24,339.07 374.92,339.07 374.60,339.07 374.29,339.07 373.97,339.07 373.65,339.07 373.33,339.07 373.01,339.07 372.70,339.07 372.38,339.07 372.06,339.07 371.74,339.07 371.43,339.07 371.11,339.07 370.79,339.07 370.47,339.07 370.15,339.07 369.84,339.07 369.52,339.07 369.20,339.07 368.88,339.07 368.56,339.07 368.25,339.07 367.93,339.07 367.61,339.07 367.29,339.07 366.97,339.07 366.66,339.07 366.34,339.07 366.02,339.07 365.70,339.07 365.38,339.07 365.07,339.07 364.75,339.07 364.43,339.07 364.11,339.07 363.79,339.07 363.48,339.07 363.16,339.07 362.84,339.07 362.52,339.07 362.21,339.07 361.89,339.07 361.57,339.07 361.25,339.07 360.93,339.07 360.62,339.07 360.30,339.07 359.98,339.07 359.66,339.07 359.34,339.07 359.03,339.07 358.71,339.07 358.39,339.07 358.07,339.07 357.75,339.07 357.44,339.07 357.12,339.07 356.80,339.07 356.48,339.07 356.16,339.07 355.85,339.07 355.53,339.07 355.21,339.07 354.89,339.07 354.58,339.07 354.26,339.07 353.94,339.07 353.62,339.07 353.30,339.07 352.99,339.07 352.67,339.07 352.35,339.07 352.03,339.07 351.71,339.07 351.40,339.07 351.08,339.07 350.76,339.07 350.44,339.07 350.12,339.07 349.81,339.07 349.49,339.07 349.17,339.07 348.85,339.07 348.53,339.07 348.22,339.07 347.90,339.07 347.58,339.07 347.26,339.07 346.94,339.07 346.63,339.07 346.31,339.07 345.99,339.07 345.67,339.07 345.36,339.07 345.04,339.07 344.72,339.07 344.40,339.07 344.08,339.07 343.77,339.07 343.45,339.07 343.13,339.07 342.81,339.07 342.49,339.07 342.18,339.07 341.86,339.07 341.54,339.07 341.22,339.07 340.90,339.07 340.59,339.07 340.27,339.07 339.95,339.07 339.63,339.07 339.31,339.07 339.00,339.07 338.68,339.07 338.36,339.07 338.04,339.07 337.72,339.07 337.41,339.07 337.09,339.07 336.77,339.07 336.45,339.07 336.14,339.07 335.82,339.07 335.50,339.07 335.18,339.07 334.86,339.07 334.55,339.07 334.23,339.07 333.91,339.07 333.59,339.07 333.27,339.07 332.96,339.07 332.64,339.07 332.32,339.07 332.00,339.07 331.68,339.07 331.37,339.07 331.05,339.07 330.73,339.07 330.41,339.07 330.09,339.07 329.78,339.07 329.62,339.07 329.62,329.87 "
     style="fill:#ffffff;stroke:none;stroke-width:2.13;stroke-linecap:round;stroke-linejoin:round;stroke-miterlimit:10"
     clip-path="url(#cpMTgxLjU2fDQzNi4yM3w0NzIuNTF8NS40OA==-3)"
     id="polyline31614-4"
     transform="matrix(1,0,0,0.61539412,-135.24426,-102.77101)" />
  <circle
     cx="293.82001"
     cy="339.07001"
     r="2.49"
     style="fill:#ffffff;stroke:#000000;stroke-width:0.474167;stroke-linecap:round;stroke-linejoin:round;stroke-miterlimit:10;stroke-dasharray:none"
     clip-path="url(#cpMTgxLjU2fDQzNi4yM3w0NzIuNTF8NS40OA==-3)"
     id="circle31622-6"
     transform="matrix(1.0544812,0,0,1.0544819,-151.25194,-251.65249)" />
  <circle
     cx="267.73001"
     cy="339.07001"
     r="2.49"
     style="fill:#ffffff;stroke:#000000;stroke-width:0.474167;stroke-linecap:round;stroke-linejoin:round;stroke-miterlimit:10;stroke-dasharray:none"
     clip-path="url(#cpMTgxLjU2fDQzNi4yM3w0NzIuNTF8NS40OA==-3)"
     id="circle31624-1"
     transform="matrix(1.0544812,0,0,1.0544819,-149.83052,-251.65249)" />
  <circle
     cx="301.57999"
     cy="339.07001"
     r="2.49"
     style="fill:#ffffff;stroke:#000000;stroke-width:0.474167;stroke-linecap:round;stroke-linejoin:round;stroke-miterlimit:10;stroke-dasharray:none"
     clip-path="url(#cpMTgxLjU2fDQzNi4yM3w0NzIuNTF8NS40OA==-3)"
     id="circle31626-5"
     transform="matrix(1.0544812,0,0,1.0544819,-151.67471,-251.65249)" />
  <circle
     cx="298.75"
     cy="339.07001"
     r="2.49"
     style="fill:#ffffff;stroke:#000000;stroke-width:0.474167;stroke-linecap:round;stroke-linejoin:round;stroke-miterlimit:10;stroke-dasharray:none"
     clip-path="url(#cpMTgxLjU2fDQzNi4yM3w0NzIuNTF8NS40OA==-3)"
     id="circle31628-5"
     transform="matrix(1.0544812,0,0,1.0544819,-151.52053,-251.65249)" />
  <circle
     cx="271.94"
     cy="339.07001"
     r="2.49"
     style="fill:#ffffff;stroke:#000000;stroke-width:0.474167;stroke-linecap:round;stroke-linejoin:round;stroke-miterlimit:10;stroke-dasharray:none"
     clip-path="url(#cpMTgxLjU2fDQzNi4yM3w0NzIuNTF8NS40OA==-3)"
     id="circle31630-4"
     transform="matrix(1.0544812,0,0,1.0544819,-150.05989,-251.65249)" />
  <circle
     cx="320.01999"
     cy="339.07001"
     r="2.49"
     style="fill:#ffffff;stroke:#000000;stroke-width:0.474167;stroke-linecap:round;stroke-linejoin:round;stroke-miterlimit:10;stroke-dasharray:none"
     clip-path="url(#cpMTgxLjU2fDQzNi4yM3w0NzIuNTF8NS40OA==-3)"
     id="circle31632-6"
     transform="matrix(1.0544812,0,0,1.0544819,-152.67935,-251.65249)" />
  <circle
     cx="338.10999"
     cy="172.28"
     r="2.49"
     style="fill:#ffffff;stroke:#000000;stroke-width:0.474167;stroke-linecap:round;stroke-linejoin:round;stroke-miterlimit:10;stroke-dasharray:none"
     clip-path="url(#cpMTgxLjU2fDQzNi4yM3w0NzIuNTF8NS40OA==-3)"
     id="circle31644-6"
     transform="matrix(1.0544812,0,0,1.0544819,-153.66491,-131.5957)" />
  <circle
     cx="312.79999"
     cy="172.28"
     r="2.49"
     style="fill:#ffffff;stroke:#000000;stroke-width:0.474167;stroke-linecap:round;stroke-linejoin:round;stroke-miterlimit:10;stroke-dasharray:none"
     clip-path="url(#cpMTgxLjU2fDQzNi4yM3w0NzIuNTF8NS40OA==-3)"
     id="circle31646-4"
     transform="matrix(1.0544812,0,0,1.0544819,-152.28599,-131.5957)" />
  <circle
     cx="341.09"
     cy="172.28"
     r="2.49"
     style="fill:#ffffff;stroke:#000000;stroke-width:0.474167;stroke-linecap:round;stroke-linejoin:round;stroke-miterlimit:10;stroke-dasharray:none"
     clip-path="url(#cpMTgxLjU2fDQzNi4yM3w0NzIuNTF8NS40OA==-3)"
     id="circle31648-3"
     transform="matrix(1.0544812,0,0,1.0544819,-153.82727,-131.5957)" />
  <circle
     cx="328.25"
     cy="172.28"
     r="2.49"
     style="fill:#ffffff;stroke:#000000;stroke-width:0.474167;stroke-linecap:round;stroke-linejoin:round;stroke-miterlimit:10;stroke-dasharray:none"
     clip-path="url(#cpMTgxLjU2fDQzNi4yM3w0NzIuNTF8NS40OA==-3)"
     id="circle31650-0"
     transform="matrix(1.0544812,0,0,1.0544819,-153.12773,-131.5957)" />
  <circle
     cx="332.5"
     cy="172.28"
     r="2.49"
     style="fill:#ffffff;stroke:#000000;stroke-width:0.474167;stroke-linecap:round;stroke-linejoin:round;stroke-miterlimit:10;stroke-dasharray:none"
     clip-path="url(#cpMTgxLjU2fDQzNi4yM3w0NzIuNTF8NS40OA==-3)"
     id="circle31652-0"
     transform="matrix(1.0544812,0,0,1.0544819,-153.35927,-131.5957)" />
  <rect
     x="454.09"
     y="222.33"
     width="14.45"
     height="14.45"
     style="fill:#0d47a1;stroke:none;stroke-width:2.13;stroke-linecap:square;stroke-linejoin:miter;stroke-miterlimit:10"
     clip-path="url(#cpMC4wMHw1MDQuMDB8NTA0LjAwfDAuMDA=-7)"
     id="rect31731-5"
     transform="translate(-179.87598,-172.25956)" />
  <rect
     x="454.09"
     y="239.61"
     width="14.45"
     height="14.45"
     style="fill:#2196f3;stroke:none;stroke-width:2.13;stroke-linecap:square;stroke-linejoin:miter;stroke-miterlimit:10"
     clip-path="url(#cpMC4wMHw1MDQuMDB8NTA0LjAwfDAuMDA=-7)"
     id="rect31735-0"
     transform="translate(-179.87598,-172.25956)" />
  <rect
     x="454.09"
     y="256.89001"
     width="14.45"
     height="14.45"
     style="fill:#bbdefb;stroke:none;stroke-width:2.13;stroke-linecap:square;stroke-linejoin:miter;stroke-miterlimit:10"
     clip-path="url(#cpMC4wMHw1MDQuMDB8NTA0LjAwfDAuMDA=-7)"
     id="rect31739-5"
     transform="translate(-179.87598,-172.25956)" />
  <text
     xml:space="preserve"
     style="font-stretch:condensed;font-size:10.6667px;line-height:1.25;font-family:'Noto Sans';-inkscape-font-specification:'Noto Sans, Condensed';letter-spacing:0px;word-spacing:0px;writing-mode:lr-tb"
     x="113.6684"
     y="124.94584"
     id="text32322-6"><tspan
       sodipodi:role="line"
       id="tspan32320-6"
       x="113.6684"
       y="124.94584">1</tspan></text>
  <text
     xml:space="preserve"
     style="font-stretch:condensed;font-size:10.6667px;line-height:1.25;font-family:'Noto Sans';-inkscape-font-specification:'Noto Sans, Condensed';letter-spacing:0px;word-spacing:0px;writing-mode:lr-tb"
     x="199.89708"
     y="125.0525"
     id="text32326-7"><tspan
       sodipodi:role="line"
       id="tspan32324-3"
       x="199.89708"
       y="125.0525">2</tspan></text>
  <text
     xml:space="preserve"
     style="font-stretch:condensed;font-size:10.6667px;line-height:1.25;font-family:'Noto Sans';-inkscape-font-specification:'Noto Sans, Condensed';letter-spacing:0px;word-spacing:0px;writing-mode:lr-tb"
     x="250.58241"
     y="125.0525"
     id="text32330-4"><tspan
       sodipodi:role="line"
       id="tspan32328-0"
       x="250.58241"
       y="125.0525">3</tspan></text>
  <text
     xml:space="preserve"
     style="font-stretch:condensed;font-size:10.6667px;line-height:1.25;font-family:'Noto Sans';-inkscape-font-specification:'Noto Sans, Condensed';letter-spacing:0px;word-spacing:0px;writing-mode:lr-tb"
     x="111.41607"
     y="140.89673"
     id="text32334-8"><tspan
       sodipodi:role="line"
       id="tspan32332-0"
       x="111.41607"
       y="140.89673">Fold increase in emission ratio</tspan></text>
  <text
     xml:space="preserve"
     style="font-stretch:condensed;font-size:10.6667px;line-height:1.25;font-family:'Noto Sans';-inkscape-font-specification:'Noto Sans, Condensed';letter-spacing:0px;word-spacing:0px;writing-mode:lr-tb"
     x="-0.064000204"
     y="109.89602"
     id="text32338-3-3-5"><tspan
       sodipodi:role="line"
       id="tspan32336-6-6-1"
       x="-0.064000204"
       y="109.89602">W311*-GFP+SUR1-mO</tspan></text>
  <text
     xml:space="preserve"
     style="font-stretch:condensed;font-size:10.6667px;line-height:1.25;font-family:'Noto Sans';-inkscape-font-specification:'Noto Sans, Condensed';letter-spacing:0px;word-spacing:0px;writing-mode:lr-tb"
     x="15.445369"
     y="53.878441"
     id="text32338-0-1"><tspan
       sodipodi:role="line"
       id="tspan32336-4-4"
       x="15.445369"
       y="53.878441">WT-GFP+SUR1-mO</tspan></text>
  <text
     xml:space="preserve"
     style="font-stretch:condensed;font-size:10.6667px;line-height:1.25;font-family:'Noto Sans';-inkscape-font-specification:'Noto Sans, Condensed';letter-spacing:0px;word-spacing:0px;writing-mode:lr-tb"
     x="273.83002"
     y="42.411293"
     id="text32414-0"><tspan
       sodipodi:role="line"
       id="tspan32412-1"
       x="273.83002"
       y="42.411293">Interval</tspan></text>
  <text
     xml:space="preserve"
     style="font-stretch:condensed;font-size:10.6667px;line-height:1.25;font-family:'Noto Sans';-inkscape-font-specification:'Noto Sans, Condensed';letter-spacing:0px;word-spacing:0px;writing-mode:lr-tb"
     x="292.00781"
     y="61.103447"
     id="text32418-1"><tspan
       sodipodi:role="line"
       id="tspan32416-8"
       x="292.00781"
       y="61.103447">50%</tspan></text>
  <text
     xml:space="preserve"
     style="font-stretch:condensed;font-size:10.6667px;line-height:1.25;font-family:'Noto Sans';-inkscape-font-specification:'Noto Sans, Condensed';letter-spacing:0px;word-spacing:0px;writing-mode:lr-tb"
     x="292.16782"
     y="78.383446"
     id="text32422-5"><tspan
       sodipodi:role="line"
       id="tspan32420-7"
       x="292.16782"
       y="78.383446">80%</tspan></text>
  <text
     xml:space="preserve"
     style="font-stretch:condensed;font-size:10.6667px;line-height:1.25;font-family:'Noto Sans';-inkscape-font-specification:'Noto Sans, Condensed';letter-spacing:0px;word-spacing:0px;writing-mode:lr-tb"
     x="292.1358"
     y="95.66349"
     id="text32426-8"><tspan
       sodipodi:role="line"
       id="tspan32424-5"
       x="292.1358"
       y="95.66349">95%</tspan></text>
</svg>
