<?xml version="1.0" encoding="UTF-8" standalone="no"?>
<svg
   xmlns:dc="http://purl.org/dc/elements/1.1/"
   xmlns:cc="http://creativecommons.org/ns#"
   xmlns:rdf="http://www.w3.org/1999/02/22-rdf-syntax-ns#"
   xmlns:svg="http://www.w3.org/2000/svg"
   xmlns="http://www.w3.org/2000/svg"
   xmlns:sodipodi="http://sodipodi.sourceforge.net/DTD/sodipodi-0.dtd"
   xmlns:inkscape="http://www.inkscape.org/namespaces/inkscape"
   viewBox="0 0 320.57834 241.33738"
   version="1.1"
   id="svg8559"
   sodipodi:docname="gfp_mo_spectra_1.svg"
   width="320.57834"
   height="241.33739"
   inkscape:version="1.0.1 (3bc2e813f5, 2020-09-07, custom)">
  <metadata
     id="metadata8563">
    <rdf:RDF>
      <cc:Work
         rdf:about="">
        <dc:format>image/svg+xml</dc:format>
        <dc:type
           rdf:resource="http://purl.org/dc/dcmitype/StillImage" />
        <dc:title></dc:title>
      </cc:Work>
    </rdf:RDF>
  </metadata>
  <sodipodi:namedview
     pagecolor="#ffffff"
     bordercolor="#666666"
     borderopacity="1"
     objecttolerance="10"
     gridtolerance="10"
     guidetolerance="10"
     inkscape:pageopacity="0"
     inkscape:pageshadow="2"
     inkscape:window-width="1366"
     inkscape:window-height="768"
     id="namedview8561"
     showgrid="false"
     inkscape:zoom="0.8263609"
     inkscape:cx="284.5279"
     inkscape:cy="335.46878"
     inkscape:window-x="0"
     inkscape:window-y="0"
     inkscape:window-maximized="1"
     inkscape:current-layer="svg8559" />
  <defs
     id="defs7604">
    <style
       type="text/css"
       id="style7602"><![CDATA[
    line, polyline, polygon, path, rect, circle {
      fill: none;
      stroke: #000000;
      stroke-linecap: round;
      stroke-linejoin: round;
      stroke-miterlimit: 10.00;
    }
  ]]></style>
    <style
       type="text/css"
       id="style12676"><![CDATA[
    line, polyline, polygon, path, rect, circle {
      fill: none;
      stroke: #000000;
      stroke-linecap: round;
      stroke-linejoin: round;
      stroke-miterlimit: 10.00;
    }
  ]]></style>
    <clipPath
       id="cpNDAuNDd8MTE5Ljc5fDIyOS43MXwyMi40MA==-1">
      <rect
         x="40.470001"
         y="22.4"
         width="79.330002"
         height="207.32001"
         id="rect12684" />
    </clipPath>
    <clipPath
       id="cpMC4wMHw1MDQuMDB8NTA0LjAwfDAuMDA=-2">
      <rect
         x="0"
         y="0"
         width="504"
         height="504"
         id="rect12747" />
    </clipPath>
    <clipPath
       id="cpNDAuNDd8MTE5Ljc5fDQ3Mi41MXwyNjUuMTk=">
      <rect
         x="40.470001"
         y="265.19"
         width="79.330002"
         height="207.32001"
         id="rect12752" />
    </clipPath>
    <clipPath
       id="clipPath12817">
      <rect
         x="0"
         y="0"
         width="504"
         height="504"
         id="rect12815" />
    </clipPath>
    <clipPath
       id="cpMTQ3LjMzfDIyNi42NnwyMjkuNzF8MjIuNDA=-6">
      <rect
         x="147.33"
         y="22.4"
         width="79.330002"
         height="207.32001"
         id="rect12821" />
    </clipPath>
    <clipPath
       id="clipPath12894">
      <rect
         x="0"
         y="0"
         width="504"
         height="504"
         id="rect12892" />
    </clipPath>
    <clipPath
       id="clipPath12965">
      <rect
         x="0"
         y="0"
         width="504"
         height="504"
         id="rect12963" />
    </clipPath>
    <clipPath
       id="cpMjU0LjIwfDMzMy41M3wyMjkuNzF8MjIuNDA=-4">
      <rect
         x="254.2"
         y="22.4"
         width="79.330002"
         height="207.32001"
         id="rect12969" />
    </clipPath>
    <clipPath
       id="clipPath13038">
      <rect
         x="0"
         y="0"
         width="504"
         height="504"
         id="rect13036" />
    </clipPath>
    <clipPath
       id="cpMjU0LjIwfDMzMy41M3w0NzIuNTF8MjY1LjE5-8">
      <rect
         x="254.2"
         y="265.19"
         width="79.330002"
         height="207.32001"
         id="rect13042" />
    </clipPath>
    <clipPath
       id="clipPath13107">
      <rect
         x="0"
         y="0"
         width="504"
         height="504"
         id="rect13105" />
    </clipPath>
    <clipPath
       id="cpNDAuNDd8MTE5Ljc5fDI2NS4xOXwyNDguMjg=-2">
      <rect
         x="40.470001"
         y="248.28"
         width="79.330002"
         height="16.92"
         id="rect13111" />
    </clipPath>
    <clipPath
       id="clipPath13124">
      <rect
         x="0"
         y="0"
         width="504"
         height="504"
         id="rect13122" />
    </clipPath>
    <clipPath
       id="cpMTQ3LjMzfDIyNi42NnwyNjUuMTl8MjQ4LjI4-8">
      <rect
         x="147.33"
         y="248.28"
         width="79.330002"
         height="16.92"
         id="rect13128" />
    </clipPath>
    <clipPath
       id="clipPath13141">
      <rect
         x="0"
         y="0"
         width="504"
         height="504"
         id="rect13139" />
    </clipPath>
    <clipPath
       id="cpMjU0LjIwfDMzMy41M3wyNjUuMTl8MjQ4LjI4-2">
      <rect
         x="254.2"
         y="248.28"
         width="79.330002"
         height="16.92"
         id="rect13145" />
    </clipPath>
    <clipPath
       id="clipPath13158">
      <rect
         x="0"
         y="0"
         width="504"
         height="504"
         id="rect13156" />
    </clipPath>
    <clipPath
       id="cpNDAuNDd8MTE5Ljc5fDIyLjQwfDUuNDg=-7">
      <rect
         x="40.470001"
         y="5.48"
         width="79.330002"
         height="16.92"
         id="rect13162" />
    </clipPath>
    <clipPath
       id="clipPath13175">
      <rect
         x="0"
         y="0"
         width="504"
         height="504"
         id="rect13173" />
    </clipPath>
    <clipPath
       id="cpMTQ3LjMzfDIyNi42NnwyMi40MHw1LjQ4-8">
      <rect
         x="147.33"
         y="5.48"
         width="79.330002"
         height="16.92"
         id="rect13179" />
    </clipPath>
    <clipPath
       id="clipPath13192">
      <rect
         x="0"
         y="0"
         width="504"
         height="504"
         id="rect13190" />
    </clipPath>
    <clipPath
       id="cpMjU0LjIwfDMzMy41M3wyMi40MHw1LjQ4-6">
      <rect
         x="254.2"
         y="5.48"
         width="79.330002"
         height="16.92"
         id="rect13196" />
    </clipPath>
    <clipPath
       id="clipPath13209">
      <rect
         x="0"
         y="0"
         width="504"
         height="504"
         id="rect13207" />
    </clipPath>
  </defs>
  <defs
     id="defs7613">
    <clipPath
       id="cpNDAuNDd8MTE5Ljc5fDIyOS43MXwyMi40MA==">
      <rect
         x="40.470001"
         y="22.4"
         width="79.330002"
         height="207.32001"
         id="rect7610" />
    </clipPath>
  </defs>
  <defs
     id="defs7676">
    <clipPath
       id="cpMC4wMHw1MDQuMDB8NTA0LjAwfDAuMDA=">
      <rect
         x="0"
         y="0"
         width="504"
         height="504"
         id="rect7673" />
    </clipPath>
  </defs>
  <defs
     id="defs7681" />
  <defs
     id="defs7745">
    <clipPath
       id="clipPath7743">
      <rect
         x="0"
         y="0"
         width="504"
         height="504"
         id="rect7741" />
    </clipPath>
  </defs>
  <defs
     id="defs7750">
    <clipPath
       id="cpMTQ3LjMzfDIyNi42NnwyMjkuNzF8MjIuNDA=">
      <rect
         x="147.33"
         y="22.4"
         width="79.330002"
         height="207.32001"
         id="rect7747" />
    </clipPath>
  </defs>
  <defs
     id="defs7822">
    <clipPath
       id="clipPath7820">
      <rect
         x="0"
         y="0"
         width="504"
         height="504"
         id="rect7818" />
    </clipPath>
  </defs>
  <defs
     id="defs7827">
    <clipPath
       id="cpMTQ3LjMzfDIyNi42Nnw0NzIuNTF8MjY1LjE5">
      <rect
         x="147.33"
         y="265.19"
         width="79.330002"
         height="207.32001"
         id="rect7824" />
    </clipPath>
  </defs>
  <defs
     id="defs7893">
    <clipPath
       id="clipPath7891">
      <rect
         x="0"
         y="0"
         width="504"
         height="504"
         id="rect7889" />
    </clipPath>
  </defs>
  <defs
     id="defs7898">
    <clipPath
       id="cpMjU0LjIwfDMzMy41M3wyMjkuNzF8MjIuNDA=">
      <rect
         x="254.2"
         y="22.4"
         width="79.330002"
         height="207.32001"
         id="rect7895" />
    </clipPath>
  </defs>
  <defs
     id="defs7966">
    <clipPath
       id="clipPath7964">
      <rect
         x="0"
         y="0"
         width="504"
         height="504"
         id="rect7962" />
    </clipPath>
  </defs>
  <defs
     id="defs7971">
    <clipPath
       id="cpMjU0LjIwfDMzMy41M3w0NzIuNTF8MjY1LjE5">
      <rect
         x="254.2"
         y="265.19"
         width="79.330002"
         height="207.32001"
         id="rect7968" />
    </clipPath>
  </defs>
  <defs
     id="defs8035">
    <clipPath
       id="clipPath8033">
      <rect
         x="0"
         y="0"
         width="504"
         height="504"
         id="rect8031" />
    </clipPath>
  </defs>
  <defs
     id="defs8040">
    <clipPath
       id="cpNDAuNDd8MTE5Ljc5fDI2NS4xOXwyNDguMjg=">
      <rect
         x="40.470001"
         y="248.28"
         width="79.330002"
         height="16.92"
         id="rect8037" />
    </clipPath>
  </defs>
  <defs
     id="defs8052">
    <clipPath
       id="clipPath8050">
      <rect
         x="0"
         y="0"
         width="504"
         height="504"
         id="rect8048" />
    </clipPath>
  </defs>
  <defs
     id="defs8057">
    <clipPath
       id="cpMTQ3LjMzfDIyNi42NnwyNjUuMTl8MjQ4LjI4">
      <rect
         x="147.33"
         y="248.28"
         width="79.330002"
         height="16.92"
         id="rect8054" />
    </clipPath>
  </defs>
  <defs
     id="defs8069">
    <clipPath
       id="clipPath8067">
      <rect
         x="0"
         y="0"
         width="504"
         height="504"
         id="rect8065" />
    </clipPath>
  </defs>
  <defs
     id="defs8074">
    <clipPath
       id="cpMjU0LjIwfDMzMy41M3wyNjUuMTl8MjQ4LjI4">
      <rect
         x="254.2"
         y="248.28"
         width="79.330002"
         height="16.92"
         id="rect8071" />
    </clipPath>
  </defs>
  <defs
     id="defs8086">
    <clipPath
       id="clipPath8084">
      <rect
         x="0"
         y="0"
         width="504"
         height="504"
         id="rect8082" />
    </clipPath>
  </defs>
  <defs
     id="defs8091">
    <clipPath
       id="cpNDAuNDd8MTE5Ljc5fDIyLjQwfDUuNDg=">
      <rect
         x="40.470001"
         y="5.48"
         width="79.330002"
         height="16.92"
         id="rect8088" />
    </clipPath>
  </defs>
  <defs
     id="defs8103">
    <clipPath
       id="clipPath8101">
      <rect
         x="0"
         y="0"
         width="504"
         height="504"
         id="rect8099" />
    </clipPath>
  </defs>
  <defs
     id="defs8108">
    <clipPath
       id="cpMTQ3LjMzfDIyNi42NnwyMi40MHw1LjQ4">
      <rect
         x="147.33"
         y="5.48"
         width="79.330002"
         height="16.92"
         id="rect8105" />
    </clipPath>
  </defs>
  <defs
     id="defs8120">
    <clipPath
       id="clipPath8118">
      <rect
         x="0"
         y="0"
         width="504"
         height="504"
         id="rect8116" />
    </clipPath>
  </defs>
  <defs
     id="defs8125">
    <clipPath
       id="cpMjU0LjIwfDMzMy41M3wyMi40MHw1LjQ4">
      <rect
         x="254.2"
         y="5.48"
         width="79.330002"
         height="16.92"
         id="rect8122" />
    </clipPath>
  </defs>
  <defs
     id="defs8137">
    <clipPath
       id="clipPath8135">
      <rect
         x="0"
         y="0"
         width="504"
         height="504"
         id="rect8133" />
    </clipPath>
  </defs>
  <path
     id="rect7683"
     clip-path="none"
     style="fill:#efebe9;stroke:none;stroke-width:1.75128;stroke-linecap:round;stroke-linejoin:round;stroke-miterlimit:10"
     d="M 43.444733,0 H 255.9561 V 207.32001 H 43.444733 Z" />
  <path
     id="polyline7703"
     clip-path="none"
     style="fill:none;stroke:#ffffff;stroke-width:1;stroke-linecap:butt;stroke-linejoin:round;stroke-miterlimit:10;stroke-dasharray:none"
     d="m 43.444733,197.8 c 70.828187,0 141.656377,0 212.484577,0" />
  <path
     id="polyline7705"
     clip-path="none"
     style="fill:none;stroke:#ffffff;stroke-width:1;stroke-linecap:butt;stroke-linejoin:round;stroke-miterlimit:10;stroke-dasharray:none"
     d="m 43.444733,151.25 c 70.828187,0 141.656377,0 212.484577,0" />
  <path
     id="polyline7707"
     clip-path="none"
     style="fill:none;stroke:#ffffff;stroke-width:1;stroke-linecap:butt;stroke-linejoin:round;stroke-miterlimit:10;stroke-dasharray:none"
     d="m 43.444733,104.7 c 70.828187,0 141.656377,0 212.484577,0" />
  <path
     id="polyline7709"
     clip-path="none"
     style="fill:none;stroke:#ffffff;stroke-width:1;stroke-linecap:butt;stroke-linejoin:round;stroke-miterlimit:10;stroke-dasharray:none"
     d="m 43.444733,58.16 c 70.828187,0 141.656377,0 212.484577,0" />
  <path
     id="polyline7711"
     clip-path="none"
     style="fill:none;stroke:#ffffff;stroke-width:1;stroke-linecap:butt;stroke-linejoin:round;stroke-miterlimit:10;stroke-dasharray:none"
     d="m 43.444733,11.61 c 70.828187,0 141.656377,0 212.484577,0" />
  <path
     id="polyline7713"
     clip-path="none"
     style="fill:none;stroke:#ffffff;stroke-width:1;stroke-linecap:butt;stroke-linejoin:round;stroke-miterlimit:10;stroke-dasharray:none"
     d="m 53.088503,207.32 c 0,-69.10667 0,-138.21333 0,-207.32" />
  <path
     id="polyline7715"
     clip-path="none"
     style="fill:none;stroke:#ffffff;stroke-width:1;stroke-linecap:butt;stroke-linejoin:round;stroke-miterlimit:10;stroke-dasharray:none"
     d="m 91.743983,207.32 c 0,-69.10667 0,-138.21333 0,-207.32" />
  <path
     id="polyline7717"
     clip-path="none"
     style="fill:none;stroke:#ffffff;stroke-width:1;stroke-linecap:butt;stroke-linejoin:round;stroke-miterlimit:10;stroke-dasharray:none"
     d="m 130.42625,207.32 c 0,-69.10667 0,-138.21333 0,-207.32" />
  <path
     id="polyline7719"
     clip-path="none"
     style="fill:none;stroke:#ffffff;stroke-width:1;stroke-linecap:butt;stroke-linejoin:round;stroke-miterlimit:10;stroke-dasharray:none"
     d="m 169.08173,207.32 c 0,-69.10667 0,-138.21333 0,-207.32" />
  <path
     id="polyline7721"
     clip-path="none"
     style="fill:none;stroke:#ffffff;stroke-width:1;stroke-linecap:butt;stroke-linejoin:round;stroke-miterlimit:10;stroke-dasharray:none"
     d="m 207.73721,207.32 c 0,-69.10667 0,-138.21333 0,-207.32" />
  <path
     id="polyline7725"
     clip-path="none"
     style="fill:none;stroke:#000000;stroke-width:2;stroke-linecap:butt;stroke-linejoin:round;stroke-miterlimit:10;stroke-dasharray:none;stroke-dashoffset:0"
     d="m 53.088503,197.86 c 2.65905,-0.14909 5.77147,-0.12507 8.4651,-0.09 5.50331,0.01 10.42233,-0.076 15.93902,0.02 3.46172,-0.0299 8.56339,-0.0399 12.5637,-0.02 2.52996,-0.0288 4.97925,0.0542 7.71502,-0.09 1.83251,-5.75566 0.72432,-11.66664 1.24862,-17.48267 0.9224,-40.83323 0.8193,-81.67175 3.332177,-122.49733 0.95096,-16.08854 0.83931,-32.18919 2.41094,-48.27 0.19277,3.34277 0.61102,-0.40244 0.7717,3.46132 2.18394,25.99537 4.24187,52.00196 8.34034,77.95226 0.35065,0.64631 0.6673,2.77111 1.16951,4.44018 1.17619,5.48008 2.4977,10.76981 4.66631,16.25624 1.10224,1.83305 2.31902,4.51818 2.65204,6.78 1.69552,1.91765 1.10283,2.67038 2.41094,4.07 0.21816,1.58663 1.12073,2.00918 1.68766,3.78 2.98419,5.29908 4.58303,11.1555 6.37338,16.59424 0.20767,1.93612 0.84641,2.01352 1.48429,4.25637 0.45469,0.53006 1.07754,3.13496 1.59712,4.5799 1.61152,4.68817 3.47032,9.41045 5.43949,13.95949 1.25594,2.27266 2.71401,5.28337 4.21871,7.85877 0.92445,1.78931 1.77453,1.90506 2.26406,3.15123 0.90088,1.36671 2.60841,2.46986 3.13423,3.78 0.57927,-0.35853 1.35494,1.37427 2.89313,2.19 1.73949,1.71419 2.16612,0.93545 3.10744,2.36 1.23828,0.0774 2.63339,1.35057 3.83072,1.7 0.89319,0.78462 2.33605,1.21968 4.09861,2.14 0.81545,0.44815 1.734,0.89656 4.07181,1.73 2.05541,0.89869 2.311,0.90945 4.55401,1.79 1.69161,0.4779 2.85033,0.98736 4.55401,1.38 1.59321,0.40473 3.67734,0.67587 5.73269,1.09 1.41553,0.29042 2.84975,0.48833 4.554,0.71 2.49537,0.42282 3.56651,0.32964 5.73269,0.67 2.42652,0.23392 3.17722,0.21157 4.55401,0.4 2.11712,-0.0689 4.83534,0.33071 6.42919,0.25 1.56494,0.16905 4.72036,0.21237 6.93816,0.37 2.03896,-0.0724 2.32621,0.0102 4.52722,0.18 3.51475,-0.12213 7.1151,0.21197 10.9564,0.13 2.89544,0.0363 6.23706,0.2426 9.75093,0.08 2.59846,0.28079 6.20968,-0.033 9.02765,0.23" />
  <path
     id="polyline7723"
     clip-path="none"
     style="fill:none;stroke:#ffffff;stroke-width:1;stroke-linecap:butt;stroke-linejoin:round;stroke-miterlimit:10;stroke-dasharray:none"
     d="m 246.41947,207.32 c 0,-69.10667 0,-138.21333 0,-207.32" />
  <path
     id="polyline7669"
     clip-path="none"
     style="fill:none;stroke:#fb8c00;stroke-width:2;stroke-linecap:butt;stroke-linejoin:round;stroke-miterlimit:10;stroke-dasharray:none"
     d="m 52.170473,197.8 c 15.33066,-0.0651 30.63308,0.13647 45.88831,-0.11 5.986397,-1.13702 13.422277,-0.16346 17.358797,-6 5.39599,-9.06683 6.31086,-19.99801 8.11132,-30.21503 3.97162,-27.82118 5.49181,-56.00307 10.55467,-83.65264 0.64448,-2.717533 1.23317,-5.511793 2.76463,-7.832331 1.79612,-1.071931 3.10669,2.028513 3.83072,3.83 5.68833,17.155241 7.88663,35.791341 15.61757,52.320001 3.11121,6.31211 7.8603,11.37595 12.17577,16.61425 4.16898,6.09992 7.65369,12.66743 12.28192,18.36575 5.48465,7.83229 10.59794,16.13024 18.88573,21.11 5.81299,3.25684 11.39294,5.46556 17.65348,7.81 9.20115,2.81117 18.4584,4.55582 28.07411,5.62" />
  <text
     xml:space="preserve"
     style="font-stretch:condensed;font-size:10.6667px;line-height:1.25;font-family:'Noto Sans';-inkscape-font-specification:'Noto Sans, Condensed';letter-spacing:0px;word-spacing:0px;writing-mode:lr-tb"
     x="248.45038"
     y="37.06554"
     id="text10745"><tspan
       sodipodi:role="line"
       id="tspan10743"
       x="248.45038"
       y="37.06554">WT-GFP+SUR1</tspan><tspan
       sodipodi:role="line"
       x="248.45038"
       y="50.398914"
       id="tspan10747">490 nm excitation</tspan></text>
  <text
     xml:space="preserve"
     style="font-stretch:condensed;font-size:10.6667px;line-height:1.25;font-family:'Noto Sans';-inkscape-font-specification:'Noto Sans, Condensed';letter-spacing:0px;word-spacing:0px;writing-mode:lr-tb"
     x="248.32239"
     y="76.01442"
     id="text10751"><tspan
       sodipodi:role="line"
       id="tspan10749"
       x="248.32239"
       y="76.01442">SUR1-mO</tspan><tspan
       sodipodi:role="line"
       x="248.32239"
       y="89.347794"
       id="tspan10753">490 nm excitation</tspan></text>
  <text
     xml:space="preserve"
     style="font-stretch:condensed;font-size:10.6667px;line-height:1.25;font-family:'Noto Sans';-inkscape-font-specification:'Noto Sans, Condensed';letter-spacing:0px;word-spacing:0px;writing-mode:lr-tb"
     x="248.06638"
     y="114.96329"
     id="text10757"><tspan
       sodipodi:role="line"
       id="tspan10755"
       x="248.06638"
       y="114.96329">SUR1-mO</tspan><tspan
       sodipodi:role="line"
       x="248.06638"
       y="128.29666"
       id="tspan10759">565 nm excitation</tspan></text>
  <text
     xml:space="preserve"
     style="font-stretch:condensed;font-size:10.6667px;line-height:1.25;font-family:'Noto Sans';-inkscape-font-specification:'Noto Sans, Condensed';letter-spacing:0px;word-spacing:0px;writing-mode:lr-tb"
     x="45.675163"
     y="218.40764"
     id="text10763"><tspan
       sodipodi:role="line"
       id="tspan10761"
       x="45.675163"
       y="218.40764">450</tspan></text>
  <text
     xml:space="preserve"
     style="font-stretch:condensed;font-size:10.6667px;line-height:1.25;font-family:'Noto Sans';-inkscape-font-specification:'Noto Sans, Condensed';letter-spacing:0px;word-spacing:0px;writing-mode:lr-tb"
     x="84.143974"
     y="218.40764"
     id="text10767"><tspan
       sodipodi:role="line"
       id="tspan10765"
       x="84.143974"
       y="218.40764">500</tspan></text>
  <text
     xml:space="preserve"
     style="font-stretch:condensed;font-size:10.6667px;line-height:1.25;font-family:'Noto Sans';-inkscape-font-specification:'Noto Sans, Condensed';letter-spacing:0px;word-spacing:0px;writing-mode:lr-tb"
     x="122.82626"
     y="218.40764"
     id="text10771"><tspan
       sodipodi:role="line"
       id="tspan10769"
       x="122.82626"
       y="218.40764">550</tspan></text>
  <text
     xml:space="preserve"
     style="font-stretch:condensed;font-size:10.6667px;line-height:1.25;font-family:'Noto Sans';-inkscape-font-specification:'Noto Sans, Condensed';letter-spacing:0px;word-spacing:0px;writing-mode:lr-tb"
     x="161.51372"
     y="218.40764"
     id="text10775"><tspan
       sodipodi:role="line"
       id="tspan10773"
       x="161.51372"
       y="218.40764">600</tspan></text>
  <text
     xml:space="preserve"
     style="font-stretch:condensed;font-size:10.6667px;line-height:1.25;font-family:'Noto Sans';-inkscape-font-specification:'Noto Sans, Condensed';letter-spacing:0px;word-spacing:0px;writing-mode:lr-tb"
     x="200.1692"
     y="218.40764"
     id="text10779"><tspan
       sodipodi:role="line"
       id="tspan10777"
       x="200.1692"
       y="218.40764">650</tspan></text>
  <text
     xml:space="preserve"
     style="font-stretch:condensed;font-size:10.6667px;line-height:1.25;font-family:'Noto Sans';-inkscape-font-specification:'Noto Sans, Condensed';letter-spacing:0px;word-spacing:0px;writing-mode:lr-tb"
     x="238.91547"
     y="218.40764"
     id="text10783"><tspan
       sodipodi:role="line"
       id="tspan10781"
       x="238.91547"
       y="218.40764">700</tspan></text>
  <text
     xml:space="preserve"
     style="font-style:normal;font-variant:normal;font-weight:normal;font-stretch:condensed;font-size:13.3333px;line-height:1.25;font-family:'Noto Sans';-inkscape-font-specification:'Noto Sans, Condensed';font-variant-ligatures:normal;font-variant-caps:normal;font-variant-numeric:normal;font-variant-east-asian:normal;letter-spacing:0px;word-spacing:0px;writing-mode:lr-tb"
     x="105.61395"
     y="238.13739"
     id="text10787"><tspan
       sodipodi:role="line"
       id="tspan10785"
       x="105.61395"
       y="238.13739">Wavelength (nm)</tspan></text>
  <text
     xml:space="preserve"
     style="font-style:normal;font-variant:normal;font-weight:normal;font-stretch:condensed;font-size:13.3333px;line-height:1.25;font-family:'Noto Sans';-inkscape-font-specification:'Noto Sans, Condensed';font-variant-ligatures:normal;font-variant-caps:normal;font-variant-numeric:normal;font-variant-east-asian:normal;letter-spacing:0px;word-spacing:0px;writing-mode:lr-tb"
     x="-176.23959"
     y="10.133307"
     id="text10791"
     transform="rotate(-90)"><tspan
       sodipodi:role="line"
       id="tspan10789"
       x="-176.23959"
       y="10.133307">Fluorescence intensity (A.U.)</tspan></text>
  <text
     xml:space="preserve"
     style="font-stretch:condensed;font-size:10.6667px;line-height:1.25;font-family:'Noto Sans';-inkscape-font-specification:'Noto Sans, Condensed';letter-spacing:0px;word-spacing:0px;writing-mode:lr-tb"
     x="27.88456"
     y="15.418011"
     id="text10795"><tspan
       sodipodi:role="line"
       id="tspan10793"
       x="27.88456"
       y="15.418011">1.0</tspan></text>
  <text
     xml:space="preserve"
     style="font-stretch:condensed;font-size:10.6667px;line-height:1.25;font-family:'Noto Sans';-inkscape-font-specification:'Noto Sans, Condensed';letter-spacing:0px;word-spacing:0px;writing-mode:lr-tb"
     x="27.927223"
     y="108.50802"
     id="text10799"><tspan
       sodipodi:role="line"
       id="tspan10797"
       x="27.927223"
       y="108.50802">0.5</tspan></text>
  <text
     xml:space="preserve"
     style="font-stretch:condensed;font-size:10.6667px;line-height:1.25;font-family:'Noto Sans';-inkscape-font-specification:'Noto Sans, Condensed';letter-spacing:0px;word-spacing:0px;writing-mode:lr-tb"
     x="27.88456"
     y="201.608"
     id="text10803"><tspan
       sodipodi:role="line"
       id="tspan10801"
       x="27.88456"
       y="201.608">0.0</tspan></text>
  <path
     style="fill:none;stroke:#000000;stroke-width:2;stroke-linecap:butt;stroke-linejoin:miter;stroke-miterlimit:10;stroke-dasharray:none;stroke-opacity:1"
     d="m 222.29648,39.924216 h 18.23475"
     id="path10805" />
  <path
     style="fill:none;stroke:#fb8c00;stroke-width:2;stroke-linecap:butt;stroke-linejoin:miter;stroke-miterlimit:10;stroke-dasharray:none;stroke-opacity:1"
     d="m 222.29648,78.873095 h 18.23475"
     id="path10805-5" />
</svg>
