<?xml version="1.0" encoding="UTF-8" standalone="no"?>
<svg
   xmlns:dc="http://purl.org/dc/elements/1.1/"
   xmlns:cc="http://creativecommons.org/ns#"
   xmlns:rdf="http://www.w3.org/1999/02/22-rdf-syntax-ns#"
   xmlns:svg="http://www.w3.org/2000/svg"
   xmlns="http://www.w3.org/2000/svg"
   xmlns:sodipodi="http://sodipodi.sourceforge.net/DTD/sodipodi-0.dtd"
   xmlns:inkscape="http://www.inkscape.org/namespaces/inkscape"
   viewBox="0 0 353.22031 241.97738"
   version="1.1"
   id="svg8559"
   sodipodi:docname="gfp_mo_spectra_1.svg"
   width="353.22031"
   height="241.97739"
   inkscape:version="1.0.1 (3bc2e813f5, 2020-09-07, custom)">
  <metadata
     id="metadata8563">
    <rdf:RDF>
      <cc:Work
         rdf:about="">
        <dc:format>image/svg+xml</dc:format>
        <dc:type
           rdf:resource="http://purl.org/dc/dcmitype/StillImage" />
        <dc:title />
      </cc:Work>
    </rdf:RDF>
  </metadata>
  <sodipodi:namedview
     pagecolor="#ffffff"
     bordercolor="#666666"
     borderopacity="1"
     objecttolerance="10"
     gridtolerance="10"
     guidetolerance="10"
     inkscape:pageopacity="0"
     inkscape:pageshadow="2"
     inkscape:window-width="1366"
     inkscape:window-height="768"
     id="namedview8561"
     showgrid="false"
     inkscape:zoom="1.1686508"
     inkscape:cx="166.43069"
     inkscape:cy="106.37862"
     inkscape:window-x="0"
     inkscape:window-y="0"
     inkscape:window-maximized="1"
     inkscape:current-layer="svg8559"
     inkscape:document-rotation="0" />
  <defs
     id="defs7604">
    <style
       type="text/css"
       id="style7602"><![CDATA[
    line, polyline, polygon, path, rect, circle {
      fill: none;
      stroke: #000000;
      stroke-linecap: round;
      stroke-linejoin: round;
      stroke-miterlimit: 10.00;
    }
  ]]></style>
    <style
       type="text/css"
       id="style12676"><![CDATA[
    line, polyline, polygon, path, rect, circle {
      fill: none;
      stroke: #000000;
      stroke-linecap: round;
      stroke-linejoin: round;
      stroke-miterlimit: 10.00;
    }
  ]]></style>
    <clipPath
       id="cpNDAuNDd8MTE5Ljc5fDIyOS43MXwyMi40MA==-1">
      <rect
         x="40.470001"
         y="22.4"
         width="79.330002"
         height="207.32001"
         id="rect12684" />
    </clipPath>
    <clipPath
       id="cpMC4wMHw1MDQuMDB8NTA0LjAwfDAuMDA=-2">
      <rect
         x="0"
         y="0"
         width="504"
         height="504"
         id="rect12747" />
    </clipPath>
    <clipPath
       id="cpNDAuNDd8MTE5Ljc5fDQ3Mi41MXwyNjUuMTk=">
      <rect
         x="40.470001"
         y="265.19"
         width="79.330002"
         height="207.32001"
         id="rect12752" />
    </clipPath>
    <clipPath
       id="clipPath12817">
      <rect
         x="0"
         y="0"
         width="504"
         height="504"
         id="rect12815" />
    </clipPath>
    <clipPath
       id="cpMTQ3LjMzfDIyNi42NnwyMjkuNzF8MjIuNDA=-6">
      <rect
         x="147.33"
         y="22.4"
         width="79.330002"
         height="207.32001"
         id="rect12821" />
    </clipPath>
    <clipPath
       id="clipPath12894">
      <rect
         x="0"
         y="0"
         width="504"
         height="504"
         id="rect12892" />
    </clipPath>
    <clipPath
       id="clipPath12965">
      <rect
         x="0"
         y="0"
         width="504"
         height="504"
         id="rect12963" />
    </clipPath>
    <clipPath
       id="cpMjU0LjIwfDMzMy41M3wyMjkuNzF8MjIuNDA=-4">
      <rect
         x="254.2"
         y="22.4"
         width="79.330002"
         height="207.32001"
         id="rect12969" />
    </clipPath>
    <clipPath
       id="clipPath13038">
      <rect
         x="0"
         y="0"
         width="504"
         height="504"
         id="rect13036" />
    </clipPath>
    <clipPath
       id="cpMjU0LjIwfDMzMy41M3w0NzIuNTF8MjY1LjE5-8">
      <rect
         x="254.2"
         y="265.19"
         width="79.330002"
         height="207.32001"
         id="rect13042" />
    </clipPath>
    <clipPath
       id="clipPath13107">
      <rect
         x="0"
         y="0"
         width="504"
         height="504"
         id="rect13105" />
    </clipPath>
    <clipPath
       id="cpNDAuNDd8MTE5Ljc5fDI2NS4xOXwyNDguMjg=-2">
      <rect
         x="40.470001"
         y="248.28"
         width="79.330002"
         height="16.92"
         id="rect13111" />
    </clipPath>
    <clipPath
       id="clipPath13124">
      <rect
         x="0"
         y="0"
         width="504"
         height="504"
         id="rect13122" />
    </clipPath>
    <clipPath
       id="cpMTQ3LjMzfDIyNi42NnwyNjUuMTl8MjQ4LjI4-8">
      <rect
         x="147.33"
         y="248.28"
         width="79.330002"
         height="16.92"
         id="rect13128" />
    </clipPath>
    <clipPath
       id="clipPath13141">
      <rect
         x="0"
         y="0"
         width="504"
         height="504"
         id="rect13139" />
    </clipPath>
    <clipPath
       id="cpMjU0LjIwfDMzMy41M3wyNjUuMTl8MjQ4LjI4-2">
      <rect
         x="254.2"
         y="248.28"
         width="79.330002"
         height="16.92"
         id="rect13145" />
    </clipPath>
    <clipPath
       id="clipPath13158">
      <rect
         x="0"
         y="0"
         width="504"
         height="504"
         id="rect13156" />
    </clipPath>
    <clipPath
       id="cpNDAuNDd8MTE5Ljc5fDIyLjQwfDUuNDg=-7">
      <rect
         x="40.470001"
         y="5.48"
         width="79.330002"
         height="16.92"
         id="rect13162" />
    </clipPath>
    <clipPath
       id="clipPath13175">
      <rect
         x="0"
         y="0"
         width="504"
         height="504"
         id="rect13173" />
    </clipPath>
    <clipPath
       id="cpMTQ3LjMzfDIyNi42NnwyMi40MHw1LjQ4-8">
      <rect
         x="147.33"
         y="5.48"
         width="79.330002"
         height="16.92"
         id="rect13179" />
    </clipPath>
    <clipPath
       id="clipPath13192">
      <rect
         x="0"
         y="0"
         width="504"
         height="504"
         id="rect13190" />
    </clipPath>
    <clipPath
       id="cpMjU0LjIwfDMzMy41M3wyMi40MHw1LjQ4-6">
      <rect
         x="254.2"
         y="5.48"
         width="79.330002"
         height="16.92"
         id="rect13196" />
    </clipPath>
    <clipPath
       id="clipPath13209">
      <rect
         x="0"
         y="0"
         width="504"
         height="504"
         id="rect13207" />
    </clipPath>
    <style
       type="text/css"
       id="style2216"><![CDATA[
    line, polyline, polygon, path, rect, circle {
      fill: none;
      stroke: #000000;
      stroke-linecap: round;
      stroke-linejoin: round;
      stroke-miterlimit: 10.00;
    }
  ]]></style>
    <clipPath
       id="cpNDcuODF8MTE5Ljc5fDIyOS43MXwyMi40MA==">
      <rect
         x="47.810001"
         y="22.4"
         width="71.980003"
         height="207.32001"
         id="rect2224" />
    </clipPath>
    <clipPath
       id="cpMC4wMHw1MDQuMDB8NTA0LjAwfDAuMDA=-5">
      <rect
         x="0"
         y="0"
         width="504"
         height="504"
         id="rect2291" />
    </clipPath>
    <clipPath
       id="cpNDcuODF8MTE5Ljc5fDQ3Mi41MXwyNjUuMTk=">
      <rect
         x="47.810001"
         y="265.19"
         width="71.980003"
         height="207.32001"
         id="rect2296" />
    </clipPath>
    <clipPath
       id="clipPath2363">
      <rect
         x="0"
         y="0"
         width="504"
         height="504"
         id="rect2361" />
    </clipPath>
    <clipPath
       id="cpMTU0LjY4fDIyNi42NnwyMjkuNzF8MjIuNDA=">
      <rect
         x="154.67999"
         y="22.4"
         width="71.980003"
         height="207.32001"
         id="rect2367" />
    </clipPath>
    <clipPath
       id="clipPath2450">
      <rect
         x="0"
         y="0"
         width="504"
         height="504"
         id="rect2448" />
    </clipPath>
    <clipPath
       id="cpMTU0LjY4fDIyNi42Nnw0NzIuNTF8MjY1LjE5">
      <rect
         x="154.67999"
         y="265.19"
         width="71.980003"
         height="207.32001"
         id="rect2454" />
    </clipPath>
    <clipPath
       id="clipPath2533">
      <rect
         x="0"
         y="0"
         width="504"
         height="504"
         id="rect2531" />
    </clipPath>
    <clipPath
       id="cpMjYxLjU0fDMzMy41M3wyMjkuNzF8MjIuNDA=">
      <rect
         x="261.54001"
         y="22.4"
         width="71.980003"
         height="207.32001"
         id="rect2537" />
    </clipPath>
    <clipPath
       id="clipPath2610">
      <rect
         x="0"
         y="0"
         width="504"
         height="504"
         id="rect2608" />
    </clipPath>
    <clipPath
       id="cpMjYxLjU0fDMzMy41M3w0NzIuNTF8MjY1LjE5">
      <rect
         x="261.54001"
         y="265.19"
         width="71.980003"
         height="207.32001"
         id="rect2614" />
    </clipPath>
    <clipPath
       id="clipPath2685">
      <rect
         x="0"
         y="0"
         width="504"
         height="504"
         id="rect2683" />
    </clipPath>
    <clipPath
       id="cpNDcuODF8MTE5Ljc5fDI2NS4xOXwyNDguMjg=">
      <rect
         x="47.810001"
         y="248.28"
         width="71.980003"
         height="16.92"
         id="rect2689" />
    </clipPath>
    <clipPath
       id="clipPath2702">
      <rect
         x="0"
         y="0"
         width="504"
         height="504"
         id="rect2700" />
    </clipPath>
    <clipPath
       id="cpMTU0LjY4fDIyNi42NnwyNjUuMTl8MjQ4LjI4">
      <rect
         x="154.67999"
         y="248.28"
         width="71.980003"
         height="16.92"
         id="rect2706" />
    </clipPath>
    <clipPath
       id="clipPath2719">
      <rect
         x="0"
         y="0"
         width="504"
         height="504"
         id="rect2717" />
    </clipPath>
    <clipPath
       id="cpMjYxLjU0fDMzMy41M3wyNjUuMTl8MjQ4LjI4">
      <rect
         x="261.54001"
         y="248.28"
         width="71.980003"
         height="16.92"
         id="rect2723" />
    </clipPath>
    <clipPath
       id="clipPath2736">
      <rect
         x="0"
         y="0"
         width="504"
         height="504"
         id="rect2734" />
    </clipPath>
    <clipPath
       id="cpNDcuODF8MTE5Ljc5fDIyLjQwfDUuNDg=">
      <rect
         x="47.810001"
         y="5.48"
         width="71.980003"
         height="16.92"
         id="rect2740" />
    </clipPath>
    <clipPath
       id="clipPath2753">
      <rect
         x="0"
         y="0"
         width="504"
         height="504"
         id="rect2751" />
    </clipPath>
    <clipPath
       id="cpMTU0LjY4fDIyNi42NnwyMi40MHw1LjQ4">
      <rect
         x="154.67999"
         y="5.48"
         width="71.980003"
         height="16.92"
         id="rect2757" />
    </clipPath>
    <clipPath
       id="clipPath2770">
      <rect
         x="0"
         y="0"
         width="504"
         height="504"
         id="rect2768" />
    </clipPath>
    <clipPath
       id="cpMjYxLjU0fDMzMy41M3wyMi40MHw1LjQ4">
      <rect
         x="261.54001"
         y="5.48"
         width="71.980003"
         height="16.92"
         id="rect2774" />
    </clipPath>
    <clipPath
       id="clipPath2787">
      <rect
         x="0"
         y="0"
         width="504"
         height="504"
         id="rect2785" />
    </clipPath>
  </defs>
  <defs
     id="defs7613">
    <clipPath
       id="cpNDAuNDd8MTE5Ljc5fDIyOS43MXwyMi40MA==">
      <rect
         x="40.470001"
         y="22.4"
         width="79.330002"
         height="207.32001"
         id="rect7610" />
    </clipPath>
  </defs>
  <defs
     id="defs7676">
    <clipPath
       id="cpMC4wMHw1MDQuMDB8NTA0LjAwfDAuMDA=">
      <rect
         x="0"
         y="0"
         width="504"
         height="504"
         id="rect7673" />
    </clipPath>
  </defs>
  <defs
     id="defs7681" />
  <defs
     id="defs7745">
    <clipPath
       id="clipPath7743">
      <rect
         x="0"
         y="0"
         width="504"
         height="504"
         id="rect7741" />
    </clipPath>
  </defs>
  <defs
     id="defs7750">
    <clipPath
       id="cpMTQ3LjMzfDIyNi42NnwyMjkuNzF8MjIuNDA=">
      <rect
         x="147.33"
         y="22.4"
         width="79.330002"
         height="207.32001"
         id="rect7747" />
    </clipPath>
  </defs>
  <defs
     id="defs7822">
    <clipPath
       id="clipPath7820">
      <rect
         x="0"
         y="0"
         width="504"
         height="504"
         id="rect7818" />
    </clipPath>
  </defs>
  <defs
     id="defs7827">
    <clipPath
       id="cpMTQ3LjMzfDIyNi42Nnw0NzIuNTF8MjY1LjE5">
      <rect
         x="147.33"
         y="265.19"
         width="79.330002"
         height="207.32001"
         id="rect7824" />
    </clipPath>
  </defs>
  <defs
     id="defs7893">
    <clipPath
       id="clipPath7891">
      <rect
         x="0"
         y="0"
         width="504"
         height="504"
         id="rect7889" />
    </clipPath>
  </defs>
  <defs
     id="defs7898">
    <clipPath
       id="cpMjU0LjIwfDMzMy41M3wyMjkuNzF8MjIuNDA=">
      <rect
         x="254.2"
         y="22.4"
         width="79.330002"
         height="207.32001"
         id="rect7895" />
    </clipPath>
  </defs>
  <defs
     id="defs7966">
    <clipPath
       id="clipPath7964">
      <rect
         x="0"
         y="0"
         width="504"
         height="504"
         id="rect7962" />
    </clipPath>
  </defs>
  <defs
     id="defs7971">
    <clipPath
       id="cpMjU0LjIwfDMzMy41M3w0NzIuNTF8MjY1LjE5">
      <rect
         x="254.2"
         y="265.19"
         width="79.330002"
         height="207.32001"
         id="rect7968" />
    </clipPath>
  </defs>
  <defs
     id="defs8035">
    <clipPath
       id="clipPath8033">
      <rect
         x="0"
         y="0"
         width="504"
         height="504"
         id="rect8031" />
    </clipPath>
  </defs>
  <defs
     id="defs8040">
    <clipPath
       id="cpNDAuNDd8MTE5Ljc5fDI2NS4xOXwyNDguMjg=">
      <rect
         x="40.470001"
         y="248.28"
         width="79.330002"
         height="16.92"
         id="rect8037" />
    </clipPath>
  </defs>
  <defs
     id="defs8052">
    <clipPath
       id="clipPath8050">
      <rect
         x="0"
         y="0"
         width="504"
         height="504"
         id="rect8048" />
    </clipPath>
  </defs>
  <defs
     id="defs8057">
    <clipPath
       id="cpMTQ3LjMzfDIyNi42NnwyNjUuMTl8MjQ4LjI4">
      <rect
         x="147.33"
         y="248.28"
         width="79.330002"
         height="16.92"
         id="rect8054" />
    </clipPath>
  </defs>
  <defs
     id="defs8069">
    <clipPath
       id="clipPath8067">
      <rect
         x="0"
         y="0"
         width="504"
         height="504"
         id="rect8065" />
    </clipPath>
  </defs>
  <defs
     id="defs8074">
    <clipPath
       id="cpMjU0LjIwfDMzMy41M3wyNjUuMTl8MjQ4LjI4">
      <rect
         x="254.2"
         y="248.28"
         width="79.330002"
         height="16.92"
         id="rect8071" />
    </clipPath>
  </defs>
  <defs
     id="defs8086">
    <clipPath
       id="clipPath8084">
      <rect
         x="0"
         y="0"
         width="504"
         height="504"
         id="rect8082" />
    </clipPath>
  </defs>
  <defs
     id="defs8091">
    <clipPath
       id="cpNDAuNDd8MTE5Ljc5fDIyLjQwfDUuNDg=">
      <rect
         x="40.470001"
         y="5.48"
         width="79.330002"
         height="16.92"
         id="rect8088" />
    </clipPath>
  </defs>
  <defs
     id="defs8103">
    <clipPath
       id="clipPath8101">
      <rect
         x="0"
         y="0"
         width="504"
         height="504"
         id="rect8099" />
    </clipPath>
  </defs>
  <defs
     id="defs8108">
    <clipPath
       id="cpMTQ3LjMzfDIyNi42NnwyMi40MHw1LjQ4">
      <rect
         x="147.33"
         y="5.48"
         width="79.330002"
         height="16.92"
         id="rect8105" />
    </clipPath>
  </defs>
  <defs
     id="defs8120">
    <clipPath
       id="clipPath8118">
      <rect
         x="0"
         y="0"
         width="504"
         height="504"
         id="rect8116" />
    </clipPath>
  </defs>
  <defs
     id="defs8125">
    <clipPath
       id="cpMjU0LjIwfDMzMy41M3wyMi40MHw1LjQ4">
      <rect
         x="254.2"
         y="5.48"
         width="79.330002"
         height="16.92"
         id="rect8122" />
    </clipPath>
  </defs>
  <defs
     id="defs8137">
    <clipPath
       id="clipPath8135">
      <rect
         x="0"
         y="0"
         width="504"
         height="504"
         id="rect8133" />
    </clipPath>
  </defs>
  <path
     id="rect7683"
     clip-path="none"
     style="fill:#efebe9;stroke:none;stroke-width:1.75128;stroke-linecap:round;stroke-linejoin:round;stroke-miterlimit:10"
     d="M 45.471426,0 H 257.98279 V 207.32001 H 45.471426 Z" />
  <path
     id="polyline7703"
     clip-path="none"
     style="fill:none;stroke:#ffffff;stroke-width:1;stroke-linecap:butt;stroke-linejoin:round;stroke-miterlimit:10;stroke-dasharray:none"
     d="m 45.471426,197.8 c 70.828184,0 141.656374,0 212.484574,0" />
  <path
     id="polyline7707"
     clip-path="none"
     style="fill:none;stroke:#ffffff;stroke-width:1;stroke-linecap:butt;stroke-linejoin:round;stroke-miterlimit:10;stroke-dasharray:none"
     d="m 45.471426,104.7 c 70.828184,0 141.656374,0 212.484574,0" />
  <path
     id="polyline7711"
     clip-path="none"
     style="fill:none;stroke:#ffffff;stroke-width:1;stroke-linecap:butt;stroke-linejoin:round;stroke-miterlimit:10;stroke-dasharray:none"
     d="m 45.471426,11.61 c 70.828184,0 141.656374,0 212.484574,0" />
  <path
     id="polyline7715"
     clip-path="none"
     style="fill:none;stroke:#ffffff;stroke-width:1;stroke-linecap:butt;stroke-linejoin:round;stroke-miterlimit:10;stroke-dasharray:none"
     d="m 93.770676,207.32 c 0,-69.10667 0,-138.21333 0,-207.32" />
  <path
     id="polyline7719"
     clip-path="none"
     style="fill:none;stroke:#ffffff;stroke-width:1;stroke-linecap:butt;stroke-linejoin:round;stroke-miterlimit:10;stroke-dasharray:none"
     d="m 171.10842,207.32 c 0,-69.10667 0,-138.21333 0,-207.32" />
  <path
     id="polyline7725"
     clip-path="none"
     style="fill:none;stroke:#000000;stroke-width:2;stroke-linecap:butt;stroke-linejoin:round;stroke-miterlimit:10;stroke-dasharray:none;stroke-dashoffset:0"
     d="m 55.112921,198.14605 c 2.659112,-0.14679 5.771606,-0.12314 8.465298,-0.0886 5.503439,0.01 10.422574,-0.0748 15.939393,0.0197 3.461802,-0.0294 8.563591,-0.0393 12.563995,-0.0197 2.530019,-0.0283 4.979366,0.0534 7.7152,-0.0886 1.832553,-5.66672 0.724333,-11.48636 1.248653,-17.2125 0.92242,-40.20223 0.81931,-80.40965 3.33225,-120.604329 0.95098,-15.839916 0.83933,-31.691755 2.41099,-47.524061 0.19278,3.291112 0.61104,-0.396221 0.77172,3.407831 2.18399,25.593651 4.24197,51.198349 8.34054,76.747628 0.35066,0.636321 0.66732,2.728286 1.16954,4.371564 1.17622,5.395397 2.49775,10.603377 4.66641,16.005017 1.10227,1.80473 2.31908,4.44837 2.6521,6.67524 1.69557,1.88801 1.10286,2.6291 2.411,4.00709 0.21817,1.56211 1.12076,1.97814 1.6877,3.7216 2.98426,5.21718 4.58314,10.9831 6.37354,16.33779 0.20767,1.9062 0.84643,1.98241 1.48432,4.1906 0.4547,0.52187 1.07756,3.08651 1.59715,4.50913 1.61156,4.61571 3.4704,9.26502 5.43962,13.74376 1.25597,2.23754 2.71407,5.20173 4.21881,7.73733 0.92447,1.76166 1.77457,1.87561 2.26412,3.10252 0.9009,1.3456 2.60847,2.4317 3.1343,3.7216 0.57928,-0.353 1.35497,1.35303 2.89319,2.15615 1.73953,1.6877 2.16617,0.921 3.10751,2.32353 1.23831,0.0762 2.63346,1.3297 3.83082,1.67373 0.89321,0.77249 2.3361,1.20083 4.0987,2.10693 0.81547,0.44123 1.73405,0.8827 4.07191,1.70327 2.05546,0.8848 2.31106,0.89539 4.55411,1.76233 1.69165,0.47052 2.8504,0.97211 4.55412,1.35867 1.59325,0.39848 3.67743,0.66543 5.73283,1.07316 1.41556,0.28594 2.84982,0.48079 4.55411,0.69903 2.49542,0.41629 3.56658,0.32454 5.73281,0.65965 2.42658,0.2303 3.1773,0.2083 4.55412,0.39382 2.11717,-0.0678 4.83546,0.32559 6.42935,0.24614 1.56497,0.16643 4.72046,0.20908 6.93831,0.36428 2.03901,-0.0713 2.32627,0.01 4.52733,0.17722 3.51484,-0.12025 7.11527,0.20869 10.95665,0.12798 2.89551,0.0358 6.23721,0.23885 9.75117,0.0788 2.59852,0.27645 6.20983,-0.0324 9.02785,0.22645" />
  <path
     id="polyline7723"
     clip-path="none"
     style="fill:none;stroke:#ffffff;stroke-width:1;stroke-linecap:butt;stroke-linejoin:round;stroke-miterlimit:10;stroke-dasharray:none"
     d="m 248.44616,207.32 c 0,-69.10667 0,-138.21333 0,-207.32" />
  <path
     id="polyline7669"
     clip-path="none"
     style="fill:none;stroke:#fb8c00;stroke-width:2;stroke-linecap:butt;stroke-linejoin:round;stroke-miterlimit:10;stroke-dasharray:none"
     d="m 54.197166,198.12058 c 15.33066,-0.0941 30.633079,0.19728 45.888304,-0.15901 5.9864,-1.6436 13.42228,-0.23629 17.3588,-8.67322 5.39599,-13.10646 6.31086,-28.9079 8.11132,-43.67698 3.97162,-40.21658 5.49181,-80.954581 10.55467,-120.923088 0.64448,-3.928298 1.23317,-7.967507 2.76463,-11.321933 1.79612,-1.549518 3.10669,2.932292 3.83072,5.536411 5.68833,24.798554 7.88663,51.737747 15.61757,75.630556 3.11121,9.124394 7.8603,16.444374 12.17577,24.016534 4.16898,8.81767 7.65369,18.31126 12.28192,26.54839 5.48465,11.32188 10.59794,23.31688 18.88573,30.51531 5.81299,4.70789 11.39294,7.90068 17.65348,11.28965 9.20115,4.06366 18.4584,6.58561 28.07411,8.12393" />
  <text
     xml:space="preserve"
     style="font-style:normal;font-variant:normal;font-weight:normal;font-stretch:condensed;font-size:16px;line-height:1.25;font-family:'Noto Sans';-inkscape-font-specification:'Noto Sans, Condensed';font-variant-ligatures:normal;font-variant-caps:normal;font-variant-numeric:normal;font-variant-east-asian:normal;letter-spacing:0px;word-spacing:0px;writing-mode:lr-tb"
     x="245.02869"
     y="35.636215"
     id="text10745"><tspan
       sodipodi:role="line"
       id="tspan10743"
       x="245.02869"
       y="35.636215">WT-GFP+SUR1</tspan><tspan
       sodipodi:role="line"
       x="245.02869"
       y="55.636215"
       id="tspan10747">490 nm excitation</tspan></text>
  <text
     xml:space="preserve"
     style="font-style:normal;font-variant:normal;font-weight:normal;font-stretch:condensed;font-size:16px;line-height:1.25;font-family:'Noto Sans';-inkscape-font-specification:'Noto Sans, Condensed';font-variant-ligatures:normal;font-variant-caps:normal;font-variant-numeric:normal;font-variant-east-asian:normal;letter-spacing:0px;word-spacing:0px;writing-mode:lr-tb"
     x="244.9007"
     y="89.226448"
     id="text10751"><tspan
       sodipodi:role="line"
       id="tspan10749"
       x="244.9007"
       y="89.226448">SUR1-mO</tspan><tspan
       sodipodi:role="line"
       x="244.9007"
       y="109.22645"
       id="tspan10753">490 nm excitation</tspan></text>
  <text
     xml:space="preserve"
     style="font-style:normal;font-variant:normal;font-weight:normal;font-stretch:condensed;font-size:16px;line-height:1.25;font-family:'Noto Sans';-inkscape-font-specification:'Noto Sans, Condensed';font-variant-ligatures:normal;font-variant-caps:normal;font-variant-numeric:normal;font-variant-east-asian:normal;letter-spacing:0px;word-spacing:0px;writing-mode:lr-tb"
     x="244.64468"
     y="142.8167"
     id="text10757"><tspan
       sodipodi:role="line"
       id="tspan10755"
       x="244.64468"
       y="142.8167">SUR1-mO</tspan><tspan
       sodipodi:role="line"
       x="244.64468"
       y="162.8167"
       id="tspan10759">565 nm excitation</tspan></text>
  <text
     xml:space="preserve"
     style="font-style:normal;font-variant:normal;font-weight:normal;font-stretch:condensed;font-size:13.3333px;line-height:1.25;font-family:'Noto Sans';-inkscape-font-specification:'Noto Sans, Condensed';font-variant-ligatures:normal;font-variant-caps:normal;font-variant-numeric:normal;font-variant-east-asian:normal;letter-spacing:0px;word-spacing:0px;writing-mode:lr-tb"
     x="84.270706"
     y="218.40764"
     id="text10767"><tspan
       sodipodi:role="line"
       id="tspan10765"
       x="84.270706"
       y="218.40764">500</tspan></text>
  <text
     xml:space="preserve"
     style="font-style:normal;font-variant:normal;font-weight:normal;font-stretch:condensed;font-size:13.3333px;line-height:1.25;font-family:'Noto Sans';-inkscape-font-specification:'Noto Sans, Condensed';font-variant-ligatures:normal;font-variant-caps:normal;font-variant-numeric:normal;font-variant-east-asian:normal;letter-spacing:0px;word-spacing:0px;writing-mode:lr-tb"
     x="161.64844"
     y="218.40764"
     id="text10775"><tspan
       sodipodi:role="line"
       id="tspan10773"
       x="161.64844"
       y="218.40764">600</tspan></text>
  <text
     xml:space="preserve"
     style="font-style:normal;font-variant:normal;font-weight:normal;font-stretch:condensed;font-size:13.3333px;line-height:1.25;font-family:'Noto Sans';-inkscape-font-specification:'Noto Sans, Condensed';font-variant-ligatures:normal;font-variant-caps:normal;font-variant-numeric:normal;font-variant-east-asian:normal;letter-spacing:0px;word-spacing:0px;writing-mode:lr-tb"
     x="239.06618"
     y="218.40764"
     id="text10783"><tspan
       sodipodi:role="line"
       id="tspan10781"
       x="239.06618"
       y="218.40764">700</tspan></text>
  <text
     xml:space="preserve"
     style="font-style:normal;font-variant:normal;font-weight:normal;font-stretch:condensed;font-size:16px;line-height:1.25;font-family:'Noto Sans';-inkscape-font-specification:'Noto Sans, Condensed';font-variant-ligatures:normal;font-variant-caps:normal;font-variant-numeric:normal;font-variant-east-asian:normal;letter-spacing:0px;word-spacing:0px;writing-mode:lr-tb"
     x="98.823212"
     y="238.13739"
     id="text10787"><tspan
       sodipodi:role="line"
       id="tspan10785"
       x="98.823212"
       y="238.13739">Wavelength (nm)</tspan></text>
  <text
     xml:space="preserve"
     style="font-style:normal;font-variant:normal;font-weight:normal;font-stretch:condensed;font-size:16px;line-height:1.25;font-family:'Noto Sans';-inkscape-font-specification:'Noto Sans, Condensed';font-variant-ligatures:normal;font-variant-caps:normal;font-variant-numeric:normal;font-variant-east-asian:normal;letter-spacing:0px;word-spacing:0px;writing-mode:lr-tb"
     x="-190.75574"
     y="12.16"
     id="text10791"
     transform="rotate(-90)"><tspan
       sodipodi:role="line"
       id="tspan10789"
       x="-190.75574"
       y="12.16">Fluorescence intensity (A.U.)</tspan></text>
  <text
     xml:space="preserve"
     style="font-style:normal;font-variant:normal;font-weight:normal;font-stretch:condensed;font-size:13.3333px;line-height:1.25;font-family:'Noto Sans';-inkscape-font-specification:'Noto Sans, Condensed';font-variant-ligatures:normal;font-variant-caps:normal;font-variant-numeric:normal;font-variant-east-asian:normal;letter-spacing:0px;word-spacing:0px;writing-mode:lr-tb"
     x="29.911253"
     y="15.418011"
     id="text10795"><tspan
       sodipodi:role="line"
       id="tspan10793"
       x="29.911253"
       y="15.418011">1.0</tspan></text>
  <text
     xml:space="preserve"
     style="font-style:normal;font-variant:normal;font-weight:normal;font-stretch:condensed;font-size:13.3333px;line-height:1.25;font-family:'Noto Sans';-inkscape-font-specification:'Noto Sans, Condensed';font-variant-ligatures:normal;font-variant-caps:normal;font-variant-numeric:normal;font-variant-east-asian:normal;letter-spacing:0px;word-spacing:0px;writing-mode:lr-tb"
     x="29.953917"
     y="108.50802"
     id="text10799"><tspan
       sodipodi:role="line"
       id="tspan10797"
       x="29.953917"
       y="108.50802">0.5</tspan></text>
  <text
     xml:space="preserve"
     style="font-style:normal;font-variant:normal;font-weight:normal;font-stretch:condensed;font-size:13.3333px;line-height:1.25;font-family:'Noto Sans';-inkscape-font-specification:'Noto Sans, Condensed';font-variant-ligatures:normal;font-variant-caps:normal;font-variant-numeric:normal;font-variant-east-asian:normal;letter-spacing:0px;word-spacing:0px;writing-mode:lr-tb"
     x="29.911253"
     y="201.608"
     id="text10803"><tspan
       sodipodi:role="line"
       id="tspan10801"
       x="29.911253"
       y="201.608">0.0</tspan></text>
  <path
     style="fill:none;stroke:#000000;stroke-width:3;stroke-linecap:butt;stroke-linejoin:miter;stroke-miterlimit:10;stroke-dasharray:none;stroke-opacity:1"
     d="m 218.87479,39.924217 h 18.23475"
     id="path10805" />
  <path
     style="fill:none;stroke:#fb8c00;stroke-width:3;stroke-linecap:butt;stroke-linejoin:miter;stroke-miterlimit:10;stroke-dasharray:none;stroke-opacity:1"
     d="m 218.87479,93.51445 h 18.23475"
     id="path10805-5" />
  <path
     id="polyline2289"
     clip-path="none"
     style="fill:none;stroke:#d81b60;stroke-width:2;stroke-linecap:butt;stroke-linejoin:round;stroke-miterlimit:10;stroke-dasharray:none;stroke-dashoffset:0"
     d="m 55.112699,198.11485 0.23589,0.01 0.26538,0.0296 0.23589,-0.0394 0.23589,0.0296 0.235894,0.0394 0.23589,-0.0887 0.265378,0.0492 h 0.235892 l 0.23589,-0.0296 0.235894,-0.01 0.23589,0.0394 0.265377,-0.0197 0.235893,-0.01 0.235891,0.0296 0.23589,0.0296 0.235893,-0.0197 0.235891,-0.0197 0.265377,-0.0296 0.235893,0.0197 0.23589,0.0394 0.235894,-0.0492 0.23589,0.0197 0.265378,0.0296 0.235892,-0.0296 h 0.23589 l 0.235892,0.0197 H 61.6292 l 0.265377,-0.0591 0.235891,0.0887 0.235892,-0.069 0.235891,0.0492 0.235893,0.0197 0.23589,-0.01 0.265378,-0.0395 0.235893,0.0492 0.23589,-0.01 0.235891,-0.0394 h 0.235893 0.265376 l 0.235892,-0.0296 0.235892,0.0394 0.235891,0.0492 0.235893,-0.069 0.265376,0.0394 0.235892,-0.0591 0.235892,0.0296 0.23589,0.01 0.235892,-0.0197 0.235892,-0.01 h 0.265378 l 0.23589,0.0492 0.235893,-0.0394 0.235891,0.0394 0.235892,-0.069 0.265377,0.01 0.235891,0.0591 0.235893,-0.0591 0.23589,0.0296 0.235891,0.0394 0.265379,-0.0296 0.235892,-0.0197 0.23589,0.0296 0.235892,-0.01 0.235892,-0.0591 0.235892,0.0591 0.265378,0.0197 0.23589,-0.0394 0.235892,0.0296 0.235892,0.0197 0.23589,-0.0591 0.265379,0.069 0.235891,-0.0395 0.23589,-0.0394 0.235893,0.0197 0.235891,-0.01 0.23589,0.01 0.26538,0.0197 0.235891,0.069 0.235892,-0.0788 0.235891,0.0591 0.235891,-0.0591 0.265378,-0.01 0.235892,0.069 0.23589,-0.0492 0.235893,-0.0296 0.235891,0.0197 0.23589,0.0394 0.26538,-0.0887 0.23589,0.0887 0.235893,-0.0492 0.235891,-0.0197 0.23589,0.0492 0.26538,-0.0296 0.23589,0.0197 0.235891,0.0395 0.235893,-0.0197 0.23589,-0.0492 0.235891,0.0395 0.26538,0.01 0.23589,-0.0788 0.23589,0.0788 0.235894,-0.0394 h 0.23589 l 0.26538,0.0197 0.23589,0.0887 0.23589,-0.13794 0.235894,0.069 0.23589,-0.0492 h 0.23589 l 0.26538,0.0394 0.23589,-0.0197 0.235892,0.01 0.235892,0.01 0.23589,0.0296 0.26538,-0.069 0.235891,0.0296 0.23589,-0.0197 h 0.235893 l 0.235891,-0.0197 0.23589,0.01 0.26538,0.0296 0.23589,-0.01 0.235891,0.0492 0.235893,-0.0492 0.23589,0.01 h 0.235894 l 0.265376,-0.01 0.235891,-0.01 0.235893,0.0197 0.23589,-0.0296 0.235891,0.0395 0.265379,0.0492 0.235891,-0.11824 0.235891,0.0591 0.235892,-0.0197 h 0.235891 l 0.235893,-0.01 0.265377,0.0197 0.235891,-0.0197 0.235893,0.01 0.23589,0.0296 0.235891,-0.01 0.235893,0.0394 0.265376,-0.069 0.235892,0.0395 0.235892,-0.0492 0.23589,0.0296 0.235894,-0.0197 0.265376,0.01 0.235892,0.0296 0.235892,-0.0394 0.23589,0.0492 0.235892,-0.0197 0.235892,-0.0394 0.265378,0.0394 0.23589,0.0197 0.235893,-0.0394 0.235891,0.01 0.235892,0.01 0.235891,-0.01 0.265377,-0.01 h 0.235893 l 0.23589,0.01 0.235891,-0.0394 0.235893,0.0788 0.23589,-0.0492 h 0.265378 l 0.235892,0.0394 h 0.235892 l 0.235892,-0.01 0.23589,-0.0197 h 0.265378 l 0.235892,-0.01 0.235892,0.0197 0.23589,-0.01 0.235892,0.01 h 0.235892 l 0.265376,-0.01 0.235893,0.0197 0.235891,0.01 0.23589,-0.0394 0.235893,-0.0197 0.235891,0.0788 0.265379,-0.0492 0.235891,0.01 h 0.235891 l 0.235896,0.0296 0.23589,-0.0296 h 0.23589 l 0.26538,-0.0197 0.23589,-0.01 0.23589,0.0788 0.23589,-0.069 h 0.23589 l 0.23589,0.0591 0.26538,-0.0197 0.23589,-0.069 0.23589,0.0591 0.23589,-0.0197 0.23589,-0.0492 0.23589,0.0591 0.26538,-0.01 0.2359,0.0197 0.23589,-0.01 h 0.23589 l 0.23589,-0.0296 0.23589,0.0492 0.26537,-0.069 0.23589,0.0197 0.2359,0.0492 0.23589,-0.0296 0.23589,0.0296 0.23589,-0.01 0.26538,0.0197 0.23589,-0.0591 0.23589,0.01 0.2359,-0.0296 0.23589,-0.01 0.23589,0.069 0.26538,-0.0394 0.23589,0.0394 0.23589,-0.0296 0.23589,0.0296 0.23589,-0.0788 0.2359,0.0887 0.26537,-0.0591 0.23589,-0.0296 0.2359,0.0296 h 0.23588 l 0.23589,0.0394 0.2359,0.0197 h 0.26538 l 0.23589,-0.0492 0.23589,0.0394 0.23589,-0.0492 0.23589,-0.01 0.23589,0.0197 0.26538,0.01 h 0.2359 l 0.23589,0.01 0.23589,0.0296 0.23589,-0.0591 0.23589,0.10837 0.26537,-0.0591 0.2359,-0.0591 0.23589,0.0296 0.23589,-0.01 h 0.2359 l 0.23588,-0.0197 0.26538,0.0788 0.23589,-0.0394 0.23589,0.0295 0.23589,0.0197 0.2359,-0.0395 h 0.23589 l 0.23589,0.01 0.26538,-0.01 0.23589,0.01 0.23589,-0.01 0.23589,-0.0492 0.2359,0.069 0.23589,-0.0394 0.26537,-0.01 0.2359,0.0296 h 0.23589 l 0.23588,0.0296 0.2359,-0.0492 0.2359,0.069 0.26537,-0.069 0.23589,0.0492 0.23589,-0.0591 h 0.23589 0.23589 l 0.23589,0.0296 0.23589,-0.01 0.26539,0.01 0.23589,0.0296 0.23589,-0.0394 0.23589,0.0394 0.23589,-0.0394 0.23589,-0.0296 0.26538,0.01 0.2359,0.0395 h 0.23589 l 0.23589,-0.0197 0.23589,-0.01 h 0.23589 l 0.26537,0.01 0.23589,0.0394 0.2359,-0.0591 0.23589,0.0197 0.23589,0.0197 0.23589,0.01 0.23589,-0.0394 0.26538,0.0394 0.23589,-0.0492 0.23589,0.0197 h 0.2359 l 0.23589,0.01 0.23589,-0.0394 0.26538,0.0492 h 0.23589 l 0.23589,-0.0296 0.23589,0.0591 0.2359,-0.0197 0.23589,-0.0394 0.23589,0.0394 0.26537,-0.0492 0.23589,-0.01 0.23589,0.0492 0.23589,-0.0492 0.2359,0.0492 0.23589,-0.01 h 0.26538 l 0.23589,0.0197 0.23589,-0.01 0.23589,-0.0197 0.23589,-0.0591 0.23589,0.0986 0.2359,-0.069 0.26538,0.0394 0.23589,-0.01 h 0.23589 l 0.23589,-0.0197 0.23589,0.0395 0.23589,-0.0197 0.2359,-0.0395 0.26537,0.069 0.23589,-0.0394 0.23589,0.01 0.23589,-0.0296 0.23589,0.0394 0.23589,-0.01 h 0.26539 l 0.23589,-0.01 0.23589,-0.01 0.23589,0.0296 h 0.23589 l 0.23589,-0.01 0.23589,0.0591 0.26538,-0.0492 0.2359,-0.0296 0.23589,0.0296 0.23589,-0.0197 0.23589,-0.0492 0.23589,0.069 0.23589,-0.0197 h 0.26537 l 0.23591,0.01 0.23588,0.0591 0.23589,-0.10838 0.2359,0.0986 0.23588,-0.0591 0.23589,-0.0296 0.26538,0.0492 0.2359,-0.0394 h 0.23589 l 0.23589,0.0296 0.23589,0.069 0.23589,-0.0887 0.23589,0.0296 0.26538,-0.01 0.23589,-0.0887 0.2359,0.0986 0.23589,-0.01 0.23589,-0.01 0.23589,-0.01 0.23589,0.0394 0.26538,-0.069 0.23588,0.0394 0.23591,-0.0591 0.23589,-0.069 0.23588,-0.11824 0.2359,-0.27587 0.23589,-0.66997 0.26537,-1.73406 0.23589,-3.92132 0.2359,-8.10867 0.23589,-12.47336 0.23589,-15.29119 0.23589,-16.32572 0.23589,-16.65084 0.26538,-16.2469 0.23589,-16.306001 0.23589,-15.576918 0.2359,-15.291194 0.23589,-15.08429 0.23589,-12.86746 0.23589,-10.217118 0.26537,-6.059333 0.2359,-1.576412 0.23589,-0.660122 0.2359,1.162604 0.23589,1.546854 0.23589,1.290687 0.23589,0.660122 0.23589,1.605969 0.26537,1.507444 0.23589,1.704495 0.2359,1.330098 0.23589,2.049335 0.23589,1.891694 0.23589,1.428623 0.23589,2.226682 0.26538,1.76361 0.23589,1.625675 0.23589,1.862136 0.2359,1.714348 0.23589,1.241424 0.23589,1.428623 0.23589,1.03452 0.26538,1.399066 0.23589,0.778353 0.23589,1.251277 0.2359,1.024668 0.23589,0.660122 0.23589,1.231572 0.23589,0.935994 0.23589,0.788206 0.26537,0.522186 0.23589,1.270982 0.2359,0.640418 0.2359,1.369508 0.23588,0.679826 0.23589,1.507444 0.23589,1.044373 0.26539,1.133046 0.23588,0.955699 0.2359,1.231572 0.23589,1.103488 0.2359,1.064078 0.23588,1.320245 0.2359,1.034521 0.23588,1.399064 0.26537,0.867027 0.2359,1.379361 0.23591,0.80791 0.23588,1.073931 0.2359,1.261129 0.23587,0.482776 0.2359,0.945847 0.23588,0.433513 0.26537,0.30543 0.23591,0.699533 0.2359,0.206904 0.23588,0.571449 0.2359,0.591155 0.23588,-0.05912 0.2359,0.502481 0.23588,0.246315 0.26537,0.532039 0.23591,0.364545 0.2359,0.137936 0.23588,0.30543 0.2359,0.541891 0.23588,0.177347 0.2359,1.123193 0.23588,0.423661 0.26538,0.551744 0.2359,0.817763 0.2359,0.433513 0.23588,1.133046 0.2359,0.640418 0.23588,1.11334 0.2359,0.798059 0.23588,0.482776 0.26538,0.679827 0.2359,0.807912 0.2359,0.719238 0.23587,0.453218 0.2359,0.512334 0.23588,0.354692 0.2359,0.216757 0.23589,0.246314 0.26537,0.364545 0.2359,0.532039 0.2359,0.433513 0.23588,-0.02956 0.2359,0.857173 0.23588,0.669976 0.23591,0.108378 0.23588,0.65027 0.26537,0.699532 0.2359,0.374398 0.2359,0.788206 0.23588,0.975404 0.2359,0.285726 0.23589,1.004962 0.2359,0.38425 0.23588,0.502482 0.2359,0.541891 0.26537,0.364545 0.2359,0.541892 0.23588,0.807911 0.2359,0.31528 0.23588,0.42367 0.2359,0.70938 0.23588,0.75865 0.2359,0.35469 0.26537,0.87688 0.2359,0.81776 0.23588,0.77836 0.23591,0.72909 0.23588,0.88673 0.2359,0.66012 0.23588,1.06408 0.2359,0.53204 0.23588,0.87688 0.26539,0.89658 0.23589,0.40396 0.2359,0.82761 0.23588,0.75865 0.2359,0.7685 0.23588,0.62072 0.2359,0.7882 0.23588,0.7685 0.26537,0.7488 0.23591,0.7882 0.2359,0.3744 0.23588,1.01482 0.2359,0.56159 0.23587,0.7488 0.2359,0.7685 0.23588,0.46307 0.23591,1.09364 0.26537,0.66997 0.2359,0.87688 0.23588,0.91629 0.2359,1.59612 0.23588,2.77842 0.2359,4.11838 0.23589,5.31053 0.2359,5.53715 0.23588,6.07904 0.26539,6.09874 0.23588,5.76376 0.2359,5.82286 0.23588,5.9017 0.2359,5.68493 0.23589,5.49774 0.2359,4.46321 0.23588,3.25136 0.2359,2.06904 0.23587,1.13304 0.2654,0.5813 0.23588,0.3941 0.23591,0.15764 0.23587,0.12809 0.2359,0.0788 0.23588,0.0197 0.2359,0.0591 0.23588,0.0394 0.2359,-0.0197 0.26538,0.0296 h 0.2359 l 0.23588,0.0591 0.2359,0.0296 0.23588,0.0296 0.2359,-0.0197 0.23588,0.0197 0.2359,0.0197 0.23589,-0.01 0.2359,0.0492 0.26537,0.0296 0.2359,-0.0492 0.23588,0.0296 0.2359,0.0394 0.23588,-0.01 0.23591,0.0197 0.23587,-0.0296 0.2359,0.0296 0.23591,-0.0296 0.26537,0.0296 0.23587,-0.0197 0.2359,0.0197 0.23588,-0.0197 0.23591,0.0197 0.23588,-0.01 0.2359,0.0197 0.2359,-0.0492 0.23588,-0.01 0.2359,0.0394 0.23588,0.0197 0.26538,-0.0394 0.2359,0.0197 0.23588,0.0197 0.2359,-0.0296 h 0.2359 l 0.23588,-0.01 0.2359,-0.0296 0.23589,0.0197 0.2359,-0.01 0.23587,0.0394 0.26538,0.0197 0.2359,-0.0296 0.2359,0.01 0.23587,-0.0394 0.23591,-0.01 h 0.23588 l 0.2359,0.0395 0.23588,-0.01 0.2359,0.0197 0.23588,0.0296 0.26539,0.01 0.23588,-0.0492 0.23591,0.0394 0.23588,-0.069 0.2359,0.0492 0.23588,-0.01 0.2359,-0.0197 0.23588,0.0197 0.2359,0.0296 0.23589,0.01 0.2359,-0.0788 0.26537,0.0394 0.2359,-0.0296 h 0.23588 l 0.2359,0.0394 0.23587,-0.0492 0.23591,0.01 0.23588,0.0197 0.2359,0.0492 0.23588,-0.069 0.2359,0.0591 0.23588,-0.0591 0.26539,-0.0394 0.23588,0.0986 0.23591,-0.069 0.23588,0.01 0.2359,0.0394 0.23588,0.0591 0.2359,-0.0986 0.23588,0.0296 0.2359,-0.01 0.2359,-0.0395 0.23589,0.0296 0.2359,0.0296 0.26537,-0.0197 0.23588,0.0197 0.2359,0.0394 0.23587,-0.0887 0.23591,0.0788 0.23591,-0.0394 0.23587,-0.0591 0.2359,0.0788 0.23588,-0.0197 h 0.2359 l 0.23588,0.01 0.2359,0.0197 0.26538,-0.0394 0.2359,0.0492 0.23588,-0.0887 0.2359,0.0394 0.23588,-0.0197 0.2359,0.0197 h 0.23588 l 0.2359,0.0296 0.23589,0.0197 0.2359,-0.0986 0.23588,0.069 0.2359,-0.0197 0.26537,-0.0394 0.2359,0.0591 0.23588,0.01 0.23591,-0.0197 0.23587,0.01 0.2359,0.0591 0.23588,-0.10838 0.2359,0.0788 0.23588,-0.069 0.2359,0.0296 h 0.2359 l 0.23589,-0.0395 0.2359,0.0197 0.26537,-0.01 0.23588,0.069 0.2359,-0.069 0.23588,0.0591 0.2359,-0.0197 0.23591,-0.0197 0.23588,0.0197 0.2359,-0.0394 0.23588,-0.01 0.2359,0.0395 0.23587,0.0197 0.2359,-0.0197 0.23589,0.01 0.2654,-0.0394 0.23587,0.0296 0.2359,-0.0296 0.23588,0.01 h 0.2359 l 0.23588,0.0394 0.2359,-0.01 0.23589,-0.0296 0.2359,0.0197 h 0.23588 l 0.2359,-0.0296 0.23588,0.0197 0.2359,0.01 0.23588,-0.0296 0.2654,0.01 0.23588,0.0492 0.2359,-0.0591 0.23588,0.0197 0.2359,0.01 0.23587,-0.01 0.2359,-0.0296 0.23589,0.0197 0.2359,0.0197 h 0.2359 l 0.23588,0.01 0.2359,-0.0296 0.23588,0.0197 0.2359,0.01 0.23588,-0.0197 0.26538,-0.0296 0.2359,0.0296 0.2359,-0.0197 h 0.23588 l 0.2359,0.0296 0.23588,0.0296 0.2359,-0.0296 0.23589,0.0394 0.2359,-0.0591 0.23587,-0.01 0.2359,0.01 0.23588,0.0296 0.2359,-0.0492 0.23588,0.0492 0.2359,-0.01 0.26538,-0.01 0.2359,0.0395 0.23588,-0.0197 0.2359,-0.0788 0.23588,0.0788 0.2359,-0.0394 0.23588,0.01 0.23591,0.0197 0.2359,0.0296 0.23588,-0.0887 0.2359,0.0986 0.23588,-0.0986 0.2359,0.01 0.23587,0.0492 0.23591,-0.0296 0.23588,0.0492 0.2359,-0.0197 0.26537,0.0394 0.2359,-0.0788 0.23588,0.0788 0.2359,-0.0492 0.23588,-0.0394 0.23591,0.0788 0.23588,-0.0395 h 0.2359 l 0.23588,-0.01 0.2359,0.0197 0.23588,-0.0197 0.2359,0.0591 0.23591,-0.0788 0.23588,-0.01 0.2359,0.0492 0.23587,-0.0197 h 0.2359 l 0.23588,0.01 0.26537,0.0395 0.2359,-0.0591 0.23591,0.0197 0.23588,-0.01 0.2359,0.01 0.23588,0.01 0.2359,-0.0197 0.23588,0.0492 0.2359,-0.0395 0.23589,0.0492 0.2359,-0.0887 0.23588,0.0887 0.2359,-0.0986 0.23588,0.0197 0.2359,0.0197 0.23587,0.0197 0.2359,0.01 0.23591,-0.01 0.23588,0.0197 0.2359,-0.0197 0.23588,0.0296 0.26537,-0.0395 0.2359,-0.0197 h 0.23588 l 0.23591,0.01 0.2359,-0.0197 0.23588,0.0395 0.2359,0.0296 0.23588,-0.0788 0.2359,0.0788 0.23588,-0.0492 0.23591,-0.0197 0.23588,0.01 0.2359,0.01 0.23587,0.0296 0.2359,-0.0197 h 0.23588 l 0.2359,-0.0296 0.2359,0.0395" />
  <path
     style="fill:none;stroke:#d81b60;stroke-width:3;stroke-linecap:butt;stroke-linejoin:miter;stroke-miterlimit:10;stroke-dasharray:none;stroke-opacity:1"
     d="m 218.87479,147.10469 h 18.23475"
     id="path10805-5-6" />
</svg>
