<?xml version="1.0" encoding="UTF-8" standalone="no"?>
<svg
   xmlns:dc="http://purl.org/dc/elements/1.1/"
   xmlns:cc="http://creativecommons.org/ns#"
   xmlns:rdf="http://www.w3.org/1999/02/22-rdf-syntax-ns#"
   xmlns:svg="http://www.w3.org/2000/svg"
   xmlns="http://www.w3.org/2000/svg"
   xmlns:sodipodi="http://sodipodi.sourceforge.net/DTD/sodipodi-0.dtd"
   xmlns:inkscape="http://www.inkscape.org/namespaces/inkscape"
   viewBox="0 0 132.98178 114.85423"
   version="1.1"
   id="svg55571"
   sodipodi:docname="nosur_atp.svg"
   inkscape:version="1.0.1 (3bc2e813f5, 2020-09-07, custom)"
   width="132.98178"
   height="114.85423">
  <metadata
     id="metadata55575">
    <rdf:RDF>
      <cc:Work
         rdf:about="">
        <dc:format>image/svg+xml</dc:format>
        <dc:type
           rdf:resource="http://purl.org/dc/dcmitype/StillImage" />
        <dc:title />
      </cc:Work>
    </rdf:RDF>
  </metadata>
  <sodipodi:namedview
     pagecolor="#ffffff"
     bordercolor="#666666"
     borderopacity="1"
     objecttolerance="10"
     gridtolerance="10"
     guidetolerance="10"
     inkscape:pageopacity="0"
     inkscape:pageshadow="2"
     inkscape:window-width="1366"
     inkscape:window-height="768"
     id="namedview55573"
     showgrid="false"
     inkscape:zoom="2.3138106"
     inkscape:cx="57.125004"
     inkscape:cy="72.252957"
     inkscape:window-x="0"
     inkscape:window-y="0"
     inkscape:window-maximized="1"
     inkscape:current-layer="svg55571"
     inkscape:document-rotation="0" />
  <defs
     id="defs51166">
    <style
       type="text/css"
       id="style51164"><![CDATA[
    line, polyline, polygon, path, rect, circle {
      fill: none;
      stroke: #000000;
      stroke-linecap: round;
      stroke-linejoin: round;
      stroke-miterlimit: 10.00;
    }
  ]]></style>
    <style
       type="text/css"
       id="style7188"><![CDATA[
    line, polyline, polygon, path, rect, circle {
      fill: none;
      stroke: #000000;
      stroke-linecap: round;
      stroke-linejoin: round;
      stroke-miterlimit: 10.00;
    }
  ]]></style>
    <clipPath
       id="clipPath7485">
      <rect
         x="0"
         y="0"
         width="720"
         height="720"
         id="rect7483" />
    </clipPath>
    <clipPath
       id="clipPath7654">
      <rect
         x="0"
         y="0"
         width="720"
         height="720"
         id="rect7652" />
    </clipPath>
    <clipPath
       id="clipPath7763">
      <rect
         x="0"
         y="0"
         width="720"
         height="720"
         id="rect7761" />
    </clipPath>
    <clipPath
       id="clipPath7916">
      <rect
         x="0"
         y="0"
         width="720"
         height="720"
         id="rect7914" />
    </clipPath>
    <clipPath
       id="clipPath8079">
      <rect
         x="0"
         y="0"
         width="720"
         height="720"
         id="rect8077" />
    </clipPath>
    <clipPath
       id="clipPath8178">
      <rect
         x="0"
         y="0"
         width="720"
         height="720"
         id="rect8176" />
    </clipPath>
    <clipPath
       id="clipPath8275">
      <rect
         x="0"
         y="0"
         width="720"
         height="720"
         id="rect8273" />
    </clipPath>
    <clipPath
       id="clipPath8540">
      <rect
         x="0"
         y="0"
         width="720"
         height="720"
         id="rect8538" />
    </clipPath>
    <clipPath
       id="clipPath8663">
      <rect
         x="0"
         y="0"
         width="720"
         height="720"
         id="rect8661" />
    </clipPath>
    <clipPath
       id="clipPath8762">
      <rect
         x="0"
         y="0"
         width="720"
         height="720"
         id="rect8760" />
    </clipPath>
    <clipPath
       id="clipPath9009">
      <rect
         x="0"
         y="0"
         width="720"
         height="720"
         id="rect9007" />
    </clipPath>
    <clipPath
       id="clipPath9122">
      <rect
         x="0"
         y="0"
         width="720"
         height="720"
         id="rect9120" />
    </clipPath>
    <clipPath
       id="clipPath9337">
      <rect
         x="0"
         y="0"
         width="720"
         height="720"
         id="rect9335" />
    </clipPath>
    <clipPath
       id="clipPath9464">
      <rect
         x="0"
         y="0"
         width="720"
         height="720"
         id="rect9462" />
    </clipPath>
    <clipPath
       id="cpNDQ2LjIzfDU3Ny42NHw2ODguNTF8NTM4Ljc4">
      <rect
         x="446.23001"
         y="538.78003"
         width="131.41"
         height="149.73"
         id="rect9468" />
    </clipPath>
    <clipPath
       id="clipPath9475">
      <rect
         x="0"
         y="0"
         width="720"
         height="720"
         id="rect9473" />
    </clipPath>
    <clipPath
       id="clipPath9574">
      <rect
         x="0"
         y="0"
         width="720"
         height="720"
         id="rect9572" />
    </clipPath>
    <clipPath
       id="clipPath9659">
      <rect
         x="0"
         y="0"
         width="720"
         height="720"
         id="rect9657" />
    </clipPath>
    <clipPath
       id="clipPath9800">
      <rect
         x="0"
         y="0"
         width="720"
         height="720"
         id="rect9798" />
    </clipPath>
    <clipPath
       id="cpNTgzLjExfDcxNC41Mnw2ODguNTF8NTM4Ljc4">
      <rect
         x="583.10999"
         y="538.78003"
         width="131.41"
         height="149.73"
         id="rect9804" />
    </clipPath>
    <clipPath
       id="clipPath9811">
      <rect
         x="0"
         y="0"
         width="720"
         height="720"
         id="rect9809" />
    </clipPath>
    <clipPath
       id="clipPath9828">
      <rect
         x="0"
         y="0"
         width="720"
         height="720"
         id="rect9826" />
    </clipPath>
    <clipPath
       id="clipPath9845">
      <rect
         x="0"
         y="0"
         width="720"
         height="720"
         id="rect9843" />
    </clipPath>
    <clipPath
       id="clipPath9862">
      <rect
         x="0"
         y="0"
         width="720"
         height="720"
         id="rect9860" />
    </clipPath>
    <clipPath
       id="cpNDQ2LjIzfDU3Ny42NHw1MzguNzh8NTIxLjg2">
      <rect
         x="446.23001"
         y="521.85999"
         width="131.41"
         height="16.92"
         id="rect9866" />
    </clipPath>
    <clipPath
       id="clipPath9873">
      <rect
         x="0"
         y="0"
         width="720"
         height="720"
         id="rect9871" />
    </clipPath>
    <clipPath
       id="cpNTgzLjExfDcxNC41Mnw1MzguNzh8NTIxLjg2">
      <rect
         x="583.10999"
         y="521.85999"
         width="131.41"
         height="16.92"
         id="rect9877" />
    </clipPath>
    <clipPath
       id="clipPath9884">
      <rect
         x="0"
         y="0"
         width="720"
         height="720"
         id="rect9882" />
    </clipPath>
    <clipPath
       id="clipPath9901">
      <rect
         x="0"
         y="0"
         width="720"
         height="720"
         id="rect9899" />
    </clipPath>
    <clipPath
       id="clipPath9918">
      <rect
         x="0"
         y="0"
         width="720"
         height="720"
         id="rect9916" />
    </clipPath>
    <clipPath
       id="clipPath9935">
      <rect
         x="0"
         y="0"
         width="720"
         height="720"
         id="rect9933" />
    </clipPath>
    <clipPath
       id="clipPath9952">
      <rect
         x="0"
         y="0"
         width="720"
         height="720"
         id="rect9950" />
    </clipPath>
    <clipPath
       id="clipPath9969">
      <rect
         x="0"
         y="0"
         width="720"
         height="720"
         id="rect9967" />
    </clipPath>
    <clipPath
       id="clipPath9986">
      <rect
         x="0"
         y="0"
         width="720"
         height="720"
         id="rect9984" />
    </clipPath>
    <clipPath
       id="clipPath10003">
      <rect
         x="0"
         y="0"
         width="720"
         height="720"
         id="rect10001" />
    </clipPath>
    <clipPath
       id="clipPath10020">
      <rect
         x="0"
         y="0"
         width="720"
         height="720"
         id="rect10018" />
    </clipPath>
    <clipPath
       id="clipPath10037">
      <rect
         x="0"
         y="0"
         width="720"
         height="720"
         id="rect10035" />
    </clipPath>
    <clipPath
       id="clipPath10054">
      <rect
         x="0"
         y="0"
         width="720"
         height="720"
         id="rect10052" />
    </clipPath>
    <clipPath
       id="clipPath10071">
      <rect
         x="0"
         y="0"
         width="720"
         height="720"
         id="rect10069" />
    </clipPath>
    <clipPath
       id="clipPath10088">
      <rect
         x="0"
         y="0"
         width="720"
         height="720"
         id="rect10086" />
    </clipPath>
    <clipPath
       id="clipPath10105">
      <rect
         x="0"
         y="0"
         width="720"
         height="720"
         id="rect10103" />
    </clipPath>
    <clipPath
       id="clipPath10122">
      <rect
         x="0"
         y="0"
         width="720"
         height="720"
         id="rect10120" />
    </clipPath>
    <clipPath
       id="clipPath10139">
      <rect
         x="0"
         y="0"
         width="720"
         height="720"
         id="rect10137" />
    </clipPath>
  </defs>
  <defs
     id="defs51175" />
  <defs
     id="defs51244">
    <clipPath
       id="cpMC4wMHw3MjAuMDB8NzIwLjAwfDAuMDA=">
      <rect
         x="0"
         y="0"
         width="720"
         height="720"
         id="rect51241" />
    </clipPath>
  </defs>
  <defs
     id="defs51249" />
  <defs
     id="defs51357">
    <clipPath
       id="clipPath51355">
      <rect
         x="0"
         y="0"
         width="720"
         height="720"
         id="rect51353" />
    </clipPath>
  </defs>
  <defs
     id="defs51362" />
  <defs
     id="defs51516">
    <clipPath
       id="clipPath51514">
      <rect
         x="0"
         y="0"
         width="720"
         height="720"
         id="rect51512" />
    </clipPath>
  </defs>
  <defs
     id="defs51521" />
  <defs
     id="defs51605">
    <clipPath
       id="clipPath51603">
      <rect
         x="0"
         y="0"
         width="720"
         height="720"
         id="rect51601" />
    </clipPath>
  </defs>
  <defs
     id="defs51610" />
  <defs
     id="defs51716">
    <clipPath
       id="clipPath51714">
      <rect
         x="0"
         y="0"
         width="720"
         height="720"
         id="rect51712" />
    </clipPath>
  </defs>
  <defs
     id="defs51721" />
  <defs
     id="defs51829">
    <clipPath
       id="clipPath51827">
      <rect
         x="0"
         y="0"
         width="720"
         height="720"
         id="rect51825" />
    </clipPath>
  </defs>
  <defs
     id="defs51834" />
  <defs
     id="defs51922">
    <clipPath
       id="clipPath51920">
      <rect
         x="0"
         y="0"
         width="720"
         height="720"
         id="rect51918" />
    </clipPath>
  </defs>
  <defs
     id="defs51927" />
  <defs
     id="defs52037">
    <clipPath
       id="clipPath52035">
      <rect
         x="0"
         y="0"
         width="720"
         height="720"
         id="rect52033" />
    </clipPath>
  </defs>
  <defs
     id="defs52042" />
  <defs
     id="defs52120">
    <clipPath
       id="clipPath52118">
      <rect
         x="0"
         y="0"
         width="720"
         height="720"
         id="rect52116" />
    </clipPath>
  </defs>
  <defs
     id="defs52125" />
  <defs
     id="defs52211">
    <clipPath
       id="clipPath52209">
      <rect
         x="0"
         y="0"
         width="720"
         height="720"
         id="rect52207" />
    </clipPath>
  </defs>
  <defs
     id="defs52216" />
  <defs
     id="defs52318">
    <clipPath
       id="clipPath52316">
      <rect
         x="0"
         y="0"
         width="720"
         height="720"
         id="rect52314" />
    </clipPath>
  </defs>
  <defs
     id="defs52323" />
  <defs
     id="defs52401">
    <clipPath
       id="clipPath52399">
      <rect
         x="0"
         y="0"
         width="720"
         height="720"
         id="rect52397" />
    </clipPath>
  </defs>
  <defs
     id="defs52406" />
  <defs
     id="defs52500">
    <clipPath
       id="clipPath52498">
      <rect
         x="0"
         y="0"
         width="720"
         height="720"
         id="rect52496" />
    </clipPath>
  </defs>
  <defs
     id="defs52505" />
  <defs
     id="defs52603">
    <clipPath
       id="clipPath52601">
      <rect
         x="0"
         y="0"
         width="720"
         height="720"
         id="rect52599" />
    </clipPath>
  </defs>
  <defs
     id="defs52608" />
  <defs
     id="defs52746">
    <clipPath
       id="clipPath52744">
      <rect
         x="0"
         y="0"
         width="720"
         height="720"
         id="rect52742" />
    </clipPath>
  </defs>
  <defs
     id="defs52751" />
  <defs
     id="defs52867">
    <clipPath
       id="clipPath52865">
      <rect
         x="0"
         y="0"
         width="720"
         height="720"
         id="rect52863" />
    </clipPath>
  </defs>
  <defs
     id="defs52872" />
  <defs
     id="defs52986">
    <clipPath
       id="clipPath52984">
      <rect
         x="0"
         y="0"
         width="720"
         height="720"
         id="rect52982" />
    </clipPath>
  </defs>
  <defs
     id="defs52991" />
  <defs
     id="defs53165">
    <clipPath
       id="clipPath53163">
      <rect
         x="0"
         y="0"
         width="720"
         height="720"
         id="rect53161" />
    </clipPath>
  </defs>
  <defs
     id="defs53170" />
  <defs
     id="defs53248">
    <clipPath
       id="clipPath53246">
      <rect
         x="0"
         y="0"
         width="720"
         height="720"
         id="rect53244" />
    </clipPath>
  </defs>
  <defs
     id="defs53253" />
  <defs
     id="defs53331">
    <clipPath
       id="clipPath53329">
      <rect
         x="0"
         y="0"
         width="720"
         height="720"
         id="rect53327" />
    </clipPath>
  </defs>
  <defs
     id="defs53336" />
  <defs
     id="defs53444">
    <clipPath
       id="clipPath53442">
      <rect
         x="0"
         y="0"
         width="720"
         height="720"
         id="rect53440" />
    </clipPath>
  </defs>
  <defs
     id="defs53449" />
  <defs
     id="defs53543">
    <clipPath
       id="clipPath53541">
      <rect
         x="0"
         y="0"
         width="720"
         height="720"
         id="rect53539" />
    </clipPath>
  </defs>
  <defs
     id="defs53548" />
  <defs
     id="defs53640">
    <clipPath
       id="clipPath53638">
      <rect
         x="0"
         y="0"
         width="720"
         height="720"
         id="rect53636" />
    </clipPath>
  </defs>
  <defs
     id="defs53645" />
  <defs
     id="defs53699">
    <clipPath
       id="clipPath53697">
      <rect
         x="0"
         y="0"
         width="720"
         height="720"
         id="rect53695" />
    </clipPath>
  </defs>
  <defs
     id="defs53704" />
  <defs
     id="defs53782">
    <clipPath
       id="clipPath53780">
      <rect
         x="0"
         y="0"
         width="720"
         height="720"
         id="rect53778" />
    </clipPath>
  </defs>
  <defs
     id="defs53787" />
  <defs
     id="defs53885">
    <clipPath
       id="clipPath53883">
      <rect
         x="0"
         y="0"
         width="720"
         height="720"
         id="rect53881" />
    </clipPath>
  </defs>
  <defs
     id="defs53890" />
  <defs
     id="defs53986">
    <clipPath
       id="clipPath53984">
      <rect
         x="0"
         y="0"
         width="720"
         height="720"
         id="rect53982" />
    </clipPath>
  </defs>
  <defs
     id="defs53991" />
  <defs
     id="defs54099">
    <clipPath
       id="clipPath54097">
      <rect
         x="0"
         y="0"
         width="720"
         height="720"
         id="rect54095" />
    </clipPath>
  </defs>
  <defs
     id="defs54104" />
  <defs
     id="defs54190">
    <clipPath
       id="clipPath54188">
      <rect
         x="0"
         y="0"
         width="720"
         height="720"
         id="rect54186" />
    </clipPath>
  </defs>
  <defs
     id="defs54195">
    <clipPath
       id="cpNDkxLjg2fDYwMC40NXw2ODguNTF8NTk2LjE2">
      <rect
         x="491.85999"
         y="596.15997"
         width="108.59"
         height="92.349998"
         id="rect54192" />
    </clipPath>
  </defs>
  <defs
     id="defs54201">
    <clipPath
       id="clipPath54199">
      <rect
         x="0"
         y="0"
         width="720"
         height="720"
         id="rect54197" />
    </clipPath>
  </defs>
  <defs
     id="defs54206" />
  <defs
     id="defs54304">
    <clipPath
       id="clipPath54302">
      <rect
         x="0"
         y="0"
         width="720"
         height="720"
         id="rect54300" />
    </clipPath>
  </defs>
  <defs
     id="defs54309" />
  <defs
     id="defs54419">
    <clipPath
       id="clipPath54417">
      <rect
         x="0"
         y="0"
         width="720"
         height="720"
         id="rect54415" />
    </clipPath>
  </defs>
  <defs
     id="defs54424" />
  <defs
     id="defs54502">
    <clipPath
       id="clipPath54500">
      <rect
         x="0"
         y="0"
         width="720"
         height="720"
         id="rect54498" />
    </clipPath>
  </defs>
  <defs
     id="defs54507" />
  <defs
     id="defs54647">
    <clipPath
       id="clipPath54645">
      <rect
         x="0"
         y="0"
         width="720"
         height="720"
         id="rect54643" />
    </clipPath>
  </defs>
  <defs
     id="defs54652" />
  <defs
     id="defs54734">
    <clipPath
       id="clipPath54732">
      <rect
         x="0"
         y="0"
         width="720"
         height="720"
         id="rect54730" />
    </clipPath>
  </defs>
  <defs
     id="defs54739">
    <clipPath
       id="cpNjA1LjkzfDcxNC41Mnw2ODguNTF8NTk2LjE2">
      <rect
         x="605.92999"
         y="596.15997"
         width="108.59"
         height="92.349998"
         id="rect54736" />
    </clipPath>
  </defs>
  <defs
     id="defs54745">
    <clipPath
       id="clipPath54743">
      <rect
         x="0"
         y="0"
         width="720"
         height="720"
         id="rect54741" />
    </clipPath>
  </defs>
  <defs
     id="defs54750" />
  <defs
     id="defs54762">
    <clipPath
       id="clipPath54760">
      <rect
         x="0"
         y="0"
         width="720"
         height="720"
         id="rect54758" />
    </clipPath>
  </defs>
  <defs
     id="defs54767" />
  <defs
     id="defs54779">
    <clipPath
       id="clipPath54777">
      <rect
         x="0"
         y="0"
         width="720"
         height="720"
         id="rect54775" />
    </clipPath>
  </defs>
  <defs
     id="defs54784" />
  <defs
     id="defs54796">
    <clipPath
       id="clipPath54794">
      <rect
         x="0"
         y="0"
         width="720"
         height="720"
         id="rect54792" />
    </clipPath>
  </defs>
  <defs
     id="defs54801" />
  <defs
     id="defs54813">
    <clipPath
       id="clipPath54811">
      <rect
         x="0"
         y="0"
         width="720"
         height="720"
         id="rect54809" />
    </clipPath>
  </defs>
  <defs
     id="defs54818">
    <clipPath
       id="cpNDkxLjg2fDYwMC40NXw1OTYuMTZ8NTc5LjI0">
      <rect
         x="491.85999"
         y="579.23999"
         width="108.59"
         height="16.92"
         id="rect54815" />
    </clipPath>
  </defs>
  <defs
     id="defs54824">
    <clipPath
       id="clipPath54822">
      <rect
         x="0"
         y="0"
         width="720"
         height="720"
         id="rect54820" />
    </clipPath>
  </defs>
  <defs
     id="defs54829">
    <clipPath
       id="cpNjA1LjkzfDcxNC41Mnw1OTYuMTZ8NTc5LjI0">
      <rect
         x="605.92999"
         y="579.23999"
         width="108.59"
         height="16.92"
         id="rect54826" />
    </clipPath>
  </defs>
  <defs
     id="defs54835">
    <clipPath
       id="clipPath54833">
      <rect
         x="0"
         y="0"
         width="720"
         height="720"
         id="rect54831" />
    </clipPath>
  </defs>
  <defs
     id="defs54840" />
  <defs
     id="defs54852">
    <clipPath
       id="clipPath54850">
      <rect
         x="0"
         y="0"
         width="720"
         height="720"
         id="rect54848" />
    </clipPath>
  </defs>
  <defs
     id="defs54857" />
  <defs
     id="defs54869">
    <clipPath
       id="clipPath54867">
      <rect
         x="0"
         y="0"
         width="720"
         height="720"
         id="rect54865" />
    </clipPath>
  </defs>
  <defs
     id="defs54874" />
  <defs
     id="defs54886">
    <clipPath
       id="clipPath54884">
      <rect
         x="0"
         y="0"
         width="720"
         height="720"
         id="rect54882" />
    </clipPath>
  </defs>
  <defs
     id="defs54891" />
  <defs
     id="defs54903">
    <clipPath
       id="clipPath54901">
      <rect
         x="0"
         y="0"
         width="720"
         height="720"
         id="rect54899" />
    </clipPath>
  </defs>
  <defs
     id="defs54908" />
  <defs
     id="defs54920">
    <clipPath
       id="clipPath54918">
      <rect
         x="0"
         y="0"
         width="720"
         height="720"
         id="rect54916" />
    </clipPath>
  </defs>
  <defs
     id="defs54925" />
  <defs
     id="defs54937">
    <clipPath
       id="clipPath54935">
      <rect
         x="0"
         y="0"
         width="720"
         height="720"
         id="rect54933" />
    </clipPath>
  </defs>
  <defs
     id="defs54942" />
  <defs
     id="defs54954">
    <clipPath
       id="clipPath54952">
      <rect
         x="0"
         y="0"
         width="720"
         height="720"
         id="rect54950" />
    </clipPath>
  </defs>
  <defs
     id="defs54959" />
  <defs
     id="defs54971">
    <clipPath
       id="clipPath54969">
      <rect
         x="0"
         y="0"
         width="720"
         height="720"
         id="rect54967" />
    </clipPath>
  </defs>
  <defs
     id="defs54976" />
  <defs
     id="defs54988">
    <clipPath
       id="clipPath54986">
      <rect
         x="0"
         y="0"
         width="720"
         height="720"
         id="rect54984" />
    </clipPath>
  </defs>
  <defs
     id="defs54993" />
  <defs
     id="defs55005">
    <clipPath
       id="clipPath55003">
      <rect
         x="0"
         y="0"
         width="720"
         height="720"
         id="rect55001" />
    </clipPath>
  </defs>
  <defs
     id="defs55010" />
  <defs
     id="defs55022">
    <clipPath
       id="clipPath55020">
      <rect
         x="0"
         y="0"
         width="720"
         height="720"
         id="rect55018" />
    </clipPath>
  </defs>
  <defs
     id="defs55027" />
  <defs
     id="defs55039">
    <clipPath
       id="clipPath55037">
      <rect
         x="0"
         y="0"
         width="720"
         height="720"
         id="rect55035" />
    </clipPath>
  </defs>
  <defs
     id="defs55044" />
  <defs
     id="defs55056">
    <clipPath
       id="clipPath55054">
      <rect
         x="0"
         y="0"
         width="720"
         height="720"
         id="rect55052" />
    </clipPath>
  </defs>
  <defs
     id="defs55061" />
  <defs
     id="defs55073">
    <clipPath
       id="clipPath55071">
      <rect
         x="0"
         y="0"
         width="720"
         height="720"
         id="rect55069" />
    </clipPath>
  </defs>
  <defs
     id="defs55078" />
  <defs
     id="defs55090">
    <clipPath
       id="clipPath55088">
      <rect
         x="0"
         y="0"
         width="720"
         height="720"
         id="rect55086" />
    </clipPath>
  </defs>
  <defs
     id="defs55095" />
  <defs
     id="defs55107">
    <clipPath
       id="clipPath55105">
      <rect
         x="0"
         y="0"
         width="720"
         height="720"
         id="rect55103" />
    </clipPath>
  </defs>
  <defs
     id="defs55112" />
  <defs
     id="defs55124">
    <clipPath
       id="clipPath55122">
      <rect
         x="0"
         y="0"
         width="720"
         height="720"
         id="rect55120" />
    </clipPath>
  </defs>
  <defs
     id="defs55129" />
  <defs
     id="defs55141">
    <clipPath
       id="clipPath55139">
      <rect
         x="0"
         y="0"
         width="720"
         height="720"
         id="rect55137" />
    </clipPath>
  </defs>
  <defs
     id="defs55146" />
  <defs
     id="defs55158">
    <clipPath
       id="clipPath55156">
      <rect
         x="0"
         y="0"
         width="720"
         height="720"
         id="rect55154" />
    </clipPath>
  </defs>
  <defs
     id="defs55163" />
  <defs
     id="defs55175">
    <clipPath
       id="clipPath55173">
      <rect
         x="0"
         y="0"
         width="720"
         height="720"
         id="rect55171" />
    </clipPath>
  </defs>
  <defs
     id="defs55180" />
  <defs
     id="defs55192">
    <clipPath
       id="clipPath55190">
      <rect
         x="0"
         y="0"
         width="720"
         height="720"
         id="rect55188" />
    </clipPath>
  </defs>
  <defs
     id="defs55197" />
  <defs
     id="defs55209">
    <clipPath
       id="clipPath55207">
      <rect
         x="0"
         y="0"
         width="720"
         height="720"
         id="rect55205" />
    </clipPath>
  </defs>
  <defs
     id="defs55214" />
  <defs
     id="defs55226">
    <clipPath
       id="clipPath55224">
      <rect
         x="0"
         y="0"
         width="720"
         height="720"
         id="rect55222" />
    </clipPath>
  </defs>
  <defs
     id="defs55231" />
  <defs
     id="defs55243">
    <clipPath
       id="clipPath55241">
      <rect
         x="0"
         y="0"
         width="720"
         height="720"
         id="rect55239" />
    </clipPath>
  </defs>
  <defs
     id="defs55248" />
  <defs
     id="defs55260">
    <clipPath
       id="clipPath55258">
      <rect
         x="0"
         y="0"
         width="720"
         height="720"
         id="rect55256" />
    </clipPath>
  </defs>
  <defs
     id="defs55265" />
  <defs
     id="defs55277">
    <clipPath
       id="clipPath55275">
      <rect
         x="0"
         y="0"
         width="720"
         height="720"
         id="rect55273" />
    </clipPath>
  </defs>
  <defs
     id="defs55282" />
  <defs
     id="defs55294">
    <clipPath
       id="clipPath55292">
      <rect
         x="0"
         y="0"
         width="720"
         height="720"
         id="rect55290" />
    </clipPath>
  </defs>
  <defs
     id="defs55299" />
  <defs
     id="defs55311">
    <clipPath
       id="clipPath55309">
      <rect
         x="0"
         y="0"
         width="720"
         height="720"
         id="rect55307" />
    </clipPath>
  </defs>
  <defs
     id="defs55316" />
  <defs
     id="defs55328">
    <clipPath
       id="clipPath55326">
      <rect
         x="0"
         y="0"
         width="720"
         height="720"
         id="rect55324" />
    </clipPath>
  </defs>
  <defs
     id="defs55333" />
  <defs
     id="defs55345">
    <clipPath
       id="clipPath55343">
      <rect
         x="0"
         y="0"
         width="720"
         height="720"
         id="rect55341" />
    </clipPath>
  </defs>
  <rect
     x="24.391674"
     y="0"
     width="108.59"
     height="92.349998"
     style="fill:#efebe9;stroke:none;stroke-width:1.07"
     clip-path="none"
     id="rect54106" />
  <path
     id="polyline54108"
     clip-path="none"
     style="fill:none;stroke:#ffffff;stroke-width:0.5;stroke-linecap:butt;stroke-linejoin:round;stroke-miterlimit:10;stroke-dasharray:none"
     d="m 24.391776,65.560007 c 36.1966,0 72.393304,0 108.590004,0" />
  <path
     id="polyline54110"
     clip-path="none"
     style="fill:none;stroke:#ffffff;stroke-width:0.5;stroke-linecap:butt;stroke-linejoin:round;stroke-miterlimit:10;stroke-dasharray:none"
     d="m 24.391776,33.260007 c 36.1966,0 72.393304,0 108.590004,0" />
  <path
     id="polyline54112"
     clip-path="none"
     style="fill:none;stroke:#ffffff;stroke-width:0.5;stroke-linecap:butt;stroke-linejoin:round;stroke-miterlimit:10;stroke-dasharray:none"
     d="m 29.321776,92.360009 c 0,-30.786672 0,-61.573332 0,-92.3600016082153" />
  <path
     id="polyline54114"
     clip-path="none"
     style="fill:none;stroke:#ffffff;stroke-width:0.5;stroke-linecap:butt;stroke-linejoin:round;stroke-miterlimit:10;stroke-dasharray:none"
     d="m 61.961776,92.360009 c 0,-30.786672 0,-61.573332 0,-92.3600016082153" />
  <path
     id="polyline54116"
     clip-path="none"
     style="fill:none;stroke:#ffffff;stroke-width:0.5;stroke-linecap:butt;stroke-linejoin:round;stroke-miterlimit:10;stroke-dasharray:none"
     d="m 94.59178,92.360009 c 0,-30.786672 0,-61.573332 0,-92.3600016082153" />
  <path
     id="polyline54118"
     clip-path="none"
     style="fill:none;stroke:#ffffff;stroke-width:0.5;stroke-linecap:butt;stroke-linejoin:round;stroke-miterlimit:10;stroke-dasharray:none"
     d="m 127.23178,92.360009 c 0,-30.786672 0,-61.573332 0,-92.3600016082153" />
  <path
     id="polyline54120"
     clip-path="none"
     style="fill:none;stroke:#ffffff;stroke-width:1;stroke-linecap:butt;stroke-linejoin:round;stroke-miterlimit:10;stroke-dasharray:none"
     d="m 24.391776,81.700007 c 36.1966,0 72.393304,0 108.590004,0" />
  <path
     id="polyline54122"
     clip-path="none"
     style="fill:none;stroke:#ffffff;stroke-width:1;stroke-linecap:butt;stroke-linejoin:round;stroke-miterlimit:10;stroke-dasharray:none"
     d="m 24.391776,49.410007 c 36.1966,0 72.393304,0 108.590004,0" />
  <path
     id="polyline54124"
     clip-path="none"
     style="fill:none;stroke:#ffffff;stroke-width:1;stroke-linecap:butt;stroke-linejoin:round;stroke-miterlimit:10;stroke-dasharray:none"
     d="m 24.391776,17.120007 c 36.1966,0 72.393304,0 108.590004,0" />
  <path
     id="polyline54126"
     clip-path="none"
     style="fill:none;stroke:#ffffff;stroke-width:1;stroke-linecap:butt;stroke-linejoin:round;stroke-miterlimit:10;stroke-dasharray:none"
     d="m 45.641776,92.360009 c 0,-30.786672 0,-61.573332 0,-92.3600016082153" />
  <path
     id="polyline54128"
     clip-path="none"
     style="fill:none;stroke:#ffffff;stroke-width:1;stroke-linecap:butt;stroke-linejoin:round;stroke-miterlimit:10;stroke-dasharray:none"
     d="m 78.281776,92.360009 c 0,-30.786672 0,-61.573332 0,-92.3600016082153" />
  <path
     id="polyline54130"
     clip-path="none"
     style="fill:none;stroke:#ffffff;stroke-width:1;stroke-linecap:butt;stroke-linejoin:round;stroke-miterlimit:10;stroke-dasharray:none"
     d="m 110.91178,92.360009 c 0,-30.786672 0,-61.573332 0,-92.3600016082153" />
  <polygon
     points="99.25,642.56 101.21,648.84 103.17,654.82 105.13,660.1 107.08,664.52 109.04,668.01 111,670.59 112.96,672.54 114.92,673.87 116.87,674.73 118.83,675.3 120.79,675.64 122.75,675.85 124.71,675.98 126.66,676.06 128.62,676.12 130.58,676.16 132.54,676.19 134.5,676.21 136.45,676.22 138.41,676.23 138.41,677.81 136.45,677.8 134.5,677.78 132.54,677.76 130.58,677.73 128.62,677.69 126.66,677.63 124.71,677.55 122.75,677.43 120.79,677.26 118.83,677.03 116.87,676.7 114.92,676.24 112.96,675.56 111,674.66 109.04,673.34 107.08,671.62 105.13,669.19 103.17,665.87 101.21,661.6 99.25,656.51 97.29,650.65 95.34,644.39 93.38,638.16 91.42,632.53 89.46,627.73 87.5,623.78 85.54,620.87 83.59,618.66 81.63,617.03 79.67,615.9 77.71,615.1 75.75,614.54 73.8,614.14 71.84,613.87 69.88,613.68 67.92,613.56 65.96,613.47 64.01,613.41 62.05,613.36 60.09,613.33 58.13,613.31 56.17,613.3 54.22,613.29 52.26,613.28 50.3,613.28 48.34,613.28 46.38,613.27 44.43,613.27 42.47,613.27 40.51,613.27 42.47,613.27 44.43,613.27 46.38,613.27 48.34,613.27 50.3,613.27 52.26,613.27 54.22,613.27 56.17,613.28 58.13,613.28 60.09,613.28 62.05,613.29 64.01,613.3 65.96,613.32 67.92,613.35 69.88,613.39 71.84,613.46 73.8,613.55 75.75,613.69 77.71,613.91 79.67,614.23 81.63,614.7 83.59,615.39 85.54,616.41 87.5,617.83 89.46,619.85 91.42,622.69 93.38,626.37 95.34,631.03 97.29,636.47 "
     style="fill:#1e88e5;fill-opacity:0.5;stroke:none;stroke-width:0"
     clip-path="none"
     id="polygon51749"
     transform="translate(-11.188324,-596.14999)" />
  <polygon
     points="553.58,501.45 555.54,502.38 557.49,503.55 559.45,505.06 561.41,506.93 563.37,509.25 565.33,512.05 567.28,515.21 569.24,518.87 571.2,522.95 573.16,527.02 575.12,531.42 577.07,535.77 579.03,539.87 580.99,543.6 582.95,546.93 584.91,549.76 586.87,552.18 588.82,554.18 590.78,555.67 592.74,556.85 594.7,557.63 594.7,561.43 592.74,561.05 590.78,560.59 588.82,560.02 586.87,559.33 584.91,558.48 582.95,557.46 580.99,556.22 579.03,554.68 577.07,552.64 575.12,550.24 573.16,547.31 571.2,544.07 569.24,540.42 567.28,536.32 565.33,532.15 563.37,527.81 561.41,523.53 559.45,519.42 557.49,515.74 555.54,512.54 553.58,509.81 551.62,507.44 549.66,505.51 547.7,503.97 545.75,502.76 543.79,501.81 541.83,501.08 539.87,500.49 537.91,500.04 535.96,499.69 534,499.42 532.04,499.21 530.08,499.05 528.12,498.93 526.16,498.84 524.21,498.76 522.25,498.71 520.29,498.66 518.33,498.63 516.37,498.6 514.42,498.58 512.46,498.57 510.5,498.56 508.54,498.55 506.58,498.54 504.63,498.54 502.67,498.53 500.71,498.53 498.75,498.53 496.79,498.52 498.75,498.52 500.71,498.52 502.67,498.52 504.63,498.52 506.58,498.52 508.54,498.52 510.5,498.52 512.46,498.52 514.42,498.53 516.37,498.53 518.33,498.53 520.29,498.54 522.25,498.54 524.21,498.55 526.16,498.57 528.12,498.58 530.08,498.61 532.04,498.64 534,498.68 535.96,498.73 537.91,498.81 539.87,498.91 541.83,499.04 543.79,499.22 545.75,499.46 547.7,499.76 549.66,500.18 551.62,500.74 "
     style="fill:#fb8c00;fill-opacity:0.5;stroke:none;stroke-width:0"
     clip-path="none"
     id="polygon54132"
     transform="translate(-467.46832,-481.39999)" />
  <polyline
     points="40.51,613.27 42.47,613.27 44.43,613.27 46.38,613.27 48.34,613.27 50.30,613.27 52.26,613.27 54.22,613.27 56.17,613.28 58.13,613.28 60.09,613.28 62.05,613.29 64.01,613.30 65.96,613.32 67.92,613.35 69.88,613.39 71.84,613.46 73.80,613.55 75.75,613.69 77.71,613.91 79.67,614.23 81.63,614.70 83.59,615.39 85.54,616.41 87.50,617.83 89.46,619.85 91.42,622.69 93.38,626.37 95.34,631.03 97.29,636.47 99.25,642.56 101.21,648.84 103.17,654.82 105.13,660.10 107.08,664.52 109.04,668.01 111.00,670.59 112.96,672.54 114.92,673.87 116.87,674.73 118.83,675.30 120.79,675.64 122.75,675.85 124.71,675.98 126.66,676.06 128.62,676.12 130.58,676.16 132.54,676.19 134.50,676.21 136.45,676.22 138.41,676.23 "
     style="stroke:#1e88e5;stroke-width:0.5;stroke-miterlimit:10;stroke-dasharray:none"
     clip-path="none"
     id="polyline51751"
     transform="translate(-11.188324,-596.14999)" />
  <polyline
     points="496.79,498.52 498.75,498.52 500.71,498.52 502.67,498.52 504.63,498.52 506.58,498.52 508.54,498.52 510.50,498.52 512.46,498.52 514.42,498.53 516.37,498.53 518.33,498.53 520.29,498.54 522.25,498.54 524.21,498.55 526.16,498.57 528.12,498.58 530.08,498.61 532.04,498.64 534.00,498.68 535.96,498.73 537.91,498.81 539.87,498.91 541.83,499.04 543.79,499.22 545.75,499.46 547.70,499.76 549.66,500.18 551.62,500.74 553.58,501.45 555.54,502.38 557.49,503.55 559.45,505.06 561.41,506.93 563.37,509.25 565.33,512.05 567.28,515.21 569.24,518.87 571.20,522.95 573.16,527.02 575.12,531.42 577.07,535.77 579.03,539.87 580.99,543.60 582.95,546.93 584.91,549.76 586.87,552.18 588.82,554.18 590.78,555.67 592.74,556.85 594.70,557.63 "
     style="stroke:#fb8c00;stroke-width:0.5;stroke-miterlimit:10;stroke-dasharray:none"
     clip-path="none"
     id="polyline54134"
     transform="translate(-467.46832,-481.39999)" />
  <polyline
     points="138.41,677.81 136.45,677.80 134.50,677.78 132.54,677.76 130.58,677.73 128.62,677.69 126.66,677.63 124.71,677.55 122.75,677.43 120.79,677.26 118.83,677.03 116.87,676.70 114.92,676.24 112.96,675.56 111.00,674.66 109.04,673.34 107.08,671.62 105.13,669.19 103.17,665.87 101.21,661.60 99.25,656.51 97.29,650.65 95.34,644.39 93.38,638.16 91.42,632.53 89.46,627.73 87.50,623.78 85.54,620.87 83.59,618.66 81.63,617.03 79.67,615.90 77.71,615.10 75.75,614.54 73.80,614.14 71.84,613.87 69.88,613.68 67.92,613.56 65.96,613.47 64.01,613.41 62.05,613.36 60.09,613.33 58.13,613.31 56.17,613.30 54.22,613.29 52.26,613.28 50.30,613.28 48.34,613.28 46.38,613.27 44.43,613.27 42.47,613.27 40.51,613.27 "
     style="stroke:#1e88e5;stroke-width:0.5;stroke-miterlimit:10;stroke-dasharray:none"
     clip-path="none"
     id="polyline51753"
     transform="translate(-11.188324,-596.14999)" />
  <polyline
     points="594.70,561.43 592.74,561.05 590.78,560.59 588.82,560.02 586.87,559.33 584.91,558.48 582.95,557.46 580.99,556.22 579.03,554.68 577.07,552.64 575.12,550.24 573.16,547.31 571.20,544.07 569.24,540.42 567.28,536.32 565.33,532.15 563.37,527.81 561.41,523.53 559.45,519.42 557.49,515.74 555.54,512.54 553.58,509.81 551.62,507.44 549.66,505.51 547.70,503.97 545.75,502.76 543.79,501.81 541.83,501.08 539.87,500.49 537.91,500.04 535.96,499.69 534.00,499.42 532.04,499.21 530.08,499.05 528.12,498.93 526.16,498.84 524.21,498.76 522.25,498.71 520.29,498.66 518.33,498.63 516.37,498.60 514.42,498.58 512.46,498.57 510.50,498.56 508.54,498.55 506.58,498.54 504.63,498.54 502.67,498.53 500.71,498.53 498.75,498.53 496.79,498.52 "
     style="stroke:#fb8c00;stroke-width:0.5;stroke-miterlimit:10;stroke-dasharray:none"
     clip-path="none"
     id="polyline54136"
     transform="translate(-467.46832,-481.39999)" />
  <circle
     cx="85.251656"
     cy="16.050018"
     r="2.7279694"
     style="fill:#fb8c00;stroke-width:0.544061"
     clip-path="none"
     id="circle54138" />
  <circle
     cx="93.38166"
     cy="27"
     r="2.7279694"
     style="fill:#fb8c00;stroke-width:0.544061"
     clip-path="none"
     id="circle54140" />
  <circle
     cx="101.56172"
     cy="36.019989"
     r="2.7279694"
     style="fill:#fb8c00;stroke-width:0.544061"
     clip-path="none"
     id="circle54142" />
  <circle
     cx="111.09174"
     cy="57.800022"
     r="2.7279694"
     style="fill:#fb8c00;stroke-width:0.544061"
     clip-path="none"
     id="circle54144" />
  <circle
     cx="117.88165"
     cy="67.209991"
     r="2.7279694"
     style="fill:#fb8c00;stroke-width:0.544061"
     clip-path="none"
     id="circle54146" />
  <circle
     cx="127.38165"
     cy="74.810028"
     r="2.7279694"
     style="fill:#fb8c00;stroke-width:0.544061"
     clip-path="none"
     id="circle54148" />
  <circle
     cx="86.061722"
     cy="19.970001"
     r="2.7279694"
     style="fill:#fb8c00;stroke-width:0.544061"
     clip-path="none"
     id="circle54150" />
  <circle
     cx="95.001648"
     cy="26.5"
     r="2.7279694"
     style="fill:#fb8c00;stroke-width:0.544061"
     clip-path="none"
     id="circle54152" />
  <circle
     cx="102.38166"
     cy="40.850006"
     r="2.7279694"
     style="fill:#fb8c00;stroke-width:0.544061"
     clip-path="none"
     id="circle54154" />
  <circle
     cx="110.37176"
     cy="61.459995"
     r="2.7279694"
     style="fill:#fb8c00;stroke-width:0.544061"
     clip-path="none"
     id="circle54156" />
  <circle
     cx="118.70172"
     cy="72.889984"
     r="2.7279694"
     style="fill:#fb8c00;stroke-width:0.544061"
     clip-path="none"
     id="circle54158" />
  <circle
     cx="126.77167"
     cy="76.870026"
     r="2.7279694"
     style="fill:#fb8c00;stroke-width:0.544061"
     clip-path="none"
     id="circle54160" />
  <circle
     cx="77.481758"
     cy="19.700012"
     r="2.7279694"
     style="fill:#fb8c00;stroke-width:0.544061"
     clip-path="none"
     id="circle54162" />
  <circle
     cx="94.591751"
     cy="39.529999"
     r="2.7279694"
     style="fill:#fb8c00;stroke-width:0.544061"
     clip-path="none"
     id="circle54164" />
  <circle
     cx="110.91168"
     cy="69.949982"
     r="2.7279694"
     style="fill:#fb8c00;stroke-width:0.544061"
     clip-path="none"
     id="circle54166" />
  <circle
     cx="127.23175"
     cy="81.069977"
     r="2.7279694"
     style="fill:#fb8c00;stroke-width:0.544061"
     clip-path="none"
     id="circle54168" />
  <circle
     cx="79.071724"
     cy="19.25"
     r="2.7279694"
     style="fill:#fb8c00;stroke-width:0.544061"
     clip-path="none"
     id="circle54170" />
  <circle
     cx="95.091751"
     cy="34.300018"
     r="2.7279694"
     style="fill:#fb8c00;stroke-width:0.544061"
     clip-path="none"
     id="circle54172" />
  <circle
     cx="110.11175"
     cy="67.880035"
     r="2.7279694"
     style="fill:#fb8c00;stroke-width:0.544061"
     clip-path="none"
     id="circle54174" />
  <circle
     cx="126.41168"
     cy="80.730011"
     r="2.7279694"
     style="fill:#fb8c00;stroke-width:0.544061"
     clip-path="none"
     id="circle54176" />
  <circle
     cx="78.281685"
     cy="25.899994"
     r="2.7279694"
     style="fill:#fb8c00;stroke-width:0.544061"
     clip-path="none"
     id="circle54178" />
  <circle
     cx="93.811722"
     cy="37.980011"
     r="2.7279694"
     style="fill:#fb8c00;stroke-width:0.544061"
     clip-path="none"
     id="circle54180" />
  <circle
     cx="111.6817"
     cy="67.560028"
     r="2.7279694"
     style="fill:#fb8c00;stroke-width:0.544061"
     clip-path="none"
     id="circle54182" />
  <circle
     cx="128.00165"
     cy="80.410004"
     r="2.7279694"
     style="fill:#fb8c00;stroke-width:0.544061"
     clip-path="none"
     id="circle54184" />
  <text
     xml:space="preserve"
     style="font-style:normal;font-variant:normal;font-weight:normal;font-stretch:condensed;font-size:10.6667px;line-height:1.25;font-family:'Noto Sans';-inkscape-font-specification:'Noto Sans, Condensed';font-variant-ligatures:normal;font-variant-caps:normal;font-variant-numeric:normal;font-variant-east-asian:normal;letter-spacing:0px;word-spacing:0px;writing-mode:lr-tb"
     x="59.315994"
     y="113.14755"
     id="text12737-7-0"><tspan
       sodipodi:role="line"
       id="tspan12735-8-4"
       x="59.315994"
       y="113.14755">[ATP] (M)</tspan></text>
  <text
     xml:space="preserve"
     style="font-style:normal;font-variant:normal;font-weight:normal;font-stretch:condensed;font-size:8px;line-height:1.25;font-family:'Noto Sans';-inkscape-font-specification:'Noto Sans, Condensed';font-variant-ligatures:normal;font-variant-caps:normal;font-variant-numeric:normal;font-variant-east-asian:normal;letter-spacing:0px;word-spacing:0px;writing-mode:lr-tb"
     x="39.713795"
     y="100.6539"
     id="text12593-0-1-2"><tspan
       sodipodi:role="line"
       id="tspan12591-25-3-5"
       x="39.713795"
       y="100.6539">10<tspan
   id="tspan12595-3-0-9"
   style="font-size:65%;baseline-shift:super">-7</tspan></tspan></text>
  <text
     xml:space="preserve"
     style="font-style:normal;font-variant:normal;font-weight:normal;font-stretch:condensed;font-size:8px;line-height:1.25;font-family:'Noto Sans';-inkscape-font-specification:'Noto Sans, Condensed';font-variant-ligatures:normal;font-variant-caps:normal;font-variant-numeric:normal;font-variant-east-asian:normal;letter-spacing:0px;word-spacing:0px;writing-mode:lr-tb"
     x="72.374596"
     y="100.6539"
     id="text12593-2-8-8-3"><tspan
       sodipodi:role="line"
       id="tspan12591-7-5-2-8"
       x="72.374596"
       y="100.6539">10<tspan
   id="tspan12595-0-0-9-8"
   style="font-size:65%;baseline-shift:super">-5</tspan></tspan></text>
  <text
     xml:space="preserve"
     style="font-style:normal;font-variant:normal;font-weight:normal;font-stretch:condensed;font-size:8px;line-height:1.25;font-family:'Noto Sans';-inkscape-font-specification:'Noto Sans, Condensed';font-variant-ligatures:normal;font-variant-caps:normal;font-variant-numeric:normal;font-variant-east-asian:normal;letter-spacing:0px;word-spacing:0px;writing-mode:lr-tb"
     x="105.0124"
     y="100.72324"
     id="text12593-9-5-0-4"><tspan
       sodipodi:role="line"
       id="tspan12591-3-6-1-3"
       x="105.0124"
       y="100.72324">10<tspan
   id="tspan12595-6-67-0-5"
   style="font-size:65%;baseline-shift:super">-3</tspan></tspan></text>
  <text
     xml:space="preserve"
     style="font-style:normal;font-variant:normal;font-weight:normal;font-stretch:condensed;font-size:8px;line-height:1.25;font-family:'Noto Sans';-inkscape-font-specification:'Noto Sans, Condensed';font-variant-ligatures:normal;font-variant-caps:normal;font-variant-numeric:normal;font-variant-east-asian:normal;letter-spacing:0px;word-spacing:0px;writing-mode:lr-tb"
     x="13.058985"
     y="84.556007"
     id="text12581-7-4-9"><tspan
       sodipodi:role="line"
       id="tspan12579-9-6-8"
       x="13.058985"
       y="84.556007">0.0</tspan></text>
  <text
     xml:space="preserve"
     style="font-style:normal;font-variant:normal;font-weight:normal;font-stretch:condensed;font-size:8px;line-height:1.25;font-family:'Noto Sans';-inkscape-font-specification:'Noto Sans, Condensed';font-variant-ligatures:normal;font-variant-caps:normal;font-variant-numeric:normal;font-variant-east-asian:normal;letter-spacing:0px;word-spacing:0px;writing-mode:lr-tb"
     x="13.101648"
     y="52.266006"
     id="text12585-20-6-0"><tspan
       sodipodi:role="line"
       id="tspan12583-2-9-9"
       x="13.101648"
       y="52.266006">0.5</tspan></text>
  <text
     xml:space="preserve"
     style="font-style:normal;font-variant:normal;font-weight:normal;font-stretch:condensed;font-size:8px;line-height:1.25;font-family:'Noto Sans';-inkscape-font-specification:'Noto Sans, Condensed';font-variant-ligatures:normal;font-variant-caps:normal;font-variant-numeric:normal;font-variant-east-asian:normal;letter-spacing:0px;word-spacing:0px;writing-mode:lr-tb"
     x="13.058985"
     y="19.976007"
     id="text12589-3-6-6"><tspan
       sodipodi:role="line"
       id="tspan12587-7-7-7"
       x="13.058985"
       y="19.976007">1.0</tspan></text>
  <text
     xml:space="preserve"
     style="font-style:normal;font-variant:normal;font-weight:normal;font-stretch:condensed;font-size:10.6667px;line-height:1.25;font-family:'Noto Sans';-inkscape-font-specification:'Noto Sans, Condensed';font-variant-ligatures:normal;font-variant-caps:normal;font-variant-numeric:normal;font-variant-east-asian:normal;letter-spacing:0px;word-spacing:0px;writing-mode:lr-tb"
     x="-57.172077"
     y="7.6373572"
     id="text12741-5-2"
     transform="rotate(-90)"><tspan
       sodipodi:role="line"
       id="tspan12739-6-1"
       x="-57.172077"
       y="7.6373572">I/I<tspan
   id="tspan12743-4-4"
   style="font-size:65%;baseline-shift:sub">max</tspan></tspan></text>
</svg>
