<?xml version="1.0" encoding="UTF-8" standalone="no"?>
<svg
   xmlns:dc="http://purl.org/dc/elements/1.1/"
   xmlns:cc="http://creativecommons.org/ns#"
   xmlns:rdf="http://www.w3.org/1999/02/22-rdf-syntax-ns#"
   xmlns:svg="http://www.w3.org/2000/svg"
   xmlns="http://www.w3.org/2000/svg"
   xmlns:sodipodi="http://sodipodi.sourceforge.net/DTD/sodipodi-0.dtd"
   xmlns:inkscape="http://www.inkscape.org/namespaces/inkscape"
   viewBox="0 0 123.30167 135.71494"
   version="1.1"
   id="svg55571"
   sodipodi:docname="tmd0_atp_1.svg"
   inkscape:version="1.0.1 (3bc2e813f5, 2020-09-07, custom)"
   width="123.30167"
   height="135.71494">
  <metadata
     id="metadata55575">
    <rdf:RDF>
      <cc:Work
         rdf:about="">
        <dc:format>image/svg+xml</dc:format>
        <dc:type
           rdf:resource="http://purl.org/dc/dcmitype/StillImage" />
        <dc:title></dc:title>
      </cc:Work>
    </rdf:RDF>
  </metadata>
  <sodipodi:namedview
     pagecolor="#ffffff"
     bordercolor="#666666"
     borderopacity="1"
     objecttolerance="10"
     gridtolerance="10"
     guidetolerance="10"
     inkscape:pageopacity="0"
     inkscape:pageshadow="2"
     inkscape:window-width="1366"
     inkscape:window-height="768"
     id="namedview55573"
     showgrid="false"
     inkscape:zoom="1.1569053"
     inkscape:cx="142.80759"
     inkscape:cy="19.222174"
     inkscape:window-x="0"
     inkscape:window-y="0"
     inkscape:window-maximized="1"
     inkscape:current-layer="svg55571"
     inkscape:document-rotation="0" />
  <defs
     id="defs51166">
    <style
       type="text/css"
       id="style51164"><![CDATA[
    line, polyline, polygon, path, rect, circle {
      fill: none;
      stroke: #000000;
      stroke-linecap: round;
      stroke-linejoin: round;
      stroke-miterlimit: 10.00;
    }
  ]]></style>
    <style
       type="text/css"
       id="style7188"><![CDATA[
    line, polyline, polygon, path, rect, circle {
      fill: none;
      stroke: #000000;
      stroke-linecap: round;
      stroke-linejoin: round;
      stroke-miterlimit: 10.00;
    }
  ]]></style>
    <clipPath
       id="clipPath7485">
      <rect
         x="0"
         y="0"
         width="720"
         height="720"
         id="rect7483" />
    </clipPath>
    <clipPath
       id="clipPath7654">
      <rect
         x="0"
         y="0"
         width="720"
         height="720"
         id="rect7652" />
    </clipPath>
    <clipPath
       id="clipPath7763">
      <rect
         x="0"
         y="0"
         width="720"
         height="720"
         id="rect7761" />
    </clipPath>
    <clipPath
       id="clipPath7916">
      <rect
         x="0"
         y="0"
         width="720"
         height="720"
         id="rect7914" />
    </clipPath>
    <clipPath
       id="clipPath8079">
      <rect
         x="0"
         y="0"
         width="720"
         height="720"
         id="rect8077" />
    </clipPath>
    <clipPath
       id="clipPath8178">
      <rect
         x="0"
         y="0"
         width="720"
         height="720"
         id="rect8176" />
    </clipPath>
    <clipPath
       id="clipPath8275">
      <rect
         x="0"
         y="0"
         width="720"
         height="720"
         id="rect8273" />
    </clipPath>
    <clipPath
       id="clipPath8540">
      <rect
         x="0"
         y="0"
         width="720"
         height="720"
         id="rect8538" />
    </clipPath>
    <clipPath
       id="clipPath8663">
      <rect
         x="0"
         y="0"
         width="720"
         height="720"
         id="rect8661" />
    </clipPath>
    <clipPath
       id="clipPath8762">
      <rect
         x="0"
         y="0"
         width="720"
         height="720"
         id="rect8760" />
    </clipPath>
    <clipPath
       id="clipPath9009">
      <rect
         x="0"
         y="0"
         width="720"
         height="720"
         id="rect9007" />
    </clipPath>
    <clipPath
       id="clipPath9122">
      <rect
         x="0"
         y="0"
         width="720"
         height="720"
         id="rect9120" />
    </clipPath>
    <clipPath
       id="clipPath9337">
      <rect
         x="0"
         y="0"
         width="720"
         height="720"
         id="rect9335" />
    </clipPath>
    <clipPath
       id="clipPath9464">
      <rect
         x="0"
         y="0"
         width="720"
         height="720"
         id="rect9462" />
    </clipPath>
    <clipPath
       id="cpNDQ2LjIzfDU3Ny42NHw2ODguNTF8NTM4Ljc4">
      <rect
         x="446.23001"
         y="538.78003"
         width="131.41"
         height="149.73"
         id="rect9468" />
    </clipPath>
    <clipPath
       id="clipPath9475">
      <rect
         x="0"
         y="0"
         width="720"
         height="720"
         id="rect9473" />
    </clipPath>
    <clipPath
       id="clipPath9574">
      <rect
         x="0"
         y="0"
         width="720"
         height="720"
         id="rect9572" />
    </clipPath>
    <clipPath
       id="clipPath9659">
      <rect
         x="0"
         y="0"
         width="720"
         height="720"
         id="rect9657" />
    </clipPath>
    <clipPath
       id="clipPath9800">
      <rect
         x="0"
         y="0"
         width="720"
         height="720"
         id="rect9798" />
    </clipPath>
    <clipPath
       id="cpNTgzLjExfDcxNC41Mnw2ODguNTF8NTM4Ljc4">
      <rect
         x="583.10999"
         y="538.78003"
         width="131.41"
         height="149.73"
         id="rect9804" />
    </clipPath>
    <clipPath
       id="clipPath9811">
      <rect
         x="0"
         y="0"
         width="720"
         height="720"
         id="rect9809" />
    </clipPath>
    <clipPath
       id="clipPath9828">
      <rect
         x="0"
         y="0"
         width="720"
         height="720"
         id="rect9826" />
    </clipPath>
    <clipPath
       id="clipPath9845">
      <rect
         x="0"
         y="0"
         width="720"
         height="720"
         id="rect9843" />
    </clipPath>
    <clipPath
       id="clipPath9862">
      <rect
         x="0"
         y="0"
         width="720"
         height="720"
         id="rect9860" />
    </clipPath>
    <clipPath
       id="cpNDQ2LjIzfDU3Ny42NHw1MzguNzh8NTIxLjg2">
      <rect
         x="446.23001"
         y="521.85999"
         width="131.41"
         height="16.92"
         id="rect9866" />
    </clipPath>
    <clipPath
       id="clipPath9873">
      <rect
         x="0"
         y="0"
         width="720"
         height="720"
         id="rect9871" />
    </clipPath>
    <clipPath
       id="cpNTgzLjExfDcxNC41Mnw1MzguNzh8NTIxLjg2">
      <rect
         x="583.10999"
         y="521.85999"
         width="131.41"
         height="16.92"
         id="rect9877" />
    </clipPath>
    <clipPath
       id="clipPath9884">
      <rect
         x="0"
         y="0"
         width="720"
         height="720"
         id="rect9882" />
    </clipPath>
    <clipPath
       id="clipPath9901">
      <rect
         x="0"
         y="0"
         width="720"
         height="720"
         id="rect9899" />
    </clipPath>
    <clipPath
       id="clipPath9918">
      <rect
         x="0"
         y="0"
         width="720"
         height="720"
         id="rect9916" />
    </clipPath>
    <clipPath
       id="clipPath9935">
      <rect
         x="0"
         y="0"
         width="720"
         height="720"
         id="rect9933" />
    </clipPath>
    <clipPath
       id="clipPath9952">
      <rect
         x="0"
         y="0"
         width="720"
         height="720"
         id="rect9950" />
    </clipPath>
    <clipPath
       id="clipPath9969">
      <rect
         x="0"
         y="0"
         width="720"
         height="720"
         id="rect9967" />
    </clipPath>
    <clipPath
       id="clipPath9986">
      <rect
         x="0"
         y="0"
         width="720"
         height="720"
         id="rect9984" />
    </clipPath>
    <clipPath
       id="clipPath10003">
      <rect
         x="0"
         y="0"
         width="720"
         height="720"
         id="rect10001" />
    </clipPath>
    <clipPath
       id="clipPath10020">
      <rect
         x="0"
         y="0"
         width="720"
         height="720"
         id="rect10018" />
    </clipPath>
    <clipPath
       id="clipPath10037">
      <rect
         x="0"
         y="0"
         width="720"
         height="720"
         id="rect10035" />
    </clipPath>
    <clipPath
       id="clipPath10054">
      <rect
         x="0"
         y="0"
         width="720"
         height="720"
         id="rect10052" />
    </clipPath>
    <clipPath
       id="clipPath10071">
      <rect
         x="0"
         y="0"
         width="720"
         height="720"
         id="rect10069" />
    </clipPath>
    <clipPath
       id="clipPath10088">
      <rect
         x="0"
         y="0"
         width="720"
         height="720"
         id="rect10086" />
    </clipPath>
    <clipPath
       id="clipPath10105">
      <rect
         x="0"
         y="0"
         width="720"
         height="720"
         id="rect10103" />
    </clipPath>
    <clipPath
       id="clipPath10122">
      <rect
         x="0"
         y="0"
         width="720"
         height="720"
         id="rect10120" />
    </clipPath>
    <clipPath
       id="clipPath10139">
      <rect
         x="0"
         y="0"
         width="720"
         height="720"
         id="rect10137" />
    </clipPath>
  </defs>
  <defs
     id="defs51175" />
  <defs
     id="defs51244">
    <clipPath
       id="cpMC4wMHw3MjAuMDB8NzIwLjAwfDAuMDA=">
      <rect
         x="0"
         y="0"
         width="720"
         height="720"
         id="rect51241" />
    </clipPath>
  </defs>
  <defs
     id="defs51249" />
  <defs
     id="defs51357">
    <clipPath
       id="clipPath51355">
      <rect
         x="0"
         y="0"
         width="720"
         height="720"
         id="rect51353" />
    </clipPath>
  </defs>
  <defs
     id="defs51362" />
  <defs
     id="defs51516">
    <clipPath
       id="clipPath51514">
      <rect
         x="0"
         y="0"
         width="720"
         height="720"
         id="rect51512" />
    </clipPath>
  </defs>
  <defs
     id="defs51521" />
  <defs
     id="defs51605">
    <clipPath
       id="clipPath51603">
      <rect
         x="0"
         y="0"
         width="720"
         height="720"
         id="rect51601" />
    </clipPath>
  </defs>
  <defs
     id="defs51610" />
  <defs
     id="defs51716">
    <clipPath
       id="clipPath51714">
      <rect
         x="0"
         y="0"
         width="720"
         height="720"
         id="rect51712" />
    </clipPath>
  </defs>
  <defs
     id="defs51721" />
  <defs
     id="defs51829">
    <clipPath
       id="clipPath51827">
      <rect
         x="0"
         y="0"
         width="720"
         height="720"
         id="rect51825" />
    </clipPath>
  </defs>
  <defs
     id="defs51834" />
  <defs
     id="defs51922">
    <clipPath
       id="clipPath51920">
      <rect
         x="0"
         y="0"
         width="720"
         height="720"
         id="rect51918" />
    </clipPath>
  </defs>
  <defs
     id="defs51927" />
  <defs
     id="defs52037">
    <clipPath
       id="clipPath52035">
      <rect
         x="0"
         y="0"
         width="720"
         height="720"
         id="rect52033" />
    </clipPath>
  </defs>
  <defs
     id="defs52042" />
  <defs
     id="defs52120">
    <clipPath
       id="clipPath52118">
      <rect
         x="0"
         y="0"
         width="720"
         height="720"
         id="rect52116" />
    </clipPath>
  </defs>
  <defs
     id="defs52125" />
  <defs
     id="defs52211">
    <clipPath
       id="clipPath52209">
      <rect
         x="0"
         y="0"
         width="720"
         height="720"
         id="rect52207" />
    </clipPath>
  </defs>
  <defs
     id="defs52216" />
  <defs
     id="defs52318">
    <clipPath
       id="clipPath52316">
      <rect
         x="0"
         y="0"
         width="720"
         height="720"
         id="rect52314" />
    </clipPath>
  </defs>
  <defs
     id="defs52323" />
  <defs
     id="defs52401">
    <clipPath
       id="clipPath52399">
      <rect
         x="0"
         y="0"
         width="720"
         height="720"
         id="rect52397" />
    </clipPath>
  </defs>
  <defs
     id="defs52406" />
  <defs
     id="defs52500">
    <clipPath
       id="clipPath52498">
      <rect
         x="0"
         y="0"
         width="720"
         height="720"
         id="rect52496" />
    </clipPath>
  </defs>
  <defs
     id="defs52505" />
  <defs
     id="defs52603">
    <clipPath
       id="clipPath52601">
      <rect
         x="0"
         y="0"
         width="720"
         height="720"
         id="rect52599" />
    </clipPath>
  </defs>
  <defs
     id="defs52608" />
  <defs
     id="defs52746">
    <clipPath
       id="clipPath52744">
      <rect
         x="0"
         y="0"
         width="720"
         height="720"
         id="rect52742" />
    </clipPath>
  </defs>
  <defs
     id="defs52751" />
  <defs
     id="defs52867">
    <clipPath
       id="clipPath52865">
      <rect
         x="0"
         y="0"
         width="720"
         height="720"
         id="rect52863" />
    </clipPath>
  </defs>
  <defs
     id="defs52872" />
  <defs
     id="defs52986">
    <clipPath
       id="clipPath52984">
      <rect
         x="0"
         y="0"
         width="720"
         height="720"
         id="rect52982" />
    </clipPath>
  </defs>
  <defs
     id="defs52991" />
  <defs
     id="defs53165">
    <clipPath
       id="clipPath53163">
      <rect
         x="0"
         y="0"
         width="720"
         height="720"
         id="rect53161" />
    </clipPath>
  </defs>
  <defs
     id="defs53170" />
  <defs
     id="defs53248">
    <clipPath
       id="clipPath53246">
      <rect
         x="0"
         y="0"
         width="720"
         height="720"
         id="rect53244" />
    </clipPath>
  </defs>
  <defs
     id="defs53253" />
  <defs
     id="defs53331">
    <clipPath
       id="clipPath53329">
      <rect
         x="0"
         y="0"
         width="720"
         height="720"
         id="rect53327" />
    </clipPath>
  </defs>
  <defs
     id="defs53336" />
  <defs
     id="defs53444">
    <clipPath
       id="clipPath53442">
      <rect
         x="0"
         y="0"
         width="720"
         height="720"
         id="rect53440" />
    </clipPath>
  </defs>
  <defs
     id="defs53449" />
  <defs
     id="defs53543">
    <clipPath
       id="clipPath53541">
      <rect
         x="0"
         y="0"
         width="720"
         height="720"
         id="rect53539" />
    </clipPath>
  </defs>
  <defs
     id="defs53548" />
  <defs
     id="defs53640">
    <clipPath
       id="clipPath53638">
      <rect
         x="0"
         y="0"
         width="720"
         height="720"
         id="rect53636" />
    </clipPath>
  </defs>
  <defs
     id="defs53645" />
  <defs
     id="defs53699">
    <clipPath
       id="clipPath53697">
      <rect
         x="0"
         y="0"
         width="720"
         height="720"
         id="rect53695" />
    </clipPath>
  </defs>
  <defs
     id="defs53704" />
  <defs
     id="defs53782">
    <clipPath
       id="clipPath53780">
      <rect
         x="0"
         y="0"
         width="720"
         height="720"
         id="rect53778" />
    </clipPath>
  </defs>
  <defs
     id="defs53787" />
  <defs
     id="defs53885">
    <clipPath
       id="clipPath53883">
      <rect
         x="0"
         y="0"
         width="720"
         height="720"
         id="rect53881" />
    </clipPath>
  </defs>
  <defs
     id="defs53890" />
  <defs
     id="defs53986">
    <clipPath
       id="clipPath53984">
      <rect
         x="0"
         y="0"
         width="720"
         height="720"
         id="rect53982" />
    </clipPath>
  </defs>
  <defs
     id="defs53991" />
  <defs
     id="defs54099">
    <clipPath
       id="clipPath54097">
      <rect
         x="0"
         y="0"
         width="720"
         height="720"
         id="rect54095" />
    </clipPath>
  </defs>
  <defs
     id="defs54104" />
  <defs
     id="defs54190">
    <clipPath
       id="clipPath54188">
      <rect
         x="0"
         y="0"
         width="720"
         height="720"
         id="rect54186" />
    </clipPath>
  </defs>
  <defs
     id="defs54195">
    <clipPath
       id="cpNDkxLjg2fDYwMC40NXw2ODguNTF8NTk2LjE2">
      <rect
         x="491.85999"
         y="596.15997"
         width="108.59"
         height="92.349998"
         id="rect54192" />
    </clipPath>
  </defs>
  <defs
     id="defs54201">
    <clipPath
       id="clipPath54199">
      <rect
         x="0"
         y="0"
         width="720"
         height="720"
         id="rect54197" />
    </clipPath>
  </defs>
  <defs
     id="defs54206" />
  <defs
     id="defs54304">
    <clipPath
       id="clipPath54302">
      <rect
         x="0"
         y="0"
         width="720"
         height="720"
         id="rect54300" />
    </clipPath>
  </defs>
  <defs
     id="defs54309" />
  <defs
     id="defs54419">
    <clipPath
       id="clipPath54417">
      <rect
         x="0"
         y="0"
         width="720"
         height="720"
         id="rect54415" />
    </clipPath>
  </defs>
  <defs
     id="defs54424" />
  <defs
     id="defs54502">
    <clipPath
       id="clipPath54500">
      <rect
         x="0"
         y="0"
         width="720"
         height="720"
         id="rect54498" />
    </clipPath>
  </defs>
  <defs
     id="defs54507" />
  <defs
     id="defs54647">
    <clipPath
       id="clipPath54645">
      <rect
         x="0"
         y="0"
         width="720"
         height="720"
         id="rect54643" />
    </clipPath>
  </defs>
  <defs
     id="defs54652" />
  <defs
     id="defs54734">
    <clipPath
       id="clipPath54732">
      <rect
         x="0"
         y="0"
         width="720"
         height="720"
         id="rect54730" />
    </clipPath>
  </defs>
  <defs
     id="defs54739">
    <clipPath
       id="cpNjA1LjkzfDcxNC41Mnw2ODguNTF8NTk2LjE2">
      <rect
         x="605.92999"
         y="596.15997"
         width="108.59"
         height="92.349998"
         id="rect54736" />
    </clipPath>
  </defs>
  <defs
     id="defs54745">
    <clipPath
       id="clipPath54743">
      <rect
         x="0"
         y="0"
         width="720"
         height="720"
         id="rect54741" />
    </clipPath>
  </defs>
  <defs
     id="defs54750" />
  <defs
     id="defs54762">
    <clipPath
       id="clipPath54760">
      <rect
         x="0"
         y="0"
         width="720"
         height="720"
         id="rect54758" />
    </clipPath>
  </defs>
  <defs
     id="defs54767" />
  <defs
     id="defs54779">
    <clipPath
       id="clipPath54777">
      <rect
         x="0"
         y="0"
         width="720"
         height="720"
         id="rect54775" />
    </clipPath>
  </defs>
  <defs
     id="defs54784" />
  <defs
     id="defs54796">
    <clipPath
       id="clipPath54794">
      <rect
         x="0"
         y="0"
         width="720"
         height="720"
         id="rect54792" />
    </clipPath>
  </defs>
  <defs
     id="defs54801" />
  <defs
     id="defs54813">
    <clipPath
       id="clipPath54811">
      <rect
         x="0"
         y="0"
         width="720"
         height="720"
         id="rect54809" />
    </clipPath>
  </defs>
  <defs
     id="defs54818">
    <clipPath
       id="cpNDkxLjg2fDYwMC40NXw1OTYuMTZ8NTc5LjI0">
      <rect
         x="491.85999"
         y="579.23999"
         width="108.59"
         height="16.92"
         id="rect54815" />
    </clipPath>
  </defs>
  <defs
     id="defs54824">
    <clipPath
       id="clipPath54822">
      <rect
         x="0"
         y="0"
         width="720"
         height="720"
         id="rect54820" />
    </clipPath>
  </defs>
  <defs
     id="defs54829">
    <clipPath
       id="cpNjA1LjkzfDcxNC41Mnw1OTYuMTZ8NTc5LjI0">
      <rect
         x="605.92999"
         y="579.23999"
         width="108.59"
         height="16.92"
         id="rect54826" />
    </clipPath>
  </defs>
  <defs
     id="defs54835">
    <clipPath
       id="clipPath54833">
      <rect
         x="0"
         y="0"
         width="720"
         height="720"
         id="rect54831" />
    </clipPath>
  </defs>
  <defs
     id="defs54840" />
  <defs
     id="defs54852">
    <clipPath
       id="clipPath54850">
      <rect
         x="0"
         y="0"
         width="720"
         height="720"
         id="rect54848" />
    </clipPath>
  </defs>
  <defs
     id="defs54857" />
  <defs
     id="defs54869">
    <clipPath
       id="clipPath54867">
      <rect
         x="0"
         y="0"
         width="720"
         height="720"
         id="rect54865" />
    </clipPath>
  </defs>
  <defs
     id="defs54874" />
  <defs
     id="defs54886">
    <clipPath
       id="clipPath54884">
      <rect
         x="0"
         y="0"
         width="720"
         height="720"
         id="rect54882" />
    </clipPath>
  </defs>
  <defs
     id="defs54891" />
  <defs
     id="defs54903">
    <clipPath
       id="clipPath54901">
      <rect
         x="0"
         y="0"
         width="720"
         height="720"
         id="rect54899" />
    </clipPath>
  </defs>
  <defs
     id="defs54908" />
  <defs
     id="defs54920">
    <clipPath
       id="clipPath54918">
      <rect
         x="0"
         y="0"
         width="720"
         height="720"
         id="rect54916" />
    </clipPath>
  </defs>
  <defs
     id="defs54925" />
  <defs
     id="defs54937">
    <clipPath
       id="clipPath54935">
      <rect
         x="0"
         y="0"
         width="720"
         height="720"
         id="rect54933" />
    </clipPath>
  </defs>
  <defs
     id="defs54942" />
  <defs
     id="defs54954">
    <clipPath
       id="clipPath54952">
      <rect
         x="0"
         y="0"
         width="720"
         height="720"
         id="rect54950" />
    </clipPath>
  </defs>
  <defs
     id="defs54959" />
  <defs
     id="defs54971">
    <clipPath
       id="clipPath54969">
      <rect
         x="0"
         y="0"
         width="720"
         height="720"
         id="rect54967" />
    </clipPath>
  </defs>
  <defs
     id="defs54976" />
  <defs
     id="defs54988">
    <clipPath
       id="clipPath54986">
      <rect
         x="0"
         y="0"
         width="720"
         height="720"
         id="rect54984" />
    </clipPath>
  </defs>
  <defs
     id="defs54993" />
  <defs
     id="defs55005">
    <clipPath
       id="clipPath55003">
      <rect
         x="0"
         y="0"
         width="720"
         height="720"
         id="rect55001" />
    </clipPath>
  </defs>
  <defs
     id="defs55010" />
  <defs
     id="defs55022">
    <clipPath
       id="clipPath55020">
      <rect
         x="0"
         y="0"
         width="720"
         height="720"
         id="rect55018" />
    </clipPath>
  </defs>
  <defs
     id="defs55027" />
  <defs
     id="defs55039">
    <clipPath
       id="clipPath55037">
      <rect
         x="0"
         y="0"
         width="720"
         height="720"
         id="rect55035" />
    </clipPath>
  </defs>
  <defs
     id="defs55044" />
  <defs
     id="defs55056">
    <clipPath
       id="clipPath55054">
      <rect
         x="0"
         y="0"
         width="720"
         height="720"
         id="rect55052" />
    </clipPath>
  </defs>
  <defs
     id="defs55061" />
  <defs
     id="defs55073">
    <clipPath
       id="clipPath55071">
      <rect
         x="0"
         y="0"
         width="720"
         height="720"
         id="rect55069" />
    </clipPath>
  </defs>
  <defs
     id="defs55078" />
  <defs
     id="defs55090">
    <clipPath
       id="clipPath55088">
      <rect
         x="0"
         y="0"
         width="720"
         height="720"
         id="rect55086" />
    </clipPath>
  </defs>
  <defs
     id="defs55095" />
  <defs
     id="defs55107">
    <clipPath
       id="clipPath55105">
      <rect
         x="0"
         y="0"
         width="720"
         height="720"
         id="rect55103" />
    </clipPath>
  </defs>
  <defs
     id="defs55112" />
  <defs
     id="defs55124">
    <clipPath
       id="clipPath55122">
      <rect
         x="0"
         y="0"
         width="720"
         height="720"
         id="rect55120" />
    </clipPath>
  </defs>
  <defs
     id="defs55129" />
  <defs
     id="defs55141">
    <clipPath
       id="clipPath55139">
      <rect
         x="0"
         y="0"
         width="720"
         height="720"
         id="rect55137" />
    </clipPath>
  </defs>
  <defs
     id="defs55146" />
  <defs
     id="defs55158">
    <clipPath
       id="clipPath55156">
      <rect
         x="0"
         y="0"
         width="720"
         height="720"
         id="rect55154" />
    </clipPath>
  </defs>
  <defs
     id="defs55163" />
  <defs
     id="defs55175">
    <clipPath
       id="clipPath55173">
      <rect
         x="0"
         y="0"
         width="720"
         height="720"
         id="rect55171" />
    </clipPath>
  </defs>
  <defs
     id="defs55180" />
  <defs
     id="defs55192">
    <clipPath
       id="clipPath55190">
      <rect
         x="0"
         y="0"
         width="720"
         height="720"
         id="rect55188" />
    </clipPath>
  </defs>
  <defs
     id="defs55197" />
  <defs
     id="defs55209">
    <clipPath
       id="clipPath55207">
      <rect
         x="0"
         y="0"
         width="720"
         height="720"
         id="rect55205" />
    </clipPath>
  </defs>
  <defs
     id="defs55214" />
  <defs
     id="defs55226">
    <clipPath
       id="clipPath55224">
      <rect
         x="0"
         y="0"
         width="720"
         height="720"
         id="rect55222" />
    </clipPath>
  </defs>
  <defs
     id="defs55231" />
  <defs
     id="defs55243">
    <clipPath
       id="clipPath55241">
      <rect
         x="0"
         y="0"
         width="720"
         height="720"
         id="rect55239" />
    </clipPath>
  </defs>
  <defs
     id="defs55248" />
  <defs
     id="defs55260">
    <clipPath
       id="clipPath55258">
      <rect
         x="0"
         y="0"
         width="720"
         height="720"
         id="rect55256" />
    </clipPath>
  </defs>
  <defs
     id="defs55265" />
  <defs
     id="defs55277">
    <clipPath
       id="clipPath55275">
      <rect
         x="0"
         y="0"
         width="720"
         height="720"
         id="rect55273" />
    </clipPath>
  </defs>
  <defs
     id="defs55282" />
  <defs
     id="defs55294">
    <clipPath
       id="clipPath55292">
      <rect
         x="0"
         y="0"
         width="720"
         height="720"
         id="rect55290" />
    </clipPath>
  </defs>
  <defs
     id="defs55299" />
  <defs
     id="defs55311">
    <clipPath
       id="clipPath55309">
      <rect
         x="0"
         y="0"
         width="720"
         height="720"
         id="rect55307" />
    </clipPath>
  </defs>
  <defs
     id="defs55316" />
  <defs
     id="defs55328">
    <clipPath
       id="clipPath55326">
      <rect
         x="0"
         y="0"
         width="720"
         height="720"
         id="rect55324" />
    </clipPath>
  </defs>
  <defs
     id="defs55333" />
  <defs
     id="defs55345">
    <clipPath
       id="clipPath55343">
      <rect
         x="0"
         y="0"
         width="720"
         height="720"
         id="rect55341" />
    </clipPath>
  </defs>
  <rect
     x="14.711668"
     y="13.284245"
     width="108.59"
     height="92.349998"
     style="fill:#efebe9;stroke:none;stroke-width:1.07"
     clip-path="none"
     id="rect53647" />
  <path
     id="polyline53649"
     clip-path="none"
     style="fill:none;stroke:#ffffff;stroke-width:0.5;stroke-linecap:butt;stroke-linejoin:round;stroke-miterlimit:10;stroke-dasharray:none"
     d="m 14.711674,78.83429 c 36.1966,0 72.3933,0 108.589996,0" />
  <path
     id="polyline53651"
     clip-path="none"
     style="fill:none;stroke:#ffffff;stroke-width:0.5;stroke-linecap:butt;stroke-linejoin:round;stroke-miterlimit:10;stroke-dasharray:none"
     d="m 14.711674,46.54429 c 36.1966,0 72.3933,0 108.589996,0" />
  <path
     id="polyline53653"
     clip-path="none"
     style="fill:none;stroke:#ffffff;stroke-width:0.5;stroke-linecap:butt;stroke-linejoin:round;stroke-miterlimit:10;stroke-dasharray:none"
     d="m 19.641674,105.63429 c 0,-30.78333 0,-61.56667 0,-92.35" />
  <path
     id="polyline53655"
     clip-path="none"
     style="fill:none;stroke:#ffffff;stroke-width:0.5;stroke-linecap:butt;stroke-linejoin:round;stroke-miterlimit:10;stroke-dasharray:none"
     d="m 52.281674,105.63429 c 0,-30.78333 0,-61.56667 0,-92.35" />
  <path
     id="polyline53657"
     clip-path="none"
     style="fill:none;stroke:#ffffff;stroke-width:0.5;stroke-linecap:butt;stroke-linejoin:round;stroke-miterlimit:10;stroke-dasharray:none"
     d="m 84.911674,105.63429 c 0,-30.78333 0,-61.56667 0,-92.35" />
  <path
     id="polyline53659"
     clip-path="none"
     style="fill:none;stroke:#ffffff;stroke-width:0.5;stroke-linecap:butt;stroke-linejoin:round;stroke-miterlimit:10;stroke-dasharray:none"
     d="m 117.55167,105.63429 c 0,-30.78333 0,-61.56667 0,-92.35" />
  <path
     id="polyline53661"
     clip-path="none"
     style="fill:none;stroke:#ffffff;stroke-width:1;stroke-linecap:butt;stroke-linejoin:round;stroke-miterlimit:10;stroke-dasharray:none"
     d="m 14.711674,94.97429 c 36.1966,0 72.3933,0 108.589996,0" />
  <path
     id="polyline53663"
     clip-path="none"
     style="fill:none;stroke:#ffffff;stroke-width:1;stroke-linecap:butt;stroke-linejoin:round;stroke-miterlimit:10;stroke-dasharray:none"
     d="m 14.711674,62.68429 c 36.1966,0 72.3933,0 108.589996,0" />
  <path
     id="polyline53665"
     clip-path="none"
     style="fill:none;stroke:#ffffff;stroke-width:1;stroke-linecap:butt;stroke-linejoin:round;stroke-miterlimit:10;stroke-dasharray:none"
     d="m 14.711674,30.39429 c 36.1966,0 72.3933,0 108.589996,0" />
  <path
     id="polyline53667"
     clip-path="none"
     style="fill:none;stroke:#ffffff;stroke-width:1;stroke-linecap:butt;stroke-linejoin:round;stroke-miterlimit:10;stroke-dasharray:none"
     d="m 35.961674,105.63429 c 0,-30.78333 0,-61.56667 0,-92.35" />
  <path
     id="polyline53669"
     clip-path="none"
     style="fill:none;stroke:#ffffff;stroke-width:1;stroke-linecap:butt;stroke-linejoin:round;stroke-miterlimit:10;stroke-dasharray:none"
     d="m 68.591674,105.63429 c 0,-30.78333 0,-61.56667 0,-92.35" />
  <path
     id="polyline53671"
     clip-path="none"
     style="fill:none;stroke:#ffffff;stroke-width:1;stroke-linecap:butt;stroke-linejoin:round;stroke-miterlimit:10;stroke-dasharray:none"
     d="m 101.23167,105.63429 c 0,-30.78333 0,-61.56667 0,-92.35" />
  <polygon
     points="545.75,499.46 547.7,499.76 549.66,500.18 551.62,500.74 553.58,501.45 555.54,502.38 557.49,503.55 559.45,505.06 561.41,506.93 563.37,509.25 565.33,512.05 567.28,515.21 569.24,518.87 571.2,522.95 573.16,527.02 575.12,531.42 577.07,535.77 579.03,539.87 580.99,543.6 582.95,546.93 584.91,549.76 586.87,552.18 588.82,554.18 590.78,555.67 592.74,556.85 594.7,557.63 594.7,561.43 592.74,561.05 590.78,560.59 588.82,560.02 586.87,559.33 584.91,558.48 582.95,557.46 580.99,556.22 579.03,554.68 577.07,552.64 575.12,550.24 573.16,547.31 571.2,544.07 569.24,540.42 567.28,536.32 565.33,532.15 563.37,527.81 561.41,523.53 559.45,519.42 557.49,515.74 555.54,512.54 553.58,509.81 551.62,507.44 549.66,505.51 547.7,503.97 545.75,502.76 543.79,501.81 541.83,501.08 539.87,500.49 537.91,500.04 535.96,499.69 534,499.42 532.04,499.21 530.08,499.05 528.12,498.93 526.16,498.84 524.21,498.76 522.25,498.71 520.29,498.66 518.33,498.63 516.37,498.6 514.42,498.58 512.46,498.57 510.5,498.56 508.54,498.55 506.58,498.54 504.63,498.54 502.67,498.53 500.71,498.53 498.75,498.53 496.79,498.52 498.75,498.52 500.71,498.52 502.67,498.52 504.63,498.52 506.58,498.52 508.54,498.52 510.5,498.52 512.46,498.52 514.42,498.53 516.37,498.53 518.33,498.53 520.29,498.54 522.25,498.54 524.21,498.55 526.16,498.57 528.12,498.58 530.08,498.61 532.04,498.64 534,498.68 535.96,498.73 537.91,498.81 539.87,498.91 541.83,499.04 543.79,499.22 "
     style="fill:#99d83d;fill-opacity:0.5;stroke:none;stroke-width:0"
     clip-path="none"
     id="polygon54132"
     transform="translate(-477.14843,-468.12571)" />
  <polyline
     points="496.79,498.52 498.75,498.52 500.71,498.52 502.67,498.52 504.63,498.52 506.58,498.52 508.54,498.52 510.50,498.52 512.46,498.52 514.42,498.53 516.37,498.53 518.33,498.53 520.29,498.54 522.25,498.54 524.21,498.55 526.16,498.57 528.12,498.58 530.08,498.61 532.04,498.64 534.00,498.68 535.96,498.73 537.91,498.81 539.87,498.91 541.83,499.04 543.79,499.22 545.75,499.46 547.70,499.76 549.66,500.18 551.62,500.74 553.58,501.45 555.54,502.38 557.49,503.55 559.45,505.06 561.41,506.93 563.37,509.25 565.33,512.05 567.28,515.21 569.24,518.87 571.20,522.95 573.16,527.02 575.12,531.42 577.07,535.77 579.03,539.87 580.99,543.60 582.95,546.93 584.91,549.76 586.87,552.18 588.82,554.18 590.78,555.67 592.74,556.85 594.70,557.63 "
     style="stroke:#99d83d;stroke-width:1.07"
     clip-path="none"
     id="polyline54134"
     transform="translate(-477.14843,-468.12571)" />
  <polygon
     points="433.63,613.29 435.59,613.31 437.55,613.32 439.51,613.34 441.46,613.38 443.42,613.43 445.38,613.5 447.34,613.6 449.3,613.75 451.26,613.95 453.21,614.22 455.17,614.57 457.13,615.08 459.09,615.69 461.05,616.48 463,617.46 464.96,618.7 466.92,620.39 468.88,622.1 470.84,624.36 472.79,626.73 474.75,629.12 476.71,631.58 478.67,634.04 480.63,636.62 480.63,652.86 478.67,652.09 476.71,651.52 474.75,650.89 472.79,650.28 470.84,649.59 468.88,649 466.92,648.36 464.96,647.91 463,647.37 461.05,646.47 459.09,645.72 457.13,644.6 455.17,643.28 453.21,641.77 451.26,639.95 449.3,637.87 447.34,635.31 445.38,632.68 443.42,629.89 441.46,627.42 439.51,625.07 437.55,622.87 435.59,620.97 433.63,619.5 431.67,618.35 429.72,617.19 427.76,616.39 425.8,615.73 423.84,615.2 421.88,614.73 419.93,614.42 417.97,614.18 416.01,613.98 414.05,613.82 412.09,613.7 410.14,613.6 408.18,613.53 406.22,613.47 404.26,613.42 402.3,613.39 400.35,613.37 398.39,613.35 396.43,613.33 394.47,613.32 392.51,613.31 390.55,613.3 388.6,613.29 386.64,613.29 384.68,613.28 382.72,613.28 382.72,613.27 384.68,613.27 386.64,613.27 388.6,613.27 390.55,613.27 392.51,613.27 394.47,613.27 396.43,613.27 398.39,613.27 400.35,613.27 402.3,613.27 404.26,613.27 406.22,613.27 408.18,613.27 410.14,613.27 412.09,613.27 414.05,613.27 416.01,613.27 417.97,613.27 419.93,613.27 421.88,613.27 423.84,613.27 425.8,613.28 427.76,613.28 429.72,613.28 431.67,613.29 "
     style="fill:#fde725;fill-opacity:0.5;stroke:none;stroke-width:0"
     clip-path="none"
     id="polygon53673"
     transform="translate(-363.07833,-582.87571)" />
  <polyline
     points="594.70,561.43 592.74,561.05 590.78,560.59 588.82,560.02 586.87,559.33 584.91,558.48 582.95,557.46 580.99,556.22 579.03,554.68 577.07,552.64 575.12,550.24 573.16,547.31 571.20,544.07 569.24,540.42 567.28,536.32 565.33,532.15 563.37,527.81 561.41,523.53 559.45,519.42 557.49,515.74 555.54,512.54 553.58,509.81 551.62,507.44 549.66,505.51 547.70,503.97 545.75,502.76 543.79,501.81 541.83,501.08 539.87,500.49 537.91,500.04 535.96,499.69 534.00,499.42 532.04,499.21 530.08,499.05 528.12,498.93 526.16,498.84 524.21,498.76 522.25,498.71 520.29,498.66 518.33,498.63 516.37,498.60 514.42,498.58 512.46,498.57 510.50,498.56 508.54,498.55 506.58,498.54 504.63,498.54 502.67,498.53 500.71,498.53 498.75,498.53 496.79,498.52 "
     style="stroke:#99d83d;stroke-width:1.07"
     clip-path="none"
     id="polyline54136"
     transform="translate(-477.14843,-468.12571)" />
  <polyline
     points="382.72,613.27 384.68,613.27 386.64,613.27 388.60,613.27 390.55,613.27 392.51,613.27 394.47,613.27 396.43,613.27 398.39,613.27 400.35,613.27 402.30,613.27 404.26,613.27 406.22,613.27 408.18,613.27 410.14,613.27 412.09,613.27 414.05,613.27 416.01,613.27 417.97,613.27 419.93,613.27 421.88,613.27 423.84,613.27 425.80,613.28 427.76,613.28 429.72,613.28 431.67,613.29 433.63,613.29 435.59,613.31 437.55,613.32 439.51,613.34 441.46,613.38 443.42,613.43 445.38,613.50 447.34,613.60 449.30,613.75 451.26,613.95 453.21,614.22 455.17,614.57 457.13,615.08 459.09,615.69 461.05,616.48 463.00,617.46 464.96,618.70 466.92,620.39 468.88,622.10 470.84,624.36 472.79,626.73 474.75,629.12 476.71,631.58 478.67,634.04 480.63,636.62 "
     style="stroke:#fde725;stroke-width:1.07"
     clip-path="none"
     id="polyline53675"
     transform="translate(-363.07833,-582.87571)" />
  <polyline
     points="480.63,652.86 478.67,652.09 476.71,651.52 474.75,650.89 472.79,650.28 470.84,649.59 468.88,649.00 466.92,648.36 464.96,647.91 463.00,647.37 461.05,646.47 459.09,645.72 457.13,644.60 455.17,643.28 453.21,641.77 451.26,639.95 449.30,637.87 447.34,635.31 445.38,632.68 443.42,629.89 441.46,627.42 439.51,625.07 437.55,622.87 435.59,620.97 433.63,619.50 431.67,618.35 429.72,617.19 427.76,616.39 425.80,615.73 423.84,615.20 421.88,614.73 419.93,614.42 417.97,614.18 416.01,613.98 414.05,613.82 412.09,613.70 410.14,613.60 408.18,613.53 406.22,613.47 404.26,613.42 402.30,613.39 400.35,613.37 398.39,613.35 396.43,613.33 394.47,613.32 392.51,613.31 390.55,613.30 388.60,613.29 386.64,613.29 384.68,613.28 382.72,613.28 "
     style="stroke:#fde725;stroke-width:1.07"
     clip-path="none"
     id="polyline53677"
     transform="translate(-363.07833,-582.87571)" />
  <circle
     cx="117.55127"
     cy="61.944279"
     r="2.7279694"
     style="fill:#fde725;stroke-width:0.544061"
     clip-path="none"
     id="circle53679" />
  <circle
     cx="101.23145"
     cy="44.574284"
     r="2.7279694"
     style="fill:#fde725;stroke-width:0.544061"
     clip-path="none"
     id="circle53681" />
  <circle
     cx="84.911377"
     cy="32.594242"
     r="2.7279694"
     style="fill:#fde725;stroke-width:0.544061"
     clip-path="none"
     id="circle53683" />
  <circle
     cx="68.591309"
     cy="31.934269"
     r="2.7279694"
     style="fill:#fde725;stroke-width:0.544061"
     clip-path="none"
     id="circle53685" />
  <circle
     cx="116.73145"
     cy="60.364262"
     r="2.7279694"
     style="fill:#fde725;stroke-width:0.544061"
     clip-path="none"
     id="circle53687" />
  <circle
     cx="100.41138"
     cy="41.444279"
     r="2.7279694"
     style="fill:#fde725;stroke-width:0.544061"
     clip-path="none"
     id="circle53689" />
  <circle
     cx="84.101318"
     cy="30.684269"
     r="2.7279694"
     style="fill:#fde725;stroke-width:0.544061"
     clip-path="none"
     id="circle53691" />
  <circle
     cx="67.78125"
     cy="31.154301"
     r="2.7279694"
     style="fill:#fde725;stroke-width:0.544061"
     clip-path="none"
     id="circle53693" />
  <text
     xml:space="preserve"
     style="font-stretch:condensed;font-size:10.6667px;line-height:1.25;font-family:'Noto Sans';-inkscape-font-specification:'Noto Sans, Condensed';letter-spacing:0px;word-spacing:0px;writing-mode:lr-tb"
     x="32.409424"
     y="7.7226911"
     id="text57148-7-6"><tspan
       sodipodi:role="line"
       id="tspan57146-5-0"
       x="32.409424"
       y="7.7226911">WT-GFP+TMD0-L0</tspan></text>
  <text
     xml:space="preserve"
     style="font-style:normal;font-variant:normal;font-weight:normal;font-stretch:condensed;font-size:13.3333px;line-height:1.25;font-family:'Noto Sans';-inkscape-font-specification:'Noto Sans, Condensed';font-variant-ligatures:normal;font-variant-caps:normal;font-variant-numeric:normal;font-variant-east-asian:normal;letter-spacing:0px;word-spacing:0px;writing-mode:lr-tb"
     x="44.793457"
     y="133.5816"
     id="text12737-7-0"><tspan
       sodipodi:role="line"
       id="tspan12735-8-4"
       x="44.793457"
       y="133.5816">[ATP] (M)</tspan></text>
  <g
     id="g66482-0-7"
     transform="translate(125.7281,95.39785)">
    <text
       xml:space="preserve"
       style="font-stretch:condensed;font-size:10.6667px;line-height:1.25;font-family:'Noto Sans';-inkscape-font-specification:'Noto Sans, Condensed';letter-spacing:0px;word-spacing:0px;writing-mode:lr-tb"
       x="-101.22198"
       y="22.995329"
       id="text12593-0-6-8"><tspan
         sodipodi:role="line"
         id="tspan12591-25-2-7"
         x="-101.22198"
         y="22.995329">10<tspan
   style="font-size:65%;baseline-shift:super"
   id="tspan12595-3-6-6">-7</tspan></tspan></text>
    <text
       xml:space="preserve"
       style="font-stretch:condensed;font-size:10.6667px;line-height:1.25;font-family:'Noto Sans';-inkscape-font-specification:'Noto Sans, Condensed';letter-spacing:0px;word-spacing:0px;writing-mode:lr-tb"
       x="-68.56424"
       y="22.995329"
       id="text12593-2-8-5-8"><tspan
         sodipodi:role="line"
         id="tspan12591-7-5-6-0"
         x="-68.56424"
         y="22.995329">10<tspan
   style="font-size:65%;baseline-shift:super"
   id="tspan12595-0-0-6-8">-5</tspan></tspan></text>
    <text
       xml:space="preserve"
       style="font-stretch:condensed;font-size:10.6667px;line-height:1.25;font-family:'Noto Sans';-inkscape-font-specification:'Noto Sans, Condensed';letter-spacing:0px;word-spacing:0px;writing-mode:lr-tb"
       x="-35.913841"
       y="23.064665"
       id="text12593-9-5-3-6"><tspan
         sodipodi:role="line"
         id="tspan12591-3-6-4-1"
         x="-35.913841"
         y="23.064665">10<tspan
   style="font-size:65%;baseline-shift:super"
   id="tspan12595-6-67-1-4">-3</tspan></tspan></text>
  </g>
  <g
     id="g66900"
     transform="translate(131.88375,705.63516)">
    <text
       xml:space="preserve"
       style="font-stretch:condensed;font-size:10.6667px;line-height:1.25;font-family:'Noto Sans';-inkscape-font-specification:'Noto Sans, Condensed';letter-spacing:0px;word-spacing:0px;writing-mode:lr-tb"
       x="-132.34242"
       y="-604.8446"
       id="text12581-7-4-9-4"><tspan
         sodipodi:role="line"
         id="tspan12579-9-6-8-1"
         x="-132.34242"
         y="-604.8446">0.0</tspan></text>
    <text
       xml:space="preserve"
       style="font-stretch:condensed;font-size:10.6667px;line-height:1.25;font-family:'Noto Sans';-inkscape-font-specification:'Noto Sans, Condensed';letter-spacing:0px;word-spacing:0px;writing-mode:lr-tb"
       x="-132.29976"
       y="-637.13464"
       id="text12585-20-6-0-9"><tspan
         sodipodi:role="line"
         id="tspan12583-2-9-9-6"
         x="-132.29976"
         y="-637.13464">0.5</tspan></text>
    <text
       xml:space="preserve"
       style="font-stretch:condensed;font-size:10.6667px;line-height:1.25;font-family:'Noto Sans';-inkscape-font-specification:'Noto Sans, Condensed';letter-spacing:0px;word-spacing:0px;writing-mode:lr-tb"
       x="-132.34242"
       y="-669.42462"
       id="text12589-3-6-6-8"><tspan
         sodipodi:role="line"
         id="tspan12587-7-7-7-0"
         x="-132.34242"
         y="-669.42462">1.0</tspan></text>
  </g>
</svg>
