<?xml version="1.0" encoding="UTF-8" standalone="no"?>
<svg
   xmlns:dc="http://purl.org/dc/elements/1.1/"
   xmlns:cc="http://creativecommons.org/ns#"
   xmlns:rdf="http://www.w3.org/1999/02/22-rdf-syntax-ns#"
   xmlns:svg="http://www.w3.org/2000/svg"
   xmlns="http://www.w3.org/2000/svg"
   xmlns:sodipodi="http://sodipodi.sourceforge.net/DTD/sodipodi-0.dtd"
   xmlns:inkscape="http://www.inkscape.org/namespaces/inkscape"
   viewBox="0 0 217.13228 211.58089"
   version="1.1"
   id="svg5842"
   sodipodi:docname="tmd0s_surface_expression_3.svg"
   width="217.13228"
   height="211.58089"
   inkscape:version="1.0.1 (3bc2e813f5, 2020-09-07, custom)">
  <g
     id="g6945"
     transform="translate(-278.00772,-262.25511)">
    <rect
       x="454.09"
       y="230.78"
       width="14.45"
       height="14.45"
       style="fill:#0d47a1;stroke:none;stroke-width:2.13;stroke-linecap:square;stroke-linejoin:miter"
       clip-path="url(#cpMC4wMHw1MDQuMDB8NTA0LjAwfDAuMDA=)"
       id="rect5820"
       transform="translate(5.2070868,104.00266)" />
    <rect
       x="454.09"
       y="248.06"
       width="14.45"
       height="14.45"
       style="fill:#2196f3;stroke:none;stroke-width:2.13;stroke-linecap:square;stroke-linejoin:miter"
       clip-path="url(#cpMC4wMHw1MDQuMDB8NTA0LjAwfDAuMDA=)"
       id="rect5824"
       transform="translate(5.2070868,104.00266)" />
    <text
       xml:space="preserve"
       style="font-stretch:condensed;font-size:10.6667px;line-height:1.25;font-family:'Noto Sans';-inkscape-font-specification:'Noto Sans, Condensed';letter-spacing:0px;word-spacing:0px;writing-mode:lr-tb"
       x="458.91309"
       y="329.13522"
       id="text6888"><tspan
         sodipodi:role="line"
         id="tspan6886"
         x="458.91309"
         y="329.13522">Interval</tspan></text>
    <text
       xml:space="preserve"
       style="font-stretch:condensed;font-size:10.6667px;line-height:1.25;font-family:'Noto Sans';-inkscape-font-specification:'Noto Sans, Condensed';letter-spacing:0px;word-spacing:0px;writing-mode:lr-tb"
       x="477.74265"
       y="345.81567"
       id="text6892"><tspan
         sodipodi:role="line"
         id="tspan6890"
         x="477.74265"
         y="345.81567">50%</tspan></text>
    <text
       xml:space="preserve"
       style="font-stretch:condensed;font-size:10.6667px;line-height:1.25;font-family:'Noto Sans';-inkscape-font-specification:'Noto Sans, Condensed';letter-spacing:0px;word-spacing:0px;writing-mode:lr-tb"
       x="477.90265"
       y="363.09567"
       id="text6896"><tspan
         sodipodi:role="line"
         id="tspan6894"
         x="477.90265"
         y="363.09567">80%</tspan></text>
    <text
       xml:space="preserve"
       style="font-stretch:condensed;font-size:10.6667px;line-height:1.25;font-family:'Noto Sans';-inkscape-font-specification:'Noto Sans, Condensed';letter-spacing:0px;word-spacing:0px;writing-mode:lr-tb"
       x="477.87064"
       y="380.38065"
       id="text6900"><tspan
         sodipodi:role="line"
         id="tspan6898"
         x="477.87064"
         y="380.38065">95%</tspan></text>
    <rect
       x="454.09"
       y="248.06"
       width="14.45"
       height="14.45"
       style="fill:#bbdefb;stroke:none;stroke-width:2.13;stroke-linecap:square;stroke-linejoin:miter;stroke-miterlimit:10"
       clip-path="url(#cpMC4wMHw1MDQuMDB8NTA0LjAwfDAuMDA=-9)"
       id="rect5824-7"
       transform="translate(5.2021043,121.28765)" />
  </g>
  <metadata
     id="metadata5846">
    <rdf:RDF>
      <cc:Work
         rdf:about="">
        <dc:format>image/svg+xml</dc:format>
        <dc:type
           rdf:resource="http://purl.org/dc/dcmitype/StillImage" />
        <dc:title></dc:title>
      </cc:Work>
    </rdf:RDF>
  </metadata>
  <sodipodi:namedview
     pagecolor="#ffffff"
     bordercolor="#666666"
     borderopacity="1"
     objecttolerance="10"
     gridtolerance="10"
     guidetolerance="10"
     inkscape:pageopacity="0"
     inkscape:pageshadow="2"
     inkscape:window-width="1366"
     inkscape:window-height="768"
     id="namedview5844"
     showgrid="false"
     inkscape:zoom="1.1686508"
     inkscape:cx="20.398394"
     inkscape:cy="30.881044"
     inkscape:window-x="0"
     inkscape:window-y="0"
     inkscape:window-maximized="0"
     inkscape:current-layer="svg5842" />
  <defs
     id="defs5525">
    <style
       type="text/css"
       id="style5523"><![CDATA[
    line, polyline, polygon, path, rect, circle {
      fill: none;
      stroke: #000000;
      stroke-linecap: round;
      stroke-linejoin: round;
      stroke-miterlimit: 10.00;
    }
  ]]></style>
    <clipPath
       id="cpMC4wMHw1MDQuMDB8NTA0LjAwfDAuMDA=-9">
      <rect
         x="0"
         y="0"
         width="504"
         height="504"
         id="rect5606-7" />
    </clipPath>
    <clipPath
       id="cpMC4wMHw1MDQuMDB8NTA0LjAwfDAuMDA=-6">
      <rect
         x="0"
         y="0"
         width="504"
         height="504"
         id="rect5606-8" />
    </clipPath>
    <clipPath
       id="clipPath6959">
      <rect
         x="0"
         y="0"
         width="504"
         height="504"
         id="rect6957" />
    </clipPath>
    <clipPath
       id="cpMC4wMHw1MDQuMDB8NTA0LjAwfDAuMDA=-9-1">
      <rect
         x="0"
         y="0"
         width="504"
         height="504"
         id="rect5606-7-2" />
    </clipPath>
  </defs>
  <defs
     id="defs5534">
    <clipPath
       id="cpMTAzLjA3fDI2Ni45MXw0NzIuNTF8MjIuNDA=">
      <rect
         x="103.07"
         y="22.4"
         width="163.84"
         height="450.10999"
         id="rect5531" />
    </clipPath>
  </defs>
  <defs
     id="defs5609">
    <clipPath
       id="cpMC4wMHw1MDQuMDB8NTA0LjAwfDAuMDA=">
      <rect
         x="0"
         y="0"
         width="504"
         height="504"
         id="rect5606" />
    </clipPath>
  </defs>
  <defs
     id="defs5614">
    <clipPath
       id="cpMjcyLjM5fDQzNi4yM3w0NzIuNTF8MjIuNDA=">
      <rect
         x="272.39001"
         y="22.4"
         width="163.84"
         height="450.10999"
         id="rect5611" />
    </clipPath>
  </defs>
  <rect
     x="272.39001"
     y="22.4"
     width="163.84"
     height="450.10999"
     style="fill:#efebe9;stroke:none;stroke-width:1.07"
     clip-path="url(#cpMjcyLjM5fDQzNi4yM3w0NzIuNTF8MjIuNDA=)"
     id="rect5616"
     transform="matrix(0.8117676,0,0,0.40481633,-180.22953,-9.06782)" />
  <path
     id="polyline5628"
     clip-path="none"
     style="fill:none;stroke:#ffffff;stroke-width:1;stroke-linecap:butt;stroke-linejoin:round;stroke-miterlimit:10;stroke-dasharray:none"
     d="M 40.887864,175.245 H 173.88786" />
  <path
     id="polyline5630"
     clip-path="none"
     style="fill:none;stroke:#ffffff;stroke-width:1;stroke-linecap:butt;stroke-linejoin:round;stroke-miterlimit:10;stroke-dasharray:none"
     d="M 40.887864,116.80775 H 173.88786" />
  <path
     id="polyline5632"
     clip-path="none"
     style="fill:none;stroke:#ffffff;stroke-width:1;stroke-linecap:butt;stroke-linejoin:round;stroke-miterlimit:10;stroke-dasharray:none"
     d="M 40.887864,58.3705 H 173.88786" />
  <path
     id="polyline5636"
     clip-path="none"
     style="fill:none;stroke:#ffffff;stroke-width:1.00243;stroke-linecap:butt;stroke-linejoin:round;stroke-miterlimit:10;stroke-dasharray:none"
     d="m 53.200214,182.212 c 0,-60.73733 0,-121.47466 0,-182.212" />
  <path
     id="polyline5638"
     clip-path="none"
     style="fill:none;stroke:#ffffff;stroke-width:1.00243;stroke-linecap:butt;stroke-linejoin:round;stroke-miterlimit:10;stroke-dasharray:none"
     d="m 83.719934,182.212 c 0,-60.73733 0,-121.47466 0,-182.212" />
  <path
     id="polyline5640"
     clip-path="none"
     style="fill:none;stroke:#ffffff;stroke-width:1.00243;stroke-linecap:butt;stroke-linejoin:round;stroke-miterlimit:10;stroke-dasharray:none"
     d="m 117.15963,182.212 c 0,-60.73733 0,-121.47466 0,-182.212" />
  <path
     id="polyline5642"
     clip-path="none"
     style="fill:none;stroke:#ffffff;stroke-width:1.00243;stroke-linecap:butt;stroke-linejoin:round;stroke-miterlimit:10;stroke-dasharray:none"
     d="m 147.66934,182.212 c 0,-60.73733 0,-121.47466 0,-182.212" />
  <polyline
     points="309.83,147.09 310.02,147.07 310.21,147.05 310.40,147.03 310.59,147.02 310.78,147.00 310.97,146.99 311.16,146.98 311.34,146.97 311.53,146.96 311.72,146.96 311.91,146.95 312.10,146.94 312.29,146.93 312.48,146.93 312.67,146.92 312.86,146.91 313.04,146.90 313.23,146.88 313.42,146.87 313.61,146.85 313.80,146.84 313.99,146.82 314.18,146.80 314.37,146.78 314.56,146.75 314.74,146.73 314.93,146.70 315.12,146.68 315.31,146.65 315.50,146.62 315.69,146.59 315.88,146.55 316.07,146.51 316.26,146.47 316.44,146.42 316.63,146.37 316.82,146.31 317.01,146.25 317.20,146.19 317.39,146.12 317.58,146.04 317.77,145.96 317.96,145.88 318.14,145.79 318.33,145.70 318.52,145.61 318.71,145.51 318.90,145.42 319.09,145.32 319.28,145.22 319.47,145.11 319.66,145.01 319.84,144.91 320.03,144.80 320.22,144.69 320.41,144.58 320.60,144.47 320.79,144.35 320.98,144.24 321.17,144.12 321.36,144.00 321.54,143.88 321.73,143.76 321.92,143.64 322.11,143.52 322.30,143.40 322.49,143.28 322.68,143.16 322.87,143.03 323.05,142.91 323.24,142.78 323.43,142.64 323.62,142.50 323.81,142.35 324.00,142.18 324.19,142.00 324.38,141.81 324.57,141.60 324.75,141.37 324.94,141.12 325.13,140.85 325.32,140.55 325.51,140.23 325.70,139.90 325.89,139.54 326.08,139.17 326.27,138.78 326.45,138.37 326.64,137.96 326.83,137.54 327.02,137.13 327.21,136.71 327.40,136.30 327.59,135.90 327.78,135.51 327.97,135.13 328.15,134.77 328.34,134.43 328.53,134.11 328.72,133.80 328.91,133.51 329.10,133.23 329.29,132.97 329.38,132.85 329.38,147.43 329.29,147.43 329.10,147.43 328.91,147.43 328.72,147.43 328.53,147.43 328.34,147.43 328.15,147.43 327.97,147.43 327.78,147.43 327.59,147.43 327.40,147.43 327.21,147.43 327.02,147.43 326.83,147.43 326.64,147.43 326.45,147.43 326.27,147.43 326.08,147.43 325.89,147.43 325.70,147.43 325.51,147.43 325.32,147.43 325.13,147.43 324.94,147.43 324.75,147.43 324.57,147.43 324.38,147.43 324.19,147.43 324.00,147.43 323.81,147.43 323.62,147.43 323.43,147.43 323.24,147.43 323.05,147.43 322.87,147.43 322.68,147.43 322.49,147.43 322.30,147.43 322.11,147.43 321.92,147.43 321.73,147.43 321.54,147.43 321.36,147.43 321.17,147.43 320.98,147.43 320.79,147.43 320.60,147.43 320.41,147.43 320.22,147.43 320.03,147.43 319.84,147.43 319.66,147.43 319.47,147.43 319.28,147.43 319.09,147.43 318.90,147.43 318.71,147.43 318.52,147.43 318.33,147.43 318.14,147.43 317.96,147.43 317.77,147.43 317.58,147.43 317.39,147.43 317.20,147.43 317.01,147.43 316.82,147.43 316.63,147.43 316.44,147.43 316.26,147.43 316.07,147.43 315.88,147.43 315.69,147.43 315.50,147.43 315.31,147.43 315.12,147.43 314.93,147.43 314.74,147.43 314.56,147.43 314.37,147.43 314.18,147.43 313.99,147.43 313.80,147.43 313.61,147.43 313.42,147.43 313.23,147.43 313.04,147.43 312.86,147.43 312.67,147.43 312.48,147.43 312.29,147.43 312.10,147.43 311.91,147.43 311.72,147.43 311.53,147.43 311.34,147.43 311.16,147.43 310.97,147.43 310.78,147.43 310.59,147.43 310.40,147.43 310.21,147.43 310.02,147.43 309.83,147.43 309.83,147.09 "
     style="fill:#ffffff;stroke:none;stroke-width:2.13"
     clip-path="url(#cpMjcyLjM5fDQzNi4yM3w0NzIuNTF8MjIuNDA=)"
     id="polyline5644"
     transform="matrix(1,0,0,0.4671189,-265.94944,-10.46346)" />
  <polygon
     points="330.04,131.99 330.23,131.75 330.42,131.49 330.61,131.22 330.8,130.93 330.99,130.63 331.18,130.3 331.37,129.94 331.55,129.55 331.74,129.13 331.93,128.68 332.12,128.19 332.31,127.67 332.5,127.12 332.69,126.53 332.88,125.91 333.07,125.25 333.25,124.57 333.44,123.85 333.63,123.11 333.82,122.34 334.01,121.55 334.2,120.74 334.39,119.91 334.58,119.06 334.77,118.18 334.95,117.29 335.14,116.39 335.33,115.47 335.52,114.53 335.71,113.58 335.9,112.62 336.09,111.66 336.28,110.68 336.46,109.69 336.65,108.71 336.84,107.72 337.03,106.74 337.22,105.75 337.41,104.78 337.6,103.82 337.79,102.87 337.98,101.93 338.16,101.01 338.26,100.56 338.26,147.43 338.16,147.43 337.98,147.43 337.79,147.43 337.6,147.43 337.41,147.43 337.22,147.43 337.03,147.43 336.84,147.43 336.65,147.43 336.46,147.43 336.28,147.43 336.09,147.43 335.9,147.43 335.71,147.43 335.52,147.43 335.33,147.43 335.14,147.43 334.95,147.43 334.77,147.43 334.58,147.43 334.39,147.43 334.2,147.43 334.01,147.43 333.82,147.43 333.63,147.43 333.44,147.43 333.25,147.43 333.07,147.43 332.88,147.43 332.69,147.43 332.5,147.43 332.31,147.43 332.12,147.43 331.93,147.43 331.74,147.43 331.55,147.43 331.37,147.43 331.18,147.43 330.99,147.43 330.8,147.43 330.61,147.43 330.42,147.43 330.23,147.43 330.04,147.43 329.85,147.43 329.67,147.43 329.48,147.43 329.38,147.43 329.38,132.85 329.48,132.72 329.67,132.48 329.85,132.23 "
     style="fill:#bbdefb;stroke:none;stroke-width:2.13"
     clip-path="url(#cpMjcyLjM5fDQzNi4yM3w0NzIuNTF8MjIuNDA=)"
     id="polygon5646"
     transform="matrix(1,0,0,0.4671189,-265.94944,-10.46346)" />
  <polygon
     points="338.92,97.5 339.11,96.67 339.3,95.84 339.49,95.03 339.68,94.23 339.86,93.43 340.05,92.64 340.24,91.83 340.43,91.02 340.62,90.2 340.81,89.36 341,88.5 341.19,87.62 341.38,86.72 341.56,85.79 341.75,84.84 341.94,83.86 342.13,82.87 342.32,81.86 342.51,80.85 342.7,79.82 342.89,78.8 343.08,77.78 343.26,76.78 343.45,75.8 343.64,74.84 343.83,73.92 344.02,73.02 344.21,72.16 344.4,71.33 344.59,70.54 344.78,69.8 344.96,69.1 345.15,68.43 345.34,67.8 345.44,67.5 345.44,147.43 345.34,147.43 345.15,147.43 344.96,147.43 344.78,147.43 344.59,147.43 344.4,147.43 344.21,147.43 344.02,147.43 343.83,147.43 343.64,147.43 343.45,147.43 343.26,147.43 343.08,147.43 342.89,147.43 342.7,147.43 342.51,147.43 342.32,147.43 342.13,147.43 341.94,147.43 341.75,147.43 341.56,147.43 341.38,147.43 341.19,147.43 341,147.43 340.81,147.43 340.62,147.43 340.43,147.43 340.24,147.43 340.05,147.43 339.86,147.43 339.68,147.43 339.49,147.43 339.3,147.43 339.11,147.43 338.92,147.43 338.73,147.43 338.54,147.43 338.35,147.43 338.26,147.43 338.26,100.56 338.35,100.1 338.54,99.22 338.73,98.35 "
     style="fill:#2196f3;stroke:none;stroke-width:2.13"
     clip-path="url(#cpMjcyLjM5fDQzNi4yM3w0NzIuNTF8MjIuNDA=)"
     id="polygon5648"
     transform="matrix(1,0,0,0.4671189,-265.94944,-10.46346)" />
  <polygon
     points="346.1,65.58 346.29,65.09 346.48,64.62 346.66,64.17 346.85,63.73 347.04,63.29 347.23,62.85 347.42,62.41 347.61,61.95 347.8,61.48 347.99,60.99 348.18,60.48 348.36,59.93 348.55,59.35 348.74,58.75 348.93,58.11 349.12,57.44 349.31,56.75 349.5,56.03 349.69,55.3 349.87,54.56 350.06,53.82 350.25,53.08 350.44,52.36 350.63,51.66 350.82,50.98 351.01,50.32 351.2,49.7 351.39,49.11 351.57,48.56 351.76,48.04 351.95,47.56 352.14,47.1 352.33,46.67 352.52,46.27 352.71,45.89 352.9,45.54 353.09,45.22 353.27,44.93 353.46,44.66 353.65,44.42 353.84,44.21 354.03,44.03 354.22,43.89 354.41,43.79 354.6,43.73 354.79,43.72 354.97,43.76 355.16,43.85 355.35,44 355.54,44.2 355.73,44.45 355.92,44.77 356.11,45.14 356.3,45.58 356.49,46.07 356.67,46.63 356.86,47.23 357.05,47.88 357.24,48.58 357.43,49.31 357.62,50.08 357.81,50.88 358,51.71 358.19,52.55 358.37,53.4 358.56,54.26 358.75,55.12 358.94,55.99 359.13,56.85 359.32,57.7 359.51,58.56 359.7,59.4 359.89,60.25 360.07,61.09 360.26,61.93 360.45,62.78 360.64,63.63 360.83,64.49 361.02,65.35 361.21,66.23 361.4,67.12 361.58,68.02 361.68,68.47 361.68,147.43 361.58,147.43 361.4,147.43 361.21,147.43 361.02,147.43 360.83,147.43 360.64,147.43 360.45,147.43 360.26,147.43 360.07,147.43 359.89,147.43 359.7,147.43 359.51,147.43 359.32,147.43 359.13,147.43 358.94,147.43 358.75,147.43 358.56,147.43 358.37,147.43 358.19,147.43 358,147.43 357.81,147.43 357.62,147.43 357.43,147.43 357.24,147.43 357.05,147.43 356.86,147.43 356.67,147.43 356.49,147.43 356.3,147.43 356.11,147.43 355.92,147.43 355.73,147.43 355.54,147.43 355.35,147.43 355.16,147.43 354.97,147.43 354.79,147.43 354.6,147.43 354.41,147.43 354.22,147.43 354.03,147.43 353.84,147.43 353.65,147.43 353.46,147.43 353.27,147.43 353.09,147.43 352.9,147.43 352.71,147.43 352.52,147.43 352.33,147.43 352.14,147.43 351.95,147.43 351.76,147.43 351.57,147.43 351.39,147.43 351.2,147.43 351.01,147.43 350.82,147.43 350.63,147.43 350.44,147.43 350.25,147.43 350.06,147.43 349.87,147.43 349.69,147.43 349.5,147.43 349.31,147.43 349.12,147.43 348.93,147.43 348.74,147.43 348.55,147.43 348.36,147.43 348.18,147.43 347.99,147.43 347.8,147.43 347.61,147.43 347.42,147.43 347.23,147.43 347.04,147.43 346.85,147.43 346.66,147.43 346.48,147.43 346.29,147.43 346.1,147.43 345.91,147.43 345.72,147.43 345.53,147.43 345.44,147.43 345.44,67.5 345.53,67.2 345.72,66.63 345.91,66.09 "
     style="fill:#0d47a1;stroke:none;stroke-width:2.13"
     clip-path="url(#cpMjcyLjM5fDQzNi4yM3w0NzIuNTF8MjIuNDA=)"
     id="polygon5650"
     transform="matrix(1,0,0,0.4671189,-265.94944,-10.46346)" />
  <polygon
     points="362.34,71.72 362.53,72.66 362.72,73.61 362.91,74.56 363.1,75.52 363.28,76.47 363.47,77.43 363.66,78.38 363.85,79.34 364.04,80.29 364.23,81.24 364.42,82.19 364.61,83.13 364.8,84.07 364.98,85.01 365.17,85.94 365.36,86.86 365.55,87.77 365.74,88.67 365.93,89.55 366.12,90.42 366.31,91.27 366.5,92.11 366.68,92.92 366.87,93.71 367.06,94.48 367.25,95.24 367.44,95.97 367.63,96.7 367.82,97.41 368.01,98.11 368.2,98.81 368.38,99.52 368.57,100.22 368.76,100.94 368.95,101.67 369.05,102.04 369.05,147.43 368.95,147.43 368.76,147.43 368.57,147.43 368.38,147.43 368.2,147.43 368.01,147.43 367.82,147.43 367.63,147.43 367.44,147.43 367.25,147.43 367.06,147.43 366.87,147.43 366.68,147.43 366.5,147.43 366.31,147.43 366.12,147.43 365.93,147.43 365.74,147.43 365.55,147.43 365.36,147.43 365.17,147.43 364.98,147.43 364.8,147.43 364.61,147.43 364.42,147.43 364.23,147.43 364.04,147.43 363.85,147.43 363.66,147.43 363.47,147.43 363.28,147.43 363.1,147.43 362.91,147.43 362.72,147.43 362.53,147.43 362.34,147.43 362.15,147.43 361.96,147.43 361.77,147.43 361.68,147.43 361.68,68.47 361.77,68.93 361.96,69.85 362.15,70.78 "
     style="fill:#2196f3;stroke:none;stroke-width:2.13"
     clip-path="url(#cpMjcyLjM5fDQzNi4yM3w0NzIuNTF8MjIuNDA=)"
     id="polygon5652"
     transform="matrix(1,0,0,0.4671189,-265.94944,-10.46346)" />
  <polygon
     points="369.71,104.76 369.9,105.59 370.08,106.43 370.27,107.28 370.46,108.15 370.65,109.02 370.84,109.9 371.03,110.78 371.22,111.66 371.41,112.53 371.6,113.39 371.78,114.23 371.97,115.06 372.16,115.86 372.35,116.64 372.54,117.39 372.73,118.12 372.92,118.82 373.11,119.49 373.3,120.15 373.48,120.78 373.67,121.39 373.86,121.99 374.05,122.57 374.24,123.15 374.43,123.71 374.62,124.27 374.81,124.83 374.99,125.39 375.18,125.95 375.37,126.5 375.56,127.06 375.75,127.62 375.94,128.18 376.13,128.73 376.32,129.28 376.51,129.82 376.69,130.35 376.88,130.87 377.07,131.38 377.17,131.62 377.17,147.43 377.07,147.43 376.88,147.43 376.69,147.43 376.51,147.43 376.32,147.43 376.13,147.43 375.94,147.43 375.75,147.43 375.56,147.43 375.37,147.43 375.18,147.43 374.99,147.43 374.81,147.43 374.62,147.43 374.43,147.43 374.24,147.43 374.05,147.43 373.86,147.43 373.67,147.43 373.48,147.43 373.3,147.43 373.11,147.43 372.92,147.43 372.73,147.43 372.54,147.43 372.35,147.43 372.16,147.43 371.97,147.43 371.78,147.43 371.6,147.43 371.41,147.43 371.22,147.43 371.03,147.43 370.84,147.43 370.65,147.43 370.46,147.43 370.27,147.43 370.08,147.43 369.9,147.43 369.71,147.43 369.52,147.43 369.33,147.43 369.14,147.43 369.05,147.43 369.05,102.04 369.14,102.42 369.33,103.18 369.52,103.96 "
     style="fill:#bbdefb;stroke:none;stroke-width:2.13"
     clip-path="url(#cpMjcyLjM5fDQzNi4yM3w0NzIuNTF8MjIuNDA=)"
     id="polygon5654"
     transform="matrix(1,0,0,0.4671189,-265.94944,-10.46346)" />
  <polyline
     points="377.17,131.62 377.26,131.87 377.45,132.35 377.64,132.81 377.83,133.25 378.02,133.68 378.21,134.09 378.39,134.48 378.58,134.86 378.77,135.23 378.96,135.59 379.15,135.94 379.34,136.29 379.53,136.64 379.72,136.98 379.91,137.33 380.09,137.68 380.28,138.03 380.47,138.38 380.66,138.74 380.85,139.09 381.04,139.45 381.23,139.80 381.42,140.14 381.61,140.48 381.79,140.80 381.98,141.12 382.17,141.42 382.36,141.70 382.55,141.97 382.74,142.22 382.93,142.45 383.12,142.65 383.31,142.84 383.49,143.02 383.68,143.17 383.87,143.31 384.06,143.44 384.25,143.55 384.44,143.65 384.63,143.74 384.82,143.83 385.01,143.91 385.19,143.99 385.38,144.07 385.57,144.15 385.76,144.22 385.95,144.30 386.14,144.38 386.33,144.46 386.52,144.55 386.71,144.63 386.89,144.72 387.08,144.81 387.27,144.90 387.46,144.99 387.65,145.08 387.84,145.16 388.03,145.25 388.22,145.33 388.40,145.40 388.59,145.48 388.78,145.55 388.97,145.61 389.16,145.67 389.35,145.73 389.54,145.79 389.73,145.84 389.92,145.88 390.10,145.93 390.29,145.97 390.48,146.02 390.67,146.06 390.86,146.10 391.05,146.15 391.24,146.19 391.43,146.23 391.62,146.28 391.80,146.33 391.99,146.38 392.18,146.43 392.37,146.48 392.56,146.53 392.75,146.59 392.94,146.65 393.13,146.70 393.32,146.76 393.50,146.81 393.69,146.87 393.88,146.92 394.07,146.97 394.26,147.02 394.45,147.07 394.64,147.11 394.83,147.15 395.02,147.18 395.20,147.21 395.39,147.24 395.58,147.26 395.77,147.28 395.96,147.30 396.15,147.31 396.34,147.32 396.53,147.33 396.72,147.33 396.90,147.33 397.09,147.34 397.28,147.34 397.47,147.34 397.66,147.34 397.85,147.34 398.04,147.34 398.23,147.34 398.42,147.34 398.60,147.34 398.79,147.35 398.98,147.35 399.17,147.35 399.36,147.36 399.55,147.36 399.74,147.36 399.93,147.37 400.12,147.37 400.30,147.38 400.49,147.38 400.68,147.38 400.87,147.38 401.06,147.38 401.25,147.39 401.44,147.39 401.63,147.38 401.81,147.38 402.00,147.38 402.19,147.38 402.38,147.37 402.57,147.37 402.76,147.37 402.95,147.36 403.14,147.36 403.33,147.35 403.51,147.35 403.70,147.35 403.89,147.35 404.08,147.34 404.27,147.34 404.27,147.43 404.08,147.43 403.89,147.43 403.70,147.43 403.51,147.43 403.33,147.43 403.14,147.43 402.95,147.43 402.76,147.43 402.57,147.43 402.38,147.43 402.19,147.43 402.00,147.43 401.81,147.43 401.63,147.43 401.44,147.43 401.25,147.43 401.06,147.43 400.87,147.43 400.68,147.43 400.49,147.43 400.30,147.43 400.12,147.43 399.93,147.43 399.74,147.43 399.55,147.43 399.36,147.43 399.17,147.43 398.98,147.43 398.79,147.43 398.60,147.43 398.42,147.43 398.23,147.43 398.04,147.43 397.85,147.43 397.66,147.43 397.47,147.43 397.28,147.43 397.09,147.43 396.90,147.43 396.72,147.43 396.53,147.43 396.34,147.43 396.15,147.43 395.96,147.43 395.77,147.43 395.58,147.43 395.39,147.43 395.20,147.43 395.02,147.43 394.83,147.43 394.64,147.43 394.45,147.43 394.26,147.43 394.07,147.43 393.88,147.43 393.69,147.43 393.50,147.43 393.32,147.43 393.13,147.43 392.94,147.43 392.75,147.43 392.56,147.43 392.37,147.43 392.18,147.43 391.99,147.43 391.80,147.43 391.62,147.43 391.43,147.43 391.24,147.43 391.05,147.43 390.86,147.43 390.67,147.43 390.48,147.43 390.29,147.43 390.10,147.43 389.92,147.43 389.73,147.43 389.54,147.43 389.35,147.43 389.16,147.43 388.97,147.43 388.78,147.43 388.59,147.43 388.40,147.43 388.22,147.43 388.03,147.43 387.84,147.43 387.65,147.43 387.46,147.43 387.27,147.43 387.08,147.43 386.89,147.43 386.71,147.43 386.52,147.43 386.33,147.43 386.14,147.43 385.95,147.43 385.76,147.43 385.57,147.43 385.38,147.43 385.19,147.43 385.01,147.43 384.82,147.43 384.63,147.43 384.44,147.43 384.25,147.43 384.06,147.43 383.87,147.43 383.68,147.43 383.49,147.43 383.31,147.43 383.12,147.43 382.93,147.43 382.74,147.43 382.55,147.43 382.36,147.43 382.17,147.43 381.98,147.43 381.79,147.43 381.61,147.43 381.42,147.43 381.23,147.43 381.04,147.43 380.85,147.43 380.66,147.43 380.47,147.43 380.28,147.43 380.09,147.43 379.91,147.43 379.72,147.43 379.53,147.43 379.34,147.43 379.15,147.43 378.96,147.43 378.77,147.43 378.58,147.43 378.39,147.43 378.21,147.43 378.02,147.43 377.83,147.43 377.64,147.43 377.45,147.43 377.26,147.43 377.17,147.43 377.17,131.62 "
     style="fill:#ffffff;stroke:none;stroke-width:2.13"
     clip-path="url(#cpMjcyLjM5fDQzNi4yM3w0NzIuNTF8MjIuNDA=)"
     id="polyline5656"
     transform="matrix(1,0,0,0.4671189,-265.94944,-10.46346)" />
  <polyline
     points="304.21,272.37 304.40,272.37 304.59,272.38 304.78,272.38 304.97,272.38 305.17,272.39 305.36,272.39 305.55,272.40 305.74,272.40 305.93,272.41 306.12,272.41 306.31,272.42 306.51,272.42 306.70,272.43 306.89,272.43 307.08,272.44 307.27,272.44 307.46,272.44 307.65,272.45 307.85,272.45 308.04,272.45 308.23,272.45 308.42,272.45 308.61,272.46 308.80,272.46 308.99,272.46 309.19,272.46 309.38,272.46 309.57,272.46 309.76,272.46 309.95,272.46 310.14,272.46 310.33,272.46 310.52,272.46 310.72,272.46 310.91,272.46 311.10,272.46 311.29,272.46 311.48,272.46 311.67,272.46 311.86,272.46 312.06,272.46 312.25,272.46 312.44,272.46 312.63,272.45 312.82,272.45 313.01,272.45 313.20,272.45 313.40,272.44 313.59,272.44 313.78,272.43 313.97,272.43 314.16,272.42 314.35,272.41 314.54,272.40 314.74,272.39 314.93,272.38 315.12,272.37 315.31,272.35 315.50,272.34 315.69,272.32 315.88,272.30 316.07,272.28 316.27,272.26 316.46,272.24 316.65,272.22 316.84,272.20 317.03,272.18 317.22,272.16 317.41,272.13 317.61,272.11 317.80,272.09 317.99,272.07 318.18,272.04 318.37,272.02 318.56,272.00 318.75,271.97 318.95,271.95 319.14,271.92 319.33,271.89 319.52,271.86 319.71,271.84 319.90,271.81 320.09,271.78 320.28,271.75 320.48,271.72 320.67,271.70 320.86,271.67 321.05,271.65 321.24,271.63 321.43,271.60 321.62,271.58 321.82,271.56 322.01,271.54 322.20,271.52 322.39,271.50 322.58,271.48 322.77,271.46 322.96,271.43 323.16,271.40 323.35,271.37 323.54,271.33 323.73,271.29 323.92,271.24 324.11,271.19 324.30,271.13 324.50,271.07 324.69,271.01 324.88,270.94 325.07,270.86 325.26,270.78 325.45,270.70 325.64,270.61 325.83,270.52 326.03,270.43 326.22,270.33 326.41,270.23 326.60,270.13 326.79,270.02 326.98,269.91 327.17,269.80 327.37,269.68 327.56,269.55 327.75,269.42 327.94,269.29 328.13,269.14 328.32,268.99 328.51,268.83 328.71,268.66 328.90,268.48 329.09,268.30 329.28,268.11 329.47,267.91 329.66,267.70 329.85,267.49 330.05,267.27 330.24,267.05 330.43,266.83 330.62,266.60 330.81,266.37 331.00,266.14 331.19,265.90 331.38,265.67 331.58,265.43 331.77,265.19 331.96,264.95 332.15,264.71 332.34,264.45 332.53,264.20 332.72,263.93 332.92,263.66 333.11,263.38 333.30,263.09 333.49,262.80 333.68,262.50 333.87,262.19 334.06,261.88 334.26,261.56 334.45,261.23 334.64,260.91 334.83,260.58 335.02,260.25 335.21,259.91 335.40,259.57 335.60,259.23 335.79,258.89 335.98,258.53 336.07,258.35 336.07,272.46 335.98,272.46 335.79,272.46 335.60,272.46 335.40,272.46 335.21,272.46 335.02,272.46 334.83,272.46 334.64,272.46 334.45,272.46 334.26,272.46 334.06,272.46 333.87,272.46 333.68,272.46 333.49,272.46 333.30,272.46 333.11,272.46 332.92,272.46 332.72,272.46 332.53,272.46 332.34,272.46 332.15,272.46 331.96,272.46 331.77,272.46 331.58,272.46 331.38,272.46 331.19,272.46 331.00,272.46 330.81,272.46 330.62,272.46 330.43,272.46 330.24,272.46 330.05,272.46 329.85,272.46 329.66,272.46 329.47,272.46 329.28,272.46 329.09,272.46 328.90,272.46 328.71,272.46 328.51,272.46 328.32,272.46 328.13,272.46 327.94,272.46 327.75,272.46 327.56,272.46 327.37,272.46 327.17,272.46 326.98,272.46 326.79,272.46 326.60,272.46 326.41,272.46 326.22,272.46 326.03,272.46 325.83,272.46 325.64,272.46 325.45,272.46 325.26,272.46 325.07,272.46 324.88,272.46 324.69,272.46 324.50,272.46 324.30,272.46 324.11,272.46 323.92,272.46 323.73,272.46 323.54,272.46 323.35,272.46 323.16,272.46 322.96,272.46 322.77,272.46 322.58,272.46 322.39,272.46 322.20,272.46 322.01,272.46 321.82,272.46 321.62,272.46 321.43,272.46 321.24,272.46 321.05,272.46 320.86,272.46 320.67,272.46 320.48,272.46 320.28,272.46 320.09,272.46 319.90,272.46 319.71,272.46 319.52,272.46 319.33,272.46 319.14,272.46 318.95,272.46 318.75,272.46 318.56,272.46 318.37,272.46 318.18,272.46 317.99,272.46 317.80,272.46 317.61,272.46 317.41,272.46 317.22,272.46 317.03,272.46 316.84,272.46 316.65,272.46 316.46,272.46 316.27,272.46 316.07,272.46 315.88,272.46 315.69,272.46 315.50,272.46 315.31,272.46 315.12,272.46 314.93,272.46 314.74,272.46 314.54,272.46 314.35,272.46 314.16,272.46 313.97,272.46 313.78,272.46 313.59,272.46 313.40,272.46 313.20,272.46 313.01,272.46 312.82,272.46 312.63,272.46 312.44,272.46 312.25,272.46 312.06,272.46 311.86,272.46 311.67,272.46 311.48,272.46 311.29,272.46 311.10,272.46 310.91,272.46 310.72,272.46 310.52,272.46 310.33,272.46 310.14,272.46 309.95,272.46 309.76,272.46 309.57,272.46 309.38,272.46 309.19,272.46 308.99,272.46 308.80,272.46 308.61,272.46 308.42,272.46 308.23,272.46 308.04,272.46 307.85,272.46 307.65,272.46 307.46,272.46 307.27,272.46 307.08,272.46 306.89,272.46 306.70,272.46 306.51,272.46 306.31,272.46 306.12,272.46 305.93,272.46 305.74,272.46 305.55,272.46 305.36,272.46 305.17,272.46 304.97,272.46 304.78,272.46 304.59,272.46 304.40,272.46 304.21,272.46 304.21,272.37 "
     style="fill:#ffffff;stroke:none;stroke-width:2.13"
     clip-path="url(#cpMjcyLjM5fDQzNi4yM3w0NzIuNTF8MjIuNDA=)"
     id="polyline5658"
     transform="matrix(1,0,0,0.4671189,-265.94944,-10.46346)" />
  <polygon
     points="336.74,257.02 336.93,256.61 337.13,256.18 337.32,255.74 337.51,255.27 337.7,254.78 337.89,254.27 338.08,253.74 338.27,253.2 338.47,252.63 338.66,252.05 338.85,251.45 339.04,250.84 339.23,250.22 339.42,249.58 339.61,248.93 339.81,248.28 340,247.61 340.19,246.93 340.38,246.24 340.57,245.54 340.76,244.82 340.95,244.08 341.15,243.33 341.34,242.55 341.53,241.76 341.72,240.95 341.91,240.11 342.1,239.26 342.29,238.38 342.48,237.49 342.68,236.58 342.87,235.65 343.06,234.71 343.25,233.77 343.44,232.81 343.63,231.85 343.82,230.88 344.02,229.9 344.21,228.92 344.4,227.93 344.59,226.93 344.69,226.43 344.69,272.46 344.59,272.46 344.4,272.46 344.21,272.46 344.02,272.46 343.82,272.46 343.63,272.46 343.44,272.46 343.25,272.46 343.06,272.46 342.87,272.46 342.68,272.46 342.48,272.46 342.29,272.46 342.1,272.46 341.91,272.46 341.72,272.46 341.53,272.46 341.34,272.46 341.15,272.46 340.95,272.46 340.76,272.46 340.57,272.46 340.38,272.46 340.19,272.46 340,272.46 339.81,272.46 339.61,272.46 339.42,272.46 339.23,272.46 339.04,272.46 338.85,272.46 338.66,272.46 338.47,272.46 338.27,272.46 338.08,272.46 337.89,272.46 337.7,272.46 337.51,272.46 337.32,272.46 337.13,272.46 336.93,272.46 336.74,272.46 336.55,272.46 336.36,272.46 336.17,272.46 336.07,272.46 336.07,258.35 336.17,258.17 336.36,257.8 336.55,257.42 "
     style="fill:#bbdefb;stroke:none;stroke-width:2.13"
     clip-path="url(#cpMjcyLjM5fDQzNi4yM3w0NzIuNTF8MjIuNDA=)"
     id="polygon5660"
     transform="matrix(1,0,0,0.4671189,-265.94944,-10.46346)" />
  <polygon
     points="345.36,222.84 345.55,221.79 345.74,220.72 345.93,219.65 346.12,218.57 346.31,217.49 346.5,216.4 346.69,215.32 346.89,214.25 347.08,213.19 347.27,212.15 347.46,211.14 347.65,210.15 347.84,209.19 348.03,208.26 348.23,207.36 348.42,206.5 348.61,205.67 348.8,204.86 348.99,204.09 349.18,203.33 349.37,202.6 349.57,201.88 349.76,201.17 349.95,200.47 350.14,199.77 350.33,199.07 350.52,198.37 350.71,197.66 350.91,196.95 351.1,196.23 351.29,195.5 351.48,194.76 351.67,194 351.77,193.62 351.77,272.46 351.67,272.46 351.48,272.46 351.29,272.46 351.1,272.46 350.91,272.46 350.71,272.46 350.52,272.46 350.33,272.46 350.14,272.46 349.95,272.46 349.76,272.46 349.57,272.46 349.37,272.46 349.18,272.46 348.99,272.46 348.8,272.46 348.61,272.46 348.42,272.46 348.23,272.46 348.03,272.46 347.84,272.46 347.65,272.46 347.46,272.46 347.27,272.46 347.08,272.46 346.89,272.46 346.69,272.46 346.5,272.46 346.31,272.46 346.12,272.46 345.93,272.46 345.74,272.46 345.55,272.46 345.36,272.46 345.16,272.46 344.97,272.46 344.78,272.46 344.69,272.46 344.69,226.43 344.78,225.93 344.97,224.91 345.16,223.88 "
     style="fill:#2196f3;stroke:none;stroke-width:2.13"
     clip-path="url(#cpMjcyLjM5fDQzNi4yM3w0NzIuNTF8MjIuNDA=)"
     id="polygon5662"
     transform="matrix(1,0,0,0.4671189,-265.94944,-10.46346)" />
  <polygon
     points="352.44,190.85 352.63,190.03 352.82,189.18 353.01,188.32 353.2,187.43 353.39,186.53 353.58,185.6 353.78,184.66 353.97,183.7 354.16,182.73 354.35,181.75 354.54,180.76 354.73,179.77 354.92,178.78 355.12,177.81 355.31,176.85 355.5,175.91 355.69,174.99 355.88,174.11 356.07,173.27 356.26,172.47 356.46,171.71 356.65,171.01 356.84,170.35 357.03,169.74 357.22,169.18 357.41,168.67 357.6,168.2 357.79,167.78 357.99,167.41 358.18,167.08 358.37,166.79 358.56,166.55 358.75,166.35 358.94,166.2 359.13,166.09 359.33,166.03 359.52,166.02 359.71,166.05 359.9,166.15 360.09,166.3 360.28,166.52 360.47,166.79 360.67,167.12 360.86,167.5 361.05,167.95 361.24,168.44 361.43,168.99 361.62,169.58 361.81,170.22 362.01,170.89 362.2,171.59 362.39,172.31 362.58,173.05 362.77,173.8 362.96,174.56 363.15,175.33 363.34,176.09 363.54,176.86 363.73,177.62 363.92,178.39 364.11,179.16 364.3,179.93 364.49,180.7 364.68,181.48 364.88,182.27 365.07,183.06 365.26,183.86 365.45,184.67 365.64,185.48 365.83,186.3 366.02,187.12 366.22,187.94 366.41,188.76 366.6,189.58 366.79,190.39 366.98,191.19 367.17,191.99 367.36,192.77 367.55,193.55 367.75,194.32 367.84,194.7 367.84,272.46 367.75,272.46 367.55,272.46 367.36,272.46 367.17,272.46 366.98,272.46 366.79,272.46 366.6,272.46 366.41,272.46 366.22,272.46 366.02,272.46 365.83,272.46 365.64,272.46 365.45,272.46 365.26,272.46 365.07,272.46 364.88,272.46 364.68,272.46 364.49,272.46 364.3,272.46 364.11,272.46 363.92,272.46 363.73,272.46 363.54,272.46 363.34,272.46 363.15,272.46 362.96,272.46 362.77,272.46 362.58,272.46 362.39,272.46 362.2,272.46 362.01,272.46 361.81,272.46 361.62,272.46 361.43,272.46 361.24,272.46 361.05,272.46 360.86,272.46 360.67,272.46 360.47,272.46 360.28,272.46 360.09,272.46 359.9,272.46 359.71,272.46 359.52,272.46 359.33,272.46 359.13,272.46 358.94,272.46 358.75,272.46 358.56,272.46 358.37,272.46 358.18,272.46 357.99,272.46 357.79,272.46 357.6,272.46 357.41,272.46 357.22,272.46 357.03,272.46 356.84,272.46 356.65,272.46 356.46,272.46 356.26,272.46 356.07,272.46 355.88,272.46 355.69,272.46 355.5,272.46 355.31,272.46 355.12,272.46 354.92,272.46 354.73,272.46 354.54,272.46 354.35,272.46 354.16,272.46 353.97,272.46 353.78,272.46 353.58,272.46 353.39,272.46 353.2,272.46 353.01,272.46 352.82,272.46 352.63,272.46 352.44,272.46 352.24,272.46 352.05,272.46 351.86,272.46 351.77,272.46 351.77,193.62 351.86,193.24 352.05,192.46 352.24,191.66 "
     style="fill:#0d47a1;stroke:none;stroke-width:2.13"
     clip-path="url(#cpMjcyLjM5fDQzNi4yM3w0NzIuNTF8MjIuNDA=)"
     id="polygon5664"
     transform="matrix(1,0,0,0.4671189,-265.94944,-10.46346)" />
  <polygon
     points="368.51,197.32 368.7,198.07 368.89,198.82 369.09,199.57 369.28,200.32 369.47,201.08 369.66,201.84 369.85,202.61 370.04,203.38 370.23,204.16 370.43,204.95 370.62,205.74 370.81,206.53 371,207.32 371.19,208.12 371.38,208.92 371.57,209.73 371.77,210.55 371.96,211.38 372.15,212.22 372.34,213.08 372.53,213.96 372.72,214.86 372.91,215.79 373.1,216.73 373.3,217.71 373.49,218.7 373.68,219.72 373.87,220.76 374.06,221.81 374.25,222.87 374.44,223.94 374.64,225.01 374.83,226.06 375.02,227.11 375.11,227.63 375.11,272.46 375.02,272.46 374.83,272.46 374.64,272.46 374.44,272.46 374.25,272.46 374.06,272.46 373.87,272.46 373.68,272.46 373.49,272.46 373.3,272.46 373.1,272.46 372.91,272.46 372.72,272.46 372.53,272.46 372.34,272.46 372.15,272.46 371.96,272.46 371.77,272.46 371.57,272.46 371.38,272.46 371.19,272.46 371,272.46 370.81,272.46 370.62,272.46 370.43,272.46 370.23,272.46 370.04,272.46 369.85,272.46 369.66,272.46 369.47,272.46 369.28,272.46 369.09,272.46 368.89,272.46 368.7,272.46 368.51,272.46 368.32,272.46 368.13,272.46 367.94,272.46 367.84,272.46 367.84,194.7 367.94,195.08 368.13,195.83 368.32,196.58 "
     style="fill:#2196f3;stroke:none;stroke-width:2.13"
     clip-path="url(#cpMjcyLjM5fDQzNi4yM3w0NzIuNTF8MjIuNDA=)"
     id="polygon5666"
     transform="matrix(1,0,0,0.4671189,-265.94944,-10.46346)" />
  <polygon
     points="375.78,231.15 375.98,232.1 376.17,233.04 376.36,233.96 376.55,234.86 376.74,235.75 376.93,236.63 377.12,237.49 377.32,238.34 377.51,239.18 377.7,240.01 377.89,240.83 378.08,241.64 378.27,242.43 378.46,243.21 378.65,243.97 378.85,244.7 379.04,245.41 379.23,246.09 379.42,246.73 379.61,247.35 379.8,247.94 379.99,248.49 380.19,249.02 380.38,249.52 380.57,249.99 380.76,250.44 380.95,250.86 381.14,251.28 381.33,251.69 381.53,252.09 381.72,252.49 381.91,252.89 382.1,253.29 382.29,253.7 382.48,254.11 382.67,254.52 382.87,254.95 383.06,255.37 383.25,255.79 383.44,256.21 383.53,256.42 383.53,272.46 383.44,272.46 383.25,272.46 383.06,272.46 382.87,272.46 382.67,272.46 382.48,272.46 382.29,272.46 382.1,272.46 381.91,272.46 381.72,272.46 381.53,272.46 381.33,272.46 381.14,272.46 380.95,272.46 380.76,272.46 380.57,272.46 380.38,272.46 380.19,272.46 379.99,272.46 379.8,272.46 379.61,272.46 379.42,272.46 379.23,272.46 379.04,272.46 378.85,272.46 378.65,272.46 378.46,272.46 378.27,272.46 378.08,272.46 377.89,272.46 377.7,272.46 377.51,272.46 377.32,272.46 377.12,272.46 376.93,272.46 376.74,272.46 376.55,272.46 376.36,272.46 376.17,272.46 375.98,272.46 375.78,272.46 375.59,272.46 375.4,272.46 375.21,272.46 375.11,272.46 375.11,227.63 375.21,228.15 375.4,229.17 375.59,230.17 "
     style="fill:#bbdefb;stroke:none;stroke-width:2.13"
     clip-path="url(#cpMjcyLjM5fDQzNi4yM3w0NzIuNTF8MjIuNDA=)"
     id="polygon5668"
     transform="matrix(1,0,0,0.4671189,-265.94944,-10.46346)" />
  <polyline
     points="383.53,256.42 383.63,256.63 383.82,257.05 384.01,257.46 384.20,257.86 384.40,258.25 384.59,258.63 384.78,259.01 384.97,259.38 385.16,259.75 385.35,260.11 385.54,260.48 385.74,260.85 385.93,261.22 386.12,261.60 386.31,261.98 386.50,262.37 386.69,262.76 386.88,263.16 387.08,263.57 387.27,263.97 387.46,264.37 387.65,264.76 387.84,265.15 388.03,265.53 388.22,265.89 388.42,266.24 388.61,266.58 388.80,266.89 388.99,267.19 389.18,267.47 389.37,267.73 389.56,267.97 389.75,268.19 389.95,268.40 390.14,268.59 390.33,268.76 390.52,268.92 390.71,269.07 390.90,269.20 391.09,269.31 391.29,269.42 391.48,269.51 391.67,269.59 391.86,269.66 392.05,269.73 392.24,269.79 392.43,269.84 392.63,269.89 392.82,269.94 393.01,269.98 393.20,270.03 393.39,270.07 393.58,270.12 393.77,270.18 393.96,270.23 394.16,270.29 394.35,270.36 394.54,270.42 394.73,270.50 394.92,270.57 395.11,270.65 395.30,270.72 395.50,270.80 395.69,270.87 395.88,270.95 396.07,271.01 396.26,271.08 396.45,271.14 396.64,271.20 396.84,271.25 397.03,271.29 397.22,271.34 397.41,271.38 397.60,271.41 397.79,271.45 397.98,271.48 398.18,271.51 398.37,271.54 398.56,271.57 398.75,271.61 398.94,271.64 399.13,271.68 399.32,271.71 399.51,271.75 399.71,271.80 399.90,271.84 399.90,272.46 399.71,272.46 399.51,272.46 399.32,272.46 399.13,272.46 398.94,272.46 398.75,272.46 398.56,272.46 398.37,272.46 398.18,272.46 397.98,272.46 397.79,272.46 397.60,272.46 397.41,272.46 397.22,272.46 397.03,272.46 396.84,272.46 396.64,272.46 396.45,272.46 396.26,272.46 396.07,272.46 395.88,272.46 395.69,272.46 395.50,272.46 395.30,272.46 395.11,272.46 394.92,272.46 394.73,272.46 394.54,272.46 394.35,272.46 394.16,272.46 393.96,272.46 393.77,272.46 393.58,272.46 393.39,272.46 393.20,272.46 393.01,272.46 392.82,272.46 392.63,272.46 392.43,272.46 392.24,272.46 392.05,272.46 391.86,272.46 391.67,272.46 391.48,272.46 391.29,272.46 391.09,272.46 390.90,272.46 390.71,272.46 390.52,272.46 390.33,272.46 390.14,272.46 389.95,272.46 389.75,272.46 389.56,272.46 389.37,272.46 389.18,272.46 388.99,272.46 388.80,272.46 388.61,272.46 388.42,272.46 388.22,272.46 388.03,272.46 387.84,272.46 387.65,272.46 387.46,272.46 387.27,272.46 387.08,272.46 386.88,272.46 386.69,272.46 386.50,272.46 386.31,272.46 386.12,272.46 385.93,272.46 385.74,272.46 385.54,272.46 385.35,272.46 385.16,272.46 384.97,272.46 384.78,272.46 384.59,272.46 384.40,272.46 384.20,272.46 384.01,272.46 383.82,272.46 383.63,272.46 383.53,272.46 383.53,256.42 "
     style="fill:#ffffff;stroke:none;stroke-width:2.13"
     clip-path="url(#cpMjcyLjM5fDQzNi4yM3w0NzIuNTF8MjIuNDA=)"
     id="polyline5670"
     transform="matrix(1,0,0,0.4671189,-265.94944,-10.46346)" />
  <polyline
     points="339.19,397.21 339.37,397.19 339.55,397.17 339.73,397.14 339.91,397.12 340.09,397.09 340.27,397.07 340.45,397.05 340.62,397.02 340.80,397.00 340.98,396.98 341.16,396.96 341.34,396.94 341.52,396.92 341.70,396.90 341.88,396.88 342.06,396.86 342.24,396.84 342.42,396.82 342.60,396.80 342.77,396.77 342.95,396.74 343.13,396.71 343.31,396.67 343.49,396.63 343.67,396.59 343.85,396.54 344.03,396.49 344.21,396.44 344.39,396.38 344.57,396.32 344.75,396.26 344.92,396.19 345.10,396.13 345.28,396.07 345.46,396.01 345.64,395.95 345.82,395.89 346.00,395.85 346.18,395.80 346.36,395.77 346.54,395.74 346.72,395.71 346.90,395.70 347.08,395.69 347.25,395.68 347.43,395.68 347.61,395.68 347.79,395.68 347.97,395.69 348.15,395.69 348.33,395.69 348.51,395.69 348.69,395.68 348.87,395.66 349.05,395.63 349.23,395.60 349.40,395.55 349.58,395.50 349.76,395.43 349.94,395.35 350.12,395.26 350.30,395.16 350.48,395.05 350.66,394.93 350.84,394.79 351.02,394.65 351.20,394.51 351.38,394.35 351.55,394.19 351.73,394.02 351.91,393.85 352.09,393.68 352.27,393.49 352.45,393.31 352.63,393.11 352.81,392.92 352.99,392.71 353.17,392.50 353.35,392.28 353.53,392.05 353.70,391.81 353.88,391.57 354.06,391.31 354.24,391.04 354.42,390.76 354.60,390.46 354.78,390.16 354.96,389.85 355.14,389.53 355.32,389.20 355.50,388.85 355.68,388.51 355.86,388.15 356.03,387.78 356.21,387.41 356.39,387.04 356.57,386.65 356.75,386.26 356.93,385.86 357.11,385.45 357.29,385.04 357.47,384.61 357.65,384.18 357.83,383.74 358.01,383.28 358.18,382.82 358.36,382.34 358.54,381.85 358.72,381.35 358.81,381.10 358.81,397.49 358.72,397.49 358.54,397.49 358.36,397.49 358.18,397.49 358.01,397.49 357.83,397.49 357.65,397.49 357.47,397.49 357.29,397.49 357.11,397.49 356.93,397.49 356.75,397.49 356.57,397.49 356.39,397.49 356.21,397.49 356.03,397.49 355.86,397.49 355.68,397.49 355.50,397.49 355.32,397.49 355.14,397.49 354.96,397.49 354.78,397.49 354.60,397.49 354.42,397.49 354.24,397.49 354.06,397.49 353.88,397.49 353.70,397.49 353.53,397.49 353.35,397.49 353.17,397.49 352.99,397.49 352.81,397.49 352.63,397.49 352.45,397.49 352.27,397.49 352.09,397.49 351.91,397.49 351.73,397.49 351.55,397.49 351.38,397.49 351.20,397.49 351.02,397.49 350.84,397.49 350.66,397.49 350.48,397.49 350.30,397.49 350.12,397.49 349.94,397.49 349.76,397.49 349.58,397.49 349.40,397.49 349.23,397.49 349.05,397.49 348.87,397.49 348.69,397.49 348.51,397.49 348.33,397.49 348.15,397.49 347.97,397.49 347.79,397.49 347.61,397.49 347.43,397.49 347.25,397.49 347.08,397.49 346.90,397.49 346.72,397.49 346.54,397.49 346.36,397.49 346.18,397.49 346.00,397.49 345.82,397.49 345.64,397.49 345.46,397.49 345.28,397.49 345.10,397.49 344.92,397.49 344.75,397.49 344.57,397.49 344.39,397.49 344.21,397.49 344.03,397.49 343.85,397.49 343.67,397.49 343.49,397.49 343.31,397.49 343.13,397.49 342.95,397.49 342.77,397.49 342.60,397.49 342.42,397.49 342.24,397.49 342.06,397.49 341.88,397.49 341.70,397.49 341.52,397.49 341.34,397.49 341.16,397.49 340.98,397.49 340.80,397.49 340.62,397.49 340.45,397.49 340.27,397.49 340.09,397.49 339.91,397.49 339.73,397.49 339.55,397.49 339.37,397.49 339.19,397.49 339.19,397.21 "
     style="fill:#ffffff;stroke:none;stroke-width:2.13"
     clip-path="url(#cpMjcyLjM5fDQzNi4yM3w0NzIuNTF8MjIuNDA=)"
     id="polyline5672"
     transform="matrix(1,0,0,0.4671189,-265.94944,-10.46346)" />
  <polygon
     points="359.44,379.26 359.62,378.72 359.8,378.17 359.98,377.62 360.16,377.06 360.33,376.5 360.51,375.94 360.69,375.38 360.87,374.83 361.05,374.27 361.23,373.71 361.41,373.15 361.59,372.59 361.77,372.03 361.95,371.46 362.13,370.89 362.31,370.31 362.48,369.72 362.66,369.12 362.84,368.5 363.02,367.87 363.2,367.21 363.38,366.54 363.56,365.84 363.74,365.12 363.92,364.38 364.1,363.61 364.28,362.82 364.46,362.01 364.64,361.18 364.81,360.33 364.99,359.45 365.17,358.57 365.35,357.67 365.53,356.75 365.71,355.83 365.89,354.89 366.07,353.94 366.25,352.97 366.43,352 366.61,351.01 366.7,350.51 366.7,397.49 366.61,397.49 366.43,397.49 366.25,397.49 366.07,397.49 365.89,397.49 365.71,397.49 365.53,397.49 365.35,397.49 365.17,397.49 364.99,397.49 364.81,397.49 364.64,397.49 364.46,397.49 364.28,397.49 364.1,397.49 363.92,397.49 363.74,397.49 363.56,397.49 363.38,397.49 363.2,397.49 363.02,397.49 362.84,397.49 362.66,397.49 362.48,397.49 362.31,397.49 362.13,397.49 361.95,397.49 361.77,397.49 361.59,397.49 361.41,397.49 361.23,397.49 361.05,397.49 360.87,397.49 360.69,397.49 360.51,397.49 360.33,397.49 360.16,397.49 359.98,397.49 359.8,397.49 359.62,397.49 359.44,397.49 359.26,397.49 359.08,397.49 358.9,397.49 358.81,397.49 358.81,381.1 358.9,380.84 359.08,380.32 359.26,379.79 "
     style="fill:#bbdefb;stroke:none;stroke-width:2.13"
     clip-path="url(#cpMjcyLjM5fDQzNi4yM3w0NzIuNTF8MjIuNDA=)"
     id="polygon5674"
     transform="matrix(1,0,0,0.4671189,-265.94944,-10.46346)" />
  <polygon
     points="367.32,346.91 367.5,345.85 367.68,344.78 367.86,343.69 368.04,342.59 368.22,341.48 368.4,340.37 368.58,339.26 368.76,338.15 368.94,337.04 369.11,335.95 369.29,334.87 369.47,333.8 369.65,332.76 369.83,331.74 370.01,330.75 370.19,329.78 370.37,328.84 370.55,327.93 370.73,327.05 370.91,326.19 371.09,325.36 371.26,324.55 371.44,323.75 371.62,322.97 371.8,322.2 371.98,321.43 372.16,320.66 372.34,319.89 372.52,319.12 372.7,318.34 372.88,317.55 373.06,316.75 373.24,315.95 373.42,315.13 373.59,314.31 373.68,313.9 373.68,397.49 373.59,397.49 373.42,397.49 373.24,397.49 373.06,397.49 372.88,397.49 372.7,397.49 372.52,397.49 372.34,397.49 372.16,397.49 371.98,397.49 371.8,397.49 371.62,397.49 371.44,397.49 371.26,397.49 371.09,397.49 370.91,397.49 370.73,397.49 370.55,397.49 370.37,397.49 370.19,397.49 370.01,397.49 369.83,397.49 369.65,397.49 369.47,397.49 369.29,397.49 369.11,397.49 368.94,397.49 368.76,397.49 368.58,397.49 368.4,397.49 368.22,397.49 368.04,397.49 367.86,397.49 367.68,397.49 367.5,397.49 367.32,397.49 367.14,397.49 366.96,397.49 366.79,397.49 366.7,397.49 366.7,350.51 366.79,350 366.96,348.99 367.14,347.96 "
     style="fill:#2196f3;stroke:none;stroke-width:2.13"
     clip-path="url(#cpMjcyLjM5fDQzNi4yM3w0NzIuNTF8MjIuNDA=)"
     id="polygon5676"
     transform="matrix(1,0,0,0.4671189,-265.94944,-10.46346)" />
  <polygon
     points="374.31,311.05 374.49,310.25 374.67,309.46 374.85,308.68 375.03,307.92 375.21,307.17 375.39,306.44 375.57,305.72 375.74,305.02 375.92,304.33 376.1,303.65 376.28,302.98 376.46,302.32 376.64,301.67 376.82,301.04 377,300.43 377.18,299.83 377.36,299.26 377.54,298.72 377.72,298.21 377.89,297.72 378.07,297.28 378.25,296.86 378.43,296.48 378.61,296.14 378.79,295.84 378.97,295.56 379.15,295.31 379.33,295.08 379.51,294.87 379.69,294.67 379.87,294.48 380.04,294.3 380.22,294.11 380.4,293.93 380.58,293.74 380.76,293.55 380.94,293.37 381.12,293.18 381.3,293.01 381.48,292.85 381.66,292.7 381.84,292.58 382.02,292.48 382.2,292.42 382.37,292.4 382.55,292.41 382.73,292.47 382.91,292.57 383.09,292.71 383.27,292.9 383.45,293.14 383.63,293.43 383.81,293.76 383.99,294.13 384.17,294.54 384.35,294.99 384.52,295.48 384.7,296 384.88,296.57 385.06,297.16 385.24,297.79 385.42,298.44 385.6,299.13 385.78,299.84 385.96,300.58 386.14,301.34 386.32,302.12 386.5,302.93 386.67,303.76 386.85,304.61 387.03,305.47 387.21,306.35 387.39,307.24 387.57,308.14 387.75,309.05 387.93,309.97 388.11,310.9 388.29,311.83 388.47,312.77 388.65,313.7 388.82,314.64 389,315.57 389.18,316.5 389.27,316.96 389.27,397.49 389.18,397.49 389,397.49 388.82,397.49 388.65,397.49 388.47,397.49 388.29,397.49 388.11,397.49 387.93,397.49 387.75,397.49 387.57,397.49 387.39,397.49 387.21,397.49 387.03,397.49 386.85,397.49 386.67,397.49 386.5,397.49 386.32,397.49 386.14,397.49 385.96,397.49 385.78,397.49 385.6,397.49 385.42,397.49 385.24,397.49 385.06,397.49 384.88,397.49 384.7,397.49 384.52,397.49 384.35,397.49 384.17,397.49 383.99,397.49 383.81,397.49 383.63,397.49 383.45,397.49 383.27,397.49 383.09,397.49 382.91,397.49 382.73,397.49 382.55,397.49 382.37,397.49 382.2,397.49 382.02,397.49 381.84,397.49 381.66,397.49 381.48,397.49 381.3,397.49 381.12,397.49 380.94,397.49 380.76,397.49 380.58,397.49 380.4,397.49 380.22,397.49 380.04,397.49 379.87,397.49 379.69,397.49 379.51,397.49 379.33,397.49 379.15,397.49 378.97,397.49 378.79,397.49 378.61,397.49 378.43,397.49 378.25,397.49 378.07,397.49 377.89,397.49 377.72,397.49 377.54,397.49 377.36,397.49 377.18,397.49 377,397.49 376.82,397.49 376.64,397.49 376.46,397.49 376.28,397.49 376.1,397.49 375.92,397.49 375.74,397.49 375.57,397.49 375.39,397.49 375.21,397.49 375.03,397.49 374.85,397.49 374.67,397.49 374.49,397.49 374.31,397.49 374.13,397.49 373.95,397.49 373.77,397.49 373.68,397.49 373.68,313.9 373.77,313.49 373.95,312.67 374.13,311.86 "
     style="fill:#0d47a1;stroke:none;stroke-width:2.13"
     clip-path="url(#cpMjcyLjM5fDQzNi4yM3w0NzIuNTF8MjIuNDA=)"
     id="polygon5678"
     transform="matrix(1,0,0,0.4671189,-265.94944,-10.46346)" />
  <polygon
     points="389.9,320.12 390.08,320.99 390.26,321.84 390.44,322.67 390.62,323.48 390.8,324.27 390.98,325.03 391.15,325.78 391.33,326.51 391.51,327.24 391.69,327.95 391.87,328.66 392.05,329.37 392.23,330.08 392.41,330.81 392.59,331.55 392.77,332.31 392.95,333.09 393.13,333.89 393.3,334.72 393.48,335.57 393.66,336.45 393.84,337.34 394.02,338.26 394.2,339.2 394.38,340.16 394.56,341.13 394.74,342.12 394.92,343.11 395.1,344.11 395.28,345.12 395.45,346.13 395.63,347.14 395.81,348.16 395.99,349.17 396.17,350.19 396.26,350.69 396.26,397.49 396.17,397.49 395.99,397.49 395.81,397.49 395.63,397.49 395.45,397.49 395.28,397.49 395.1,397.49 394.92,397.49 394.74,397.49 394.56,397.49 394.38,397.49 394.2,397.49 394.02,397.49 393.84,397.49 393.66,397.49 393.48,397.49 393.3,397.49 393.13,397.49 392.95,397.49 392.77,397.49 392.59,397.49 392.41,397.49 392.23,397.49 392.05,397.49 391.87,397.49 391.69,397.49 391.51,397.49 391.33,397.49 391.15,397.49 390.98,397.49 390.8,397.49 390.62,397.49 390.44,397.49 390.26,397.49 390.08,397.49 389.9,397.49 389.72,397.49 389.54,397.49 389.36,397.49 389.27,397.49 389.27,316.96 389.36,317.43 389.54,318.34 389.72,319.24 "
     style="fill:#2196f3;stroke:none;stroke-width:2.13"
     clip-path="url(#cpMjcyLjM5fDQzNi4yM3w0NzIuNTF8MjIuNDA=)"
     id="polygon5680"
     transform="matrix(1,0,0,0.4671189,-265.94944,-10.46346)" />
  <polygon
     points="396.89,354.18 397.07,355.15 397.25,356.11 397.43,357.05 397.61,357.97 397.78,358.87 397.96,359.74 398.14,360.6 398.32,361.43 398.5,362.24 398.68,363.03 398.86,363.8 399.04,364.55 399.22,365.29 399.4,366.01 399.58,366.73 399.76,367.44 399.93,368.14 400.11,368.85 400.29,369.55 400.47,370.24 400.65,370.94 400.83,371.63 401.01,372.32 401.19,373.01 401.37,373.68 401.55,374.35 401.73,375 401.91,375.64 402.08,376.27 402.26,376.87 402.44,377.46 402.62,378.03 402.8,378.58 402.98,379.11 403.16,379.63 403.34,380.12 403.52,380.6 403.7,381.06 403.88,381.5 404.06,381.93 404.23,382.34 404.41,382.75 404.59,383.13 404.77,383.51 404.86,383.69 404.86,397.49 404.77,397.49 404.59,397.49 404.41,397.49 404.23,397.49 404.06,397.49 403.88,397.49 403.7,397.49 403.52,397.49 403.34,397.49 403.16,397.49 402.98,397.49 402.8,397.49 402.62,397.49 402.44,397.49 402.26,397.49 402.08,397.49 401.91,397.49 401.73,397.49 401.55,397.49 401.37,397.49 401.19,397.49 401.01,397.49 400.83,397.49 400.65,397.49 400.47,397.49 400.29,397.49 400.11,397.49 399.93,397.49 399.76,397.49 399.58,397.49 399.4,397.49 399.22,397.49 399.04,397.49 398.86,397.49 398.68,397.49 398.5,397.49 398.32,397.49 398.14,397.49 397.96,397.49 397.78,397.49 397.61,397.49 397.43,397.49 397.25,397.49 397.07,397.49 396.89,397.49 396.71,397.49 396.53,397.49 396.35,397.49 396.26,397.49 396.26,350.69 396.35,351.2 396.53,352.2 396.71,353.2 "
     style="fill:#bbdefb;stroke:none;stroke-width:2.13"
     clip-path="url(#cpMjcyLjM5fDQzNi4yM3w0NzIuNTF8MjIuNDA=)"
     id="polygon5682"
     transform="matrix(1,0,0,0.4671189,-265.94944,-10.46346)" />
  <polyline
     points="404.86,383.69 404.95,383.87 405.13,384.22 405.31,384.55 405.49,384.88 405.67,385.19 405.85,385.48 406.03,385.77 406.21,386.05 406.39,386.32 406.56,386.58 406.74,386.83 406.92,387.08 407.10,387.32 407.28,387.56 407.46,387.79 407.64,388.03 407.82,388.26 408.00,388.49 408.18,388.71 408.36,388.94 408.54,389.16 408.71,389.37 408.89,389.58 409.07,389.79 409.25,389.99 409.43,390.18 409.61,390.37 409.79,390.55 409.97,390.73 410.15,390.90 410.33,391.07 410.51,391.23 410.69,391.39 410.86,391.54 411.04,391.69 411.22,391.84 411.40,391.98 411.58,392.12 411.76,392.26 411.94,392.39 412.12,392.53 412.30,392.66 412.48,392.79 412.66,392.91 412.84,393.04 413.01,393.16 413.19,393.29 413.37,393.41 413.55,393.54 413.73,393.67 413.91,393.80 414.09,393.94 414.27,394.07 414.45,394.22 414.63,394.36 414.81,394.51 414.99,394.67 415.17,394.82 415.34,394.98 415.52,395.14 415.70,395.30 415.88,395.46 416.06,395.62 416.24,395.77 416.42,395.92 416.60,396.06 416.78,396.20 416.96,396.33 417.14,396.45 417.32,396.56 417.49,396.67 417.67,396.76 417.85,396.84 418.03,396.92 418.21,396.99 418.39,397.05 418.57,397.10 418.75,397.14 418.93,397.18 419.11,397.22 419.29,397.24 419.47,397.27 419.64,397.28 419.82,397.30 420.00,397.31 420.18,397.32 420.36,397.33 420.54,397.34 420.72,397.34 420.90,397.34 421.08,397.35 421.26,397.35 421.44,397.35 421.62,397.35 421.79,397.35 421.97,397.34 422.15,397.34 422.33,397.34 422.51,397.33 422.69,397.33 422.87,397.32 423.05,397.32 423.23,397.32 423.41,397.31 423.59,397.31 423.77,397.30 423.95,397.30 424.12,397.30 424.30,397.30 424.48,397.30 424.66,397.30 424.84,397.30 425.02,397.30 425.20,397.30 425.38,397.30 425.56,397.30 425.74,397.30 425.92,397.30 426.10,397.30 426.27,397.30 426.45,397.30 426.63,397.30 426.81,397.30 426.99,397.30 427.17,397.30 427.35,397.30 427.53,397.30 427.71,397.30 427.89,397.31 428.07,397.31 428.25,397.31 428.42,397.32 428.60,397.32 428.78,397.33 428.78,397.49 428.60,397.49 428.42,397.49 428.25,397.49 428.07,397.49 427.89,397.49 427.71,397.49 427.53,397.49 427.35,397.49 427.17,397.49 426.99,397.49 426.81,397.49 426.63,397.49 426.45,397.49 426.27,397.49 426.10,397.49 425.92,397.49 425.74,397.49 425.56,397.49 425.38,397.49 425.20,397.49 425.02,397.49 424.84,397.49 424.66,397.49 424.48,397.49 424.30,397.49 424.12,397.49 423.95,397.49 423.77,397.49 423.59,397.49 423.41,397.49 423.23,397.49 423.05,397.49 422.87,397.49 422.69,397.49 422.51,397.49 422.33,397.49 422.15,397.49 421.97,397.49 421.79,397.49 421.62,397.49 421.44,397.49 421.26,397.49 421.08,397.49 420.90,397.49 420.72,397.49 420.54,397.49 420.36,397.49 420.18,397.49 420.00,397.49 419.82,397.49 419.64,397.49 419.47,397.49 419.29,397.49 419.11,397.49 418.93,397.49 418.75,397.49 418.57,397.49 418.39,397.49 418.21,397.49 418.03,397.49 417.85,397.49 417.67,397.49 417.49,397.49 417.32,397.49 417.14,397.49 416.96,397.49 416.78,397.49 416.60,397.49 416.42,397.49 416.24,397.49 416.06,397.49 415.88,397.49 415.70,397.49 415.52,397.49 415.34,397.49 415.17,397.49 414.99,397.49 414.81,397.49 414.63,397.49 414.45,397.49 414.27,397.49 414.09,397.49 413.91,397.49 413.73,397.49 413.55,397.49 413.37,397.49 413.19,397.49 413.01,397.49 412.84,397.49 412.66,397.49 412.48,397.49 412.30,397.49 412.12,397.49 411.94,397.49 411.76,397.49 411.58,397.49 411.40,397.49 411.22,397.49 411.04,397.49 410.86,397.49 410.69,397.49 410.51,397.49 410.33,397.49 410.15,397.49 409.97,397.49 409.79,397.49 409.61,397.49 409.43,397.49 409.25,397.49 409.07,397.49 408.89,397.49 408.71,397.49 408.54,397.49 408.36,397.49 408.18,397.49 408.00,397.49 407.82,397.49 407.64,397.49 407.46,397.49 407.28,397.49 407.10,397.49 406.92,397.49 406.74,397.49 406.56,397.49 406.39,397.49 406.21,397.49 406.03,397.49 405.85,397.49 405.67,397.49 405.49,397.49 405.31,397.49 405.13,397.49 404.95,397.49 404.86,397.49 404.86,383.69 "
     style="fill:#ffffff;stroke:none;stroke-width:2.13"
     clip-path="url(#cpMjcyLjM5fDQzNi4yM3w0NzIuNTF8MjIuNDA=)"
     id="polyline5684"
     transform="matrix(1,0,0,0.4671189,-265.94944,-10.46346)" />
  <defs
     id="defs5690">
    <clipPath
       id="clipPath5688">
      <rect
         x="0"
         y="0"
         width="504"
         height="504"
         id="rect5686" />
    </clipPath>
  </defs>
  <defs
     id="defs5695">
    <clipPath
       id="cpMTAzLjA3fDI2Ni45MXwyMi40MHw1LjQ4">
      <rect
         x="103.07"
         y="5.48"
         width="163.84"
         height="16.92"
         id="rect5692" />
    </clipPath>
  </defs>
  <defs
     id="defs5707">
    <clipPath
       id="clipPath5705">
      <rect
         x="0"
         y="0"
         width="504"
         height="504"
         id="rect5703" />
    </clipPath>
  </defs>
  <defs
     id="defs5712">
    <clipPath
       id="cpMjcyLjM5fDQzNi4yM3wyMi40MHw1LjQ4">
      <rect
         x="272.39001"
         y="5.48"
         width="163.84"
         height="16.92"
         id="rect5709" />
    </clipPath>
  </defs>
  <defs
     id="defs5724">
    <clipPath
       id="clipPath5722">
      <rect
         x="0"
         y="0"
         width="504"
         height="504"
         id="rect5720" />
    </clipPath>
  </defs>
  <text
     xml:space="preserve"
     style="font-stretch:condensed;font-size:10.6667px;line-height:1.25;font-family:'Noto Sans';-inkscape-font-specification:'Noto Sans, Condensed';letter-spacing:0px;word-spacing:0px;writing-mode:lr-tb"
     x="-0.106667"
     y="58.76384"
     id="text6774-9"><tspan
       sodipodi:role="line"
       id="tspan6772-1"
       x="-0.106667"
       y="58.76384">TMD0-L0</tspan></text>
  <text
     xml:space="preserve"
     style="font-stretch:condensed;font-size:10.6667px;line-height:1.25;font-family:'Noto Sans';-inkscape-font-specification:'Noto Sans, Condensed';letter-spacing:0px;word-spacing:0px;writing-mode:lr-tb"
     x="12.44799"
     y="117.2011"
     id="text6778-7"><tspan
       sodipodi:role="line"
       id="tspan6776-5"
       x="12.44799"
       y="117.2011">TMD0</tspan></text>
  <text
     xml:space="preserve"
     style="font-stretch:condensed;font-size:10.6667px;line-height:1.25;font-family:'Noto Sans';-inkscape-font-specification:'Noto Sans, Condensed';letter-spacing:0px;word-spacing:0px;writing-mode:lr-tb"
     x="16.256035"
     y="175.63832"
     id="text6782-7"><tspan
       sodipodi:role="line"
       id="tspan6780-6"
       x="16.256035"
       y="175.63832">SUR1</tspan></text>
  <text
     xml:space="preserve"
     style="font-stretch:condensed;font-size:10.6667px;line-height:1.25;font-family:'Noto Sans';-inkscape-font-specification:'Noto Sans, Condensed';letter-spacing:0px;word-spacing:0px;writing-mode:lr-tb"
     x="51.162865"
     y="192.09575"
     id="text6754-2"><tspan
       sodipodi:role="line"
       id="tspan6752-4"
       x="51.162865"
       y="192.09575">1</tspan></text>
  <text
     xml:space="preserve"
     style="font-stretch:condensed;font-size:10.6667px;line-height:1.25;font-family:'Noto Sans';-inkscape-font-specification:'Noto Sans, Condensed';letter-spacing:0px;word-spacing:0px;writing-mode:lr-tb"
     x="81.266594"
     y="192.09575"
     id="text6758-2"><tspan
       sodipodi:role="line"
       id="tspan6756-5"
       x="81.266594"
       y="192.09575">3</tspan></text>
  <text
     xml:space="preserve"
     style="font-stretch:condensed;font-size:10.6667px;line-height:1.25;font-family:'Noto Sans';-inkscape-font-specification:'Noto Sans, Condensed';letter-spacing:0px;word-spacing:0px;writing-mode:lr-tb"
     x="111.98629"
     y="192.09575"
     id="text6762-5"><tspan
       sodipodi:role="line"
       id="tspan6760-0"
       x="111.98629"
       y="192.09575">10</tspan></text>
  <text
     xml:space="preserve"
     style="font-stretch:condensed;font-size:10.6667px;line-height:1.25;font-family:'Noto Sans';-inkscape-font-specification:'Noto Sans, Condensed';letter-spacing:0px;word-spacing:0px;writing-mode:lr-tb"
     x="142.66136"
     y="192.09575"
     id="text6766-5"><tspan
       sodipodi:role="line"
       id="tspan6764-2"
       x="142.66136"
       y="192.09575">30</tspan></text>
  <text
     xml:space="preserve"
     style="font-style:normal;font-variant:normal;font-weight:normal;font-stretch:condensed;font-size:13.3333px;line-height:1.25;font-family:'Noto Sans';-inkscape-font-specification:'Noto Sans, Condensed';font-variant-ligatures:normal;font-variant-caps:normal;font-variant-numeric:normal;font-variant-east-asian:normal;letter-spacing:0px;word-spacing:0px;writing-mode:lr-tb"
     x="30.688255"
     y="211.44756"
     id="text6770-7"><tspan
       sodipodi:role="line"
       id="tspan6768-5"
       x="30.688255"
       y="211.44756">Fold increase in luminescence</tspan></text>
</svg>
