<?xml version="1.0" encoding="UTF-8" standalone="no"?>
<svg
   xmlns:dc="http://purl.org/dc/elements/1.1/"
   xmlns:cc="http://creativecommons.org/ns#"
   xmlns:rdf="http://www.w3.org/1999/02/22-rdf-syntax-ns#"
   xmlns:svg="http://www.w3.org/2000/svg"
   xmlns="http://www.w3.org/2000/svg"
   xmlns:sodipodi="http://sodipodi.sourceforge.net/DTD/sodipodi-0.dtd"
   xmlns:inkscape="http://www.inkscape.org/namespaces/inkscape"
   viewBox="0 0 324.00241 240.59811"
   version="1.1"
   id="svg8559"
   sodipodi:docname="wt_gfp_mo_spectra_1.svg"
   width="324.00241"
   height="240.59811"
   inkscape:version="1.0.1 (3bc2e813f5, 2020-09-07, custom)">
  <metadata
     id="metadata8563">
    <rdf:RDF>
      <cc:Work
         rdf:about="">
        <dc:format>image/svg+xml</dc:format>
        <dc:type
           rdf:resource="http://purl.org/dc/dcmitype/StillImage" />
        <dc:title></dc:title>
      </cc:Work>
    </rdf:RDF>
  </metadata>
  <sodipodi:namedview
     pagecolor="#ffffff"
     bordercolor="#666666"
     borderopacity="1"
     objecttolerance="10"
     gridtolerance="10"
     guidetolerance="10"
     inkscape:pageopacity="0"
     inkscape:pageshadow="2"
     inkscape:window-width="1366"
     inkscape:window-height="768"
     id="namedview8561"
     showgrid="false"
     inkscape:zoom="0.8263609"
     inkscape:cx="2.4036794"
     inkscape:cy="33.200054"
     inkscape:window-x="0"
     inkscape:window-y="0"
     inkscape:window-maximized="1"
     inkscape:current-layer="svg8559" />
  <defs
     id="defs7604">
    <style
       type="text/css"
       id="style7602"><![CDATA[
    line, polyline, polygon, path, rect, circle {
      fill: none;
      stroke: #000000;
      stroke-linecap: round;
      stroke-linejoin: round;
      stroke-miterlimit: 10.00;
    }
  ]]></style>
    <style
       type="text/css"
       id="style12676"><![CDATA[
    line, polyline, polygon, path, rect, circle {
      fill: none;
      stroke: #000000;
      stroke-linecap: round;
      stroke-linejoin: round;
      stroke-miterlimit: 10.00;
    }
  ]]></style>
    <clipPath
       id="cpNDAuNDd8MTE5Ljc5fDIyOS43MXwyMi40MA==-1">
      <rect
         x="40.470001"
         y="22.4"
         width="79.330002"
         height="207.32001"
         id="rect12684" />
    </clipPath>
    <clipPath
       id="cpMC4wMHw1MDQuMDB8NTA0LjAwfDAuMDA=-2">
      <rect
         x="0"
         y="0"
         width="504"
         height="504"
         id="rect12747" />
    </clipPath>
    <clipPath
       id="cpNDAuNDd8MTE5Ljc5fDQ3Mi41MXwyNjUuMTk=">
      <rect
         x="40.470001"
         y="265.19"
         width="79.330002"
         height="207.32001"
         id="rect12752" />
    </clipPath>
    <clipPath
       id="clipPath12817">
      <rect
         x="0"
         y="0"
         width="504"
         height="504"
         id="rect12815" />
    </clipPath>
    <clipPath
       id="cpMTQ3LjMzfDIyNi42NnwyMjkuNzF8MjIuNDA=-6">
      <rect
         x="147.33"
         y="22.4"
         width="79.330002"
         height="207.32001"
         id="rect12821" />
    </clipPath>
    <clipPath
       id="clipPath12894">
      <rect
         x="0"
         y="0"
         width="504"
         height="504"
         id="rect12892" />
    </clipPath>
    <clipPath
       id="clipPath12965">
      <rect
         x="0"
         y="0"
         width="504"
         height="504"
         id="rect12963" />
    </clipPath>
    <clipPath
       id="cpMjU0LjIwfDMzMy41M3wyMjkuNzF8MjIuNDA=-4">
      <rect
         x="254.2"
         y="22.4"
         width="79.330002"
         height="207.32001"
         id="rect12969" />
    </clipPath>
    <clipPath
       id="clipPath13038">
      <rect
         x="0"
         y="0"
         width="504"
         height="504"
         id="rect13036" />
    </clipPath>
    <clipPath
       id="cpMjU0LjIwfDMzMy41M3w0NzIuNTF8MjY1LjE5-8">
      <rect
         x="254.2"
         y="265.19"
         width="79.330002"
         height="207.32001"
         id="rect13042" />
    </clipPath>
    <clipPath
       id="clipPath13107">
      <rect
         x="0"
         y="0"
         width="504"
         height="504"
         id="rect13105" />
    </clipPath>
    <clipPath
       id="cpNDAuNDd8MTE5Ljc5fDI2NS4xOXwyNDguMjg=-2">
      <rect
         x="40.470001"
         y="248.28"
         width="79.330002"
         height="16.92"
         id="rect13111" />
    </clipPath>
    <clipPath
       id="clipPath13124">
      <rect
         x="0"
         y="0"
         width="504"
         height="504"
         id="rect13122" />
    </clipPath>
    <clipPath
       id="cpMTQ3LjMzfDIyNi42NnwyNjUuMTl8MjQ4LjI4-8">
      <rect
         x="147.33"
         y="248.28"
         width="79.330002"
         height="16.92"
         id="rect13128" />
    </clipPath>
    <clipPath
       id="clipPath13141">
      <rect
         x="0"
         y="0"
         width="504"
         height="504"
         id="rect13139" />
    </clipPath>
    <clipPath
       id="cpMjU0LjIwfDMzMy41M3wyNjUuMTl8MjQ4LjI4-2">
      <rect
         x="254.2"
         y="248.28"
         width="79.330002"
         height="16.92"
         id="rect13145" />
    </clipPath>
    <clipPath
       id="clipPath13158">
      <rect
         x="0"
         y="0"
         width="504"
         height="504"
         id="rect13156" />
    </clipPath>
    <clipPath
       id="cpNDAuNDd8MTE5Ljc5fDIyLjQwfDUuNDg=-7">
      <rect
         x="40.470001"
         y="5.48"
         width="79.330002"
         height="16.92"
         id="rect13162" />
    </clipPath>
    <clipPath
       id="clipPath13175">
      <rect
         x="0"
         y="0"
         width="504"
         height="504"
         id="rect13173" />
    </clipPath>
    <clipPath
       id="cpMTQ3LjMzfDIyNi42NnwyMi40MHw1LjQ4-8">
      <rect
         x="147.33"
         y="5.48"
         width="79.330002"
         height="16.92"
         id="rect13179" />
    </clipPath>
    <clipPath
       id="clipPath13192">
      <rect
         x="0"
         y="0"
         width="504"
         height="504"
         id="rect13190" />
    </clipPath>
    <clipPath
       id="cpMjU0LjIwfDMzMy41M3wyMi40MHw1LjQ4-6">
      <rect
         x="254.2"
         y="5.48"
         width="79.330002"
         height="16.92"
         id="rect13196" />
    </clipPath>
    <clipPath
       id="clipPath13209">
      <rect
         x="0"
         y="0"
         width="504"
         height="504"
         id="rect13207" />
    </clipPath>
  </defs>
  <defs
     id="defs7613">
    <clipPath
       id="cpNDAuNDd8MTE5Ljc5fDIyOS43MXwyMi40MA==">
      <rect
         x="40.470001"
         y="22.4"
         width="79.330002"
         height="207.32001"
         id="rect7610" />
    </clipPath>
  </defs>
  <defs
     id="defs7676">
    <clipPath
       id="cpMC4wMHw1MDQuMDB8NTA0LjAwfDAuMDA=">
      <rect
         x="0"
         y="0"
         width="504"
         height="504"
         id="rect7673" />
    </clipPath>
  </defs>
  <defs
     id="defs7681" />
  <defs
     id="defs7745">
    <clipPath
       id="clipPath7743">
      <rect
         x="0"
         y="0"
         width="504"
         height="504"
         id="rect7741" />
    </clipPath>
  </defs>
  <defs
     id="defs7750">
    <clipPath
       id="cpMTQ3LjMzfDIyNi42NnwyMjkuNzF8MjIuNDA=">
      <rect
         x="147.33"
         y="22.4"
         width="79.330002"
         height="207.32001"
         id="rect7747" />
    </clipPath>
  </defs>
  <defs
     id="defs7822">
    <clipPath
       id="clipPath7820">
      <rect
         x="0"
         y="0"
         width="504"
         height="504"
         id="rect7818" />
    </clipPath>
  </defs>
  <defs
     id="defs7827">
    <clipPath
       id="cpMTQ3LjMzfDIyNi42Nnw0NzIuNTF8MjY1LjE5">
      <rect
         x="147.33"
         y="265.19"
         width="79.330002"
         height="207.32001"
         id="rect7824" />
    </clipPath>
  </defs>
  <defs
     id="defs7893">
    <clipPath
       id="clipPath7891">
      <rect
         x="0"
         y="0"
         width="504"
         height="504"
         id="rect7889" />
    </clipPath>
  </defs>
  <defs
     id="defs7898">
    <clipPath
       id="cpMjU0LjIwfDMzMy41M3wyMjkuNzF8MjIuNDA=">
      <rect
         x="254.2"
         y="22.4"
         width="79.330002"
         height="207.32001"
         id="rect7895" />
    </clipPath>
  </defs>
  <defs
     id="defs7966">
    <clipPath
       id="clipPath7964">
      <rect
         x="0"
         y="0"
         width="504"
         height="504"
         id="rect7962" />
    </clipPath>
  </defs>
  <defs
     id="defs7971">
    <clipPath
       id="cpMjU0LjIwfDMzMy41M3w0NzIuNTF8MjY1LjE5">
      <rect
         x="254.2"
         y="265.19"
         width="79.330002"
         height="207.32001"
         id="rect7968" />
    </clipPath>
  </defs>
  <defs
     id="defs8035">
    <clipPath
       id="clipPath8033">
      <rect
         x="0"
         y="0"
         width="504"
         height="504"
         id="rect8031" />
    </clipPath>
  </defs>
  <defs
     id="defs8040">
    <clipPath
       id="cpNDAuNDd8MTE5Ljc5fDI2NS4xOXwyNDguMjg=">
      <rect
         x="40.470001"
         y="248.28"
         width="79.330002"
         height="16.92"
         id="rect8037" />
    </clipPath>
  </defs>
  <defs
     id="defs8052">
    <clipPath
       id="clipPath8050">
      <rect
         x="0"
         y="0"
         width="504"
         height="504"
         id="rect8048" />
    </clipPath>
  </defs>
  <defs
     id="defs8057">
    <clipPath
       id="cpMTQ3LjMzfDIyNi42NnwyNjUuMTl8MjQ4LjI4">
      <rect
         x="147.33"
         y="248.28"
         width="79.330002"
         height="16.92"
         id="rect8054" />
    </clipPath>
  </defs>
  <defs
     id="defs8069">
    <clipPath
       id="clipPath8067">
      <rect
         x="0"
         y="0"
         width="504"
         height="504"
         id="rect8065" />
    </clipPath>
  </defs>
  <defs
     id="defs8074">
    <clipPath
       id="cpMjU0LjIwfDMzMy41M3wyNjUuMTl8MjQ4LjI4">
      <rect
         x="254.2"
         y="248.28"
         width="79.330002"
         height="16.92"
         id="rect8071" />
    </clipPath>
  </defs>
  <defs
     id="defs8086">
    <clipPath
       id="clipPath8084">
      <rect
         x="0"
         y="0"
         width="504"
         height="504"
         id="rect8082" />
    </clipPath>
  </defs>
  <defs
     id="defs8091">
    <clipPath
       id="cpNDAuNDd8MTE5Ljc5fDIyLjQwfDUuNDg=">
      <rect
         x="40.470001"
         y="5.48"
         width="79.330002"
         height="16.92"
         id="rect8088" />
    </clipPath>
  </defs>
  <defs
     id="defs8103">
    <clipPath
       id="clipPath8101">
      <rect
         x="0"
         y="0"
         width="504"
         height="504"
         id="rect8099" />
    </clipPath>
  </defs>
  <defs
     id="defs8108">
    <clipPath
       id="cpMTQ3LjMzfDIyNi42NnwyMi40MHw1LjQ4">
      <rect
         x="147.33"
         y="5.48"
         width="79.330002"
         height="16.92"
         id="rect8105" />
    </clipPath>
  </defs>
  <defs
     id="defs8120">
    <clipPath
       id="clipPath8118">
      <rect
         x="0"
         y="0"
         width="504"
         height="504"
         id="rect8116" />
    </clipPath>
  </defs>
  <defs
     id="defs8125">
    <clipPath
       id="cpMjU0LjIwfDMzMy41M3wyMi40MHw1LjQ4">
      <rect
         x="254.2"
         y="5.48"
         width="79.330002"
         height="16.92"
         id="rect8122" />
    </clipPath>
  </defs>
  <defs
     id="defs8137">
    <clipPath
       id="clipPath8135">
      <rect
         x="0"
         y="0"
         width="504"
         height="504"
         id="rect8133" />
    </clipPath>
  </defs>
  <path
     id="rect7683-6"
     clip-path="none"
     style="fill:#efebe9;stroke:none;stroke-width:1.75128;stroke-linecap:round;stroke-linejoin:round;stroke-miterlimit:10"
     d="M 43.444722,0 H 255.95609 V 207.32001 H 43.444722 Z" />
  <path
     id="polyline7703-0"
     clip-path="none"
     style="fill:none;stroke:#ffffff;stroke-width:1;stroke-linecap:butt;stroke-linejoin:round;stroke-miterlimit:10;stroke-dasharray:none"
     d="m 43.444722,197.8 c 70.828188,0 141.656378,0 212.484578,0" />
  <path
     id="polyline7705-2"
     clip-path="none"
     style="fill:none;stroke:#ffffff;stroke-width:1;stroke-linecap:butt;stroke-linejoin:round;stroke-miterlimit:10;stroke-dasharray:none"
     d="m 43.444722,151.25 c 70.828188,0 141.656378,0 212.484578,0" />
  <path
     id="polyline7707-2"
     clip-path="none"
     style="fill:none;stroke:#ffffff;stroke-width:1;stroke-linecap:butt;stroke-linejoin:round;stroke-miterlimit:10;stroke-dasharray:none"
     d="m 43.444722,104.7 c 70.828188,0 141.656378,0 212.484578,0" />
  <path
     id="polyline7709-8"
     clip-path="none"
     style="fill:none;stroke:#ffffff;stroke-width:1;stroke-linecap:butt;stroke-linejoin:round;stroke-miterlimit:10;stroke-dasharray:none"
     d="m 43.444722,58.16 c 70.828188,0 141.656378,0 212.484578,0" />
  <path
     id="polyline7711-4"
     clip-path="none"
     style="fill:none;stroke:#ffffff;stroke-width:1;stroke-linecap:butt;stroke-linejoin:round;stroke-miterlimit:10;stroke-dasharray:none"
     d="m 43.444722,11.61 c 70.828188,0 141.656378,0 212.484578,0" />
  <path
     id="polyline7713-3"
     clip-path="none"
     style="fill:none;stroke:#ffffff;stroke-width:1;stroke-linecap:butt;stroke-linejoin:round;stroke-miterlimit:10;stroke-dasharray:none"
     d="m 53.088492,207.32 c 0,-69.10667 0,-138.21333 0,-207.32" />
  <path
     id="polyline7715-1"
     clip-path="none"
     style="fill:none;stroke:#ffffff;stroke-width:1;stroke-linecap:butt;stroke-linejoin:round;stroke-miterlimit:10;stroke-dasharray:none"
     d="m 91.743972,207.32 c 0,-69.10667 0,-138.21333 0,-207.32" />
  <path
     id="polyline7717-1"
     clip-path="none"
     style="fill:none;stroke:#ffffff;stroke-width:1;stroke-linecap:butt;stroke-linejoin:round;stroke-miterlimit:10;stroke-dasharray:none"
     d="m 130.42624,207.32 c 0,-69.10667 0,-138.21333 0,-207.32" />
  <path
     id="polyline7719-1"
     clip-path="none"
     style="fill:none;stroke:#ffffff;stroke-width:1;stroke-linecap:butt;stroke-linejoin:round;stroke-miterlimit:10;stroke-dasharray:none"
     d="m 169.08172,207.32 c 0,-69.10667 0,-138.21333 0,-207.32" />
  <path
     id="polyline7721-9"
     clip-path="none"
     style="fill:none;stroke:#ffffff;stroke-width:1;stroke-linecap:butt;stroke-linejoin:round;stroke-miterlimit:10;stroke-dasharray:none"
     d="m 207.7372,207.32 c 0,-69.10667 0,-138.21333 0,-207.32" />
  <path
     id="polyline7725-0"
     clip-path="none"
     style="fill:none;stroke:#000000;stroke-width:1.98827;stroke-linecap:butt;stroke-linejoin:round;stroke-miterlimit:10;stroke-dasharray:none;stroke-dashoffset:0"
     d="m 53.086892,197.8701 c 2.65909,-0.14735 5.77156,-0.12361 8.46524,-0.0889 5.5034,0.01 10.4225,-0.0751 15.93928,0.0198 3.46178,-0.0295 8.56353,-0.0394 12.56391,-0.0198 2.53,-0.0285 4.97933,0.0536 7.71515,-0.0889 1.83254,-5.68826 0.72433,-11.53002 1.24864,-17.27795 0.92241,-40.35509 0.81931,-80.71541 3.332228,-121.06294 0.95098,-15.90015 0.83933,-31.81227 2.41098,-47.70478 0.19278,3.30363 0.61103,-0.39772 0.77172,3.42079 2.18397,25.69098 4.24194,51.39304 8.34048,77.03947 0.35065,0.63875 0.66731,2.73867 1.16953,4.38819 1.1762,5.41591 2.49774,10.6437 4.66638,16.06589 1.10226,1.81158 2.31906,4.46527 2.65209,6.70061 1.69554,1.89519 1.10284,2.63911 2.41098,4.02234 0.21816,1.56805 1.12075,1.98565 1.68768,3.73574 2.98424,5.23703 4.58311,11.02487 6.37349,16.39993 0.20767,1.91344 0.84642,1.98994 1.48431,4.20653 0.4547,0.52385 1.07756,3.09825 1.59715,4.52627 1.61155,4.63327 3.47038,9.30025 5.43958,13.79603 1.25596,2.24604 2.71406,5.2215 4.21878,7.76674 0.92447,1.76836 1.77456,1.88276 2.2641,3.11433 0.90089,1.35071 2.60845,2.44094 3.13428,3.73574 0.57928,-0.35433 1.35496,1.35818 2.89318,2.16436 1.73952,1.69412 2.16615,0.92449 3.10749,2.33236 1.2383,0.0765 2.63343,1.33476 3.83078,1.6801 0.89321,0.77543 2.33609,1.2054 4.09868,2.11494 0.81547,0.4429 1.73403,0.88606 4.07188,1.70974 2.05544,0.88817 2.31104,0.8988 4.55409,1.76904 1.69163,0.4723 2.85037,0.9758 4.55408,1.36384 1.59324,0.39999 3.6774,0.66796 5.73279,1.07724 1.41555,0.28702 2.84979,0.48261 4.55407,0.70168 2.49541,0.41787 3.56657,0.32578 5.73279,0.66216 2.42656,0.23118 3.17727,0.20909 4.55408,0.39532 2.11716,-0.0681 4.83542,0.32683 6.4293,0.24707 1.56496,0.16707 4.72044,0.20988 6.93827,0.36567 2.039,-0.0716 2.32625,0.0101 4.5273,0.17789 3.51481,-0.1207 7.11522,0.20949 10.95658,0.12848 2.89549,0.0359 6.23716,0.23975 9.75109,0.0791 2.59851,0.2775 6.20979,-0.0326 9.0278,0.22731" />
  <path
     id="polyline7723-0"
     clip-path="none"
     style="fill:none;stroke:#ffffff;stroke-width:1;stroke-linecap:butt;stroke-linejoin:round;stroke-miterlimit:10;stroke-dasharray:none"
     d="m 246.41946,207.32 c 0,-69.10667 0,-138.21333 0,-207.32" />
  <text
     xml:space="preserve"
     style="font-stretch:condensed;font-size:10.6667px;line-height:1.25;font-family:'Noto Sans';-inkscape-font-specification:'Noto Sans, Condensed';letter-spacing:0px;word-spacing:0px;writing-mode:lr-tb"
     x="248.45035"
     y="37.065533"
     id="text10745-5"><tspan
       sodipodi:role="line"
       id="tspan10743-7"
       x="248.45035"
       y="37.065533">WT-GFP+SUR1</tspan><tspan
       sodipodi:role="line"
       x="248.45035"
       y="50.398907"
       id="tspan10747-6">490 nm excitation</tspan></text>
  <text
     xml:space="preserve"
     style="font-stretch:condensed;font-size:10.6667px;line-height:1.25;font-family:'Noto Sans';-inkscape-font-specification:'Noto Sans, Condensed';letter-spacing:0px;word-spacing:0px;writing-mode:lr-tb"
     x="248.32236"
     y="76.014412"
     id="text10751-9"><tspan
       sodipodi:role="line"
       id="tspan10749-1"
       x="248.32236"
       y="76.014412">WT-GFP+SUR1-mO</tspan><tspan
       sodipodi:role="line"
       x="248.32236"
       y="89.347786"
       id="tspan10753-9">490 nm excitation</tspan></text>
  <text
     xml:space="preserve"
     style="font-stretch:condensed;font-size:10.6667px;line-height:1.25;font-family:'Noto Sans';-inkscape-font-specification:'Noto Sans, Condensed';letter-spacing:0px;word-spacing:0px;writing-mode:lr-tb"
     x="45.675148"
     y="218.40767"
     id="text10763-5"><tspan
       sodipodi:role="line"
       id="tspan10761-1"
       x="45.675148"
       y="218.40767">450</tspan></text>
  <text
     xml:space="preserve"
     style="font-stretch:condensed;font-size:10.6667px;line-height:1.25;font-family:'Noto Sans';-inkscape-font-specification:'Noto Sans, Condensed';letter-spacing:0px;word-spacing:0px;writing-mode:lr-tb"
     x="84.143959"
     y="218.40767"
     id="text10767-1"><tspan
       sodipodi:role="line"
       id="tspan10765-4"
       x="84.143959"
       y="218.40767">500</tspan></text>
  <text
     xml:space="preserve"
     style="font-stretch:condensed;font-size:10.6667px;line-height:1.25;font-family:'Noto Sans';-inkscape-font-specification:'Noto Sans, Condensed';letter-spacing:0px;word-spacing:0px;writing-mode:lr-tb"
     x="122.82627"
     y="218.40767"
     id="text10771-8"><tspan
       sodipodi:role="line"
       id="tspan10769-5"
       x="122.82627"
       y="218.40767">550</tspan></text>
  <text
     xml:space="preserve"
     style="font-stretch:condensed;font-size:10.6667px;line-height:1.25;font-family:'Noto Sans';-inkscape-font-specification:'Noto Sans, Condensed';letter-spacing:0px;word-spacing:0px;writing-mode:lr-tb"
     x="161.5137"
     y="218.40767"
     id="text10775-7"><tspan
       sodipodi:role="line"
       id="tspan10773-6"
       x="161.5137"
       y="218.40767">600</tspan></text>
  <text
     xml:space="preserve"
     style="font-stretch:condensed;font-size:10.6667px;line-height:1.25;font-family:'Noto Sans';-inkscape-font-specification:'Noto Sans, Condensed';letter-spacing:0px;word-spacing:0px;writing-mode:lr-tb"
     x="200.16919"
     y="218.40767"
     id="text10779-6"><tspan
       sodipodi:role="line"
       id="tspan10777-9"
       x="200.16919"
       y="218.40767">650</tspan></text>
  <text
     xml:space="preserve"
     style="font-stretch:condensed;font-size:10.6667px;line-height:1.25;font-family:'Noto Sans';-inkscape-font-specification:'Noto Sans, Condensed';letter-spacing:0px;word-spacing:0px;writing-mode:lr-tb"
     x="238.91544"
     y="218.40767"
     id="text10783-1"><tspan
       sodipodi:role="line"
       id="tspan10781-4"
       x="238.91544"
       y="218.40767">700</tspan></text>
  <text
     xml:space="preserve"
     style="font-style:normal;font-variant:normal;font-weight:normal;font-stretch:condensed;font-size:13.3333px;line-height:1.25;font-family:'Noto Sans';-inkscape-font-specification:'Noto Sans, Condensed';font-variant-ligatures:normal;font-variant-caps:normal;font-variant-numeric:normal;font-variant-east-asian:normal;letter-spacing:0px;word-spacing:0px;writing-mode:lr-tb"
     x="105.61396"
     y="237.39812"
     id="text10787-3"><tspan
       sodipodi:role="line"
       id="tspan10785-6"
       x="105.61396"
       y="237.39812">Wavelength (nm)</tspan></text>
  <text
     xml:space="preserve"
     style="font-style:normal;font-variant:normal;font-weight:normal;font-stretch:condensed;font-size:13.3333px;line-height:1.25;font-family:'Noto Sans';-inkscape-font-specification:'Noto Sans, Condensed';font-variant-ligatures:normal;font-variant-caps:normal;font-variant-numeric:normal;font-variant-east-asian:normal;letter-spacing:0px;word-spacing:0px;writing-mode:lr-tb"
     x="-176.23961"
     y="10.133307"
     id="text10791-7"
     transform="rotate(-90)"><tspan
       sodipodi:role="line"
       id="tspan10789-6"
       x="-176.23961"
       y="10.133307">Fluorescence intensity (A.U.)</tspan></text>
  <text
     xml:space="preserve"
     style="font-stretch:condensed;font-size:10.6667px;line-height:1.25;font-family:'Noto Sans';-inkscape-font-specification:'Noto Sans, Condensed';letter-spacing:0px;word-spacing:0px;writing-mode:lr-tb"
     x="27.88456"
     y="15.41801"
     id="text10795-9"><tspan
       sodipodi:role="line"
       id="tspan10793-7"
       x="27.88456"
       y="15.41801">1.0</tspan></text>
  <text
     xml:space="preserve"
     style="font-stretch:condensed;font-size:10.6667px;line-height:1.25;font-family:'Noto Sans';-inkscape-font-specification:'Noto Sans, Condensed';letter-spacing:0px;word-spacing:0px;writing-mode:lr-tb"
     x="27.927223"
     y="108.508"
     id="text10799-6"><tspan
       sodipodi:role="line"
       id="tspan10797-0"
       x="27.927223"
       y="108.508">0.5</tspan></text>
  <text
     xml:space="preserve"
     style="font-stretch:condensed;font-size:10.6667px;line-height:1.25;font-family:'Noto Sans';-inkscape-font-specification:'Noto Sans, Condensed';letter-spacing:0px;word-spacing:0px;writing-mode:lr-tb"
     x="27.88456"
     y="201.60799"
     id="text10803-9"><tspan
       sodipodi:role="line"
       id="tspan10801-0"
       x="27.88456"
       y="201.60799">0.0</tspan></text>
  <path
     style="fill:none;stroke:#000000;stroke-width:2;stroke-linecap:butt;stroke-linejoin:miter;stroke-miterlimit:10;stroke-dasharray:none;stroke-opacity:1"
     d="m 222.29647,39.92422 h 18.23475"
     id="path10805-7" />
  <path
     style="fill:none;stroke:#fb8c00;stroke-width:2;stroke-linecap:butt;stroke-linejoin:miter;stroke-miterlimit:10;stroke-dasharray:none;stroke-opacity:1"
     d="m 222.29647,78.87309 h 18.23475"
     id="path10805-5-6" />
  <path
     id="polyline12943"
     clip-path="none"
     style="fill:none;stroke:#fb8c00;stroke-width:2;stroke-linecap:butt;stroke-linejoin:round;stroke-miterlimit:10;stroke-dasharray:none"
     d="m 54.435352,197.90202 c 14.60904,-0.11206 29.2309,0.12015 43.62273,-0.1396 1.63206,-4.06796 0.71732,-9.13352 1.21279,-13.58082 1.453988,-41.3788 1.548168,-82.80395 3.897538,-124.14838 0.72955,-12.87419 0.79229,-25.83703 2.30633,-38.63498 1.37417,0.14651 1.07698,5.31423 1.54307,7.49652 2.08561,23.06755 3.82838,46.33778 8.5053,69.03098 1.32309,4.37555 1.92017,8.12929 4.0672,12.31255 1.1369,2.14266 2.12946,3.95482 3.56213,5.70263 0.74498,0.9283 2.04668,1.87103 3.34946,1.43568 0.85986,0.25773 2.28343,0.006 3.5887,0.93722 1.39534,1.32007 3.11727,2.40435 4.0672,4.35675 1.50025,1.101 1.85741,2.92976 3.08363,4.65581 4.25185,8.48919 7.18657,17.89202 11.21804,26.44964 1.29485,2.18218 1.98896,4.54535 3.34945,6.09149 1.53922,3.87672 4.77037,6.9885 7.12425,10.01953 1.43804,0.65508 3.20378,2.83867 4.78494,3.98791 2.34152,1.91921 5.27371,3.69079 7.60275,5.43349 1.575,1.3575 3.50729,2.51667 5.4761,3.9381 4.67097,2.47871 9.37182,4.93436 14.48774,7.06857 3.18379,1.19471 6.92832,2.38264 10.65978,2.87132 5.75817,1.16757 11.8999,1.82443 17.9967,2.60242 8.58991,0.67915 17.42121,1.2518 26.21085,1.50539" />
  <path
     id="polyline12947"
     clip-path="none"
     style="fill:none;stroke:#fb8c00;stroke-width:2;stroke-linecap:butt;stroke-linejoin:round;stroke-miterlimit:10;stroke-dasharray:none"
     d="m 54.435352,197.87211 c 9.61526,-0.0259 18.72307,0.0789 28.04508,-0.0199 5.16335,0.0327 10.10629,0.10351 15.3384,-0.0897 1.83231,-3.23777 0.7006,-7.76538 1.20359,-11.50733 0.71377,-40.66807 0.12667,-81.39045 3.069158,-121.9846 0.98575,-17.18836 0.75926,-34.45522 2.42617,-51.59575 2.22203,10.45295 1.85821,21.43481 3.21649,32.08196 0.58613,5.15344 0.86266,10.33064 1.3292,15.4935 0.58985,0.90558 0.56719,5.76279 0.95699,8.18513 0.90034,5.25931 1.28575,10.20614 1.91398,15.37326 0.43568,0.23925 0.75032,5.07817 1.34315,7.07313 0.25626,2.68863 0.89625,6.25657 1.42767,7.68769 0.42964,1.08102 1.13911,4.2351 1.7677,6.52476 0.49664,3.16784 1.3963,4.18449 1.92115,6.34046 0.86153,1.74228 2.22188,5.11745 2.43435,4.56411 0.33793,2.87167 1.4866,2.38676 2.47936,5.52476 1.07786,2.00692 2.02625,3.34407 2.95486,3.54974 0.71928,2.88062 1.45019,0.51272 2.39247,4.3468 1.13724,1.59742 1.96647,2.97678 2.63172,5.40358 1.31044,2.24952 1.95267,4.75689 2.87096,6.56005 0.57195,0.84497 1.78789,3.79852 2.36589,5.98188 1.566,2.97636 2.6301,6.34796 4.0672,9.43131 0.63977,1.91268 2.0366,4.38129 2.87097,5.80237 0.85825,2.04171 2.17768,3.97249 2.84438,5.77242 1.42822,1.9086 2.10579,2.85999 3.50305,4.94497 1.21553,1.07166 2.44167,3.24335 3.88703,3.92799 0.82422,1.38387 1.96687,1.78741 3.5887,3.29994 1.60714,1.02599 3.2904,1.94829 4.04062,2.61202 1.74617,0.69918 2.90513,2.20718 4.27987,2.11363 1.44066,1.2141 3.62708,1.97597 5.4761,2.8414 0.86589,0.60766 2.33628,1.15259 3.80137,1.8344 1.72556,0.6091 4.10093,1.57069 6.43309,1.964 1.96468,0.80628 3.47921,1.06015 5.68876,1.47556 1.94355,0.78518 4.56186,0.99453 6.64575,1.40572 2.93958,0.51848 5.86572,0.74347 8.53315,1.07681 3.81616,0.18198 7.60205,0.51446 11.61678,0.79751 3.38225,0.12752 6.47024,0.31007 10.15471,0.47865 5.42454,0.15749 11.32646,0.33439 17.01313,0.39886 1.71733,0.1452 3.46989,0.0219 5.18368,0.0597" />
  <path
     id="polyline12951"
     clip-path="none"
     style="fill:none;stroke:#fb8c00;stroke-width:2;stroke-linecap:butt;stroke-linejoin:round;stroke-miterlimit:10;stroke-dasharray:none"
     d="m 54.435352,197.8422 c 3.06478,0.29274 6.50707,-0.12102 9.59647,0.17945 3.15124,-0.23018 6.01669,0.0205 9.11797,-0.16943 2.69217,0.28717 5.05272,-0.13856 7.41666,0.0995 3.23202,-0.0937 6.11989,0.0178 9.11798,-0.1097 2.27137,0.2748 4.28083,-0.16786 6.45967,0.12988 2.72299,0.78456 2.78536,-3.04029 2.71042,-5.38151 0.98066,-37.63876 0.13467,-75.3243 2.313768,-112.92899 1.44354,-21.57489 1.74611,-43.20995 2.94568,-64.7903 0.43602,-4.66096 0.86785,-3.5186 1.17121,0.4558 2.1612,24.73029 3.91091,49.53347 7.96274,74.02448 1.10511,5.89282 2.86856,11.7567 4.18917,17.36777 0.34895,0.24595 1.82898,3.9282 2.63172,5.48334 0.92003,1.93614 1.07096,2.37486 2.60513,4.92503 0.64697,1.86486 1.97238,3.66891 3.29015,4.14884 1.2599,2.11104 1.78545,0.99161 2.8289,4.2002 1.43187,1.93416 1.87724,3.04199 2.7331,5.31949 1.00566,2.41298 2.22899,4.5602 3.11021,7.05857 0.92039,1.02978 1.51879,4.50301 2.60513,6.10148 0.85221,2.62016 1.55704,3.84006 2.39248,6.05158 1.80644,3.9806 3.41623,8.09068 5.23685,11.3356 0.91992,2.14842 2.58158,3.97467 3.11021,6.30086 0.97962,0.13088 3.21089,4.40507 3.78665,4.15275 1.14125,1.72148 1.54528,2.21223 2.88569,3.25482 1.53842,1.44112 2.25269,2.35851 4.04061,3.48933 1.50113,0.88405 2.37118,1.73788 4.30645,2.77155 1.36587,1.16972 2.68733,2.06754 4.04062,2.48256 1.43793,0.83434 3.23996,1.8825 4.27987,2.38268 1.74791,1.09189 2.84939,1.35712 4.51911,2.27317 1.81054,0.80429 3.1916,1.37883 4.75836,1.84435 1.85909,0.4607 2.51302,0.91713 4.27986,1.38578 1.24573,0.29323 3.14328,0.8453 4.49253,1.23621 3.39724,0.59424 6.1124,1.73888 9.25089,1.73489 3.67279,0.48417 7.17276,0.90138 10.65979,1.15668 2.7541,0.32296 6.29223,0.50298 9.25088,0.69806 2.12028,0.16782 4.48425,0.35321 6.37993,0.33909 2.66956,0.20227 5.25989,0.0946 8.02807,0.47853 2.48077,-0.1716 5.06502,0.11537 7.78882,0.0498 1.91212,0.14444 3.46484,-0.04 5.42293,0.28922" />
  <path
     id="polyline12955"
     clip-path="none"
     style="fill:none;stroke:#fb8c00;stroke-width:2;stroke-linecap:butt;stroke-linejoin:round;stroke-miterlimit:10;stroke-dasharray:none"
     d="m 54.435352,198.53011 c 1.11667,-1.56861 2.5356,0.0664 4.0672,-0.81753 1.92454,0.39759 2.7339,-0.26241 4.09379,0.0598 1.77702,0.6268 3.15964,-0.28087 4.0672,0.31898 1.39164,-0.18448 3.43349,-0.58835 4.30645,-0.19936 1.0385,-0.28281 2.84205,0.34649 3.85453,0.319 1.40478,-0.55081 3.26556,-0.43643 4.5457,-0.2791 1.75274,0.15649 2.05604,-0.57122 3.82795,-0.0698 1.73734,-0.4137 2.48194,0.23971 4.5457,0.0896 2.25292,-0.71561 2.61395,0.69173 3.85453,-0.48859 0.90143,1.14326 3.26564,-0.25999 3.82652,0.24638 0.10208,-0.16952 3.30341,1.12449 3.31873,-1.27773 1.05077,-24.34058 0.59829,-48.73895 1.02039,-73.10243 0.16868,-22.66122 1.761888,-45.26379 2.874778,-67.84884 0.35311,-13.76953 0.93133,-27.30799 1.63968,-40.93154 0.61977,2.24253 0.7891,-4.70094 0.95699,1.22627 0.80644,6.44508 1.06091,13.18789 1.79725,19.61213 0.0796,3.14633 0.7413,5.26101 0.73983,8.89906 0.32562,5.58562 1.18569,11.15997 1.64239,16.39448 -0.10168,3.81197 1.20894,7.44852 1.08396,11.28363 1.02953,-2.34299 0.38286,5.24283 0.92522,7.06788 0.51151,-3.35817 0.63665,3.2159 0.98876,5.27462 0.80429,3.28034 1.32131,6.56468 1.67473,9.93981 0.77944,1.14983 0.7996,0.55093 1.35904,3.22303 0.17628,1.97232 0.47755,5.11851 1.27268,5.79955 0.85106,3.63143 0.82555,6.07775 1.42474,4.97507 0.83038,0.37745 0.68114,-0.21431 1.92472,3.69858 0.44246,-1.64861 0.44289,2.53903 0.73956,0.46874 0.32536,2.65834 0.78346,0.3935 1.86557,3.49923 0.30229,3.19567 1.88243,2.76907 2.01592,3.05333 0.55558,2.56514 1.61618,0.2307 2.29053,3.36717 1.04327,-2.51559 1.20896,-1.12875 2.15323,0.98701 0.34472,-0.26718 0.96269,3.05517 1.67473,2.59213 -0.1691,3.0942 1.56017,2.76545 1.78337,4.0863 0.62757,0.33427 1.14887,4.93211 1.90969,3.997 0.1159,-0.39228 1.12216,4.5574 2.01554,6.11288 0.86799,0.4139 -0.12007,-0.16021 1.44223,3.15113 -0.003,-4.14403 0.83208,2.26529 1.67473,3.1903 0.34458,2.84505 1.3733,3.40195 1.66012,4.1185 0.44703,0.23707 0.98882,5.41363 2.40708,4.21622 -0.14619,2.01427 2.18675,5.49183 1.96297,6.02469 0.29721,-1.50031 1.04529,2.12202 2.07764,3.12752 0.42572,-0.57541 1.24543,2.47523 2.15323,4.29691 0.5136,-0.42587 1.43362,-0.11925 2.36589,2.97103 0.84932,2.0747 1.89679,0.30412 2.63171,2.66192 1.50033,1.71965 1.41795,0.60823 2.80058,2.75683 1.3888,-0.60797 1.63521,2.27883 2.28591,0.2789 0.34221,3.58738 2.13097,1.26649 3.21928,3.67859 0.5119,1.81938 1.53508,-1.17584 2.16794,1.15181 0.39842,0.687 2.61048,-0.0762 2.87097,1.52537 1.61258,1.04475 2.33402,0.98663 3.53584,2.32148 2.1267,1.41125 2.09033,0.97576 2.92929,0.75831 -0.35858,2.11821 2.44358,1.37396 2.71686,1.38948 1.83208,1.25562 2.4727,1.04211 3.6576,2.40993 1.19805,-0.85895 2.69659,0.12027 3.56212,1.02685 1.32174,-0.037 1.50551,0.81695 2.84439,0.11956 1.34405,1.41316 2.37603,1.25702 3.32287,0.96713 1.42371,1.86081 3.12454,0.46221 3.56213,1.6151 0.90352,-0.14168 0.65264,0.45753 2.36588,0.2691 0.78793,-1.05983 3.11982,1.04918 3.5296,0.20053 1.94747,0.30899 2.10021,0.44983 3.23344,0.58646 0.8555,0.60078 1.3654,-0.52233 2.7271,0.67856 1.41219,-0.1126 1.3914,-1.02777 3.29629,0.20939 1.75746,-1.04308 2.7447,1.17522 3.52083,-0.1941 1.46009,0.17389 2.53014,1.69521 3.36417,0.18412 0.5514,0.60703 2.04207,0.36518 3.53554,0.30902 1.5238,0.85902 2.03136,1.1343 3.08363,-0.38885 1.01525,1.31776 2.21786,1.7988 3.05705,0.85739 0.9053,0.87638 2.29217,-0.0211 3.53554,0.41868 0.65166,-0.0414 1.97853,-0.80339 3.08363,0.45858 0.99137,0.0314 1.50742,-0.10349 3.29629,-0.26909 1.71942,0.15773 2.45615,0.91754 3.44816,-0.2497 1.42851,0.67348 1.87654,0.095 3.17101,0.68839 1.11639,-1.26735 1.61054,0.18716 3.29486,-0.40583 l 0.001,-0.003 0.23924,0.10967" />
  <path
     id="polyline12959"
     clip-path="none"
     style="fill:none;stroke:#fb8c00;stroke-width:2;stroke-linecap:butt;stroke-linejoin:round;stroke-miterlimit:10;stroke-dasharray:none"
     d="m 54.435352,197.81229 c 1.871,0.1778 3.17103,0.0217 5.02419,0.0697 1.35462,0.016 2.58327,-0.0138 4.33303,0.0398 2.13735,0.003 4.05869,-0.0929 6.45968,0.01 2.72074,-0.17442 5.44676,0.1737 8.40023,-0.0798 1.55515,-0.251 3.19007,0.45979 4.54569,-0.01 1.86833,0.12515 2.51593,0.0677 4.78494,0.0199 2.49669,-0.11831 4.38392,0.18826 6.72551,-0.0798 1.45726,-0.17042 4.07062,1.15736 4.11149,-1.63545 1.17488,-29.96372 0.41894,-59.98748 1.296188,-89.9607 1.09586,-23.85585 2.66186,-47.69004 3.32501,-71.56708 0.33848,-7.05696 0.32803,-14.15825 1.31568,-21.15669 0.72794,4.18807 1.12297,8.60862 1.43549,12.92074 0.64849,2.62713 0.56008,6.9617 0.95699,10.2389 1.08514,12.50596 2.29033,25.04806 3.82795,37.49608 0.79788,1.2717 0.53599,5.6681 1.19623,8.12531 1.16122,5.53691 1.37583,11.51716 3.34946,16.39017 0.35336,3.06353 1.04315,5.11714 1.91398,7.39752 0.95403,4.38715 1.17472,1.81589 1.85743,5.3628 0.93759,0.44921 1.84686,4.21788 2.18319,3.35071 0.60594,3.19063 1.64461,3.59496 2.15322,5.45347 0.69737,0.85725 1.22561,2.04673 3.11021,3.21019 0.0946,2.17656 1.1923,0.63758 2.15323,4.16734 1.11321,1.56745 1.90375,5.40064 2.61903,5.50081 0.92105,2.17561 1.17265,3.84638 2.40516,5.94436 1.04555,2.566 1.35401,3.39282 2.36589,6.46039 0.70302,1.97382 2.10934,3.98877 2.32228,6.43863 0.51366,-0.6565 0.8891,2.15824 2.14894,4.06603 0.88627,2.45789 1.92744,3.74029 2.70619,6.37409 1.83702,2.44282 1.29864,1.99997 3.08363,4.74554 1.08246,2.67841 1.97718,2.46385 2.87096,4.91504 1.86566,0.74213 2.99384,4.49758 3.32288,3.37973 1.56434,1.83479 1.5958,1.60769 3.34946,3.29005 1.62063,0.89919 3.06733,2.45219 4.27986,2.58213 1.00107,1.36679 2.32865,1.86273 4.04062,2.68183 1.75733,1.00976 3.01837,2.0717 4.30645,2.1535 1.24345,1.46499 2.11842,0.91298 3.80137,2.33285 1.34359,0.76565 3.30029,0.84764 4.44872,1.96925 0.65787,-0.48133 3.39624,1.4437 3.87176,0.94185 1.42274,1.17534 3.40305,0.333 4.27987,1.45576 1.45673,-0.35436 2.19887,0.98854 4.25328,0.8175 1.58768,0.007 2.86917,1.10197 4.27986,0.7877 1.40518,0.85889 2.62812,0.15637 4.27987,0.58821 1.45612,0.24561 3.02411,0.43331 4.73178,0.54818 1.20786,0.43414 2.50244,-0.0648 4.25328,0.33889 1.84387,0.34333 2.73723,0.25664 4.73177,0.48852 1.50305,0.10177 2.74556,0.0789 4.51912,0.20928 1.78092,-0.0217 3.67715,0.29204 5.18368,0.20939 1.76148,0.45234 3.10455,-0.14588 4.97103,0.36893 1.5521,-0.33048 2.72887,0.27688 4.49253,-0.0499 1.281,0.40563 3.74647,-0.13525 5.66218,0.31897 1.88296,-0.085 3.87157,0.0635 6.35334,0.16944 1.33917,-0.21825 2.09843,-0.0147 3.32287,-0.0698" />
</svg>
